<svg xmlns="http://www.w3.org/2000/svg" xmlns:xlink="http://www.w3.org/1999/xlink" width="260.771" height="240.95" viewBox="0 0 260.771 240.95">
  <defs>
    <clipPath id="clip-path">
      <rect id="Rectángulo_327085" data-name="Rectángulo 327085" width="137.683" height="146.459" fill="none"/>
    </clipPath>
    <linearGradient id="linear-gradient" x1="6.247" y1="-8.894" x2="8.095" y2="-7.797" gradientUnits="objectBoundingBox">
      <stop offset="0" stop-color="#fff"/>
      <stop offset="0.229" stop-color="#fefefe" stop-opacity="0.988"/>
      <stop offset="0.365" stop-color="#fdfdfd" stop-opacity="0.957"/>
      <stop offset="0.477" stop-color="#fbfbfc" stop-opacity="0.902"/>
      <stop offset="0.576" stop-color="#f8f8fa" stop-opacity="0.824"/>
      <stop offset="0.667" stop-color="#f4f5f7" stop-opacity="0.718"/>
      <stop offset="0.751" stop-color="#eff1f4" stop-opacity="0.592"/>
      <stop offset="0.83" stop-color="#eaecef" stop-opacity="0.443"/>
      <stop offset="0.905" stop-color="#e3e6eb" stop-opacity="0.271"/>
      <stop offset="0.975" stop-color="#dcdfe6" stop-opacity="0.078"/>
      <stop offset="1" stop-color="#dadde4" stop-opacity="0"/>
    </linearGradient>
    <linearGradient id="linear-gradient-2" x1="6.646" y1="-9.764" x2="7.611" y2="-8.854" xlink:href="#linear-gradient"/>
  </defs>
  <g id="Grupo_877585" data-name="Grupo 877585" transform="translate(-59.27 -34.542)">
    <g id="Grupo_877524" data-name="Grupo 877524" transform="translate(103.27 34.541)">
      <path id="Trazado_619536" data-name="Trazado 619536" d="M267.412,183.948H179.071v-2.6a7.226,7.226,0,0,1,7.226-7.226h73.889a7.226,7.226,0,0,1,7.226,7.226Z" transform="translate(-137.856 -98.23)" fill="#0c1529"/>
      <g id="Grupo_877522" data-name="Grupo 877522" transform="translate(40.556 217.247)">
        <path id="Trazado_619537" data-name="Trazado 619537" d="M259.633,454.361H185.086a7.226,7.226,0,0,1-7.226-7.226V434.1h89v13.035A7.226,7.226,0,0,1,259.633,454.361Z" transform="translate(-177.86 -434.1)" fill="#0c1529"/>
        <circle id="Elipse_6943" data-name="Elipse 6943" cx="4.973" cy="4.973" r="4.973" transform="matrix(0.964, -0.267, 0.267, 0.964, 38.323, 6.344)" fill="#5f6a82"/>
      </g>
      <path id="Trazado_619538" data-name="Trazado 619538" d="M190.625,189.014l-20.565-45.969-44.578,22.431,22.5-44.963L103.27,99.871,151.83,89.2,140.713,41.6l38,31.09,30.906-38.147L208.38,83.409l49.715.6L218.5,113.29l31.146,39.469-48.2-12.928Z" transform="translate(-103.27 -34.541)" fill="#fff"/>
      <g id="Grupo_877523" data-name="Grupo 877523" transform="translate(41.211 85.724)">
        <path id="Trazado_619539" data-name="Trazado 619539" d="M267.413,323.718H179.065V192.2h88.348Z" transform="translate(-179.065 -192.204)" fill="#f8f2ed"/>
      </g>
    </g>
    <path id="Trazado_619535" data-name="Trazado 619535" d="M260.636,180.644a2.288,2.288,0,1,1-2.678-1.817A2.288,2.288,0,0,1,260.636,180.644Z" transform="translate(-69.734 -65.816)" fill="#5f6a82"/>
    <g id="Grupo_877538" data-name="Grupo 877538" transform="translate(144.481 186.674)">
      <g id="Grupo_877530" data-name="Grupo 877530" transform="translate(12.261 13.117)">
        <g id="Grupo_877525" data-name="Grupo 877525" transform="translate(0 0.009)">
          <path id="Rectángulo_327067" data-name="Rectángulo 327067" d="M.843,0H2.471a.844.844,0,0,1,.844.844v0a.843.843,0,0,1-.843.843H.844A.844.844,0,0,1,0,.843v0A.843.843,0,0,1,.843,0Z" transform="translate(0 6.049) rotate(-88.961)" fill="#0072ff"/>
          <path id="Trazado_619540" data-name="Trazado 619540" d="M207.693,340.452c-.03.067-.08.136.007.2.02.034.053.022.082.022l1.629.03a.149.149,0,0,0,.074-.01.387.387,0,0,1,.329.337,1.447,1.447,0,0,0,0,.182.3.3,0,0,1-.117.206.167.167,0,0,0-.009.263.539.539,0,0,1,.142.374.481.481,0,0,1-.2.343.172.172,0,0,0-.046.258.352.352,0,0,1-.089.532.183.183,0,0,0-.061.228c.2.467-.059.741-.56.732-.718-.013-1.437-.012-2.155,0q-.417,0-.834,0c-.2,0-.4-.079-.4-.319-.006-.509.048-2.119.044-2.422a.513.513,0,0,1,.088-.286,8.107,8.107,0,0,1,.96-1.265.992.992,0,0,1,.14-.117.483.483,0,0,0,.215-.428,1.726,1.726,0,0,1,.054-.525.433.433,0,0,1,.743-.15,1.226,1.226,0,0,1,.232,1.056A4.115,4.115,0,0,1,207.693,340.452Z" transform="translate(-203.38 -338.483)" fill="#0072ff" fill-rule="evenodd"/>
        </g>
        <g id="Grupo_877526" data-name="Grupo 877526" transform="translate(20.31)">
          <path id="Rectángulo_327068" data-name="Rectángulo 327068" d="M.844,0H2.471a.844.844,0,0,1,.844.844v0a.843.843,0,0,1-.843.843H.842A.842.842,0,0,1,0,.844v0A.844.844,0,0,1,.844,0Z" transform="translate(4.702 3.315) rotate(-88.979)" fill="#878a8c"/>
          <path id="Trazado_619541" data-name="Trazado 619541" d="M241.1,342.925c.03-.067.081-.136-.007-.2-.02-.034-.053-.022-.081-.022l-1.63-.029a.146.146,0,0,0-.073.01.387.387,0,0,1-.329-.337,1.444,1.444,0,0,0,0-.182.3.3,0,0,1,.117-.206.167.167,0,0,0,.009-.263.536.536,0,0,1-.142-.374.481.481,0,0,1,.2-.343.172.172,0,0,0,.046-.258.352.352,0,0,1,.089-.532.183.183,0,0,0,.061-.228c-.2-.467.059-.741.561-.732.718.013,1.436.011,2.155,0,.278,0,.556,0,.834,0,.2,0,.4.079.4.319.006.508-.047,2.119-.043,2.421a.512.512,0,0,1-.088.286,8.072,8.072,0,0,1-.96,1.265.956.956,0,0,1-.14.117.484.484,0,0,0-.214.428,1.71,1.71,0,0,1-.055.525.433.433,0,0,1-.743.15,1.23,1.23,0,0,1-.233-1.057A4.116,4.116,0,0,1,241.1,342.925Z" transform="translate(-238.97 -338.814)" fill="#878a8c" fill-rule="evenodd"/>
        </g>
        <path id="Trazado_619542" data-name="Trazado 619542" d="M280.484,341.978v1.033l3.114-2.057h0l-3.114-2.057v1.033a5.605,5.605,0,0,0-2.537,1.083,4.511,4.511,0,0,0-1.64,3.5,3.54,3.54,0,0,1,4.177-2.539Z" transform="translate(-235.696 -338.663)" fill="#878a8c"/>
        <g id="Grupo_877529" data-name="Grupo 877529" transform="translate(61.764 0.615)">
          <g id="Grupo_877527" data-name="Grupo 877527">
            <rect id="Rectángulo_327069" data-name="Rectángulo 327069" width="4.975" height="0.686" fill="#878a8c"/>
            <rect id="Rectángulo_327070" data-name="Rectángulo 327070" width="4.975" height="0.686" transform="translate(0 1.436)" fill="#878a8c"/>
            <rect id="Rectángulo_327071" data-name="Rectángulo 327071" width="3.604" height="0.686" transform="translate(0 2.872)" fill="#878a8c"/>
          </g>
          <g id="Grupo_877528" data-name="Grupo 877528" transform="translate(4.194 1.593)">
            <rect id="Rectángulo_327072" data-name="Rectángulo 327072" width="3.245" height="0.686" transform="translate(0 1.279)" fill="#878a8c"/>
            <path id="Trazado_619543" data-name="Trazado 619543" d="M325.31,345.793l-.021-3.262.681,0,.021,3.262Z" transform="translate(-324.004 -342.527)" fill="#878a8c"/>
          </g>
        </g>
      </g>
      <g id="Grupo_877531" data-name="Grupo 877531" transform="translate(10.623 41.174)">
        <rect id="Rectángulo_327073" data-name="Rectángulo 327073" width="34.17" height="20.695" fill="#d8d8d8"/>
        <rect id="Rectángulo_327074" data-name="Rectángulo 327074" width="5.685" height="3.215" transform="translate(24.941 15.33)" fill="#161616" opacity="0.68"/>
      </g>
      <g id="Grupo_877532" data-name="Grupo 877532" transform="translate(49.407 41.174)">
        <rect id="Rectángulo_327075" data-name="Rectángulo 327075" width="13.69" height="3.711" transform="translate(0)" fill="#d8d8d8"/>
        <rect id="Rectángulo_327076" data-name="Rectángulo 327076" width="18.483" height="1.795" transform="translate(0 7.594)" fill="#d8d8d8"/>
        <rect id="Rectángulo_327077" data-name="Rectángulo 327077" width="18.483" height="1.796" transform="translate(0 11.826)" fill="#d8d8d8"/>
      </g>
      <line id="Línea_2550" data-name="Línea 2550" x2="88.348" transform="translate(0 36.113)" fill="none" stroke="#bdbdbd" stroke-miterlimit="10" stroke-width="0.867"/>
      <g id="Grupo_877537" data-name="Grupo 877537" transform="translate(0 0.245)">
        <line id="Línea_2551" data-name="Línea 2551" x2="88.348" transform="translate(0 21.784)" fill="none" stroke="#bdbdbd" stroke-miterlimit="10" stroke-width="0.867"/>
        <g id="Grupo_877536" data-name="Grupo 877536" transform="translate(10.623)">
          <g id="Grupo_877533" data-name="Grupo 877533">
            <rect id="Rectángulo_327078" data-name="Rectángulo 327078" width="23.902" height="2.837" transform="translate(14.982 0.844)" fill="#bdbdbd"/>
            <rect id="Rectángulo_327079" data-name="Rectángulo 327079" width="36.451" height="2.837" transform="translate(14.982 6.694)" fill="#bdbdbd"/>
            <rect id="Rectángulo_327080" data-name="Rectángulo 327080" width="31.231" height="4.585" transform="translate(1.976 26.545)" fill="#bdbdbd"/>
            <path id="Trazado_619544" data-name="Trazado 619544" d="M208.978,319.979a5.187,5.187,0,1,1-5.188-5.187A5.187,5.187,0,0,1,208.978,319.979Z" transform="translate(-198.603 -314.792)" fill="#878a8c"/>
          </g>
          <g id="Grupo_877535" data-name="Grupo 877535" transform="translate(40.504 26.154)">
            <rect id="Rectángulo_327081" data-name="Rectángulo 327081" width="19.978" height="3.471" transform="translate(9.198 0.795)" fill="#ff3434"/>
            <g id="Grupo_877534" data-name="Grupo 877534">
              <rect id="Rectángulo_327082" data-name="Rectángulo 327082" width="6.353" height="5.368" rx="2.371" fill="#ff3434"/>
              <path id="Trazado_619545" data-name="Trazado 619545" d="M277.221,366.745v-1.294l1.121.647,1.121.647-1.121.647-1.121.647Z" transform="translate(-274.979 -364.06)" fill="#fffffd"/>
            </g>
          </g>
        </g>
      </g>
      <path id="Trazado_619546" data-name="Trazado 619546" d="M322.855,314.341h-1.885l.942,1.089.942,1.089.942-1.089.942-1.089Z" transform="translate(-243.814 -314.341)" fill="#878a8c"/>
      <path id="Trazado_619547" data-name="Trazado 619547" d="M313.811,391.872h5.62a1.563,1.563,0,0,0,1.559-1.558h0a1.563,1.563,0,0,0-1.559-1.559h-5.62a1.563,1.563,0,0,0-1.559,1.559h0A1.563,1.563,0,0,0,313.811,391.872Z" transform="translate(-239.836 -348.295)" fill="#2893ff"/>
      <path id="Trazado_619548" data-name="Trazado 619548" d="M321.076,389.849a2.855,2.855,0,1,0,2.854-2.854A2.855,2.855,0,0,0,321.076,389.849Z" transform="translate(-243.862 -347.492)" fill="#dbdbdb" style="mix-blend-mode: multiply;isolation: isolate"/>
      <path id="Trazado_619549" data-name="Trazado 619549" d="M321.076,388.527a2.855,2.855,0,1,0,2.854-2.855A2.855,2.855,0,0,0,321.076,388.527Z" transform="translate(-243.862 -346.888)" fill="#0072ff"/>
    </g>
    <g id="Grupo_877539" data-name="Grupo 877539" transform="translate(144.481 120.265)">
      <rect id="Rectángulo_327083" data-name="Rectángulo 327083" width="88.348" height="62.75" transform="translate(0)" fill="#307cff"/>
    </g>
    <g id="Grupo_877540" data-name="Grupo 877540" transform="translate(152.034 126.134)">
      <path id="Trazado_619550" data-name="Trazado 619550" d="M192.956,203l2.384,2.469L197.724,203" transform="translate(-192.956 -202.997)" fill="none" stroke="#fff" stroke-miterlimit="10" stroke-width="1.117"/>
    </g>
    <g id="Grupo_877578" data-name="Grupo 877578" transform="translate(116.73 36.557)">
      <g id="Grupo_877577" data-name="Grupo 877577" clip-path="url(#clip-path)">
        <g id="Grupo_877576" data-name="Grupo 877576" transform="translate(1.689 8.627)">
          <g id="Grupo_877546" data-name="Grupo 877546" transform="translate(0 32.162)">
            <g id="Grupo_877541" data-name="Grupo 877541" transform="translate(11.775 23.247)">
              <path id="Trazado_619551" data-name="Trazado 619551" d="M155.055,165.957c1.387-1.844,2.737-3.715,3.94-5.688l1.852-3.038a3.237,3.237,0,0,1,.752-.944,1.1,1.1,0,0,1,1.139-.17,1.117,1.117,0,0,1,.519,1.04,3.636,3.636,0,0,1-.32,1.177,22.481,22.481,0,0,0-1.732,6.563,16.381,16.381,0,0,0,.159,3.3l15.655,35.1-11.026,6.479-13.206-40.49" transform="translate(-152.788 -156.023)" fill="#ff9b73" stroke="#ef714b" stroke-linecap="round" stroke-linejoin="round" stroke-width="1.518"/>
            </g>
            <g id="Grupo_877542" data-name="Grupo 877542" transform="translate(1.536 8.463)">
              <path id="Trazado_619552" data-name="Trazado 619552" d="M133.975,130.819a1.51,1.51,0,0,1,.533-1.5,2.315,2.315,0,0,1,.884-.4l11.843,1.334a1.9,1.9,0,0,1,1.795,1.6l4.017,27.354a1.123,1.123,0,0,1-.041.552,1.924,1.924,0,0,1-1.9,1.366l-11.086-.195a1.9,1.9,0,0,1-1.795-1.6S134.368,133.866,133.975,130.819Z" transform="translate(-133.956 -128.871)" fill="#b2b7c6" fill-rule="evenodd"/>
              <path id="Trazado_619553" data-name="Trazado 619553" d="M153.516,159l-4.077-27.363a1.763,1.763,0,0,0-1.664-1.487l-11.588-1.315a1.232,1.232,0,0,0-1.265,1.448l4.181,28.526a1.764,1.764,0,0,0,1.664,1.487l11.484.152A1.232,1.232,0,0,0,153.516,159Z" transform="translate(-134.39 -128.833)" fill="#3e4a70" fill-rule="evenodd"/>
              <path id="Trazado_619554" data-name="Trazado 619554" d="M155.306,182.747a.794.794,0,0,0-.592.957.8.8,0,0,0,.929.645.794.794,0,0,0,.592-.957A.8.8,0,0,0,155.306,182.747Z" transform="translate(-143.419 -153.426)" fill="#041446" fill-rule="evenodd"/>
              <path id="Trazado_619555" data-name="Trazado 619555" d="M138.493,130.082a.262.262,0,0,0-.2.363.39.39,0,0,0,.415.255.262.262,0,0,0,.2-.363A.39.39,0,0,0,138.493,130.082Z" transform="translate(-135.928 -129.401)" fill="#041446" fill-rule="evenodd"/>
              <path id="Trazado_619556" data-name="Trazado 619556" d="M134.921,131.352c0,.026,0,.052.007.079l3.99,27.121,14.413.215-3.883-25.959Z" transform="translate(-134.396 -129.982)" fill="#307cff" fill-rule="evenodd"/>
              <path id="Trazado_619557" data-name="Trazado 619557" d="M150.513,135.394q3.5,5.376,7.018,10.747l-1.756-12.7-6.988-.7Q149.65,134.067,150.513,135.394Z" transform="translate(-140.723 -130.616)" fill-rule="evenodd" fill="url(#linear-gradient)" style="mix-blend-mode: hard-light;isolation: isolate"/>
              <path id="Trazado_619558" data-name="Trazado 619558" d="M147.695,143.515l1.26-.826-6.943-10.627-1.918-.192,2.77,4.241Q145.282,139.812,147.695,143.515Z" transform="translate(-136.757 -130.219)" fill-rule="evenodd" fill="url(#linear-gradient-2)" style="mix-blend-mode: hard-light;isolation: isolate"/>
              <path id="Trazado_619559" data-name="Trazado 619559" d="M155.366,187.438l.674,0a.125.125,0,0,0,.115-.173l-.046-.109a.125.125,0,0,0-.111-.076l-.527-.014a.125.125,0,0,0-.1.044l-.1.118A.124.124,0,0,0,155.366,187.438Z" transform="translate(-143.669 -155.406)" fill="#041446" fill-rule="evenodd"/>
            </g>
            <g id="Grupo_877543" data-name="Grupo 877543" transform="translate(0 20.815)">
              <path id="Trazado_619560" data-name="Trazado 619560" d="M138.144,173.463a7.3,7.3,0,0,0,3.279-.913c.43-.24.886-.618.846-1.1a.876.876,0,0,0-.481-.664,1.965,1.965,0,0,0-.836-.2,6.13,6.13,0,0,0-3.288.752C136.532,172.121,136.618,173.517,138.144,173.463Z" transform="translate(-133.762 -160.236)" fill="#ff9b73" stroke="#ef714b" stroke-miterlimit="10" stroke-width="1.518"/>
              <path id="Trazado_619561" data-name="Trazado 619561" d="M134.325,167.785c1.474.544,3.335.083,4.755-.375a1.877,1.877,0,0,0,1.351-1.043c.167-.546-.183-.6-.655-.919a3.078,3.078,0,0,0-1.62-.426,8.787,8.787,0,0,0-4.584.858.823.823,0,0,0-.4.745.987.987,0,0,0,.2.462A2.008,2.008,0,0,0,134.325,167.785Z" transform="translate(-132.06 -157.693)" fill="#ff9b73" stroke="#ef714b" stroke-miterlimit="10" stroke-width="1.518"/>
              <path id="Trazado_619562" data-name="Trazado 619562" d="M134.747,154.889l2.945-.9c.6-.184,1.315-.5,1.385-1.114a1.019,1.019,0,0,0-.461-.9c-1.357-.981-4.059-.064-6.326.955a1.241,1.241,0,0,0-.726,1.529,1.351,1.351,0,0,0,1.208.834,4.168,4.168,0,0,0,1.547-.268Z" transform="translate(-131.301 -151.55)" fill="#ff9b73" stroke="#ef714b" stroke-miterlimit="10" stroke-width="1.518"/>
              <path id="Trazado_619563" data-name="Trazado 619563" d="M131.192,160.589a1.634,1.634,0,0,0,1.166.967,4.29,4.29,0,0,0,1.59.029,19.5,19.5,0,0,0,4.993-1.286c.407-.165.854-.393.979-.807.482-1.607-3.088-1.213-3.825-1.143C135.057,158.445,130.56,158.754,131.192,160.589Z" transform="translate(-131.131 -154.61)" fill="#ff9b73" stroke="#ef714b" stroke-miterlimit="10" stroke-width="1.518"/>
            </g>
            <g id="Grupo_877544" data-name="Grupo 877544" transform="translate(12.912 36.423)">
              <path id="Trazado_619564" data-name="Trazado 619564" d="M209.152,182.322c-4.423-2.773-9.106-2.585-13.545-.441-5.1,8.2-15.159,24.376-18.516,29.138.466-.661-5.32-12.963-5.874-14.283q-2.425-5.773-5.259-11.362c-1.777,3.481-7.217,6.9-11.065,7.6-.45-.172,10.7,30.728,12.135,34.661,1.092,2.987,2.769,8.163,5.689,9.984,5.335,3.326,14.976-12.506,17.565-15.706,3.8-4.693,12.622-13.157,16.172-18.038,2.816-3.871,5.716-7.94,6.452-12.67a17.082,17.082,0,0,0,.04-4.692A10.336,10.336,0,0,0,209.152,182.322Z" transform="translate(-154.88 -180.256)" fill="#2e3b6b"/>
              <path id="Trazado_619565" data-name="Trazado 619565" d="M209.152,182.322c-4.423-2.773-9.106-2.585-13.545-.441-5.1,8.2-15.159,24.376-18.516,29.138.466-.661-5.32-12.963-5.874-14.283q-2.425-5.773-5.259-11.362c-1.777,3.481-7.217,6.9-11.065,7.6-.45-.172,10.7,30.728,12.135,34.661,1.092,2.987,2.769,8.163,5.689,9.984,5.335,3.326,14.976-12.506,17.565-15.706,3.8-4.693,12.622-13.157,16.172-18.038,2.816-3.871,5.716-7.94,6.452-12.67a17.082,17.082,0,0,0,.04-4.692A10.336,10.336,0,0,0,209.152,182.322Z" transform="translate(-154.88 -180.256)"/>
            </g>
            <path id="Trazado_619566" data-name="Trazado 619566" d="M236.7,186.507a10.336,10.336,0,0,0-3.8-4.186c-4.423-2.773-9.106-2.585-13.545-.441-1.271,2.043-2.849,4.58-4.554,7.311a25.954,25.954,0,0,0-.027,3.4c.057,1,.558,2.417.353,3.341-.137.62-1.078,1.417-1.421,2.01a14.278,14.278,0,0,0-1.124,2.474,23.139,23.139,0,0,0-1.11,5.558,110.2,110.2,0,0,0-.015,11.365c.073,5.16-2.518,9.537-4.524,14.089,3.133-3.77,5.886-8.028,7.1-9.524,3.8-4.693,12.622-13.157,16.172-18.038,2.816-3.871,5.716-7.94,6.452-12.67A17.082,17.082,0,0,0,236.7,186.507Z" transform="translate(-165.722 -143.833)" fill="#2e3b6b"/>
            <path id="Trazado_619567" data-name="Trazado 619567" d="M188.344,250.3a21.5,21.5,0,0,1,3.461-13.371" transform="translate(-157.217 -169.692)" fill="none" stroke="#182349" stroke-miterlimit="10" stroke-width="2.631"/>
            <path id="Trazado_619568" data-name="Trazado 619568" d="M180.987,245.07a22.755,22.755,0,0,1,7.161-10.169" transform="translate(-153.88 -168.766)" fill="none" stroke="#182349" stroke-miterlimit="10" stroke-width="2.631"/>
            <g id="Grupo_877545" data-name="Grupo 877545" transform="translate(16.461)">
              <path id="Trazado_619569" data-name="Trazado 619569" d="M161.407,119.228v-5.961" transform="translate(-161.407 -113.267)" fill="none" stroke="#fff" stroke-miterlimit="10" stroke-width="1.091"/>
              <path id="Trazado_619570" data-name="Trazado 619570" d="M166.844,122.188l4.215-4.215" transform="translate(-163.888 -115.414)" fill="none" stroke="#fff" stroke-miterlimit="10" stroke-width="1.091"/>
              <path id="Trazado_619571" data-name="Trazado 619571" d="M169.631,130.627h5.962" transform="translate(-165.159 -121.188)" fill="none" stroke="#fff" stroke-miterlimit="10" stroke-width="1.091"/>
            </g>
          </g>
          <g id="Grupo_877548" data-name="Grupo 877548" transform="translate(54.077 59.725)">
            <g id="Grupo_877547" data-name="Grupo 877547" transform="translate(0.071)">
              <path id="Trazado_619572" data-name="Trazado 619572" d="M284.82,255.182s-4.96,4.242-29.078,3.64c-18.624-.465-23.532-5.008-23.532-5.008s-3.9-76.751.919-82.946c3.507-4.5,10.359-6.4,19.283-6.818,3.366-.154,7.024-.1,10.912.1a36.809,36.809,0,0,1,8.149,1.354c9.967,2.845,16.926,9.434,17.958,14.578C290.728,186.539,284.82,255.182,284.82,255.182Z" transform="translate(-230.719 -163.961)" fill="#2e3b6b"/>
              <path id="Trazado_619573" data-name="Trazado 619573" d="M284.82,255.182s-4.96,4.242-29.078,3.64c-18.624-.465-23.532-5.008-23.532-5.008s-3.9-76.751.919-82.946c3.507-4.5,10.359-6.4,19.283-6.818,3.366-.154,7.024-.1,10.912.1a36.809,36.809,0,0,1,8.149,1.354c9.967,2.845,16.926,9.434,17.958,14.578C290.728,186.539,284.82,255.182,284.82,255.182Z" transform="translate(-230.719 -163.961)"/>
            </g>
            <path id="Trazado_619574" data-name="Trazado 619574" d="M284.474,175.975a6.547,6.547,0,0,0-2.67-10.2,16.837,16.837,0,0,0-12.235-.431c-3.119,1.116-6.3,3.983-6.23,7.544a6.983,6.983,0,0,0,3.031,5.345c4.014,2.884,10.329,2.654,14.632.585A9.347,9.347,0,0,0,284.474,175.975Z" transform="translate(-245.531 -164.162)" fill="#fff"/>
            <path id="Trazado_619575" data-name="Trazado 619575" d="M312.708,181.39c-1.03-4.983-7.648-11.278-17.148-14.2-3.648,2.241-8.8,11.593-11.491,28.22v.01a141.1,141.1,0,0,0-1.684,17.38c-1.134,29.568,1.9,38.033,1.9,38.033s19.073,2.5,24.759-.841C310.376,232.706,313.789,186.614,312.708,181.39Z" transform="translate(-254.106 -165.435)" fill="#2e3b6b"/>
            <path id="Trazado_619576" data-name="Trazado 619576" d="M254.547,166.525s-17.585,1.3-22.887,9.523a143.93,143.93,0,0,0-1.055,19.066,13.837,13.837,0,0,0,.572,1.525,1.128,1.128,0,0,0-.186.017,1.823,1.823,0,0,0-.4.14c-.082,18.053.932,41.095,1.475,52.034,4,2.524,13.472.654,13.472.654s-1.707-35.347-.54-53.4S254.547,166.525,254.547,166.525Z" transform="translate(-230.588 -165.131)" fill="#2e3b6b"/>
          </g>
          <g id="Grupo_877549" data-name="Grupo 877549" transform="translate(48.382 52.705)">
            <path id="Trazado_619577" data-name="Trazado 619577" d="M221.609,217.9c-2.045,5.332-.9,18.526,1.018,22,2.181,3.936,12.118,2.172,12.118,2.172s-.242-33.252,1.328-50.16,8.919-27.4,8.919-27.4-17.761.679-20.427,10.567a31.626,31.626,0,0,0-.63,14.465,16.833,16.833,0,0,0,.63,2.365.824.824,0,0,0-.155.01c-.572.107-2.521.979-3.888,8.056-1.619,8.356,2.1,16.228,2.1,16.228A4.64,4.64,0,0,0,221.609,217.9Z" transform="translate(-220.115 -157.191)" fill="#ffb338"/>
            <path id="Trazado_619578" data-name="Trazado 619578" d="M252.319,176.3s-3.053-10.162.6-15,7.614-5.646,7.614-5.646-4.915,4.686-5.57,7.756S252.319,176.3,252.319,176.3Z" transform="translate(-234.263 -153.15)" fill="#e82828"/>
            <path id="Trazado_619579" data-name="Trazado 619579" d="M261.754,153.552c5.2-1.565,17.85-3.958,24.232-1.333,0,0,.52,5.453-1.719,7.352s-23.974-9.174-30.314,12.6C253.952,172.172,252.058,156.468,261.754,153.552Z" transform="translate(-235.486 -151.049)" fill="#a30413"/>
            <path id="Trazado_619580" data-name="Trazado 619580" d="M238.194,212.912a33.53,33.53,0,0,1-11.052-2.365,16.832,16.832,0,0,0,.63,2.365S234.481,213.775,238.194,212.912Z" transform="translate(-223.321 -178.197)" fill="#e82828"/>
            <path id="Trazado_619581" data-name="Trazado 619581" d="M222.862,261.276a51.019,51.019,0,0,0,10.945-.533s-7.1.077-9.927-1.164A4.64,4.64,0,0,0,222.862,261.276Z" transform="translate(-221.368 -200.57)" fill="#e82828"/>
          </g>
          <g id="Grupo_877568" data-name="Grupo 877568" transform="translate(59.016)">
            <g id="Grupo_877550" data-name="Grupo 877550" transform="translate(1.802 30.862)">
              <ellipse id="Elipse_6944" data-name="Elipse 6944" cx="5.532" cy="8.166" rx="5.532" ry="8.166" fill="#e6e6e6"/>
              <ellipse id="Elipse_6945" data-name="Elipse 6945" cx="5.532" cy="8.166" rx="5.532" ry="8.166" transform="translate(0.738)" fill="#182349"/>
              <ellipse id="Elipse_6946" data-name="Elipse 6946" cx="5.532" cy="8.166" rx="5.532" ry="8.166" transform="translate(1.379 0.227)" fill="#fff"/>
            </g>
            <g id="Grupo_877551" data-name="Grupo 877551" transform="translate(14.993 43.477)">
              <path id="Trazado_619582" data-name="Trazado 619582" d="M269.258,148.555a15.4,15.4,0,0,1-.081,6.23c-.341,2.247-.357,2.443-.848,4.655-.035.157-.064.316-.1.475a7.53,7.53,0,0,0,5.154,2.963,10.791,10.791,0,0,0,6.208-1.015c1.77-.865,5.406-3.394,6.725-6.177-.069-.315-.142-.626-.206-.946a74.158,74.158,0,0,1-1.455-19.218c.038-.7-4.38-.833-4.848-.8a9.922,9.922,0,0,0-5.222,1.861c-1.121.881-1.7,2.228-2.635,3.327a39.42,39.42,0,0,0-4.035,5.231,16.2,16.2,0,0,0,.717,1.525A16.172,16.172,0,0,1,269.258,148.555Z" transform="translate(-267.552 -134.371)" fill="#ff9b73" stroke="#ef714b" stroke-miterlimit="10" stroke-width="1.308"/>
              <path id="Trazado_619583" data-name="Trazado 619583" d="M268,146.51a15.869,15.869,0,0,1,.61,1.841h0a15.156,15.156,0,0,1-.089,6.086l-.078.512c-.04.268-.075.5-.108.707a17.263,17.263,0,0,0,9.406-6.668,27.4,27.4,0,0,0,3.007-5.125c1.46-3.219,1.428-6.271.966-9.7-1.158-.09-2.221-.085-2.238-.08a10.283,10.283,0,0,0-5.414,1.936,8.7,8.7,0,0,0-1.76,2.1,14.078,14.078,0,0,1-.926,1.277l-.594.7a33.28,33.28,0,0,0-3.476,4.581c-.123.206-.1.276.52,1.5C267.913,146.335,267.982,146.469,268,146.51Z" transform="translate(-267.248 -134.076)" fill="#ef8b67" opacity="0.3" style="mix-blend-mode: multiply;isolation: isolate"/>
            </g>
            <g id="Grupo_877564" data-name="Grupo 877564">
              <path id="Trazado_619584" data-name="Trazado 619584" d="M258.306,137.247q.055.273.11.546" transform="translate(-248.175 -92.047)" fill="none"/>
              <g id="Grupo_877552" data-name="Grupo 877552">
                <path id="Trazado_619585" data-name="Trazado 619585" d="M249.81,88.333a27.2,27.2,0,0,0-1.559,9.86l5.907-8.285c1.305-1.831,3.606-4.878,2.541-7.289-1.219-2.76-3.855.506-4.753,1.743A17.318,17.318,0,0,0,249.81,88.333Z" transform="translate(-243.586 -66.628)" fill="#39222f"/>
                <path id="Trazado_619586" data-name="Trazado 619586" d="M273.757,115.634a28.913,28.913,0,0,1-7.292,6.1c-2.563,1.5-6.176,3.387-9.165,1.824-1.854-.969-2.914-2.831-3.93-4.547-2.09-3.53-4.487-8.242-3.542-12.418a11.837,11.837,0,0,0,.061-4.884,7.138,7.138,0,0,1-.275-3.446,35,35,0,0,1,2.887-8.651c2.047-3.858,7.185-5.948,11.467-6.233a14.3,14.3,0,0,1,7.827,1.638c9.313,5.132,11.556,14.184,8.556,21.364" transform="translate(-244.151 -67.453)" fill="#ff9b73" stroke="#ef714b" stroke-linecap="round" stroke-miterlimit="10" stroke-width="1.433"/>
                <path id="Trazado_619587" data-name="Trazado 619587" d="M292.125,114.447c-5.15,3.541-3.9,10.521-.437,14.792l6.54-9.175a16.062,16.062,0,0,0,1.238-5.691A6.781,6.781,0,0,0,292.125,114.447Z" transform="translate(-262.029 -81.134)" fill="#ef8b67" opacity="0.3" style="mix-blend-mode: multiply;isolation: isolate"/>
                <path id="Trazado_619588" data-name="Trazado 619588" d="M282.083,75.915a1.525,1.525,0,0,0-.314-.253,3.2,3.2,0,0,0-2.247-.128c1.182-.222,1.983-3.117,2.022-4.066a3,3,0,0,0-1.223-2.657,5.194,5.194,0,0,0-3.249-.515,10.574,10.574,0,0,0-3.127.721c.284-1.786.539-3.739-.378-5.3-1.417-2.409-4.991-2.2-7.2-1.1a7.225,7.225,0,0,0-.809-5.384,6.547,6.547,0,0,0-4.476-3.045,9.251,9.251,0,0,0-4.209.479,18.625,18.625,0,0,0-12.366,13.773c-.657-.724-.941-1.949-2.041-2.051a2.105,2.105,0,0,0-1.941,1.315,3.674,3.674,0,0,0-.705,1.442,5.6,5.6,0,0,0,1.043,4.737,6.135,6.135,0,0,0,2.312,1.988,1.488,1.488,0,0,0-2.078.642,2.164,2.164,0,0,0,.4,2.362,2.7,2.7,0,0,0,2.242.768,2.853,2.853,0,0,0,.859-.227,36.955,36.955,0,0,1,5.716-2.011,120.212,120.212,0,0,1,14.121-2.464,1.674,1.674,0,0,1,1.806,1.682c0,1,.028,2.076.029,2.216,0,1.342-.657,5.26.826,5.86a6.177,6.177,0,0,1,1.439.556,2.644,2.644,0,0,1,.76,2.2,3.78,3.78,0,0,0,.449,2.33c1.234,1.633,2.5-2.2,3.222.592a32.638,32.638,0,0,0,1.681,4.354c.454-.907.884-1.827,1.3-2.753.766-.667,1.365-2.66,1.751-4.216.593-1.568,1.224-3.128,1.662-4.748.466-1.728.264-2.514,1.827-3.527a3,3,0,0,0,1.355-1.805A2.005,2.005,0,0,0,282.083,75.915Z" transform="translate(-239.672 -54.115)" fill="#182349"/>
              </g>
              <g id="Grupo_877557" data-name="Grupo 877557" transform="translate(4.741 31.2)">
                <g id="Grupo_877553" data-name="Grupo 877553" transform="translate(13.724 4.982)">
                  <path id="Trazado_619589" data-name="Trazado 619589" d="M274.665,123.1a1.226,1.226,0,0,1,.309-2.432,1.226,1.226,0,0,1-.309,2.432Z" transform="translate(-273.634 -120.66)" fill="#242c54"/>
                </g>
                <g id="Grupo_877554" data-name="Grupo 877554" transform="translate(2.536 5.065)">
                  <path id="Trazado_619590" data-name="Trazado 619590" d="M253.065,121.872l.01-.09c.164-1.485,2.566-1.166,2.292.291l-.016.089a1.153,1.153,0,0,1-2.285-.291Z" transform="translate(-253.056 -120.813)" fill="#242c54"/>
                </g>
                <g id="Grupo_877555" data-name="Grupo 877555">
                  <path id="Trazado_619591" data-name="Trazado 619591" d="M276.957,112.273a26.714,26.714,0,0,0-8.592-.513" transform="translate(-257.505 -111.553)" fill="none" stroke="#242c54" stroke-miterlimit="10" stroke-width="1.596"/>
                  <path id="Trazado_619592" data-name="Trazado 619592" d="M254.607,111.852a14.722,14.722,0,0,0-6.215-.044" transform="translate(-248.392 -111.498)" fill="none" stroke="#242c54" stroke-miterlimit="10" stroke-width="1.966"/>
                </g>
                <g id="Grupo_877556" data-name="Grupo 877556" transform="translate(6.118 14.486)">
                  <path id="Trazado_619593" data-name="Trazado 619593" d="M262.628,143.029c2.445.748,5.8-1.03,5.572-4.127a3.931,3.931,0,0,0-.066-.484,1.359,1.359,0,0,0-.1-.277c-1.01.245-2.044.431-3.039.644a14.214,14.214,0,0,1-5.35.324,5.3,5.3,0,0,0,2.762,3.845C262.479,142.98,262.553,143.006,262.628,143.029Z" transform="translate(-259.644 -138.14)" fill="#242c54"/>
                  <path id="Trazado_619594" data-name="Trazado 619594" d="M270.213,139.094a9.186,9.186,0,0,0-3.3,1.246,7.4,7.4,0,0,0-2.784,2.887,2.9,2.9,0,0,0,.324.161c.073.027.147.053.222.076,2.445.748,5.8-1.03,5.572-4.127C270.24,139.255,270.225,139.175,270.213,139.094Z" transform="translate(-261.69 -138.575)" fill="#ff3434"/>
                  <path id="Trazado_619595" data-name="Trazado 619595" d="M268.037,138.148l0-.008c-1.01.245-2.044.431-3.039.644a14.2,14.2,0,0,1-5.35.324,6.521,6.521,0,0,0,.179.662A10.152,10.152,0,0,0,268.037,138.148Z" transform="translate(-259.644 -138.14)" fill="#fff"/>
                </g>
              </g>
              <g id="Grupo_877562" data-name="Grupo 877562" transform="translate(4.124 33.524)">
                <g id="Grupo_877558" data-name="Grupo 877558" transform="translate(10.396 0.332)">
                  <path id="Trazado_619596" data-name="Trazado 619596" d="M273.307,124.282h-3.639a3.294,3.294,0,0,1-3.291-3.291v-2.824a1.786,1.786,0,0,1,1.784-1.784h6.651a1.786,1.786,0,0,1,1.784,1.784v2.824A3.294,3.294,0,0,1,273.307,124.282Zm-5.145-6.713a.6.6,0,0,0-.6.6v2.824a2.108,2.108,0,0,0,2.1,2.105h3.639a2.107,2.107,0,0,0,2.1-2.105v-2.824a.6.6,0,0,0-.6-.6Z" transform="translate(-266.378 -116.383)" fill="#ff3434"/>
                </g>
                <g id="Grupo_877559" data-name="Grupo 877559" transform="translate(0 0.332)">
                  <path id="Trazado_619597" data-name="Trazado 619597" d="M251.722,124.282h-1.173a3.294,3.294,0,0,1-3.291-3.291v-2.824a1.787,1.787,0,0,1,1.785-1.784h4.185a1.786,1.786,0,0,1,1.784,1.784v2.824A3.294,3.294,0,0,1,251.722,124.282Zm-2.679-6.713a.6.6,0,0,0-.6.6v2.824a2.108,2.108,0,0,0,2.1,2.105h1.173a2.108,2.108,0,0,0,2.1-2.105v-2.824a.6.6,0,0,0-.6-.6Z" transform="translate(-247.258 -116.383)" fill="#ff3434"/>
                </g>
                <path id="Trazado_619598" data-name="Trazado 619598" d="M260.712,118.641a10.819,10.819,0,0,1-2.244,5.974,1.569,1.569,0,0,0-.386,1.024c.06.418.461.737.834,1.012l1.581,1.17" transform="translate(-252.194 -117.081)" fill="none" stroke="#ef714b" stroke-linecap="round" stroke-linejoin="round" stroke-width="1.563"/>
                <g id="Grupo_877560" data-name="Grupo 877560" transform="translate(6.549 1.703)">
                  <path id="Trazado_619599" data-name="Trazado 619599" d="M263.206,120.924a1.744,1.744,0,0,0-1.422-.79,1.771,1.771,0,0,0-1.462.732l-1.021-.679a2.887,2.887,0,0,1,2.508-1.279,2.971,2.971,0,0,1,2.447,1.385Z" transform="translate(-259.302 -118.905)" fill="#ff3434"/>
                </g>
                <g id="Grupo_877561" data-name="Grupo 877561" transform="translate(20.04)">
                  <rect id="Rectángulo_327084" data-name="Rectángulo 327084" width="11.478" height="1.226" transform="translate(0 1.984) rotate(-9.953)" fill="#ff3434"/>
                </g>
              </g>
              <g id="Grupo_877563" data-name="Grupo 877563" transform="translate(31.239 32.962)">
                <path id="Trazado_619600" data-name="Trazado 619600" d="M297.126,119.024a7.584,7.584,0,0,1,.148-1.072,4.334,4.334,0,0,1,1.693-2.735,2.645,2.645,0,0,1,3.076.029,3.664,3.664,0,0,1,1.024,2.8,11.491,11.491,0,0,1-2.555,7.44,2.689,2.689,0,0,1-1.6,1.114c-.661.089-1.422-.47-1.288-1.123" transform="translate(-297.126 -114.738)" fill="#ff9b73" stroke="#ef714b" stroke-linecap="round" stroke-linejoin="round" stroke-width="1.372"/>
                <path id="Trazado_619601" data-name="Trazado 619601" d="M302.894,121.445a2.46,2.46,0,0,0-.163-.89.738.738,0,0,0-1.38-.078,2.432,2.432,0,0,0-.252.816q-.3,1.65-.609,3.3" transform="translate(-298.661 -117.155)" fill="none" stroke="#ef714b" stroke-linecap="round" stroke-linejoin="round" stroke-width="1.451"/>
              </g>
            </g>
            <g id="Grupo_877567" data-name="Grupo 877567" transform="translate(26.339 7.427)">
              <g id="Grupo_877565" data-name="Grupo 877565" transform="translate(1.213 23.663)">
                <ellipse id="Elipse_6947" data-name="Elipse 6947" cx="5.532" cy="8.166" rx="5.532" ry="8.166" fill="#fff"/>
                <ellipse id="Elipse_6948" data-name="Elipse 6948" cx="5.532" cy="8.166" rx="5.532" ry="8.166" transform="translate(1.238)" fill="#182349"/>
                <ellipse id="Elipse_6949" data-name="Elipse 6949" cx="5.532" cy="8.166" rx="5.532" ry="8.166" transform="translate(2.152)" fill="#e6e6e6"/>
                <ellipse id="Elipse_6950" data-name="Elipse 6950" cx="4.275" cy="6.31" rx="4.275" ry="6.31" transform="translate(4.121 1.856)" fill="#307cff"/>
                <ellipse id="Elipse_6951" data-name="Elipse 6951" cx="3.691" cy="5.449" rx="3.691" ry="5.449" transform="translate(4.704 2.718)" fill="#fff"/>
                <path id="Trazado_619602" data-name="Trazado 619602" d="M304,125.716,305.075,122l1.59,2.973Z" transform="translate(-296.576 -116.181)" fill="#307cff"/>
              </g>
              <g id="Grupo_877566" data-name="Grupo 877566">
                <path id="Trazado_619603" data-name="Trazado 619603" d="M288.608,67.774a5.77,5.77,0,0,1-.494,2.5c7.759,3.642,8.412,13.868,6.633,21.6-.356,1.545,2.021,2.2,2.377.656C299.235,83.361,297.993,71.664,288.608,67.774Z" transform="translate(-288.114 -67.774)" fill="#fff"/>
              </g>
            </g>
          </g>
          <g id="Grupo_877569" data-name="Grupo 877569" transform="translate(85.062 53.707)">
            <path id="Trazado_619604" data-name="Trazado 619604" d="M287.582,210.223c.242,27.939,3.5,35.938,3.5,35.938s20.582,2.666,24.295-1.454,0-17.13,0-17.13a53.412,53.412,0,0,0,1.7-5.09l.01-.009c.368-1.29.756-2.773,1.086-4.373.339-1.58.62-3.286.814-5.022a18.46,18.46,0,0,0-1.541-9.946,11.354,11.354,0,0,0-1.289-2.172s3.936-16.219,2.191-23.4a10.709,10.709,0,0,0-2-4.14c-5.226-6.738-17.373-6.738-17.373-6.738-3.412.931-8.589,9.918-10.567,27.106v.01A131.225,131.225,0,0,0,287.582,210.223Z" transform="translate(-287.577 -159.185)" fill="#ffb338"/>
            <path id="Trazado_619605" data-name="Trazado 619605" d="M317.357,286.568a42.766,42.766,0,0,0-1.294-9.884c-2.307-.653-5.013-.42-7.5-.666a77.156,77.156,0,0,1-11.974-2.111c-1.892-.5-3.752-1.111-5.624-1.678-.648-.2-1.622-.6-2.651-.918.129,2.407.283,4.578.452,6.538A52.893,52.893,0,0,0,303.53,283.5C308.05,284.636,312.689,285.839,317.357,286.568Z" transform="translate(-287.913 -206.924)" fill="#a30413"/>
            <path id="Trazado_619606" data-name="Trazado 619606" d="M289.083,199.444l.01.01c3.093,4.014,21.474,4.207,21.474,4.207s12.118,17.78,3.393,23.267c-8.56,5.39-23.887,1.6-24.449,1.464,3.384,2.773,24.556,4.654,28.25-.252l.01-.009a2.724,2.724,0,0,0,.388-.718,14.657,14.657,0,0,0,.7-3.655,81.068,81.068,0,0,0-.727-14.968,11.353,11.353,0,0,0-1.289-2.172s3.936-16.219,2.191-23.4a10.71,10.71,0,0,0-2-4.14c-10.887.262-11.8,20.368-11.8,20.368-3.025,1.1-15.7.039-16.141,0Z" transform="translate(-288.264 -164.839)" fill="#e82828"/>
            <path id="Trazado_619607" data-name="Trazado 619607" d="M292.306,173.013s-3.3-10.61-2.285-13.928,11.433-7.035,12.4-6.024,2.056,4,1.028,7.6C303.452,160.656,296.973,161.66,292.306,173.013Z" transform="translate(-288.604 -152.892)" fill="#e82828"/>
          </g>
          <g id="Grupo_877572" data-name="Grupo 877572" transform="translate(59.81 68.977)">
            <path id="Trazado_619608" data-name="Trazado 619608" d="M273.669,247.476c-2.484-.545-9.345,10.508-5.806,11.581S279.957,248.856,273.669,247.476Z" transform="translate(-252.876 -211.31)" fill="#0e1f51"/>
            <g id="Grupo_877570" data-name="Grupo 877570" transform="translate(0 31.624)">
              <path id="Trazado_619609" data-name="Trazado 619609" d="M258.106,253.427c-1.186.019-9.361-.195-10.708-.936a1.107,1.107,0,0,1-.151-.089c-1.282-.8-2.314-2.759-3.151-3.482-.868-.755-.846-1.852-1.475-2.844a6.564,6.564,0,0,1-.418-3.2s-1.964-3.84-.572-3.716c1.734.161,2.9,2.415,2.9,2.415l3.622,2.155s5.365-.048,5.528-1.058-2.06-.985-3.693-1.773a1.481,1.481,0,0,1-.7-1.764l3.149.382s4.454.932,5.208,1.651,3.266,4.078,3.266,4.078l6.258,2.252-1.92,8.568S259.294,253.4,258.106,253.427Z" transform="translate(-241.132 -239.14)" fill="#ff8b66"/>
              <path id="Trazado_619610" data-name="Trazado 619610" d="M248.115,255.541c-1.282-.8-2.314-2.759-3.151-3.482-.868-.755-.846-1.852-1.475-2.844a6.564,6.564,0,0,1-.418-3.2c.519.928,3.926,3,4.088,3.414s-.391.551-.5,1.221,1.184,1.183.852,1.817a1.363,1.363,0,0,0,.289,1.955A1.15,1.15,0,0,1,248.115,255.541Z" transform="translate(-242.001 -242.279)" fill="#ef6e4b"/>
            </g>
            <g id="Grupo_877571" data-name="Grupo 877571" transform="translate(14.987)">
              <path id="Trazado_619611" data-name="Trazado 619611" d="M325.43,236.456c-.193-2.675-19.466-55.479-19.466-55.479-6.846,3.6-9.27,18.585-8.543,24.664l6.133,16.194L274.5,217.142c1.752,1.272-1.4,10.872-5.806,11.581C268.7,228.724,326.4,249.942,325.43,236.456Zm-3.5-7.165c.212-.121.32-.136.284-.011Z" transform="translate(-268.696 -180.977)" fill="#2e3b6b"/>
              <path id="Trazado_619612" data-name="Trazado 619612" d="M325.43,236.456c-.193-2.675-19.466-55.479-19.466-55.479-6.846,3.6-9.27,18.585-8.543,24.664l6.133,16.194L274.5,217.142c1.752,1.272-1.4,10.872-5.806,11.581C268.7,228.724,326.4,249.942,325.43,236.456Zm-3.5-7.165c.212-.121.32-.136.284-.011Z" transform="translate(-268.696 -180.977)"/>
            </g>
            <path id="Trazado_619613" data-name="Trazado 619613" d="M325.559,194.844c1.237-2.447,2.471-6.015,5.631-6.36a4.813,4.813,0,0,1,1.519.1c-1.639-4.573-2.735-7.607-2.735-7.607-6.675,3.508-9.137,17.821-8.582,24.169A56.971,56.971,0,0,1,325.559,194.844Z" transform="translate(-277.719 -180.977)" fill="#2e3b6b"/>
            <path id="Trazado_619614" data-name="Trazado 619614" d="M345.775,262.664a25.327,25.327,0,0,0-11.339-6.749c-.793-.221-1.848-.3-2.236.426" transform="translate(-282.685 -215.099)" fill="none" stroke="#182349" stroke-miterlimit="10" stroke-width="2.267"/>
            <path id="Trazado_619615" data-name="Trazado 619615" d="M347.668,258.077a19.646,19.646,0,0,0-10.127-3.2" transform="translate(-285.122 -214.695)" fill="none" stroke="#182349" stroke-miterlimit="10" stroke-width="2.267"/>
          </g>
        </g>
      </g>
    </g>
    <g id="Grupo_877580" data-name="Grupo 877580" transform="translate(144.481 180.969)">
      <g id="Grupo_877579" data-name="Grupo 877579" transform="translate(0)">
        <rect id="Rectángulo_327086" data-name="Rectángulo 327086" width="88.348" height="1.567" transform="translate(0 0.822)" fill="#bdbdbd"/>
        <rect id="Rectángulo_327087" data-name="Rectángulo 327087" width="16.798" height="1.567" transform="translate(0 0.822)" fill="#ff3434"/>
        <path id="Trazado_619624" data-name="Trazado 619624" d="M209.682,305.455a1.606,1.606,0,1,1-1.606-1.606A1.606,1.606,0,0,1,209.682,305.455Z" transform="translate(-191.569 -303.849)" fill="#ff3434"/>
      </g>
    </g>
    <g id="Grupo_877581" data-name="Grupo 877581" transform="translate(59.27 50.742)">
      <path id="Trazado_619625" data-name="Trazado 619625" d="M152.816,80.126l-.172-22.543a8.336,8.336,0,0,1,8.273-8.4l36.647-.28a8.336,8.336,0,0,1,8.4,8.273l.173,22.543a8.334,8.334,0,0,1-4.854,7.633l.808,7.412-8.233-6.613-32.641.249A8.337,8.337,0,0,1,152.816,80.126Z" transform="translate(-152.644 -48.902)" fill="#307cff"/>
      <path id="Trazado_619626" data-name="Trazado 619626" d="M185.7,79.888l10.343.057a.625.625,0,0,0,.239-.044,2.831,2.831,0,0,0,1.481-1.2,1.634,1.634,0,0,0-.03-1.368h0a.642.642,0,0,1,.239-.773h0a1.845,1.845,0,0,0,.671-2.336h0a.641.641,0,0,1,.208-.8h0a1.674,1.674,0,0,0,.515-2.157h0a.643.643,0,0,1,.224-.831h0c.007,0,.987-.663.836-1.565-.113-.673-1.46-.818-1.814-.82l-6.892-.1a.642.642,0,0,1-.6-.858h0c.294-.826.986-3.27.65-4.647a16.706,16.706,0,0,0-1.154-3.135.629.629,0,0,0-.229-.257,1.354,1.354,0,0,0-.389-.173,1.29,1.29,0,0,0-.942.148.634.634,0,0,0-.325.558l-.017,3.035-.04.107a25.59,25.59,0,0,1-3.81,6.342l-.068.086-1.265.789-.284.1-.046,8.3a.642.642,0,0,0,.638.646h0a.652.652,0,0,1,.321.087l1.215.71A.633.633,0,0,0,185.7,79.888Z" transform="translate(-159.962 -51.284)" fill="#ecf2f4"/>
      <path id="Trazado_619627" data-name="Trazado 619627" d="M172.91,83.829l6.537.036.028-5.1.033-6.1-6.537-.036Z" transform="translate(-157.496 -54.582)" fill="#ecf2f4"/>
    </g>
    <g id="Grupo_877582" data-name="Grupo 877582" transform="translate(240.33 46.047)">
      <path id="Trazado_619628" data-name="Trazado 619628" d="M334.008,39.482l37.822,4.342a8.661,8.661,0,0,1,7.617,9.592l-2.671,23.266a8.66,8.66,0,0,1-9.592,7.616l-24.89-2.857L328.886,89.98l1.032-9.96-.557-.064a8.66,8.66,0,0,1-7.616-9.592L324.416,47.1A8.66,8.66,0,0,1,334.008,39.482Z" transform="translate(-321.688 -39.425)" fill="#eb6f2d"/>
      <path id="Trazado_619629" data-name="Trazado 619629" d="M343.284,61.268c.475-3.309,2.815-6.105,6.844-5.675a6.358,6.358,0,0,1,5.3,4.166,6.359,6.359,0,0,1,6.064-2.954c5.517.588,6.8,6.725,4.217,10.784a21.089,21.089,0,0,1-11.988,8.561l-.082-.009c-4.156-2.277-8.248-5.943-9.905-10.488A9.136,9.136,0,0,1,343.284,61.268Z" transform="translate(-326.379 -42.942)" fill="#f2f3f3"/>
    </g>
    <g id="Grupo_877583" data-name="Grupo 877583" transform="translate(262.829 126.134)">
      <path id="Trazado_619630" data-name="Trazado 619630" d="M354.827,122.741l32,14.882a8.027,8.027,0,0,1,3.894,10.664l-9.155,19.683a8.027,8.027,0,0,1-10.664,3.894l-21.057-9.793-14.29,3.59,3.821-8.458-.472-.22a8.027,8.027,0,0,1-3.893-10.665l9.154-19.683A8.029,8.029,0,0,1,354.827,122.741Z" transform="translate(-334.258 -121.991)" fill="#3d672f"/>
      <path id="Trazado_619631" data-name="Trazado 619631" d="M365.01,152.752l-2.508,4.1,17.371-.608h0l-7.379-15.738-2.508,4.1a26.122,26.122,0,0,0-12.71-1.858A21,21,0,0,0,342.25,152.7a18.868,18.868,0,0,1,10.626-4.517C359.617,147.845,365.01,152.752,365.01,152.752Z" transform="translate(-334.81 -123.27)" fill="#f2f3f3"/>
    </g>
    <g id="Grupo_877584" data-name="Grupo 877584" transform="translate(121.983 101.297)">
      <path id="Trazado_619632" data-name="Trazado 619632" d="M320.116,416.308h6.2a8.824,8.824,0,0,0,8.824-8.824v-63.23" transform="translate(-220.927 -242.614)" fill="none" stroke="#fff" stroke-linecap="round" stroke-miterlimit="10" stroke-width="1"/>
      <line id="Línea_2552" data-name="Línea 2552" y1="16.668" transform="translate(117.208 95.187)" fill="none" stroke="#fff" stroke-linecap="round" stroke-miterlimit="10" stroke-width="1"/>
      <line id="Línea_2553" data-name="Línea 2553" y1="47.655" transform="translate(19.976 64.628)" fill="none" stroke="#fff" stroke-linecap="round" stroke-miterlimit="10" stroke-width="1"/>
      <path id="Trazado_619633" data-name="Trazado 619633" d="M369.078,281.567a5.339,5.339,0,0,0,4.13-5.513,10.335,10.335,0,0,0-.659-2.51l-2.7-7.622" transform="translate(-243.267 -206.873)" fill="none" stroke="#fff" stroke-linecap="round" stroke-miterlimit="10" stroke-width="1"/>
      <path id="Trazado_619634" data-name="Trazado 619634" d="M368.446,259.155l-1.167-3.337" transform="translate(-242.446 -202.262)" fill="none" stroke="#fff" stroke-linecap="round" stroke-miterlimit="10" stroke-width="1"/>
      <path id="Trazado_619635" data-name="Trazado 619635" d="M329.178,167.908a14.257,14.257,0,0,1,10.293,8.208" transform="translate(-225.061 -162.15)" fill="none" stroke="#fff" stroke-linecap="round" stroke-miterlimit="10" stroke-width="1"/>
      <path id="Trazado_619636" data-name="Trazado 619636" d="M387.884,167.539l4.81-10.221" transform="translate(-251.848 -157.318)" fill="none" stroke="#fff" stroke-linecap="round" stroke-miterlimit="10" stroke-width="1"/>
      <path id="Trazado_619637" data-name="Trazado 619637" d="M137.884,183.2a3.855,3.855,0,0,0,4.237,5.047" transform="translate(-137.688 -169.127)" fill="none" stroke="#fff" stroke-linecap="round" stroke-miterlimit="10" stroke-width="1"/>
    </g>
  </g>
</svg>
