<svg xmlns="http://www.w3.org/2000/svg" xmlns:xlink="http://www.w3.org/1999/xlink" width="610" height="263.423" viewBox="0 0 610 263.423">
  <defs>
    <clipPath id="clip-path">
      <rect id="Rectángulo_327120" data-name="Rectángulo 327120" width="134.071" height="218.918" transform="matrix(1, -0.008, 0.008, 1, 295.241, -266.729)" fill="none"/>
    </clipPath>
    <clipPath id="clip-path-2">
      <path id="Trazado_619719" data-name="Trazado 619719" d="M343.282-174.795l-8.145-.052,6.593,5.216Z" fill="#f2e4e9"/>
    </clipPath>
  </defs>
  <g id="Grupo_1034295" data-name="Grupo 1034295" transform="translate(-180 -5183)">
    <rect id="Rectángulo_327088" data-name="Rectángulo 327088" width="610" height="263" transform="translate(180 5183)" fill="#edfbbe"/>
    <g id="Grupo_877636" data-name="Grupo 877636" transform="translate(254 5494.24)">
      <g id="Grupo_877635" data-name="Grupo 877635">
        <g id="Grupo_877628" data-name="Grupo 877628">
          <path id="Trazado_619638" data-name="Trazado 619638" d="M121.491-121.581s13.662,16.571,15.7,24.787C137.194-96.794,123.713-106.486,121.491-121.581Z" fill="#b1c8cc"/>
          <path id="Trazado_619639" data-name="Trazado 619639" d="M136.015-128.063c2.975-6.068.875-35.209,14.708-38.328,14.872-3.353,22.215-3.086,22.215-3.086l-22.943,48.539-17,21.074-12.006-16.964S133.039-121.994,136.015-128.063Z" fill="#edc092"/>
          <g id="Grupo_877626" data-name="Grupo 877626">
            <path id="Trazado_619640" data-name="Trazado 619640" d="M310.75-53.216l-155.9-41.208s2.629-30.7,20.356-100.954a1159.389,1159.389,0,0,1,35.417-113.973l152.782,39.264S351.954-235.8,333.044-155.8,310.75-53.216,310.75-53.216Z" fill="#fff"/>
            <g id="Grupo_877625" data-name="Grupo 877625">
              <g id="Grupo_877594" data-name="Grupo 877594">
                <g id="Grupo_877592" data-name="Grupo 877592">
                  <path id="Trazado_619641" data-name="Trazado 619641" d="M262.2-251.343a20.958,20.958,0,0,1-25.462,15.171,20.958,20.958,0,0,1-15.171-25.461A20.957,20.957,0,0,1,247.03-276.8,20.958,20.958,0,0,1,262.2-251.343Z" fill="#e1b64a"/>
                  <g id="Grupo_877591" data-name="Grupo 877591">
                    <path id="Trazado_619642" data-name="Trazado 619642" d="M245.89-268.616c-9.647-2.443-24.4,9.762-13.662,13.415,0,0-1.028,7.127,6.28,8.978s13.427-2.354,15.241-9.516S251.59-267.173,245.89-268.616Z" fill="#fbf1d2"/>
                    <rect id="Rectángulo_327089" data-name="Rectángulo 327089" width="5.378" height="6.454" transform="translate(235.213 -242.808) rotate(-75.787)" fill="#fbf1d2"/>
                    <path id="Trazado_619643" data-name="Trazado 619643" d="M248.494-235.792a12.074,12.074,0,0,0-2.364-3.76,6.533,6.533,0,0,0-2.789-1.816.761.761,0,0,0-.966-.408,7.479,7.479,0,0,1-4.434-.374c-1.065-.308-2.038-1.291-3.127-1.638a.37.37,0,0,0-.226-.469,10.555,10.555,0,0,0-5.441-.04,8.2,8.2,0,0,0-4.8,3.291c-.667,1.137,1.912,2.863,2.821,3.394a24.106,24.106,0,0,0,4.32,1.918c5.2,1.787,10.966,3.069,16.434,1.918C248.548-233.908,249.131-234.434,248.494-235.792Z" fill="#f0bcc7"/>
                    <path id="Trazado_619644" data-name="Trazado 619644" d="M241.725-242.958a3.661,3.661,0,0,1-3.3.757,3.475,3.475,0,0,1-2.883-2.13,14.532,14.532,0,0,0-4.011-.588c-.577.038-1.411.745-1.211,1.346a5.472,5.472,0,0,0,7.079,3.143c1.753,1.9,4.587,3.559,7.106,2.146C246.846-239.6,243.871-242.241,241.725-242.958Z" fill="#d95773"/>
                    <g id="Grupo_877590" data-name="Grupo 877590">
                      <g id="Grupo_877589" data-name="Grupo 877589">
                        <path id="Trazado_619645" data-name="Trazado 619645" d="M241.1-258.832a2.98,2.98,0,0,1-1.751-3.1,2.293,2.293,0,0,0-.35.508,2.849,2.849,0,0,0,1.556,3.69,2.847,2.847,0,0,0,3.882-.981,2.226,2.226,0,0,0,.2-.587A2.982,2.982,0,0,1,241.1-258.832Z" fill="#3c3c3b"/>
                      </g>
                      <path id="Trazado_619646" data-name="Trazado 619646" d="M237.052-260.623s.04.01.106.032a1.59,1.59,0,0,0,.251.064,2.517,2.517,0,0,0,.706.03,6.32,6.32,0,0,0,.73-.116l.263-.055c.066-.015.108-.02.108-.02a.955.955,0,0,1-.057.094,1.09,1.09,0,0,1-.2.213,1.349,1.349,0,0,1-.347.218,1.446,1.446,0,0,1-.222.075,1.576,1.576,0,0,1-.241.042,1.452,1.452,0,0,1-.247,0,1.317,1.317,0,0,1-.238-.045,1.17,1.17,0,0,1-.21-.088.844.844,0,0,1-.167-.114.656.656,0,0,1-.12-.122.4.4,0,0,1-.072-.105C237.068-260.584,237.052-260.623,237.052-260.623Z" fill="#3c3c3b"/>
                      <path id="Trazado_619647" data-name="Trazado 619647" d="M237.527-259.243a1.092,1.092,0,0,1,.11,0,1.6,1.6,0,0,0,.259-.018,2.578,2.578,0,0,0,.68-.194,6.524,6.524,0,0,0,.656-.339l.232-.136c.059-.034.1-.053.1-.053a1,1,0,0,1-.025.108,1.033,1.033,0,0,1-.118.264,1.361,1.361,0,0,1-.261.316,1.507,1.507,0,0,1-.188.14,1.43,1.43,0,0,1-.215.116,1.407,1.407,0,0,1-.236.075,1.246,1.246,0,0,1-.24.032,1.1,1.1,0,0,1-.226-.017.846.846,0,0,1-.194-.056.7.7,0,0,1-.154-.078.434.434,0,0,1-.1-.077C237.553-259.212,237.527-259.243,237.527-259.243Z" fill="#3c3c3b"/>
                      <path id="Trazado_619648" data-name="Trazado 619648" d="M238.494-257.554s.038-.017.1-.039a1.678,1.678,0,0,0,.239-.1,2.61,2.61,0,0,0,.581-.4,6.548,6.548,0,0,0,.511-.534l.176-.2c.044-.051.074-.081.074-.081a1.014,1.014,0,0,1,.011.11,1,1,0,0,1-.027.288,1.352,1.352,0,0,1-.145.383,1.573,1.573,0,0,1-.131.194,1.559,1.559,0,0,1-.167.179,1.363,1.363,0,0,1-.2.147,1.28,1.28,0,0,1-.216.108,1.171,1.171,0,0,1-.22.057.823.823,0,0,1-.2.009.685.685,0,0,1-.17-.023.427.427,0,0,1-.12-.041C238.529-257.533,238.494-257.554,238.494-257.554Z" fill="#3c3c3b"/>
                    </g>
                    <path id="Trazado_619649" data-name="Trazado 619649" d="M232.115-251.379s.519-1.437,1.45-.358c0,0,.752-1.535,2.016.273a2.393,2.393,0,0,1-2.042,1.262A1.358,1.358,0,0,1,232.115-251.379Z" fill="#d95773"/>
                    <path id="Trazado_619650" data-name="Trazado 619650" d="M241.354-253.127a2.485,2.485,0,0,1-3.019,1.8,2.485,2.485,0,0,1-1.8-3.018,2.486,2.486,0,0,1,3.019-1.8A2.485,2.485,0,0,1,241.354-253.127Z" fill="#d95773" opacity="0.2"/>
                    <path id="Trazado_619651" data-name="Trazado 619651" d="M258.062-257.361c.45-3.813.052-7.78-2.658-10.69-2.6-2.8-6.642-3.8-10.333-3.8a29.94,29.94,0,0,0-6.213.813,22.153,22.153,0,0,1-3.409.647c-.964.053-2.365-2.014-2.9-1.531-.047.056-.09.1-.134.156-1.713,2.5,1.005,5.157,3.142,6.1,3.358,1.483,6.63.14,10.009-.454-1.061,2.217.82,4.69,1.994,6.712a8.415,8.415,0,0,1,1.058,6.578,4.923,4.923,0,0,1-2.331,2.761c-.919.5-1.885.218-2.864.271-.877.048.269,1.43.37,1.569a8.79,8.79,0,0,0,4.991,3.477,12.1,12.1,0,0,0,3.691.471c.805-.107,1.273-.771.959-1.223a13.721,13.721,0,0,1-.771-1.247,22.338,22.338,0,0,0,3.565-4.333A15.5,15.5,0,0,0,258.062-257.361Z" fill="#d95773"/>
                  </g>
                </g>
                <path id="Trazado_619652" data-name="Trazado 619652" d="M249.46-232.137a6.631,6.631,0,0,1,1.016-.96,11.426,11.426,0,0,1,2.6-1.509c.254-.1.506-.205.76-.294s.512-.16.76-.228a9.118,9.118,0,0,1,1.389-.265,6.914,6.914,0,0,1,1.015-.03c.247.008.389.028.389.028s-.117.091-.324.223-.5.3-.856.5-.77.4-1.214.627c-.223.109-.454.219-.693.319s-.478.215-.72.32c-.49.2-.978.4-1.452.56s-.92.3-1.308.416-.731.182-.973.231S249.46-232.137,249.46-232.137Z" fill="#3c3c3b"/>
                <path id="Trazado_619653" data-name="Trazado 619653" d="M252.614-236.166a3.364,3.364,0,0,1,.341.051,1.434,1.434,0,0,1,.38.11,2.555,2.555,0,0,1,.482.23l.258.162.251.206a3.9,3.9,0,0,1,.488.51,4.516,4.516,0,0,1,.4.63,5.268,5.268,0,0,1,.311.7,5.882,5.882,0,0,1,.19.729,5.326,5.326,0,0,1,.094.713,5.709,5.709,0,0,1-.059,1.258,5.063,5.063,0,0,1-.217.866,3.192,3.192,0,0,1-.129.322s-.057-.118-.13-.32-.169-.487-.277-.82c-.205-.669-.432-1.524-.7-2.323-.073-.2-.138-.4-.219-.584s-.162-.369-.237-.552c-.1-.166-.164-.35-.263-.5a4.521,4.521,0,0,0-.271-.445c-.087-.144-.173-.262-.254-.373a2.651,2.651,0,0,0-.23-.3A3.416,3.416,0,0,1,252.614-236.166Z" fill="#3c3c3b"/>
                <rect id="Rectángulo_327090" data-name="Rectángulo 327090" width="2.17" height="32.546" transform="translate(231.41 -284.195) rotate(-74.452)" fill="#3c3c3b"/>
                <g id="Grupo_877593" data-name="Grupo 877593">
                  <rect id="Rectángulo_327091" data-name="Rectángulo 327091" width="1.302" height="41.467" transform="translate(215.252 -235.723) rotate(-74.406)" fill="#296874"/>
                  <rect id="Rectángulo_327092" data-name="Rectángulo 327092" width="1.302" height="41.468" transform="translate(214.552 -233.215) rotate(-74.406)" fill="#296874"/>
                  <rect id="Rectángulo_327093" data-name="Rectángulo 327093" width="1.302" height="41.468" transform="matrix(0.269, -0.963, 0.963, 0.269, 213.852, -230.707)" fill="#296874"/>
                </g>
              </g>
              <g id="Grupo_877599" data-name="Grupo 877599">
                <g id="Grupo_877597" data-name="Grupo 877597">
                  <path id="Trazado_619654" data-name="Trazado 619654" d="M322.114-232.76a20.957,20.957,0,0,1-25.692,14.777,20.958,20.958,0,0,1-14.777-25.692,20.957,20.957,0,0,1,25.691-14.777A20.958,20.958,0,0,1,322.114-232.76Z" fill="#e1b64a"/>
                  <g id="Grupo_877596" data-name="Grupo 877596">
                    <path id="Trazado_619655" data-name="Trazado 619655" d="M313.278-236.549a11.67,11.67,0,0,1-14.182,8.434,11.671,11.671,0,0,1-8.018-14.421,11.671,11.671,0,0,1,14.182-8.434A11.67,11.67,0,0,1,313.278-236.549Z" fill="#fbf1d2"/>
                    <g id="Grupo_877595" data-name="Grupo 877595">
                      <path id="Trazado_619656" data-name="Trazado 619656" d="M297.336-234.911c5.138,3.622,11.105.622,6.7-4.883l-.363-.522a4.732,4.732,0,0,1-.311.425C307.652-234.529,302.437-231.966,297.336-234.911Z" fill="#f5dd92"/>
                    </g>
                    <rect id="Rectángulo_327094" data-name="Rectángulo 327094" width="5.379" height="7.53" transform="translate(294.833 -225.799) rotate(-74.905)" fill="#fbf1d2"/>
                    <path id="Trazado_619657" data-name="Trazado 619657" d="M308.677-218.222a12.067,12.067,0,0,0-2.3-3.8c-.733-.748-3.817-2.733-4.3-2.6a6.759,6.759,0,0,1-3.854-.124A6.979,6.979,0,0,1,294.9-226.9a10.544,10.544,0,0,0-5.441-.124,8.2,8.2,0,0,0-4.851,3.217c-.685,1.126,1.868,2.891,2.769,3.437a24.1,24.1,0,0,0,4.289,1.984c5.17,1.867,10.917,3.238,16.4,2.171C308.7-216.337,309.293-216.854,308.677-218.222Z" fill="#929f00"/>
                    <path id="Trazado_619658" data-name="Trazado 619658" d="M291.641-238.471a1.658,1.658,0,0,1-1.978,1.253,1.659,1.659,0,0,1-1.079-2.077,1.659,1.659,0,0,1,1.978-1.253A1.658,1.658,0,0,1,291.641-238.471Z" fill="#fbf1d2"/>
                    <path id="Trazado_619659" data-name="Trazado 619659" d="M313.914-232.464a1.658,1.658,0,0,1-1.978,1.253,1.66,1.66,0,0,1-1.08-2.077,1.658,1.658,0,0,1,1.978-1.253A1.66,1.66,0,0,1,313.914-232.464Z" fill="#fbf1d2"/>
                    <path id="Trazado_619660" data-name="Trazado 619660" d="M296.564-242.205a.581.581,0,0,1-.712.41.582.582,0,0,1-.409-.712.579.579,0,0,1,.711-.409A.58.58,0,0,1,296.564-242.205Z" fill="#3c3c3b"/>
                    <path id="Trazado_619661" data-name="Trazado 619661" d="M307.482-239.26a.581.581,0,0,1-.712.41.581.581,0,0,1-.409-.712.581.581,0,0,1,.712-.41A.581.581,0,0,1,307.482-239.26Z" fill="#3c3c3b"/>
                    <path id="Trazado_619662" data-name="Trazado 619662" d="M295.363-234.1l.045.081c.027.053.077.126.132.22s.131.205.221.326.193.257.307.4a2.594,2.594,0,0,0,.188.214c.068.071.126.153.2.223l.227.223c.079.075.167.144.25.218.163.155.358.281.543.426.091.073.2.126.3.193s.2.134.3.189c.214.107.417.235.634.328s.426.2.642.276.422.154.619.229c.2.054.395.113.573.169l.257.08.235.059c.149.034.279.071.386.1.216.059.34.1.34.1s-.127.017-.351.034c-.112.007-.249.018-.406.023l-.251.008-.276-.021c-.193-.015-.4-.032-.625-.061-.218-.045-.451-.091-.689-.15a2.535,2.535,0,0,1-.357-.112c-.12-.041-.24-.086-.361-.132a7.56,7.56,0,0,1-.709-.343,7.833,7.833,0,0,1-.655-.444,5.122,5.122,0,0,1-.565-.519c-.083-.093-.171-.177-.243-.273s-.14-.19-.208-.281a4.309,4.309,0,0,1-.328-.546c-.043-.089-.085-.173-.121-.255s-.061-.163-.09-.237a2.964,2.964,0,0,1-.115-.394A2.137,2.137,0,0,1,295.363-234.1Z" fill="#edc092"/>
                    <path id="Trazado_619663" data-name="Trazado 619663" d="M314.884-238.848c.9-6.494-3.569-12.878-10.185-13.629a17.312,17.312,0,0,0-8.786,1.67,10.563,10.563,0,0,0-5.56,6.2.564.564,0,0,0,.688.686c2.658-.825,5.4-1.326,8.033-2.234,1.214-.419,2.4-.923,3.58-1.424,1.065-.451,2.127-1.134,3.231-1.493A25.492,25.492,0,0,1,307.6-246.6c1,1.216,1.982,2.44,2.917,3.707.691.938,1.165,2.009,1.947,2.883a9.8,9.8,0,0,0,1.552,1.66.463.463,0,0,0,.581-.074A.513.513,0,0,0,314.884-238.848Z" fill="#d35f26"/>
                    <path id="Trazado_619664" data-name="Trazado 619664" d="M302.542-225.065c-2.415.79-5.72.483-7.208-1.87-.153-.24-.606-.171-.575.155.118,1.228,1.928,2.11,2.915,2.541a7.457,7.457,0,0,0,5.09-.011C303.282-224.414,303.061-225.235,302.542-225.065Z" fill="#495000"/>
                  </g>
                </g>
                <path id="Trazado_619665" data-name="Trazado 619665" d="M318-216.761c-.126.059-.282.127-.45.217a5.186,5.186,0,0,1-.579.239q-.312.124-.649.275c-.244.088-.5.184-.756.291l-.389.164c-.137.049-.274.1-.411.154-.214.08-.426.17-.64.258-.037-.054-.072-.111-.11-.166-.572-.8-1.169-1.507-1.582-2.084-.11-.145-.205-.274-.285-.4a3.648,3.648,0,0,1-.218-.331c-.118-.194-.2-.3-.2-.3s-.028.133-.052.359a1.748,1.748,0,0,0-.005.415,3.014,3.014,0,0,0,.068.547,4.25,4.25,0,0,0,.171.619,5.777,5.777,0,0,0,.273.653,9.913,9.913,0,0,0,.713,1.188l-.593.252c-.52.231-1,.457-1.42.663s-.757.4-.995.541-.374.237-.374.237.162.014.441.013a9.035,9.035,0,0,0,1.144-.068,11.383,11.383,0,0,0,1.576-.293,9.825,9.825,0,0,0,1-.3c.318.409.617.786.854,1.116.109.143.2.277.287.4s.165.232.218.327c.116.188.2.3.2.3a2.983,2.983,0,0,0,.052-.361,1.912,1.912,0,0,0,.005-.419,2.911,2.911,0,0,0-.067-.542,4.118,4.118,0,0,0-.17-.619,6.065,6.065,0,0,0-.266-.636c.164-.075.33-.147.49-.225a6.065,6.065,0,0,0,.8-.441c.254-.157.495-.316.719-.469.224-.178.427-.354.609-.517a3.147,3.147,0,0,0,.457-.467c.12-.148.216-.287.3-.4.161-.227.243-.368.243-.368S318.251-216.876,318-216.761Z" fill="#3c3c3b"/>
                <rect id="Rectángulo_327095" data-name="Rectángulo 327095" width="2.17" height="32.547" transform="translate(294.095 -266.347) rotate(-75.208)" fill="#3c3c3b"/>
                <g id="Grupo_877598" data-name="Grupo 877598">
                  <rect id="Rectángulo_327096" data-name="Rectángulo 327096" width="1.302" height="41.468" transform="translate(276.486 -217.581) rotate(-75.928)" fill="#296874"/>
                  <rect id="Rectángulo_327097" data-name="Rectángulo 327097" width="1.302" height="41.467" transform="translate(275.853 -215.055) rotate(-75.929)" fill="#296874"/>
                  <rect id="Rectángulo_327098" data-name="Rectángulo 327098" width="1.302" height="41.468" transform="translate(275.22 -212.53) rotate(-75.928)" fill="#296874"/>
                </g>
              </g>
              <g id="Grupo_877607" data-name="Grupo 877607">
                <path id="Trazado_619666" data-name="Trazado 619666" d="M292.82-154.822c.147.131.289.265.428.4s.262.3.39.454a11.025,11.025,0,0,1,.666.979c.2.338.4.672.576,1.013l.549.994-1.018.024a6.721,6.721,0,0,1,1.7-2.443,10.642,10.642,0,0,1,1.115-.927,12.711,12.711,0,0,1,1.211-.767,11.732,11.732,0,0,1,1.281-.623,12.4,12.4,0,0,1,1.335-.477,10.532,10.532,0,0,1,1.378-.316,7.438,7.438,0,0,1,1.4-.1c-.433.179-.852.366-1.265.559s-.815.4-1.212.611-.79.425-1.17.661-.757.468-1.124.714A17.276,17.276,0,0,0,297-152.458a9.366,9.366,0,0,0-.875.923,5.775,5.775,0,0,0-.686,1.021l-.575,1.1-.443-1.079c-.15-.366-.28-.736-.409-1.1s-.241-.732-.361-1.093-.239-.72-.378-1.074l-.211-.529C292.981-154.464,292.9-154.641,292.82-154.822Z" fill="#3c3c3b"/>
                <g id="Grupo_877605" data-name="Grupo 877605">
                  <path id="Trazado_619667" data-name="Trazado 619667" d="M305.039-172.709a20.958,20.958,0,0,1-25.5,15.1,20.957,20.957,0,0,1-15.1-25.5,20.957,20.957,0,0,1,25.5-15.1A20.958,20.958,0,0,1,305.039-172.709Z" fill="#e1b64a"/>
                  <g id="Grupo_877604" data-name="Grupo 877604">
                    <g id="Grupo_877603" data-name="Grupo 877603">
                      <path id="Trazado_619668" data-name="Trazado 619668" d="M296.477-175.135a11.67,11.67,0,0,1-14.073,8.613,11.669,11.669,0,0,1-8.2-14.318,11.669,11.669,0,0,1,14.074-8.613A11.669,11.669,0,0,1,296.477-175.135Z" fill="#fbf1d2"/>
                      <g id="Grupo_877600" data-name="Grupo 877600">
                        <path id="Trazado_619669" data-name="Trazado 619669" d="M286.407-180.158c-6.278-.3-9.707,5.429-3.041,7.716l.586.247a4.548,4.548,0,0,1,.034-.527C277.494-174.95,280.523-179.909,286.407-180.158Z" fill="#f5dd92"/>
                      </g>
                      <rect id="Rectángulo_327099" data-name="Rectángulo 327099" width="5.378" height="7.53" transform="translate(278.236 -164.025) rotate(-75.633)" fill="#fbf1d2"/>
                      <path id="Trazado_619670" data-name="Trazado 619670" d="M292.11-156.751a12.107,12.107,0,0,0-2.354-3.767c-.742-.738-3.85-2.685-4.328-2.545a6.762,6.762,0,0,1-3.855-.075,6.99,6.99,0,0,1-3.346-2.116,10.555,10.555,0,0,0-5.441-.055,8.2,8.2,0,0,0-4.811,3.279c-.67,1.134,1.9,2.866,2.812,3.4A24.065,24.065,0,0,0,275.1-156.7c5.194,1.8,10.958,3.1,16.43,1.963C292.158-154.867,292.743-155.391,292.11-156.751Z" fill="#296874"/>
                      <g id="Grupo_877601" data-name="Grupo 877601">
                        <path id="Trazado_619671" data-name="Trazado 619671" d="M279.443-182.077a2.063,2.063,0,0,1,1.9,1.7,2.049,2.049,0,0,0,.09-.479,2.066,2.066,0,0,0-1.931-2.192,2.065,2.065,0,0,0-2.191,1.931,2.071,2.071,0,0,0,.029.487A2.062,2.062,0,0,1,279.443-182.077Z" fill="#3c3c3b"/>
                      </g>
                      <g id="Grupo_877602" data-name="Grupo 877602">
                        <path id="Trazado_619672" data-name="Trazado 619672" d="M290.105-179.583a2.063,2.063,0,0,1,1.3,2.2,2.083,2.083,0,0,0,.23-.43,2.066,2.066,0,0,0-1.18-2.672,2.064,2.064,0,0,0-2.671,1.181,2.058,2.058,0,0,0-.12.472A2.065,2.065,0,0,1,290.105-179.583Z" fill="#3c3c3b"/>
                      </g>
                      <path id="Trazado_619673" data-name="Trazado 619673" d="M290.292-171.875c-.127-.286-.584-.13-.57.162.052.995-.338,1.2-1.3.973a2.953,2.953,0,0,1-1.668-1.1c-.949-1.187-2.124-1.562-3.334-.8-.835-.668-1.981-1.654-3.119-1.021-.7.391-1.3,1.193-2.156.7-.567-.33-1.275-1.394-.462-1.815a.244.244,0,0,0-.128-.451c-.448,0-2.048,2.112-.259,4.046a5.134,5.134,0,0,0,5.856.705,4.426,4.426,0,0,0,3.909,2.039,3.3,3.3,0,0,0,2.8-1.1A2.974,2.974,0,0,0,290.292-171.875Z" fill="#3c3c3b"/>
                      <path id="Trazado_619674" data-name="Trazado 619674" d="M275.715-180.287a1.657,1.657,0,0,1-1.96,1.277,1.659,1.659,0,0,1-1.107-2.063,1.659,1.659,0,0,1,1.962-1.278A1.656,1.656,0,0,1,275.715-180.287Z" fill="#fbf1d2"/>
                      <path id="Trazado_619675" data-name="Trazado 619675" d="M298.063-174.563a1.659,1.659,0,0,1-1.961,1.277,1.659,1.659,0,0,1-1.107-2.063,1.66,1.66,0,0,1,1.962-1.278A1.659,1.659,0,0,1,298.063-174.563Z" fill="#fbf1d2"/>
                    </g>
                    <path id="Trazado_619676" data-name="Trazado 619676" d="M286.247-163.4l-.015-.031a.4.4,0,0,0-.363-.2,16.941,16.941,0,0,1-3.92.262,7.2,7.2,0,0,1-2.02-1.091c-.576-.338-1.123-.72-1.707-1.044-.139-.077-.341.092-.232.236a8.366,8.366,0,0,0,3.418,2.524,4.25,4.25,0,0,0,1.886.175c.376-.035.75-.091,1.127-.132.245-.022,1.352-.1,1.372-.09A.414.414,0,0,0,286.247-163.4Z" fill="#1f4e57"/>
                  </g>
                </g>
                <rect id="Rectángulo_327100" data-name="Rectángulo 327100" width="2.17" height="32.547" transform="translate(273.894 -207.121) rotate(-75.208)" fill="#3c3c3b"/>
                <g id="Grupo_877606" data-name="Grupo 877606">
                  <rect id="Rectángulo_327101" data-name="Rectángulo 327101" width="1.302" height="41.467" transform="translate(258.933 -156.348) rotate(-75.366)" fill="#296874"/>
                  <rect id="Rectángulo_327102" data-name="Rectángulo 327102" width="1.302" height="41.467" transform="matrix(0.253, -0.968, 0.968, 0.253, 258.275, -153.829)" fill="#296874"/>
                  <rect id="Rectángulo_327103" data-name="Rectángulo 327103" width="1.302" height="41.468" transform="translate(257.617 -151.31) rotate(-75.365)" fill="#296874"/>
                </g>
              </g>
              <g id="Grupo_877614" data-name="Grupo 877614">
                <g id="Grupo_877612" data-name="Grupo 877612">
                  <path id="Trazado_619677" data-name="Trazado 619677" d="M243.943-190.507A20.957,20.957,0,0,1,218.9-174.652a20.957,20.957,0,0,1-15.854-25.041,20.955,20.955,0,0,1,25.04-15.855A20.958,20.958,0,0,1,243.943-190.507Z" fill="#e1b64a"/>
                  <g id="Grupo_877611" data-name="Grupo 877611">
                    <g id="Grupo_877609" data-name="Grupo 877609">
                      <path id="Trazado_619678" data-name="Trazado 619678" d="M225.747-207.189c9.709,2.181,17.355,19.738,6.124,18.142,0,0-2.305,6.823-9.66,5.171s-10.914-8.169-9.295-15.378S220.01-208.477,225.747-207.189Z" fill="#fbf1d2"/>
                      <g id="Grupo_877608" data-name="Grupo 877608">
                        <path id="Trazado_619679" data-name="Trazado 619679" d="M225.192-195.423a3.007,3.007,0,0,1-2.92-2.3,2.984,2.984,0,0,0-.087.705,3.008,3.008,0,0,0,3.007,3.01,3.009,3.009,0,0,0,3.01-3.007,3.092,3.092,0,0,0-.087-.705A3.007,3.007,0,0,1,225.192-195.423Z" fill="#3c3c3b"/>
                      </g>
                      <path id="Trazado_619680" data-name="Trazado 619680" d="M223.476-186.76s-.08.018-.218.035a1.647,1.647,0,0,1-.252.016,2.37,2.37,0,0,1-.331-.01,3.025,3.025,0,0,1-.387-.055,4.07,4.07,0,0,1-.425-.112,3.5,3.5,0,0,1-.438-.188,3.081,3.081,0,0,1-.427-.262,2.541,2.541,0,0,1-.375-.351,2.181,2.181,0,0,1-.29-.419,1.848,1.848,0,0,1-.151-.458,1.946,1.946,0,0,1-.03-.219c0-.07.005-.138.008-.2a1.263,1.263,0,0,1,.068-.34.925.925,0,0,1,.1-.241,2.177,2.177,0,0,1,.113-.192s.012.085.02.22a1.293,1.293,0,0,0,.026.236,1.663,1.663,0,0,0,.064.285l.048.152c.017.051.048.1.071.151a2.018,2.018,0,0,0,.179.3,2.994,2.994,0,0,0,.254.279,3.225,3.225,0,0,0,.3.26c.112.08.222.161.342.231s.239.139.354.21.234.128.349.181.222.113.324.159.2.1.28.135.158.078.223.105C223.4-186.8,223.476-186.76,223.476-186.76Z" fill="#edc092"/>
                      <path id="Trazado_619681" data-name="Trazado 619681" d="M236.327-207.926c-.432-2.176-3.2-3.8-5.244-3.829a5.991,5.991,0,0,0-4.563,2.708c-.465-.283-.941-.725-1.253-.935a5.061,5.061,0,0,0-2.665-.961,2.84,2.84,0,0,0-2.2,1.009,2.578,2.578,0,0,0-.541.943c-.061.132-.115.267-.167.4a2.83,2.83,0,0,1-.244-.2,6.775,6.775,0,0,0-4.705-1.574c-1.948.058-2.97,1.777-3.256,3.473-.335,1.983.713,3.217,1.849,4.673.564.722-1.079,1.8-1.476,2.394a1.685,1.685,0,0,0,.123,1.933c1,1.367,2.888.9,3.99-.029a5.944,5.944,0,0,0,1.845-4.035,3.933,3.933,0,0,0,4.447-.541,2.863,2.863,0,0,0,.943,1.064,5.292,5.292,0,0,0,2.531.615,2.774,2.774,0,0,0,2.062-.679,3.265,3.265,0,0,0,.592-.757,2.283,2.283,0,0,0,.135-.356,5.652,5.652,0,0,0,5.067.414,5.387,5.387,0,0,0,2.086-2.415A4.507,4.507,0,0,0,236.327-207.926Z" fill="#3c3c3b"/>
                      <rect id="Rectángulo_327104" data-name="Rectángulo 327104" width="4.661" height="7.53" transform="translate(216.268 -182.021) rotate(-77.34)" fill="#fbf1d2"/>
                      <path id="Trazado_619682" data-name="Trazado 619682" d="M230.464-173.326a.868.868,0,0,0-.011-.848,13.318,13.318,0,0,0-2.465-3.7,6.519,6.519,0,0,0-2.838-1.739.761.761,0,0,0-.976-.383,7.483,7.483,0,0,1-4.443-.253c-1.073-.279-2.072-1.235-3.17-1.553a.368.368,0,0,0-.238-.462,10.548,10.548,0,0,0-5.441.106,8.055,8.055,0,0,0-4.71,3.422.756.756,0,0,0,.279,1.02c.383,1.082,1.71,1.788,2.633,2.295a24.213,24.213,0,0,0,4.37,1.8c5.245,1.645,11.045,2.771,16.481,1.471A.8.8,0,0,0,230.464-173.326Z" fill="#975157"/>
                      <path id="Trazado_619683" data-name="Trazado 619683" d="M224.091-181.243a14.381,14.381,0,0,0-1.854.064,6.262,6.262,0,0,1-2.054-.475,16.879,16.879,0,0,0-4.017-1.455.571.571,0,0,0-.6.854,7.975,7.975,0,0,0,3.885,2.721c1.355.535,3.7,1.235,4.973.2C225.041-179.843,225.106-181.11,224.091-181.243Z" fill="#3c3c3b"/>
                    </g>
                    <g id="Grupo_877610" data-name="Grupo 877610">
                      <path id="Trazado_619684" data-name="Trazado 619684" d="M225.192-195.423a3.007,3.007,0,0,1-2.92-2.3,2.984,2.984,0,0,0-.087.705,3.008,3.008,0,0,0,3.007,3.01,3.009,3.009,0,0,0,3.01-3.007,3.092,3.092,0,0,0-.087-.705A3.007,3.007,0,0,1,225.192-195.423Z" fill="#3c3c3b"/>
                    </g>
                  </g>
                </g>
                <path id="Trazado_619685" data-name="Trazado 619685" d="M239.556-173.426c-.265.039-.639.113-1.082.225-.221.057-.46.125-.71.2a6.593,6.593,0,0,0-.754.3c-.165.074-.334.158-.5.239-.025-.041-.049-.084-.075-.124-.146-.226-.282-.445-.435-.641s-.3-.377-.445-.54a6.437,6.437,0,0,0-.746-.723c-.192-.164-.315-.249-.315-.249s.028.147.1.39.2.581.323.978c.068.2.144.4.23.62s.17.448.261.686c.018.045.037.094.056.14l-.028.015c-.511.312-1,.655-1.454.99a10.464,10.464,0,0,0-1.166.994c-.322.315-.579.6-.753.8s-.266.333-.266.333.154-.036.409-.119.612-.213,1.026-.389.882-.408,1.373-.651c.246-.124.495-.256.744-.4.2-.111.4-.234.606-.354l.042.1c.1.249.191.5.3.741s.188.488.289.72.2.456.283.676.176.421.262.611c.179.377.306.7.427.926s.193.355.193.355.033-.144.063-.4a6.8,6.8,0,0,0,.054-1.047c-.01-.215-.026-.449-.05-.7a5.917,5.917,0,0,0-.127-.765,7.022,7.022,0,0,0-.2-.8c-.085-.269-.185-.538-.283-.808-.041-.095-.084-.19-.127-.284.162-.1.325-.2.479-.308.23-.147.439-.32.653-.446s.408-.268.59-.4c.36-.258.657-.493.862-.67s.318-.289.318-.289S239.82-173.468,239.556-173.426Z" fill="#3c3c3b"/>
                <rect id="Rectángulo_327105" data-name="Rectángulo 327105" width="2.17" height="32.547" transform="translate(212.051 -223.6) rotate(-74.656)" fill="#3c3c3b"/>
                <g id="Grupo_877613" data-name="Grupo 877613">
                  <rect id="Rectángulo_327106" data-name="Rectángulo 327106" width="1.302" height="41.467" transform="translate(197.545 -171.969) rotate(-74.873)" fill="#296874"/>
                  <rect id="Rectángulo_327107" data-name="Rectángulo 327107" width="1.302" height="41.467" transform="translate(196.865 -169.455) rotate(-74.873)" fill="#296874"/>
                  <rect id="Rectángulo_327108" data-name="Rectángulo 327108" width="1.302" height="41.468" transform="translate(196.185 -166.941) rotate(-74.873)" fill="#296874"/>
                </g>
              </g>
              <g id="Grupo_877619" data-name="Grupo 877619">
                <g id="Grupo_877617" data-name="Grupo 877617">
                  <path id="Trazado_619686" data-name="Trazado 619686" d="M225-126a20.957,20.957,0,0,1-25.392,15.285,20.957,20.957,0,0,1-15.287-25.391A20.958,20.958,0,0,1,209.716-151.4,20.958,20.958,0,0,1,225-126Z" fill="#e1b64a"/>
                  <g id="Grupo_877616" data-name="Grupo 877616">
                    <path id="Trazado_619687" data-name="Trazado 619687" d="M216.257-130.274a11.671,11.671,0,0,1-14.011,8.715,11.671,11.671,0,0,1-8.3-14.259,11.67,11.67,0,0,1,14.01-8.715A11.67,11.67,0,0,1,216.257-130.274Z" fill="#fbf1d2"/>
                    <g id="Grupo_877615" data-name="Grupo 877615">
                      <path id="Trazado_619688" data-name="Trazado 619688" d="M200.37-127.776c5.1,3.442,10.874.392,6.462-4.907l-.364-.5a4.724,4.724,0,0,1-.3.422C210.468-127.6,205.417-125,200.37-127.776Z" fill="#f5dd92"/>
                    </g>
                    <rect id="Rectángulo_327109" data-name="Rectángulo 327109" width="6.813" height="6.096" transform="matrix(0.241, -0.97, 0.97, 0.241, 198.413, -117.622)" fill="#fbf1d2"/>
                    <path id="Trazado_619689" data-name="Trazado 619689" d="M212.023-111.859a14.075,14.075,0,0,0-2.381-3.75,13.4,13.4,0,0,0-4.813-2.745,5.95,5.95,0,0,1-3.154.5,3.6,3.6,0,0,1-2.5-2.133,15.169,15.169,0,0,0-6.539-.288,8.192,8.192,0,0,0-4.786,3.314c-.662,1.139,1.925,2.853,2.836,3.38a24.125,24.125,0,0,0,4.328,1.9c5.207,1.763,10.98,3.02,16.444,1.843C212.085-109.976,212.666-110.5,212.023-111.859Z" fill="#9fe3d3"/>
                    <path id="Trazado_619690" data-name="Trazado 619690" d="M201.463-135.324a.579.579,0,0,1-.7.423.58.58,0,0,1-.423-.7.581.581,0,0,1,.7-.423A.58.58,0,0,1,201.463-135.324Z" fill="#3c3c3b"/>
                    <path id="Trazado_619691" data-name="Trazado 619691" d="M210.517-133.308a.58.58,0,0,1-.7.423.581.581,0,0,1-.424-.7.581.581,0,0,1,.7-.424A.581.581,0,0,1,210.517-133.308Z" fill="#3c3c3b"/>
                    <path id="Trazado_619692" data-name="Trazado 619692" d="M198.943-127.4s.023.084.067.219c.025.068.051.149.089.238s.082.187.131.292.108.212.177.321l.1.167.121.165c.073.116.181.214.266.329.108.1.2.212.313.306s.216.2.34.283.228.185.353.256.233.16.347.231.226.132.327.2a3.206,3.206,0,0,0,.283.17c.087.047.161.1.223.133.124.078.194.13.194.13s-.084.005-.231,0c-.074,0-.165-.006-.267-.016a1.727,1.727,0,0,1-.342-.049c-.124-.028-.258-.062-.4-.1s-.282-.108-.43-.172a2.764,2.764,0,0,1-.439-.243,3.119,3.119,0,0,1-.415-.319,3.872,3.872,0,0,1-.361-.386c-.051-.072-.1-.144-.146-.216a1.256,1.256,0,0,1-.128-.221c-.035-.076-.074-.148-.1-.222s-.051-.15-.075-.222a2.3,2.3,0,0,1-.085-.416,2.1,2.1,0,0,1-.01-.357,1.7,1.7,0,0,1,.032-.271A1.078,1.078,0,0,1,198.943-127.4Z" fill="#edc092"/>
                    <path id="Trazado_619693" data-name="Trazado 619693" d="M195.131-133.959a1.658,1.658,0,0,1-1.952,1.291,1.656,1.656,0,0,1-1.12-2.055,1.657,1.657,0,0,1,1.951-1.291A1.657,1.657,0,0,1,195.131-133.959Z" fill="#fbf1d2"/>
                    <path id="Trazado_619694" data-name="Trazado 619694" d="M217.519-128.4a1.66,1.66,0,0,1-1.952,1.292,1.659,1.659,0,0,1-1.121-2.056,1.658,1.658,0,0,1,1.952-1.292A1.659,1.659,0,0,1,217.519-128.4Z" fill="#fbf1d2"/>
                    <path id="Trazado_619695" data-name="Trazado 619695" d="M217.842-134.222a9.412,9.412,0,0,0-1.3-5.522,2.649,2.649,0,0,0,.459-.546,1.921,1.921,0,0,0,.242-.68,1.881,1.881,0,0,0,1.015-.541.6.6,0,0,0-.59-.981c-1.548.5-2.935-.531-4.215-1.336a21.956,21.956,0,0,0-3.961-1.962c-2.686-1.015-6.318-1.6-8.756.272-.021-.009-.043-.019-.064-.03a2.467,2.467,0,0,0-.387-.152.451.451,0,0,0-.136-.012c-2.188-.635-3.961,1.284-5.044,2.946a14.091,14.091,0,0,0-1.517,3.487c-.468,1.469-.767,8.589-.417,8.066,1.179-1.765,3.391-5.742,4.851-7.28a15.193,15.193,0,0,0,3.1-4.243c2.5,2.376,5.717,3.422,9.017,4.23a7.974,7.974,0,0,0,4.551-.043,19.821,19.821,0,0,1,.993,4.873,14.859,14.859,0,0,1-.181,2.631c-.125.873-.88,5.32-.826,5.209A23.692,23.692,0,0,0,217.842-134.222Z" fill="#296874"/>
                  </g>
                </g>
                <rect id="Rectángulo_327110" data-name="Rectángulo 327110" width="2.17" height="32.546" transform="translate(194.84 -159.189) rotate(-74.452)" fill="#3c3c3b"/>
                <g id="Grupo_877618" data-name="Grupo 877618">
                  <rect id="Rectángulo_327111" data-name="Rectángulo 327111" width="1.302" height="41.467" transform="matrix(0.258, -0.966, 0.966, 0.258, 180.35, -111.784)" fill="#296874"/>
                  <rect id="Rectángulo_327112" data-name="Rectángulo 327112" width="1.302" height="41.467" transform="matrix(0.258, -0.966, 0.966, 0.258, 179.678, -109.269)" fill="#296874"/>
                  <rect id="Rectángulo_327113" data-name="Rectángulo 327113" width="1.302" height="41.468" transform="translate(179.006 -106.753) rotate(-75.036)" fill="#296874"/>
                </g>
              </g>
              <g id="Grupo_877624" data-name="Grupo 877624">
                <g id="Grupo_877622" data-name="Grupo 877622">
                  <path id="Trazado_619696" data-name="Trazado 619696" d="M288.168-109.4a20.956,20.956,0,0,1-25.716,14.734,20.958,20.958,0,0,1-14.734-25.717,20.959,20.959,0,0,1,25.717-14.734A20.957,20.957,0,0,1,288.168-109.4Z" fill="#e1b64a"/>
                  <g id="Grupo_877621" data-name="Grupo 877621">
                    <path id="Trazado_619697" data-name="Trazado 619697" d="M279.062-112.341a11.671,11.671,0,0,1-14.2,8.41,11.67,11.67,0,0,1-7.993-14.435,11.669,11.669,0,0,1,14.2-8.41A11.67,11.67,0,0,1,279.062-112.341Z" fill="#fbf1d2"/>
                    <g id="Grupo_877620" data-name="Grupo 877620">
                      <path id="Trazado_619698" data-name="Trazado 619698" d="M264.016-110.882c4.2,2.968,9.077.524,5.488-3.983l-.3-.426a4.122,4.122,0,0,1-.255.348C272.449-110.555,268.182-108.468,264.016-110.882Z" fill="#f5dd92"/>
                    </g>
                    <rect id="Rectángulo_327114" data-name="Rectángulo 327114" width="6.454" height="7.53" transform="matrix(0.262, -0.965, 0.965, 0.262, 260.372, -100.393)" fill="#fbf1d2"/>
                    <path id="Trazado_619699" data-name="Trazado 619699" d="M274.43-94.021a12.071,12.071,0,0,0-2.3-3.8c-.732-.748-3.53-2.839-4.009-2.705-1.576.437-3.136,1.149-4.673.841-1.979-.4-2.581-2.981-2.778-3.036a10.552,10.552,0,0,0-5.44-.135,8.194,8.194,0,0,0-4.856,3.211c-.687,1.125,1.863,2.893,2.762,3.441a24.076,24.076,0,0,0,4.286,1.991c5.167,1.876,10.912,3.257,16.4,2.2C274.452-92.138,275.044-92.653,274.43-94.021Z" fill="#edc092"/>
                    <path id="Trazado_619700" data-name="Trazado 619700" d="M264.977-117.314a.581.581,0,0,1-.712.408.58.58,0,0,1-.408-.713.579.579,0,0,1,.712-.407A.58.58,0,0,1,264.977-117.314Z" fill="#3c3c3b"/>
                    <path id="Trazado_619701" data-name="Trazado 619701" d="M272.616-115.24a.58.58,0,0,1-.712.408.58.58,0,0,1-.409-.712.581.581,0,0,1,.713-.408A.581.581,0,0,1,272.616-115.24Z" fill="#3c3c3b"/>
                    <path id="Trazado_619702" data-name="Trazado 619702" d="M262.4-108.427s.023.023.067.064.11.1.191.171.185.156.308.245.261.185.41.288c.074.054.162.1.245.147s.166.107.262.15.186.1.283.146l.3.133c.2.1.426.159.644.245.109.04.227.061.34.1s.227.071.346.09l.351.069a3.026,3.026,0,0,0,.351.06c.236.02.466.069.693.077s.447.027.658.043c.21-.008.41-.006.6,0l.268,0,.242-.012c.153-.009.287-.011.4-.013.222,0,.353,0,.353,0s-.117.053-.326.132c-.1.039-.233.088-.381.136l-.239.079-.27.059c-.188.041-.394.085-.614.121-.222.019-.457.041-.7.053a2.327,2.327,0,0,1-.373,0c-.126,0-.254-.012-.383-.022a7.514,7.514,0,0,1-.776-.12,7.837,7.837,0,0,1-.754-.23,5.439,5.439,0,0,1-.692-.327c-.106-.064-.214-.119-.312-.187l-.282-.206a4.092,4.092,0,0,1-.476-.421c-.068-.073-.133-.139-.191-.206s-.108-.138-.157-.2a3.056,3.056,0,0,1-.228-.341A1.983,1.983,0,0,1,262.4-108.427Z" fill="#edc092"/>
                    <path id="Trazado_619703" data-name="Trazado 619703" d="M269.8-99.749a2.541,2.541,0,0,0-.218-.312c-.135-.193-.264-.391-.4-.582a2.094,2.094,0,0,0-.555-.559.18.18,0,0,0-.1-.076.164.164,0,0,0-.238-.143c-.111.065-4.155,1.731-4.161,1.724a44.418,44.418,0,0,0-2.92-3.981,7.917,7.917,0,0,0-2.273.315.182.182,0,0,0,.041.356c1.266,1.112,4.443,4.412,4.786,4.229.066-.034,4.6-.257,5.873-.383A.331.331,0,0,0,269.8-99.749Z" fill="#fff"/>
                    <path id="Trazado_619704" data-name="Trazado 619704" d="M264.252-98.65a.621.621,0,0,1-.763.437.62.62,0,0,1-.437-.762.621.621,0,0,1,.763-.438A.622.622,0,0,1,264.252-98.65Z" fill="#fff"/>
                    <path id="Trazado_619705" data-name="Trazado 619705" d="M263.659-96.467a.622.622,0,0,1-.763.437.621.621,0,0,1-.437-.763.621.621,0,0,1,.763-.437A.622.622,0,0,1,263.659-96.467Z" fill="#fff"/>
                    <path id="Trazado_619706" data-name="Trazado 619706" d="M263.066-94.285a.62.62,0,0,1-.762.437.621.621,0,0,1-.438-.763.621.621,0,0,1,.764-.436A.62.62,0,0,1,263.066-94.285Z" fill="#fff"/>
                    <path id="Trazado_619707" data-name="Trazado 619707" d="M266.831-106.236a.184.184,0,0,0-.011-.2,2.639,2.639,0,0,0-.516-.771c-.195-.146-.383-.039-.531.12-.027-.056-.056-.113-.084-.176a.213.213,0,0,0-.329-.045,1.308,1.308,0,0,1-.9.4c-.194-.013-.214.269-.042.323a.847.847,0,0,0,.49.011.68.68,0,0,0-.007.1.958.958,0,0,0,.754.858,1.247,1.247,0,0,0,1.147-.491A.239.239,0,0,0,266.831-106.236Zm-.9.123c-.273.084-.446-.074-.567-.3-.073-.139.057-.133.161-.128a.218.218,0,0,0,.3.1,1.536,1.536,0,0,1,.173.127.2.2,0,0,0,.329-.091l.035.061A1.882,1.882,0,0,1,265.935-106.113Z" fill="#edc092"/>
                    <path id="Trazado_619708" data-name="Trazado 619708" d="M281.757-104.617a.52.52,0,0,0-.859-.5c-.692.618-1.283,1.267-2.3.809-1.523-.689-.688-2.579-.2-3.644.726-1.6,6.182-11.187.8-13.8a6.531,6.531,0,0,0-.038-2.473,5.221,5.221,0,0,0-2.592-3.143,7.939,7.939,0,0,0-4.5-.979c-1.486.024-5.255.576-6.609-.206a5.723,5.723,0,0,0-2.705-3.2c-3.255-1.779-5.857.637-6.308,3.333a4.04,4.04,0,0,0,1.607,3.721,19.823,19.823,0,0,0-4.86,9.289,5.081,5.081,0,0,0,1.039,4.193c.493.638,1.241,1.38.482,2.139-.379.378-1.47.754-1.763.174-.363-.717-1.226.64-1.207.7-.418,1.339.755,2.556,1.993,2.966,1.787.59,3.84.378,4.869-1.1,1.633-2.342-.992-4.383-1.119-7.1a13.419,13.419,0,0,1,1.229-5.819,9.471,9.471,0,0,1,3.328-3.508,13.872,13.872,0,0,0,1.752.327,13.777,13.777,0,0,0,9.035-2.086c4.18,1.334,3.684,11.89,3.411,12.881a17.04,17.04,0,0,1-1.328,3.493c-.833,1.58-2.31,3.18-1.753,5.092a3.961,3.961,0,0,0,4.285,2.421A5.987,5.987,0,0,0,281.757-104.617Z" fill="#f5dd92"/>
                    <path id="Trazado_619709" data-name="Trazado 619709" d="M265.645-120.61a4.765,4.765,0,0,0-3.67,1.1c-.151.115.041.362.2.263a5.381,5.381,0,0,1,3.438-1.11C265.756-120.339,265.789-120.585,265.645-120.61Z" fill="#f5dd92"/>
                    <path id="Trazado_619710" data-name="Trazado 619710" d="M274.355-116.226c.009-1.01-.872-1.779-1.612-2.339-.121-.09-.277.111-.163.208a3.373,3.373,0,0,1,1.425,2.133A.175.175,0,0,0,274.355-116.226Z" fill="#f5dd92"/>
                  </g>
                </g>
                <rect id="Rectángulo_327115" data-name="Rectángulo 327115" width="2.17" height="32.547" transform="translate(256.247 -143.526) rotate(-75.208)" fill="#3c3c3b"/>
                <g id="Grupo_877623" data-name="Grupo 877623">
                  <rect id="Rectángulo_327116" data-name="Rectángulo 327116" width="1.302" height="41.467" transform="translate(242.644 -94.152) rotate(-75.037)" fill="#296874"/>
                  <rect id="Rectángulo_327117" data-name="Rectángulo 327117" width="1.302" height="41.467" transform="matrix(0.258, -0.966, 0.966, 0.258, 241.972, -91.637)" fill="#296874"/>
                  <rect id="Rectángulo_327118" data-name="Rectángulo 327118" width="1.302" height="41.468" transform="translate(241.299 -89.121) rotate(-75.036)" fill="#296874"/>
                </g>
              </g>
            </g>
          </g>
          <g id="Grupo_877627" data-name="Grupo 877627">
            <path id="Trazado_619711" data-name="Trazado 619711" d="M121.491-121.581s-3.012,1.318-4.077,3.27c0,0,3.517,11.784,16.356,24.855,0,0,3.152-1.041,3.676-2.988C135.035-99.967,126.142-106.5,121.491-121.581Z" fill="#fff"/>
            <path id="Trazado_619712" data-name="Trazado 619712" d="M117.406-119.391s3.077,11.883,17.741,27.126L52-49l-63,1Z" fill="#296874"/>
          </g>
          <path id="Trazado_619713" data-name="Trazado 619713" d="M153.143-146.655s10.3-8.283,13.516-11.115,7.285-7.181,10.541-4.831-2.522,8.871-5.733,12.35a39.243,39.243,0,0,0-8.725,16.476c-1.674,6.922-7.851,17.765-18.848,19.577,0,0-9.458-22.6,8.709-32.452" fill="#edc092"/>
          <path id="Trazado_619714" data-name="Trazado 619714" d="M171.306-158.765a5.145,5.145,0,0,0,2.882,2.948s4.023-2.545,2.752-4.719S172.738-161.231,171.306-158.765Z" fill="#f4dabe"/>
        </g>
        <g id="Grupo_877634" data-name="Grupo 877634">
          <g id="Grupo_877633" data-name="Grupo 877633" clip-path="url(#clip-path)">
            <g id="Grupo_877632" data-name="Grupo 877632">
              <path id="Trazado_619715" data-name="Trazado 619715" d="M372.457-112.394s20.652-5.892,29-4.475C401.456-116.869,387.181-108.391,372.457-112.394Z" fill="#b1c8cc"/>
              <path id="Trazado_619716" data-name="Trazado 619716" d="M375.2-124.71l2.011,16.115,18.714-5.368s-4.082-9.25-5.619-13.5c-2.467-6.826,4.427-12.5-1.687-32.117-2.063-6.62-10.021-14.062-14.846-15.1-4.39-.945-30.378-5.53-22.754,2.5,1.813,1.909,19.056,4.081,22.407,9.886,2.372,4.109,1.358,11.795.726,15.95-1.527,10.025-.515,3.448-5.973,1.1S366.038-140.883,375.2-124.71Z" fill="#edc092"/>
              <path id="Trazado_619717" data-name="Trazado 619717" d="M406.853-157.32a4.357,4.357,0,0,0-2.561.856l-61.01-18.331-1.552,5.164,61.108,18.36a4.38,4.38,0,0,0,4.083,2.713,4.382,4.382,0,0,0,4.347-4.415A4.381,4.381,0,0,0,406.853-157.32Z" fill="#f2e4e9"/>
              <g id="Grupo_877630" data-name="Grupo 877630">
                <path id="Trazado_619718" data-name="Trazado 619718" d="M343.282-174.795l-8.145-.052,6.593,5.216Z" fill="#f2e4e9"/>
                <g id="Grupo_877629" data-name="Grupo 877629" clip-path="url(#clip-path-2)">
                  <rect id="Rectángulo_327119" data-name="Rectángulo 327119" width="5.506" height="2.981" transform="translate(333.931 -172.229) rotate(-70.553)" fill="#3c3c3b"/>
                </g>
              </g>
              <path id="Trazado_619720" data-name="Trazado 619720" d="M373.777-174.683c-4.39-.945-30.545-5.71-22.922,2.317.968,1.02,6.964,3.163,12.326,3.2a158.647,158.647,0,0,0,17.672-1.349C378.388-172.676,375.806-174.247,373.777-174.683Z" fill="#edc092"/>
              <path id="Trazado_619721" data-name="Trazado 619721" d="M374.6-148.418c-5.641.079-9.752-11.44-13.059-14.641s-8.183-8.924-11.066-5.716c-2.213,2.462,3.471,8.662,6.741,12.557s6.758,11.457,7.763,17.711c1.015,6.309,7.719,13.221,10.655,13.362,0,0,19.632-17.621.64-29.112" fill="#edc092"/>
              <g id="Grupo_877631" data-name="Grupo 877631">
                <path id="Trazado_619722" data-name="Trazado 619722" d="M372.457-112.394s0,3.288,1.366,5.044c0,0,12.207,1.492,29.322-5.046,0,0,.307-3.3-1.268-4.565C397.684-116.16,388.135-110.625,372.457-112.394Z" fill="#fff"/>
                <path id="Trazado_619723" data-name="Trazado 619723" d="M372.83-107.774s12.122,1.934,31.958-5.408l9.141,76.443L408.712.544l-30.436.739,6.84-36.829Z" fill="#296874"/>
              </g>
              <path id="Trazado_619724" data-name="Trazado 619724" d="M394.637-150.777a9.535,9.535,0,0,1-1.759-.178,88.984,88.984,0,0,1-9.788-2.747l-.338-.11a3.189,3.189,0,0,1-2.3-2c-.51-1.678.892-3.488.952-3.564l.764.6-.382-.3.383.3c-.012.015-1.152,1.492-.787,2.683a2.3,2.3,0,0,0,1.671,1.354l.338.11a88.314,88.314,0,0,0,9.659,2.715c2.853.517,3.427-.071,4.461-2.609l.9.367C397.513-151.95,396.779-150.794,394.637-150.777Z" fill="#f2e4e9"/>
              <path id="Trazado_619725" data-name="Trazado 619725" d="M353.41-162.145a5.146,5.146,0,0,0,3.075-2.746s-2.361-4.134-4.59-2.963S351.011-163.687,353.41-162.145Z" fill="#f4dabe"/>
              <path id="Trazado_619726" data-name="Trazado 619726" d="M350.889-176.366s6.164,1.783,5.822-.59C356.711-176.956,352.748-177.156,350.889-176.366Z" fill="#f4dabe"/>
            </g>
          </g>
        </g>
      </g>
    </g>
  </g>
</svg>
