<svg xmlns="http://www.w3.org/2000/svg" width="134" height="134" viewBox="0 0 134 134">
  <g id="Grupo_878024" data-name="Grupo 878024" transform="translate(-423 -1166)">
    <g id="Grupo_878020" data-name="Grupo 878020" transform="translate(129 -14928.848)">
      <g id="Elipse_6899" data-name="Elipse 6899" transform="translate(294 16094.848)" fill="#fff" stroke="#ffb338" stroke-width="3">
        <circle cx="67" cy="67" r="67" stroke="none"/>
        <circle cx="67" cy="67" r="65.5" fill="none"/>
      </g>
    </g>
    <g id="Grupo_878006" data-name="Grupo 878006" transform="translate(439 1152.045)">
      <path id="Trazado_620728" data-name="Trazado 620728" d="M213.285,53.178v25.19H161.408V53.178a1.793,1.793,0,0,1,1.788-1.786h48.3A1.791,1.791,0,0,1,213.285,53.178Z" transform="translate(-132.347 -6.297)" fill="#ffdf8e"/>
      <path id="Trazado_620729" data-name="Trazado 620729" d="M213.285,137.642v3.111H161.408V127.476h6.128a21.331,21.331,0,0,1,18.181,10.166Z" transform="translate(-132.347 -68.682)" fill="#ffcd6e"/>
      <path id="Trazado_620730" data-name="Trazado 620730" d="M268.08,210.474v15.886a9.375,9.375,0,0,1-9.5,9.26l-6.354,12.3-8.3-12.3H225.707a9.5,9.5,0,0,1-8.949-6.135,9.076,9.076,0,0,1-.553-3.125V209.679a8.462,8.462,0,0,1,8.462-8.463h33.91a9.379,9.379,0,0,1,9.5,9.258Z" transform="translate(-177.278 -129.146)" fill="#b1de19"/>
      <path id="Trazado_620731" data-name="Trazado 620731" d="M227.8,223.655a21.02,21.02,0,0,1-11.051,5.831,9.08,9.08,0,0,1-.553-3.125V209.68a8.463,8.463,0,0,1,8.463-8.463h7.914a20.515,20.515,0,0,1,1.408,7.184v0a20.994,20.994,0,0,1-6.181,15.252Z" transform="translate(-177.274 -129.146)" fill="#89ad0f"/>
      <g id="Grupo_878005" data-name="Grupo 878005" transform="translate(53.617 79.125)">
        <path id="Trazado_620732" data-name="Trazado 620732" d="M326.468,333.966H299.174a1.383,1.383,0,1,1,0-2.766h27.294a1.383,1.383,0,0,1,0,2.766Z" transform="translate(-297.791 -314.851)" fill="#fff"/>
        <path id="Trazado_620733" data-name="Trazado 620733" d="M352.144,288.566H330.488a1.383,1.383,0,1,1,0-2.766h21.656a1.383,1.383,0,0,1,0,2.766Z" transform="translate(-323.467 -277.625)" fill="#fff"/>
        <path id="Trazado_620734" data-name="Trazado 620734" d="M381.254,243.164H365.99a1.383,1.383,0,1,1,0-2.766h15.264a1.383,1.383,0,0,1,0,2.766Z" transform="translate(-352.577 -240.398)" fill="#fff"/>
      </g>
      <path id="Trazado_620735" data-name="Trazado 620735" d="M59.531,162.157a17.665,17.665,0,0,1-17.394,17.93l-.271,0H27.8a2.711,2.711,0,0,0-1.058.217,2.68,2.68,0,0,0-1,.742L17.9,190.357l-1.03-12.415v-.007a17.666,17.666,0,0,1,8.453-33.18H41.466a17.929,17.929,0,0,1,18.065,17.4Z" transform="translate(-6.277 -82.85)" fill="#c4e2fe"/>
      <path id="Trazado_620736" data-name="Trazado 620736" d="M103.622,162.157a17.665,17.665,0,0,1-17.394,17.93l-.271,0H71.892a2.711,2.711,0,0,0-1.058.217s-9.408-4.528-9.408-17.884a17.661,17.661,0,0,1,17.654-17.667h6.475A17.929,17.929,0,0,1,103.622,162.157Z" transform="translate(-50.367 -82.85)" fill="#9ccefd"/>
      <path id="Trazado_620737" data-name="Trazado 620737" d="M74.6,230.749a2.474,2.474,0,1,1-2.475-2.473h0A2.479,2.479,0,0,1,74.6,230.749Z" transform="translate(-57.113 -151.333)" fill="#fff"/>
      <path id="Trazado_620738" data-name="Trazado 620738" d="M143.082,230.749a2.474,2.474,0,1,1-2.475-2.473h0A2.479,2.479,0,0,1,143.082,230.749Z" transform="translate(-113.263 -151.333)" fill="#fff"/>
      <path id="Trazado_620739" data-name="Trazado 620739" d="M215.363,230.749a2.474,2.474,0,1,1-2.475-2.473A2.474,2.474,0,0,1,215.363,230.749Z" transform="translate(-172.53 -151.333)" fill="#fff"/>
      <path id="Trazado_620740" data-name="Trazado 620740" d="M82.321,70.736V46.881a3.169,3.169,0,0,0-3.169-3.169H59.764a1.383,1.383,0,0,0,0,2.766H79.15a.407.407,0,0,1,.406.406v23.8H52.37A19.578,19.578,0,0,0,35.189,60.522H30.444V46.881a.4.4,0,0,1,.4-.4H48.724a1.383,1.383,0,1,0,0-2.766H30.85a3.18,3.18,0,0,0-3.171,3.171V60.522H19.05a19.048,19.048,0,0,0-9.774,35.4l.973,11.7a1.383,1.383,0,0,0,2.434.777l7.84-9.309a1.311,1.311,0,0,1,1-.465H35.59a19.256,19.256,0,0,0,2.037-.111,10.815,10.815,0,0,0,10.8,9.343H65.912L73.8,119.548a1.383,1.383,0,0,0,2.374-.141l5.985-11.585A10.753,10.753,0,0,0,92.185,97.214V81.328a10.75,10.75,0,0,0-9.864-10.592ZM35.59,95.857H21.525a4.067,4.067,0,0,0-3.118,1.45l-5.681,6.746-.749-9.039a1.382,1.382,0,0,0-.719-1.143A16.284,16.284,0,0,1,19.05,63.288H35.189A16.557,16.557,0,0,1,51.872,79.326,16.279,16.279,0,0,1,35.847,95.855l-.257,0Zm53.829,1.357a8.007,8.007,0,0,1-8.119,7.875,1.386,1.386,0,0,0-1.228.749l-5.282,10.23-7-10.368a1.384,1.384,0,0,0-1.145-.611H48.429a8.041,8.041,0,0,1-8.078-7.066A19.057,19.057,0,0,0,54.638,79.286a18.283,18.283,0,0,0-.29-2.992,18.673,18.673,0,0,0-.749-2.842H81.3a8.008,8.008,0,0,1,8.119,7.875Z" transform="translate(0 0)"/>
      <path id="Trazado_620741" data-name="Trazado 620741" d="M74.606,230.749a2.474,2.474,0,1,1-2.475-2.473h0A2.479,2.479,0,0,1,74.606,230.749Z" transform="translate(-57.116 -151.333)"/>
      <path id="Trazado_620742" data-name="Trazado 620742" d="M143.086,230.749a2.474,2.474,0,1,1-2.475-2.473h0A2.479,2.479,0,0,1,143.086,230.749Z" transform="translate(-113.266 -151.333)"/>
      <path id="Trazado_620743" data-name="Trazado 620743" d="M215.367,230.749a2.474,2.474,0,1,1-2.475-2.473A2.474,2.474,0,0,1,215.367,230.749Z" transform="translate(-172.533 -151.333)"/>
      <path id="Trazado_620744" data-name="Trazado 620744" d="M326.472,331.2H299.178a1.383,1.383,0,0,0,0,2.766h27.294a1.383,1.383,0,1,0,0-2.766Z" transform="translate(-244.177 -235.726)"/>
      <path id="Trazado_620745" data-name="Trazado 620745" d="M352.147,285.8H330.491a1.383,1.383,0,1,0,0,2.766h21.656a1.383,1.383,0,1,0,0-2.766Z" transform="translate(-269.853 -198.499)"/>
      <path id="Trazado_620746" data-name="Trazado 620746" d="M381.256,240.4H365.992a1.383,1.383,0,0,0,0,2.766h15.264a1.383,1.383,0,0,0,0-2.766Z" transform="translate(-298.962 -161.273)"/>
      <circle id="Elipse_6963" data-name="Elipse 6963" cx="1.379" cy="1.379" r="1.379" transform="translate(52.865 43.747)"/>
    </g>
  </g>
</svg>
