<svg xmlns="http://www.w3.org/2000/svg" width="134" height="134" viewBox="0 0 134 134">
  <g id="Grupo_878025" data-name="Grupo 878025" transform="translate(-1043 -1166)">
    <g id="Grupo_878022" data-name="Grupo 878022" transform="translate(723)">
      <g id="Grupo_878020" data-name="Grupo 878020" transform="translate(26 -14928.848)">
        <g id="Elipse_6899" data-name="Elipse 6899" transform="translate(294 16094.848)" fill="#fff" stroke="#ffb338" stroke-width="3">
          <circle cx="67" cy="67" r="67" stroke="none"/>
          <circle cx="67" cy="67" r="65.5" fill="none"/>
        </g>
      </g>
    </g>
    <g id="Grupo_878003" data-name="Grupo 878003" transform="translate(1056.996 1190.892)">
      <g id="Grupo_878002" data-name="Grupo 878002" transform="translate(14.183 1.329)">
        <path id="Trazado_620704" data-name="Trazado 620704" d="M180.276,54.868h-34.5V24.75a17.25,17.25,0,1,1,34.5,0Z" transform="translate(-123.558 -7.5)" fill="#f6df7f"/>
        <path id="Trazado_620705" data-name="Trazado 620705" d="M230.8,7.5a17.38,17.38,0,0,0-2.657.2A17.254,17.254,0,0,1,242.739,24.75V54.868h5.315V24.75A17.25,17.25,0,0,0,230.8,7.5Z" transform="translate(-191.335 -7.5)" fill="#efd06f"/>
        <g id="Grupo_877997" data-name="Grupo 877997" transform="translate(8.59 32.439)">
          <g id="Grupo_877995" data-name="Grupo 877995" transform="translate(52.529)">
            <path id="Trazado_620706" data-name="Trazado 620706" d="M373.806,199.058a2.657,2.657,0,0,1-3.758,0l-3.915-3.915a2.657,2.657,0,0,1,3.758-3.758l3.915,3.915a2.657,2.657,0,0,1,0,3.758Z" transform="translate(-365.355 -190.607)" fill="#685e68"/>
          </g>
          <g id="Grupo_877996" data-name="Grupo 877996">
            <path id="Trazado_620707" data-name="Trazado 620707" d="M69.619,199.058a2.657,2.657,0,0,0,3.758,0l3.915-3.915a2.657,2.657,0,1,0-3.758-3.758L69.619,195.3A2.658,2.658,0,0,0,69.619,199.058Z" transform="translate(-68.841 -190.607)" fill="#685e68"/>
          </g>
        </g>
        <g id="Grupo_877998" data-name="Grupo 877998" transform="translate(60.402)">
          <path id="Trazado_620708" data-name="Trazado 620708" d="M373.681,7.5c-5.919,0-10.718,3.688-10.718,8.238a6.7,6.7,0,0,0,1.122,3.669.716.716,0,0,1-.1.893l-2.465,2.465a.709.709,0,0,0,.5,1.21h11.662c5.919,0,10.718-3.688,10.718-8.238S379.6,7.5,373.681,7.5Z" transform="translate(-361.308 -7.5)" fill="#f6df7f"/>
          <path id="Trazado_620709" data-name="Trazado 620709" d="M406.462,7.5a13.809,13.809,0,0,0-2.657.256c4.634.909,8.061,4.138,8.061,7.982,0,4.55-4.8,8.238-10.718,8.238h5.315c5.919,0,10.718-3.688,10.718-8.238S412.381,7.5,406.462,7.5Z" transform="translate(-394.089 -7.5)" fill="#efd06f"/>
        </g>
        <g id="Grupo_878000" data-name="Grupo 878000" transform="translate(12.458 12.447)">
          <path id="Trazado_620710" data-name="Trazado 620710" d="M133.85,206.847l-8.161-2.3a3.778,3.778,0,0,1-2.755-3.637v-1.983h-10.5v1.978a3.778,3.778,0,0,1-2.753,3.636l-8.164,2.3A13.432,13.432,0,0,0,90.676,220v9.083h18.361l8.752-2.657,8.549,2.657H144.7V220a13.433,13.433,0,0,0-10.849-13.152Z" transform="translate(-90.676 -177.465)" fill="#b6e1fd"/>
          <g id="Grupo_877999" data-name="Grupo 877999" transform="translate(26.944 21.466)">
            <path id="Trazado_620711" data-name="Trazado 620711" d="M259,206.847l-8.161-2.3a3.778,3.778,0,0,1-2.755-3.637v-1.983h-5.315v4.641a3.778,3.778,0,0,0,2.755,3.637l8.161,2.3a13.432,13.432,0,0,1,10.848,13.153v6.424h5.315V220A13.432,13.432,0,0,0,259,206.847Z" transform="translate(-242.768 -198.931)" fill="#b6e1fd"/>
          </g>
          <path id="Trazado_620712" data-name="Trazado 620712" d="M212.127,231.372l-16.935,0-.032.009,2.123,24.395h12.756Z" transform="translate(-176.65 -204.156)" fill="#fff"/>
          <path id="Trazado_620713" data-name="Trazado 620713" d="M252.085,231.381l-8.364,0a3.776,3.776,0,0,0,2.586,2.529l5.041,1.418.771-3.936Z" transform="translate(-216.608 -204.165)" fill="#f3f0f3"/>
          <path id="Trazado_620714" data-name="Trazado 620714" d="M195.342,204.677a10.8,10.8,0,0,0,16.935,0l-.817.01a3.778,3.778,0,0,1-2.755-3.637V199.07l-10.141-.14v1.978a3.778,3.778,0,0,1-2.754,3.636Z" transform="translate(-176.8 -177.465)" fill="#ffcebf"/>
          <path id="Trazado_620715" data-name="Trazado 620715" d="M249.45,203.822a3.776,3.776,0,0,1-1.367-2.908v-1.983h-5.315v4.641a3.778,3.778,0,0,0,2.755,3.637l1.91.537a10.855,10.855,0,0,0,3.868-3.064l-.463-.13a3.756,3.756,0,0,1-1.387-.729Z" transform="translate(-215.824 -177.465)" fill="#ffb09e"/>
          <path id="Trazado_620716" data-name="Trazado 620716" d="M153.559,105.539h-3.872a4.1,4.1,0,1,0,0,8.2h3.872v-8.2Z" transform="translate(-135.859 -100.618)" fill="#ffb09e"/>
          <path id="Trazado_620717" data-name="Trazado 620717" d="M295.706,105.539h3.872a4.1,4.1,0,1,1,0,8.2h-3.872Z" transform="translate(-259.384 -100.618)" fill="#ffcebf"/>
          <path id="Trazado_620718" data-name="Trazado 620718" d="M199.525,82.684v6.673a10.863,10.863,0,0,1-12.042,11.5s-3.59.03-5.174-.745a11.969,11.969,0,0,1-6.721-10.76V82.684a20.01,20.01,0,0,0,11.193-4.627,1.236,1.236,0,0,1,1.568-.025,22.04,22.04,0,0,0,11.176,4.653Z" transform="translate(-160.545 -77.763)" fill="#ffcebf"/>
          <path id="Trazado_620719" data-name="Trazado 620719" d="M223.7,80.637a22.06,22.06,0,0,1-4.125-2.595,1.242,1.242,0,0,0-1.573.02,20.148,20.148,0,0,1-1.809,1.353,21.888,21.888,0,0,0,5.248,2.428,5.689,5.689,0,0,1,3.99,5.438v2.083a10.647,10.647,0,0,1-2.657,7.517c-3.587,3.934-8.773,3.307-9.245,3.242a12.214,12.214,0,0,0,3.9,1.132,11.964,11.964,0,0,0,13.319-11.891V82.69a22.121,22.121,0,0,1-7.046-2.053Z" transform="translate(-191.762 -77.77)" fill="#ffb09e"/>
          <path id="Trazado_620720" data-name="Trazado 620720" d="M272.909,239.378l2.076-6.228-6.056-1.7-4.779,24.39h4.93l5.827-12.587a1.24,1.24,0,0,0-.339-1.48l-1.269-1.041A1.24,1.24,0,0,1,272.909,239.378Z" transform="translate(-233.417 -204.22)" fill="#b6e1fd"/>
          <path id="Trazado_620721" data-name="Trazado 620721" d="M290.283,232.216l-2.738-.77-.771,3.936,3.119.878a13.566,13.566,0,0,1,2.43.726l1.278-3.835Z" transform="translate(-252.034 -204.22)" fill="#b6e1fd"/>
          <path id="Trazado_620722" data-name="Trazado 620722" d="M160.811,233.125l2.077,6.23a1.24,1.24,0,0,1-.39,1.351l-1.269,1.041a1.24,1.24,0,0,0-.339,1.48l5.827,12.587h4.93l-4.78-24.395Z" transform="translate(-148.357 -204.198)" fill="#b6e1fd"/>
        </g>
        <g id="Grupo_878001" data-name="Grupo 878001" transform="translate(0 64.063)">
          <path id="Trazado_620723" data-name="Trazado 620723" d="M58.807,417.355l-5.434-19.279h67.239l-5.434,19.279a1.24,1.24,0,0,1-1.194.9H60a1.241,1.241,0,0,1-1.194-.9Z" transform="translate(-47.524 -392.946)" fill="#e19974"/>
          <path id="Trazado_620724" data-name="Trazado 620724" d="M372.134,398.076,366.7,417.355a1.24,1.24,0,0,1-1.194.9h5.315a1.24,1.24,0,0,0,1.194-.9l5.435-19.279Z" transform="translate(-304.361 -392.946)" fill="#dc8758"/>
          <path id="Trazado_620725" data-name="Trazado 620725" d="M96.635,379.565H23.012a2.657,2.657,0,0,1-2.657-2.657v-5.13a2.657,2.657,0,0,1,2.657-2.657H96.635a2.657,2.657,0,0,1,2.657,2.657v5.13A2.657,2.657,0,0,1,96.635,379.565Z" transform="translate(-20.355 -369.121)" fill="#f4d7c8"/>
          <path id="Trazado_620726" data-name="Trazado 620726" d="M426.253,369.121h-5.315a2.657,2.657,0,0,1,2.657,2.657v5.13a2.657,2.657,0,0,1-2.657,2.657h5.315a2.657,2.657,0,0,0,2.657-2.657v-5.13A2.657,2.657,0,0,0,426.253,369.121Z" transform="translate(-349.972 -369.121)" fill="#ecbba3"/>
        </g>
      </g>
      <path id="Trazado_620727" data-name="Trazado 620727" d="M92.272,8.238A1.329,1.329,0,1,0,93.6,9.566,1.329,1.329,0,0,0,92.272,8.238ZM86.957,0C80.315,0,74.911,4.291,74.911,9.566a8,8,0,0,0,1.073,3.959l-2.129,2.129a2.037,2.037,0,0,0,1.441,3.478H86.957C93.6,19.133,99,14.842,99,9.567S93.6,0,86.957,0Zm0,16.476H76.792L78.2,15.069a2.053,2.053,0,0,0,.277-2.556,5.347,5.347,0,0,1-.908-2.946c0-3.81,4.212-6.909,9.389-6.909s9.389,3.1,9.389,6.909-4.212,6.909-9.389,6.909Zm3.506,47.588H89.135V48.1a5.72,5.72,0,0,0-1.688-4.073l-1.977-1.975a4.014,4.014,0,0,0-.777-4.534l-3.915-3.915a3.986,3.986,0,0,0-5.637,5.637l3.915,3.915a3.976,3.976,0,0,0,4.534.775l1.979,1.977a3.079,3.079,0,0,1,.909,2.193v15.96H81.991V56.311A14.79,14.79,0,0,0,72.23,42.459c0-4.528,0-19.806,0-23.881A18.589,18.589,0,0,0,46.648,1.366a1.329,1.329,0,1,0,1,2.461A15.92,15.92,0,0,1,69.561,18.105a5.394,5.394,0,0,0-2.726-.737H65.712a20.738,20.738,0,0,1-6.558-1.921A20.757,20.757,0,0,1,55.272,13a2.574,2.574,0,0,0-3.251.048,18.707,18.707,0,0,1-4.13,2.636,18.664,18.664,0,0,1-6.278,1.68H40.468a5.393,5.393,0,0,0-2.729.739,15.975,15.975,0,0,1,5.1-11.215,1.329,1.329,0,1,0-1.805-1.95,18.638,18.638,0,0,0-5.96,13.636c0,4.936.117,19.137,0,23.879a14.791,14.791,0,0,0-9.761,13.852v7.754H20.826V48.1a3.08,3.08,0,0,1,.909-2.193l1.979-1.977a3.979,3.979,0,0,0,4.534-.775l3.915-3.915a4.034,4.034,0,0,0,0-5.637,3.99,3.99,0,0,0-5.637,0L22.611,37.52a4,4,0,0,0-.777,4.534l-1.977,1.975A5.72,5.72,0,0,0,18.169,48.1v15.96H16.84a3.99,3.99,0,0,0-3.986,3.986v5.13a3.99,3.99,0,0,0,3.986,3.986h3.685l3.543,12.571a1.329,1.329,0,0,0,1.278.969,1.345,1.345,0,0,0,1.28-1.69l-3.34-11.85H84.017l-3.34,11.85a1.329,1.329,0,1,0,2.558.721l3.543-12.571h3.685a3.99,3.99,0,0,0,3.986-3.986v-5.13a3.99,3.99,0,0,0-3.986-3.986Zm-7.65-22.785a1.33,1.33,0,0,1-1.879,0L77.02,37.364A1.329,1.329,0,0,1,78.9,35.485L82.813,39.4a1.343,1.343,0,0,1,0,1.879ZM24.49,39.4,28.4,35.485a1.329,1.329,0,0,1,1.879,1.879l-3.915,3.915A1.329,1.329,0,0,1,24.49,39.4ZM79.334,56.311v7.752H72.007V61.427a1.329,1.329,0,1,0-2.657,0v2.636H64.381l4.954-10.7a2.569,2.569,0,0,0-.7-3.065l-1.221-1,1.656-4.968C74.792,45.7,79.345,49.919,79.334,56.311Zm-20.195.065a1.328,1.328,0,0,0-1.559,1.048l-1.3,6.639H51.025L47.2,44.564a12.156,12.156,0,0,0,12.9,0l-1.314,6.7a1.329,1.329,0,1,0,2.608.511l1.785-9.107,3.328.936-1.635,4.905a2.583,2.583,0,0,0,.807,2.8l1.216,1L61.453,64.063H58.987l1.2-6.128a1.328,1.328,0,0,0-1.048-1.56ZM42.432,48.514,40.8,43.6l3.328-.938,4.193,21.4H45.85L40.408,52.309l1.216-1a2.583,2.583,0,0,0,.808-2.8Zm5.037-7.056a5.139,5.139,0,0,0,2.2-3.4,13.3,13.3,0,0,0,7.976,0,5.14,5.14,0,0,0,2.192,3.406,9.462,9.462,0,0,1-12.363,0ZM66.949,20.031a2.771,2.771,0,0,1,2.624,2.356v.822a2.791,2.791,0,0,1-2.629,2.353c0-.172.01-5.342,0-5.53Zm-.312,8.193a5.584,5.584,0,0,0,2.936-.739V41.71c-.519-.122-7.093-2-7.559-2.126a2.5,2.5,0,0,1-1.786-2.664A13.339,13.339,0,0,0,66.637,28.224ZM43.012,19.882a21.294,21.294,0,0,0,6-1.786,21.365,21.365,0,0,0,4.663-2.965A23.43,23.43,0,0,0,58,17.84a23.357,23.357,0,0,0,6.3,2.009V25.37a10.64,10.64,0,1,1-21.28,0Zm-5.281,2.505a2.771,2.771,0,0,1,2.624-2.356c0,.188,0,5.358,0,5.53a2.78,2.78,0,0,1-2.629-2.353v-.822Zm0,5.1a5.451,5.451,0,0,0,2.936.739,13.338,13.338,0,0,0,6.409,8.7,2.53,2.53,0,0,1-1.785,2.657l-7.56,2.131ZM27.969,56.309c-.018-6.44,4.431-10.423,10.265-11.983l1.657,4.97-1.221,1a2.569,2.569,0,0,0-.7,3.065l4.954,10.7H37.954V61.427a1.329,1.329,0,1,0-2.657,0v2.636H27.969Zm63.822,16.87a1.33,1.33,0,0,1-1.329,1.329H16.84a1.33,1.33,0,0,1-1.329-1.329v-5.13a1.33,1.33,0,0,1,1.329-1.329H90.463a1.33,1.33,0,0,1,1.329,1.329ZM81.642,8.238a1.329,1.329,0,1,0,1.329,1.329A1.329,1.329,0,0,0,81.642,8.238Zm5.315,0a1.329,1.329,0,1,0,1.329,1.329A1.329,1.329,0,0,0,86.957,8.238Z" transform="translate(0 0)"/>
    </g>
  </g>
</svg>
