<svg xmlns="http://www.w3.org/2000/svg" xmlns:xlink="http://www.w3.org/1999/xlink" width="228" height="89.256" viewBox="0 0 228 89.256">
  <defs>
    <filter id="Trazado_624642" x="0" y="30" width="228" height="59" filterUnits="userSpaceOnUse">
      <feOffset dy="3" input="SourceAlpha"/>
      <feGaussianBlur stdDeviation="3" result="blur"/>
      <feFlood flood-opacity="0.161"/>
      <feComposite operator="in" in2="blur"/>
      <feComposite in="SourceGraphic"/>
    </filter>
    <filter id="Trazado_502571" x="0" y="0" width="89.256" height="89.256" filterUnits="userSpaceOnUse">
      <feOffset dy="3" input="SourceAlpha"/>
      <feGaussianBlur stdDeviation="3" result="blur-2"/>
      <feFlood flood-opacity="0.161"/>
      <feComposite operator="in" in2="blur-2"/>
      <feComposite in="SourceGraphic"/>
    </filter>
  </defs>
  <g id="Grupo_1034297" data-name="Grupo 1034297" transform="translate(-4536 3570.128)">
    <g transform="matrix(1, 0, 0, 1, 4536, -3570.13)" filter="url(#Trazado_624642)">
      <path id="Trazado_624642-2" data-name="Trazado 624642" d="M0,0H200a10,10,0,0,1,10,10V41H0Z" transform="translate(9 36)" fill="#fff"/>
    </g>
    <path id="Trazado_624643" data-name="Trazado 624643" d="M1.074,19V4.781H6.182a7.232,7.232,0,0,1,4.175,1.006,3.347,3.347,0,0,1,1.431,2.92,3.383,3.383,0,0,1-.508,1.885,2.959,2.959,0,0,1-1.494,1.152,3,3,0,0,1,1.709,1.094,3.18,3.18,0,0,1,.6,1.953,3.765,3.765,0,0,1-1.323,3.14A6.3,6.3,0,0,1,6.846,19ZM4.5,12.955v3.408H6.748a2.136,2.136,0,0,0,1.426-.425,1.487,1.487,0,0,0,.5-1.2A1.576,1.576,0,0,0,6.9,12.955Zm0-2.246H6.289a2.539,2.539,0,0,0,1.6-.411,1.46,1.46,0,0,0,.479-1.185,1.533,1.533,0,0,0-.518-1.3,2.77,2.77,0,0,0-1.67-.4H4.5Zm15.713.7-1.084-.078a1.947,1.947,0,0,0-1.992.977V19H13.848V8.434h3.086l.107,1.357a2.548,2.548,0,0,1,2.314-1.553,3.209,3.209,0,0,1,.918.117ZM27.061,19a3.716,3.716,0,0,1-.312-.947A3.06,3.06,0,0,1,24.209,19.2a3.749,3.749,0,0,1-2.539-.9,2.875,2.875,0,0,1-1.045-2.271,2.955,2.955,0,0,1,1.27-2.6,6.468,6.468,0,0,1,3.691-.879H26.6v-.559q0-1.462-1.26-1.462a1.03,1.03,0,0,0-1.172,1.158H20.879a2.95,2.95,0,0,1,1.3-2.487,5.479,5.479,0,0,1,3.325-.956,4.8,4.8,0,0,1,3.193.986,3.429,3.429,0,0,1,1.2,2.705v4.678a4.79,4.79,0,0,0,.449,2.227V19ZM25,16.852a1.836,1.836,0,0,0,1.021-.264,1.653,1.653,0,0,0,.581-.6V14.3h-.957q-1.719,0-1.719,1.543a.942.942,0,0,0,.3.728A1.1,1.1,0,0,0,25,16.852Zm9.746-8.418.107,1.24a3.583,3.583,0,0,1,3.018-1.436,3.015,3.015,0,0,1,2.466.986,4.7,4.7,0,0,1,.845,2.969V19h-3.3V12.33a1.783,1.783,0,0,0-.322-1.177,1.491,1.491,0,0,0-1.172-.376,1.569,1.569,0,0,0-1.436.762V19H31.66V8.434Zm7.842,5.205a6.455,6.455,0,0,1,1.084-3.955A3.568,3.568,0,0,1,46.7,8.238a3.035,3.035,0,0,1,2.383,1.113V4h3.3V19H49.424l-.166-1.133A3.116,3.116,0,0,1,46.68,19.2a3.562,3.562,0,0,1-2.988-1.445A6.659,6.659,0,0,1,42.588,13.639Zm3.291.205q0,2.813,1.641,2.813a1.62,1.62,0,0,0,1.563-.918V11.715a1.576,1.576,0,0,0-1.543-.937q-1.523,0-1.65,2.461ZM64.121,19H54.2V16.852l4.57-4.8q1.689-1.924,1.689-3.057a2.126,2.126,0,0,0-.4-1.4A1.43,1.43,0,0,0,58.9,7.115a1.447,1.447,0,0,0-1.221.64,2.629,2.629,0,0,0-.469,1.6h-3.3a4.67,4.67,0,0,1,.654-2.417A4.588,4.588,0,0,1,56.377,5.2a5.4,5.4,0,0,1,2.6-.625,5.308,5.308,0,0,1,3.55,1.064A3.8,3.8,0,0,1,63.77,8.7a4.439,4.439,0,0,1-.312,1.636A7.173,7.173,0,0,1,62.485,12a24.476,24.476,0,0,1-2.124,2.339l-1.836,2.119h5.6Zm10.352-5.557h1.445v2.539H74.473V19H71.182V15.982h-5.5l-.2-2.012,5.693-9.16V4.781h3.291Zm-5.85,0h2.559V9.068l-.205.332Z" transform="translate(4641 -3527.229)" fill="#12263f"/>
    <path id="Trazado_194609" data-name="Trazado 194609" d="M0,0,85,40H0Z" transform="translate(4545 -3533.229)" fill="#ffb338"/>
    <path id="Trazado_203286" data-name="Trazado 203286" d="M0,20.438ZM4.438,16" transform="translate(4558.875 -3577.653)" fill="#ffc846"/>
    <g transform="matrix(1, 0, 0, 1, 4536, -3570.13)" filter="url(#Trazado_502571)">
      <path id="Trazado_502571-2" data-name="Trazado 502571" d="M295.256,259.628A35.628,35.628,0,1,1,259.628,224,35.629,35.629,0,0,1,295.256,259.628Zm0,0" transform="translate(-215 -218)" fill="#cee4c6"/>
    </g>
    <path id="Trazado_620693" data-name="Trazado 620693" d="M76.792,80.172a7.849,7.849,0,1,0,7.849,7.849A7.858,7.858,0,0,0,76.792,80.172Zm0,13.914a6.065,6.065,0,1,1,6.065-6.065A6.072,6.072,0,0,1,76.792,94.086Z" transform="translate(4506.858 -3612.036)"/>
    <path id="Trazado_620694" data-name="Trazado 620694" d="M94.057,93.527a.892.892,0,1,0,0,1.784,2.232,2.232,0,0,1,2.229,2.229.892.892,0,0,0,1.784,0A4.018,4.018,0,0,0,94.057,93.527Z" transform="translate(4489.593 -3621.556)"/>
    <path id="Trazado_620695" data-name="Trazado 620695" d="M14.964,50.22a.892.892,0,1,0-1.584.82l2.4,4.638a.892.892,0,0,0,1.6-.024l1.454-3.026,1.579,3.05a.893.893,0,0,0,.792.482h.013a.893.893,0,0,0,.791-.506l2.227-4.638a.892.892,0,1,0-1.608-.772L21.171,53.27l-1.579-3.05a.892.892,0,0,0-1.6.024L16.543,53.27Z" transform="translate(4546.535 -3590.343)"/>
    <path id="Trazado_620696" data-name="Trazado 620696" d="M36.912,29.784a.893.893,0,1,0-.63-.261A.9.9,0,0,0,36.912,29.784Z" transform="translate(4530.325 -3574.849)"/>
    <path id="Trazado_620697" data-name="Trazado 620697" d="M45.667,43.341V31.568A3.572,3.572,0,0,0,42.1,28H14.983a.892.892,0,0,0,0,1.784H42.1a1.786,1.786,0,0,1,1.784,1.784V43.341A1.786,1.786,0,0,1,42.1,45.125H37.818c-.026,0-.051,0-.076,0a11.655,11.655,0,0,0-6.27-5.242l1.322-2.753,1.579,3.05a.892.892,0,0,0,.792.482h.013a.893.893,0,0,0,.791-.506L38.2,35.521a.892.892,0,0,0-1.608-.772l-1.453,3.026-1.579-3.05a.892.892,0,0,0-1.6.024l-1.454,3.026-1.579-3.05a.892.892,0,0,0-1.585.82l1.974,3.813a11.613,11.613,0,0,0-4.832.318l2-4.156a.892.892,0,0,0-1.608-.772l-1.454,3.026-1.579-3.05a.892.892,0,0,0-1.6.024l-1.453,3.026-1.579-3.05a.892.892,0,0,0-1.584.82l2.4,4.638a.892.892,0,0,0,1.6-.024l1.454-3.026,1.579,3.05a.863.863,0,0,0,.094.142,11.671,11.671,0,0,0-5.192,4.8H3.568a1.786,1.786,0,0,1-1.784-1.784V31.568a1.786,1.786,0,0,1,1.784-1.784H7.224a.892.892,0,0,0,0-1.784H3.568A3.572,3.572,0,0,0,0,31.568V43.341a3.572,3.572,0,0,0,3.568,3.568H16.739A11.593,11.593,0,0,0,33.424,60.886L40.5,67.965a3.024,3.024,0,1,0,4.277-4.277L42,60.906a.892.892,0,1,0-1.261,1.261l2.781,2.782A1.241,1.241,0,0,1,41.765,66.7l-6.845-6.845a11.583,11.583,0,0,0,3.64-12.949H42.1A3.572,3.572,0,0,0,45.667,43.341ZM27.65,60.644a9.811,9.811,0,1,1,9.811-9.811A9.822,9.822,0,0,1,27.65,60.644Z" transform="translate(4556 -3574.849)"/>
    <path id="Trazado_620698" data-name="Trazado 620698" d="M133.824,134.555a.891.891,0,1,0,.631-.261A.9.9,0,0,0,133.824,134.555Z" transform="translate(4460.798 -3650.614)"/>
  </g>
</svg>
