<svg xmlns="http://www.w3.org/2000/svg" width="134" height="134" viewBox="0 0 134 134">
  <g id="Grupo_878023" data-name="Grupo 878023" transform="translate(-1043 -1166)">
    <g id="Grupo_878022" data-name="Grupo 878022" transform="translate(723)">
      <g id="Grupo_878020" data-name="Grupo 878020" transform="translate(26 -14928.848)">
        <g id="Elipse_6899" data-name="Elipse 6899" transform="translate(294 16094.848)" fill="#fff" stroke="#ffb338" stroke-width="3">
          <circle cx="67" cy="67" r="67" stroke="none"/>
          <circle cx="67" cy="67" r="65.5" fill="none"/>
        </g>
      </g>
    </g>
    <g id="Grupo_870623" data-name="Grupo 870623" transform="translate(1062 1187.271)">
      <g id="Grupo_870621" data-name="Grupo 870621" transform="translate(1.799 1.799)">
        <path id="Trazado_609631" data-name="Trazado 609631" d="M233.288,50c-6.219,3.591-10.662,5.248-15.536,6.077V67.092c4.875.83,9.317,2.487,15.536,6.077Z" transform="translate(-180.369 -42.803)" fill="#fff" fill-rule="evenodd"/>
        <path id="Trazado_609632" data-name="Trazado 609632" d="M160.181,94.791V83.777h-9.313a3.329,3.329,0,0,0-3.319,3.319v4.377a3.329,3.329,0,0,0,3.319,3.319h9.313Z" transform="translate(-122.799 -70.502)" fill="#2b95f9" fill-rule="evenodd"/>
        <path id="Trazado_609633" data-name="Trazado 609633" d="M182.869,144.987h-7.654v11.7h3.091a3.754,3.754,0,0,0,3.568-3.568Z" transform="translate(-145.486 -120.698)" fill="#fff" fill-rule="evenodd"/>
        <path id="Trazado_609634" data-name="Trazado 609634" d="M117.908,34.289l-1,8.131a3.754,3.754,0,0,1-3.568,3.568h-3.091v-11.7h-1.659a3.329,3.329,0,0,1-3.319-3.319V26.594a3.329,3.329,0,0,1,3.319-3.319h9.313c4.875-.83,9.317-2.487,15.536-6.077V40.367c-6.219-3.591-10.662-5.248-15.536-6.077ZM149.982,10H99.6A3.609,3.609,0,0,0,96,13.6V49.587a3.609,3.609,0,0,0,3.6,3.6h20.845l3.074,3.074a1.8,1.8,0,0,0,2.545,0l3.074-3.074h20.845a3.609,3.609,0,0,0,3.6-3.6V13.6a3.609,3.609,0,0,0-3.6-3.6Z" transform="translate(-80.525 -10)" fill="#fff" fill-rule="evenodd"/>
        <path id="Trazado_609635" data-name="Trazado 609635" d="M61.876,145.031a3.609,3.609,0,0,1-3.6-3.6V122H50v46.784h74.135V122h-8.277v19.434a3.609,3.609,0,0,1-3.6,3.6H91.414L88.34,148.1a1.8,1.8,0,0,1-2.545,0l-3.074-3.074Z" transform="translate(-42.802 -101.845)" fill="#b6e1fd" fill-rule="evenodd"/>
        <path id="Trazado_609636" data-name="Trazado 609636" d="M17.2,135.98V89.2h8.277V82H13.6A3.609,3.609,0,0,0,10,85.6v53.982a3.609,3.609,0,0,0,3.6,3.6H94.932a3.609,3.609,0,0,0,3.6-3.6V85.6a3.609,3.609,0,0,0-3.6-3.6H83.055v7.2h8.277V135.98Z" transform="translate(-10 -69.043)" fill="#afafaf" fill-rule="evenodd"/>
        <path id="Trazado_609637" data-name="Trazado 609637" d="M196,436.395h21.592l-.014-.052-2.93-14.292-.014-.052H198.959l-.014.052-2.93,14.292Z" transform="translate(-162.532 -347.864)" fill="#8690af" fill-rule="evenodd"/>
      </g>
      <g id="Grupo_870622" data-name="Grupo 870622">
        <path id="Trazado_609638" data-name="Trazado 609638" d="M86.731,12.955H76.654V5.4a5.4,5.4,0,0,0-5.4-5.4H20.873a5.4,5.4,0,0,0-5.4,5.4v7.557H5.4a5.4,5.4,0,0,0-5.4,5.4V72.335a5.4,5.4,0,0,0,5.4,5.4H36.017L33.8,88.53H31.669a1.8,1.8,0,1,0,0,3.6h28.79a1.8,1.8,0,1,0,0-3.6H58.325l-2.213-10.8H86.731a5.4,5.4,0,0,0,5.4-5.4V18.353a5.4,5.4,0,0,0-5.4-5.4ZM19.074,5.4a1.8,1.8,0,0,1,1.8-1.8H71.256a1.8,1.8,0,0,1,1.8,1.8V41.386a1.8,1.8,0,0,1-1.8,1.8H50.411a1.8,1.8,0,0,0-1.272.527l-3.074,3.074-3.074-3.074a1.8,1.8,0,0,0-1.272-.527H20.873a1.8,1.8,0,0,1-1.8-1.8ZM54.652,88.53H37.477l2.213-10.8H52.438ZM88.53,72.335a1.8,1.8,0,0,1-1.8,1.8H5.4a1.8,1.8,0,0,1-1.8-1.8V18.353a1.8,1.8,0,0,1,1.8-1.8H15.475v3.6H9a1.8,1.8,0,0,0-1.8,1.8V68.736a1.8,1.8,0,0,0,1.8,1.8h28.97a1.8,1.8,0,1,0,0-3.6H10.8V23.752h4.678V41.386a5.4,5.4,0,0,0,5.4,5.4h20.1l2.547,2.547a3.6,3.6,0,0,0,5.089,0l2.547-2.547h20.1a5.4,5.4,0,0,0,5.4-5.4V23.752h4.678V66.937H54.161a1.8,1.8,0,1,0,0,3.6H83.132a1.8,1.8,0,0,0,1.8-1.8V21.952a1.8,1.8,0,0,0-1.8-1.8H76.654v-3.6H86.731a1.8,1.8,0,0,1,1.8,1.8Z" fill="#12263f"/>
        <path id="Trazado_609639" data-name="Trazado 609639" d="M124.893,284H107.8a1.8,1.8,0,1,0,0,3.6h17.094a1.8,1.8,0,1,0,0-3.6Z" transform="translate(-86.926 -232.897)" fill="#12263f"/>
        <path id="Trazado_609640" data-name="Trazado 609640" d="M124.893,328H107.8a1.8,1.8,0,1,0,0,3.6h17.094a1.8,1.8,0,1,0,0-3.6Z" transform="translate(-86.926 -268.978)" fill="#12263f"/>
        <path id="Trazado_609641" data-name="Trazado 609641" d="M292.8,287.6h17.095a1.8,1.8,0,0,0,0-3.6H292.8a1.8,1.8,0,1,0,0,3.6Z" transform="translate(-238.635 -232.897)" fill="#12263f"/>
        <path id="Trazado_609642" data-name="Trazado 609642" d="M292.8,331.6h17.095a1.8,1.8,0,0,0,0-3.6H292.8a1.8,1.8,0,1,0,0,3.6Z" transform="translate(-238.635 -268.978)" fill="#12263f"/>
        <path id="Trazado_609643" data-name="Trazado 609643" d="M142.528,60.688v9.9a1.8,1.8,0,0,0,1.8,1.8h3.091a5.553,5.553,0,0,0,5.354-5.148l.761-6.211a45.55,45.55,0,0,1,13.085,5.5,1.8,1.8,0,0,0,2.7-1.558V41.8a1.8,1.8,0,0,0-2.7-1.558c-5.732,3.309-10.03,5.007-14.79,5.836h-9.16A5.124,5.124,0,0,0,137.55,51.2v4.377a5.124,5.124,0,0,0,4.978,5.116Zm4.89,8.1h-1.291v-8.1h3.821L149.2,66.8C149.083,67.76,148.475,68.79,147.418,68.79Zm18.3-6.877A43.974,43.974,0,0,0,153.781,57.4V49.367a43.973,43.973,0,0,0,11.937-4.512ZM141.149,51.2a1.521,1.521,0,0,1,1.519-1.519h7.514v7.415h-7.514a1.521,1.521,0,0,1-1.519-1.519Z" transform="translate(-112.799 -32.802)" fill="#12263f"/>
        <path id="Trazado_609644" data-name="Trazado 609644" d="M341.25,104.381a1.8,1.8,0,0,0,0,3.6h2.7a1.8,1.8,0,1,0,0-3.6Z" transform="translate(-278.371 -85.599)" fill="#12263f"/>
        <path id="Trazado_609645" data-name="Trazado 609645" d="M335.892,61.829a1.791,1.791,0,0,0,.9-.241l2.338-1.35a1.8,1.8,0,1,0-1.8-3.117l-2.338,1.35a1.8,1.8,0,0,0,.9,3.358Z" transform="translate(-273.974 -46.645)" fill="#12263f"/>
        <path id="Trazado_609646" data-name="Trazado 609646" d="M334.99,147.738l2.338,1.35a1.8,1.8,0,0,0,1.8-3.117l-2.338-1.35a1.8,1.8,0,0,0-1.8,3.117Z" transform="translate(-273.974 -118.4)" fill="#12263f"/>
        <path id="Trazado_609647" data-name="Trazado 609647" d="M247.8,372h0a1.8,1.8,0,1,0,1.8,1.8A1.8,1.8,0,0,0,247.8,372Z" transform="translate(-201.733 -305.061)" fill="#12263f"/>
      </g>
    </g>
  </g>
</svg>
