<svg xmlns="http://www.w3.org/2000/svg" width="118" height="118" viewBox="0 0 118 118">
  <g id="Grupo_878009" data-name="Grupo 878009" transform="translate(-1002.829 -16447.848)">
    <g id="Elipse_6900" data-name="Elipse 6900" transform="translate(1002.829 16447.848)" fill="#fff" stroke="#ffb338" stroke-width="3">
      <circle cx="59" cy="59" r="59" stroke="none"/>
      <circle cx="59" cy="59" r="57.5" fill="none"/>
    </g>
    <g id="Grupo_870582" data-name="Grupo 870582" transform="translate(977.989 16464.93)">
      <g id="Grupo_870580" data-name="Grupo 870580" transform="translate(54.685 1.122)">
        <g id="Grupo_870579" data-name="Grupo 870579" transform="translate(0 16.223)">
          <path id="Trazado_609213" data-name="Trazado 609213" d="M288.41,410.937v10.738a3.254,3.254,0,0,1-3.253,3.255h-7.909a3.251,3.251,0,0,1-3.015-2.033l-.709-1.748-4.137-10.212Z" transform="translate(-238.229 -366.821)" fill="#f9d9a2"/>
          <path id="Trazado_609214" data-name="Trazado 609214" d="M134.441,410.937,130.3,421.149,129.6,422.9a3.251,3.251,0,0,1-3.015,2.033h-7.909a3.254,3.254,0,0,1-3.253-3.255V410.937Z" transform="translate(-107.289 -366.821)" fill="#f9d9a2"/>
          <g id="Grupo_870575" data-name="Grupo 870575" transform="translate(8.129 44.116)">
            <path id="Trazado_609215" data-name="Trazado 609215" d="M123.2,424.934h-4.532a3.254,3.254,0,0,1-3.253-3.254V410.941h4.53v10.738A3.254,3.254,0,0,0,123.2,424.934Z" transform="translate(-115.416 -410.94)" fill="#febbac"/>
            <g id="Grupo_870574" data-name="Grupo 870574" transform="translate(0)">
              <path id="Trazado_609216" data-name="Trazado 609216" d="M115.418,410.937h19.023L130.3,421.149q-2.387-.052-4.777-.147a18.6,18.6,0,0,1-10.109-3.456v-6.609Z" transform="translate(-115.418 -410.937)" fill="#febbac"/>
              <path id="Trazado_609217" data-name="Trazado 609217" d="M288.41,410.937v6.609A18.6,18.6,0,0,1,278.3,421q-2.389.094-4.777.147l-4.137-10.212H288.41Z" transform="translate(-246.359 -410.937)" fill="#febbac"/>
            </g>
            <path id="Trazado_609218" data-name="Trazado 609218" d="M280.948,424.93h-3.7a3.251,3.251,0,0,1-3.015-2.033l-.709-1.748-4.137-10.212h3.7l4.137,10.212.709,1.748A3.251,3.251,0,0,0,280.948,424.93Z" transform="translate(-246.359 -410.937)" fill="#febbac"/>
          </g>
          <g id="Grupo_870576" data-name="Grupo 870576" transform="translate(0.169)">
            <path id="Trazado_609219" data-name="Trazado 609219" d="M120.167,142.957q-.015,3.545-.156,7.091A18.655,18.655,0,0,1,102.1,167.931q-10.916.431-21.833,0a18.656,18.656,0,0,1-17.913-17.883q-.138-3.545-.156-7.091a26.919,26.919,0,0,1,25.267-26.988v5.1a2.123,2.123,0,0,0,2.122,2.124h3.192a2.123,2.123,0,0,0,2.122-2.124v-5.1a26.919,26.919,0,0,1,25.267,26.988Z" transform="translate(-62.196 -115.969)" fill="#f9d9a2"/>
          </g>
          <g id="Grupo_870577" data-name="Grupo 870577" transform="translate(0.169 0.32)">
            <path id="Trazado_609220" data-name="Trazado 609220" d="M84.646,118.106c-6.207,4.29-10.57,14.665-10.537,26.73q.008,3.783.1,7.564c.181,7.773,2.988,14.388,6.958,17.382-.3-.01-.6-.022-.9-.034A18.657,18.657,0,0,1,62.35,151.866q-.138-3.545-.156-7.091A26.925,26.925,0,0,1,84.646,118.106Z" transform="translate(-62.194 -118.106)" fill="#febbac"/>
          </g>
          <g id="Grupo_870578" data-name="Grupo 870578" transform="translate(0 9.928)">
            <path id="Trazado_609221" data-name="Trazado 609221" d="M65.312,201.545S61.6,195.9,61.07,186.585a4,4,0,0,1,4.523-4.2A34.454,34.454,0,0,1,80.335,188.1s-7.54-.693-7.54,7.54" transform="translate(-61.064 -182.351)" fill="#febbac"/>
            <path id="Trazado_609222" data-name="Trazado 609222" d="M337.1,201.545s3.713-5.643,4.241-14.96a4,4,0,0,0-4.523-4.2A34.454,34.454,0,0,0,322.08,188.1" transform="translate(-283.042 -182.351)" fill="#f9d9a2"/>
          </g>
          <path id="Trazado_609223" data-name="Trazado 609223" d="M199.012,302.348q-3.848-.126-7.7,0a7.081,7.081,0,0,0-6.833,6.919q-.035,1.421,0,2.842a7.081,7.081,0,0,0,6.833,6.919q3.848.126,7.7,0a7.081,7.081,0,0,0,6.832-6.919q.035-1.421,0-2.842A7.081,7.081,0,0,0,199.012,302.348Z" transform="translate(-166.008 -274.419)" fill="#f9d9a2"/>
        </g>
        <circle id="Elipse_6901" data-name="Elipse 6901" cx="11.088" cy="11.088" r="11.088" transform="translate(5.466)" fill="#ffb338"/>
      </g>
      <g id="Grupo_870581" data-name="Grupo 870581" transform="translate(53.563)">
        <path id="Trazado_609224" data-name="Trazado 609224" d="M112.476,27.517a5.105,5.105,0,0,0-4.159-1.32c-.265.035-.541.076-.825.121A28.045,28.045,0,0,0,87.626,16.227a1.122,1.122,0,0,0-1.189,1.12v5.1a1,1,0,0,1-1,1H82.244a1,1,0,0,1-1-1V19.195a12.2,12.2,0,1,0-22.081-5.179,1.122,1.122,0,1,0,2.218-.335,9.962,9.962,0,1,1,1.353,3.729,1.122,1.122,0,1,0-1.913,1.172,12.256,12.256,0,0,0,3.491,3.7,28.135,28.135,0,0,0-4.121,4.041c-.286-.046-.563-.086-.829-.122a5.123,5.123,0,0,0-5.791,5.374,38.788,38.788,0,0,0,.879,6.322,28.15,28.15,0,0,0-.718,6.445c.01,2.351.063,4.75.156,7.132a19.681,19.681,0,0,0,5.786,13.19,19.908,19.908,0,0,0,2.017,1.758V72.2a4.38,4.38,0,0,0,4.375,4.376h7.909a4.353,4.353,0,0,0,4.055-2.733l1.313-3.24q2.246.036,4.5.039t4.5-.039l1.312,3.239A4.354,4.354,0,0,0,93.7,76.576h7.909a4.38,4.38,0,0,0,4.375-4.376V66.423a20.053,20.053,0,0,0,2.7-2.476,1.122,1.122,0,1,0-1.662-1.507,17.418,17.418,0,0,1-12.309,5.745c-7.214.285-14.53.285-21.745,0a17.533,17.533,0,0,1-16.836-16.8c-.092-2.356-.144-4.729-.155-7.054,0-.441.009-.882.03-1.322A23.63,23.63,0,0,0,58,47.083a1.122,1.122,0,0,0,1.875-1.232,31.852,31.852,0,0,1-4.06-14.408,2.879,2.879,0,0,1,3.256-3.023,33.369,33.369,0,0,1,14.26,5.531,1.122,1.122,0,1,0,1.259-1.857A36.145,36.145,0,0,0,62.72,26.824a25.869,25.869,0,0,1,3.741-3.368A12.237,12.237,0,0,0,79,21.628v.82a3.248,3.248,0,0,0,3.244,3.246h3.192a3.248,3.248,0,0,0,3.244-3.246V18.566a25.808,25.808,0,0,1,16.279,8.258,36.146,36.146,0,0,0-11.865,5.27,1.122,1.122,0,1,0,1.259,1.857,33.369,33.369,0,0,1,14.26-5.531,2.879,2.879,0,0,1,3.256,3.023,31.848,31.848,0,0,1-4.06,14.408,1.122,1.122,0,0,0,1.875,1.232,23.629,23.629,0,0,0,1.99-4.078c.02.44.032.881.03,1.322-.01,2.325-.062,4.7-.155,7.053a17.3,17.3,0,0,1-2.092,7.629,1.122,1.122,0,1,0,1.972,1.069,19.522,19.522,0,0,0,2.362-8.61c.093-2.381.146-4.781.156-7.131a28.151,28.151,0,0,0-.718-6.445,38.786,38.786,0,0,0,.879-6.322,5.115,5.115,0,0,0-1.632-4.054ZM94.8,70.427a19.686,19.686,0,0,0,8.943-2.524v4.3a2.134,2.134,0,0,1-2.131,2.133H93.7A2.121,2.121,0,0,1,91.728,73l-.991-2.446Q92.773,70.5,94.8,70.427Zm-17.858.127L75.951,73a2.12,2.12,0,0,1-1.975,1.331H66.068A2.134,2.134,0,0,1,63.936,72.2V67.893a19.745,19.745,0,0,0,8.943,2.534Q74.906,70.507,76.943,70.554Z" transform="translate(-53.563)"/>
        <path id="Trazado_609225" data-name="Trazado 609225" d="M376.361,219.247a1.121,1.121,0,0,0,1.554-.32,11.514,11.514,0,0,0,1.537-5.331,2.4,2.4,0,0,0-2.712-2.516,12.148,12.148,0,0,0-5.19,2.009,1.122,1.122,0,0,0,1.259,1.857,9.893,9.893,0,0,1,4.227-1.642.156.156,0,0,1,.177.165,9.49,9.49,0,0,1-1.175,4.23A1.121,1.121,0,0,0,376.361,219.247Z" transform="translate(-323.572 -179.492)"/>
        <path id="Trazado_609226" data-name="Trazado 609226" d="M87.206,213.3a9.892,9.892,0,0,1,4.227,1.642,1.122,1.122,0,1,0,1.259-1.857,12.147,12.147,0,0,0-5.19-2.009,2.4,2.4,0,0,0-2.712,2.516,11.514,11.514,0,0,0,1.538,5.331,1.122,1.122,0,0,0,1.874-1.233,9.471,9.471,0,0,1-1.172-4.225.156.156,0,0,1,.177-.165Z" transform="translate(-80.115 -179.491)"/>
        <path id="Trazado_609227" data-name="Trazado 609227" d="M192.672,294.849c-2.578-.084-5.192-.084-7.771,0a8.212,8.212,0,0,0-7.917,8.013c-.024.961-.024,1.936,0,2.9a8.212,8.212,0,0,0,7.917,8.013c1.289.042,2.587.063,3.885.063s2.6-.021,3.885-.063a8.212,8.212,0,0,0,7.917-8.013c.024-.961.024-1.936,0-2.9A8.213,8.213,0,0,0,192.672,294.849Zm5.674,10.854a5.967,5.967,0,0,1-5.748,5.826c-2.529.083-5.094.083-7.623,0a5.967,5.967,0,0,1-5.748-5.826c-.023-.924-.023-1.861,0-2.786a5.967,5.967,0,0,1,5.748-5.826c1.265-.041,2.538-.062,3.812-.062s2.547.021,3.812.062a5.967,5.967,0,0,1,5.748,5.826C198.369,303.841,198.369,304.779,198.346,305.7Z" transform="translate(-158.509 -250.696)"/>
        <path id="Trazado_609228" data-name="Trazado 609228" d="M230.777,343.766a1.122,1.122,0,0,0-1.122,1.122v2.384a1.122,1.122,0,1,0,2.243,0v-2.384A1.122,1.122,0,0,0,230.777,343.766Z" transform="translate(-203.318 -292.351)"/>
        <path id="Trazado_609229" data-name="Trazado 609229" d="M268.463,343.766a1.122,1.122,0,0,0-1.122,1.122v2.384a1.122,1.122,0,1,0,2.243,0v-2.384A1.122,1.122,0,0,0,268.463,343.766Z" transform="translate(-235.368 -292.351)"/>
        <path id="Trazado_609230" data-name="Trazado 609230" d="M141.28,311.444c1.05,0,1.9-1.418,1.9-3.161s-.854-3.161-1.9-3.161-1.9,1.418-1.9,3.161S140.23,311.444,141.28,311.444Z" transform="translate(-126.542 -259.487)"/>
        <path id="Trazado_609231" data-name="Trazado 609231" d="M349.061,305.122c-1.05,0-1.9,1.418-1.9,3.161s.854,3.161,1.9,3.161,1.9-1.418,1.9-3.161S350.111,305.122,349.061,305.122Z" transform="translate(-303.246 -259.487)"/>
        <path id="Trazado_609232" data-name="Trazado 609232" d="M142.338,35.384a5.636,5.636,0,0,1-3.4-.739,1.122,1.122,0,1,0-1.064,1.975,7.193,7.193,0,0,0,3.347.987V38.3a1.122,1.122,0,1,0,2.243,0v-.772a4.818,4.818,0,0,0,4.089-3.888c.279-2-1-3.716-3.262-4.374a16.943,16.943,0,0,1-3.926-1.511.907.907,0,0,1-.383-.956,1.745,1.745,0,0,1,1.4-1.343,4.966,4.966,0,0,1,1.022-.145h.026a3.937,3.937,0,0,1,2.3.594,1.122,1.122,0,0,0,1.348-1.793,5.933,5.933,0,0,0-2.614-.983v-.6a1.122,1.122,0,1,0-2.243,0v.669c-.124.024-.249.05-.377.082a4.013,4.013,0,0,0-3.075,3.151,3.139,3.139,0,0,0,1.379,3.209,17.383,17.383,0,0,0,4.517,1.781c1.181.344,1.788,1.04,1.667,1.909-.185,1.326-1.681,2.049-2.995,2.056Z" transform="translate(-124.764 -18.203)"/>
      </g>
    </g>
  </g>
</svg>
