<svg xmlns="http://www.w3.org/2000/svg" width="478" height="322.791" viewBox="0 0 478 322.791">
  <g id="Grupo_1034294" data-name="Grupo 1034294" transform="translate(-915 -12041.808)">
    <g id="Grupo_871422" data-name="Grupo 871422" transform="translate(1007.891 12036.904)">
      <g id="Grupo_871408" data-name="Grupo 871408" transform="translate(-92.891 4.903)">
        <g id="Grupo_871375" data-name="Grupo 871375" transform="translate(71.992 194.814)">
          <g id="Grupo_871374" data-name="Grupo 871374" transform="translate(24.417 6.12)">
            <g id="Grupo_871372" data-name="Grupo 871372">
              <path id="Trazado_611092" data-name="Trazado 611092" d="M166.711,264.567c1.983,2.25,4.25,5.221,1.66,9.088-2.1,3.128-7.084,3.1-10.313,1.6A133.723,133.723,0,0,1,166.711,264.567Z" transform="translate(-133.25 -264.567)" fill="#ed9c57"/>
              <path id="Trazado_611093" data-name="Trazado 611093" d="M133.565,332.062c.018.014.038.027.055.041a7.607,7.607,0,0,1-6.456,5.967c.217-3.269,2.923-7.712,3.975-9.329A6.185,6.185,0,0,0,133.565,332.062Z" transform="translate(-127.165 -277.207)" fill="#ed9c57"/>
              <path id="Trazado_611094" data-name="Trazado 611094" d="M147.347,310.128a17.5,17.5,0,0,1-3.813,8.361c-1.13,3.08-1.311,7.092-3.2,8.424a4.865,4.865,0,0,1-5.915.043c-1.68-1.341-2.4-2.292-2.921-5.541,2.19-7.524,8.231-18.6,8.231-18.6l.943.025C142.966,307.254,145.283,309.344,147.347,310.128Z" transform="translate(-128.018 -272.1)" fill="#ed9c57"/>
              <path id="Trazado_611095" data-name="Trazado 611095" d="M134.366,332.062c.018.014.038.027.055.041a9.3,9.3,0,0,1-.348,1.062,4.465,4.465,0,0,1-.555-.376,6.239,6.239,0,0,1-2.286-2.917c.273-.453.518-.84.708-1.132A6.186,6.186,0,0,0,134.366,332.062Z" transform="translate(-127.966 -277.207)" fill="#c67a39"/>
              <path id="Trazado_611096" data-name="Trazado 611096" d="M145.921,320.97c.254.833-.305,6.774-2.668,9.083a.137.137,0,0,1-.207-.177c.748-1.028,1.027-2.066.342-4.249a.971.971,0,0,1,.036-.694C144.145,323.342,145.351,320.839,145.921,320.97Z" transform="translate(-130.287 -275.675)" fill="#f0c69f"/>
              <path id="Trazado_611097" data-name="Trazado 611097" d="M153.306,281.674c2.6,1.1,4.064,1.92,4.6,5.233s-.43,6.66-.807,9.42c1.041,3.3.947,5.98-1.464,8.288-2.214,2.119-8.019,4.485-13.542-7.275C147.394,290.468,153.306,281.674,153.306,281.674Z" transform="translate(-130.106 -267.936)" fill="#ed9c57"/>
              <path id="Trazado_611098" data-name="Trazado 611098" d="M149.306,310.124a9.245,9.245,0,0,1-.135.951c-2.314-.512-5.021-2.595-7.691-7.865l.214-.4.943.025C144.93,307.248,147.243,309.339,149.306,310.124Z" transform="translate(-129.985 -272.1)" fill="#c67a39"/>
              <path id="Trazado_611099" data-name="Trazado 611099" d="M160.593,299.791a8.993,8.993,0,0,1-.4,1.708.406.406,0,0,0,.047.37,4.947,4.947,0,0,1,.922,2.6.075.075,0,0,0,.145.021,7.67,7.67,0,0,0-.451-4.734A.138.138,0,0,0,160.593,299.791Z" transform="translate(-133.666 -271.481)" fill="#f0c69f"/>
            </g>
            <g id="Grupo_871373" data-name="Grupo 871373" transform="translate(2.735)">
              <path id="Trazado_611100" data-name="Trazado 611100" d="M151.036,281.674c1.844.781,3.113,1.423,3.888,2.908l-24.33,38.042c-.418.128,4.966-10.921,3.081-11.812C134.945,305.042,142.446,287.825,151.036,281.674Z" transform="translate(-130.571 -267.936)" fill="#c67a39"/>
              <path id="Trazado_611101" data-name="Trazado 611101" d="M166.711,264.567a14.822,14.822,0,0,1,2.09,2.866l-5.387,8.771a11.081,11.081,0,0,1-5.357-.951A133.723,133.723,0,0,1,166.711,264.567Z" transform="translate(-135.985 -264.567)" fill="#c67a39"/>
            </g>
          </g>
          <path id="Trazado_611102" data-name="Trazado 611102" d="M120.39,257.356c2.8-1.224,8.8.169,12.693,5.893s-17.718,34.494-25.87,37.042-11.9-5.863-9.947-9.218S115.059,259.688,120.39,257.356Z" transform="translate(-96.759 -256.946)" fill="#9c602d"/>
        </g>
        <g id="Grupo_871376" data-name="Grupo 871376" transform="translate(7.858 185.919)">
          <path id="Trazado_611103" data-name="Trazado 611103" d="M36.554,357.5c-9.152-7.264-18.352-14.69-19.66-16.208,7.418-5.724,19.181-18.875,26.954-32.777,9.93-17.762,17.682-31.958,21.973-40.095,2.081-3.947,3.337-6.44,10.3-9.379s21.718-11.707,26.209-12.843,14.87.913,20.632,2.9c-1.718,4.153-5.115,14.085-6.043,16.283-2.281.628-6.616-4.72-7.1-5-2.028,4.886-6.669,8.074-9.572,8.669-.2,4.858-1,13.7-12.115,19.727Z" transform="translate(-16.894 -245.869)" fill="#ffbb80"/>
          <path id="Trazado_611104" data-name="Trazado 611104" d="M103.507,247.738c-4.491,1.135-19.25,9.9-26.209,12.842s-8.215,5.433-10.3,9.379c-4.291,8.136-12.045,22.332-21.974,40.094-7.689,13.755-19.282,26.768-26.712,32.587a17.742,17.742,0,0,1-1.421-1.352c7.418-5.724,19.181-18.875,26.954-32.777,9.93-17.762,17.682-31.958,21.973-40.095,2.081-3.947,3.337-6.44,10.3-9.379s21.718-11.707,26.209-12.843,14.87.913,20.632,2.9c-.128.311-.267.658-.413,1.027C116.625,248.32,107.611,246.7,103.507,247.738Z" transform="translate(-16.894 -245.869)" fill="#ffd5af"/>
          <path id="Trazado_611105" data-name="Trazado 611105" d="M128.557,252.284a.167.167,0,0,1,.307-.13,14.616,14.616,0,0,1,.96,9.814,2.943,2.943,0,0,0-.394-.364,14.267,14.267,0,0,1-1.033,2C129.482,259.839,130.3,256.785,128.557,252.284Zm-11.8,10.276c1.864,1.791,2.921,3.75,3.67,7.569-.2.058-.385.105-.567.143-.013.326-.03.671-.051,1.03-.349-3.255-1.046-6.126-3.282-8.515A.162.162,0,0,1,116.754,262.561Z" transform="translate(-36.509 -247.088)" fill="#df8a40"/>
        </g>
        <g id="Grupo_871401" data-name="Grupo 871401" transform="translate(94.126)">
          <g id="Grupo_871380" data-name="Grupo 871380" transform="translate(113.912 14.236)">
            <g id="Grupo_871377" data-name="Grupo 871377">
              <path id="Trazado_611106" data-name="Trazado 611106" d="M328.1,38.819,355.81,49.87a10.768,10.768,0,0,1,6.778,10v76.887a10.768,10.768,0,0,1-6.778,10L328.1,157.811a3.5,3.5,0,0,0-2.2,3.247V275.519a3.5,3.5,0,0,1-3.5,3.495H266.174V32.078h56.233a3.5,3.5,0,0,1,3.494,3.41A3.6,3.6,0,0,0,328.1,38.819Z" transform="translate(-266.174 -32.078)" fill="#ec910e"/>
              <path id="Trazado_611107" data-name="Trazado 611107" d="M325.9,275.519V161.058a3.5,3.5,0,0,1,.146-.989l-.2.079a3.493,3.493,0,0,0-2.2,3.246V277.855a3.454,3.454,0,0,1-.153.968A3.484,3.484,0,0,0,325.9,275.519Zm36.685-138.761V59.872a10.768,10.768,0,0,0-6.778-10L328.1,38.819a3.6,3.6,0,0,1-2.2-3.331,3.5,3.5,0,0,0-3.494-3.41H266.174v2.337h53.981a3.5,3.5,0,0,1,3.494,3.41,3.6,3.6,0,0,0,2.2,3.331l27.706,11.051a10.768,10.768,0,0,1,6.779,10v76.887a10.757,10.757,0,0,1-1.981,6.215A10.765,10.765,0,0,0,362.588,136.759Z" transform="translate(-266.174 -32.078)" fill="#f0a53a"/>
            </g>
            <g id="Grupo_871379" data-name="Grupo 871379" transform="translate(65.716 21.831)">
              <path id="Rectángulo_321322" data-name="Rectángulo 321322" d="M4.989,0H15.175a4.989,4.989,0,0,1,4.989,4.989V83.823a4.99,4.99,0,0,1-4.99,4.99H4.99A4.99,4.99,0,0,1,0,83.823V4.989A4.989,4.989,0,0,1,4.989,0Z" fill="#b56b00"/>
              <g id="Grupo_871378" data-name="Grupo 871378" transform="translate(1.289 1.289)">
                <path id="Trazado_611108" data-name="Trazado 611108" d="M367.2,94.849v56.23a2.717,2.717,0,0,1-2.717,2.717h-12.15a2.717,2.717,0,0,1-2.717-2.717V94.849Z" transform="translate(-349.614 -67.562)" fill="#f2f2f2"/>
                <path id="Trazado_611109" data-name="Trazado 611109" d="M367.2,63.586V86.034H349.614V63.586a2.717,2.717,0,0,1,2.717-2.717h12.151A2.717,2.717,0,0,1,367.2,63.586Z" transform="translate(-349.614 -60.869)" fill="#74e758"/>
              </g>
            </g>
          </g>
          <g id="Grupo_871392" data-name="Grupo 871392" transform="translate(55.249 24.671)">
            <rect id="Rectángulo_321323" data-name="Rectángulo 321323" width="110.742" height="228.228" fill="#fff"/>
            <g id="Grupo_871381" data-name="Grupo 871381" transform="translate(6.987 4.85)">
              <rect id="Rectángulo_321324" data-name="Rectángulo 321324" width="71.166" height="6.968" transform="translate(27.855)" fill="#666"/>
              <rect id="Rectángulo_321325" data-name="Rectángulo 321325" width="23.971" height="6.968" transform="translate(0 0)" fill="#666"/>
            </g>
            <rect id="Rectángulo_321326" data-name="Rectángulo 321326" width="102.026" height="2.582" transform="translate(4.209 16.36)" fill="#ccc"/>
            <rect id="Rectángulo_321327" data-name="Rectángulo 321327" width="72.096" height="2.582" transform="translate(34.138 21.874)" fill="#ccc"/>
            <g id="Grupo_871382" data-name="Grupo 871382" transform="translate(60.901 164.845)">
              <path id="Trazado_611110" data-name="Trazado 611110" d="M269.207,270.314a23.4,23.4,0,1,0,5.549-11.99A23.354,23.354,0,0,0,269.207,270.314Zm45.8,6.729a22.984,22.984,0,0,1-22.39,19.6,23.065,23.065,0,0,1-3.643-.247,22.93,22.93,0,1,1,26.033-19.353Z" transform="translate(-268.96 -250.349)" fill="#666"/>
              <path id="Trazado_611111" data-name="Trazado 611111" d="M298.05,260.635l-.014-1.482a16.2,16.2,0,0,1,14,7.961l-1.284.743a14.743,14.743,0,0,0-12.7-7.223Z" transform="translate(-274.687 -252.083)" fill="#33424e"/>
              <path id="Trazado_611112" data-name="Trazado 611112" d="M294.635,261.776a13.306,13.306,0,0,0-9.7,4.393l-3.292-2.888a17.673,17.673,0,0,1,12.934-5.881S294.636,261.771,294.635,261.776Z" transform="translate(-271.458 -251.738)" fill="#ff5e58"/>
              <path id="Trazado_611113" data-name="Trazado 611113" d="M277.227,262.307A20.864,20.864,0,0,0,289.888,296.7a21.426,21.426,0,0,0,3.309.224,20.862,20.862,0,0,0,20.368-17.83l-11.8-1.733A8.942,8.942,0,1,1,286.2,270.17l-3.294-2.891-1.119-.978-1.116-.979-1.056-.923Z" transform="translate(-269.57 -252.705)" fill="#00b6a5"/>
              <path id="Trazado_611114" data-name="Trazado 611114" d="M318.4,279.631l-4.332-.637A13.226,13.226,0,0,0,312.4,270.6l3.791-2.189A17.613,17.613,0,0,1,318.4,279.631Z" transform="translate(-277.516 -253.907)" fill="#ff5e58"/>
              <rect id="Rectángulo_321328" data-name="Rectángulo 321328" width="8.25" height="3.216" transform="matrix(0.145, -0.989, 0.989, 0.145, 15.599, 40.999)" fill="#fff"/>
              <rect id="Rectángulo_321329" data-name="Rectángulo 321329" width="8.25" height="3.215" transform="translate(19.891 21.039) rotate(-81.641)" fill="#33424e"/>
              <rect id="Rectángulo_321330" data-name="Rectángulo 321330" width="8.25" height="3.215" transform="translate(26.497 22.01) rotate(-81.642)" fill="#ff5e58"/>
            </g>
            <rect id="Rectángulo_321331" data-name="Rectángulo 321331" width="101.472" height="1.151" transform="translate(5.236 217.574)" fill="#666"/>
            <rect id="Rectángulo_321332" data-name="Rectángulo 321332" width="3.854" height="3.852" transform="translate(102.854 218.628)" fill="#666"/>
            <g id="Grupo_871391" data-name="Grupo 871391" transform="translate(11.567 29.089)">
              <g id="Grupo_871385" data-name="Grupo 871385">
                <g id="Grupo_871383" data-name="Grupo 871383" transform="translate(0 0.233)">
                  <rect id="Rectángulo_321333" data-name="Rectángulo 321333" width="0.466" height="127.967" transform="translate(94.411)" fill="#ccc"/>
                  <rect id="Rectángulo_321334" data-name="Rectángulo 321334" width="0.466" height="127.967" transform="translate(83.921 0)" fill="#ccc"/>
                  <rect id="Rectángulo_321335" data-name="Rectángulo 321335" width="0.466" height="127.967" transform="translate(73.431 0)" fill="#ccc"/>
                  <rect id="Rectángulo_321336" data-name="Rectángulo 321336" width="0.466" height="127.967" transform="translate(62.941 0)" fill="#ccc"/>
                  <rect id="Rectángulo_321337" data-name="Rectángulo 321337" width="0.466" height="127.967" transform="translate(52.45 0)" fill="#ccc"/>
                  <rect id="Rectángulo_321338" data-name="Rectángulo 321338" width="0.466" height="127.967" transform="translate(41.96 0)" fill="#ccc"/>
                  <rect id="Rectángulo_321339" data-name="Rectángulo 321339" width="0.466" height="127.967" transform="translate(31.47 0)" fill="#ccc"/>
                  <rect id="Rectángulo_321340" data-name="Rectángulo 321340" width="0.466" height="127.967" transform="translate(20.98 0)" fill="#ccc"/>
                  <rect id="Rectángulo_321341" data-name="Rectángulo 321341" width="0.466" height="127.967" transform="translate(10.49 0)" fill="#ccc"/>
                  <rect id="Rectángulo_321342" data-name="Rectángulo 321342" width="0.466" height="127.967" transform="translate(0 0)" fill="#ccc"/>
                </g>
                <g id="Grupo_871384" data-name="Grupo 871384" transform="translate(0.235)">
                  <rect id="Rectángulo_321343" data-name="Rectángulo 321343" width="94.411" height="0.466" transform="translate(0 95.8)" fill="#ccc"/>
                  <rect id="Rectángulo_321344" data-name="Rectángulo 321344" width="94.411" height="0.466" transform="translate(0 85.156)" fill="#ccc"/>
                  <rect id="Rectángulo_321345" data-name="Rectángulo 321345" width="94.411" height="0.466" transform="translate(0 74.511)" fill="#ccc"/>
                  <rect id="Rectángulo_321346" data-name="Rectángulo 321346" width="94.411" height="0.466" transform="translate(0 63.867)" fill="#ccc"/>
                  <rect id="Rectángulo_321347" data-name="Rectángulo 321347" width="94.411" height="0.466" transform="translate(0 53.223)" fill="#ccc"/>
                  <rect id="Rectángulo_321348" data-name="Rectángulo 321348" width="94.411" height="0.466" transform="translate(0 42.578)" fill="#ccc"/>
                  <rect id="Rectángulo_321349" data-name="Rectángulo 321349" width="94.411" height="0.466" transform="translate(0 31.933)" fill="#ccc"/>
                  <rect id="Rectángulo_321350" data-name="Rectángulo 321350" width="94.411" height="0.466" transform="translate(0 21.289)" fill="#ccc"/>
                  <rect id="Rectángulo_321351" data-name="Rectángulo 321351" width="94.411" height="0.466" transform="translate(0 10.644)" fill="#ccc"/>
                  <rect id="Rectángulo_321352" data-name="Rectángulo 321352" width="94.411" height="0.466" fill="#ccc"/>
                  <rect id="Rectángulo_321353" data-name="Rectángulo 321353" width="94.411" height="0.466" transform="translate(0 127.734)" fill="#ccc"/>
                  <rect id="Rectángulo_321354" data-name="Rectángulo 321354" width="94.411" height="0.466" transform="translate(0 117.09)" fill="#ccc"/>
                  <rect id="Rectángulo_321355" data-name="Rectángulo 321355" width="94.411" height="0.466" transform="translate(0 106.445)" fill="#ccc"/>
                </g>
              </g>
              <g id="Grupo_871386" data-name="Grupo 871386" transform="translate(49.272 47.958)">
                <rect id="Rectángulo_321356" data-name="Rectángulo 321356" width="14.585" height="10.995" transform="translate(30.787)" fill="#00b6a5"/>
                <rect id="Rectángulo_321357" data-name="Rectángulo 321357" width="13.507" height="10.995" transform="translate(17.28)" fill="#ff5e58"/>
                <rect id="Rectángulo_321358" data-name="Rectángulo 321358" width="17.28" height="10.995" transform="translate(0 0)" fill="#33424e"/>
              </g>
              <g id="Grupo_871387" data-name="Grupo 871387" transform="translate(64.729 69.247)">
                <rect id="Rectángulo_321359" data-name="Rectángulo 321359" width="9.308" height="10.995" transform="translate(20.607)" fill="#00b6a5"/>
                <rect id="Rectángulo_321360" data-name="Rectángulo 321360" width="9.516" height="10.995" transform="translate(11.091 0)" fill="#ff5e58"/>
                <rect id="Rectángulo_321361" data-name="Rectángulo 321361" width="11.091" height="10.995" transform="translate(0 0)" fill="#33424e"/>
              </g>
              <g id="Grupo_871388" data-name="Grupo 871388" transform="translate(76.939 90.536)">
                <rect id="Rectángulo_321362" data-name="Rectángulo 321362" width="9.308" height="10.995" transform="translate(8.397)" fill="#00b6a5"/>
                <rect id="Rectángulo_321363" data-name="Rectángulo 321363" width="8.397" height="10.995" fill="#ff5e58"/>
              </g>
              <rect id="Rectángulo_321364" data-name="Rectángulo 321364" width="20.93" height="10.995" transform="translate(73.714 111.826)" fill="#00b6a5"/>
              <g id="Grupo_871389" data-name="Grupo 871389" transform="translate(59.518 26.669)">
                <rect id="Rectángulo_321365" data-name="Rectángulo 321365" width="7.293" height="10.995" transform="translate(27.833)" fill="#00b6a5"/>
                <rect id="Rectángulo_321366" data-name="Rectángulo 321366" width="22.144" height="10.995" transform="translate(5.69)" fill="#ff5e58"/>
                <rect id="Rectángulo_321367" data-name="Rectángulo 321367" width="5.69" height="10.995" fill="#33424e"/>
              </g>
              <g id="Grupo_871390" data-name="Grupo 871390" transform="translate(55.523 5.38)">
                <rect id="Rectángulo_321368" data-name="Rectángulo 321368" width="9.308" height="10.995" transform="translate(29.813)" fill="#00b6a5"/>
                <rect id="Rectángulo_321369" data-name="Rectángulo 321369" width="13.755" height="10.995" transform="translate(16.058 0)" fill="#ff5e58"/>
                <rect id="Rectángulo_321370" data-name="Rectángulo 321370" width="16.058" height="10.995" transform="translate(0 0)" fill="#33424e"/>
              </g>
            </g>
          </g>
          <g id="Grupo_871400" data-name="Grupo 871400">
            <g id="Grupo_871393" data-name="Grupo 871393" transform="translate(0 3.873)">
              <path id="Trazado_611115" data-name="Trazado 611115" d="M239.574,139.067A11.681,11.681,0,0,0,247.134,150l21.794,8.221a7.154,7.154,0,0,1,4.629,6.693V279.956a9.873,9.873,0,0,1-10.819,9.828L133.251,277.331a9.873,9.873,0,0,1-8.929-9.828v-229a9.875,9.875,0,0,1,8.929-9.829l98.484-9.472a7.154,7.154,0,0,1,7.838,7.121Z" transform="translate(-124.322 -19.172)" fill="#ffb244"/>
              <path id="Trazado_611116" data-name="Trazado 611116" d="M271.53,288.618a9.808,9.808,0,0,1-6.123,1.429L135.921,277.593a9.873,9.873,0,0,1-8.929-9.828v-229a9.839,9.839,0,0,1,2.019-5.981,9.87,9.87,0,0,0-4.689,8.4v229a9.873,9.873,0,0,0,8.929,9.828l129.486,12.453A9.852,9.852,0,0,0,271.53,288.618Z" transform="translate(-124.322 -21.854)" fill="#df911e"/>
              <path id="Trazado_611117" data-name="Trazado 611117" d="M131,31.348l98.484-9.472A7.153,7.153,0,0,1,237.319,29V141.737a11.682,11.682,0,0,0,7.56,10.931l21.794,8.221a7.155,7.155,0,0,1,4.629,6.693V282.626a9.8,9.8,0,0,1-1.691,5.507,9.842,9.842,0,0,0,4.361-8.177V164.912a7.153,7.153,0,0,0-4.629-6.693L247.549,150a11.681,11.681,0,0,1-7.56-10.931V26.326a7.154,7.154,0,0,0-7.838-7.121l-98.484,9.472a9.853,9.853,0,0,0-7.235,4.315A9.814,9.814,0,0,1,131,31.348Z" transform="translate(-124.738 -19.172)" fill="#ffce8a"/>
            </g>
            <g id="Grupo_871399" data-name="Grupo 871399" transform="translate(10.586)">
              <path id="Trazado_611118" data-name="Trazado 611118" d="M153.671,35.835l-2.559-.176-.2,1.312,2.616-.2Zm62.867,78.535-35.641-4.7-11.346-1.5-29.153.4V39.554l-2.893.22v70.8l29.153-.4L178,111.67l38.153,5.033Z" transform="translate(-137.505 -18.547)" fill="#dd9832"/>
              <g id="Grupo_871398" data-name="Grupo 871398" transform="translate(2.892 13.407)">
                <path id="Trazado_611119" data-name="Trazado 611119" d="M220.432,114.209,144.524,104.2l10.863-71.032L232.8,38.5Z" transform="translate(-141.78 -31.462)" fill="#ffd959"/>
                <path id="Trazado_611120" data-name="Trazado 611120" d="M188.757,110.239l37.991-.471V38.7l-2.042-.141v69.532l-47.294.653Z" transform="translate(-148.257 -32.524)" fill="#f3c323"/>
                <path id="Trazado_611121" data-name="Trazado 611121" d="M217.555,106.609l-76.447,1.056v-70.8l76.447-5.818Z" transform="translate(-141.107 -31.045)" fill="#ffe691"/>
                <g id="Grupo_871397" data-name="Grupo 871397" transform="translate(5.238 11.573)">
                  <path id="Trazado_611122" data-name="Trazado 611122" d="M155.317,106.115l-5.856.153a1.763,1.763,0,0,1-1.833-1.752V98.8a1.9,1.9,0,0,1,1.833-1.864l5.856-.2a1.765,1.765,0,0,1,1.857,1.751v5.761A1.9,1.9,0,0,1,155.317,106.115Zm-5.856-8.47a1.154,1.154,0,0,0-1.116,1.134V104.5a1.073,1.073,0,0,0,1.116,1.067l5.856-.157a1.157,1.157,0,0,0,1.13-1.135V98.513a1.075,1.075,0,0,0-1.13-1.066Z" transform="translate(-147.629 -55.556)" fill="#5b5c58"/>
                  <g id="Grupo_871394" data-name="Grupo 871394" transform="translate(0 0.079)">
                    <path id="Trazado_611123" data-name="Trazado 611123" d="M156.447,50.488v4.3a1.206,1.206,0,0,1-1.131,1.174l-5.855.36a1.029,1.029,0,0,1-1.116-1.028V49.574a1.2,1.2,0,0,1,1.116-1.173l5.126-.35.406-.736-5.531.381a1.978,1.978,0,0,0-1.833,1.926v5.713a1.692,1.692,0,0,0,1.833,1.69l5.855-.357a1.981,1.981,0,0,0,1.858-1.928V49.169Z" transform="translate(-147.629 -45.901)" fill="#5b5c58"/>
                    <path id="Trazado_611124" data-name="Trazado 611124" d="M153.013,54.941a.674.674,0,0,1-.625-.315l-2.513-4.116a.727.727,0,0,1,.263-.981.7.7,0,0,1,.982.193L153,52.8l3.765-6.837a.773.773,0,0,1,.99-.342.671.671,0,0,1,.28.948l-4.395,7.969a.786.786,0,0,1-.626.4Z" transform="translate(-148.052 -45.555)" fill="#5b5c58"/>
                  </g>
                  <g id="Grupo_871395" data-name="Grupo 871395" transform="translate(0 13.336)">
                    <path id="Trazado_611125" data-name="Trazado 611125" d="M156.447,66.983v4.3a1.189,1.189,0,0,1-1.13,1.16l-5.856.292a1.043,1.043,0,0,1-1.116-1.041V65.976a1.188,1.188,0,0,1,1.116-1.16l5.126-.291.406-.732-5.531.318a1.95,1.95,0,0,0-1.833,1.906v5.713a1.715,1.715,0,0,0,1.833,1.71l5.856-.288a1.954,1.954,0,0,0,1.857-1.907V65.674Z" transform="translate(-147.629 -62.404)" fill="#5b5c58"/>
                    <path id="Trazado_611126" data-name="Trazado 611126" d="M153.013,71.4a.682.682,0,0,1-.625-.322l-2.513-4.144a.721.721,0,0,1,.263-.978.7.7,0,0,1,.982.2l1.883,3.1,3.765-6.794a.765.765,0,0,1,.989-.331.676.676,0,0,1,.28.951L153.643,71a.772.772,0,0,1-.626.394Z" transform="translate(-148.052 -62.063)" fill="#5b5c58"/>
                  </g>
                  <g id="Grupo_871396" data-name="Grupo 871396" transform="translate(0 26.593)">
                    <path id="Trazado_611127" data-name="Trazado 611127" d="M156.447,83.48v4.3a1.173,1.173,0,0,1-1.13,1.148l-5.856.224a1.057,1.057,0,0,1-1.116-1.054V82.379a1.171,1.171,0,0,1,1.116-1.148L154.587,81l.406-.727-5.531.254a1.924,1.924,0,0,0-1.833,1.885v5.713a1.738,1.738,0,0,0,1.833,1.731l5.856-.221a1.926,1.926,0,0,0,1.857-1.886v-5.57Z" transform="translate(-147.629 -78.907)" fill="#5b5c58"/>
                    <path id="Trazado_611128" data-name="Trazado 611128" d="M153.013,87.856a.692.692,0,0,1-.625-.329l-2.513-4.173a.718.718,0,0,1,.263-.976.709.709,0,0,1,.982.215L153,85.717l3.765-6.75a.759.759,0,0,1,.989-.32.681.681,0,0,1,.28.954l-4.395,7.868a.761.761,0,0,1-.626.387Z" transform="translate(-148.052 -78.572)" fill="#5b5c58"/>
                  </g>
                  <path id="Trazado_611129" data-name="Trazado 611129" d="M176.006,61.326l-7.758.432V67l7.758-.4Zm4.529,13.229-12.287.542v5.241l12.287-.487Zm4.09-27.237-16.377,1.1v5.241l16.377-1.025Zm17.856-1.2-13.99.94v5.332l13.99-.876ZM179.814,66.407l13.367-.683V60.37l-13.367.744Zm-11.566,27.27,5.863-.165V88.245l-5.863.191Zm38.216-47.825v5.413l5.893-.369V45.456ZM197.1,65.523l12.152-.621V59.476l-12.152.676Zm-6.288,27.52,16.665-.467V87.158l-16.665.543Zm-12.908.363,9.029-.254V87.827l-9.029.294ZM184.373,79.7l27.984-1.108v-5.44l-27.984,1.234Z" transform="translate(-151.69 -45.456)" fill="#5b5c58"/>
                </g>
              </g>
              <path id="Trazado_611130" data-name="Trazado 611130" d="M180.677,23.784v2.155l-1.446.137-.009-2.165a.792.792,0,0,1,.719-.755H180A.657.657,0,0,1,180.677,23.784Z" transform="translate(-145.722 -16.084)" fill="#353633"/>
              <path id="Trazado_611131" data-name="Trazado 611131" d="M193.382,23.05,191.9,23.2l-.01-4.112a3.216,3.216,0,0,0-1.127-2.483,3.607,3.607,0,0,0-2.693-.828,4.269,4.269,0,0,0-2.693,1.31,3.879,3.879,0,0,0-1.109,2.674l.018,4.166c0,.036.01,2.174.01,2.174l.018,9.423a1.923,1.923,0,0,0,.719,1.528,2.154,2.154,0,0,0,1.7.455,2.464,2.464,0,0,0,2.119-2.42l-.018-9.424-.009-2.137c0-.037-.009-1.947-.009-1.947a.8.8,0,0,1,.736-.764h.064a.647.647,0,0,1,.673.637l.009,1.9c0,.027.009,2.165.009,2.165l.018,9.46a4.038,4.038,0,0,1-3.492,3.92,3.544,3.544,0,0,1-2.8-.755,3.272,3.272,0,0,1-1.173-2.511l-.018-9.4L182.83,24.1c0-.027-.018-4.22-.018-4.22a5.377,5.377,0,0,1,1.528-3.693,5.846,5.846,0,0,1,3.711-1.81,5.023,5.023,0,0,1,3.757,1.137,4.478,4.478,0,0,1,1.564,3.438Z" transform="translate(-146.429 -14.35)" fill="#353633"/>
            </g>
          </g>
        </g>
        <path id="Trazado_611132" data-name="Trazado 611132" d="M148.195,282.74c3.752-5.841,9.774-17.685,11.346-23.335s-.434-10.81-5.491-13.733c-4.634-2.678-9.387-1.714-12.119.92a81.312,81.312,0,0,0-8.968,9.8,93.589,93.589,0,0,0-8.641,14.11V311.8a9.873,9.873,0,0,0,8.929,9.828l.043,0c4.3-10.341,5.362-20.341,7.566-25.855C143.417,289.383,145.668,286.673,148.195,282.74Z" transform="translate(-30.196 -59.598)" opacity="0.2" style="mix-blend-mode: multiply;isolation: isolate"/>
        <g id="Grupo_871402" data-name="Grupo 871402" transform="translate(27.517 185.09)">
          <path id="Trazado_611133" data-name="Trazado 611133" d="M92.95,288.578a14.422,14.422,0,0,0,2.186-.544c2.542-.856,5.115-2.588,7.761-6.149,3.406-4.584,4.588-9.816,7.722-14.769s5.406-11.225,15.835-20.258c2.682-2.324,6.881-2.944,11.124-.254,4.63,2.936,5.988,7.142,4.3,12.379s-7.8,16.111-11.54,21.443c-2.52,3.59-5.119,5.439-7.9,11.274s-4.833,18.574-9.872,28.855c-5.031,10.266-18.167,21.259-30.7,28.085-5.516,6.324-21,23.98-21,23.98s-9.718-7.572-19.49-15.328Z" transform="translate(-41.376 -244.837)" fill="#ffbb80"/>
          <path id="Trazado_611134" data-name="Trazado 611134" d="M85.365,348.321c12.533-6.826,25.669-17.819,30.7-28.085,5.039-10.281,7.087-23.01,9.872-28.855s5.38-7.684,7.9-11.275c3.743-5.332,9.847-16.207,11.539-21.443s.334-9.442-4.3-12.378c-.185-.117-.369-.22-.554-.325a12.654,12.654,0,0,1,1.608.866c4.63,2.936,5.988,7.142,4.3,12.379s-7.8,16.111-11.54,21.443c-2.52,3.59-5.119,5.439-7.9,11.274s-4.833,18.574-9.872,28.855c-5.031,10.266-18.167,21.259-30.7,28.085-5.516,6.324-21,23.98-21,23.98l-.907-.708C66.069,370.363,80.156,354.293,85.365,348.321Z" transform="translate(-45.934 -245.058)" fill="#faa864"/>
          <path id="Trazado_611135" data-name="Trazado 611135" d="M147.04,282.717c-4.894-7.3-17.14-11.183-17.193-9.441-.013.4.483.447,1.061.626,4.477,1.172,12.023,6.272,15.76,9.163A.258.258,0,0,0,147.04,282.717Z" transform="translate(-58.802 -250.357)" fill="#eb974e"/>
          <path id="Trazado_611136" data-name="Trazado 611136" d="M107.068,298.171c-.121.239.163.507.624.368a5.265,5.265,0,0,1-2.568.7C105.359,298.631,107.068,298.171,107.068,298.171Z" transform="translate(-53.932 -255.342)" fill="#ffbb80"/>
          <path id="Trazado_611137" data-name="Trazado 611137" d="M160.559,256.853c-1.306,3.052-4.181,7.39-6.82,7.773-2.1.305-9.523-4.58-9.693-7.109-.21-3.111,2.339-6.846,3.821-8.89C153.142,247.617,158.939,252.086,160.559,256.853Z" transform="translate(-61.596 -245.555)" fill="#ffd5af"/>
          <path id="Trazado_611138" data-name="Trazado 611138" d="M153.673,267c-2.052.124-8.29-3.895-9.408-6.477A9.461,9.461,0,0,1,153.673,267Z" transform="translate(-61.641 -247.922)" fill="#ffe3c9"/>
        </g>
        <g id="Grupo_871407" data-name="Grupo 871407" transform="translate(0 259.504)">
          <path id="Trazado_611139" data-name="Trazado 611139" d="M72.946,372.589c-5.851,6.688-13.962,15.941-16.086,18.365l-38.544-31.84a112.815,112.815,0,0,0,16.749-18.1A197.414,197.414,0,0,1,72.946,372.589Z" transform="translate(-9.316 -338.195)" fill="#faa864"/>
          <g id="Grupo_871406" data-name="Grupo 871406">
            <g id="Grupo_871403" data-name="Grupo 871403" transform="translate(2.495)">
              <path id="Trazado_611140" data-name="Trazado 611140" d="M10.216,355.065,59.233,397.9l15.349-17.562C61.408,364.2,44.074,348.594,25.565,337.5Z" transform="translate(-10.216 -337.503)" fill="#f2f2f2"/>
              <path id="Trazado_611141" data-name="Trazado 611141" d="M56.02,378.847a69.417,69.417,0,0,0,8.883-8.619A194.86,194.86,0,0,1,80.3,386.762L66.533,402.509,47.9,386.229C50.857,383.6,52.647,381.467,56.02,378.847Z" transform="translate(-17.639 -343.949)" fill="#e6e6e6"/>
            </g>
            <g id="Grupo_871404" data-name="Grupo 871404" transform="translate(50.092 37.383)">
              <path id="Trazado_611142" data-name="Trazado 611142" d="M74.357,384.277a4.985,4.985,0,1,1-4.869,5.1A4.985,4.985,0,0,1,74.357,384.277Zm1.393,2.7a.806.806,0,1,0,.824.787A.806.806,0,0,0,75.751,386.979Zm.1,4.5a.806.806,0,1,0-.825-.787A.806.806,0,0,0,75.855,391.481Zm-2.764-4.44a.806.806,0,1,0,.825.787A.806.806,0,0,0,73.091,387.041Zm.1,4.5a.806.806,0,1,0-.825-.787A.806.806,0,0,0,73.2,391.543Z" transform="translate(-69.487 -384.099)" fill="#ccc"/>
              <path id="Trazado_611143" data-name="Trazado 611143" d="M74.549,384.057a4.986,4.986,0,1,1-4.87,5.1A4.985,4.985,0,0,1,74.549,384.057Zm1.392,2.7a.806.806,0,1,0,.825.788A.806.806,0,0,0,75.942,386.759Zm.1,4.5a.806.806,0,1,0-.825-.788A.806.806,0,0,0,76.046,391.262Zm-2.763-4.441a.806.806,0,1,0,.824.787A.806.806,0,0,0,73.283,386.821Zm.1,4.5a.806.806,0,1,0-.824-.787A.806.806,0,0,0,73.386,391.323Z" transform="translate(-69.525 -384.055)" fill="#fff"/>
              <path id="Trazado_611144" data-name="Trazado 611144" d="M78.722,389.424a3.723,3.723,0,0,0-6.752-2.09,3.728,3.728,0,1,1,6.163,4.19A3.719,3.719,0,0,0,78.722,389.424Z" transform="translate(-69.976 -384.362)" fill="#e6e6e6"/>
            </g>
            <g id="Grupo_871405" data-name="Grupo 871405" transform="translate(0 6.236)">
              <path id="Trazado_611145" data-name="Trazado 611145" d="M68.846,388.516l-9.613,11-49.017-42.84,9.61-11A455.012,455.012,0,0,1,68.846,388.516Z" transform="translate(-7.721 -345.35)" fill="#424242" opacity="0.2" style="mix-blend-mode: multiply;isolation: isolate"/>
              <path id="Trazado_611146" data-name="Trazado 611146" d="M8.465,353.941l7.66-8.672c20.907,15.638,33.7,26.764,53.109,46.415l-7.552,8.757a5.413,5.413,0,0,1-7.661.54L8.96,361.6A5.412,5.412,0,0,1,8.465,353.941Z" transform="translate(-7.109 -345.269)" fill="#424242"/>
              <path id="Trazado_611147" data-name="Trazado 611147" d="M39.809,389.027c6.678-7.5,10.969-12.321,11.421-12.815,7.031,6.236,13.941,12.813,22.665,21.622L64.829,408.35a5.4,5.4,0,0,1-4.367-1.274Z" transform="translate(-13.55 -351.364)" fill="#262626"/>
            </g>
          </g>
        </g>
      </g>
      <g id="Grupo_871421" data-name="Grupo 871421" transform="translate(168.762 28.407)">
        <g id="Grupo_871412" data-name="Grupo 871412" transform="translate(94.478 165.934)">
          <g id="Grupo_871411" data-name="Grupo 871411" transform="translate(0 1.797)">
            <g id="Grupo_871409" data-name="Grupo 871409">
              <path id="Trazado_611148" data-name="Trazado 611148" d="M354.2,243.043c-2.271,1.959-4.92,4.6-2.878,8.779,1.651,3.382,6.6,4.03,10,2.982A133.8,133.8,0,0,0,354.2,243.043Z" transform="translate(-350.589 -243.043)" fill="#ed9c57"/>
              <path id="Trazado_611149" data-name="Trazado 611149" d="M379.184,314.568c-.02.012-.041.021-.061.033a7.61,7.61,0,0,0,5.586,6.788c.229-3.269-1.849-8.038-2.672-9.783A6.184,6.184,0,0,1,379.184,314.568Z" transform="translate(-356.21 -256.547)" fill="#ed9c57"/>
              <path id="Trazado_611150" data-name="Trazado 611150" d="M366.09,290.8a17.5,17.5,0,0,0,2.643,8.8c.7,3.2.336,7.2,2.028,8.78a4.865,4.865,0,0,0,5.855.845c1.846-1.1,2.686-1.946,3.646-5.094-1.148-7.752-5.63-19.547-5.63-19.547l-.936-.1C370.821,288.545,368.241,290.3,366.09,290.8Z" transform="translate(-353.641 -251.205)" fill="#ed9c57"/>
              <path id="Trazado_611151" data-name="Trazado 611151" d="M379.184,314.568c-.02.012-.041.021-.061.033a9.346,9.346,0,0,0,.2,1.1,4.472,4.472,0,0,0,.6-.3,6.238,6.238,0,0,0,2.661-2.581c-.21-.486-.4-.9-.548-1.217A6.184,6.184,0,0,1,379.184,314.568Z" transform="translate(-356.21 -256.547)" fill="#c67a39"/>
              <path id="Trazado_611152" data-name="Trazado 611152" d="M369.363,301.938c-.365.79-.618,6.753,1.409,9.36a.136.136,0,0,0,.229-.147c-.6-1.12-.736-2.187.238-4.256a.974.974,0,0,0,.058-.692C370.8,304.528,369.945,301.885,369.363,301.938Z" transform="translate(-354.238 -254.643)" fill="#f0c69f"/>
              <path id="Trazado_611153" data-name="Trazado 611153" d="M363.724,261.726c-2.728.738-4.287,1.35-5.27,4.56s-.477,6.656-.479,9.442c-1.479,3.13-1.75,5.8.325,8.41,1.906,2.4,7.337,5.531,14.4-5.37C368.388,271.24,363.724,261.726,363.724,261.726Z" transform="translate(-351.814 -246.723)" fill="#ed9c57"/>
              <path id="Trazado_611154" data-name="Trazado 611154" d="M366.1,290.8a9.356,9.356,0,0,0,0,.96c2.362-.194,5.327-1.889,8.686-6.749-.1-.271-.158-.424-.158-.424l-.936-.1C370.825,288.54,368.249,290.3,366.1,290.8Z" transform="translate(-353.642 -251.205)" fill="#c67a39"/>
              <path id="Trazado_611155" data-name="Trazado 611155" d="M358.016,279.04a8.989,8.989,0,0,0,.162,1.746.407.407,0,0,1-.1.361,4.932,4.932,0,0,0-1.266,2.453.075.075,0,0,1-.147,0,7.671,7.671,0,0,1,1.088-4.63A.138.138,0,0,1,358.016,279.04Z" transform="translate(-351.776 -250.106)" fill="#f0c69f"/>
            </g>
            <g id="Grupo_871410" data-name="Grupo 871410" transform="translate(1.15)">
              <path id="Trazado_611156" data-name="Trazado 611156" d="M364.379,261.726c-1.933.523-3.277.987-4.247,2.352l18.942,40.993c.4.184-3.437-11.495-1.449-12.12C377.15,287.061,372.055,268.986,364.379,261.726Z" transform="translate(-353.619 -246.723)" fill="#c67a39"/>
              <path id="Trazado_611157" data-name="Trazado 611157" d="M354.481,243.043a14.758,14.758,0,0,0-2.46,2.555l4.146,9.421a11.09,11.09,0,0,0,5.437-.215A133.8,133.8,0,0,0,354.481,243.043Z" transform="translate(-352.021 -243.043)" fill="#c67a39"/>
            </g>
          </g>
          <path id="Trazado_611158" data-name="Trazado 611158" d="M394.832,241.593c-2.606-1.593-8.741-1.027-13.375,4.116s12.873,36.578,20.6,40.21,12.582-4.194,11.106-7.783S399.8,244.628,394.832,241.593Z" transform="translate(-356.518 -240.806)" fill="#9c602d"/>
        </g>
        <g id="Grupo_871413" data-name="Grupo 871413" transform="translate(115.487 157.067)">
          <path id="Trazado_611159" data-name="Trazado 611159" d="M447.645,350.036c10.053-5.955,20.176-12.063,21.678-13.39-6.574-6.678-16.443-21.3-22.256-36.132-7.426-18.946-13.181-34.062-16.328-42.706-1.526-4.193-2.432-6.833-8.929-10.689s-19.927-14.547-24.224-16.282-14.856-1.114-20.835.076c1.138,4.348,3.157,14.649,3.777,16.953,2.174.932,7.2-3.778,7.713-3.985,1.345,5.116,5.512,8.9,8.307,9.888-.467,4.839-.873,13.709,9.324,21.189Z" transform="translate(-376.751 -229.764)" fill="#ffbb80"/>
          <path id="Trazado_611160" data-name="Trazado 611160" d="M396.208,232.206c4.3,1.735,17.728,12.425,24.224,16.282s7.4,6.5,8.929,10.689c3.147,8.644,8.9,23.76,16.328,42.706,5.751,14.671,15.47,29.137,22.043,35.911a17.949,17.949,0,0,0,1.591-1.148c-6.574-6.678-16.443-21.3-22.256-36.132-7.426-18.946-13.181-34.062-16.328-42.706-1.526-4.193-2.432-6.833-8.929-10.689s-19.927-14.547-24.224-16.282-14.856-1.114-20.835.076c.085.325.176.688.27,1.074C383.132,231,392.283,230.622,396.208,232.206Z" transform="translate(-376.751 -229.764)" fill="#ffd5af"/>
          <path id="Trazado_611161" data-name="Trazado 611161" d="M393.07,235.932a.166.166,0,0,0-.286-.17,14.612,14.612,0,0,0-2.284,9.592,2.918,2.918,0,0,1,.44-.307,14.207,14.207,0,0,0,.752,2.124C391.128,243.291,390.73,240.154,393.07,235.932Zm10.3,11.784c-2.09,1.52-3.4,3.318-4.662,7,.185.084.366.157.542.218-.031.324-.063.668-.09,1.028.788-3.178,1.868-5.928,4.407-7.992A.161.161,0,0,0,403.368,247.716Z" transform="translate(-379.449 -230.93)" fill="#df8a40"/>
        </g>
        <g id="Grupo_871414" data-name="Grupo 871414" transform="translate(0 0)">
          <rect id="Rectángulo_321371" data-name="Rectángulo 321371" width="16.933" height="29.903" transform="matrix(0.914, -0.407, 0.407, 0.914, 80.499, 120.361)" fill="#727371"/>
          <rect id="Rectángulo_321372" data-name="Rectángulo 321372" width="5.375" height="29.903" transform="matrix(0.913, -0.407, 0.407, 0.913, 83.324, 119.103)" fill="#acadaa"/>
          <path id="Trazado_611162" data-name="Trazado 611162" d="M406.806,321.022l-4.347,1.936a6.087,6.087,0,0,1-8.037-3.085L389.579,309l15.468-6.889,4.843,10.876A6.087,6.087,0,0,1,406.806,321.022Z" transform="translate(-263.791 -86.946)" fill="#727371"/>
          <path id="Trazado_611163" data-name="Trazado 611163" d="M405.9,302.585l4.406,9.893a6.087,6.087,0,0,1-3.084,8.037l-4.347,1.936a6.052,6.052,0,0,1-3.566.425,6.045,6.045,0,0,0,5.069.084l4.347-1.936a6.087,6.087,0,0,0,3.084-8.037l-4.843-10.876Z" transform="translate(-265.707 -86.946)" fill="#474746"/>
          <path id="Trazado_611164" data-name="Trazado 611164" d="M351.042,182.46,335.6,189.335a3.926,3.926,0,0,1-5.183-1.988l-4.58-10.287,22.609-10.069,4.581,10.287A3.925,3.925,0,0,1,351.042,182.46Z" transform="translate(-251.236 -60.333)" fill="#bdbdbd"/>
          <path id="Trazado_611165" data-name="Trazado 611165" d="M347.7,174.922a57.566,57.566,0,0,1-15.469,6.888c-1.285.359-2.575.655-3.867.921l.508,1.139c1.293-.266,2.583-.563,3.868-.921a57.563,57.563,0,0,0,15.469-6.888c1.126-.715,2.21-1.476,3.272-2.259l-.508-1.139C349.912,173.445,348.827,174.206,347.7,174.922Z" transform="translate(-251.734 -61.45)" fill="#999"/>
          <path id="Trazado_611166" data-name="Trazado 611166" d="M276.61,48.649A57.407,57.407,0,1,0,352.4,77.736,57.406,57.406,0,0,0,276.61,48.649Zm42.277,95.092a46.66,46.66,0,1,1,23.641-61.606A46.659,46.659,0,0,1,318.887,143.741Z" transform="translate(-234.83 -36.043)" fill="#bdbdbd"/>
          <path id="Trazado_611167" data-name="Trazado 611167" d="M321.737,147.328a48.072,48.072,0,1,0-63.47-24.358A48.071,48.071,0,0,0,321.737,147.328ZM283.2,60.79A46.66,46.66,0,1,1,259.557,122.4,46.66,46.66,0,0,1,283.2,60.79Z" transform="translate(-237.106 -38.339)" fill="#8c8c8c"/>
          <circle id="Elipse_6939" data-name="Elipse 6939" cx="46.659" cy="46.659" r="46.659" transform="matrix(0.814, -0.58, 0.58, 0.814, 0, 54.143)" fill="#46cbfa" opacity="0.2"/>
          <path id="Trazado_611168" data-name="Trazado 611168" d="M270.949,124.676A42.859,42.859,0,0,1,322.037,66.07a42.86,42.86,0,1,0-30.508,79.789A42.684,42.684,0,0,1,270.949,124.676Z" transform="translate(-238.382 -39.617)" fill="#fff" opacity="0.6" style="mix-blend-mode: screen;isolation: isolate"/>
          <rect id="Rectángulo_321373" data-name="Rectángulo 321373" width="16.933" height="11.722" transform="translate(125.788 222.053) rotate(-24.006)" fill="#474746"/>
          <path id="Trazado_611169" data-name="Trazado 611169" d="M400.7,290.926l-17.786,7.918a4.3,4.3,0,0,1-5.727-2.045l-36.018-80.875a4.3,4.3,0,0,1,2.312-5.624l17.786-7.917a4.3,4.3,0,0,1,5.727,2.044L403.009,285.3A4.3,4.3,0,0,1,400.7,290.926Z" transform="translate(-254.187 -67.225)"/>
          <path id="Trazado_611170" data-name="Trazado 611170" d="M352.476,215.471c3.45-2.469,12.471-8.807,12.471-8.807L348.636,214a3.77,3.77,0,0,0-1.9,4.974l34.587,77.483S358.6,239.308,350.58,220.445C349.766,218.533,350.786,216.679,352.476,215.471Z" transform="translate(-255.288 -68.147)" fill="#696969"/>
          <path id="Trazado_611171" data-name="Trazado 611171" d="M276.61,48.649A57.407,57.407,0,1,0,352.4,77.736,57.406,57.406,0,0,0,276.61,48.649Zm53.343,99.54A55.836,55.836,0,1,1,350.97,78.376,56.328,56.328,0,0,1,329.954,148.189Z" transform="translate(-234.83 -36.043)" fill="#d6d6d6"/>
        </g>
        <g id="Grupo_871415" data-name="Grupo 871415" transform="translate(99.913 153.552)">
          <path id="Trazado_611172" data-name="Trazado 611172" d="M402.053,274.1a14.468,14.468,0,0,1-2.091-.836c-2.4-1.193-4.717-3.258-6.855-7.145-2.751-5-3.213-10.348-5.645-15.68s-3.833-11.854-12.939-22.22c-2.342-2.666-6.419-3.851-10.986-1.76-4.986,2.28-6.9,6.262-5.937,11.68s5.538,17.02,8.523,22.811c2.01,3.9,4.333,6.085,6.3,12.242s2.268,19.058,5.865,29.928c3.592,10.854,15.114,23.527,26.6,31.991,4.606,7.015,17.546,26.608,17.546,26.608s10.656-6.183,21.391-12.541Z" transform="translate(-357.358 -225.386)" fill="#ffbb80"/>
          <path id="Trazado_611173" data-name="Trazado 611173" d="M406.006,334.82c-11.491-8.464-23.013-21.138-26.6-31.991-3.6-10.871-3.9-23.759-5.865-29.928s-4.288-8.343-6.3-12.242c-2.985-5.791-7.557-17.393-8.523-22.811s.952-9.4,5.937-11.681c.2-.091.4-.168.592-.247a12.551,12.551,0,0,0-1.71.64c-4.986,2.28-6.9,6.262-5.937,11.68s5.538,17.02,8.523,22.811c2.01,3.9,4.333,6.085,6.3,12.242s2.268,19.058,5.865,29.928c3.592,10.854,15.114,23.527,26.6,31.991,4.606,7.015,17.546,26.608,17.546,26.608l1-.578C422.133,359.277,410.356,341.444,406.006,334.82Z" transform="translate(-357.358 -225.491)" fill="#faa864"/>
          <path id="Trazado_611174" data-name="Trazado 611174" d="M369.69,263.943c5.838-6.564,18.5-8.754,18.316-7.021-.042.394-.54.377-1.136.476-4.595.553-12.763,4.581-16.857,6.939A.258.258,0,0,1,369.69,263.943Z" transform="translate(-359.774 -231.485)" fill="#eb974e"/>
          <path id="Trazado_611175" data-name="Trazado 611175" d="M411.08,284.654c.088.253-.23.479-.668.279a5.276,5.276,0,0,0,2.448,1.046C412.711,285.341,411.08,284.654,411.08,284.654Z" transform="translate(-367.807 -237.059)" fill="#ffbb80"/>
          <path id="Trazado_611176" data-name="Trazado 611176" d="M360.034,236.324c.879,3.2,3.14,7.89,5.7,8.628,2.037.587,10.057-3.245,10.569-5.728.63-3.054-1.388-7.1-2.579-9.326C368.635,228.18,362.286,231.82,360.034,236.324Z" transform="translate(-357.885 -226.189)" fill="#ffd5af"/>
          <path id="Trazado_611177" data-name="Trazado 611177" d="M367.27,247.473c2.016.4,8.742-2.734,10.2-5.14A9.462,9.462,0,0,0,367.27,247.473Z" transform="translate(-359.31 -228.688)" fill="#ffe3c9"/>
        </g>
        <g id="Grupo_871420" data-name="Grupo 871420" transform="translate(146.75 240.963)">
          <path id="Trazado_611178" data-name="Trazado 611178" d="M421.1,362.521c4.89,7.421,11.67,17.689,13.445,20.379l42.51-26.314a112.754,112.754,0,0,1-14.137-20.206A197.39,197.39,0,0,0,421.1,362.521Z" transform="translate(-416.748 -334.659)" fill="#faa864"/>
          <g id="Grupo_871419" data-name="Grupo 871419">
            <g id="Grupo_871416" data-name="Grupo 871416">
              <path id="Trazado_611179" data-name="Trazado 611179" d="M482.883,353.72,428.5,389.51l-12.823-19.482c15.242-14.2,34.534-27.314,54.378-35.791Z" transform="translate(-415.682 -334.237)" fill="#f2f2f2"/>
              <path id="Trazado_611180" data-name="Trazado 611180" d="M442.921,371.011a69.369,69.369,0,0,1-7.631-9.746A194.935,194.935,0,0,0,417.8,375.557l11.5,17.47,20.666-13.6C447.391,376.421,445.908,374.065,442.921,371.011Z" transform="translate(-416.098 -339.561)" fill="#e6e6e6"/>
            </g>
            <g id="Grupo_871417" data-name="Grupo 871417" transform="translate(6.6 31.916)">
              <path id="Trazado_611181" data-name="Trazado 611181" d="M429.837,374.289A4.986,4.986,0,1,0,433.969,380,4.985,4.985,0,0,0,429.837,374.289Zm-1.747,2.489a.806.806,0,1,1-.923.667A.806.806,0,0,1,428.09,376.778Zm-.714,4.446a.806.806,0,1,1,.923-.668A.806.806,0,0,1,427.376,381.224Zm3.34-4.024a.806.806,0,1,1-.923.668A.806.806,0,0,1,430.716,377.2ZM430,381.646a.806.806,0,1,1,.923-.668A.807.807,0,0,1,430,381.646Z" transform="translate(-423.932 -374.029)" fill="#ccc"/>
              <path id="Trazado_611182" data-name="Trazado 611182" d="M429.677,374.045a4.986,4.986,0,1,0,4.132,5.713A4.985,4.985,0,0,0,429.677,374.045Zm-1.747,2.489a.806.806,0,1,1-.923.668A.806.806,0,0,1,427.931,376.534Zm-.714,4.446a.806.806,0,1,1,.924-.668A.807.807,0,0,1,427.217,380.98Zm3.341-4.025a.806.806,0,1,1-.924.668A.806.806,0,0,1,430.557,376.956Zm-.715,4.446a.806.806,0,1,1,.924-.668A.806.806,0,0,1,429.843,381.4Z" transform="translate(-423.9 -373.982)" fill="#fff"/>
              <path id="Trazado_611183" data-name="Trazado 611183" d="M425.611,378.861a3.723,3.723,0,0,1,6.973-1.155,3.729,3.729,0,1,0-6.676,3.315A3.716,3.716,0,0,1,425.611,378.861Z" transform="translate(-424.208 -374.288)" fill="#e6e6e6"/>
            </g>
            <g id="Grupo_871418" data-name="Grupo 871418" transform="translate(3.36 7.284)">
              <path id="Trazado_611184" data-name="Trazado 611184" d="M421.649,379.1l8.031,12.2,54.378-35.791-8.029-12.2A455.1,455.1,0,0,0,421.649,379.1Z" transform="translate(-420.217 -343.308)" fill="#424242" opacity="0.2" style="mix-blend-mode: multiply;isolation: isolate"/>
              <path id="Trazado_611185" data-name="Trazado 611185" d="M485.2,353.055l-6.412-9.632c-22.836,12.656-37.022,21.943-58.918,38.778l6.293,9.7a5.413,5.413,0,0,0,7.517,1.575l49.99-32.9A5.413,5.413,0,0,0,485.2,353.055Z" transform="translate(-419.866 -343.331)" fill="#424242"/>
              <path id="Trazado_611186" data-name="Trazado 611186" d="M457.02,383.482c-5.6-8.341-9.2-13.7-9.576-14.247-7.812,5.225-15.551,10.8-25.39,18.346l7.554,11.649a5.4,5.4,0,0,0,4.5-.668Z" transform="translate(-420.297 -348.415)" fill="#262626"/>
            </g>
          </g>
        </g>
      </g>
    </g>
  </g>
</svg>
