<svg xmlns="http://www.w3.org/2000/svg" width="118" height="118" viewBox="0 0 118 118">
  <g id="Grupo_878013" data-name="Grupo 878013" transform="translate(-3215.167 -4896.914)">
    <g id="Elipse_6907" data-name="Elipse 6907" transform="translate(3215.167 4896.914)" fill="#fff" stroke="#ffb338" stroke-width="3">
      <circle cx="59" cy="59" r="59" stroke="none"/>
      <circle cx="59" cy="59" r="57.5" fill="none"/>
    </g>
    <g id="Grupo_870592" data-name="Grupo 870592" transform="translate(3236.111 4917.858)">
      <g id="Grupo_870590" data-name="Grupo 870590" transform="translate(1.115 1.45)">
        <g id="Grupo_870586" data-name="Grupo 870586" transform="translate(0 25.573)">
          <path id="Trazado_609276" data-name="Trazado 609276" d="M7.5,183.357v20.184a4.65,4.65,0,0,0,1.03,2.918l12.158,15.268a4.041,4.041,0,0,1,.88,2.517v4.923a.594.594,0,0,0,.595.595H32.87a.594.594,0,0,0,.595-.595V217.736a9.866,9.866,0,0,0-2.921-7.008L18.424,198.71a3.023,3.023,0,0,0-5.151,2.114l-.544-2.27.544-2.7V186a4.207,4.207,0,0,0-4.208-4.207A1.568,1.568,0,0,0,7.5,183.357Z" transform="translate(-7.498 -181.79)" fill="#fbdedb"/>
          <path id="Trazado_609277" data-name="Trazado 609277" d="M28.84,285.342l3.526,3.837,4.029,4.384a1.412,1.412,0,0,0,2.079-1.911l-7.555-8.221a3.157,3.157,0,0,1-.321-.418,3.006,3.006,0,0,1-.476-1.626V276.38a5.848,5.848,0,0,0-1.283,8.962Z" transform="translate(-24.348 -262.319)" fill="#f9cac5"/>
        </g>
        <g id="Grupo_870587" data-name="Grupo 870587" transform="translate(47.915 25.573)">
          <path id="Trazado_609278" data-name="Trazado 609278" d="M355.787,183.357v20.184a4.65,4.65,0,0,1-1.03,2.918L342.6,221.727a4.041,4.041,0,0,0-.88,2.517v4.923a.594.594,0,0,1-.595.595H330.415a.594.594,0,0,1-.595-.595V217.736a9.867,9.867,0,0,1,2.921-7.008l12.12-12.019a3.023,3.023,0,0,1,5.151,2.114l.544-2.27-.544-2.7V186a4.207,4.207,0,0,1,4.208-4.207,1.568,1.568,0,0,1,1.567,1.567Z" transform="translate(-329.82 -181.79)" fill="#fbdedb"/>
          <path id="Trazado_609279" data-name="Trazado 609279" d="M416.971,285.343l-3.526,3.837-4.029,4.384a1.412,1.412,0,0,1-2.079-1.911l7.555-8.221a3.154,3.154,0,0,0,.321-.418,3.006,3.006,0,0,0,.476-1.626v-5.007a5.848,5.848,0,0,1,1.283,8.962Z" transform="translate(-395.496 -262.32)" fill="#f9cac5"/>
        </g>
        <path id="Trazado_609280" data-name="Trazado 609280" d="M101.166,170.061l1.923,12.047-1.923,19.251a.76.76,0,0,1-.581-.265L74.313,170.558a.763.763,0,0,1-.183-.5l14.464-1.384Z" transform="translate(-64.225 -145.053)" fill="#b6e1fd"/>
        <path id="Trazado_609281" data-name="Trazado 609281" d="M283.034,167.818a.752.752,0,0,1-.184.488l-26.279,30.546a.754.754,0,0,1-.571.265v-31.3l14.235-1.776Z" transform="translate(-219.059 -142.81)" fill="#2b95f9"/>
        <path id="Trazado_609282" data-name="Trazado 609282" d="M195.385,68.139l-4.571,9.307-8.974,6.981-9.886-7.2-3.064-9.083a.727.727,0,0,1,.265-.049h25.963a.743.743,0,0,1,.268.049Z" transform="translate(-144.898 -59.419)" fill="#2b95f9"/>
        <g id="Grupo_870588" data-name="Grupo 870588" transform="translate(2.205)">
          <path id="Trazado_609283" data-name="Trazado 609283" d="M351.741,229.171a8.064,8.064,0,0,0-3.668,3.668.3.3,0,0,1-.52,0,8.064,8.064,0,0,0-3.668-3.668.3.3,0,0,1,0-.52,8.064,8.064,0,0,0,3.668-3.668.3.3,0,0,1,.52,0,8.064,8.064,0,0,0,3.668,3.668A.3.3,0,0,1,351.741,229.171Z" transform="translate(-295.953 -192.858)" fill="#ffd15b"/>
          <path id="Trazado_609284" data-name="Trazado 609284" d="M367.3,13.513a6.934,6.934,0,0,0-3.083,3.084.3.3,0,0,1-.52,0,6.934,6.934,0,0,0-3.084-3.084.3.3,0,0,1,0-.52A6.934,6.934,0,0,0,363.7,9.91a.3.3,0,0,1,.52,0,6.934,6.934,0,0,0,3.083,3.084A.3.3,0,0,1,367.3,13.513Z" transform="translate(-310.195 -9.757)" fill="#ffd15b"/>
          <path id="Trazado_609285" data-name="Trazado 609285" d="M31.834,77.606a9.509,9.509,0,0,0-4.415,4.415.3.3,0,0,1-.521,0,9.509,9.509,0,0,0-4.415-4.415.3.3,0,0,1,0-.521A9.509,9.509,0,0,0,26.9,72.67a.3.3,0,0,1,.521,0,9.509,9.509,0,0,0,4.415,4.415A.3.3,0,0,1,31.834,77.606Z" transform="translate(-22.329 -63.186)" fill="#ffd15b"/>
        </g>
        <g id="Grupo_870589" data-name="Grupo 870589" transform="translate(9.905 8.721)">
          <path id="Trazado_609286" data-name="Trazado 609286" d="M101.166,84.708H74.13a.749.749,0,0,1,.187-.5l13.591-15.58a.729.729,0,0,1,.308-.211Z" transform="translate(-74.13 -68.42)" fill="#b6e1fd"/>
          <path id="Trazado_609287" data-name="Trazado 609287" d="M283.034,84.708H256L269.545,68.42a.777.777,0,0,1,.314.221l13,15.572A.762.762,0,0,1,283.034,84.708Z" transform="translate(-228.964 -68.42)" fill="#b6e1fd"/>
        </g>
      </g>
      <g id="Grupo_870591" data-name="Grupo 870591" transform="translate(0 0)">
        <path id="Trazado_609288" data-name="Trazado 609288" d="M12.825,191.532A4.156,4.156,0,0,0,8,190.8V179.611a5.329,5.329,0,0,0-5.323-5.323A2.685,2.685,0,0,0,0,176.97v20.185a5.775,5.775,0,0,0,1.273,3.612l12.158,15.268a2.936,2.936,0,0,1,.637,1.822v5.518a1.115,1.115,0,1,0,2.23,0v-5.518a5.176,5.176,0,0,0-1.122-3.211L3.013,199.373a3.542,3.542,0,0,1-.783-2.217V176.97a.453.453,0,0,1,.453-.452,3.1,3.1,0,0,1,3.093,3.093v14.662a4.124,4.124,0,0,0,1.091,3l8.511,9.261a1.115,1.115,0,1,0,1.642-1.509l-8.511-9.261a1.908,1.908,0,0,1,2.748-2.645l12.121,12.019a8.811,8.811,0,0,1,2.59,6.216v12.026a1.115,1.115,0,1,0,2.23,0V211.35a11.057,11.057,0,0,0-3.25-7.8Z" transform="translate(0 -148.379)"/>
        <path id="Trazado_609289" data-name="Trazado 609289" d="M407.917,418.972a1.115,1.115,0,0,0-1.567.177l-2.868,3.6a5.175,5.175,0,0,0-1.123,3.211v5.518a1.115,1.115,0,0,0,2.23,0v-5.518a2.936,2.936,0,0,1,.637-1.822l2.868-3.6A1.115,1.115,0,0,0,407.917,418.972Z" transform="translate(-342.547 -356.483)"/>
        <path id="Trazado_609290" data-name="Trazado 609290" d="M349.733,175.076a2.664,2.664,0,0,0-1.9-.786,5.329,5.329,0,0,0-5.323,5.322V190.8a4.156,4.156,0,0,0-4.821.732l-12.121,12.019a11.055,11.055,0,0,0-3.25,7.8v12.026a1.115,1.115,0,1,0,2.23,0V211.352a8.81,8.81,0,0,1,2.59-6.216l12.121-12.019a1.908,1.908,0,0,1,2.748,2.645l-8.511,9.261a1.115,1.115,0,0,0,1.642,1.509l8.511-9.261a4.123,4.123,0,0,0,1.091-3v-14.66a3.1,3.1,0,0,1,3.094-3.092.453.453,0,0,1,.452.452v20.184a3.553,3.553,0,0,1-.787,2.223l-6.047,7.593a1.115,1.115,0,0,0,1.744,1.389l6.043-7.589a5.787,5.787,0,0,0,1.277-3.618V176.972A2.657,2.657,0,0,0,349.733,175.076Z" transform="translate(-274.407 -148.381)"/>
        <path id="Trazado_609291" data-name="Trazado 609291" d="M110.933,94.014a1.115,1.115,0,0,0,1.984,0,7.439,7.439,0,0,1,3.936-3.936,1.115,1.115,0,0,0,0-1.984,13.788,13.788,0,0,1-1.313-.752l6.953-8.083a1.87,1.87,0,0,0,.023-2.428l-13-15.576a1.872,1.872,0,0,0-1.433-.666H82.117a1.868,1.868,0,0,0-1.412.642l-5.365,6.15a1.115,1.115,0,0,0,1.68,1.466l4.707-5.4L92.237,76.926H69.972L73.6,72.767A1.115,1.115,0,1,0,71.919,71.3l-4.807,5.512a1.885,1.885,0,0,0-.008,2.452l13.706,15.93A1.115,1.115,0,1,0,82.5,93.74L69.951,79.156H93.687v27.589l-7.8-9.06A1.115,1.115,0,0,0,84.2,99.14L93.377,109.8a1.876,1.876,0,0,0,1.42.65h0a1.873,1.873,0,0,0,1.418-.652l14.276-16.593c.143.246.288.512.439.806Zm.992-2.715a8.2,8.2,0,0,0-2.213-2.213,8.2,8.2,0,0,0,2.213-2.213,8.2,8.2,0,0,0,2.213,2.213A8.2,8.2,0,0,0,111.925,91.3Zm-5.835-28.48-11.267,13.8-10.76-13.8ZM95.917,106.732V79.156h9.857a1.115,1.115,0,1,0,0-2.23H97.447l11-13.469L119.69,76.926h-8.714a1.115,1.115,0,0,0,0,2.23h8.664l-5.73,6.66a11.8,11.8,0,0,1-.994-1.659,1.115,1.115,0,0,0-1.984,0A7.439,7.439,0,0,1,107,88.094a1.115,1.115,0,0,0,0,1.984,9.852,9.852,0,0,1,2.092,1.345Z" transform="translate(-56.746 -51.582)"/>
        <path id="Trazado_609292" data-name="Trazado 609292" d="M351.308,5.939a6.329,6.329,0,0,1,3.349,3.349,1.115,1.115,0,0,0,1.984,0,6.328,6.328,0,0,1,3.349-3.349,1.115,1.115,0,0,0,0-1.984A6.329,6.329,0,0,1,356.641.606a1.115,1.115,0,0,0-1.984,0,6.33,6.33,0,0,1-3.349,3.349,1.115,1.115,0,0,0,0,1.984Zm4.341-2.66a7.3,7.3,0,0,0,1.668,1.668,7.293,7.293,0,0,0-1.668,1.668,7.3,7.3,0,0,0-1.668-1.668A7.3,7.3,0,0,0,355.649,3.279Z" transform="translate(-298.569 0)"/>
        <path id="Trazado_609293" data-name="Trazado 609293" d="M13.146,70.005a8.954,8.954,0,0,1,4.687,4.687,1.115,1.115,0,0,0,1.984,0A8.954,8.954,0,0,1,24.5,70.005a1.115,1.115,0,0,0,0-1.984,8.954,8.954,0,0,1-4.687-4.687,1.115,1.115,0,0,0-1.984,0,8.955,8.955,0,0,1-4.687,4.687,1.115,1.115,0,0,0,0,1.984Zm5.679-3.922a9.6,9.6,0,0,0,2.93,2.93,9.6,9.6,0,0,0-2.93,2.93,9.6,9.6,0,0,0-2.93-2.93A9.6,9.6,0,0,0,18.825,66.083Z" transform="translate(-10.676 -53.403)"/>
      </g>
    </g>
  </g>
</svg>
