<svg xmlns="http://www.w3.org/2000/svg" width="118" height="118" viewBox="0 0 118 118">
  <g id="Grupo_878012" data-name="Grupo 878012" transform="translate(-2693.167 -4896.914)">
    <g id="Elipse_6906" data-name="Elipse 6906" transform="translate(2693.167 4896.914)" fill="#fff" stroke="#ffb338" stroke-width="3">
      <circle cx="59" cy="59" r="59" stroke="none"/>
      <circle cx="59" cy="59" r="57.5" fill="none"/>
    </g>
    <g id="Grupo_870619" data-name="Grupo 870619" transform="translate(2699.069 4923.406)">
      <path id="Trazado_609264" data-name="Trazado 609264" d="M63,68.79,60.18,70.274a1.551,1.551,0,0,1-1.443,0L55.915,68.79c-15.5-8.147-25.044-23.179-25.044-39.445V19.409a1.542,1.542,0,0,1,1.368-1.54c5.342-.564,9.59-4.388,10.267-9.225a1.56,1.56,0,0,1,1.538-1.357h30.83a1.56,1.56,0,0,1,1.538,1.357c.677,4.837,4.924,8.662,10.267,9.225a1.542,1.542,0,0,1,1.368,1.54v9.936C88.047,45.611,78.5,60.644,63,68.79Z" transform="translate(-6.362 -6.362)" fill="#e1e6e9"/>
      <path id="Trazado_609265" data-name="Trazado 609265" d="M280.235,17.868c-5.342-.564-9.59-4.388-10.267-9.225a1.56,1.56,0,0,0-1.538-1.357h-2.1c.3,6.706,5.081,11.462,10.252,12.008a1.542,1.542,0,0,1,1.368,1.54V30.77c0,16.266-9.544,31.3-25.044,39.445l-.326.171a1.549,1.549,0,0,0,1.156-.113l2.823-1.484c15.5-8.147,25.044-23.179,25.044-39.445V19.408A1.543,1.543,0,0,0,280.235,17.868Z" transform="translate(-199.918 -6.361)" fill="#cbcbcb"/>
      <path id="Trazado_609266" data-name="Trazado 609266" d="M89.661,94.27A44.409,44.409,0,0,1,72.754,78.916a38.473,38.473,0,0,1-6.09-20.624v-5.64A1.991,1.991,0,0,1,67.918,50.8a17.476,17.476,0,0,0,9.4-8.637,1.987,1.987,0,0,1,1.8-1.126H102.3a1.987,1.987,0,0,1,1.8,1.126,17.476,17.476,0,0,0,9.4,8.637,1.991,1.991,0,0,1,1.254,1.853v5.64a38.473,38.473,0,0,1-6.09,20.624A44.41,44.41,0,0,1,91.753,94.27l-.117.061a2,2,0,0,1-1.858,0Z" transform="translate(-37.61 -35.825)" fill="#617a0b"/>
      <path id="Trazado_609267" data-name="Trazado 609267" d="M278.789,50.8l-.1-.04-.162-.066-.276-.117-.158-.069q-.146-.065-.291-.133l-.132-.061q-.209-.1-.415-.2l-.031-.016q-.19-.1-.378-.2l-.132-.073c-.091-.05-.181-.1-.271-.152l-.149-.086-.253-.15-.146-.089c-.088-.054-.175-.11-.261-.165l-.127-.081q-.178-.116-.352-.236l-.026-.018q-.187-.13-.37-.264l-.114-.085q-.126-.094-.25-.189l-.133-.1q-.115-.09-.228-.182l-.131-.107q-.116-.1-.23-.194l-.117-.1q-.141-.123-.279-.249l-.058-.052q-.166-.152-.327-.308l-.092-.091c-.076-.075-.153-.15-.227-.227l-.114-.118q-.1-.1-.2-.21l-.115-.124q-.1-.108-.2-.218l-.1-.119c-.076-.087-.15-.176-.224-.265l-.065-.077q-.142-.173-.279-.349l-.069-.091q-.1-.132-.2-.266l-.094-.129q-.085-.118-.168-.237l-.1-.139q-.082-.12-.161-.241l-.088-.134c-.059-.092-.116-.184-.174-.277l-.063-.1q-.115-.19-.225-.384l-.045-.082q-.086-.154-.169-.309l-.072-.138c-.045-.087-.09-.174-.133-.261l-.074-.151c-.019-.038-.038-.076-.056-.115a1.987,1.987,0,0,0-1.8-1.126H256V94.56a2,2,0,0,0,.929-.229l.117-.061a44.409,44.409,0,0,0,16.906-15.354,38.473,38.473,0,0,0,6.09-20.624v-5.64A1.991,1.991,0,0,0,278.789,50.8Z" transform="translate(-202.904 -35.824)" fill="#3d672f"/>
      <path id="Trazado_609268" data-name="Trazado 609268" d="M278.789,50.8l-.1-.04-.162-.066-.276-.117-.158-.069q-.146-.065-.291-.133l-.132-.061q-.209-.1-.415-.2l-.031-.016q-.19-.1-.378-.2l-.132-.073c-.091-.05-.181-.1-.271-.152l-.149-.086-.253-.15-.146-.089c-.088-.054-.175-.11-.261-.165l-.127-.081q-.178-.116-.352-.236l-.026-.018q-.187-.13-.37-.264l-.114-.085q-.126-.094-.25-.189l-.133-.1q-.115-.09-.228-.182l-.131-.107q-.116-.1-.23-.194l-.117-.1q-.141-.123-.279-.249l-.058-.052q-.166-.152-.327-.308l-.092-.091q-.115-.113-.227-.227l-.114-.118q-.1-.1-.2-.21l-.115-.124q-.1-.108-.2-.218l-.1-.119c-.076-.087-.15-.176-.224-.265l-.065-.077q-.142-.173-.279-.349l-.069-.091q-.1-.132-.2-.266l-.094-.129q-.085-.118-.168-.237l-.1-.139q-.082-.12-.161-.241l-.088-.134c-.059-.092-.116-.184-.174-.277l-.063-.1q-.115-.19-.225-.384l-.045-.082q-.086-.154-.169-.309l-.072-.138c-.045-.087-.09-.174-.133-.261l-.074-.151c-.019-.038-.038-.076-.056-.115a1.987,1.987,0,0,0-1.8-1.126h-3.209a17.813,17.813,0,0,1,1.41,2.128c.021.037.038.076.056.115l.074.151q.066.131.133.261l.072.138q.083.155.169.309l.045.082q.11.193.225.384l.063.1q.086.139.174.277l.088.134q.079.121.161.241l.1.139q.083.119.168.237l.094.129c.066.089.133.178.2.266l.069.091q.137.176.279.349l.065.077c.074.089.148.177.224.265l.1.119q.1.11.2.218l.115.124q.1.106.2.21l.114.118q.112.114.227.227l.092.091q.161.156.327.308l.058.052q.138.126.279.249l.117.1q.114.1.23.194l.131.107q.113.092.228.182l.133.1q.124.1.25.189l.114.085q.183.134.37.264l.026.018q.174.12.352.236l.127.081q.13.083.261.165l.146.089.253.15.149.086q.135.077.271.152l.132.073q.188.1.378.2l.031.016q.206.1.415.2l.132.061c.1.045.194.09.291.133l.158.069.276.117.162.066.1.04a1.991,1.991,0,0,1,1.254,1.853v5.64a38.473,38.473,0,0,1-6.09,20.624A47.385,47.385,0,0,1,256,94.507v.053a2,2,0,0,0,.929-.229l.117-.061a44.409,44.409,0,0,0,16.906-15.354,38.473,38.473,0,0,0,6.09-20.624v-5.64A1.991,1.991,0,0,0,278.789,50.8Z" transform="translate(-202.904 -35.824)" fill="#617a0b"/>
      <path id="Trazado_609269" data-name="Trazado 609269" d="M180.356,206.435H159.231a2.017,2.017,0,0,1-2.017-2.017V191.169a2.017,2.017,0,0,1,2.017-2.017h21.125a2.017,2.017,0,0,1,2.017,2.017v13.248A2.017,2.017,0,0,1,180.356,206.435Z" transform="translate(-116.661 -165.133)" fill="#afafaf"/>
      <path id="Trazado_609270" data-name="Trazado 609270" d="M314.348,189.152H310.7a2.017,2.017,0,0,1,2.017,2.017v13.248a2.017,2.017,0,0,1-2.017,2.017h3.653a2.017,2.017,0,0,0,2.017-2.017V191.169A2.017,2.017,0,0,0,314.348,189.152Z" transform="translate(-250.653 -165.133)" fill="#515a66"/>
      <path id="Trazado_609271" data-name="Trazado 609271" d="M240.456,236.38v2.635a.925.925,0,0,0,1.851,0V236.38a2.167,2.167,0,1,0-1.851,0Z" transform="translate(-188.249 -202.762)"/>
      <path id="Trazado_609272" data-name="Trazado 609272" d="M82.87,88.727h0l.117.061a2.922,2.922,0,0,0,2.719,0l.117-.062A45.335,45.335,0,0,0,103.08,73.05a39.4,39.4,0,0,0,6.234-21.12v-5.64a2.9,2.9,0,0,0-1.839-2.713,16.454,16.454,0,0,1-8.9-8.174,2.924,2.924,0,0,0-2.632-1.654H72.753A2.924,2.924,0,0,0,70.121,35.4a16.453,16.453,0,0,1-8.9,8.174,2.9,2.9,0,0,0-1.839,2.713v5.64a39.4,39.4,0,0,0,6.234,21.12A45.334,45.334,0,0,0,82.87,88.727Zm-21.641-36.8v-5.64a1.059,1.059,0,0,1,.67-.993,18.3,18.3,0,0,0,9.893-9.1,1.065,1.065,0,0,1,.961-.6H95.941a1.065,1.065,0,0,1,.961.6,18.3,18.3,0,0,0,9.893,9.1,1.059,1.059,0,0,1,.67.993v5.64a37.55,37.55,0,0,1-5.946,20.128A43.485,43.485,0,0,1,84.963,87.089l-.117.061a1.071,1.071,0,0,1-1,0l-.117-.061A43.484,43.484,0,0,1,67.175,72.058,37.55,37.55,0,0,1,61.229,51.931Z" transform="translate(-31.25 -29.463)"/>
      <path id="Trazado_609273" data-name="Trazado 609273" d="M87.826,245.562a.925.925,0,0,0-1.106.7c-2.818,12.467-11.4,23.279-23.547,29.663l-2.823,1.484a.626.626,0,0,1-.582,0l-2.823-1.484C44.778,269.529,36.192,258.7,33.385,246.21a.925.925,0,0,0-1.805.406c2.925,13.02,11.856,24.3,24.5,30.947l2.823,1.484a2.475,2.475,0,0,0,2.3,0l2.823-1.484c12.627-6.637,21.554-17.9,24.491-30.893A.925.925,0,0,0,87.826,245.562Z" transform="translate(-6.961 -214.314)"/>
      <path id="Trazado_609274" data-name="Trazado 609274" d="M80.414,10.588c-4.941-.521-8.826-3.989-9.448-8.433A2.5,2.5,0,0,0,68.512,0H37.682a2.5,2.5,0,0,0-2.455,2.154c-.622,4.444-4.507,7.912-9.448,8.433a2.46,2.46,0,0,0-2.2,2.46v9.936a42.592,42.592,0,0,0,.222,4.339.925.925,0,0,0,.919.831.937.937,0,0,0,.1,0,.925.925,0,0,0,.826-1.015,40.746,40.746,0,0,1-.213-4.149V13.048a.621.621,0,0,1,.54-.62C31.762,11.817,36.32,7.7,37.06,2.41a.633.633,0,0,1,.622-.56H68.512a.633.633,0,0,1,.622.56c.74,5.287,5.3,9.407,11.086,10.017a.621.621,0,0,1,.54.62v9.936a40.761,40.761,0,0,1-.208,4.107.925.925,0,0,0,1.841.187,42.6,42.6,0,0,0,.218-4.294V13.048A2.459,2.459,0,0,0,80.414,10.588Z"/>
      <path id="Trazado_609275" data-name="Trazado 609275" d="M173.995,108.476a2.946,2.946,0,0,0,2.943-2.943V92.285a2.946,2.946,0,0,0-2.943-2.943h-1.521V84.926a9.041,9.041,0,0,0-18.082,0v4.417H152.87a2.946,2.946,0,0,0-2.943,2.943v13.248a2.946,2.946,0,0,0,2.943,2.943Zm-17.753-23.55a7.191,7.191,0,0,1,14.381,0v4.417H156.242Zm-4.464,20.607V92.285a1.094,1.094,0,0,1,1.092-1.092h21.125a1.093,1.093,0,0,1,1.092,1.092v13.248a1.094,1.094,0,0,1-1.092,1.092H152.87A1.093,1.093,0,0,1,151.778,105.534Z" transform="translate(-110.3 -66.249)"/>
    </g>
  </g>
</svg>
