<svg xmlns="http://www.w3.org/2000/svg" xmlns:xlink="http://www.w3.org/1999/xlink" width="183.809" height="169.787" viewBox="0 0 183.809 169.787">
  <defs>
    <filter id="Elipse_6866" x="14.021" y="0" width="169.788" height="169.787" filterUnits="userSpaceOnUse">
      <feOffset dy="3" input="SourceAlpha"/>
      <feGaussianBlur stdDeviation="3" result="blur"/>
      <feFlood flood-opacity="0.161"/>
      <feComposite operator="in" in2="blur"/>
      <feComposite in="SourceGraphic"/>
    </filter>
    <clipPath id="clip-path">
      <rect id="Rect치ngulo_292085" data-name="Rect치ngulo 292085" width="13.494" height="13.493" fill="#7ab8f6"/>
    </clipPath>
    <clipPath id="clip-path-2">
      <path id="Trazado_517229" data-name="Trazado 517229" d="M56.02,50.008l-4.065,4.065L49.532,51.65,53.6,47.583,49.31,43.3,51.8,40.8l4.287,4.287,4.067-4.065,2.423,2.423-4.067,4.065L62.8,51.8l-2.494,2.494Z" transform="translate(-49.31 -40.802)" fill="#7ab8f6"/>
    </clipPath>
    <filter id="Trazado_583444" x="131.785" y="12.391" width="52.025" height="52.025" filterUnits="userSpaceOnUse">
      <feOffset dy="3" input="SourceAlpha"/>
      <feGaussianBlur stdDeviation="3" result="blur-2"/>
      <feFlood flood-opacity="0.161"/>
      <feComposite operator="in" in2="blur-2"/>
      <feComposite in="SourceGraphic"/>
    </filter>
    <filter id="Trazado_583445" x="0" y="81.895" width="39.358" height="39.359" filterUnits="userSpaceOnUse">
      <feOffset dy="3" input="SourceAlpha"/>
      <feGaussianBlur stdDeviation="3" result="blur-3"/>
      <feFlood flood-opacity="0.161"/>
      <feComposite operator="in" in2="blur-3"/>
      <feComposite in="SourceGraphic"/>
    </filter>
  </defs>
  <g id="Grupo_878018" data-name="Grupo 878018" transform="translate(-275.563 -17551.559)">
    <g id="Grupo_878016" data-name="Grupo 878016" transform="translate(284.563 17557.559)">
      <g id="Grupo_845760" data-name="Grupo 845760">
        <g transform="matrix(1, 0, 0, 1, -9, -6)" filter="url(#Elipse_6866)">
          <circle id="Elipse_6866-2" data-name="Elipse 6866" cx="75.894" cy="75.894" r="75.894" transform="translate(23.02 6)" fill="#c2e0ff"/>
        </g>
        <g id="Grupo_845758" data-name="Grupo 845758" transform="translate(17.494 9.522)">
          <g id="Grupo_751839" data-name="Grupo 751839">
            <g id="Grupo_751838" data-name="Grupo 751838" clip-path="url(#clip-path)">
              <g id="Grupo_751837" data-name="Grupo 751837" transform="translate(0.001)">
                <g id="Grupo_751836" data-name="Grupo 751836" clip-path="url(#clip-path-2)">
                  <rect id="Rect치ngulo_292084" data-name="Rect치ngulo 292084" width="13.493" height="13.493" transform="translate(0)" fill="#7ab8f6"/>
                </g>
              </g>
            </g>
          </g>
        </g>
        <g transform="matrix(1, 0, 0, 1, -9, -6)" filter="url(#Trazado_583444)">
          <path id="Trazado_583444-2" data-name="Trazado 583444" d="M253.074,101.243a17.012,17.012,0,1,1-17.012-17.012,17.012,17.012,0,0,1,17.012,17.012" transform="translate(-78.26 -65.84)" fill="#7ab8f6"/>
        </g>
        <g transform="matrix(1, 0, 0, 1, -9, -6)" filter="url(#Trazado_583445)">
          <path id="Trazado_583445-2" data-name="Trazado 583445" d="M240.407,94.91a10.679,10.679,0,1,1-10.679-10.679A10.679,10.679,0,0,1,240.407,94.91" transform="translate(-210.05 3.66)" fill="#7ab8f6"/>
        </g>
      </g>
    </g>
    <g id="Grupo_878017" data-name="Grupo 878017" transform="translate(337.001 17595.563)">
      <path id="Trazado_609648" data-name="Trazado 609648" d="M93.679,62.854a30.835,30.835,0,0,0-61.669-.332l-.01.011v.313A30.808,30.808,0,0,0,62.845,93.687c.1,0,.209,0,.311,0l.012-.011a30.817,30.817,0,0,0,30.51-30.825Zm0,0" transform="translate(-26.125 -26.131)" fill="#b6e1fd"/>
      <path id="Trazado_609649" data-name="Trazado 609649" d="M189,32.008c-.747,0-1.479.059-2.212.11a30.8,30.8,0,0,1-.25,61.461c.817.066,1.638.108,2.472.106.1,0,.209,0,.311,0l.012-.012A30.835,30.835,0,0,0,189,32.008Zm0,0" transform="translate(-152.295 -26.132)" fill="#4a89dc"/>
      <path id="Trazado_609650" data-name="Trazado 609650" d="M332.029,336.2l-8.092-8.092-.014-.015c.747-.617,1.469-1.278,2.172-1.984a27.611,27.611,0,0,0,1.984-2.157l8.093,8.092Zm0,0" transform="translate(-264.452 -264.478)" fill="#ccd1d9"/>
      <path id="Trazado_609651" data-name="Trazado 609651" d="M362.953,358.763l2.071-2.084L382.032,373.7a5.873,5.873,0,0,1-8.313,8.3l-17.008-17.008,2.087-2.073,4.141-4.155Zm0,0" transform="translate(-291.222 -291.196)" fill="#656d78"/>
      <path id="Trazado_609652" data-name="Trazado 609652" d="M386.061,358.77h-.014l-1.031,1.034,17.007,17.021a5.872,5.872,0,0,1,1.246,6.442,5.872,5.872,0,0,0,1.872-9.559l-17.008-17.023Zm0,0" transform="translate(-314.33 -291.202)" fill="#434a54"/>
      <path id="Trazado_609653" data-name="Trazado 609653" d="M280.812,192.033v23.045c-.073.074-.147.147-.222.217A30.808,30.808,0,0,1,272,221.363V192.031Zm0,0" transform="translate(-222.063 -156.776)" fill="#febbac"/>
      <path id="Trazado_609654" data-name="Trazado 609654" d="M115.243,192.031v29.331a30.855,30.855,0,0,1-35.03-6.066l-.222-.221V192.031h35.251Zm0,0" transform="translate(-65.306 -156.776)" fill="#ffecbe"/>
      <path id="Trazado_609655" data-name="Trazado 609655" d="M18.336,18.306A35.246,35.246,0,0,1,70.167,65.995a27.2,27.2,0,0,1-1.984,2.157c-.7.7-1.424,1.368-2.172,1.984A35.241,35.241,0,0,1,18.336,18.306ZM65.292,64.8a30.835,30.835,0,1,0-44.062,0v.014l.222.221a30.815,30.815,0,0,0,43.621,0l.22-.219Zm0,0" transform="translate(-6.543 -6.518)" fill="#e6e9ed"/>
      <path id="Trazado_609656" data-name="Trazado 609656" d="M56.312,88.622a32.31,32.31,0,1,1,22.849-9.463,32.106,32.106,0,0,1-22.849,9.463Zm0-61.684a29.374,29.374,0,1,0,20.773,8.6A29.189,29.189,0,0,0,56.312,26.938Zm0,0" transform="translate(-19.594 -19.594)" fill="#12263f"/>
      <path id="Trazado_609657" data-name="Trazado 609657" d="M36.718,73.434A36.718,36.718,0,0,1,10.754,10.753a36.718,36.718,0,0,1,51.93,51.926A36.484,36.484,0,0,1,36.718,73.434Zm0-70.5A33.781,33.781,0,0,0,12.831,60.6,33.782,33.782,0,0,0,60.606,12.832,33.558,33.558,0,0,0,36.718,2.937Zm0,0" transform="translate(0 0)" fill="#12263f"/>
      <path id="Trazado_609658" data-name="Trazado 609658" d="M325.54,349.628a1.467,1.467,0,0,1-1.038-.43l-8.09-8.091a1.469,1.469,0,0,1,2.077-2.077l8.09,8.091a1.469,1.469,0,0,1-1.038,2.507Zm0,0" transform="translate(-257.97 -276.435)" fill="#12263f"/>
      <path id="Trazado_609659" data-name="Trazado 609659" d="M348.126,326.965a1.463,1.463,0,0,1-1.038-.43l-8.1-8.1a1.469,1.469,0,0,1,2.077-2.077l8.1,8.1a1.469,1.469,0,0,1-1.038,2.507Zm0,0" transform="translate(-276.402 -257.925)" fill="#12263f"/>
      <path id="Trazado_609660" data-name="Trazado 609660" d="M350.2,359.966a1.469,1.469,0,0,1-1.038-2.507l8.308-8.31a1.469,1.469,0,0,1,2.077,2.077l-8.308,8.31A1.464,1.464,0,0,1,350.2,359.966Zm0,0" transform="translate(-284.709 -284.697)" fill="#12263f"/>
      <path id="Trazado_609661" data-name="Trazado 609661" d="M367.211,413.928a1.467,1.467,0,0,1-1.038-.43l-17.008-17.008a1.469,1.469,0,1,1,2.077-2.077L368.25,411.42a1.469,1.469,0,0,1-1.038,2.507Zm0,0" transform="translate(-284.709 -321.65)" fill="#12263f"/>
      <path id="Trazado_609662" data-name="Trazado 609662" d="M412.459,368.669a1.462,1.462,0,0,1-1.038-.43l-17.008-17.012a1.469,1.469,0,1,1,2.077-2.077L413.5,366.162a1.469,1.469,0,0,1-1.038,2.507Zm0,0" transform="translate(-321.649 -284.697)" fill="#12263f"/>
      <path id="Trazado_609663" data-name="Trazado 609663" d="M447,454.348a7.3,7.3,0,0,1-5.194-2.151,1.469,1.469,0,0,1,2.077-2.077,4.508,4.508,0,0,0,6.229,0,4.4,4.4,0,0,0,0-6.228,1.469,1.469,0,1,1,2.074-2.08A7.343,7.343,0,0,1,447,454.348Zm0,0" transform="translate(-360.342 -360.348)" fill="#12263f"/>
      <path id="Trazado_609664" data-name="Trazado 609664" d="M73.469,209.989A1.467,1.467,0,0,1,72,208.52V185.469a1.469,1.469,0,1,1,2.937,0V208.52A1.467,1.467,0,0,1,73.469,209.989Zm0,0" transform="translate(-58.781 -150.219)" fill="#12263f"/>
      <path id="Trazado_609665" data-name="Trazado 609665" d="M313.469,209.989A1.467,1.467,0,0,1,312,208.52V185.469a1.469,1.469,0,1,1,2.937,0V208.52A1.467,1.467,0,0,1,313.469,209.989Zm0,0" transform="translate(-254.719 -150.219)" fill="#12263f"/>
      <path id="Trazado_609666" data-name="Trazado 609666" d="M265.469,216.279A1.467,1.467,0,0,1,264,214.81V185.469a1.469,1.469,0,0,1,2.938,0V214.81A1.468,1.468,0,0,1,265.469,216.279Zm0,0" transform="translate(-215.532 -150.219)" fill="#12263f"/>
      <path id="Trazado_609667" data-name="Trazado 609667" d="M117.531,186.938H73.469a1.469,1.469,0,0,1,0-2.937h44.062a1.469,1.469,0,0,1,0,2.938Zm0,0" transform="translate(-58.781 -150.219)" fill="#12263f"/>
      <path id="Trazado_609668" data-name="Trazado 609668" d="M144.156,122.281a1.468,1.468,0,0,1-1.469-1.469,5.875,5.875,0,1,0-11.75,0,1.469,1.469,0,1,1-2.937,0,8.812,8.812,0,1,1,17.625,0A1.468,1.468,0,0,1,144.156,122.281Zm0,0" transform="translate(-104.5 -91.438)" fill="#12263f"/>
      <path id="Trazado_609669" data-name="Trazado 609669" d="M129.469,165.219A1.468,1.468,0,0,1,128,163.75V153.469a1.469,1.469,0,1,1,2.937,0V163.75A1.468,1.468,0,0,1,129.469,165.219Zm0,0" transform="translate(-104.5 -124.094)" fill="#12263f"/>
      <path id="Trazado_609670" data-name="Trazado 609670" d="M209.469,165.219A1.468,1.468,0,0,1,208,163.75V153.469a1.469,1.469,0,1,1,2.937,0V163.75A1.468,1.468,0,0,1,209.469,165.219Zm0,0" transform="translate(-169.813 -124.094)" fill="#12263f"/>
      <path id="Trazado_609671" data-name="Trazado 609671" d="M192.156,122.281a1.468,1.468,0,0,1-1.469-1.469,5.875,5.875,0,1,0-11.75,0,1.469,1.469,0,1,1-2.937,0,8.812,8.812,0,1,1,17.625,0A1.468,1.468,0,0,1,192.156,122.281Zm0,0" transform="translate(-143.688 -91.438)" fill="#12263f"/>
      <path id="Trazado_609672" data-name="Trazado 609672" d="M177.469,160.812A1.468,1.468,0,0,1,176,159.344v-5.875a1.469,1.469,0,1,1,2.937,0v5.875A1.468,1.468,0,0,1,177.469,160.812Zm0,0" transform="translate(-143.688 -124.094)" fill="#12263f"/>
      <path id="Trazado_609673" data-name="Trazado 609673" d="M257.469,160.812A1.468,1.468,0,0,1,256,159.344v-5.875a1.469,1.469,0,1,1,2.937,0v5.875A1.468,1.468,0,0,1,257.469,160.812Zm0,0" transform="translate(-209 -124.094)" fill="#12263f"/>
    </g>
  </g>
</svg>
