<svg xmlns="http://www.w3.org/2000/svg" width="715" height="402" viewBox="0 0 715 402">
  <g id="Grupo_1034305" data-name="Grupo 1034305" transform="translate(-11240.332 -1320.601)">
    <path id="concept-diversity-inclusion-equality-conceptual-photos" d="M19,0H696a19,19,0,0,1,19,19V383a19,19,0,0,1-19,19H19A19,19,0,0,1,0,383V19A19,19,0,0,1,19,0Z" transform="translate(11240.332 1320.601)" fill="#fff"/>
    <g id="Grupo_878881" data-name="Grupo 878881" transform="translate(11349.581 1287.412)">
      <g id="Grupo_878906" data-name="Grupo 878906">
        <g id="Grupo_878889" data-name="Grupo 878889">
          <g id="Grupo_878882" data-name="Grupo 878882">
            <g id="Grupo_878881-2" data-name="Grupo 878881">
              <path id="Trazado_621561" data-name="Trazado 621561" d="M385.849,292.947H308.934a5.614,5.614,0,0,1-5.609-5.608V240.677a6.763,6.763,0,0,1,6.755-6.755h55.181a1,1,0,0,1,0,2H310.08a4.76,4.76,0,0,0-4.755,4.755v46.662a3.613,3.613,0,0,0,3.609,3.608h76.915a3.612,3.612,0,0,0,3.607-3.608V241.9a5.981,5.981,0,0,0-5.973-5.974h-10.66a1,1,0,0,1,0-2h10.66a7.982,7.982,0,0,1,7.973,7.974v45.443A5.614,5.614,0,0,1,385.849,292.947Z" fill="#ffa000"/>
              <path id="Trazado_621562" data-name="Trazado 621562" d="M306.978,291.579a1,1,0,0,1-.665-1.747l31.421-27.954a1,1,0,1,1,1.331,1.494l-31.422,27.954A1,1,0,0,1,306.978,291.579Z" fill="#ffa000"/>
              <path id="Trazado_621563" data-name="Trazado 621563" d="M387.486,292.353a1,1,0,0,1-.663-.252l-31.377-27.814a1,1,0,1,1,1.326-1.5L388.149,290.6a1,1,0,0,1-.663,1.749Z" fill="#ffa000"/>
            </g>
            <path id="Trazado_621564" data-name="Trazado 621564" d="M347.4,269.587a4.99,4.99,0,0,1-2.965-.978l-39.786-29.237a1,1,0,1,1,1.184-1.611L345.619,267a3,3,0,0,0,3.553.007l38.936-28.387a1,1,0,0,1,1.178,1.616L350.35,268.621A5,5,0,0,1,347.4,269.587Z" fill="#ffa000"/>
          </g>
          <g id="Grupo_878883" data-name="Grupo 878883">
            <path id="Trazado_621565" data-name="Trazado 621565" d="M386.529,227.685a2.346,2.346,0,0,0,2.781.006L422.4,203.565a6.959,6.959,0,0,0-5.421-2.59H357.632a5.743,5.743,0,0,0-4.513,2.19.929.929,0,0,1,.115.054Z" fill="#2f7ded"/>
            <path id="Trazado_621566" data-name="Trazado 621566" d="M390.487,229.307a4.336,4.336,0,0,1-5.141-.01l-5.054-3.713L354.762,248.3c-.019.017-.044.023-.063.038a4.594,4.594,0,0,0,1.786.36h62.861a4.622,4.622,0,0,0,1.033-.126l-25.413-22.527Z" fill="#2f7ded"/>
            <path id="Trazado_621567" data-name="Trazado 621567" d="M378.644,224.372l-26.472-19.453a5.742,5.742,0,0,0-.295,1.811v37.357a4.583,4.583,0,0,0,1.28,3.174.972.972,0,0,1,.275-.458Z" fill="#2f7ded"/>
            <path id="Trazado_621568" data-name="Trazado 621568" d="M422.132,247.449a.931.931,0,0,1,.132.176,4.575,4.575,0,0,0,1.69-3.538V207.948a6.944,6.944,0,0,0-.527-2.656l-26.806,19.544Z" fill="#2f7ded"/>
          </g>
          <g id="Grupo_878885" data-name="Grupo 878885" opacity="0.69">
            <g id="Grupo_878884" data-name="Grupo 878884">
              <path id="Trazado_621569" data-name="Trazado 621569" d="M424.065,341.49h-52.2a5.614,5.614,0,0,1-5.607-5.608v-30.3a6.762,6.762,0,0,1,6.755-6.755H421.7a7.982,7.982,0,0,1,7.974,7.973v29.082A5.614,5.614,0,0,1,424.065,341.49Zm-51.056-40.663a4.76,4.76,0,0,0-4.755,4.755v30.3a3.612,3.612,0,0,0,3.607,3.608h52.2a3.612,3.612,0,0,0,3.607-3.608V306.8a5.981,5.981,0,0,0-5.974-5.973Z" fill="#fff"/>
              <rect id="Rectángulo_327471" data-name="Rectángulo 327471" width="29.99" height="2" transform="matrix(0.747, -0.665, 0.665, 0.747, 368.483, 338.771)" fill="#fff"/>
              <rect id="Rectángulo_327472" data-name="Rectángulo 327472" width="1.999" height="29.899" transform="matrix(0.663, -0.748, 0.748, 0.663, 403.517, 320.981)" fill="#fff"/>
            </g>
            <path id="Trazado_621570" data-name="Trazado 621570" d="M397.97,324.832a3.85,3.85,0,0,1-2.285-.752l-28.37-20.849,1.183-1.611,28.371,20.849a1.858,1.858,0,0,0,2.2,0l29.392-21.429,1.178,1.615-29.393,21.429A3.847,3.847,0,0,1,397.97,324.832Z" fill="#fff"/>
          </g>
          <g id="Grupo_878888" data-name="Grupo 878888">
            <circle id="Elipse_7000" data-name="Elipse 7000" cx="12.562" cy="12.562" r="12.562" transform="translate(411.008 188.621)" fill="#ffa000"/>
            <g id="Grupo_878887" data-name="Grupo 878887">
              <g id="Grupo_878886" data-name="Grupo 878886">
                <path id="Trazado_621571" data-name="Trazado 621571" d="M420.789,206.037h-1.377v-8.314l-1.4.857v-1.424l1.4-.931h1.377Z" fill="#fff"/>
                <path id="Trazado_621572" data-name="Trazado 621572" d="M423.728,205.4a2.824,2.824,0,0,1-.712-2.051v-4.46a2.816,2.816,0,0,1,.715-2.055,3.348,3.348,0,0,1,4.174,0,2.826,2.826,0,0,1,.712,2.059v4.46a2.82,2.82,0,0,1-.716,2.055,3.333,3.333,0,0,1-4.173,0Zm3.164-.955a1.569,1.569,0,0,0,.348-1.1v-4.46a1.584,1.584,0,0,0-.344-1.1,1.72,1.72,0,0,0-2.159,0,1.579,1.579,0,0,0-.345,1.1v4.46a1.569,1.569,0,0,0,.348,1.1,1.71,1.71,0,0,0,2.152,0Z" fill="#fff"/>
              </g>
            </g>
          </g>
        </g>
        <g id="Grupo_878900" data-name="Grupo 878900">
          <g id="Grupo_878892" data-name="Grupo 878892">
            <g id="Grupo_878890" data-name="Grupo 878890">
              <path id="Trazado_621573" data-name="Trazado 621573" d="M144.779,197.676a2.568,2.568,0,0,1-1.852-.791l-8.466-8.788a3.015,3.015,0,0,0-2.159-.919l-83.177-.1a8.384,8.384,0,0,1-8.374-8.375V147.168a8.384,8.384,0,0,1,8.375-8.375h88.7a9.547,9.547,0,0,1,9.536,9.536V195.1a2.567,2.567,0,0,1-1.614,2.391A2.6,2.6,0,0,1,144.779,197.676ZM49.126,140.793a6.382,6.382,0,0,0-6.375,6.375v31.539a6.382,6.382,0,0,0,6.375,6.375l83.177.1a5.021,5.021,0,0,1,3.6,1.531l8.465,8.788a.58.58,0,0,0,1-.4V148.329a7.545,7.545,0,0,0-7.536-7.536Z" fill="#2f7ded"/>
              <path id="Trazado_621574" data-name="Trazado 621574" d="M124.024,157.441h-21.31a1,1,0,0,1,0-2h21.31a1,1,0,1,1,0,2Z" fill="#ffa000"/>
              <path id="Trazado_621575" data-name="Trazado 621575" d="M89.737,157.441H57.114a1,1,0,0,1,0-2H89.737a1,1,0,0,1,0,2Z" fill="#ffa000"/>
              <path id="Trazado_621576" data-name="Trazado 621576" d="M124.024,165.035H70.35a1,1,0,0,1,0-2h53.674a1,1,0,0,1,0,2Z" fill="#ffa000"/>
              <path id="Trazado_621577" data-name="Trazado 621577" d="M124.024,172.628H88.46a1,1,0,0,1,0-2h35.564a1,1,0,1,1,0,2Z" fill="#ffa000"/>
            </g>
            <g id="Grupo_878891" data-name="Grupo 878891">
              <path id="Trazado_621578" data-name="Trazado 621578" d="M133.348,143.887h-28.9a3.393,3.393,0,0,0-2.445,1.04l-7.189,7.462a1.34,1.34,0,0,1-2.306-.93V111.748a7.248,7.248,0,0,1,7.248-7.248H134.5a5.9,5.9,0,0,1,5.9,5.9v26.441A7.047,7.047,0,0,1,133.348,143.887Z" fill="#ffa000"/>
              <path id="Trazado_621579" data-name="Trazado 621579" d="M107.756,125.068a2.474,2.474,0,1,1-2.474-2.474A2.474,2.474,0,0,1,107.756,125.068Z" fill="#fff"/>
              <path id="Trazado_621580" data-name="Trazado 621580" d="M119.352,125.068a2.474,2.474,0,1,1-2.474-2.474A2.473,2.473,0,0,1,119.352,125.068Z" fill="#fff"/>
              <circle id="Elipse_7001" data-name="Elipse 7001" cx="2.474" cy="2.474" r="2.474" transform="translate(126.272 122.594)" fill="#fff"/>
            </g>
          </g>
          <g id="Grupo_878896" data-name="Grupo 878896">
            <circle id="Elipse_7002" data-name="Elipse 7002" cx="31.864" cy="31.864" r="31.864" transform="translate(62.489 243.454) rotate(-63.379)" fill="#2f7ded"/>
            <g id="Grupo_878895" data-name="Grupo 878895">
              <g id="Grupo_878894" data-name="Grupo 878894">
                <g id="Grupo_878893" data-name="Grupo 878893">
                  <path id="Trazado_621581" data-name="Trazado 621581" d="M105.254,246.732a6.92,6.92,0,0,1-6.879-6.124l-.13-1.115h14.017l-.13,1.115A6.921,6.921,0,0,1,105.254,246.732Zm-4.63-5.239a4.928,4.928,0,0,0,9.259,0Z" fill="#fff"/>
                  <path id="Trazado_621582" data-name="Trazado 621582" d="M117.56,234.876H92.948v-11.3a11.829,11.829,0,0,1,11.815-11.816h.981a11.83,11.83,0,0,1,11.816,11.816Zm-22.612-2H115.56v-9.3a9.828,9.828,0,0,0-9.816-9.816h-.981a9.827,9.827,0,0,0-9.815,9.816Z" fill="#fff"/>
                  <path id="Trazado_621583" data-name="Trazado 621583" d="M116.565,241.493H93.942a4.171,4.171,0,0,1-4.166-4.165v-.287a4.17,4.17,0,0,1,4.166-4.165h22.623a4.17,4.17,0,0,1,4.165,4.165v.287A4.17,4.17,0,0,1,116.565,241.493Zm-22.617-6.617a2.169,2.169,0,0,0-2.172,2.165v.287a2.168,2.168,0,0,0,2.166,2.165h22.623a2.167,2.167,0,0,0,2.165-2.165v-.287a2.167,2.167,0,0,0-2.165-2.165Z" fill="#fff"/>
                </g>
              </g>
            </g>
          </g>
          <g id="Grupo_878899" data-name="Grupo 878899">
            <circle id="Elipse_7003" data-name="Elipse 7003" cx="20.007" cy="20.007" r="20.007" transform="translate(124.329 70.351) rotate(-45)" fill="#2f7ded"/>
            <g id="Grupo_878898" data-name="Grupo 878898">
              <g id="Grupo_878897" data-name="Grupo 878897">
                <path id="Trazado_621584" data-name="Trazado 621584" d="M151.513,62.434h2.221V74.206h-2.221Zm0,13.613h2.221v2.221h-2.221Z" fill="#fff"/>
              </g>
            </g>
          </g>
        </g>
        <g id="Grupo_878905" data-name="Grupo 878905">
          <path id="Trazado_621585" data-name="Trazado 621585" d="M422.581,114.994h-104.9a10.094,10.094,0,0,0-10.094,10.094V180.4a1.867,1.867,0,0,0,3.212,1.295L320.811,171.3a4.725,4.725,0,0,1,3.4-1.448l98.365-.115a8.721,8.721,0,0,0,8.721-8.721v-37.3A8.721,8.721,0,0,0,422.581,114.994Z" fill="#ffa000"/>
          <path id="Trazado_621586" data-name="Trazado 621586" d="M359.207,135.681h-25.2a1,1,0,0,1,0-2h25.2a1,1,0,0,1,0,2Z" fill="#fff"/>
          <path id="Trazado_621587" data-name="Trazado 621587" d="M413.134,135.681H374.553a1,1,0,0,1,0-2h38.581a1,1,0,0,1,0,2Z" fill="#fff"/>
          <path id="Trazado_621588" data-name="Trazado 621588" d="M397.481,144.662H334.005a1,1,0,0,1,0-2h63.476a1,1,0,0,1,0,2Z" fill="#fff"/>
          <path id="Trazado_621589" data-name="Trazado 621589" d="M376.064,153.642H334.005a1,1,0,0,1,0-2h42.059a1,1,0,0,1,0,2Z" fill="#fff"/>
          <g id="Grupo_878901" data-name="Grupo 878901">
            <path id="Trazado_621590" data-name="Trazado 621590" d="M289.211,117.088h29.227a3.433,3.433,0,0,1,2.473,1.052l7.271,7.548a1.356,1.356,0,0,0,2.332-.941V84.582a7.33,7.33,0,0,0-7.33-7.33H288.049a5.965,5.965,0,0,0-5.966,5.965V109.96A7.128,7.128,0,0,0,289.211,117.088Z" fill="#2f7ded"/>
            <path id="Trazado_621591" data-name="Trazado 621591" d="M315.1,98.055a2.5,2.5,0,1,0,2.5-2.5A2.5,2.5,0,0,0,315.1,98.055Z" fill="#fff"/>
            <path id="Trazado_621592" data-name="Trazado 621592" d="M303.367,98.055a2.5,2.5,0,1,0,2.5-2.5A2.5,2.5,0,0,0,303.367,98.055Z" fill="#fff"/>
            <path id="Trazado_621593" data-name="Trazado 621593" d="M291.363,98.055a2.5,2.5,0,1,0,2.5-2.5A2.5,2.5,0,0,0,291.363,98.055Z" fill="#fff"/>
          </g>
          <g id="Grupo_878904" data-name="Grupo 878904">
            <circle id="Elipse_7004" data-name="Elipse 7004" cx="15.534" cy="15.534" r="15.534" transform="translate(405.087 122.146) rotate(-45)" fill="#2f7ded"/>
            <g id="Grupo_878903" data-name="Grupo 878903">
              <g id="Grupo_878902" data-name="Grupo 878902">
                <path id="Trazado_621594" data-name="Trazado 621594" d="M428.833,129.4H426.7V116.5l-2.168,1.331v-2.211l2.168-1.446h2.138Z" fill="#fff"/>
              </g>
            </g>
          </g>
        </g>
      </g>
      <g id="Grupo_878907" data-name="Grupo 878907" opacity="0.61">
        <path id="Trazado_621595" data-name="Trazado 621595" d="M292.462,347.6H266.287a1,1,0,0,1,0-2h26.175a1,1,0,0,1,0,2Z" fill="#fff"/>
        <path id="Trazado_621596" data-name="Trazado 621596" d="M348.471,347.6H308.4a1,1,0,0,1,0-2h40.071a1,1,0,0,1,0,2Z" fill="#fff"/>
        <path id="Trazado_621597" data-name="Trazado 621597" d="M332.215,356.927H266.287a1,1,0,0,1,0-2h65.928a1,1,0,0,1,0,2Z" fill="#fff"/>
        <path id="Trazado_621598" data-name="Trazado 621598" d="M309.969,366.254H266.287a1,1,0,0,1,0-2h43.682a1,1,0,0,1,0,2Z" fill="#fff"/>
        <path id="Trazado_621599" data-name="Trazado 621599" d="M123.76,332.843H56.114a1,1,0,0,1,0-2H123.76a1,1,0,0,1,0,2Z" fill="#fff"/>
        <path id="Trazado_621600" data-name="Trazado 621600" d="M123.76,311.94H56.114a1,1,0,0,1,0-2H123.76a1,1,0,1,1,0,2Z" fill="#fff"/>
        <path id="Trazado_621601" data-name="Trazado 621601" d="M123.76,322.392H87.29a1,1,0,0,1,0-2h36.47a1,1,0,0,1,0,2Z" fill="#fff"/>
        <path id="Trazado_621602" data-name="Trazado 621602" d="M123.76,300.856H87.29a1,1,0,0,1,0-2h36.47a1,1,0,0,1,0,2Z" fill="#fff"/>
        <path id="Trazado_621603" data-name="Trazado 621603" d="M123.76,290.881h-24.6a1,1,0,0,1,0-2h24.6a1,1,0,0,1,0,2Z" fill="#fff"/>
      </g>
      <g id="Grupo_878932" data-name="Grupo 878932">
        <path id="Trazado_621604" data-name="Trazado 621604" d="M273.175,139.664c-.029-.013-.106-.014-.087-.039,12.252-16.337-3.083-38.026-16.441-39.366a41.561,41.561,0,0,0-18.078-13.005,40.839,40.839,0,0,0-11.985-2.472,18.42,18.42,0,1,0-32.108,12.43,41.022,41.022,0,0,0-7.486,10.428c-.466.929-.881,1.868-1.271,2.813a28.105,28.105,0,0,0-16.215,51.69c-5.085,2.682-8.3,6.375-8.637,10.65-.39,4.976,3.2,9.779,9.3,13.494a18.6,18.6,0,0,0-1.966,8.3c0,11.451,10.523,20.734,23.5,20.734,8.774,0,16.419-4.244,20.457-10.529a63.381,63.381,0,0,0,9.25,4.96c17.295,7.527,34.492,6.331,38.409-2.669a11.21,11.21,0,0,0,.093-8.072,22.069,22.069,0,0,0,3.059-.728C297.915,187.125,302.629,153,273.175,139.664Z" fill="#233863"/>
        <g id="Grupo_878914" data-name="Grupo 878914">
          <g id="Grupo_878911" data-name="Grupo 878911">
            <g id="Grupo_878910" data-name="Grupo 878910">
              <g id="Grupo_878908" data-name="Grupo 878908">
                <path id="Trazado_621605" data-name="Trazado 621605" d="M279.753,288.766l-2.337-6.6,17.533-10,.552-.315v-1.713c0-32.22-20.705-58.34-46.246-58.34H222.141l.35.646-47.818.386c-11.922.1-22.028,8.66-25.963,20.635l-33.682,75.181,4.848.593,27.624,3.38.624,76.422,118.434.03,3.91-62.363,4.452-7.273,2.146-3.506A32.107,32.107,0,0,0,279.753,288.766Z" fill="#2f7ded"/>
              </g>
              <path id="Trazado_621606" data-name="Trazado 621606" d="M180.708,317.031l-28.049-3.27a.5.5,0,0,1-.439-.555.509.509,0,0,1,.554-.439l27.162,3.167,7.712-33.283a.5.5,0,0,1,.975.227Z" fill="#374081"/>
              <g id="Grupo_878909" data-name="Grupo 878909">
                <path id="Trazado_621607" data-name="Trazado 621607" d="M209.983,245.434a29.7,29.7,0,0,1-29.661-29.662v-3.347a.724.724,0,0,1,1.449,0v3.347a28.212,28.212,0,1,0,56.423,0v-3.347a.725.725,0,0,1,1.45,0v3.347A29.7,29.7,0,0,1,209.983,245.434Z" fill="#233863"/>
                <path id="Trazado_621608" data-name="Trazado 621608" d="M190.183,229.292a.723.723,0,0,1-.6-.319,24.486,24.486,0,0,1-4.219-13.784v-2.764a.725.725,0,0,1,1.449,0v2.764a23.046,23.046,0,0,0,3.97,12.972.724.724,0,0,1-.194,1.006A.716.716,0,0,1,190.183,229.292Z" fill="#233863"/>
                <path id="Trazado_621609" data-name="Trazado 621609" d="M209.983,239.807a24.346,24.346,0,0,1-15.339-5.362.724.724,0,1,1,.9-1.132,23.178,23.178,0,0,0,28.859.011.724.724,0,0,1,.9,1.132A24.353,24.353,0,0,1,209.983,239.807Z" fill="#233863"/>
                <path id="Trazado_621610" data-name="Trazado 621610" d="M230.774,227.7a.725.725,0,0,1-.629-1.083,23.181,23.181,0,0,0,3.007-11.425v-2.764a.725.725,0,0,1,1.449,0v2.764a24.623,24.623,0,0,1-3.2,12.141A.723.723,0,0,1,230.774,227.7Z" fill="#233863"/>
              </g>
            </g>
          </g>
          <g id="Grupo_878913" data-name="Grupo 878913">
            <g id="Grupo_878912" data-name="Grupo 878912">
              <path id="Trazado_621611" data-name="Trazado 621611" d="M280.506,409.29,261.825,381.2c-4.26-5.463-6.711-12.085-11.676-13.436l-3.346-.853.021-.053-83.786-20.82,6.912-30.663-50.074-6.127-15.465,51.005a28.883,28.883,0,0,0-.022,12.913,28.572,28.572,0,0,0,27.577,23.3l88.341-.221c9.175,9.607,37.863,29.277,37.863,29.277a3.247,3.247,0,0,0,5.232-3.433c.147-.027.235-.045.235-.045.092.026.168.037.258.061l1.225,1.189a3.613,3.613,0,0,0,5.1-.076l.088-.09a3.574,3.574,0,0,0,.991-2.28l.026.026a3.613,3.613,0,0,0,5.1.058l.091-.088a3.615,3.615,0,0,0,.057-5.1l-.346-.353c-.047-.13-.1-.256-.148-.379a3.606,3.606,0,0,0,4.288-.543l.09-.088A3.615,3.615,0,0,0,280.506,409.29Z" fill="#ffba94"/>
              <path id="Trazado_621612" data-name="Trazado 621612" d="M276.35,415.553a.5.5,0,0,1-.358-.151l-11.111-11.364a.5.5,0,0,1,.715-.7L276.707,414.7a.5.5,0,0,1-.357.85Z" fill="#fb8e77"/>
              <path id="Trazado_621613" data-name="Trazado 621613" d="M270.448,420.009a.494.494,0,0,1-.357-.151l-11.112-11.364a.5.5,0,1,1,.715-.7l11.112,11.364a.5.5,0,0,1-.358.85Z" fill="#fb8e77"/>
              <path id="Trazado_621614" data-name="Trazado 621614" d="M263.432,422.333a.5.5,0,0,1-.347-.14l-11.449-11.024a.5.5,0,0,1,.693-.721l11.449,11.025a.5.5,0,0,1-.346.86Z" fill="#fb8e77"/>
            </g>
            <path id="Trazado_621615" data-name="Trazado 621615" d="M171.427,348.621a.515.515,0,0,1-.154-.024l-25.787-8.287a.5.5,0,0,1,.307-.952l25.787,8.288a.5.5,0,0,1-.153.975Z" fill="#fb8e77"/>
          </g>
        </g>
        <g id="Grupo_878924" data-name="Grupo 878924">
          <g id="Grupo_878915" data-name="Grupo 878915">
            <path id="Trazado_621616" data-name="Trazado 621616" d="M234.014,125.731c-4.923.74-9.592,5.29-13.334,10.293a16.526,16.526,0,0,1-1.891,2.121,15.333,15.333,0,0,1-17.941,2.093l-1.378-.245a11.289,11.289,0,0,0-13.1,9.134l-.037.21a11.29,11.29,0,0,0,9.134,13.1l2.776.494-.731,4.1a29.883,29.883,0,0,0-.391,7.323l-6.45,36.2a19.272,19.272,0,1,0,37.947,6.761l2.576-14.457a29.813,29.813,0,0,0,29.443-24.579l.494-2.773h0l6.122-34.366C260.369,140.284,235.982,136.519,234.014,125.731Z" fill="#ffba94"/>
          </g>
          <path id="Trazado_621617" data-name="Trazado 621617" d="M226.558,199.623l-.553-.1A29.817,29.817,0,0,1,201.451,168.8a6.326,6.326,0,0,0-3.2-5.87l-.731,4.1a29.749,29.749,0,0,0,6.534,24.413l24.29,27.656,2.848-15.986-.6-.258a29.819,29.819,0,0,0,30.052-24.579l.495-2.774A29.813,29.813,0,0,1,226.558,199.623Z" fill="#fb8e77" opacity="0.46"/>
          <path id="Trazado_621618" data-name="Trazado 621618" d="M231.19,191.817a.5.5,0,0,1-.345-.862c.028-.027,2.866-2.67,6.2-.914a.5.5,0,1,1-.465.884,4.519,4.519,0,0,0-5.051.756A.5.5,0,0,1,231.19,191.817Z" fill="#fb8e77"/>
          <g id="Grupo_878923" data-name="Grupo 878923">
            <path id="Trazado_621619" data-name="Trazado 621619" d="M239.265,158.9a1.863,1.863,0,1,1-1.508-2.161A1.863,1.863,0,0,1,239.265,158.9Z" fill="#233863"/>
            <path id="Trazado_621620" data-name="Trazado 621620" d="M261.313,162.833a1.863,1.863,0,1,1-1.508-2.161A1.863,1.863,0,0,1,261.313,162.833Z" fill="#233863"/>
            <path id="Trazado_621621" data-name="Trazado 621621" d="M243.4,173a10.347,10.347,0,0,1-3.226-.574.5.5,0,1,1,.312-.95c4.2,1.384,6-.343,6.578-1.15a.693.693,0,0,0,.121-.511l-2.147-14.091a.5.5,0,0,1,.988-.15l2.147,14.091a1.689,1.689,0,0,1-.294,1.242A5.259,5.259,0,0,1,243.4,173Z" fill="#fb8e77"/>
            <path id="Rectángulo_327473" data-name="Rectángulo 327473" d="M0,0H16.943a0,0,0,0,1,0,0V8.085a2.485,2.485,0,0,1-2.485,2.485H10A10,10,0,0,1,0,.57V0A0,0,0,0,1,0,0Z" transform="translate(221.998 167.429) rotate(30.001)" fill="#fff"/>
            <path id="Trazado_621622" data-name="Trazado 621622" d="M231.544,167.8a11.691,11.691,0,0,1-11.678-11.665h0a11.692,11.692,0,0,1,11.666-11.69h.013a11.678,11.678,0,0,1,.012,23.355Zm-9.678-11.667a9.69,9.69,0,0,0,9.678,9.667h.011a9.678,9.678,0,0,0-.01-19.355h-.011a9.69,9.69,0,0,0-9.668,9.688Z" fill="#fff"/>
            <path id="Trazado_621623" data-name="Trazado 621623" d="M258.1,172.972a11.693,11.693,0,0,1-11.678-11.666h0a11.69,11.69,0,0,1,11.665-11.689h.013a11.678,11.678,0,0,1,.011,23.355ZM248.419,161.3a9.69,9.69,0,0,0,9.678,9.668h.009a9.678,9.678,0,0,0-.009-19.355h-.011a9.688,9.688,0,0,0-9.667,9.687Z" fill="#fff"/>
            <path id="Trazado_621624" data-name="Trazado 621624" d="M247.115,159.995c-.032,0-.064,0-.1,0l-4.16-.4a1,1,0,0,1,.194-1.99l4.159.4a1,1,0,0,1-.1,2Z" fill="#fff"/>
            <g id="Grupo_878922" data-name="Grupo 878922">
              <g id="Grupo_878921" data-name="Grupo 878921">
                <g id="Grupo_878920" data-name="Grupo 878920">
                  <g id="Grupo_878917" data-name="Grupo 878917">
                    <g id="Grupo_878916" data-name="Grupo 878916">
                      <path id="Trazado_621625" data-name="Trazado 621625" d="M230.007,140.565a5.338,5.338,0,0,0,2.22.041c.785-.089,1.576-.159,2.266-.2s1.485-.053,2.275-.048a5.3,5.3,0,0,0,2.2-.281c.579-.282.782-1.013.032-1.858a6.121,6.121,0,0,0-4.765-1.548,5.944,5.944,0,0,0-4.514,2.048C229.093,139.643,229.394,140.346,230.007,140.565Z" fill="#233863"/>
                    </g>
                  </g>
                  <g id="Grupo_878919" data-name="Grupo 878919">
                    <g id="Grupo_878918" data-name="Grupo 878918">
                      <path id="Trazado_621626" data-name="Trazado 621626" d="M264.45,146.431a5.346,5.346,0,0,1-2.087-.758c-.7-.366-1.413-.715-2.043-1s-1.367-.584-2.107-.863a5.313,5.313,0,0,1-1.95-1.052c-.439-.471-.365-1.226.637-1.745a6.124,6.124,0,0,1,5,.267,5.942,5.942,0,0,1,3.477,3.533C265.635,145.9,265.1,146.448,264.45,146.431Z" fill="#233863"/>
                    </g>
                  </g>
                </g>
              </g>
            </g>
            <path id="Trazado_621627" data-name="Trazado 621627" d="M193.367,154.436a.5.5,0,0,1-.124-.984l3.564-.916-1.618-5.973a.5.5,0,1,1,.964-.262l1.884,6.951-4.546,1.168A.48.48,0,0,1,193.367,154.436Z" fill="#fb8e77"/>
          </g>
        </g>
        <g id="Grupo_878931" data-name="Grupo 878931">
          <g id="Grupo_878926" data-name="Grupo 878926">
            <g id="Grupo_878925" data-name="Grupo 878925">
              <path id="Rectángulo_327474" data-name="Rectángulo 327474" d="M4.883,0H32.439a4.884,4.884,0,0,1,4.884,4.884V57.842a4.884,4.884,0,0,1-4.884,4.884H4.883A4.883,4.883,0,0,1,0,57.842V4.883A4.883,4.883,0,0,1,4.883,0Z" transform="translate(288.078 191.223)" fill="#233863"/>
            </g>
          </g>
          <g id="Grupo_878930" data-name="Grupo 878930">
            <g id="Grupo_878929" data-name="Grupo 878929">
              <path id="Trazado_621628" data-name="Trazado 621628" d="M344.119,300.188,341.054,244.6l.727-6.745a36.064,36.064,0,0,0-7.669-26.3c-.562-.707-1.116-1.41-1.668-2.076v-9.071a3.585,3.585,0,0,0-3.585-3.585,3.458,3.458,0,0,0-3.458,3.457v3.444a11.866,11.866,0,0,1-11.849,11.865L303.2,215.6l-15.487-1.322a3.665,3.665,0,0,0-1.644,7.069c-.136.041-.274.085-.413.133l-.43-.037a3.687,3.687,0,0,0-3.975,3.35h0a3.686,3.686,0,0,0,3.349,3.975h.009a3.639,3.639,0,0,0-1.174,2.279,3.686,3.686,0,0,0,3.244,4.061l1.626.182c.076.054.145.107.223.161,0,0,.042.08.115.211a3.254,3.254,0,0,0,.678,6.235s11.388,3.751,16.306,5.137L301.466,268.6l-.888,4.6-5.629-1.025-17.533,10,2.337,6.6a32.107,32.107,0,0,1-2.687,27.17l-2.146,3.506,8.565,3.518c10.813,4.441,26.457,9.06,38.044,6.31a34.519,34.519,0,0,0,8.939-3.247C338.809,321.668,344.611,311.724,344.119,300.188Z" fill="#ffba94"/>
              <g id="Grupo_878927" data-name="Grupo 878927">
                <path id="Trazado_621629" data-name="Trazado 621629" d="M301.716,223.018a.317.317,0,0,1-.044,0L285.8,221.661a.5.5,0,0,1-.455-.541.508.508,0,0,1,.541-.455l15.872,1.355a.5.5,0,0,1-.042,1Z" fill="#fb8e77"/>
                <path id="Trazado_621630" data-name="Trazado 621630" d="M302.028,230.423l-.044,0-15.872-1.356a.5.5,0,0,1,.086-1l15.872,1.356a.5.5,0,0,1-.042,1Z" fill="#fb8e77"/>
                <path id="Trazado_621631" data-name="Trazado 621631" d="M304.653,237.811a.564.564,0,0,1-.058,0l-15.824-1.834a.5.5,0,0,1-.44-.555.506.506,0,0,1,.555-.439l15.824,1.835a.5.5,0,0,1-.057,1Z" fill="#fb8e77"/>
              </g>
              <g id="Grupo_878928" data-name="Grupo 878928">
                <path id="Trazado_621632" data-name="Trazado 621632" d="M294.092,299.84a.463.463,0,0,1-.115-.014.5.5,0,0,1-.372-.6l7.936-33.651a.494.494,0,0,1,.6-.371.5.5,0,0,1,.371.6l-7.936,33.65A.5.5,0,0,1,294.092,299.84Z" fill="#fb8e77"/>
              </g>
            </g>
            <path id="Trazado_621633" data-name="Trazado 621633" d="M277.179,282.882,267.07,259.489a.5.5,0,1,1,.918-.4l9.665,22.367,17.6-10.036a.5.5,0,0,1,.5.869Z" fill="#374081"/>
          </g>
        </g>
      </g>
    </g>
  </g>
</svg>
