<svg xmlns="http://www.w3.org/2000/svg" xmlns:xlink="http://www.w3.org/1999/xlink" width="715" height="404.001" viewBox="0 0 715 404.001">
  <defs>
    <linearGradient id="linear-gradient" x1="0.91" y1="1.068" x2="-0.071" y2="-0.251" gradientUnits="objectBoundingBox">
      <stop offset="0" stop-color="#09005d"/>
      <stop offset="1" stop-color="#1a0f91"/>
    </linearGradient>
    <linearGradient id="linear-gradient-2" x1="0.535" y1="-6.009" x2="0.505" y2="-0.445" xlink:href="#linear-gradient"/>
    <linearGradient id="linear-gradient-3" x1="-16.676" y1="-0.484" x2="-19.511" y2="6.012" xlink:href="#linear-gradient"/>
    <linearGradient id="linear-gradient-4" x1="-69.952" y1="0.5" x2="-68.952" y2="0.5" gradientUnits="objectBoundingBox">
      <stop offset="0" stop-color="#febbba"/>
      <stop offset="1" stop-color="#ff928e"/>
    </linearGradient>
    <linearGradient id="linear-gradient-5" x1="-40.523" y1="-2.223" x2="-47.54" y2="5.384" xlink:href="#linear-gradient"/>
    <linearGradient id="linear-gradient-6" x1="-81.018" y1="0.5" x2="-80.018" y2="0.5" xlink:href="#linear-gradient-4"/>
    <linearGradient id="linear-gradient-7" x1="-32.607" y1="3.056" x2="-31.582" y2="3.056" xlink:href="#linear-gradient-4"/>
    <linearGradient id="linear-gradient-8" x1="-70.267" y1="-29.388" x2="-70.657" y2="-30.478" xlink:href="#linear-gradient-4"/>
    <linearGradient id="linear-gradient-9" x1="-221.283" y1="-112.932" x2="-222.382" y2="-116.66" xlink:href="#linear-gradient-4"/>
    <linearGradient id="linear-gradient-10" x1="3.755" y1="0.889" x2="3.774" y2="-0.278" xlink:href="#linear-gradient-4"/>
    <linearGradient id="linear-gradient-11" x1="7.074" y1="0.909" x2="7.097" y2="-0.307" xlink:href="#linear-gradient-4"/>
  </defs>
  <g id="Grupo_1034307" data-name="Grupo 1034307" transform="translate(-11240.332 -2568.601)">
    <path id="concept-diversity-inclusion-equality-conceptual-photos" d="M19,0H696a19,19,0,0,1,19,19V383a19,19,0,0,1-19,19H19A19,19,0,0,1,0,383V19A19,19,0,0,1,19,0Z" transform="translate(11240.332 2568.601)" fill="#fff"/>
    <g id="Grupo_879032" data-name="Grupo 879032" transform="translate(10978.925 2003.56)">
      <g id="Grupo_879012" data-name="Grupo 879012" transform="translate(416.573 678.398)">
        <path id="Trazado_621796" data-name="Trazado 621796" d="M520.131,1391.851a6.64,6.64,0,0,0,6.623,6.617H884.928a6.64,6.64,0,0,0,6.624-6.617l2.98-205.832c0-3.639-4.288-10.744-12.146-10.21l-350.046-9.057a16.691,16.691,0,0,0-17.127,17.071Z" transform="translate(-501.334 -1166.745)" fill="url(#linear-gradient)"/>
        <path id="Trazado_621797" data-name="Trazado 621797" d="M566.194,1433.453a6.285,6.285,0,0,0,6.266,6.266H915.814a6.285,6.285,0,0,0,6.266-6.266l2.812-186.856c-.331-11.245-10.19-15.286-16.166-15.047l-335.487-9a11.731,11.731,0,0,0-12.035,12Z" transform="translate(-540.857 -1214.696)" fill="#2b95f9"/>
        <g id="Grupo_879011" data-name="Grupo 879011" transform="translate(256.61 17.541)">
          <path id="Trazado_621798" data-name="Trazado 621798" d="M3094.764,1987.051h-.014a.918.918,0,0,1-.9-.932l.222-15.154a.918.918,0,0,1,.918-.9H3095a.918.918,0,0,1,.9.932l-.222,15.154A.918.918,0,0,1,3094.764,1987.051Z" transform="translate(-2973.86 -1874.604)" fill="#91b3fa"/>
          <path id="Trazado_621799" data-name="Trazado 621799" d="M2362.3,1366.761h-.014a.919.919,0,0,1-.9-.932l.852-58.039a10.9,10.9,0,0,0-3.111-8.162c-3.823-3.663-9.893-3.476-10.149-3.464l-107.229-2.875a.917.917,0,0,1-.893-.942.879.879,0,0,1,.942-.893l107.166,2.875c.667-.039,7.13-.151,11.434,3.973a12.675,12.675,0,0,1,3.677,9.5l-.853,58.057A.919.919,0,0,1,2362.3,1366.761Z" transform="translate(-2240.854 -1291.449)" fill="#91b3fa"/>
        </g>
        <rect id="Rect치ngulo_327501" data-name="Rect치ngulo 327501" width="404.668" height="18.085" rx="5.654" transform="translate(404.668 248.81) rotate(180)" fill="url(#linear-gradient-2)"/>
      </g>
      <g id="Grupo_879017" data-name="Grupo 879017" transform="translate(690.449 718.302)">
        <g id="Grupo_879013" data-name="Grupo 879013" transform="translate(12.25 75.425)">
          <rect id="Rect치ngulo_327502" data-name="Rect치ngulo 327502" width="65.734" height="24.833" rx="12.416" fill="#b6e1fd"/>
        </g>
        <g id="Grupo_879016" data-name="Grupo 879016" transform="translate(0 0)">
          <path id="Trazado_621800" data-name="Trazado 621800" d="M2441.886,1456.008a2.14,2.14,0,0,0-1.759-.709l-62.975,1.321-1.591-5.053a1.639,1.639,0,0,0-1.632-1.135l-8.646.227a1.625,1.625,0,0,0-1.678,1.594,1.531,1.531,0,0,0,1.678,1.511l7.389-.175,13.37,42.722a1.765,1.765,0,0,0,1.666,1.224l44.2.593a1.7,1.7,0,0,0,1.879-1.618,1.749,1.749,0,0,0-1.879-1.663l-42.912-.463-3.444-11.092,47.156.071a2.184,2.184,0,0,0,2.087-1.507l7.443-24.064A1.893,1.893,0,0,0,2441.886,1456.008Z" transform="translate(-2363.605 -1450.432)" fill="#bdd0fb"/>
          <g id="Grupo_879014" data-name="Grupo 879014" transform="translate(23.989 49.739)">
            <path id="Trazado_621801" data-name="Trazado 621801" d="M2540.727,1804.036a6.378,6.378,0,0,0-6.579,6.31,6.709,6.709,0,0,0,6.579,6.585,6.377,6.377,0,0,0,6.652-6.308A6.707,6.707,0,0,0,2540.727,1804.036Zm0,9.456a3.131,3.131,0,0,1-3.079-3.073,2.977,2.977,0,0,1,3.079-2.944,3.13,3.13,0,0,1,3.1,3.073A2.977,2.977,0,0,1,2540.727,1813.492Z" transform="translate(-2534.148 -1804.035)" fill="#bdd0fb"/>
          </g>
          <g id="Grupo_879015" data-name="Grupo 879015" transform="translate(53.129 50.197)">
            <path id="Trazado_621802" data-name="Trazado 621802" d="M2748.211,1807.292a6.62,6.62,0,0,0-6.905,6.461,6.963,6.963,0,0,0,6.905,6.75,6.621,6.621,0,0,0,6.983-6.459A6.963,6.963,0,0,0,2748.211,1807.292Zm0,9.688a3.249,3.249,0,0,1-3.232-3.15,3.089,3.089,0,0,1,3.232-3.015,3.249,3.249,0,0,1,3.249,3.151A3.089,3.089,0,0,1,2748.211,1816.979Z" transform="translate(-2741.306 -1807.291)" fill="#bdd0fb"/>
          </g>
        </g>
      </g>
      <g id="Grupo_879018" data-name="Grupo 879018" transform="translate(542.103 598.461)">
        <path id="Trazado_621803" data-name="Trazado 621803" d="M1405.117,625.753c46.5-28.722,86.191-28.474,131.861-6.545a8.432,8.432,0,0,1,4.792,7.693l-.022,1.9a8.416,8.416,0,0,1-11.305,7.808c-39.49-14.449-69.073-22.085-116.932,3.726a8.413,8.413,0,0,1-12.35-6.548h0A8.425,8.425,0,0,1,1405.117,625.753Z" transform="translate(-1388.157 -602.716)" fill="#12263f"/>
        <path id="Trazado_621804" data-name="Trazado 621804" d="M1334.151,599.289l-24.863,38.093a1.832,1.832,0,0,0,1.378,2.827l43.6,3.739a2.124,2.124,0,0,0,2.111-3c-10.415-13.4-16.508-27.23-19.041-41.42A1.827,1.827,0,0,0,1334.151,599.289Z" transform="translate(-1308.988 -598.461)" fill="#12263f"/>
      </g>
      <g id="Grupo_879021" data-name="Grupo 879021" transform="translate(456.842 717.925)">
        <path id="Trazado_621805" data-name="Trazado 621805" d="M1170.94,3125.892s-.9,5.088-1.339,10.125a3.47,3.47,0,0,0,3.319,3.76c6.707.279,21.054.823,26.2.593a1.129,1.129,0,0,0,.994-1.547h0a2.527,2.527,0,0,0-1.293-1.362l-23.7-10.892Z" transform="translate(-1103.934 -2889.839)" fill="url(#linear-gradient-3)"/>
        <path id="Trazado_621806" data-name="Trazado 621806" d="M1173.97,3098.9l.722,6.086s4.151,1.932,6.987-.244l-1.719-6.782Z" transform="translate(-1107.7 -2865.833)" fill="url(#linear-gradient-4)"/>
        <path id="Trazado_621807" data-name="Trazado 621807" d="M1062.843,2291.2c-.312,1.589-1.674,79.31,6.633,114.14a1.181,1.181,0,0,1-.693,1.375,20.574,20.574,0,0,1-6.766,1.375,2.037,2.037,0,0,1-2.02-1.461c-2.375-8.081-13.754-48.569-15.239-87.246-1.659-43.218,0-1.471,0-1.471l.973-26.715Z" transform="translate(-996.031 -2172.557)" fill="#b4e6ff"/>
        <path id="Trazado_621808" data-name="Trazado 621808" d="M967.931,3144.762s-1.431,2.569-2.816,9.394a2.117,2.117,0,0,0,1.863,2.536c2.215.218,5.624.5,8.355.479a2.111,2.111,0,0,0,2.09-2.355,17.8,17.8,0,0,0-4.156-9.764Z" transform="translate(-928.186 -2906.054)" fill="url(#linear-gradient-5)"/>
        <path id="Trazado_621809" data-name="Trazado 621809" d="M976.464,3086.928l1.687,9.2s1.668,1.241,4.968.341l-.805-9.9Z" transform="translate(-937.976 -2856.049)" fill="url(#linear-gradient-6)"/>
        <path id="Trazado_621810" data-name="Trazado 621810" d="M928.08,2281.9c-6.795,41.006,1.474,101.35,4.262,113.161a1.842,1.842,0,0,0,1.487,1.4,12.371,12.371,0,0,0,5.315-.212,1.688,1.688,0,0,0,1.214-1.555c.374-9.548-.3-68.168,6.032-91.335a5.264,5.264,0,0,1,2.03-2.9l12.288-8.736.942-14.121Z" transform="translate(-894.15 -2160.87)" fill="#b4e6ff"/>
        <path id="Trazado_621811" data-name="Trazado 621811" d="M904.716,1750.561s-31.214-7.779-53.044,3.782l13,72.454s20.675,1.667,33.57-2.435Z" transform="translate(-830.738 -1705.767)" fill="#12263f"/>
        <path id="Trazado_621812" data-name="Trazado 621812" d="M964.823,1611.881l-2.388,20.56a.675.675,0,0,0,.183.85c1.6,1.23,7.469,4.973,15.778,1.313a3.179,3.179,0,0,0,1.787-2.026l-3.38-17.818Z" transform="translate(-925.853 -1588.794)" fill="url(#linear-gradient-7)"/>
        <g id="Grupo_879019" data-name="Grupo 879019" transform="translate(29.671 0)">
          <path id="Trazado_621813" data-name="Trazado 621813" d="M1010.208,1535.683s3.041,14.857.637,19.789-10.752,2.068-16.9-4.323l-1.075-15.392Z" transform="translate(-981.749 -1523.314)" fill="url(#linear-gradient-8)"/>
          <path id="Trazado_621814" data-name="Trazado 621814" d="M928.316,1468.869a.552.552,0,0,0,.459-.707,14.406,14.406,0,0,1-.711-4.591s-1-1.147,3.661-.907,11.618.535,14.072-2.766c2.392-3.218,1.574-13.324-6.129-7.733a.552.552,0,0,1-.841-.241c-.563-1.458-2.238-4.633-6.013-4.119-3.532.481-4.557,2.664-4.854,3.829a.549.549,0,0,1-.782.355c-1.489-.766-5.2-2.139-8.109,1.224-2.4,2.77-1.985,4.859-1.384,6a.55.55,0,0,1-.484.81c-1.13.012-2.728.5-3.309,2.965-.8,3.412,3.038,4.222,4.152,4.384a.554.554,0,0,1,.421.3c.618,1.284,3.479,6.807,7.795,8.643a.557.557,0,0,0,.768-.541l-.278-6.192a.555.555,0,0,1,.482-.575Z" transform="translate(-913.783 -1447.75)"/>
          <path id="Trazado_621815" data-name="Trazado 621815" d="M988.837,1587.523s-3.877-4.765-5.059-2.062,3.178,5.356,5.83,5Z" transform="translate(-973.761 -1565.376)" fill="url(#linear-gradient-9)"/>
        </g>
        <path id="Trazado_621816" data-name="Trazado 621816" d="M1342.633,1778.515s11.774,5.472,25.543-9.137c9.411-9.984,15.168-3.862,16.988.168s-2.533,3.694-4.051,3.694-1.706-4.385-4.383-3.787-1.889-.2-2.057,2.484-14.557,33.027-32.357,18.25Z" transform="translate(-1252.366 -1719.483)" fill="url(#linear-gradient-10)"/>
        <g id="Grupo_879020" data-name="Grupo 879020" transform="translate(100.261 46.584)">
          <path id="Trazado_621817" data-name="Trazado 621817" d="M1459.433,1869.386l-31.114-1.961a5.394,5.394,0,0,0-5.688,4.694l-6.968,54.111a5.394,5.394,0,0,0,5.349,6.082h40.6a5.394,5.394,0,0,0,5.387-5.654l-2.517-52.151A5.393,5.393,0,0,0,1459.433,1869.386Z" transform="translate(-1415.618 -1854.967)" fill="#bdd0fb"/>
          <path id="Trazado_621818" data-name="Trazado 621818" d="M1557.027,1798.837a1.007,1.007,0,0,0,1.006-.965c.029-.695.577-17.04-10.926-18.837a7.882,7.882,0,0,0-6.49,1.719c-5.6,4.628-6.073,16.537-6.091,17.042a1.007,1.007,0,0,0,2.014.07c0-.114.46-11.51,5.363-15.559a5.867,5.867,0,0,1,4.894-1.28c9.746,1.522,9.231,16.61,9.224,16.762a1.008,1.008,0,0,0,.965,1.049Z" transform="translate(-1517.799 -1778.92)" fill="#bdd0fb"/>
        </g>
        <path id="Trazado_621819" data-name="Trazado 621819" d="M1202.216,1766.2l18.994,14.237s.336,10.666-2.183,15.71l-21.158-5.2Z" transform="translate(-1128.238 -1721.407)" fill="#12263f"/>
        <path id="Trazado_621820" data-name="Trazado 621820" d="M720.807,2075.835s2.129,27.208,20.039,28.381c0,0,7.677-.7,11.009,1.913s1.717,6.649,1.717,6.649l-14.45-1.762s-20.666,3.441-33.093-31.151Z" transform="translate(-705.583 -1987.486)" fill="url(#linear-gradient-11)"/>
        <path id="Trazado_621821" data-name="Trazado 621821" d="M723.783,1793.09s-24.517,14.584-20.486,43.8c0,0,8.758,3.8,15.126-1.293,0,0,4.962-18.983,15.74-19.928Z" transform="translate(-702.849 -1744.513)" fill="#12263f"/>
      </g>
      <g id="Grupo_879030" data-name="Grupo 879030" transform="translate(546.316 626.095)">
        <g id="Grupo_879023" data-name="Grupo 879023" transform="translate(0 19.591)">
          <circle id="Elipse_7005" data-name="Elipse 7005" cx="34.399" cy="34.399" r="34.399" transform="translate(0 48.647) rotate(-45)" fill="#eb6f2d"/>
          <circle id="Elipse_7006" data-name="Elipse 7006" cx="33.255" cy="33.255" r="33.255" transform="translate(1.618 48.647) rotate(-45)" fill="#ffb338"/>
          <path id="Trazado_621822" data-name="Trazado 621822" d="M1485.3,1074.887a.742.742,0,0,1-.662-1.076,31.309,31.309,0,0,1,28.084-17.292,31.743,31.743,0,0,1,5.671.51.742.742,0,1,1-.266,1.46,30.24,30.24,0,0,0-5.405-.486,29.831,29.831,0,0,0-26.759,16.476A.742.742,0,0,1,1485.3,1074.887Z" transform="translate(-1464.076 -1039.312)" fill="#fff" opacity="0.76"/>
          <circle id="Elipse_7007" data-name="Elipse 7007" cx="28.146" cy="28.146" r="28.146" transform="translate(9.567 49.372) rotate(-45)" fill="#fff" opacity="0.78"/>
          <g id="Grupo_879022" data-name="Grupo 879022" transform="translate(36.975 29.452)">
            <path id="Trazado_621823" data-name="Trazado 621823" d="M1611.435,1184.412v-3.062a24.976,24.976,0,0,1-8.592-1.863,1.771,1.771,0,0,1-.979-2.093l.778-2.852a1.786,1.786,0,0,1,2.424-1.168,20.731,20.731,0,0,0,7.933,1.67c3.075,0,5.368-1.042,5.368-3.179,0-1.928-1.772-3.074-6.045-4.221-6.1-1.667-10.475-4.325-10.475-9.693,0-4.847,3.544-8.547,9.693-9.537v-3.062a1.784,1.784,0,0,1,1.784-1.784h1.8a1.784,1.784,0,0,1,1.784,1.784v2.75a22.762,22.762,0,0,1,6.81,1.223,1.775,1.775,0,0,1,1.109,2.143l-.715,2.638a1.779,1.779,0,0,1-2.349,1.2,18.58,18.58,0,0,0-6.679-1.213c-3.648,0-4.69,1.511-4.69,2.866,0,1.667,2.189,2.814,6.931,4.273,6.775,2.032,9.589,4.846,9.589,9.9,0,4.638-3.439,8.807-10.11,9.85v3.427a1.784,1.784,0,0,1-1.784,1.784h-1.8A1.784,1.784,0,0,1,1611.435,1184.412Z" transform="translate(-1601.8 -1143.568)" fill="#ffb338"/>
          </g>
        </g>
        <g id="Grupo_879033" data-name="Grupo 879033" transform="translate(75 43.46)">
          <circle id="Elipse_7005-2" data-name="Elipse 7005" cx="25.96" cy="25.96" r="25.96" transform="translate(0 36.713) rotate(-45)" fill="#eb6f2d"/>
          <circle id="Elipse_7006-2" data-name="Elipse 7006" cx="25.097" cy="25.097" r="25.097" transform="translate(1.221 36.713) rotate(-45)" fill="#ffb338"/>
          <path id="Trazado_621822-2" data-name="Trazado 621822" d="M1485.119,1070.381a.56.56,0,0,1-.5-.812,23.628,23.628,0,0,1,21.194-13.049,23.954,23.954,0,0,1,4.28.385.56.56,0,1,1-.2,1.1,22.815,22.815,0,0,0-4.079-.367,22.513,22.513,0,0,0-20.195,12.434A.56.56,0,0,1,1485.119,1070.381Z" transform="translate(-1469.101 -1043.533)" fill="#fff" opacity="0.76"/>
          <circle id="Elipse_7007-2" data-name="Elipse 7007" cx="21.241" cy="21.241" r="21.241" transform="translate(7.22 37.26) rotate(-45)" fill="#fff" opacity="0.78"/>
          <g id="Grupo_879022-2" data-name="Grupo 879022" transform="translate(27.904 22.227)">
            <path id="Trazado_621823-2" data-name="Trazado 621823" d="M1609.071,1174.392v-2.311a18.849,18.849,0,0,1-6.484-1.406,1.337,1.337,0,0,1-.739-1.579l.587-2.152a1.347,1.347,0,0,1,1.829-.882,15.647,15.647,0,0,0,5.987,1.261c2.32,0,4.051-.787,4.051-2.4,0-1.455-1.337-2.32-4.562-3.186-4.6-1.258-7.905-3.264-7.905-7.315,0-3.658,2.674-6.45,7.315-7.2v-2.311a1.346,1.346,0,0,1,1.346-1.347h1.358a1.347,1.347,0,0,1,1.347,1.347v2.075a17.184,17.184,0,0,1,5.14.923,1.34,1.34,0,0,1,.837,1.618l-.54,1.991a1.343,1.343,0,0,1-1.773.907,14.022,14.022,0,0,0-5.041-.915c-2.753,0-3.539,1.141-3.539,2.163,0,1.258,1.652,2.124,5.23,3.225,5.113,1.534,7.236,3.657,7.236,7.472,0,3.5-2.6,6.647-7.63,7.433v2.586a1.347,1.347,0,0,1-1.347,1.347h-1.358A1.347,1.347,0,0,1,1609.071,1174.392Z" transform="translate(-1601.8 -1143.568)" fill="#ffb338"/>
          </g>
        </g>
        <g id="Grupo_879034" data-name="Grupo 879034" transform="translate(39.977 92.46)">
          <circle id="Elipse_7005-3" data-name="Elipse 7005" cx="20.265" cy="20.265" r="20.265" transform="translate(0 28.659) rotate(-45)" fill="#eb6f2d"/>
          <circle id="Elipse_7006-3" data-name="Elipse 7006" cx="19.591" cy="19.591" r="19.591" transform="translate(0.953 28.659) rotate(-45)" fill="#ffb338"/>
          <path id="Trazado_621822-3" data-name="Trazado 621822" d="M1485,1067.34a.437.437,0,0,1-.39-.634,18.445,18.445,0,0,1,16.545-10.187,18.7,18.7,0,0,1,3.341.3.437.437,0,0,1-.156.86,17.816,17.816,0,0,0-3.184-.286,17.575,17.575,0,0,0-15.765,9.707A.437.437,0,0,1,1485,1067.34Z" transform="translate(-1472.492 -1046.382)" fill="#fff" opacity="0.76"/>
          <circle id="Elipse_7007-3" data-name="Elipse 7007" cx="16.582" cy="16.582" r="16.582" transform="translate(5.636 29.086) rotate(-45)" fill="#fff" opacity="0.78"/>
          <g id="Grupo_879022-3" data-name="Grupo 879022" transform="translate(21.783 17.351)">
            <path id="Trazado_621823-3" data-name="Trazado 621823" d="M1607.476,1167.63v-1.8a14.718,14.718,0,0,1-5.062-1.1,1.044,1.044,0,0,1-.577-1.233l.458-1.68a1.052,1.052,0,0,1,1.428-.688,12.215,12.215,0,0,0,4.674.984c1.811,0,3.162-.614,3.162-1.873,0-1.136-1.044-1.811-3.561-2.487-3.592-.982-6.171-2.548-6.171-5.71,0-2.855,2.088-5.035,5.71-5.618v-1.8a1.051,1.051,0,0,1,1.051-1.051h1.06a1.051,1.051,0,0,1,1.051,1.051v1.62a13.413,13.413,0,0,1,4.012.72,1.046,1.046,0,0,1,.654,1.263l-.421,1.554a1.048,1.048,0,0,1-1.384.708,10.945,10.945,0,0,0-3.935-.714c-2.149,0-2.763.89-2.763,1.689,0,.982,1.289,1.658,4.083,2.517,3.991,1.2,5.649,2.855,5.649,5.833,0,2.732-2.026,5.188-5.956,5.8v2.019a1.051,1.051,0,0,1-1.051,1.051h-1.06A1.051,1.051,0,0,1,1607.476,1167.63Z" transform="translate(-1601.8 -1143.568)" fill="#ffb338"/>
          </g>
        </g>
      </g>
      <g id="Grupo_879031" data-name="Grupo 879031" transform="translate(564.403 827.576)">
        <path id="Trazado_621830" data-name="Trazado 621830" d="M1602.606,2287.984c-40.593,36.594-79.689,43.468-128.551,30.083a8.431,8.431,0,0,1-6.093-6.709l-.319-1.873a8.416,8.416,0,0,1,9.722-9.708c41.441,7.134,71.913,9.342,114.369-24.633a8.412,8.412,0,0,1,13.324,4.227h0A8.425,8.425,0,0,1,1602.606,2287.984Z" transform="translate(-1467.52 -2266.827)" fill="#12263f"/>
        <path id="Trazado_621831" data-name="Trazado 621831" d="M2217.2,2271.754l17.63-41.933a1.832,1.832,0,0,0-1.862-2.534l-43.568,4.14a2.124,2.124,0,0,0-1.539,3.333c12.649,11.313,21.123,23.829,26.159,37.334A1.826,1.826,0,0,0,2217.2,2271.754Z" transform="translate(-2086.207 -2227.278)" fill="#12263f"/>
      </g>
    </g>
  </g>
</svg>
