<svg xmlns="http://www.w3.org/2000/svg" width="715" height="402" viewBox="0 0 715 402">
  <g id="Grupo_1034306" data-name="Grupo 1034306" transform="translate(-11240.332 -1945.601)">
    <path id="concept-diversity-inclusion-equality-conceptual-photos" d="M19,0H696a19,19,0,0,1,19,19V383a19,19,0,0,1-19,19H19A19,19,0,0,1,0,383V19A19,19,0,0,1,19,0Z" transform="translate(11240.332 1945.601)" fill="#fff"/>
    <g id="Grupo_879010" data-name="Grupo 879010" transform="translate(11081.295 1776.402)">
      <g id="Grupo_878983" data-name="Grupo 878983" transform="translate(185.371 569.406)">
        <path id="Rectángulo_327492" data-name="Rectángulo 327492" d="M.9,0H663.122a.9.9,0,0,1,.9.9v0a.9.9,0,0,1-.9.9H.9A.9.9,0,0,1,0,.9v0A.9.9,0,0,1,.9,0Z" transform="translate(664.018 1.793) rotate(180)" fill="#2e3552"/>
      </g>
      <g id="Grupo_878992" data-name="Grupo 878992" transform="translate(378.32 228.485)">
        <rect id="Rectángulo_327494" data-name="Rectángulo 327494" width="169.613" height="239.418" transform="matrix(0, 1, -1, 0, 239.418, 0)" fill="#8eb2dd"/>
        <rect id="Rectángulo_327495" data-name="Rectángulo 327495" width="233.127" height="163.323" transform="translate(236.293 166.469) rotate(179.993)" fill="#d7e6fa"/>
        <g id="Grupo_878991" data-name="Grupo 878991" transform="translate(20.334 22.969)">
          <path id="Trazado_621731" data-name="Trazado 621731" d="M1397.23,861.281l-81.772.01a2.931,2.931,0,0,1-2.932-2.931h0a2.931,2.931,0,0,1,2.931-2.932l81.772-.01a2.932,2.932,0,0,1,2.932,2.931h0A2.931,2.931,0,0,1,1397.23,861.281Z" transform="translate(-1272.604 -749.227)" fill="#8eb2dd"/>
          <path id="Trazado_621732" data-name="Trazado 621732" d="M1397.24,937.991l-81.772.01a2.931,2.931,0,0,1-2.932-2.931h0a2.931,2.931,0,0,1,2.931-2.932l81.772-.01a2.931,2.931,0,0,1,2.932,2.931h0A2.931,2.931,0,0,1,1397.24,937.991Z" transform="translate(-1272.612 -808.705)" fill="#8eb2dd"/>
          <rect id="Rectángulo_327496" data-name="Rectángulo 327496" width="189.27" height="1.515" transform="translate(0 94.526)" fill="#8eb2dd"/>
          <path id="Trazado_621733" data-name="Trazado 621733" d="M1967.921,799.23v-6.187l8.485,3.092Z" transform="translate(-1780.769 -700.865)" fill="#8eb2dd"/>
          <rect id="Rectángulo_327497" data-name="Rectángulo 327497" width="100.626" height="1.585" transform="matrix(0, -1, 1, 0, 8.828, 105.458)" fill="#8eb2dd"/>
          <path id="Trazado_621734" data-name="Trazado 621734" d="M1163.18,390.409h6.471l-3.237-7.7Z" transform="translate(-1156.807 -382.706)" fill="#8eb2dd"/>
          <path id="Trazado_621735" data-name="Trazado 621735" d="M1243.1,858.635h-.489a5.317,5.317,0,0,1-5.318-5.317h0a5.318,5.318,0,0,1,5.317-5.318h.489a5.317,5.317,0,0,1,5.318,5.317h0A5.318,5.318,0,0,1,1243.1,858.635Z" transform="translate(-1214.275 -743.476)" fill="#2a4e96"/>
          <path id="Rectángulo_327498" data-name="Rectángulo 327498" d="M5.317,0h.489a5.317,5.317,0,0,1,5.317,5.317v0a5.318,5.318,0,0,1-5.318,5.318H5.317A5.317,5.317,0,0,1,0,5.318v0A5.317,5.317,0,0,1,5.317,0Z" transform="translate(23.025 119.795)" fill="#f99746"/>
          <path id="Trazado_621736" data-name="Trazado 621736" d="M1370.506,424.657l-10.87.907,1.429,2.818-34.119,16.064-31.873,53.573-37.616-32.247-30.344,14.714-.086.041-19.345,18.019.883.867,19.207-17.891,29.485-14.3,38.141,32.7,32.457-54.554,33.763-15.9,1.411,2.782Z" transform="translate(-1191.311 -415.233)" fill="#699ff0"/>
          <path id="Trazado_621737" data-name="Trazado 621737" d="M1280.342,667.738h-.361a3.933,3.933,0,0,1-3.934-3.933h0a3.933,3.933,0,0,1,3.933-3.934h.361a3.934,3.934,0,0,1,3.934,3.933h0A3.933,3.933,0,0,1,1280.342,667.738Z" transform="translate(-1244.319 -597.608)" fill="#2a4e96"/>
          <path id="Trazado_621738" data-name="Trazado 621738" d="M1725.793,508.747h-.362a3.934,3.934,0,0,1-3.934-3.933h0a3.933,3.933,0,0,1,3.933-3.934h.361a3.933,3.933,0,0,1,3.934,3.933h0A3.933,3.933,0,0,1,1725.793,508.747Z" transform="translate(-1589.704 -474.333)" fill="#2a4e96"/>
          <path id="Trazado_621739" data-name="Trazado 621739" d="M1413.991,605.745h-.361a3.933,3.933,0,0,1-3.934-3.933h0a3.933,3.933,0,0,1,3.933-3.934h.361a3.934,3.934,0,0,1,3.934,3.933h0A3.933,3.933,0,0,1,1413.991,605.745Z" transform="translate(-1347.945 -549.542)" fill="#2a4e96"/>
          <path id="Trazado_621740" data-name="Trazado 621740" d="M1582.609,740.874h-.362a3.934,3.934,0,0,1-3.934-3.933h0a3.934,3.934,0,0,1,3.933-3.934h.361a3.933,3.933,0,0,1,3.934,3.933h0A3.933,3.933,0,0,1,1582.609,740.874Z" transform="translate(-1478.684 -654.315)" fill="#f99746"/>
        </g>
      </g>
      <g id="Grupo_878996" data-name="Grupo 878996" transform="translate(227.704 254.783)">
        <path id="Trazado_621741" data-name="Trazado 621741" d="M658.15,562.1s8.477,10.057,19.272,5.85c0,0,2.322-5.617,2.355-9.757,0-.51.01-1,.018-1.473.058-4.662.215-7.279.215-7.279l-.011,0c-.491-.2-16.5-6.778-16.489-6.232C663.785,555.818,658.15,562.1,658.15,562.1Z" transform="translate(-594.277 -510.458)" fill="#ffb27d"/>
        <path id="Trazado_621742" data-name="Trazado 621742" d="M689.131,556.3c1.544,2.862,6.842,8.461,14.678,10.506.058-4.662.215-7.279.215-7.279l-.011,0C703.569,559.4,688.671,555.454,689.131,556.3Z" transform="translate(-618.29 -520.54)" fill="#ed975d"/>
        <path id="Trazado_621743" data-name="Trazado 621743" d="M690.314,466.486s-18.006,4.233-20.47-7.021S663.4,441.178,674.79,438s14.574.625,16.31,4.181S694.935,465.094,690.314,466.486Z" transform="translate(-601.228 -427.985)" fill="#ffb27d"/>
        <path id="Trazado_621744" data-name="Trazado 621744" d="M638.786,432.076c-.246.157-4.12,1.348-11.458-13.269a12.729,12.729,0,0,1,.748-11.645c2.685-4.386,12.2-7.835,20.115-9.335s9.809,2.95,11.672,7.423c1.955,4.7,7.6,8.562,7.6,8.562-6.821,3.81-15.036-1.639-17.882-.743s-3.851,5.382-4.065,6.819-.542,2.633-4.121,1.349-1.619,5.072-1.045,6.287C640.353,427.523,640.839,430.761,638.786,432.076Z" transform="translate(-569.554 -397.53)" fill="#a9453d"/>
        <g id="Grupo_878993" data-name="Grupo 878993" transform="translate(0 138.243)">
          <path id="Trazado_621745" data-name="Trazado 621745" d="M396.664,1707.692h-10.9c-2.286,0-4.825-2.289-5.461-6.479s-5.334-6.478-6.351-9.908,4.193-8.258,4.193-8.258l.871-1.119.906-1.167,8.637,2.031s.213,2.057.347,4.676a59.917,59.917,0,0,1,.035,5.995c-.255,4.575,1.281,9.5,5.343,10.388S396.664,1707.692,396.664,1707.692Z" transform="translate(-373.817 -1530.737)"/>
          <path id="Trazado_621746" data-name="Trazado 621746" d="M706.812,1746.332h-28.9a2.623,2.623,0,0,1-.614-.178c-1.929-.966-1.325-8.354-1.093-10.636.044-.423.076-.671.076-.671s10.162-8.128,11.561-1.9c.045.194.1.385.149.572v0c1.764,5.824,9.651,8.468,14.206,9.206C705.678,1743.29,706.58,1745.318,706.812,1746.332Z" transform="translate(-608.062 -1569.378)"/>
          <path id="Trazado_621747" data-name="Trazado 621747" d="M638.631,1049.521s-1.544,19.256-3.357,42.4c-2.466,31.444-5.431,70.067-5.724,77.384-.507,12.706-2.542,33.029-2.542,33.029s-4.825,4.828-14.481,2.793c0,0-8.605-29.012-11.063-59.709l-.114-1.517c-2.286-31.25-5.842-97.052-5.842-97.052Z" transform="translate(-545.706 -1039.231)" fill="#12263f"/>
          <path id="Trazado_621748" data-name="Trazado 621748" d="M638.631,1049.521s-1.544,19.256-3.357,42.4l-33.81,53.5-.114-1.517c-2.286-31.25-5.842-97.052-5.842-97.052Z" transform="translate(-545.706 -1039.231)" fill="#233862"/>
          <path id="Trazado_621749" data-name="Trazado 621749" d="M474.615,1025.5S446.8,1095.24,428.5,1128.014s-24.009,41.92-24.009,41.92-10.48-4.192-11.433-7.05c0,0,7-63.271,19.245-78.7,6.922-8.715,15.053-34.87,15.434-44.016s2.477-27.248,2.477-27.248Z" transform="translate(-388.739 -1012.925)" fill="#12263f"/>
        </g>
        <g id="Grupo_878994" data-name="Grupo 878994" transform="translate(13.089 52.758)">
          <path id="Trazado_621750" data-name="Trazado 621750" d="M441.426,1006.838l-.294,4.485a9.664,9.664,0,0,1-5.33,12.055s-3.548,1.431-3.692-1.331.31-1.723.022-5.612,1.24-7.564,3.813-8.8l2.111-2.436Z" transform="translate(-432.081 -921.448)" fill="#ffb27d"/>
          <path id="Trazado_621751" data-name="Trazado 621751" d="M446.048,721.04c3.079.989,3.573.765,3.573.765s14.987-27.286,16.505-29.784,31.821-30.6,31.821-30.6l-7.788-29.039s-34.466,44.631-38.187,51.035c-6.15,10.583-9.754,35.161-9.754,35.161A9.011,9.011,0,0,0,446.048,721.04Z" transform="translate(-439.941 -632.384)" fill="#1169bb"/>
        </g>
        <path id="Trazado_621752" data-name="Trazado 621752" d="M551.611,708.629c7.616,4.5,14.8,7.837,23.151,9.6,9.892,2.154,21.975,1.234,26.026,1.743a1.736,1.736,0,0,0,1.184-.3c.3-.186,1.889-12.389,3.408-27.831.041-.355.081-.73.111-1.1.02-.25.035-.5.041-.742l.026-.218c.166-1.6.326-3.239.474-4.892.372-4.121.7-8.349,1-12.569.029-.4.058-.806.084-1.211.469-6.807.815-13.512.923-19.475,0-.143.006-.285.006-.428a129.131,129.131,0,0,0-.32-13c-.064-.748-.14-1.449-.23-2.11-1.181-8.952-5.515-15.25-9.583-19.978l-3.978-4.514c-3.818.335-7.124.472-10.852-1.92-4.039-2.59-6.648-5.029-7.466-4.572-6.251,3.658-13.022,12.654-16.415,24.865a138.451,138.451,0,0,0-4.034,21.766q-.485,4.487-.745,9.115a299.61,299.61,0,0,1-4.977,38.878c-.431,2.363-.771,4.24-.957,5.541C548.3,706.447,550.6,708.03,551.611,708.629Z" transform="translate(-509.237 -558.428)" fill="#2b95f9"/>
        <path id="Trazado_621753" data-name="Trazado 621753" d="M690.3,722.1s3.4,37.609,25.159,59.395c.02-.25.035-.5.041-.742l.026-.218c.166-1.6.326-3.239.474-4.892.372-4.121.7-8.349,1-12.569.029-.4.058-.806.084-1.211.469-6.807.815-13.512.923-19.475,0-.143.006-.285.006-.428-.044-3.565-.148-6.816-.32-9.671C710.72,726.723,701.678,722.838,690.3,722.1Z" transform="translate(-619.204 -649.185)" fill="#1169bb"/>
        <g id="Grupo_878995" data-name="Grupo 878995" transform="translate(139.311 27.603)">
          <path id="Trazado_621754" data-name="Trazado 621754" d="M998.282,640.879l40.48-118.982c.187-.542.435-1.06-.1-1.256l-.491-.179c-.552-.2-.714.155-.915.707L994.1,638.441a2.269,2.269,0,0,0,1.21,2.849l1,.445A1.457,1.457,0,0,0,998.282,640.879Z" transform="translate(-993.965 -520.406)" fill="#2a4e96"/>
        </g>
        <path id="Trazado_621755" data-name="Trazado 621755" d="M1048.176,794.007c.02-1.741,4.614-5.768,4.919-5.282.219.349-.256,2.178-.513,2.948,1.909-1.277,2.344-5.791,5.566-7.806.893-.558,4.073,8.167,1.058,11.332s-4.462,2.813-9.481,5.743l-3.637.244-1.8-5.653S1046.23,794.825,1048.176,794.007Z" transform="translate(-893.676 -697.06)" fill="#ffb27d"/>
        <path id="Trazado_621756" data-name="Trazado 621756" d="M741.09,696.319c.238-3.431-4.286-5.415-4.286-5.415s-34.467,3.593-37.432,2.66-25.116-32.72-25.116-32.72-9.717-10.959-17.674-8.539c-6.914,2.1-9.617,7.5-10.537,12.634a15.135,15.135,0,0,0,7.028,15.536c11.9,7.3,32.721,27.421,38.333,29.066,12.49,3.662,48.164-8.307,48.164-8.307A12.352,12.352,0,0,0,741.09,696.319Z" transform="translate(-584.709 -594.801)" fill="#2b95f9"/>
      </g>
      <g id="Grupo_879009" data-name="Grupo 879009" transform="translate(623.758 327.387)">
        <g id="Grupo_879004" data-name="Grupo 879004" transform="translate(11.155)">
          <g id="Grupo_879002" data-name="Grupo 879002">
            <path id="Trazado_621757" data-name="Trazado 621757" d="M2777.894,1087.061a310.921,310.921,0,0,1,3.591-38.13c2.575-14.889,4.893-23.455,4.92-23.546.339-1.309,5.239-6.607,16.133-6.444s9.861,7.111,9.861,7.111h0a2.247,2.247,0,0,1-.078.618c-.105.358-10.1,36.617-9.672,83.433.006.657.08,1.794.033,2.55,0,0-25.246.651-25.252,0C2776.55,1108.562,2776.979,1097.224,2777.894,1087.061Z" transform="translate(-2644.315 -951.947)" fill="#b7d3f3"/>
            <path id="Trazado_621758" data-name="Trazado 621758" d="M2765.24,1109.873c.008.652.352,1.174.772,1.174h.01c.42-.01.754-.532.759-1.174h21.635c.008.652.352,1.174.772,1.174h.01c.428-.01.767-.549.762-1.209a326.792,326.792,0,0,1,1.8-36.96c2.876-27.543,8.193-45.953,8.269-46.207a2.3,2.3,0,0,0,.078-.618s1.033-6.947-9.86-7.111-15.8,5.135-16.135,6.444c-.02.069-1.332,4.919-3.077,13.639-.578,2.889-1.2,6.2-1.843,9.9a311.283,311.283,0,0,0-3.59,38.13C2764.682,1097.224,2764.36,1105.782,2765.24,1109.873Z" transform="translate(-2634.834 -951.947)" fill="#d2e3fc"/>
            <path id="Trazado_621759" data-name="Trazado 621759" d="M2591.42,1405.072H2506.6s1.976-7.994,51.1-6.8C2592.46,1399.111,2591.42,1405.072,2591.42,1405.072Z" transform="translate(-2434.696 -1245.971)" fill="#c5dcf8"/>
            <g id="Grupo_878997" data-name="Grupo 878997" transform="translate(149.249 160.339)">
              <path id="Trazado_621760" data-name="Trazado 621760" d="M2865.291,1516.738c-9.835-49.787-7.306-80.339-7.293-80.724.025-.767-1.388-1.463-2.148-1.487s-4.164-.226-4.557.43c-.514.859-2.5,38.5,12.163,81.782Z" transform="translate(-2850.911 -1434.483)" fill="#b7d3f3"/>
            </g>
            <g id="Grupo_878998" data-name="Grupo 878998" transform="translate(84.431 160.339)">
              <path id="Trazado_621761" data-name="Trazado 621761" d="M2562.371,1516.738c9.835-49.787,7.306-80.339,7.293-80.724-.025-.767,1.388-1.463,2.148-1.487s4.164-.226,4.557.43c.514.859,2.5,38.5-12.163,81.782Z" transform="translate(-2562.371 -1434.483)" fill="#b7d3f3"/>
            </g>
            <g id="Grupo_878999" data-name="Grupo 878999" transform="translate(68.736 160.339)">
              <path id="Trazado_621762" data-name="Trazado 621762" d="M2492.5,1516.738c9.835-49.787,7.306-80.339,7.293-80.724-.025-.767,1.388-1.463,2.148-1.487s4.164-.226,4.557.43c.514.859,2.495,38.5-12.163,81.782Z" transform="translate(-2492.503 -1434.483)" fill="#b7d3f3"/>
            </g>
            <g id="Grupo_879000" data-name="Grupo 879000" transform="translate(133.448 160.339)">
              <path id="Trazado_621763" data-name="Trazado 621763" d="M2794.953,1516.738c-9.835-49.787-7.306-80.339-7.293-80.724.025-.767-1.388-1.463-2.148-1.487s-4.164-.226-4.557.43c-.514.859-2.5,38.5,12.163,81.782Z" transform="translate(-2780.574 -1434.483)" fill="#b7d3f3"/>
            </g>
            <rect id="Rectángulo_327499" data-name="Rectángulo 327499" width="88.297" height="4.617" rx="2.309" transform="translate(158.412 161.652) rotate(-180)" fill="#b7d3f3"/>
            <g id="Grupo_879001" data-name="Grupo 879001">
              <path id="Trazado_621764" data-name="Trazado 621764" d="M2416.589,1078.249l-28.2-6.107-1.661,4.047s31.111,18.512,34.026,17.606S2416.589,1078.249,2416.589,1078.249Z" transform="translate(-2341.758 -993.2)" fill="#ffb27d"/>
              <path id="Trazado_621765" data-name="Trazado 621765" d="M2555.759,1589.4a2.506,2.506,0,0,1,.447,2.68.023.023,0,0,1-.007.013c-.646,1.786-2.782,3.781-5.262,5.772-.317.256-.6.489-.844.7-.064.057-.129.113-.189.17s-.1.09-.146.132c-2.313,2.132-1.443,2.621-5.6,6.947-4.738,4.93-8,5.018-8.928,4.569-.785-.383.81-3,2.577-5.936.086-.142.17-.285.258-.428.235-.391.469-.788.7-1.18,2.071-3.537,1.54-5.2,1.049-10.46-.4-4.277-6.654-23.9-6.654-23.9l9.08-1.564s2.734,15.622,5.747,18.028c1.611,1.282,3.415,1.3,4.963,2.249q.164.1.322.2A11.916,11.916,0,0,1,2555.759,1589.4Z" transform="translate(-2455.293 -1376.834)" fill="#ffb27d"/>
              <path id="Trazado_621766" data-name="Trazado 621766" d="M2562.187,1659.388a2.506,2.506,0,0,1,.447,2.679.023.023,0,0,1-.007.013c-.791,1.784-2.873,3.769-5.271,5.754-.313.26-.589.5-.836.722-.064.057-.129.113-.189.17s-.1.089-.146.132c-2.313,2.132-1.443,2.621-5.6,6.947-4.738,4.93-8,5.018-8.928,4.569-.785-.383.81-3,2.577-5.936a20.19,20.19,0,0,0,8.446-6.224c2.853-3.64,4.756-8.318,6.7-11.028.109.066.217.134.322.2A11.917,11.917,0,0,1,2562.187,1659.388Z" transform="translate(-2461.721 -1446.82)"/>
              <path id="Trazado_621767" data-name="Trazado 621767" d="M2213.775,1574.193c-.561,2.8-4.556,2.335-9.019,1.245s-3.4.206-9.755-.5-8.277-3.072-8.47-4.016c-.173-.838,2.965-1.134,6.332-1.521.423-.047.849-.1,1.274-.152,3.8-.477,6.585-2.93,10.038-4.944,3.27-1.908,8.151-9.682,8.151-9.682l8.712.69s-4.572,6.944-6.34,9.962c-1.04,1.776-.985,4.124-.855,5.937A11.171,11.171,0,0,1,2213.775,1574.193Z" transform="translate(-2186.523 -1367.296)" fill="#ffb27d"/>
              <path id="Trazado_621768" data-name="Trazado 621768" d="M2204.755,1626.447c-4.463-1.091-3.4.206-9.755-.5s-8.277-3.072-8.47-4.016c-.173-.838,2.965-1.134,6.332-1.521l.031.065a17.908,17.908,0,0,0,9.1,2.828c4.31.1,8.875-1.13,11.851-1.082a11.172,11.172,0,0,1-.067,2.98C2213.214,1628.005,2209.219,1627.538,2204.755,1626.447Z" transform="translate(-2186.523 -1418.305)"/>
              <path id="Trazado_621769" data-name="Trazado 621769" d="M2343.662,1051.315s-2.076-5.085-4.359-5.293-9.548-1.349-10.067-.311,0,4.774,1.557,6.123,11.208,3.529,11.208,3.529Z" transform="translate(-2297.027 -972.373)" fill="#ffb27d"/>
              <path id="Trazado_621770" data-name="Trazado 621770" d="M2456.453,1345.562l18.776,50.529a17.19,17.19,0,0,0,5.65-.517,24.332,24.332,0,0,0,5.461-2.659s-4.658-48.516-13.2-58.608S2456.453,1345.562,2456.453,1345.562Z" transform="translate(-2395.816 -1194.37)" fill="#163560"/>
              <path id="Trazado_621771" data-name="Trazado 621771" d="M2393.074,1251.33s-53.95-18.242-65.982-14.361-48.158,75.756-48.158,75.756a6.969,6.969,0,0,0,3.041,1.919c2.07.776,7.081.727,7.081.727s32.6-27.945,36.484-36.1,5.434-15.913,9.315-15.137,50.069,19.018,60.548,8.151,7.739-24.987,7.739-24.987Z" transform="translate(-2258.175 -1120.58)" fill="#1c468a"/>
              <path id="Trazado_621772" data-name="Trazado 621772" d="M2622.633,766.613c-.861-1.779-1.825-4.938-2.3-10.57.073.559,1.043,7.662,3.775,11.684,11.22,7.366,32.725,31.963,32.3,36.624,0,0,7.575-12.848,7.706-12.925,0,0,13.973-17.768-2.588-27.947-8.417-5.173-8.374-11.812-8.022-17.579s-2.3-30.594-19.156-24.1c0,0-2.706-1.2-3.918-1.022a3.311,3.311,0,0,1,1.493.709,13.083,13.083,0,0,0-7.081,1.355C2618.663,726.356,2613.132,757.868,2622.633,766.613Z" transform="translate(-2520.702 -720.727)" fill="#2c3a64"/>
              <path id="Trazado_621773" data-name="Trazado 621773" d="M2649.808,874.242c-.056.025,5.417,2.868,9.534,1.741,3.873-1.056,6.4-6.077,6.35-6.088-1.64-.326-2.113-2.58-2.078-12.264l-.741.146-12.466,2.469s.283,3.923.292,7.619C2650.707,870.967,2650.519,873.91,2649.808,874.242Z" transform="translate(-2545.735 -826.876)" fill="#ffb27d"/>
              <path id="Trazado_621774" data-name="Trazado 621774" d="M2652.472,860.749s.284,3.923.292,7.619c6.976-.2,10.664-6.56,12.174-10.088Z" transform="translate(-2547.801 -827.38)" fill="#ed975d"/>
              <path id="Trazado_621775" data-name="Trazado 621775" d="M2639.127,763.828s3.656-5.776,4.533-10.715c.626-3.526-1.17-16.6-14.3-14.715a17.847,17.847,0,0,0-7.4,2.8c-2.852,1.926-6.967,6.084-2.366,17.49l1.2,3.853Z" transform="translate(-2520.702 -734.285)" fill="#2c3a64"/>
              <path id="Trazado_621776" data-name="Trazado 621776" d="M2623.127,788.72s16.505.272,16.517-10.009,2.149-17.17-8.388-17.779-12.59,3.312-13.428,6.743S2618.834,788.385,2623.127,788.72Z" transform="translate(-2520.786 -751.852)" fill="#ffb27d"/>
              <path id="Trazado_621777" data-name="Trazado 621777" d="M2644.821,751.388s4.519,12.062,11.454,13.845,9.944-.075,9.944-.075a66.072,66.072,0,0,1-3.642-13.581S2648.229,745.647,2644.821,751.388Z" transform="translate(-2541.868 -742.559)" fill="#2c3a64"/>
              <path id="Trazado_621778" data-name="Trazado 621778" d="M2620.961,757.6s-3.375,2.693-4.2,5.311-1.193,8.008-2.764,7.824c0,0-3.4-8.2.422-12.836C2618.479,752.981,2620.961,757.6,2620.961,757.6Z" transform="translate(-2516.889 -747.791)" fill="#2c3a64"/>
              <path id="Trazado_621779" data-name="Trazado 621779" d="M2574.308,960.949c1.628-6.826-3.91-20.073-9.69-31.039-5.245-9.939-10.69-18-11.179-17.713-13.834,8.211-15.083,1.384-15.083,1.384h0c-.005,0-12.567,1.668-16.124,7.792-4.413,7.6-9.182,28.834-13.918,32.853.727,2.226.416,3.412-.356,6.169q-.248.888-.548,1.685a32.49,32.49,0,0,1-2.377,4.883c2.407,1.463,7.057,4.245,10.482,2.244,5.222-3.056,9.3-12.36,11.589-16.064l.025-.042c4.984,28.211-1.792,34.636,1.638,37.611,3.623,3.141,8.8-1.5,20.184,3.439,7.468,3.24,17.832,7.923,24.808,8.739,3.659.429,6.389-.207,7.279-2.678C2583.623,993.034,2571.2,973.963,2574.308,960.949Z" transform="translate(-2433.481 -869.18)" fill="#2b95f9"/>
              <path id="Trazado_621780" data-name="Trazado 621780" d="M2637.024,854.222s-.308,1.306-3.557,1.1c0,0-2.728-.169-2.644-1.6A8.777,8.777,0,0,1,2637.024,854.222Z" transform="translate(-2531.013 -823.586)" fill="#fff"/>
              <path id="Trazado_621781" data-name="Trazado 621781" d="M2730.38,1105.306c-.89,2.471-3.62,3.108-7.279,2.678-4.829-2.1-25.687-10.185-25.455-15.66.347-8.107,4.011-8.366,1.423-18.373-2.078-8.035,17.2-22.974,20.27-26.222,5.781,10.967,5.94,11.485,4.313,18.311C2720.547,1079.054,2732.968,1098.125,2730.38,1105.306Z" transform="translate(-2582.825 -974.271)" fill="#1169bb"/>
              <path id="Trazado_621782" data-name="Trazado 621782" d="M2750.475,971a30.587,30.587,0,0,0-10.088-9.323c.583-1.5-15.56-21.294-15.56-24.361,0-3.105-4.307-25.094-4.307-25.094s13.451.83,18.108,7.325C2744.453,927.667,2756.549,958.928,2750.475,971Z" transform="translate(-2600.562 -869.202)" fill="#2b95f9"/>
              <path id="Trazado_621783" data-name="Trazado 621783" d="M2716.181,1132.371l-26.88,7.014,2.523,4.528s32.712-.228,34.445-2.219S2716.181,1132.371,2716.181,1132.371Z" transform="translate(-2576.356 -1039.899)" fill="#ffb27d"/>
              <path id="Trazado_621784" data-name="Trazado 621784" d="M2527.1,1094.507c-2.293,3.7-6.367,13.008-11.589,16.064-3.425,2-8.074-.781-10.482-2.244a32.483,32.483,0,0,0,2.377-4.883c1.922.44,4.267,1,5.778,1.457C2516.129,1105.792,2527.1,1094.507,2527.1,1094.507Z" transform="translate(-2433.481 -1010.54)" fill="#1169bb"/>
              <path id="Trazado_621785" data-name="Trazado 621785" d="M2625.532,1156.985s-8.441-2.389-10.452-1.83-8.9,5.12-7.931,6.358,7.038-.742,9.83-.367,4.952,1.753,6.963,1.455a23.324,23.324,0,0,0,4.113-1.088Z" transform="translate(-2512.588 -1057.499)" fill="#ffb27d"/>
              <path id="Trazado_621786" data-name="Trazado 621786" d="M2668.33,1151.766s-4.129-2.122-5.3-3.329a.329.329,0,0,0-.513.059c-.315.5-.61,1.455.839,2.408A7.789,7.789,0,0,0,2668.33,1151.766Z" transform="translate(-2555.385 -1052.28)" fill="#ffb27d"/>
            </g>
          </g>
          <g id="Grupo_879003" data-name="Grupo 879003" transform="translate(12.264 68.472)">
            <path id="Trazado_621787" data-name="Trazado 621787" d="M2515.65,1205.624h39.382a3.14,3.14,0,0,0-3.139-3.139H2515.65Z" transform="translate(-2453.979 -1162.734)" fill="#ed7d2b"/>
            <path id="Trazado_621788" data-name="Trazado 621788" d="M2306,1025.533h-60.887l14.6,42.89H2321Z" transform="translate(-2244.216 -1025.533)" fill="#ed7d2b"/>
            <path id="Trazado_621789" data-name="Trazado 621789" d="M2241.118,1025.533l14.606,42.889H2317l-15-42.889Z" transform="translate(-2241.118 -1025.533)" fill="#f99746"/>
            <path id="Trazado_621790" data-name="Trazado 621790" d="M2386.979,1108.989a3.959,3.959,0,0,0,3.652,2.967,2.285,2.285,0,0,0,2.282-2.967,3.959,3.959,0,0,0-3.652-2.967A2.285,2.285,0,0,0,2386.979,1108.989Z" transform="translate(-2354.151 -1087.941)" fill="#f9ddbf"/>
            <path id="Trazado_621791" data-name="Trazado 621791" d="M2241.118,1025.533l14.606,42.889h40.583c-26.883-9.176-34.039-37.153-35.24-42.889Z" transform="translate(-2241.118 -1025.533)" fill="#ed893e"/>
          </g>
        </g>
        <g id="Grupo_879006" data-name="Grupo 879006" transform="translate(176.899 117.974)">
          <g id="Grupo_879005" data-name="Grupo 879005">
            <path id="Trazado_621792" data-name="Trazado 621792" d="M2947.625,1370.513a1.574,1.574,0,0,1-1.561-1.279l-7.647-43.345-11-62.339-3.076-17.432,7.834-.224,1.359,10.119,9.545,71.114,5.658,42.153A1.1,1.1,0,0,1,2947.625,1370.513Z" transform="translate(-2924.342 -1245.893)" fill="#95c0f4"/>
          </g>
          <path id="Trazado_621793" data-name="Trazado 621793" d="M2933.536,1256.012a11.24,11.24,0,0,0-6.118,7.536l-3.076-17.432,7.834-.224Z" transform="translate(-2924.342 -1245.893)" fill="#78acea"/>
        </g>
        <g id="Grupo_879008" data-name="Grupo 879008" transform="translate(4.19 117.974)">
          <g id="Grupo_879007" data-name="Grupo 879007">
            <path id="Trazado_621794" data-name="Trazado 621794" d="M2156.642,1370.513a1.573,1.573,0,0,0,1.56-1.279l7.647-43.345,11-62.339,3.076-17.432-7.835-.224-1.359,10.119-9.544,71.114-5.658,42.153A1.1,1.1,0,0,0,2156.642,1370.513Z" transform="translate(-2155.519 -1245.893)" fill="#95c0f4"/>
          </g>
          <path id="Trazado_621795" data-name="Trazado 621795" d="M2223.237,1256.012a11.24,11.24,0,0,1,6.118,7.536l3.076-17.432-7.834-.224Z" transform="translate(-2208.025 -1245.893)" fill="#78acea"/>
        </g>
        <path id="Rectángulo_327500" data-name="Rectángulo 327500" d="M6.844,0h196.5a6.844,6.844,0,0,1,6.844,6.844v0a6.844,6.844,0,0,1-6.844,6.844H6.844A6.844,6.844,0,0,1,0,6.844v0A6.844,6.844,0,0,1,6.844,0Z" transform="translate(0 111.353)" fill="#78acea"/>
      </g>
    </g>
  </g>
</svg>
