<svg xmlns="http://www.w3.org/2000/svg" width="888" height="385.701" viewBox="0 0 888 385.701">
  <g id="Grupo_1034304" data-name="Grupo 1034304" transform="translate(-12670 -3372)">
    <g id="Grupo_879248" data-name="Grupo 879248" transform="translate(12734.694 2539.609)">
      <g id="Grupo_879151" data-name="Grupo 879151" transform="translate(-64.694 882.973)">
        <rect id="Rectángulo_327657" data-name="Rectángulo 327657" width="335.119" height="404.853" rx="1.577" transform="translate(404.853 0) rotate(90)" fill="#e6e6e6"/>
        <rect id="Rectángulo_327658" data-name="Rectángulo 327658" width="403.071" height="306.949" transform="translate(0.891 18.206)" fill="#fff"/>
        <g id="Grupo_879116" data-name="Grupo 879116" transform="translate(54.554 4.498)">
          <rect id="Rectángulo_327659" data-name="Rectángulo 327659" width="305.448" height="9.798" rx="0.596" transform="translate(0.213 0.214)" fill="#fff"/>
          <path id="Trazado_621891" data-name="Trazado 621891" d="M278.253,896.343H-25.488a1.068,1.068,0,0,1-1.067-1.067v-8.092a1.068,1.068,0,0,1,1.067-1.067H278.253a1.069,1.069,0,0,1,1.067,1.067v8.092A1.069,1.069,0,0,1,278.253,896.343Zm-303.741-9.8a.64.64,0,0,0-.641.639v8.092a.64.64,0,0,0,.641.639H278.253a.64.64,0,0,0,.641-.639v-8.092a.64.64,0,0,0-.641-.639Z" transform="translate(26.555 -886.117)" fill="#ccc"/>
        </g>
        <g id="Grupo_879123" data-name="Grupo 879123" transform="translate(9.064 7.387)">
          <g id="Grupo_879117" data-name="Grupo 879117" transform="translate(1.337 1.364)">
            <path id="Trazado_621892" data-name="Trazado 621892" d="M-52.644,889.558h0Z" transform="translate(57.423 -888.889)" fill="#fff"/>
            <rect id="Rectángulo_327660" data-name="Rectángulo 327660" width="4.779" height="1.337" fill="#b3b3b3"/>
          </g>
          <g id="Grupo_879122" data-name="Grupo 879122">
            <g id="Grupo_879119" data-name="Grupo 879119" transform="translate(1.927 1.255)">
              <g id="Grupo_879118" data-name="Grupo 879118">
                <rect id="Rectángulo_327661" data-name="Rectángulo 327661" width="3.52" height="0.219" transform="translate(0.669 0.668)" fill="#0a92cf"/>
                <rect id="Rectángulo_327662" data-name="Rectángulo 327662" width="4.857" height="1.556" fill="#b3b3b3"/>
              </g>
            </g>
            <g id="Grupo_879121" data-name="Grupo 879121">
              <g id="Grupo_879120" data-name="Grupo 879120">
                <path id="Trazado_621893" data-name="Trazado 621893" d="M-55.908,888.946l-1.515.875,1.515.875Z" transform="translate(58.76 -887.788)" fill="#0a92cf"/>
                <path id="Trazado_621894" data-name="Trazado 621894" d="M-54.837,892.2l-3.52-2.033,3.52-2.033Z" transform="translate(58.357 -888.137)" fill="#b3b3b3"/>
              </g>
            </g>
          </g>
        </g>
        <g id="Grupo_879130" data-name="Grupo 879130" transform="translate(20.496 7.387)">
          <g id="Grupo_879124" data-name="Grupo 879124" transform="translate(0.668 1.364)">
            <path id="Trazado_621895" data-name="Trazado 621895" d="M-49.9,889.558h0Z" transform="translate(49.898 -888.889)" fill="#fff"/>
            <rect id="Rectángulo_327663" data-name="Rectángulo 327663" width="4.779" height="1.337" fill="#b3b3b3"/>
          </g>
          <g id="Grupo_879129" data-name="Grupo 879129">
            <g id="Grupo_879126" data-name="Grupo 879126" transform="translate(0 1.255)">
              <g id="Grupo_879125" data-name="Grupo 879125">
                <rect id="Rectángulo_327664" data-name="Rectángulo 327664" width="3.52" height="0.219" transform="translate(0.668 0.668)" fill="#0a92cf"/>
                <rect id="Rectángulo_327665" data-name="Rectángulo 327665" width="4.857" height="1.556" fill="#b3b3b3"/>
              </g>
            </g>
            <g id="Grupo_879128" data-name="Grupo 879128" transform="translate(3.264)">
              <g id="Grupo_879127" data-name="Grupo 879127">
                <path id="Trazado_621896" data-name="Trazado 621896" d="M-47.616,888.946l1.515.875-1.515.875Z" transform="translate(48.285 -887.788)" fill="#0a92cf"/>
                <path id="Trazado_621897" data-name="Trazado 621897" d="M-48.084,892.2v-4.065l3.52,2.033Z" transform="translate(48.084 -888.137)" fill="#b3b3b3"/>
              </g>
            </g>
          </g>
        </g>
        <rect id="Rectángulo_327666" data-name="Rectángulo 327666" width="403.071" height="97.896" transform="translate(0.891 18.206)" fill="#666"/>
        <path id="Trazado_621956" data-name="Trazado 621956" d="M0,0H371.181V115.855H0Z" transform="translate(16.836 58.174)" fill="#afafaf"/>
        <rect id="Rectángulo_327668" data-name="Rectángulo 327668" width="110.487" height="43.542" transform="translate(16.836 190.642)" fill="#666"/>
        <rect id="Rectángulo_327669" data-name="Rectángulo 327669" width="36.708" height="14.521" transform="translate(16.836 296.18)" fill="#999"/>
        <g id="Grupo_879131" data-name="Grupo 879131" transform="translate(16.836 244.292)">
          <path id="Trazado_621898" data-name="Trazado 621898" d="M-52.924,1055.014h0Z" transform="translate(52.924 -1053.217)" fill="#fff"/>
          <rect id="Rectángulo_327670" data-name="Rectángulo 327670" width="110.487" height="3.595" transform="translate(0)" fill="#e6e6e6"/>
        </g>
        <g id="Grupo_879132" data-name="Grupo 879132" transform="translate(16.836 251.741)">
          <path id="Trazado_621899" data-name="Trazado 621899" d="M-52.924,1060.222h0Z" transform="translate(52.924 -1058.424)" fill="#fff"/>
          <rect id="Rectángulo_327671" data-name="Rectángulo 327671" width="110.487" height="3.595" transform="translate(0)" fill="#e6e6e6"/>
        </g>
        <g id="Grupo_879133" data-name="Grupo 879133" transform="translate(16.836 259.19)">
          <path id="Trazado_621900" data-name="Trazado 621900" d="M-52.924,1065.429h0Z" transform="translate(52.924 -1063.632)" fill="#fff"/>
          <rect id="Rectángulo_327672" data-name="Rectángulo 327672" width="110.487" height="3.595" transform="translate(0)" fill="#e6e6e6"/>
        </g>
        <g id="Grupo_879134" data-name="Grupo 879134" transform="translate(16.836 266.639)">
          <path id="Trazado_621901" data-name="Trazado 621901" d="M-52.924,1070.637h0Z" transform="translate(52.924 -1068.839)" fill="#fff"/>
          <rect id="Rectángulo_327673" data-name="Rectángulo 327673" width="110.487" height="3.595" transform="translate(0)" fill="#e6e6e6"/>
        </g>
        <g id="Grupo_879135" data-name="Grupo 879135" transform="translate(16.836 274.088)">
          <path id="Trazado_621902" data-name="Trazado 621902" d="M-52.924,1075.845h0Z" transform="translate(52.924 -1074.047)" fill="#fff"/>
          <rect id="Rectángulo_327674" data-name="Rectángulo 327674" width="110.487" height="3.595" transform="translate(0)" fill="#e6e6e6"/>
        </g>
        <g id="Grupo_879136" data-name="Grupo 879136" transform="translate(16.836 281.537)">
          <path id="Trazado_621903" data-name="Trazado 621903" d="M-52.924,1081.052h0Z" transform="translate(52.924 -1079.255)" fill="#fff"/>
          <rect id="Rectángulo_327675" data-name="Rectángulo 327675" width="110.487" height="3.595" transform="translate(0)" fill="#e6e6e6"/>
        </g>
        <rect id="Rectángulo_327676" data-name="Rectángulo 327676" width="110.487" height="43.542" transform="translate(147.183 190.642)" fill="#666"/>
        <rect id="Rectángulo_327677" data-name="Rectángulo 327677" width="36.708" height="14.521" transform="translate(147.183 296.18)" fill="#999"/>
        <g id="Grupo_879137" data-name="Grupo 879137" transform="translate(147.183 244.292)">
          <path id="Trazado_621904" data-name="Trazado 621904" d="M38.2,1055.014h0Z" transform="translate(-38.201 -1053.217)" fill="#fff"/>
          <rect id="Rectángulo_327678" data-name="Rectángulo 327678" width="110.487" height="3.595" transform="translate(0)" fill="#e6e6e6"/>
        </g>
        <g id="Grupo_879138" data-name="Grupo 879138" transform="translate(147.183 251.741)">
          <path id="Trazado_621905" data-name="Trazado 621905" d="M38.2,1060.222h0Z" transform="translate(-38.201 -1058.424)" fill="#fff"/>
          <rect id="Rectángulo_327679" data-name="Rectángulo 327679" width="110.487" height="3.595" transform="translate(0)" fill="#e6e6e6"/>
        </g>
        <g id="Grupo_879139" data-name="Grupo 879139" transform="translate(147.183 259.19)">
          <path id="Trazado_621906" data-name="Trazado 621906" d="M38.2,1065.429h0Z" transform="translate(-38.201 -1063.632)" fill="#fff"/>
          <rect id="Rectángulo_327680" data-name="Rectángulo 327680" width="110.487" height="3.595" transform="translate(0)" fill="#e6e6e6"/>
        </g>
        <g id="Grupo_879140" data-name="Grupo 879140" transform="translate(147.183 266.639)">
          <path id="Trazado_621907" data-name="Trazado 621907" d="M38.2,1070.637h0Z" transform="translate(-38.201 -1068.839)" fill="#fff"/>
          <rect id="Rectángulo_327681" data-name="Rectángulo 327681" width="110.487" height="3.595" transform="translate(0)" fill="#e6e6e6"/>
        </g>
        <g id="Grupo_879141" data-name="Grupo 879141" transform="translate(147.183 274.088)">
          <path id="Trazado_621908" data-name="Trazado 621908" d="M38.2,1075.845h0Z" transform="translate(-38.201 -1074.047)" fill="#fff"/>
          <rect id="Rectángulo_327682" data-name="Rectángulo 327682" width="110.487" height="3.595" transform="translate(0)" fill="#e6e6e6"/>
        </g>
        <g id="Grupo_879142" data-name="Grupo 879142" transform="translate(147.183 281.537)">
          <path id="Trazado_621909" data-name="Trazado 621909" d="M38.2,1081.052h0Z" transform="translate(-38.201 -1079.255)" fill="#fff"/>
          <rect id="Rectángulo_327683" data-name="Rectángulo 327683" width="110.487" height="3.595" transform="translate(0)" fill="#e6e6e6"/>
        </g>
        <rect id="Rectángulo_327684" data-name="Rectángulo 327684" width="110.487" height="120.058" transform="translate(277.529 190.642)" fill="#666"/>
        <g id="Grupo_879211" data-name="Grupo 879211" transform="translate(3.759 -40.84)">
          <g id="Grupo_879143" data-name="Grupo 879143" transform="translate(283.6 244.292)">
            <path id="Trazado_621910" data-name="Trazado 621910" d="M129.327,1055.014h0Z" transform="translate(-129.327 -1053.217)" fill="#fff"/>
            <rect id="Rectángulo_327686" data-name="Rectángulo 327686" width="90.829" height="3.595" transform="translate(0.001)" fill="#e6e6e6"/>
          </g>
          <g id="Grupo_879144" data-name="Grupo 879144" transform="translate(283.6 251.741)">
            <path id="Trazado_621911" data-name="Trazado 621911" d="M129.327,1060.222h0Z" transform="translate(-129.327 -1058.424)" fill="#fff"/>
            <rect id="Rectángulo_327687" data-name="Rectángulo 327687" width="90.829" height="3.595" transform="translate(0.001 0)" fill="#e6e6e6"/>
          </g>
          <g id="Grupo_879145" data-name="Grupo 879145" transform="translate(283.6 259.189)">
            <path id="Trazado_621912" data-name="Trazado 621912" d="M129.327,1065.429h0Z" transform="translate(-129.327 -1063.632)" fill="#fff"/>
            <rect id="Rectángulo_327688" data-name="Rectángulo 327688" width="90.829" height="3.595" transform="translate(0.001 0)" fill="#e6e6e6"/>
          </g>
          <g id="Grupo_879146" data-name="Grupo 879146" transform="translate(283.6 266.639)">
            <path id="Trazado_621913" data-name="Trazado 621913" d="M129.327,1070.637h0Z" transform="translate(-129.327 -1068.839)" fill="#fff"/>
            <rect id="Rectángulo_327689" data-name="Rectángulo 327689" width="90.829" height="3.595" transform="translate(0.001 0)" fill="#e6e6e6"/>
          </g>
          <g id="Grupo_879147" data-name="Grupo 879147" transform="translate(283.6 274.088)">
            <path id="Trazado_621914" data-name="Trazado 621914" d="M129.327,1075.845h0Z" transform="translate(-129.327 -1074.047)" fill="#fff"/>
            <rect id="Rectángulo_327690" data-name="Rectángulo 327690" width="90.829" height="3.595" transform="translate(0.001 0)" fill="#e6e6e6"/>
          </g>
          <g id="Grupo_879148" data-name="Grupo 879148" transform="translate(283.6 281.537)">
            <path id="Trazado_621915" data-name="Trazado 621915" d="M129.327,1081.052h0Z" transform="translate(-129.327 -1079.255)" fill="#fff"/>
            <rect id="Rectángulo_327691" data-name="Rectángulo 327691" width="90.829" height="3.595" transform="translate(0.001 0)" fill="#e6e6e6"/>
          </g>
        </g>
        <g id="Grupo_879212" data-name="Grupo 879212" transform="translate(3.759 3.482)">
          <g id="Grupo_879143-2" data-name="Grupo 879143" transform="translate(283.6 244.292)">
            <path id="Trazado_621910-2" data-name="Trazado 621910" d="M129.327,1055.014h0Z" transform="translate(-129.327 -1053.217)" fill="#fff"/>
            <rect id="Rectángulo_327686-2" data-name="Rectángulo 327686" width="90.829" height="3.595" transform="translate(0.001)" fill="#e6e6e6"/>
          </g>
          <g id="Grupo_879144-2" data-name="Grupo 879144" transform="translate(283.6 251.741)">
            <path id="Trazado_621911-2" data-name="Trazado 621911" d="M129.327,1060.222h0Z" transform="translate(-129.327 -1058.424)" fill="#fff"/>
            <rect id="Rectángulo_327687-2" data-name="Rectángulo 327687" width="90.829" height="3.595" transform="translate(0.001 0)" fill="#e6e6e6"/>
          </g>
          <g id="Grupo_879145-2" data-name="Grupo 879145" transform="translate(283.6 259.189)">
            <path id="Trazado_621912-2" data-name="Trazado 621912" d="M129.327,1065.429h0Z" transform="translate(-129.327 -1063.632)" fill="#fff"/>
            <rect id="Rectángulo_327688-2" data-name="Rectángulo 327688" width="90.829" height="3.595" transform="translate(0.001 0)" fill="#e6e6e6"/>
          </g>
          <g id="Grupo_879146-2" data-name="Grupo 879146" transform="translate(283.6 266.639)">
            <path id="Trazado_621913-2" data-name="Trazado 621913" d="M129.327,1070.637h0Z" transform="translate(-129.327 -1068.839)" fill="#fff"/>
            <rect id="Rectángulo_327689-2" data-name="Rectángulo 327689" width="90.829" height="3.595" transform="translate(0.001 0)" fill="#e6e6e6"/>
          </g>
          <g id="Grupo_879147-2" data-name="Grupo 879147" transform="translate(283.6 274.088)">
            <path id="Trazado_621914-2" data-name="Trazado 621914" d="M129.327,1075.845h0Z" transform="translate(-129.327 -1074.047)" fill="#fff"/>
            <rect id="Rectángulo_327690-2" data-name="Rectángulo 327690" width="90.829" height="3.595" transform="translate(0.001 0)" fill="#e6e6e6"/>
          </g>
          <g id="Grupo_879148-2" data-name="Grupo 879148" transform="translate(283.6 281.537)">
            <path id="Trazado_621915-2" data-name="Trazado 621915" d="M129.327,1081.052h0Z" transform="translate(-129.327 -1079.255)" fill="#fff"/>
            <rect id="Rectángulo_327691-2" data-name="Rectángulo 327691" width="90.829" height="3.595" transform="translate(0.001 0)" fill="#e6e6e6"/>
          </g>
        </g>
        <g id="Grupo_879149" data-name="Grupo 879149" transform="translate(30.424 106.245)">
          <path id="Trazado_621916" data-name="Trazado 621916" d="M-33.567,976.963l-9.857-9.857,9.857-9.857,1.89,1.89-7.967,7.967,7.967,7.967Z" transform="translate(43.425 -957.249)" fill="#fff"/>
        </g>
        <g id="Grupo_879150" data-name="Grupo 879150" transform="translate(362.681 106.245)">
          <path id="Trazado_621917" data-name="Trazado 621917" d="M190.747,976.963l-1.89-1.89,7.967-7.967-7.967-7.967,1.89-1.89,9.857,9.857Z" transform="translate(-188.857 -957.249)" fill="#fff"/>
        </g>
        <path id="Trazado_621918" data-name="Trazado 621918" d="M75.085,994.365a2.673,2.673,0,1,1-2.673-2.673A2.673,2.673,0,0,1,75.085,994.365Z" transform="translate(122.554 -836.179)" fill="#b3b3b3"/>
        <path id="Trazado_621919" data-name="Trazado 621919" d="M80.3,994.365a2.674,2.674,0,1,1-2.673-2.673A2.674,2.674,0,0,1,80.3,994.365Z" transform="translate(124.799 -836.179)" fill="#e6e6e6"/>
        <path id="Trazado_621920" data-name="Trazado 621920" d="M85.516,994.365a2.673,2.673,0,1,1-2.673-2.673A2.674,2.674,0,0,1,85.516,994.365Z" transform="translate(127.044 -836.179)" fill="#e6e6e6"/>
        <circle id="Elipse_7024" data-name="Elipse 7024" cx="2.228" cy="2.228" r="2.228" transform="translate(393.27 7.383)" fill="red"/>
        <path id="Trazado_621921" data-name="Trazado 621921" d="M209.468,890.363a2.228,2.228,0,1,1-2.229-2.229A2.228,2.228,0,0,1,209.468,890.363Z" transform="translate(180.777 -880.751)" fill="#b3b3b3"/>
        <circle id="Elipse_7025" data-name="Elipse 7025" cx="2.228" cy="2.228" r="2.228" transform="translate(378.308 7.383)" fill="#b3b3b3"/>
        <path id="Trazado_621922" data-name="Trazado 621922" d="M-35.27,890.876l.443-2.974-.953.376a3.877,3.877,0,0,0-2.919-1.336,3.939,3.939,0,0,0-3.934,3.934,3.938,3.938,0,0,0,3.934,3.932,3.94,3.94,0,0,0,2.772-1.16l-.757-.734,0,.089a2.9,2.9,0,0,1-2.011.8,2.93,2.93,0,0,1-2.928-2.927,2.931,2.931,0,0,1,2.928-2.928,2.876,2.876,0,0,1,1.9.731l-.828.328Z" transform="translate(74.19 -881.264)" fill="#b3b3b3"/>
        <path id="Trazado_621923" data-name="Trazado 621923" d="M-31.156,887.863l2.842,2.842h-1.277v3.127H-32.72v-3.127H-34l2.841-2.842Zm0-.857a.853.853,0,0,0-.605.25L-34.6,890.1a.859.859,0,0,0-.186.934.859.859,0,0,0,.792.529h.421v2.27a.856.856,0,0,0,.857.857h3.128a.856.856,0,0,0,.857-.857v-2.27h.421a.859.859,0,0,0,.792-.529.859.859,0,0,0-.186-.934l-2.842-2.842a.854.854,0,0,0-.606-.25Z" transform="translate(77.537 -881.237)" fill="#b3b3b3"/>
      </g>
      <g id="Grupo_879201" data-name="Grupo 879201" transform="translate(349.71 882.973)">
        <rect id="Rectángulo_327692" data-name="Rectángulo 327692" width="335.118" height="404.852" rx="1.577" transform="translate(404.852 0) rotate(90)" fill="#e6e6e6"/>
        <rect id="Rectángulo_327693" data-name="Rectángulo 327693" width="403.07" height="306.949" transform="translate(0.891 18.206)" fill="#fff"/>
        <g id="Grupo_879152" data-name="Grupo 879152" transform="translate(54.555 4.499)">
          <rect id="Rectángulo_327694" data-name="Rectángulo 327694" width="305.448" height="9.798" rx="0.596" transform="translate(0.213 0.213)" fill="#fff"/>
          <path id="Trazado_621924" data-name="Trazado 621924" d="M567.964,896.343H264.222a1.067,1.067,0,0,1-1.066-1.067v-8.092a1.066,1.066,0,0,1,1.066-1.066H567.964a1.067,1.067,0,0,1,1.066,1.066v8.092A1.067,1.067,0,0,1,567.964,896.343Zm-303.743-9.8a.64.64,0,0,0-.639.639v8.092a.64.64,0,0,0,.639.641H567.964a.641.641,0,0,0,.64-.641v-8.092a.641.641,0,0,0-.64-.639Z" transform="translate(-263.156 -886.118)" fill="#ccc"/>
        </g>
        <g id="Grupo_879159" data-name="Grupo 879159" transform="translate(9.064 7.387)">
          <g id="Grupo_879153" data-name="Grupo 879153" transform="translate(1.337 1.364)">
            <path id="Trazado_621925" data-name="Trazado 621925" d="M237.066,889.558h0Z" transform="translate(-232.287 -888.889)" fill="#fff"/>
            <rect id="Rectángulo_327695" data-name="Rectángulo 327695" width="4.779" height="1.337" fill="#b3b3b3"/>
          </g>
          <g id="Grupo_879158" data-name="Grupo 879158">
            <g id="Grupo_879155" data-name="Grupo 879155" transform="translate(1.927 1.254)">
              <g id="Grupo_879154" data-name="Grupo 879154">
                <rect id="Rectángulo_327696" data-name="Rectángulo 327696" width="3.52" height="0.219" transform="translate(0.669 0.668)" fill="#0a92cf"/>
                <rect id="Rectángulo_327697" data-name="Rectángulo 327697" width="4.857" height="1.556" fill="#b3b3b3"/>
              </g>
            </g>
            <g id="Grupo_879157" data-name="Grupo 879157">
              <g id="Grupo_879156" data-name="Grupo 879156">
                <path id="Trazado_621926" data-name="Trazado 621926" d="M233.8,888.946l-1.515.875,1.515.875Z" transform="translate(-230.951 -887.789)" fill="#0a92cf"/>
                <path id="Trazado_621927" data-name="Trazado 621927" d="M234.873,892.2l-3.52-2.032,3.52-2.032Z" transform="translate(-231.353 -888.137)" fill="#b3b3b3"/>
              </g>
            </g>
          </g>
        </g>
        <g id="Grupo_879166" data-name="Grupo 879166" transform="translate(20.496 7.387)">
          <g id="Grupo_879160" data-name="Grupo 879160" transform="translate(0.668 1.364)">
            <path id="Trazado_621928" data-name="Trazado 621928" d="M239.813,889.558h0Z" transform="translate(-239.812 -888.889)" fill="#fff"/>
            <rect id="Rectángulo_327698" data-name="Rectángulo 327698" width="4.779" height="1.337" fill="#b3b3b3"/>
          </g>
          <g id="Grupo_879165" data-name="Grupo 879165">
            <g id="Grupo_879162" data-name="Grupo 879162" transform="translate(0 1.254)">
              <g id="Grupo_879161" data-name="Grupo 879161">
                <rect id="Rectángulo_327699" data-name="Rectángulo 327699" width="3.52" height="0.219" transform="translate(0.668 0.668)" fill="#0a92cf"/>
                <rect id="Rectángulo_327700" data-name="Rectángulo 327700" width="4.856" height="1.556" fill="#b3b3b3"/>
              </g>
            </g>
            <g id="Grupo_879164" data-name="Grupo 879164" transform="translate(3.264)">
              <g id="Grupo_879163" data-name="Grupo 879163">
                <path id="Trazado_621929" data-name="Trazado 621929" d="M242.094,888.946l1.515.875-1.515.875Z" transform="translate(-241.426 -887.789)" fill="#0a92cf"/>
                <path id="Trazado_621930" data-name="Trazado 621930" d="M241.627,892.2v-4.064l3.521,2.032Z" transform="translate(-241.627 -888.137)" fill="#b3b3b3"/>
              </g>
            </g>
          </g>
        </g>
        <circle id="Elipse_7026" data-name="Elipse 7026" cx="2.228" cy="2.228" r="2.228" transform="translate(393.269 7.383)" fill="red"/>
        <circle id="Elipse_7027" data-name="Elipse 7027" cx="2.228" cy="2.228" r="2.228" transform="translate(385.788 7.383)" fill="#b3b3b3"/>
        <path id="Trazado_621931" data-name="Trazado 621931" d="M493.948,890.363a2.228,2.228,0,1,1-2.227-2.229A2.227,2.227,0,0,1,493.948,890.363Z" transform="translate(-111.185 -880.752)" fill="#b3b3b3"/>
        <g id="Grupo_879169" data-name="Grupo 879169" transform="translate(31.558 5.678)">
          <g id="Grupo_879167" data-name="Grupo 879167">
            <path id="Trazado_621932" data-name="Trazado 621932" d="M251.011,894.808a3.933,3.933,0,1,1,3.147-6.291l.11.147-.262,4.766-.126.135A3.95,3.95,0,0,1,251.011,894.808Zm0-6.86a2.927,2.927,0,1,0,0,5.855,2.9,2.9,0,0,0,2.013-.8l.22-4.021A2.9,2.9,0,0,0,251.011,887.948Zm2.5,5.272h0Z" transform="translate(-247.079 -886.942)" fill="#b3b3b3"/>
          </g>
          <g id="Grupo_879168" data-name="Grupo 879168" transform="translate(5.008 0.96)">
            <path id="Trazado_621933" data-name="Trazado 621933" d="M250.58,888.717l2.354,1.87.442-2.973Z" transform="translate(-250.58 -887.613)" fill="#b3b3b3"/>
          </g>
        </g>
        <path id="Trazado_621934" data-name="Trazado 621934" d="M258.555,887.863l2.842,2.842h-1.279v3.127h-3.127v-3.127h-1.279l2.842-2.842Zm0-.857a.858.858,0,0,0-.607.252l-2.841,2.841a.857.857,0,0,0,.605,1.463h.422v2.27a.857.857,0,0,0,.857.857h3.127a.856.856,0,0,0,.857-.857v-2.27h.422A.857.857,0,0,0,262,890.1l-2.841-2.841a.858.858,0,0,0-.607-.252Z" transform="translate(-212.173 -881.237)" fill="#b3b3b3"/>
        <rect id="Rectángulo_327701" data-name="Rectángulo 327701" width="240.834" height="67.717" transform="translate(16.836 30.573)" fill="#666"/>
        <rect id="Rectángulo_327702" data-name="Rectángulo 327702" width="112.936" height="199.458" transform="translate(272.852 52.429)" fill="#eb6f2d"/>
        <rect id="Rectángulo_327703" data-name="Rectángulo 327703" width="120.417" height="11.546" transform="translate(16.836 106.947)" fill="#999"/>
        <rect id="Rectángulo_327704" data-name="Rectángulo 327704" width="13.524" height="11.546" transform="translate(244.145 106.947)" fill="#999"/>
        <rect id="Rectángulo_327705" data-name="Rectángulo 327705" width="13.524" height="11.546" transform="translate(228.496 106.947)" fill="#999"/>
        <g id="Grupo_879170" data-name="Grupo 879170" transform="translate(62.565 292.567)">
          <rect id="Rectángulo_327706" data-name="Rectángulo 327706" width="33.814" height="11.546" transform="translate(0.223 0.223)" fill="#fff"/>
          <path id="Trazado_621935" data-name="Trazado 621935" d="M303.016,1099.5h-34.26v-11.993h34.26Zm-33.813-.446h33.367v-11.1H269.2Z" transform="translate(-268.756 -1087.507)" fill="#ccc"/>
        </g>
        <g id="Grupo_879171" data-name="Grupo 879171" transform="translate(101.139 292.567)">
          <rect id="Rectángulo_327707" data-name="Rectángulo 327707" width="33.814" height="11.546" transform="translate(0.223 0.223)" fill="#fff"/>
          <path id="Trazado_621936" data-name="Trazado 621936" d="M329.983,1099.5h-34.26v-11.993h34.26Zm-33.813-.446h33.368v-11.1H296.169Z" transform="translate(-295.723 -1087.507)" fill="#ccc"/>
        </g>
        <g id="Grupo_879172" data-name="Grupo 879172" transform="translate(62.565 174.401)">
          <rect id="Rectángulo_327708" data-name="Rectángulo 327708" width="33.814" height="11.546" transform="translate(0.223 0.223)" fill="#fff"/>
          <path id="Trazado_621937" data-name="Trazado 621937" d="M303.016,1016.888h-34.26V1004.9h34.26Zm-33.813-.445h33.367v-11.1H269.2Z" transform="translate(-268.756 -1004.897)" fill="#ccc"/>
        </g>
        <g id="Grupo_879173" data-name="Grupo 879173" transform="translate(101.139 174.401)">
          <rect id="Rectángulo_327709" data-name="Rectángulo 327709" width="33.814" height="11.546" transform="translate(0.223 0.223)" fill="#fff"/>
          <path id="Trazado_621938" data-name="Trazado 621938" d="M329.983,1016.888h-34.26V1004.9h34.26Zm-33.813-.445h33.368v-11.1H296.169Z" transform="translate(-295.723 -1004.897)" fill="#ccc"/>
        </g>
        <g id="Grupo_879174" data-name="Grupo 879174" transform="translate(312.956 30.351)">
          <rect id="Rectángulo_327710" data-name="Rectángulo 327710" width="72.609" height="10.928" rx="1.558" transform="translate(0.223 0.223)" fill="#fff"/>
          <path id="Trazado_621939" data-name="Trazado 621939" d="M514.408,915.564H446.255a2.452,2.452,0,0,1-2.45-2.45v-6.473a2.452,2.452,0,0,1,2.45-2.45h68.153a2.453,2.453,0,0,1,2.452,2.45v6.473A2.453,2.453,0,0,1,514.408,915.564Zm-68.153-10.927a2.007,2.007,0,0,0-2.005,2v6.473a2.007,2.007,0,0,0,2.005,2h68.153a2.007,2.007,0,0,0,2.005-2v-6.473a2.007,2.007,0,0,0-2.005-2Z" transform="translate(-443.805 -904.191)" fill="#ccc"/>
        </g>
        <rect id="Rectángulo_327711" data-name="Rectángulo 327711" width="34.585" height="10.928" transform="translate(273.38 30.573)" fill="#c6c6c6"/>
        <g id="Grupo_879175" data-name="Grupo 879175" transform="translate(18.134 127.15)">
          <rect id="Rectángulo_327712" data-name="Rectángulo 327712" width="34.037" height="34.037" fill="#c6c6c6"/>
        </g>
        <g id="Grupo_879176" data-name="Grupo 879176" transform="translate(273.096 259.301)">
          <rect id="Rectángulo_327714" data-name="Rectángulo 327714" width="33.264" height="35.645" fill="#c6c6c6"/>
          <rect id="Rectángulo_327715" data-name="Rectángulo 327715" width="33.264" height="35.645" transform="translate(39.836)" fill="#c6c6c6"/>
          <rect id="Rectángulo_327716" data-name="Rectángulo 327716" width="33.264" height="35.645" transform="translate(79.672)" fill="#c6c6c6"/>
        </g>
        <g id="Grupo_879177" data-name="Grupo 879177" transform="translate(62.788 127.256)">
          <rect id="Rectángulo_327717" data-name="Rectángulo 327717" width="194.881" height="4.584" fill="#e6e6e6"/>
        </g>
        <g id="Grupo_879178" data-name="Grupo 879178" transform="translate(62.788 134.705)">
          <rect id="Rectángulo_327718" data-name="Rectángulo 327718" width="194.881" height="4.584" fill="#e6e6e6"/>
        </g>
        <g id="Grupo_879179" data-name="Grupo 879179" transform="translate(62.788 142.154)">
          <rect id="Rectángulo_327719" data-name="Rectángulo 327719" width="194.881" height="4.584" fill="#e6e6e6"/>
        </g>
        <g id="Grupo_879180" data-name="Grupo 879180" transform="translate(62.788 149.603)">
          <rect id="Rectángulo_327720" data-name="Rectángulo 327720" width="194.881" height="4.584" fill="#e6e6e6"/>
        </g>
        <g id="Grupo_879181" data-name="Grupo 879181" transform="translate(62.788 157.052)">
          <rect id="Rectángulo_327721" data-name="Rectángulo 327721" width="194.882" height="4.584" fill="#e6e6e6"/>
        </g>
        <g id="Grupo_879182" data-name="Grupo 879182" transform="translate(62.788 164.501)">
          <rect id="Rectángulo_327722" data-name="Rectángulo 327722" width="72.388" height="4.584" fill="#e6e6e6"/>
        </g>
        <g id="Grupo_879183" data-name="Grupo 879183" transform="translate(18.134 164.501)">
          <rect id="Rectángulo_327723" data-name="Rectángulo 327723" width="34.037" height="4.584" fill="#e6e6e6"/>
        </g>
        <g id="Grupo_879184" data-name="Grupo 879184" transform="translate(18.134 172.332)">
          <rect id="Rectángulo_327724" data-name="Rectángulo 327724" width="18.433" height="4.584" fill="#e6e6e6"/>
        </g>
        <g id="Grupo_879185" data-name="Grupo 879185" transform="translate(18.134 298.129)">
          <rect id="Rectángulo_327725" data-name="Rectángulo 327725" width="34.037" height="4.584" fill="#e6e6e6"/>
        </g>
        <g id="Grupo_879186" data-name="Grupo 879186" transform="translate(18.134 305.96)">
          <rect id="Rectángulo_327726" data-name="Rectángulo 327726" width="18.433" height="4.584" fill="#e6e6e6"/>
        </g>
        <g id="Grupo_879189" data-name="Grupo 879189" transform="translate(18.134 260.105)">
          <rect id="Rectángulo_327729" data-name="Rectángulo 327729" width="34.037" height="34.037" fill="#c6c6c6"/>
        </g>
        <g id="Grupo_879190" data-name="Grupo 879190" transform="translate(62.788 260.211)">
          <rect id="Rectángulo_327730" data-name="Rectángulo 327730" width="194.881" height="4.584" fill="#e6e6e6"/>
        </g>
        <g id="Grupo_879191" data-name="Grupo 879191" transform="translate(62.788 267.66)">
          <rect id="Rectángulo_327731" data-name="Rectángulo 327731" width="194.881" height="4.584" fill="#e6e6e6"/>
        </g>
        <g id="Grupo_879192" data-name="Grupo 879192" transform="translate(62.788 275.109)">
          <rect id="Rectángulo_327732" data-name="Rectángulo 327732" width="194.881" height="4.584" fill="#e6e6e6"/>
        </g>
        <g id="Grupo_879193" data-name="Grupo 879193" transform="translate(62.788 282.558)">
          <rect id="Rectángulo_327733" data-name="Rectángulo 327733" width="194.881" height="4.584" fill="#e6e6e6"/>
        </g>
        <path id="Trazado_621941" data-name="Trazado 621941" d="M265.694,1003.141v-4.051a4.053,4.053,0,0,0-2.837-3.871l-6.57-2.115v-1.888a9.2,9.2,0,1,0-5.9,0V993.1l-6.57,2.115a3.948,3.948,0,0,0-2.206,1.667,3.756,3.756,0,0,0-.675,2.2v4.051h24.755Z" transform="translate(-218.163 -844.076)" fill="#999"/>
        <path id="Trazado_621942" data-name="Trazado 621942" d="M265.694,1096.09v-4.051a4.052,4.052,0,0,0-2.837-3.871l-6.57-2.116v-1.888a9.2,9.2,0,1,0-5.9,0v1.888l-6.57,2.116a3.947,3.947,0,0,0-2.206,1.666,3.757,3.757,0,0,0-.675,2.2v4.051h24.755Z" transform="translate(-218.163 -804.07)" fill="#999"/>
        <g id="Grupo_879207" data-name="Grupo 879207" transform="translate(73.854 225.452)">
          <rect id="Rectángulo_327730-2" data-name="Rectángulo 327730" width="121.074" height="4.584" fill="#e6e6e6"/>
        </g>
        <path id="Trazado_621940" data-name="Trazado 621940" d="M504.42,1020.408H268.912v83.378H496.778v-70.8Z" transform="translate(-250.777 -858.772)" fill="#666"/>
        <g id="Grupo_879206" data-name="Grupo 879206" transform="translate(34.897 185.3)">
          <rect id="Rectángulo_327730-3" data-name="Rectángulo 327730" width="183.387" height="6.943" fill="#e6e6e6"/>
        </g>
        <g id="Grupo_879208" data-name="Grupo 879208" transform="translate(34.897 205.355)">
          <rect id="Rectángulo_327730-4" data-name="Rectángulo 327730" width="183.387" height="6.943" fill="#e6e6e6"/>
        </g>
        <g id="Grupo_879209" data-name="Grupo 879209" transform="translate(34.897 225.571)">
          <rect id="Rectángulo_327730-5" data-name="Rectángulo 327730" width="183.387" height="6.943" transform="translate(0 0)" fill="#e6e6e6"/>
        </g>
        <g id="Elipse_7029" data-name="Elipse 7029" transform="translate(221.596 164.418)" fill="#fff" stroke="#707070" stroke-width="1">
          <circle cx="10" cy="10" r="10" stroke="none"/>
          <circle cx="10" cy="10" r="9.5" fill="none"/>
        </g>
        <text id="X" transform="translate(231.596 180.418)" fill="#636363" font-size="16" font-family="Roboto-Bold, Roboto" font-weight="700"><tspan x="-5.082" y="0">X</tspan></text>
      </g>
    </g>
    <path id="Trazado_624803" data-name="Trazado 624803" d="M13,0H233a13,13,0,0,1,13,13V142a13,13,0,0,1-13,13H13A13,13,0,0,1,0,142V13A13,13,0,0,1,13,0Z" transform="translate(13312 3435)" fill="#b6e1fd"/>
    <path id="Trazado_624804" data-name="Trazado 624804" d="M.4,15,2.133,5.047l2.919.007a3.319,3.319,0,0,1,2.283.684A2.188,2.188,0,0,1,8,7.645,2.588,2.588,0,0,1,6.2,9.8a1.853,1.853,0,0,1,1,.889,2.484,2.484,0,0,1,.27,1.388,2.9,2.9,0,0,1-1.08,2.136A3.9,3.9,0,0,1,3.862,15ZM2.5,10.345,1.873,13.92l2.03.007a2.432,2.432,0,0,0,1.559-.5,1.94,1.94,0,0,0,.731-1.344,1.593,1.593,0,0,0-.28-1.255,1.527,1.527,0,0,0-1.183-.478ZM2.68,9.292,4.532,9.3A2.386,2.386,0,0,0,6,8.854a1.745,1.745,0,0,0,.7-1.226,1.252,1.252,0,0,0-.284-1.1,1.816,1.816,0,0,0-1.234-.4L3.227,6.12ZM13.262,15a1.657,1.657,0,0,1-.048-.39l.021-.39a3.032,3.032,0,0,1-2.16.916,2.21,2.21,0,0,1-1.589-.619A1.872,1.872,0,0,1,8.928,13a2.277,2.277,0,0,1,1.029-1.835,4.38,4.38,0,0,1,2.526-.66l1.292.007.082-.588A1.352,1.352,0,0,0,13.6,8.878a1.237,1.237,0,0,0-.974-.4A1.908,1.908,0,0,0,11.5,8.79a1.324,1.324,0,0,0-.6.858l-1.244.007A1.983,1.983,0,0,1,10.165,8.5a2.943,2.943,0,0,1,1.142-.779,3.688,3.688,0,0,1,1.442-.263,2.452,2.452,0,0,1,1.8.7,2.173,2.173,0,0,1,.54,1.788l-.6,3.664-.034.526a2.58,2.58,0,0,0,.082.745L14.52,15Zm-1.941-.957a2.158,2.158,0,0,0,1.125-.284,2.847,2.847,0,0,0,.913-.824l.267-1.524-.937-.007a3.547,3.547,0,0,0-1.791.369,1.36,1.36,0,0,0-.7,1.046,1.059,1.059,0,0,0,.243.865A1.156,1.156,0,0,0,11.32,14.043ZM18.648,7.6l-.178.937a2.916,2.916,0,0,1,2.27-1.066,1.835,1.835,0,0,1,1.545.725,2.815,2.815,0,0,1,.369,1.962L21.848,15H20.61l.813-4.862a2.592,2.592,0,0,0,.007-.621A1.022,1.022,0,0,0,20.3,8.54a2.329,2.329,0,0,0-1.955,1.188L17.432,15H16.194l1.285-7.4Zm7.561,0-.178.937A2.916,2.916,0,0,1,28.3,7.467a1.835,1.835,0,0,1,1.545.725,2.815,2.815,0,0,1,.369,1.962L29.408,15H28.171l.813-4.862a2.592,2.592,0,0,0,.007-.621,1.022,1.022,0,0,0-1.128-.976,2.329,2.329,0,0,0-1.955,1.188L24.992,15H23.755L25.04,7.6Zm8.306,7.54a2.667,2.667,0,0,1-2.16-1.019,3.505,3.505,0,0,1-.656-2.536l.034-.294a4.921,4.921,0,0,1,.653-2.01,3.8,3.8,0,0,1,1.309-1.371,3.054,3.054,0,0,1,1.668-.441,2.352,2.352,0,0,1,1.791.759,3.121,3.121,0,0,1,.711,1.982,5.793,5.793,0,0,1-.027.889l-.075.567H32.929a2.5,2.5,0,0,0,.332,1.709,1.57,1.57,0,0,0,1.357.731,2.631,2.631,0,0,0,2.023-.984l.711.6a3.253,3.253,0,0,1-1.2,1.049A3.4,3.4,0,0,1,34.515,15.137ZM35.3,8.5a1.807,1.807,0,0,0-1.336.52,3.693,3.693,0,0,0-.906,1.606l3.6.007.027-.109A2.024,2.024,0,0,0,36.4,9.09,1.3,1.3,0,0,0,35.3,8.5Zm7.875.232-.581-.062a2.117,2.117,0,0,0-1.873,1.073L39.813,15H38.575L39.86,7.6l1.2-.007-.185.861a2.211,2.211,0,0,1,1.853-1,2.27,2.27,0,0,1,.588.1Zm3.931,2.509A4.333,4.333,0,0,1,47.913,8.5a2.745,2.745,0,0,1,4.17-.147V4.5h1.265V15H52.186l-.062-.793a2.575,2.575,0,0,1-2.112.93,2.526,2.526,0,0,1-2.1-1.053,4.382,4.382,0,0,1-.81-2.748Zm1.265.144a3.281,3.281,0,0,0,.52,1.969,1.68,1.68,0,0,0,1.436.711,1.845,1.845,0,0,0,1.757-1.08v-3.4A1.859,1.859,0,0,0,50.34,8.54a1.687,1.687,0,0,0-1.449.718A3.612,3.612,0,0,0,48.371,11.384Zm10.008,3.753a3.232,3.232,0,0,1-2.447-.988,3.666,3.666,0,0,1-.943-2.642v-.232a4.438,4.438,0,0,1,.42-1.965,3.28,3.28,0,0,1,1.176-1.354,2.956,2.956,0,0,1,1.637-.489,2.77,2.77,0,0,1,2.242.95,4.114,4.114,0,0,1,.8,2.721v.526H56.253a2.629,2.629,0,0,0,.639,1.767,2.009,2.009,0,0,0,1.555.673,2.2,2.2,0,0,0,1.135-.273,2.851,2.851,0,0,0,.813-.725l.772.6A3.106,3.106,0,0,1,58.379,15.137Zm-.157-6.631a1.687,1.687,0,0,0-1.285.557,2.708,2.708,0,0,0-.643,1.562H60v-.1a2.409,2.409,0,0,0-.52-1.494A1.588,1.588,0,0,0,58.222,8.506Zm9.687-2.693V7.6h1.381v.978H67.908v4.593a1.027,1.027,0,0,0,.185.667.777.777,0,0,0,.629.222,3.062,3.062,0,0,0,.6-.082V15a3.688,3.688,0,0,1-.971.136,1.575,1.575,0,0,1-1.278-.513,2.2,2.2,0,0,1-.431-1.456V8.581H65.3V7.6h1.347V5.813ZM72.14,15H70.875V7.6H72.14ZM70.772,5.642a.755.755,0,0,1,.188-.52.706.706,0,0,1,.557-.212.717.717,0,0,1,.561.212.747.747,0,0,1,.191.52.722.722,0,0,1-.191.513.73.73,0,0,1-.561.205.718.718,0,0,1-.557-.205A.73.73,0,0,1,70.772,5.642Zm9.639,5.742a4.429,4.429,0,0,1-.772,2.721,2.476,2.476,0,0,1-2.092,1.032,2.713,2.713,0,0,1-2.119-.854v3.562H74.163V7.6h1.155l.062.82a2.605,2.605,0,0,1,2.146-.957,2.522,2.522,0,0,1,2.109,1,4.477,4.477,0,0,1,.776,2.8Zm-1.265-.144a3.268,3.268,0,0,0-.533-1.976A1.718,1.718,0,0,0,77.15,8.54a1.859,1.859,0,0,0-1.723,1.019v3.534A1.863,1.863,0,0,0,77.164,14.1a1.71,1.71,0,0,0,1.446-.721A3.567,3.567,0,0,0,79.146,11.24Zm2.536-.007a4.369,4.369,0,0,1,.427-1.955A3.187,3.187,0,0,1,83.3,7.938a3.238,3.238,0,0,1,1.74-.472,3.119,3.119,0,0,1,2.444,1.046,4.024,4.024,0,0,1,.933,2.782v.089A4.407,4.407,0,0,1,88,13.322a3.14,3.14,0,0,1-1.183,1.336,3.275,3.275,0,0,1-1.767.479,3.111,3.111,0,0,1-2.437-1.046,4,4,0,0,1-.933-2.769Zm1.271.15a3.164,3.164,0,0,0,.571,1.976,1.934,1.934,0,0,0,3.059-.01,3.46,3.46,0,0,0,.567-2.116,3.159,3.159,0,0,0-.578-1.972,1.836,1.836,0,0,0-1.535-.755,1.816,1.816,0,0,0-1.511.745A3.435,3.435,0,0,0,82.954,11.384ZM97.043,8.738a3.79,3.79,0,0,0-.622-.048,1.667,1.667,0,0,0-1.688,1.06V15H93.468V7.6H94.7l.021.854a1.969,1.969,0,0,1,1.764-.991,1.292,1.292,0,0,1,.561.1Zm4.1,6.4a3.232,3.232,0,0,1-2.447-.988,3.666,3.666,0,0,1-.943-2.642v-.232a4.438,4.438,0,0,1,.42-1.965A3.28,3.28,0,0,1,99.35,7.956a2.956,2.956,0,0,1,1.637-.489,2.77,2.77,0,0,1,2.242.95,4.114,4.114,0,0,1,.8,2.721v.526H99.019a2.629,2.629,0,0,0,.639,1.767,2.009,2.009,0,0,0,1.555.673,2.2,2.2,0,0,0,1.135-.273,2.851,2.851,0,0,0,.813-.725l.772.6A3.106,3.106,0,0,1,101.145,15.137Zm-.157-6.631a1.687,1.687,0,0,0-1.285.557,2.708,2.708,0,0,0-.643,1.562h3.705v-.1a2.409,2.409,0,0,0-.52-1.494A1.588,1.588,0,0,0,100.987,8.506Zm7.472,5.6a1.822,1.822,0,0,0,1.183-.41,1.443,1.443,0,0,0,.561-1.025h1.2a2.293,2.293,0,0,1-.437,1.21,2.882,2.882,0,0,1-1.077.916,3.107,3.107,0,0,1-1.425.342,3.047,3.047,0,0,1-2.4-1.008,4.016,4.016,0,0,1-.892-2.758v-.212a4.453,4.453,0,0,1,.4-1.921A3.02,3.02,0,0,1,106.7,7.932a3.233,3.233,0,0,1,1.753-.465,2.966,2.966,0,0,1,2.068.745,2.663,2.663,0,0,1,.878,1.935h-1.2a1.743,1.743,0,0,0-.543-1.179,1.691,1.691,0,0,0-1.207-.461,1.77,1.77,0,0,0-1.494.694,3.259,3.259,0,0,0-.53,2.006v.239a3.194,3.194,0,0,0,.526,1.969A1.779,1.779,0,0,0,108.459,14.1Zm6.077-8.292V7.6h1.381v.978h-1.381v4.593a1.027,1.027,0,0,0,.185.667.777.777,0,0,0,.629.222,3.062,3.062,0,0,0,.6-.082V15a3.688,3.688,0,0,1-.971.136,1.575,1.575,0,0,1-1.278-.513,2.2,2.2,0,0,1-.431-1.456V8.581h-1.347V7.6h1.347V5.813ZM121.96,15a2.657,2.657,0,0,1-.178-.779,2.822,2.822,0,0,1-2.105.916,2.611,2.611,0,0,1-1.794-.619,2,2,0,0,1-.7-1.569,2.091,2.091,0,0,1,.878-1.794,4.141,4.141,0,0,1,2.471-.639h1.23V9.935a1.42,1.42,0,0,0-.4-1.056,1.593,1.593,0,0,0-1.169-.393,1.844,1.844,0,0,0-1.135.342,1.007,1.007,0,0,0-.458.827h-1.271a1.745,1.745,0,0,1,.393-1.07,2.683,2.683,0,0,1,1.066-.817,3.588,3.588,0,0,1,1.48-.3,2.924,2.924,0,0,1,2,.639,2.306,2.306,0,0,1,.752,1.76v3.4a4.162,4.162,0,0,0,.26,1.62V15Zm-2.1-.964a2.223,2.223,0,0,0,1.128-.308,1.861,1.861,0,0,0,.772-.8V11.411h-.991q-2.324,0-2.324,1.36a1.151,1.151,0,0,0,.4.93A1.524,1.524,0,0,0,119.861,14.036ZM126.205,7.6l.041.93a2.7,2.7,0,0,1,2.215-1.066q2.345,0,2.365,2.646V15h-1.265V10.105a1.7,1.7,0,0,0-.366-1.183,1.466,1.466,0,0,0-1.118-.383,1.825,1.825,0,0,0-1.08.328,2.228,2.228,0,0,0-.725.861V15h-1.265V7.6Zm6.228,3.637a4.347,4.347,0,0,1,.8-2.751,2.757,2.757,0,0,1,4.231-.065l.062-.82h1.155v7.219a3.009,3.009,0,0,1-.851,2.263,3.141,3.141,0,0,1-2.287.827,3.8,3.8,0,0,1-1.565-.342,2.7,2.7,0,0,1-1.169-.937l.656-.759a2.473,2.473,0,0,0,1.989,1,1.938,1.938,0,0,0,1.439-.52,1.986,1.986,0,0,0,.516-1.463v-.636a2.6,2.6,0,0,1-2.071.875,2.526,2.526,0,0,1-2.1-1.046A4.571,4.571,0,0,1,132.433,11.24Zm1.271.144a3.316,3.316,0,0,0,.513,1.965,1.666,1.666,0,0,0,1.436.714,1.852,1.852,0,0,0,1.757-1.087V9.6a1.874,1.874,0,0,0-1.743-1.06,1.681,1.681,0,0,0-1.442.718A3.612,3.612,0,0,0,133.7,11.384Zm11.45,2.885a2.686,2.686,0,0,1-2.167.868,2.3,2.3,0,0,1-1.8-.687,2.974,2.974,0,0,1-.625-2.034V7.6h1.265v4.778q0,1.682,1.367,1.682a1.893,1.893,0,0,0,1.928-1.08V7.6h1.265V15h-1.2ZM149.68,15h-1.265V4.5h1.265Zm6.59,0a2.657,2.657,0,0,1-.178-.779,2.822,2.822,0,0,1-2.105.916,2.611,2.611,0,0,1-1.794-.619,2,2,0,0,1-.7-1.569,2.091,2.091,0,0,1,.878-1.794,4.142,4.142,0,0,1,2.471-.639h1.23V9.935a1.42,1.42,0,0,0-.4-1.056,1.593,1.593,0,0,0-1.169-.393,1.844,1.844,0,0,0-1.135.342,1.007,1.007,0,0,0-.458.827h-1.271a1.745,1.745,0,0,1,.393-1.07,2.683,2.683,0,0,1,1.066-.817,3.588,3.588,0,0,1,1.48-.3,2.924,2.924,0,0,1,2,.639,2.306,2.306,0,0,1,.752,1.76v3.4a4.162,4.162,0,0,0,.26,1.62V15Zm-2.1-.964a2.223,2.223,0,0,0,1.128-.308,1.861,1.861,0,0,0,.772-.8V11.411h-.991q-2.324,0-2.324,1.36a1.151,1.151,0,0,0,.4.93A1.524,1.524,0,0,0,154.171,14.036Zm8.723-5.3a3.79,3.79,0,0,0-.622-.048,1.667,1.667,0,0,0-1.688,1.06V15h-1.265V7.6h1.23l.021.854a1.969,1.969,0,0,1,1.764-.991,1.292,1.292,0,0,1,.561.1ZM3.4,31.284,5.229,25.6H6.521L3.869,33H2.905L.226,25.6H1.518Zm7.321,1.853a3.232,3.232,0,0,1-2.447-.988,3.666,3.666,0,0,1-.943-2.642v-.232a4.438,4.438,0,0,1,.42-1.965,3.28,3.28,0,0,1,1.176-1.354,2.956,2.956,0,0,1,1.637-.489,2.77,2.77,0,0,1,2.242.95,4.114,4.114,0,0,1,.8,2.721v.526H8.593a2.629,2.629,0,0,0,.639,1.767,2.009,2.009,0,0,0,1.555.673,2.2,2.2,0,0,0,1.135-.273,2.851,2.851,0,0,0,.813-.725l.772.6A3.106,3.106,0,0,1,10.719,33.137Zm-.157-6.631a1.687,1.687,0,0,0-1.285.557,2.708,2.708,0,0,0-.643,1.562h3.705v-.1a2.409,2.409,0,0,0-.52-1.494A1.588,1.588,0,0,0,10.562,26.506Zm8.08.232a3.79,3.79,0,0,0-.622-.048,1.667,1.667,0,0,0-1.688,1.06V33H15.066V25.6H16.3l.021.854a1.969,1.969,0,0,1,1.764-.991,1.292,1.292,0,0,1,.561.1Zm3.22-2.926V25.6h1.381v.978H21.861v4.593a1.027,1.027,0,0,0,.185.667.777.777,0,0,0,.629.222,3.062,3.062,0,0,0,.6-.082V33a3.688,3.688,0,0,1-.971.136,1.575,1.575,0,0,1-1.278-.513,2.2,2.2,0,0,1-.431-1.456V26.581H19.25V25.6H20.6V23.813ZM26.093,33H24.828V25.6h1.265Zm-1.367-9.358a.755.755,0,0,1,.188-.52.706.706,0,0,1,.557-.212.717.717,0,0,1,.561.212.747.747,0,0,1,.191.52.722.722,0,0,1-.191.513.73.73,0,0,1-.561.205.718.718,0,0,1-.557-.205A.73.73,0,0,1,24.726,23.642ZM31.083,32.1a1.822,1.822,0,0,0,1.183-.41,1.443,1.443,0,0,0,.561-1.025h1.2a2.293,2.293,0,0,1-.437,1.21,2.881,2.881,0,0,1-1.077.916,3.107,3.107,0,0,1-1.425.342,3.047,3.047,0,0,1-2.4-1.008,4.016,4.016,0,0,1-.892-2.758v-.212a4.453,4.453,0,0,1,.4-1.921,3.02,3.02,0,0,1,1.138-1.306,3.233,3.233,0,0,1,1.753-.465,2.966,2.966,0,0,1,2.068.745,2.663,2.663,0,0,1,.878,1.935h-1.2a1.743,1.743,0,0,0-.543-1.179,1.691,1.691,0,0,0-1.207-.461,1.77,1.77,0,0,0-1.494.694,3.259,3.259,0,0,0-.53,2.006v.239a3.194,3.194,0,0,0,.526,1.969A1.779,1.779,0,0,0,31.083,32.1Zm8.928.9a2.657,2.657,0,0,1-.178-.779,2.822,2.822,0,0,1-2.105.916,2.611,2.611,0,0,1-1.794-.619,2,2,0,0,1-.7-1.569,2.091,2.091,0,0,1,.878-1.794,4.142,4.142,0,0,1,2.471-.639h1.23v-.581a1.42,1.42,0,0,0-.4-1.056,1.593,1.593,0,0,0-1.169-.393,1.844,1.844,0,0,0-1.135.342,1.007,1.007,0,0,0-.458.827H35.383a1.745,1.745,0,0,1,.393-1.07,2.683,2.683,0,0,1,1.066-.817,3.588,3.588,0,0,1,1.48-.3,2.924,2.924,0,0,1,2,.639,2.306,2.306,0,0,1,.752,1.76v3.4a4.162,4.162,0,0,0,.26,1.62V33Zm-2.1-.964a2.223,2.223,0,0,0,1.128-.308,1.861,1.861,0,0,0,.772-.8V29.411h-.991q-2.324,0-2.324,1.36a1.151,1.151,0,0,0,.4.93A1.524,1.524,0,0,0,37.912,32.036ZM44.434,33H43.169V22.5h1.265Zm1.982,1.982L45.7,34.49a3.3,3.3,0,0,0,.67-1.846V31.5h1.237v.991a3.114,3.114,0,0,1-.338,1.381A3.233,3.233,0,0,1,46.416,34.982Zm5.947-5.742a4.341,4.341,0,0,1,.8-2.758,2.823,2.823,0,0,1,4.218-.133l.055-.745H58.6v10.24H57.333V32.316a2.654,2.654,0,0,1-2.037.82,2.551,2.551,0,0,1-2.136-1.042,4.438,4.438,0,0,1-.8-2.765Zm1.265.144a3.291,3.291,0,0,0,.537,2,1.707,1.707,0,0,0,1.446.725,1.894,1.894,0,0,0,1.723-1V27.483a1.9,1.9,0,0,0-1.709-.978,1.72,1.72,0,0,0-1.456.728A3.583,3.583,0,0,0,53.628,29.384Zm11.566,2.885a2.686,2.686,0,0,1-2.167.868,2.3,2.3,0,0,1-1.8-.687,2.974,2.974,0,0,1-.625-2.034V25.6h1.265v4.778q0,1.682,1.367,1.682a1.893,1.893,0,0,0,1.928-1.08V25.6h1.265V33h-1.2Zm6.221.868a3.232,3.232,0,0,1-2.447-.988,3.666,3.666,0,0,1-.943-2.642v-.232a4.438,4.438,0,0,1,.42-1.965,3.28,3.28,0,0,1,1.176-1.354,2.956,2.956,0,0,1,1.637-.489,2.77,2.77,0,0,1,2.242.95,4.114,4.114,0,0,1,.8,2.721v.526H69.289a2.629,2.629,0,0,0,.639,1.767,2.009,2.009,0,0,0,1.555.673,2.2,2.2,0,0,0,1.135-.273,2.851,2.851,0,0,0,.813-.725l.772.6A3.106,3.106,0,0,1,71.415,33.137Zm-.157-6.631a1.687,1.687,0,0,0-1.285.557,2.708,2.708,0,0,0-.643,1.562h3.705v-.1a2.409,2.409,0,0,0-.52-1.494A1.588,1.588,0,0,0,71.258,26.506Zm12.277,4.532a.931.931,0,0,0-.386-.8,3.718,3.718,0,0,0-1.347-.489,6.367,6.367,0,0,1-1.524-.492,2.169,2.169,0,0,1-.834-.684,1.635,1.635,0,0,1-.27-.943,1.919,1.919,0,0,1,.769-1.538,3,3,0,0,1,1.965-.629,3.091,3.091,0,0,1,2.041.649,2.063,2.063,0,0,1,.783,1.661H83.46a1.142,1.142,0,0,0-.441-.9,1.652,1.652,0,0,0-1.111-.376,1.729,1.729,0,0,0-1.08.3.947.947,0,0,0-.39.786.767.767,0,0,0,.362.69,4.458,4.458,0,0,0,1.309.444,6.821,6.821,0,0,1,1.535.506,2.239,2.239,0,0,1,.872.708,1.74,1.74,0,0,1,.284,1.008,1.893,1.893,0,0,1-.793,1.589,3.326,3.326,0,0,1-2.058.6,3.725,3.725,0,0,1-1.572-.314,2.557,2.557,0,0,1-1.07-.878,2.117,2.117,0,0,1-.386-1.22h1.265a1.309,1.309,0,0,0,.509,1.008,1.976,1.976,0,0,0,1.254.373,2.039,2.039,0,0,0,1.152-.291A.893.893,0,0,0,83.535,31.038Zm5.981,2.1a3.232,3.232,0,0,1-2.447-.988,3.666,3.666,0,0,1-.943-2.642v-.232a4.438,4.438,0,0,1,.42-1.965,3.28,3.28,0,0,1,1.176-1.354,2.956,2.956,0,0,1,1.637-.489,2.77,2.77,0,0,1,2.242.95,4.114,4.114,0,0,1,.8,2.721v.526H87.391a2.629,2.629,0,0,0,.639,1.767,2.009,2.009,0,0,0,1.555.673,2.2,2.2,0,0,0,1.135-.273,2.851,2.851,0,0,0,.813-.725l.772.6A3.106,3.106,0,0,1,89.517,33.137Zm-.157-6.631a1.687,1.687,0,0,0-1.285.557,2.708,2.708,0,0,0-.643,1.562h3.705v-.1a2.409,2.409,0,0,0-.52-1.494A1.588,1.588,0,0,0,89.359,26.506ZM100.3,32.1a1.822,1.822,0,0,0,1.183-.41,1.443,1.443,0,0,0,.561-1.025h1.2a2.293,2.293,0,0,1-.437,1.21,2.881,2.881,0,0,1-1.077.916,3.107,3.107,0,0,1-1.425.342,3.047,3.047,0,0,1-2.4-1.008A4.016,4.016,0,0,1,97,29.37v-.212a4.453,4.453,0,0,1,.4-1.921,3.02,3.02,0,0,1,1.138-1.306,3.233,3.233,0,0,1,1.753-.465,2.966,2.966,0,0,1,2.068.745,2.663,2.663,0,0,1,.878,1.935h-1.2a1.743,1.743,0,0,0-.543-1.179,1.691,1.691,0,0,0-1.207-.461A1.77,1.77,0,0,0,98.8,27.2a3.259,3.259,0,0,0-.53,2.006v.239a3.194,3.194,0,0,0,.526,1.969A1.779,1.779,0,0,0,100.3,32.1Zm4.026-2.871a4.369,4.369,0,0,1,.427-1.955,3.187,3.187,0,0,1,1.189-1.34,3.238,3.238,0,0,1,1.74-.472,3.119,3.119,0,0,1,2.444,1.046,4.024,4.024,0,0,1,.933,2.782v.089a4.407,4.407,0,0,1-.414,1.938,3.14,3.14,0,0,1-1.183,1.336,3.275,3.275,0,0,1-1.767.479,3.111,3.111,0,0,1-2.437-1.046,4,4,0,0,1-.933-2.769Zm1.271.15a3.164,3.164,0,0,0,.571,1.976,1.934,1.934,0,0,0,3.059-.01,3.46,3.46,0,0,0,.567-2.116,3.159,3.159,0,0,0-.578-1.972,1.836,1.836,0,0,0-1.535-.755,1.816,1.816,0,0,0-1.511.745A3.434,3.434,0,0,0,105.595,29.384ZM114.017,33h-1.265V22.5h1.265Zm1.688-3.767a4.369,4.369,0,0,1,.427-1.955,3.187,3.187,0,0,1,1.189-1.34,3.238,3.238,0,0,1,1.74-.472,3.119,3.119,0,0,1,2.444,1.046,4.024,4.024,0,0,1,.933,2.782v.089a4.407,4.407,0,0,1-.414,1.938,3.14,3.14,0,0,1-1.183,1.336,3.275,3.275,0,0,1-1.767.479,3.111,3.111,0,0,1-2.437-1.046,4,4,0,0,1-.933-2.769Zm1.271.15a3.164,3.164,0,0,0,.571,1.976,1.934,1.934,0,0,0,3.059-.01,3.46,3.46,0,0,0,.567-2.116,3.159,3.159,0,0,0-.578-1.972,1.836,1.836,0,0,0-1.535-.755,1.816,1.816,0,0,0-1.511.745A3.434,3.434,0,0,0,116.977,29.384ZM126.991,32.1a1.822,1.822,0,0,0,1.183-.41,1.443,1.443,0,0,0,.561-1.025h1.2a2.293,2.293,0,0,1-.437,1.21,2.881,2.881,0,0,1-1.077.916,3.107,3.107,0,0,1-1.425.342,3.047,3.047,0,0,1-2.4-1.008,4.016,4.016,0,0,1-.892-2.758v-.212a4.453,4.453,0,0,1,.4-1.921,3.02,3.02,0,0,1,1.138-1.306,3.233,3.233,0,0,1,1.753-.465,2.966,2.966,0,0,1,2.068.745,2.663,2.663,0,0,1,.878,1.935h-1.2a1.743,1.743,0,0,0-.543-1.179,1.691,1.691,0,0,0-1.207-.461,1.77,1.77,0,0,0-1.494.694,3.259,3.259,0,0,0-.53,2.006v.239a3.194,3.194,0,0,0,.526,1.969A1.779,1.779,0,0,0,126.991,32.1Zm8.928.9a2.657,2.657,0,0,1-.178-.779,2.822,2.822,0,0,1-2.105.916,2.611,2.611,0,0,1-1.794-.619,2,2,0,0,1-.7-1.569,2.091,2.091,0,0,1,.878-1.794,4.142,4.142,0,0,1,2.471-.639h1.23v-.581a1.42,1.42,0,0,0-.4-1.056,1.593,1.593,0,0,0-1.169-.393,1.844,1.844,0,0,0-1.135.342,1.007,1.007,0,0,0-.458.827h-1.271a1.745,1.745,0,0,1,.393-1.07,2.683,2.683,0,0,1,1.066-.817,3.588,3.588,0,0,1,1.48-.3,2.924,2.924,0,0,1,2,.639,2.306,2.306,0,0,1,.752,1.76v3.4a4.162,4.162,0,0,0,.26,1.62V33Zm-2.1-.964a2.223,2.223,0,0,0,1.128-.308,1.861,1.861,0,0,0,.772-.8V29.411h-.991q-2.324,0-2.324,1.36a1.151,1.151,0,0,0,.4.93A1.524,1.524,0,0,0,133.82,32.036Zm11.683,1.1a3.232,3.232,0,0,1-2.447-.988,3.666,3.666,0,0,1-.943-2.642v-.232a4.438,4.438,0,0,1,.42-1.965,3.279,3.279,0,0,1,1.176-1.354,2.956,2.956,0,0,1,1.637-.489,2.77,2.77,0,0,1,2.242.95,4.114,4.114,0,0,1,.8,2.721v.526h-5.011a2.629,2.629,0,0,0,.639,1.767,2.009,2.009,0,0,0,1.555.673,2.2,2.2,0,0,0,1.135-.273,2.851,2.851,0,0,0,.813-.725l.772.6A3.106,3.106,0,0,1,145.5,33.137Zm-.157-6.631a1.687,1.687,0,0,0-1.285.557,2.708,2.708,0,0,0-.643,1.562h3.705v-.1a2.409,2.409,0,0,0-.52-1.494A1.588,1.588,0,0,0,145.346,26.506Zm5.7-.9.041.93a2.7,2.7,0,0,1,2.215-1.066q2.345,0,2.365,2.646V33H154.4V28.105a1.7,1.7,0,0,0-.366-1.183,1.466,1.466,0,0,0-1.118-.383,1.825,1.825,0,0,0-1.08.328,2.228,2.228,0,0,0-.725.861V33h-1.265V25.6Zm13.063,7.533a3.232,3.232,0,0,1-2.447-.988,3.666,3.666,0,0,1-.943-2.642v-.232a4.438,4.438,0,0,1,.42-1.965,3.279,3.279,0,0,1,1.176-1.354,2.956,2.956,0,0,1,1.637-.489,2.77,2.77,0,0,1,2.242.95,4.114,4.114,0,0,1,.8,2.721v.526h-5.011a2.629,2.629,0,0,0,.639,1.767,2.009,2.009,0,0,0,1.555.673,2.2,2.2,0,0,0,1.135-.273,2.851,2.851,0,0,0,.813-.725l.772.6A3.106,3.106,0,0,1,164.11,33.137Zm-.157-6.631a1.687,1.687,0,0,0-1.285.557,2.708,2.708,0,0,0-.643,1.562h3.705v-.1a2.409,2.409,0,0,0-.52-1.494A1.588,1.588,0,0,0,163.953,26.506ZM169.832,33h-1.265V22.5h1.265ZM5.523,51a2.657,2.657,0,0,1-.178-.779,2.822,2.822,0,0,1-2.105.916,2.611,2.611,0,0,1-1.794-.619,2,2,0,0,1-.7-1.569,2.091,2.091,0,0,1,.878-1.794,4.142,4.142,0,0,1,2.471-.639h1.23v-.581a1.42,1.42,0,0,0-.4-1.056,1.593,1.593,0,0,0-1.169-.393,1.844,1.844,0,0,0-1.135.342,1.007,1.007,0,0,0-.458.827H.9a1.745,1.745,0,0,1,.393-1.07,2.683,2.683,0,0,1,1.066-.817,3.588,3.588,0,0,1,1.48-.3,2.924,2.924,0,0,1,2,.639,2.306,2.306,0,0,1,.752,1.76v3.4a4.162,4.162,0,0,0,.26,1.62V51Zm-2.1-.964a2.223,2.223,0,0,0,1.128-.308,1.861,1.861,0,0,0,.772-.8V47.411H4.334q-2.324,0-2.324,1.36a1.151,1.151,0,0,0,.4.93A1.524,1.524,0,0,0,3.425,50.036ZM4.594,40.5H6.125L4.293,42.51l-1.019,0Zm7.554,4.238a3.79,3.79,0,0,0-.622-.048,1.667,1.667,0,0,0-1.688,1.06V51H8.572V43.6H9.8l.021.854a1.969,1.969,0,0,1,1.764-.991,1.292,1.292,0,0,1,.561.1Zm4.1,6.4a3.232,3.232,0,0,1-2.447-.988,3.666,3.666,0,0,1-.943-2.642v-.232a4.438,4.438,0,0,1,.42-1.965,3.28,3.28,0,0,1,1.176-1.354,2.956,2.956,0,0,1,1.637-.489,2.77,2.77,0,0,1,2.242.95,4.114,4.114,0,0,1,.8,2.721v.526H14.123a2.629,2.629,0,0,0,.639,1.767,2.009,2.009,0,0,0,1.555.673,2.2,2.2,0,0,0,1.135-.273,2.851,2.851,0,0,0,.813-.725l.772.6A3.106,3.106,0,0,1,16.249,51.137Zm-.157-6.631a1.687,1.687,0,0,0-1.285.557,2.708,2.708,0,0,0-.643,1.562h3.705v-.1a2.409,2.409,0,0,0-.52-1.494A1.588,1.588,0,0,0,16.092,44.506ZM25.163,51a2.657,2.657,0,0,1-.178-.779,2.822,2.822,0,0,1-2.105.916,2.611,2.611,0,0,1-1.794-.619,2,2,0,0,1-.7-1.569,2.091,2.091,0,0,1,.878-1.794,4.142,4.142,0,0,1,2.471-.639h1.23v-.581a1.42,1.42,0,0,0-.4-1.056,1.593,1.593,0,0,0-1.169-.393,1.844,1.844,0,0,0-1.135.342,1.007,1.007,0,0,0-.458.827H20.535a1.745,1.745,0,0,1,.393-1.07,2.683,2.683,0,0,1,1.066-.817,3.588,3.588,0,0,1,1.48-.3,2.924,2.924,0,0,1,2,.639,2.306,2.306,0,0,1,.752,1.76v3.4a4.162,4.162,0,0,0,.26,1.62V51Zm-2.1-.964a2.223,2.223,0,0,0,1.128-.308,1.861,1.861,0,0,0,.772-.8V47.411h-.991q-2.324,0-2.324,1.36a1.151,1.151,0,0,0,.4.93A1.524,1.524,0,0,0,23.064,50.036ZM33.052,51H31.787V40.5h1.265Zm6.59,0a2.657,2.657,0,0,1-.178-.779,2.822,2.822,0,0,1-2.105.916,2.611,2.611,0,0,1-1.794-.619,2,2,0,0,1-.7-1.569,2.091,2.091,0,0,1,.878-1.794,4.142,4.142,0,0,1,2.471-.639h1.23v-.581a1.42,1.42,0,0,0-.4-1.056,1.593,1.593,0,0,0-1.169-.393,1.844,1.844,0,0,0-1.135.342,1.007,1.007,0,0,0-.458.827H35.014a1.745,1.745,0,0,1,.393-1.07,2.683,2.683,0,0,1,1.066-.817,3.588,3.588,0,0,1,1.48-.3,2.924,2.924,0,0,1,2,.639,2.306,2.306,0,0,1,.752,1.76v3.4a4.162,4.162,0,0,0,.26,1.62V51Zm-2.1-.964a2.223,2.223,0,0,0,1.128-.308,1.861,1.861,0,0,0,.772-.8V47.411h-.991q-2.324,0-2.324,1.36a1.151,1.151,0,0,0,.4.93A1.524,1.524,0,0,0,37.543,50.036Zm6.863-8.224V43.6h1.381v.978H44.406v4.593a1.027,1.027,0,0,0,.185.667.777.777,0,0,0,.629.222,3.062,3.062,0,0,0,.6-.082V51a3.688,3.688,0,0,1-.971.136,1.575,1.575,0,0,1-1.278-.513,2.2,2.2,0,0,1-.431-1.456V44.581H41.795V43.6h1.347V41.813Zm5.927,9.324a3.232,3.232,0,0,1-2.447-.988,3.666,3.666,0,0,1-.943-2.642v-.232a4.438,4.438,0,0,1,.42-1.965,3.28,3.28,0,0,1,1.176-1.354,2.956,2.956,0,0,1,1.637-.489,2.77,2.77,0,0,1,2.242.95,4.114,4.114,0,0,1,.8,2.721v.526H48.207a2.629,2.629,0,0,0,.639,1.767A2.009,2.009,0,0,0,50.4,50.1a2.2,2.2,0,0,0,1.135-.273,2.851,2.851,0,0,0,.813-.725l.772.6A3.106,3.106,0,0,1,50.333,51.137Zm-.157-6.631a1.687,1.687,0,0,0-1.285.557,2.708,2.708,0,0,0-.643,1.562h3.705v-.1a2.409,2.409,0,0,0-.52-1.494A1.588,1.588,0,0,0,50.176,44.506Zm8.08.232a3.79,3.79,0,0,0-.622-.048,1.667,1.667,0,0,0-1.688,1.06V51H54.681V43.6h1.23l.021.854a1.969,1.969,0,0,1,1.764-.991,1.292,1.292,0,0,1,.561.1ZM63.711,51a2.657,2.657,0,0,1-.178-.779,2.822,2.822,0,0,1-2.105.916,2.611,2.611,0,0,1-1.794-.619,2,2,0,0,1-.7-1.569,2.091,2.091,0,0,1,.878-1.794,4.142,4.142,0,0,1,2.471-.639h1.23v-.581a1.42,1.42,0,0,0-.4-1.056,1.593,1.593,0,0,0-1.169-.393,1.844,1.844,0,0,0-1.135.342,1.007,1.007,0,0,0-.458.827H59.083a1.745,1.745,0,0,1,.393-1.07,2.683,2.683,0,0,1,1.066-.817,3.588,3.588,0,0,1,1.48-.3,2.924,2.924,0,0,1,2,.639,2.306,2.306,0,0,1,.752,1.76v3.4a4.162,4.162,0,0,0,.26,1.62V51Zm-2.1-.964a2.223,2.223,0,0,0,1.128-.308,1.861,1.861,0,0,0,.772-.8V47.411h-.991q-2.324,0-2.324,1.36a1.151,1.151,0,0,0,.4.93A1.524,1.524,0,0,0,61.612,50.036ZM68.134,51H66.869V40.5h1.265Zm5.182-3.76a4.333,4.333,0,0,1,.807-2.738,2.745,2.745,0,0,1,4.17-.147V40.5h1.265V51H78.395l-.062-.793a2.575,2.575,0,0,1-2.112.93,2.526,2.526,0,0,1-2.1-1.053,4.382,4.382,0,0,1-.81-2.748Zm1.265.144a3.281,3.281,0,0,0,.52,1.969,1.68,1.68,0,0,0,1.436.711,1.845,1.845,0,0,0,1.757-1.08v-3.4a1.859,1.859,0,0,0-1.743-1.046,1.687,1.687,0,0,0-1.449.718A3.612,3.612,0,0,0,74.58,47.384Zm10.008,3.753a3.232,3.232,0,0,1-2.447-.988,3.666,3.666,0,0,1-.943-2.642v-.232a4.438,4.438,0,0,1,.42-1.965,3.28,3.28,0,0,1,1.176-1.354,2.956,2.956,0,0,1,1.637-.489,2.77,2.77,0,0,1,2.242.95,4.114,4.114,0,0,1,.8,2.721v.526H82.462a2.629,2.629,0,0,0,.639,1.767,2.009,2.009,0,0,0,1.555.673,2.2,2.2,0,0,0,1.135-.273,2.851,2.851,0,0,0,.813-.725l.772.6A3.106,3.106,0,0,1,84.588,51.137Zm-.157-6.631a1.687,1.687,0,0,0-1.285.557,2.708,2.708,0,0,0-.643,1.562h3.705v-.1a2.409,2.409,0,0,0-.52-1.494A1.588,1.588,0,0,0,84.431,44.506ZM93.775,51H92.511V40.5h1.265Zm6.59,0a2.657,2.657,0,0,1-.178-.779,2.822,2.822,0,0,1-2.105.916,2.611,2.611,0,0,1-1.794-.619,2,2,0,0,1-.7-1.569,2.091,2.091,0,0,1,.878-1.794,4.142,4.142,0,0,1,2.471-.639h1.23v-.581a1.42,1.42,0,0,0-.4-1.056,1.593,1.593,0,0,0-1.169-.393,1.844,1.844,0,0,0-1.135.342,1.007,1.007,0,0,0-.458.827H95.737a1.745,1.745,0,0,1,.393-1.07,2.683,2.683,0,0,1,1.066-.817,3.588,3.588,0,0,1,1.48-.3,2.924,2.924,0,0,1,2,.639,2.306,2.306,0,0,1,.752,1.76v3.4a4.162,4.162,0,0,0,.26,1.62V51Zm-2.1-.964a2.223,2.223,0,0,0,1.128-.308,1.861,1.861,0,0,0,.772-.8V47.411h-.991q-2.324,0-2.324,1.36a1.151,1.151,0,0,0,.4.93A1.524,1.524,0,0,0,98.267,50.036Zm14.861-2.652a4.429,4.429,0,0,1-.772,2.721,2.476,2.476,0,0,1-2.092,1.032,2.713,2.713,0,0,1-2.119-.854v3.562H106.88V43.6h1.155l.062.82a2.605,2.605,0,0,1,2.146-.957,2.522,2.522,0,0,1,2.109,1,4.477,4.477,0,0,1,.776,2.8Zm-1.265-.144a3.268,3.268,0,0,0-.533-1.976,1.718,1.718,0,0,0-1.463-.725,1.859,1.859,0,0,0-1.723,1.019v3.534a1.863,1.863,0,0,0,1.736,1.012,1.71,1.71,0,0,0,1.446-.721A3.567,3.567,0,0,0,111.863,47.24ZM119.3,51a2.657,2.657,0,0,1-.178-.779,2.822,2.822,0,0,1-2.105.916,2.611,2.611,0,0,1-1.794-.619,2,2,0,0,1-.7-1.569,2.091,2.091,0,0,1,.878-1.794,4.142,4.142,0,0,1,2.471-.639h1.23v-.581a1.42,1.42,0,0,0-.4-1.056,1.593,1.593,0,0,0-1.169-.393,1.844,1.844,0,0,0-1.135.342,1.007,1.007,0,0,0-.458.827h-1.271a1.745,1.745,0,0,1,.393-1.07,2.683,2.683,0,0,1,1.066-.817,3.588,3.588,0,0,1,1.48-.3,2.924,2.924,0,0,1,2,.639,2.306,2.306,0,0,1,.752,1.76v3.4a4.162,4.162,0,0,0,.26,1.62V51Zm-2.1-.964a2.223,2.223,0,0,0,1.128-.308,1.861,1.861,0,0,0,.772-.8V47.411h-.991q-2.324,0-2.324,1.36a1.151,1.151,0,0,0,.4.93A1.524,1.524,0,0,0,117.2,50.036Zm1.169-9.536H119.9l-1.832,2.01-1.019,0Zm3.678,6.74a4.347,4.347,0,0,1,.8-2.751,2.757,2.757,0,0,1,4.231-.065l.062-.82H128.3v7.219a3.009,3.009,0,0,1-.851,2.263,3.141,3.141,0,0,1-2.287.827,3.8,3.8,0,0,1-1.565-.342,2.7,2.7,0,0,1-1.169-.937l.656-.759a2.473,2.473,0,0,0,1.989,1,1.938,1.938,0,0,0,1.439-.52,1.986,1.986,0,0,0,.516-1.463v-.636a2.6,2.6,0,0,1-2.071.875,2.527,2.527,0,0,1-2.1-1.046A4.571,4.571,0,0,1,122.049,47.24Zm1.271.144a3.316,3.316,0,0,0,.513,1.965,1.666,1.666,0,0,0,1.436.714,1.852,1.852,0,0,0,1.757-1.087V45.6a1.874,1.874,0,0,0-1.743-1.06,1.681,1.681,0,0,0-1.442.718A3.612,3.612,0,0,0,123.32,47.384ZM131.578,51h-1.265V43.6h1.265Zm-1.367-9.358a.755.755,0,0,1,.188-.52.706.706,0,0,1,.557-.212.717.717,0,0,1,.561.212.747.747,0,0,1,.191.52.722.722,0,0,1-.191.513.73.73,0,0,1-.561.205.718.718,0,0,1-.557-.205A.73.73,0,0,1,130.211,41.642ZM134.8,43.6l.041.93a2.7,2.7,0,0,1,2.215-1.066q2.345,0,2.365,2.646V51h-1.265V46.105a1.7,1.7,0,0,0-.366-1.183,1.466,1.466,0,0,0-1.118-.383,1.825,1.825,0,0,0-1.08.328,2.228,2.228,0,0,0-.725.861V51H133.6V43.6ZM145.893,51a2.657,2.657,0,0,1-.178-.779,2.822,2.822,0,0,1-2.105.916,2.611,2.611,0,0,1-1.794-.619,2,2,0,0,1-.7-1.569,2.091,2.091,0,0,1,.878-1.794,4.142,4.142,0,0,1,2.471-.639h1.23v-.581a1.42,1.42,0,0,0-.4-1.056,1.593,1.593,0,0,0-1.169-.393,1.844,1.844,0,0,0-1.135.342,1.007,1.007,0,0,0-.458.827h-1.271a1.745,1.745,0,0,1,.393-1.07,2.683,2.683,0,0,1,1.066-.817,3.588,3.588,0,0,1,1.48-.3,2.924,2.924,0,0,1,2,.639,2.306,2.306,0,0,1,.752,1.76v3.4a4.162,4.162,0,0,0,.26,1.62V51Zm-2.1-.964a2.223,2.223,0,0,0,1.128-.308,1.861,1.861,0,0,0,.772-.8V47.411H144.7q-2.324,0-2.324,1.36a1.151,1.151,0,0,0,.4.93A1.524,1.524,0,0,0,143.794,50.036Zm15.162-.779,1.422-5.653h1.265L159.489,51h-1.025l-1.8-5.605L154.916,51h-1.025l-2.146-7.4H153l1.456,5.537,1.723-5.537H157.2ZM166,51.137a3.232,3.232,0,0,1-2.447-.988,3.666,3.666,0,0,1-.943-2.642v-.232a4.438,4.438,0,0,1,.42-1.965,3.279,3.279,0,0,1,1.176-1.354,2.956,2.956,0,0,1,1.637-.489,2.77,2.77,0,0,1,2.242.95,4.114,4.114,0,0,1,.8,2.721v.526h-5.011a2.629,2.629,0,0,0,.639,1.767,2.009,2.009,0,0,0,1.555.673,2.2,2.2,0,0,0,1.135-.273,2.851,2.851,0,0,0,.813-.725l.772.6A3.106,3.106,0,0,1,166,51.137Zm-.157-6.631a1.687,1.687,0,0,0-1.285.557,2.708,2.708,0,0,0-.643,1.562h3.705v-.1a2.409,2.409,0,0,0-.52-1.494A1.588,1.588,0,0,0,165.84,44.506Zm10.767,2.878a4.4,4.4,0,0,1-.779,2.724,2.49,2.49,0,0,1-2.092,1.029,2.578,2.578,0,0,1-2.167-.991l-.062.854h-1.162V40.5h1.265v3.917a2.564,2.564,0,0,1,2.112-.95,2.505,2.505,0,0,1,2.116,1.019,4.53,4.53,0,0,1,.769,2.789Zm-1.265-.144a3.417,3.417,0,0,0-.5-2,1.652,1.652,0,0,0-1.436-.7,1.857,1.857,0,0,0-1.8,1.162v3.2a1.909,1.909,0,0,0,1.812,1.162,1.643,1.643,0,0,0,1.415-.7A3.634,3.634,0,0,0,175.342,47.24Zm2.885,3.1a.792.792,0,0,1,.195-.547.742.742,0,0,1,.584-.219.765.765,0,0,1,.591.219.776.776,0,0,1,.2.547.734.734,0,0,1-.2.526.778.778,0,0,1-.591.212.7.7,0,0,1-.779-.738ZM2.563,69H1.251V59.047H2.563Zm1.894-3.76A4.333,4.333,0,0,1,5.264,62.5a2.551,2.551,0,0,1,2.112-1.036,2.565,2.565,0,0,1,2.058.889V58.5H10.7V69H9.536l-.062-.793a2.575,2.575,0,0,1-2.112.93,2.526,2.526,0,0,1-2.1-1.053,4.382,4.382,0,0,1-.81-2.748Zm1.265.144a3.281,3.281,0,0,0,.52,1.969,1.68,1.68,0,0,0,1.436.711,1.845,1.845,0,0,0,1.757-1.08v-3.4A1.859,1.859,0,0,0,7.69,62.54a1.687,1.687,0,0,0-1.449.718A3.612,3.612,0,0,0,5.722,65.384Zm10.008,3.753a3.232,3.232,0,0,1-2.447-.988,3.666,3.666,0,0,1-.943-2.642v-.232a4.438,4.438,0,0,1,.42-1.965,3.28,3.28,0,0,1,1.176-1.354,2.956,2.956,0,0,1,1.637-.489,2.77,2.77,0,0,1,2.242.95,4.114,4.114,0,0,1,.8,2.721v.526H13.6a2.629,2.629,0,0,0,.639,1.767A2.009,2.009,0,0,0,15.8,68.1a2.2,2.2,0,0,0,1.135-.273,2.851,2.851,0,0,0,.813-.725l.772.6A3.106,3.106,0,0,1,15.729,69.137Zm-.157-6.631a1.687,1.687,0,0,0-1.285.557,2.708,2.708,0,0,0-.643,1.562H17.35v-.1a2.409,2.409,0,0,0-.52-1.494A1.588,1.588,0,0,0,15.572,62.506ZM24.644,69a2.657,2.657,0,0,1-.178-.779,2.822,2.822,0,0,1-2.105.916,2.611,2.611,0,0,1-1.794-.619,2,2,0,0,1-.7-1.569,2.091,2.091,0,0,1,.878-1.794,4.141,4.141,0,0,1,2.471-.639h1.23v-.581a1.42,1.42,0,0,0-.4-1.056,1.593,1.593,0,0,0-1.169-.393,1.844,1.844,0,0,0-1.135.342,1.007,1.007,0,0,0-.458.827H20.016a1.745,1.745,0,0,1,.393-1.07,2.683,2.683,0,0,1,1.066-.817,3.588,3.588,0,0,1,1.48-.3,2.924,2.924,0,0,1,2,.639,2.306,2.306,0,0,1,.752,1.76v3.4a4.162,4.162,0,0,0,.26,1.62V69Zm-2.1-.964a2.223,2.223,0,0,0,1.128-.308,1.861,1.861,0,0,0,.772-.8V65.411h-.991q-2.324,0-2.324,1.36a1.151,1.151,0,0,0,.4.93A1.524,1.524,0,0,0,22.545,68.036ZM29.066,69H27.8V58.5h1.265ZM40.8,65.384a4.429,4.429,0,0,1-.772,2.721,2.476,2.476,0,0,1-2.092,1.032,2.713,2.713,0,0,1-2.119-.854v3.562H34.556V61.6h1.155l.062.82a2.605,2.605,0,0,1,2.146-.957,2.522,2.522,0,0,1,2.109,1,4.477,4.477,0,0,1,.776,2.8Zm-1.265-.144a3.268,3.268,0,0,0-.533-1.976,1.718,1.718,0,0,0-1.463-.725,1.859,1.859,0,0,0-1.723,1.019v3.534A1.863,1.863,0,0,0,37.557,68.1,1.71,1.71,0,0,0,39,67.383,3.567,3.567,0,0,0,39.539,65.24ZM46.977,69a2.657,2.657,0,0,1-.178-.779,2.822,2.822,0,0,1-2.105.916,2.611,2.611,0,0,1-1.794-.619,2,2,0,0,1-.7-1.569,2.091,2.091,0,0,1,.878-1.794,4.141,4.141,0,0,1,2.471-.639h1.23v-.581a1.42,1.42,0,0,0-.4-1.056,1.593,1.593,0,0,0-1.169-.393,1.844,1.844,0,0,0-1.135.342,1.007,1.007,0,0,0-.458.827H42.349a1.745,1.745,0,0,1,.393-1.07,2.683,2.683,0,0,1,1.066-.817,3.588,3.588,0,0,1,1.48-.3,2.924,2.924,0,0,1,2,.639,2.306,2.306,0,0,1,.752,1.76v3.4a4.162,4.162,0,0,0,.26,1.62V69Zm-2.1-.964a2.223,2.223,0,0,0,1.128-.308,1.861,1.861,0,0,0,.772-.8V65.411h-.991q-2.324,0-2.324,1.36a1.151,1.151,0,0,0,.4.93A1.524,1.524,0,0,0,44.878,68.036Zm8.723-5.3a3.79,3.79,0,0,0-.622-.048,1.667,1.667,0,0,0-1.688,1.06V69H50.025V61.6h1.23l.021.854a1.969,1.969,0,0,1,1.764-.991,1.292,1.292,0,0,1,.561.1ZM59.056,69a2.657,2.657,0,0,1-.178-.779,2.822,2.822,0,0,1-2.105.916,2.611,2.611,0,0,1-1.794-.619,2,2,0,0,1-.7-1.569,2.091,2.091,0,0,1,.878-1.794,4.141,4.141,0,0,1,2.471-.639h1.23v-.581a1.42,1.42,0,0,0-.4-1.056,1.593,1.593,0,0,0-1.169-.393,1.844,1.844,0,0,0-1.135.342,1.007,1.007,0,0,0-.458.827H54.428a1.745,1.745,0,0,1,.393-1.07,2.683,2.683,0,0,1,1.066-.817,3.588,3.588,0,0,1,1.48-.3,2.924,2.924,0,0,1,2,.639,2.306,2.306,0,0,1,.752,1.76v3.4a4.162,4.162,0,0,0,.26,1.62V69Zm-2.1-.964a2.223,2.223,0,0,0,1.128-.308,1.861,1.861,0,0,0,.772-.8V65.411h-.991q-2.324,0-2.324,1.36a1.151,1.151,0,0,0,.4.93A1.524,1.524,0,0,0,56.957,68.036ZM70.137,69a2.657,2.657,0,0,1-.178-.779,2.822,2.822,0,0,1-2.105.916,2.611,2.611,0,0,1-1.794-.619,2,2,0,0,1-.7-1.569,2.091,2.091,0,0,1,.878-1.794,4.141,4.141,0,0,1,2.471-.639h1.23v-.581a1.42,1.42,0,0,0-.4-1.056,1.593,1.593,0,0,0-1.169-.393,1.844,1.844,0,0,0-1.135.342,1.007,1.007,0,0,0-.458.827H65.509a1.745,1.745,0,0,1,.393-1.07,2.683,2.683,0,0,1,1.066-.817,3.588,3.588,0,0,1,1.48-.3,2.924,2.924,0,0,1,2,.639,2.306,2.306,0,0,1,.752,1.76v3.4a4.162,4.162,0,0,0,.26,1.62V69Zm-2.1-.964a2.223,2.223,0,0,0,1.128-.308,1.861,1.861,0,0,0,.772-.8V65.411h-.991q-2.324,0-2.324,1.36a1.151,1.151,0,0,0,.4.93A1.524,1.524,0,0,0,68.038,68.036Zm8.114.068a1.822,1.822,0,0,0,1.183-.41,1.443,1.443,0,0,0,.561-1.025h1.2a2.293,2.293,0,0,1-.437,1.21,2.882,2.882,0,0,1-1.077.916,3.107,3.107,0,0,1-1.425.342,3.047,3.047,0,0,1-2.4-1.008,4.016,4.016,0,0,1-.892-2.758v-.212a4.453,4.453,0,0,1,.4-1.921,3.02,3.02,0,0,1,1.138-1.306,3.233,3.233,0,0,1,1.753-.465,2.966,2.966,0,0,1,2.068.745,2.663,2.663,0,0,1,.878,1.935H77.9a1.743,1.743,0,0,0-.543-1.179,1.691,1.691,0,0,0-1.207-.461,1.77,1.77,0,0,0-1.494.694,3.259,3.259,0,0,0-.53,2.006v.239a3.194,3.194,0,0,0,.526,1.969A1.779,1.779,0,0,0,76.152,68.1Zm7.328,0a1.822,1.822,0,0,0,1.183-.41,1.443,1.443,0,0,0,.561-1.025h1.2a2.293,2.293,0,0,1-.437,1.21,2.882,2.882,0,0,1-1.077.916,3.107,3.107,0,0,1-1.425.342,3.047,3.047,0,0,1-2.4-1.008,4.016,4.016,0,0,1-.892-2.758v-.212a4.453,4.453,0,0,1,.4-1.921,3.02,3.02,0,0,1,1.138-1.306,3.233,3.233,0,0,1,1.753-.465,2.966,2.966,0,0,1,2.068.745,2.663,2.663,0,0,1,.878,1.935h-1.2a1.743,1.743,0,0,0-.543-1.179,1.691,1.691,0,0,0-1.207-.461,1.77,1.77,0,0,0-1.494.694,3.259,3.259,0,0,0-.53,2.006v.239a3.194,3.194,0,0,0,.526,1.969A1.779,1.779,0,0,0,83.48,68.1Zm5.735.9H87.951V61.6h1.265Zm-1.367-9.358a.755.755,0,0,1,.188-.52.706.706,0,0,1,.557-.212.717.717,0,0,1,.561.212.747.747,0,0,1,.191.52.722.722,0,0,1-.191.513.73.73,0,0,1-.561.205.718.718,0,0,1-.557-.205A.73.73,0,0,1,87.849,59.642ZM90.9,65.233a4.369,4.369,0,0,1,.427-1.955,3.187,3.187,0,0,1,1.189-1.34,3.238,3.238,0,0,1,1.74-.472A3.119,3.119,0,0,1,96.7,62.513a4.024,4.024,0,0,1,.933,2.782v.089a4.407,4.407,0,0,1-.414,1.938,3.14,3.14,0,0,1-1.183,1.336,3.275,3.275,0,0,1-1.767.479,3.111,3.111,0,0,1-2.437-1.046,4,4,0,0,1-.933-2.769Zm1.271.15a3.164,3.164,0,0,0,.571,1.976,1.934,1.934,0,0,0,3.059-.01,3.46,3.46,0,0,0,.567-2.116,3.159,3.159,0,0,0-.578-1.972,1.836,1.836,0,0,0-1.535-.755,1.816,1.816,0,0,0-1.511.745A3.434,3.434,0,0,0,92.176,65.384Zm8.244-3.78.041.93a2.7,2.7,0,0,1,2.215-1.066q2.345,0,2.365,2.646V69h-1.265V64.105a1.7,1.7,0,0,0-.366-1.183,1.466,1.466,0,0,0-1.118-.383,1.825,1.825,0,0,0-1.08.328,2.228,2.228,0,0,0-.725.861V69H99.224V61.6Zm9.6,7.533a3.232,3.232,0,0,1-2.447-.988,3.666,3.666,0,0,1-.943-2.642v-.232a4.438,4.438,0,0,1,.42-1.965,3.28,3.28,0,0,1,1.176-1.354,2.956,2.956,0,0,1,1.637-.489,2.77,2.77,0,0,1,2.242.95,4.114,4.114,0,0,1,.8,2.721v.526h-5.011a2.629,2.629,0,0,0,.639,1.767,2.009,2.009,0,0,0,1.555.673,2.2,2.2,0,0,0,1.135-.273,2.851,2.851,0,0,0,.813-.725l.772.6A3.106,3.106,0,0,1,110.018,69.137Zm-.157-6.631a1.687,1.687,0,0,0-1.285.557,2.708,2.708,0,0,0-.643,1.562h3.705v-.1a2.409,2.409,0,0,0-.52-1.494A1.588,1.588,0,0,0,109.86,62.506Zm8.812,4.532a.931.931,0,0,0-.386-.8,3.718,3.718,0,0,0-1.347-.489,6.367,6.367,0,0,1-1.524-.492,2.169,2.169,0,0,1-.834-.684,1.635,1.635,0,0,1-.27-.943,1.919,1.919,0,0,1,.769-1.538,3,3,0,0,1,1.965-.629,3.091,3.091,0,0,1,2.041.649,2.063,2.063,0,0,1,.783,1.661H118.6a1.142,1.142,0,0,0-.441-.9,1.652,1.652,0,0,0-1.111-.376,1.729,1.729,0,0,0-1.08.3.947.947,0,0,0-.39.786.767.767,0,0,0,.362.69,4.458,4.458,0,0,0,1.309.444,6.821,6.821,0,0,1,1.535.506,2.239,2.239,0,0,1,.872.708,1.74,1.74,0,0,1,.284,1.008,1.893,1.893,0,0,1-.793,1.589,3.326,3.326,0,0,1-2.058.6,3.725,3.725,0,0,1-1.572-.314,2.557,2.557,0,0,1-1.07-.878,2.117,2.117,0,0,1-.386-1.22h1.265a1.309,1.309,0,0,0,.509,1.008,1.976,1.976,0,0,0,1.254.373,2.039,2.039,0,0,0,1.152-.291A.893.893,0,0,0,118.672,67.038Zm6.07-1.8a4.333,4.333,0,0,1,.807-2.738,2.745,2.745,0,0,1,4.17-.147V58.5h1.265V69h-1.162l-.062-.793a2.575,2.575,0,0,1-2.112.93,2.526,2.526,0,0,1-2.1-1.053,4.382,4.382,0,0,1-.81-2.748Zm1.265.144a3.281,3.281,0,0,0,.52,1.969,1.68,1.68,0,0,0,1.436.711,1.845,1.845,0,0,0,1.757-1.08v-3.4a1.859,1.859,0,0,0-1.743-1.046,1.687,1.687,0,0,0-1.449.718A3.612,3.612,0,0,0,126.007,65.384Zm10.008,3.753a3.232,3.232,0,0,1-2.447-.988,3.666,3.666,0,0,1-.943-2.642v-.232a4.438,4.438,0,0,1,.42-1.965,3.279,3.279,0,0,1,1.176-1.354,2.956,2.956,0,0,1,1.637-.489,2.77,2.77,0,0,1,2.242.95,4.114,4.114,0,0,1,.8,2.721v.526h-5.011a2.629,2.629,0,0,0,.639,1.767,2.009,2.009,0,0,0,1.555.673,2.2,2.2,0,0,0,1.135-.273,2.851,2.851,0,0,0,.813-.725l.772.6A3.106,3.106,0,0,1,136.015,69.137Zm-.157-6.631a1.687,1.687,0,0,0-1.285.557,2.708,2.708,0,0,0-.643,1.562h3.705v-.1a2.409,2.409,0,0,0-.52-1.494A1.588,1.588,0,0,0,135.857,62.506ZM7.219,83.384a4.4,4.4,0,0,1-.779,2.724,2.49,2.49,0,0,1-2.092,1.029,2.578,2.578,0,0,1-2.167-.991L2.119,87H.957V76.5H2.222v3.917a2.564,2.564,0,0,1,2.112-.95A2.505,2.505,0,0,1,6.45,80.485a4.53,4.53,0,0,1,.769,2.789ZM5.954,83.24a3.417,3.417,0,0,0-.5-2,1.652,1.652,0,0,0-1.436-.7,1.857,1.857,0,0,0-1.8,1.162v3.2a1.909,1.909,0,0,0,1.812,1.162,1.643,1.643,0,0,0,1.415-.7A3.634,3.634,0,0,0,5.954,83.24Zm6.433-2.5a3.79,3.79,0,0,0-.622-.048,1.667,1.667,0,0,0-1.688,1.06V87H8.812V79.6h1.23l.021.854a1.969,1.969,0,0,1,1.764-.991,1.292,1.292,0,0,1,.561.1ZM17.842,87a2.657,2.657,0,0,1-.178-.779,2.822,2.822,0,0,1-2.105.916,2.611,2.611,0,0,1-1.794-.619,2,2,0,0,1-.7-1.569,2.091,2.091,0,0,1,.878-1.794,4.141,4.141,0,0,1,2.471-.639h1.23v-.581a1.42,1.42,0,0,0-.4-1.056,1.593,1.593,0,0,0-1.169-.393,1.844,1.844,0,0,0-1.135.342,1.007,1.007,0,0,0-.458.827H13.214a1.745,1.745,0,0,1,.393-1.07,2.683,2.683,0,0,1,1.066-.817,3.588,3.588,0,0,1,1.48-.3,2.924,2.924,0,0,1,2,.639,2.306,2.306,0,0,1,.752,1.76v3.4a4.162,4.162,0,0,0,.26,1.62V87Zm-2.1-.964a2.223,2.223,0,0,0,1.128-.308,1.861,1.861,0,0,0,.772-.8V83.411h-.991q-2.324,0-2.324,1.36a1.151,1.151,0,0,0,.4.93A1.524,1.524,0,0,0,15.743,86.036ZM22.087,79.6l.041.93a2.7,2.7,0,0,1,2.215-1.066q2.345,0,2.365,2.646V87H25.443V82.105a1.7,1.7,0,0,0-.366-1.183,1.466,1.466,0,0,0-1.118-.383,1.825,1.825,0,0,0-1.08.328,2.228,2.228,0,0,0-.725.861V87H20.891V79.6Zm6.221,3.637a4.333,4.333,0,0,1,.807-2.738,2.745,2.745,0,0,1,4.17-.147V76.5h1.265V87H33.387l-.062-.793a2.575,2.575,0,0,1-2.112.93,2.526,2.526,0,0,1-2.1-1.053,4.382,4.382,0,0,1-.81-2.748Zm1.265.144a3.281,3.281,0,0,0,.52,1.969,1.68,1.68,0,0,0,1.436.711,1.845,1.845,0,0,0,1.757-1.08v-3.4a1.859,1.859,0,0,0-1.743-1.046,1.687,1.687,0,0,0-1.449.718A3.612,3.612,0,0,0,29.572,83.384ZM37.885,87H36.62V79.6h1.265Zm-1.367-9.358a.755.755,0,0,1,.188-.52.706.706,0,0,1,.557-.212.717.717,0,0,1,.561.212.747.747,0,0,1,.191.52.722.722,0,0,1-.191.513.73.73,0,0,1-.561.205.718.718,0,0,1-.557-.205A.73.73,0,0,1,36.518,77.642ZM41.1,79.6l.041.93a2.7,2.7,0,0,1,2.215-1.066q2.345,0,2.365,2.646V87H44.461V82.105a1.7,1.7,0,0,0-.366-1.183,1.466,1.466,0,0,0-1.118-.383,1.825,1.825,0,0,0-1.08.328,2.228,2.228,0,0,0-.725.861V87H39.908V79.6Zm6.228,3.637a4.347,4.347,0,0,1,.8-2.751,2.757,2.757,0,0,1,4.231-.065l.062-.82H53.58v7.219a3.009,3.009,0,0,1-.851,2.263,3.141,3.141,0,0,1-2.287.827,3.8,3.8,0,0,1-1.565-.342,2.7,2.7,0,0,1-1.169-.937l.656-.759a2.473,2.473,0,0,0,1.989,1,1.938,1.938,0,0,0,1.439-.52,1.986,1.986,0,0,0,.516-1.463v-.636a2.6,2.6,0,0,1-2.071.875,2.526,2.526,0,0,1-2.1-1.046A4.571,4.571,0,0,1,47.332,83.24Zm1.271.144a3.316,3.316,0,0,0,.513,1.965,1.666,1.666,0,0,0,1.436.714,1.852,1.852,0,0,0,1.757-1.087V81.6a1.874,1.874,0,0,0-1.743-1.06,1.681,1.681,0,0,0-1.442.718A3.612,3.612,0,0,0,48.6,83.384Zm6.911,2.953a.792.792,0,0,1,.195-.547.742.742,0,0,1,.584-.219.765.765,0,0,1,.591.219.776.776,0,0,1,.2.547.734.734,0,0,1-.2.526.778.778,0,0,1-.591.212.7.7,0,0,1-.779-.738ZM68.462,82.4H64.148v3.527h5.011V87H62.836V77.047h6.255V78.12H64.148v3.206h4.313Zm4.614-.1,1.641-2.7h1.477l-2.42,3.657L76.269,87H74.806L73.1,84.231,71.388,87h-1.47l2.5-3.739L69.993,79.6h1.463ZM78.907,87H77.643V79.6h1.265ZM77.54,77.642a.755.755,0,0,1,.188-.52.706.706,0,0,1,.557-.212.717.717,0,0,1,.561.212.747.747,0,0,1,.191.52.722.722,0,0,1-.191.513.73.73,0,0,1-.561.205.718.718,0,0,1-.557-.205A.73.73,0,0,1,77.54,77.642Zm7.7,7.4a.931.931,0,0,0-.386-.8,3.718,3.718,0,0,0-1.347-.489,6.367,6.367,0,0,1-1.524-.492,2.169,2.169,0,0,1-.834-.684,1.635,1.635,0,0,1-.27-.943,1.919,1.919,0,0,1,.769-1.538,3,3,0,0,1,1.965-.629,3.091,3.091,0,0,1,2.041.649,2.063,2.063,0,0,1,.783,1.661H85.162a1.142,1.142,0,0,0-.441-.9,1.652,1.652,0,0,0-1.111-.376,1.729,1.729,0,0,0-1.08.3.947.947,0,0,0-.39.786.767.767,0,0,0,.362.69,4.458,4.458,0,0,0,1.309.444,6.821,6.821,0,0,1,1.535.506,2.239,2.239,0,0,1,.872.708,1.74,1.74,0,0,1,.284,1.008,1.893,1.893,0,0,1-.793,1.589,3.326,3.326,0,0,1-2.058.6,3.725,3.725,0,0,1-1.572-.314,2.557,2.557,0,0,1-1.07-.878,2.117,2.117,0,0,1-.386-1.22h1.265a1.309,1.309,0,0,0,.509,1.008,1.976,1.976,0,0,0,1.254.373,2.039,2.039,0,0,0,1.152-.291A.893.893,0,0,0,85.237,85.038Zm4.628-7.226V79.6h1.381v.978H89.865v4.593a1.027,1.027,0,0,0,.185.667.777.777,0,0,0,.629.222,3.062,3.062,0,0,0,.6-.082V87a3.688,3.688,0,0,1-.971.136,1.575,1.575,0,0,1-1.278-.513,2.2,2.2,0,0,1-.431-1.456V80.581H87.254V79.6H88.6V77.813Zm5.927,9.324a3.232,3.232,0,0,1-2.447-.988,3.666,3.666,0,0,1-.943-2.642v-.232a4.438,4.438,0,0,1,.42-1.965A3.28,3.28,0,0,1,94,79.956a2.956,2.956,0,0,1,1.637-.489,2.77,2.77,0,0,1,2.242.95,4.114,4.114,0,0,1,.8,2.721v.526H93.666a2.629,2.629,0,0,0,.639,1.767,2.009,2.009,0,0,0,1.555.673A2.2,2.2,0,0,0,97,85.831a2.851,2.851,0,0,0,.813-.725l.772.6A3.106,3.106,0,0,1,95.792,87.137Zm-.157-6.631a1.687,1.687,0,0,0-1.285.557,2.708,2.708,0,0,0-.643,1.562h3.705v-.1a2.409,2.409,0,0,0-.52-1.494A1.588,1.588,0,0,0,95.635,80.506Zm5.7-.9.041.93a2.7,2.7,0,0,1,2.215-1.066q2.345,0,2.365,2.646V87h-1.265V82.105a1.7,1.7,0,0,0-.366-1.183,1.466,1.466,0,0,0-1.118-.383,1.825,1.825,0,0,0-1.08.328,2.228,2.228,0,0,0-.725.861V87H100.14V79.6Zm13.569,1.135a3.79,3.79,0,0,0-.622-.048,1.667,1.667,0,0,0-1.688,1.06V87H111.33V79.6h1.23l.021.854a1.969,1.969,0,0,1,1.764-.991,1.292,1.292,0,0,1,.561.1ZM120.36,87a2.657,2.657,0,0,1-.178-.779,2.822,2.822,0,0,1-2.105.916,2.611,2.611,0,0,1-1.794-.619,2,2,0,0,1-.7-1.569,2.091,2.091,0,0,1,.878-1.794,4.141,4.141,0,0,1,2.471-.639h1.23v-.581a1.42,1.42,0,0,0-.4-1.056,1.593,1.593,0,0,0-1.169-.393,1.844,1.844,0,0,0-1.135.342,1.007,1.007,0,0,0-.458.827h-1.271a1.745,1.745,0,0,1,.393-1.07,2.683,2.683,0,0,1,1.066-.817,3.588,3.588,0,0,1,1.48-.3,2.924,2.924,0,0,1,2,.639,2.306,2.306,0,0,1,.752,1.76v3.4a4.162,4.162,0,0,0,.26,1.62V87Zm-2.1-.964a2.223,2.223,0,0,0,1.128-.308,1.861,1.861,0,0,0,.772-.8V83.411h-.991q-2.324,0-2.324,1.36a1.151,1.151,0,0,0,.4.93A1.524,1.524,0,0,0,118.262,86.036Zm9.454-1a.931.931,0,0,0-.386-.8,3.718,3.718,0,0,0-1.347-.489,6.367,6.367,0,0,1-1.524-.492,2.169,2.169,0,0,1-.834-.684,1.635,1.635,0,0,1-.27-.943,1.919,1.919,0,0,1,.769-1.538,3,3,0,0,1,1.965-.629,3.091,3.091,0,0,1,2.041.649,2.063,2.063,0,0,1,.783,1.661h-1.271a1.142,1.142,0,0,0-.441-.9,1.652,1.652,0,0,0-1.111-.376,1.729,1.729,0,0,0-1.08.3.947.947,0,0,0-.39.786.767.767,0,0,0,.362.69,4.458,4.458,0,0,0,1.309.444,6.821,6.821,0,0,1,1.535.506,2.239,2.239,0,0,1,.872.708,1.74,1.74,0,0,1,.284,1.008,1.893,1.893,0,0,1-.793,1.589,3.326,3.326,0,0,1-2.058.6,3.725,3.725,0,0,1-1.572-.314,2.557,2.557,0,0,1-1.07-.878,2.117,2.117,0,0,1-.386-1.22h1.265a1.309,1.309,0,0,0,.509,1.008,1.976,1.976,0,0,0,1.254.373,2.039,2.039,0,0,0,1.152-.291A.893.893,0,0,0,127.716,85.038Zm5.879,1.066a1.822,1.822,0,0,0,1.183-.41,1.443,1.443,0,0,0,.561-1.025h1.2a2.293,2.293,0,0,1-.437,1.21,2.881,2.881,0,0,1-1.077.916,3.107,3.107,0,0,1-1.425.342,3.047,3.047,0,0,1-2.4-1.008,4.016,4.016,0,0,1-.892-2.758v-.212a4.453,4.453,0,0,1,.4-1.921,3.02,3.02,0,0,1,1.138-1.306,3.233,3.233,0,0,1,1.753-.465,2.966,2.966,0,0,1,2.068.745,2.663,2.663,0,0,1,.878,1.935h-1.2a1.743,1.743,0,0,0-.543-1.179,1.691,1.691,0,0,0-1.207-.461,1.77,1.77,0,0,0-1.494.694,3.259,3.259,0,0,0-.53,2.006v.239a3.194,3.194,0,0,0,.526,1.969A1.779,1.779,0,0,0,133.595,86.1Zm8.928.9a2.657,2.657,0,0,1-.178-.779,2.822,2.822,0,0,1-2.105.916,2.611,2.611,0,0,1-1.794-.619,2,2,0,0,1-.7-1.569,2.091,2.091,0,0,1,.878-1.794,4.142,4.142,0,0,1,2.471-.639h1.23v-.581a1.42,1.42,0,0,0-.4-1.056,1.593,1.593,0,0,0-1.169-.393,1.844,1.844,0,0,0-1.135.342,1.007,1.007,0,0,0-.458.827h-1.271a1.745,1.745,0,0,1,.393-1.07,2.683,2.683,0,0,1,1.066-.817,3.588,3.588,0,0,1,1.48-.3,2.924,2.924,0,0,1,2,.639,2.306,2.306,0,0,1,.752,1.76v3.4a4.162,4.162,0,0,0,.26,1.62V87Zm-2.1-.964a2.223,2.223,0,0,0,1.128-.308,1.861,1.861,0,0,0,.772-.8V83.411h-.991q-2.324,0-2.324,1.36a1.151,1.151,0,0,0,.4.93A1.524,1.524,0,0,0,140.424,86.036Zm8.114.068a1.822,1.822,0,0,0,1.183-.41,1.443,1.443,0,0,0,.561-1.025h1.2a2.293,2.293,0,0,1-.437,1.21,2.881,2.881,0,0,1-1.077.916,3.107,3.107,0,0,1-1.425.342,3.047,3.047,0,0,1-2.4-1.008,4.016,4.016,0,0,1-.892-2.758v-.212a4.453,4.453,0,0,1,.4-1.921,3.02,3.02,0,0,1,1.138-1.306,3.233,3.233,0,0,1,1.753-.465,2.966,2.966,0,0,1,2.068.745,2.663,2.663,0,0,1,.878,1.935h-1.2a1.743,1.743,0,0,0-.543-1.179,1.691,1.691,0,0,0-1.207-.461,1.77,1.77,0,0,0-1.494.694,3.259,3.259,0,0,0-.53,2.006v.239a3.194,3.194,0,0,0,.526,1.969A1.779,1.779,0,0,0,148.538,86.1Zm5.735.9h-1.265V79.6h1.265Zm-1.367-9.358a.755.755,0,0,1,.188-.52.706.706,0,0,1,.557-.212.717.717,0,0,1,.561.212.747.747,0,0,1,.191.52.722.722,0,0,1-.191.513.73.73,0,0,1-.561.205.718.718,0,0,1-.557-.205A.73.73,0,0,1,152.906,77.642Zm6.46,9.5a3.232,3.232,0,0,1-2.447-.988,3.666,3.666,0,0,1-.943-2.642v-.232a4.438,4.438,0,0,1,.42-1.965,3.279,3.279,0,0,1,1.176-1.354,2.956,2.956,0,0,1,1.637-.489,2.77,2.77,0,0,1,2.242.95,4.114,4.114,0,0,1,.8,2.721v.526H157.24a2.629,2.629,0,0,0,.639,1.767,2.009,2.009,0,0,0,1.555.673,2.2,2.2,0,0,0,1.135-.273,2.851,2.851,0,0,0,.813-.725l.772.6A3.106,3.106,0,0,1,159.366,87.137Zm-.157-6.631a1.687,1.687,0,0,0-1.285.557,2.708,2.708,0,0,0-.643,1.562h3.705v-.1a2.409,2.409,0,0,0-.52-1.494A1.588,1.588,0,0,0,159.209,80.506ZM165.088,87h-1.265V76.5h1.265Zm1.688-3.767a4.369,4.369,0,0,1,.427-1.955,3.187,3.187,0,0,1,1.189-1.34,3.238,3.238,0,0,1,1.74-.472,3.119,3.119,0,0,1,2.444,1.046,4.024,4.024,0,0,1,.933,2.782v.089a4.407,4.407,0,0,1-.414,1.938,3.14,3.14,0,0,1-1.183,1.336,3.275,3.275,0,0,1-1.767.479,3.111,3.111,0,0,1-2.437-1.046,4,4,0,0,1-.933-2.769Zm1.271.15a3.164,3.164,0,0,0,.571,1.976,1.934,1.934,0,0,0,3.059-.01,3.46,3.46,0,0,0,.567-2.116,3.159,3.159,0,0,0-.578-1.972,1.836,1.836,0,0,0-1.535-.755,1.816,1.816,0,0,0-1.511.745A3.434,3.434,0,0,0,168.048,83.384ZM179.4,85.038a.931.931,0,0,0-.386-.8,3.718,3.718,0,0,0-1.347-.489,6.367,6.367,0,0,1-1.524-.492,2.169,2.169,0,0,1-.834-.684,1.635,1.635,0,0,1-.27-.943,1.919,1.919,0,0,1,.769-1.538,3,3,0,0,1,1.965-.629,3.091,3.091,0,0,1,2.041.649,2.063,2.063,0,0,1,.783,1.661h-1.271a1.142,1.142,0,0,0-.441-.9,1.652,1.652,0,0,0-1.111-.376,1.729,1.729,0,0,0-1.08.3.947.947,0,0,0-.39.786.767.767,0,0,0,.362.69,4.458,4.458,0,0,0,1.309.444,6.821,6.821,0,0,1,1.535.506,2.239,2.239,0,0,1,.872.708,1.74,1.74,0,0,1,.284,1.008,1.893,1.893,0,0,1-.793,1.589,3.326,3.326,0,0,1-2.058.6,3.725,3.725,0,0,1-1.572-.314,2.557,2.557,0,0,1-1.07-.878,2.117,2.117,0,0,1-.386-1.22h1.265a1.309,1.309,0,0,0,.509,1.008,1.976,1.976,0,0,0,1.254.373,2.039,2.039,0,0,0,1.152-.291A.893.893,0,0,0,179.4,85.038ZM5.523,105a2.657,2.657,0,0,1-.178-.779,2.822,2.822,0,0,1-2.105.916,2.611,2.611,0,0,1-1.794-.619,2,2,0,0,1-.7-1.569,2.091,2.091,0,0,1,.878-1.794,4.141,4.141,0,0,1,2.471-.639h1.23v-.581a1.42,1.42,0,0,0-.4-1.056,1.593,1.593,0,0,0-1.169-.393,1.844,1.844,0,0,0-1.135.342,1.007,1.007,0,0,0-.458.827H.9a1.745,1.745,0,0,1,.393-1.07,2.683,2.683,0,0,1,1.066-.817,3.588,3.588,0,0,1,1.48-.3,2.924,2.924,0,0,1,2,.639,2.306,2.306,0,0,1,.752,1.76v3.4a4.162,4.162,0,0,0,.26,1.62V105Zm-2.1-.964a2.223,2.223,0,0,0,1.128-.308,1.861,1.861,0,0,0,.772-.8v-1.518H4.334q-2.324,0-2.324,1.36a1.151,1.151,0,0,0,.4.93A1.524,1.524,0,0,0,3.425,104.036ZM9.762,97.6l.034.82a2.732,2.732,0,0,1,2.194-.957A2.115,2.115,0,0,1,14.1,98.656a2.8,2.8,0,0,1,.96-.861,2.837,2.837,0,0,1,1.4-.328q2.434,0,2.475,2.577V105H17.671v-4.881a1.7,1.7,0,0,0-.362-1.186,1.6,1.6,0,0,0-1.217-.393,1.677,1.677,0,0,0-1.169.42,1.706,1.706,0,0,0-.54,1.131V105H13.111v-4.847a1.411,1.411,0,0,0-1.579-1.613,1.692,1.692,0,0,0-1.7,1.06V105H8.565V97.6Zm17.329,3.78a4.429,4.429,0,0,1-.772,2.721,2.476,2.476,0,0,1-2.092,1.032,2.713,2.713,0,0,1-2.119-.854v3.562H20.843V97.6H22l.062.82a2.605,2.605,0,0,1,2.146-.957,2.522,2.522,0,0,1,2.109,1,4.477,4.477,0,0,1,.776,2.8Zm-1.265-.144a3.268,3.268,0,0,0-.533-1.976,1.718,1.718,0,0,0-1.463-.725,1.859,1.859,0,0,0-1.723,1.019v3.534a1.863,1.863,0,0,0,1.736,1.012,1.71,1.71,0,0,0,1.446-.721A3.567,3.567,0,0,0,25.826,101.24ZM30.071,105H28.807V94.5h1.265Zm3.4,0H32.2V97.6h1.265ZM32.1,95.642a.755.755,0,0,1,.188-.52.706.706,0,0,1,.557-.212.717.717,0,0,1,.561.212.747.747,0,0,1,.191.52.722.722,0,0,1-.191.513.73.73,0,0,1-.561.205.718.718,0,0,1-.557-.205A.73.73,0,0,1,32.1,95.642Zm3.056,5.592a4.369,4.369,0,0,1,.427-1.955,3.187,3.187,0,0,1,1.189-1.34,3.238,3.238,0,0,1,1.74-.472,3.119,3.119,0,0,1,2.444,1.046,4.024,4.024,0,0,1,.933,2.782v.089a4.407,4.407,0,0,1-.414,1.938,3.14,3.14,0,0,1-1.183,1.336,3.275,3.275,0,0,1-1.767.479,3.111,3.111,0,0,1-2.437-1.046,4,4,0,0,1-.933-2.769Zm1.271.15A3.164,3.164,0,0,0,37,103.359a1.934,1.934,0,0,0,3.059-.01,3.46,3.46,0,0,0,.567-2.116,3.159,3.159,0,0,0-.578-1.972,1.836,1.836,0,0,0-1.535-.755A1.816,1.816,0,0,0,37,99.251,3.434,3.434,0,0,0,36.429,101.384Zm11.354,1.654a.931.931,0,0,0-.386-.8,3.718,3.718,0,0,0-1.347-.489,6.367,6.367,0,0,1-1.524-.492,2.169,2.169,0,0,1-.834-.684,1.635,1.635,0,0,1-.27-.943,1.919,1.919,0,0,1,.769-1.538,3,3,0,0,1,1.965-.629,3.091,3.091,0,0,1,2.041.649,2.063,2.063,0,0,1,.783,1.661H47.708a1.142,1.142,0,0,0-.441-.9,1.652,1.652,0,0,0-1.111-.376,1.729,1.729,0,0,0-1.08.3.947.947,0,0,0-.39.786.767.767,0,0,0,.362.69,4.458,4.458,0,0,0,1.309.444,6.821,6.821,0,0,1,1.535.506,2.239,2.239,0,0,1,.872.708,1.74,1.74,0,0,1,.284,1.008,1.893,1.893,0,0,1-.793,1.589,3.326,3.326,0,0,1-2.058.6,3.725,3.725,0,0,1-1.572-.314,2.557,2.557,0,0,1-1.07-.878,2.117,2.117,0,0,1-.386-1.22h1.265a1.309,1.309,0,0,0,.509,1.008,1.976,1.976,0,0,0,1.254.373,2.039,2.039,0,0,0,1.152-.291A.893.893,0,0,0,47.783,103.038ZM58.188,105H56.916V96.571l-2.55.937V96.359L57.989,95h.2Zm8.668-9.96v1.073h-.232a3.33,3.33,0,0,0-2.352.875,3.641,3.641,0,0,0-1.012,2.386,2.7,2.7,0,0,1,2.146-.9,2.581,2.581,0,0,1,2.075.916,4.014,4.014,0,0,1-.062,4.826,2.883,2.883,0,0,1-2.246.923,2.841,2.841,0,0,1-2.317-1.1,4.348,4.348,0,0,1-.889-2.827v-.485a6.552,6.552,0,0,1,1.172-4.2,4.306,4.306,0,0,1,3.49-1.487Zm-1.661,4.484a2.125,2.125,0,0,0-1.955,1.367v.465a3.265,3.265,0,0,0,.554,1.982,1.659,1.659,0,0,0,1.381.752,1.608,1.608,0,0,0,1.343-.629,3.021,3.021,0,0,0-.007-3.305A1.589,1.589,0,0,0,65.194,99.524Zm10.8,1.23a5.784,5.784,0,0,1-.759,3.3,3.153,3.153,0,0,1-4.73.024,5.49,5.49,0,0,1-.793-3.155V99.237a5.655,5.655,0,0,1,.759-3.261,3.21,3.21,0,0,1,4.744-.038A5.458,5.458,0,0,1,76,99.114ZM74.73,99.025a4.634,4.634,0,0,0-.451-2.341,1.553,1.553,0,0,0-1.429-.735,1.532,1.532,0,0,0-1.415.731,4.525,4.525,0,0,0-.458,2.249v2.023a4.708,4.708,0,0,0,.468,2.382,1.55,1.55,0,0,0,1.418.769,1.529,1.529,0,0,0,1.391-.725,4.538,4.538,0,0,0,.475-2.283Zm8.962,1.278,1.641-2.7H86.81l-2.42,3.657,2.5,3.739H85.422l-1.709-2.769L82,105h-1.47l2.5-3.739L80.609,97.6h1.463ZM96.448,95.04v1.073h-.232a3.33,3.33,0,0,0-2.352.875,3.641,3.641,0,0,0-1.012,2.386,2.7,2.7,0,0,1,2.146-.9,2.581,2.581,0,0,1,2.075.916,4.014,4.014,0,0,1-.062,4.826,2.883,2.883,0,0,1-2.246.923,2.841,2.841,0,0,1-2.317-1.1,4.348,4.348,0,0,1-.889-2.827v-.485a6.552,6.552,0,0,1,1.172-4.2,4.306,4.306,0,0,1,3.49-1.487Zm-1.661,4.484a2.125,2.125,0,0,0-1.955,1.367v.465a3.265,3.265,0,0,0,.554,1.982,1.659,1.659,0,0,0,1.381.752,1.608,1.608,0,0,0,1.343-.629,3.021,3.021,0,0,0-.007-3.305A1.589,1.589,0,0,0,94.787,99.524Zm10.8,1.23a5.784,5.784,0,0,1-.759,3.3,3.153,3.153,0,0,1-4.73.024,5.49,5.49,0,0,1-.793-3.155V99.237a5.655,5.655,0,0,1,.759-3.261,3.21,3.21,0,0,1,4.744-.038,5.458,5.458,0,0,1,.779,3.175Zm-1.265-1.729a4.634,4.634,0,0,0-.451-2.341,1.553,1.553,0,0,0-1.429-.735,1.532,1.532,0,0,0-1.415.731,4.525,4.525,0,0,0-.458,2.249v2.023a4.708,4.708,0,0,0,.468,2.382,1.55,1.55,0,0,0,1.418.769,1.529,1.529,0,0,0,1.391-.725,4.538,4.538,0,0,0,.475-2.283Zm9.126,1.729a5.784,5.784,0,0,1-.759,3.3,3.153,3.153,0,0,1-4.73.024,5.49,5.49,0,0,1-.793-3.155V99.237a5.655,5.655,0,0,1,.759-3.261,3.21,3.21,0,0,1,4.744-.038,5.458,5.458,0,0,1,.779,3.175Zm-1.265-1.729a4.634,4.634,0,0,0-.451-2.341,1.553,1.553,0,0,0-1.429-.735,1.532,1.532,0,0,0-1.415.731,4.525,4.525,0,0,0-.458,2.249v2.023a4.708,4.708,0,0,0,.468,2.382,1.55,1.55,0,0,0,1.418.769,1.529,1.529,0,0,0,1.391-.725,4.538,4.538,0,0,0,.475-2.283Zm8.9,4.122,1.723-5.544h1.354l-2.974,8.538q-.69,1.846-2.194,1.846l-.239-.021-.472-.089v-1.025l.342.027a1.683,1.683,0,0,0,1-.26,1.88,1.88,0,0,0,.591-.95l.28-.752L117.858,97.6h1.381Zm8.866-5.544.041.93a2.7,2.7,0,0,1,2.215-1.066q2.345,0,2.365,2.646V105h-1.265v-4.895a1.7,1.7,0,0,0-.366-1.183,1.466,1.466,0,0,0-1.118-.383,1.825,1.825,0,0,0-1.08.328,2.228,2.228,0,0,0-.725.861V105h-1.265V97.6Zm6.193,3.63a4.369,4.369,0,0,1,.427-1.955,3.187,3.187,0,0,1,1.189-1.34,3.238,3.238,0,0,1,1.74-.472,3.119,3.119,0,0,1,2.444,1.046,4.024,4.024,0,0,1,.933,2.782v.089a4.407,4.407,0,0,1-.414,1.938,3.14,3.14,0,0,1-1.183,1.336,3.275,3.275,0,0,1-1.767.479,3.111,3.111,0,0,1-2.437-1.046,4,4,0,0,1-.933-2.769Zm1.271.15a3.164,3.164,0,0,0,.571,1.976,1.934,1.934,0,0,0,3.059-.01,3.46,3.46,0,0,0,.567-2.116,3.159,3.159,0,0,0-.578-1.972,1.836,1.836,0,0,0-1.535-.755,1.816,1.816,0,0,0-1.511.745A3.434,3.434,0,0,0,137.416,101.384Zm10.623-2.646a3.79,3.79,0,0,0-.622-.048,1.667,1.667,0,0,0-1.688,1.06V105h-1.265V97.6h1.23l.021.854a1.969,1.969,0,0,1,1.764-.991,1.292,1.292,0,0,1,.561.1Zm2.352-1.135.034.82a2.732,2.732,0,0,1,2.194-.957,2.115,2.115,0,0,1,2.112,1.189,2.8,2.8,0,0,1,.96-.861,2.837,2.837,0,0,1,1.4-.328q2.434,0,2.475,2.577V105H158.3v-4.881a1.7,1.7,0,0,0-.362-1.186,1.6,1.6,0,0,0-1.217-.393,1.677,1.677,0,0,0-1.169.42,1.706,1.706,0,0,0-.54,1.131V105H153.74v-4.847a1.411,1.411,0,0,0-1.579-1.613,1.692,1.692,0,0,0-1.7,1.06V105h-1.265V97.6Zm15.647,7.4a2.657,2.657,0,0,1-.178-.779,2.822,2.822,0,0,1-2.105.916,2.611,2.611,0,0,1-1.794-.619,2,2,0,0,1-.7-1.569,2.091,2.091,0,0,1,.878-1.794,4.142,4.142,0,0,1,2.471-.639h1.23v-.581a1.42,1.42,0,0,0-.4-1.056,1.593,1.593,0,0,0-1.169-.393,1.844,1.844,0,0,0-1.135.342,1.007,1.007,0,0,0-.458.827H161.41a1.745,1.745,0,0,1,.393-1.07,2.683,2.683,0,0,1,1.066-.817,3.588,3.588,0,0,1,1.48-.3,2.924,2.924,0,0,1,2,.639,2.306,2.306,0,0,1,.752,1.76v3.4a4.162,4.162,0,0,0,.26,1.62V105Zm-2.1-.964a2.223,2.223,0,0,0,1.128-.308,1.861,1.861,0,0,0,.772-.8v-1.518h-.991q-2.324,0-2.324,1.36a1.151,1.151,0,0,0,.4.93A1.524,1.524,0,0,0,163.939,104.036Zm6.521.964H169.2V94.5h1.265ZM4.983,123H3.712v-8.429l-2.55.937v-1.148L4.785,113h.2Zm10.227,0H8.688v-.909l3.445-3.828a8.185,8.185,0,0,0,1.056-1.412,2.356,2.356,0,0,0,.291-1.125,1.786,1.786,0,0,0-.472-1.278,1.649,1.649,0,0,0-1.258-.5,1.953,1.953,0,0,0-1.466.537,2.05,2.05,0,0,0-.523,1.494H8.5a2.936,2.936,0,0,1,.885-2.222,3.282,3.282,0,0,1,2.369-.848,3.153,3.153,0,0,1,2.194.728,2.483,2.483,0,0,1,.807,1.938q0,1.47-1.873,3.5l-2.666,2.892h5Zm7.581-4.245a5.784,5.784,0,0,1-.759,3.3,2.7,2.7,0,0,1-2.372,1.08,2.718,2.718,0,0,1-2.358-1.056,5.49,5.49,0,0,1-.793-3.155v-1.688a5.655,5.655,0,0,1,.759-3.261,2.719,2.719,0,0,1,2.379-1.066,2.744,2.744,0,0,1,2.365,1.029,5.458,5.458,0,0,1,.779,3.175Zm-1.265-1.729a4.634,4.634,0,0,0-.451-2.341,1.553,1.553,0,0,0-1.429-.735,1.532,1.532,0,0,0-1.415.731,4.525,4.525,0,0,0-.458,2.249v2.023a4.708,4.708,0,0,0,.468,2.382,1.55,1.55,0,0,0,1.418.769,1.529,1.529,0,0,0,1.391-.725,4.538,4.538,0,0,0,.475-2.283Zm8.962,1.278,1.641-2.7h1.477l-2.42,3.657,2.5,3.739H32.218l-1.709-2.769L28.8,123H27.33l2.5-3.739-2.42-3.657h1.463Zm12.756-5.264v1.073h-.232a3.33,3.33,0,0,0-2.352.875,3.641,3.641,0,0,0-1.012,2.386,2.7,2.7,0,0,1,2.146-.9,2.581,2.581,0,0,1,2.075.916,4.014,4.014,0,0,1-.062,4.826,2.883,2.883,0,0,1-2.246.923,2.841,2.841,0,0,1-2.317-1.1,4.348,4.348,0,0,1-.889-2.827v-.485a6.552,6.552,0,0,1,1.172-4.2,4.306,4.306,0,0,1,3.49-1.487Zm-1.661,4.484a2.125,2.125,0,0,0-1.955,1.367v.465a3.265,3.265,0,0,0,.554,1.982,1.659,1.659,0,0,0,1.381.752,1.608,1.608,0,0,0,1.343-.629,3.021,3.021,0,0,0-.007-3.305A1.589,1.589,0,0,0,41.583,117.524Zm10.8,1.23a5.784,5.784,0,0,1-.759,3.3,3.153,3.153,0,0,1-4.73.024,5.49,5.49,0,0,1-.793-3.155v-1.688a5.655,5.655,0,0,1,.759-3.261,3.21,3.21,0,0,1,4.744-.038,5.458,5.458,0,0,1,.779,3.175Zm-1.265-1.729a4.634,4.634,0,0,0-.451-2.341,1.553,1.553,0,0,0-1.429-.735,1.532,1.532,0,0,0-1.415.731,4.525,4.525,0,0,0-.458,2.249v2.023a4.708,4.708,0,0,0,.468,2.382,1.55,1.55,0,0,0,1.418.769,1.529,1.529,0,0,0,1.391-.725,4.538,4.538,0,0,0,.475-2.283Zm9.126,1.729a5.784,5.784,0,0,1-.759,3.3,3.153,3.153,0,0,1-4.73.024,5.49,5.49,0,0,1-.793-3.155v-1.688a5.655,5.655,0,0,1,.759-3.261,3.21,3.21,0,0,1,4.744-.038,5.458,5.458,0,0,1,.779,3.175Zm-1.265-1.729a4.634,4.634,0,0,0-.451-2.341,1.553,1.553,0,0,0-1.429-.735,1.532,1.532,0,0,0-1.415.731,4.525,4.525,0,0,0-.458,2.249v2.023a4.708,4.708,0,0,0,.468,2.382,1.55,1.55,0,0,0,1.418.769,1.529,1.529,0,0,0,1.391-.725,4.538,4.538,0,0,0,.475-2.283Zm3.042,5.312a.792.792,0,0,1,.195-.547.742.742,0,0,1,.584-.219.765.765,0,0,1,.591.219.776.776,0,0,1,.2.547.734.734,0,0,1-.2.526.778.778,0,0,1-.591.212.7.7,0,0,1-.779-.738Z" transform="translate(13337 3449)" fill="#12263f"/>
    <g id="Grupo_879252" data-name="Grupo 879252" transform="translate(12817.333 -11555)">
      <text id="Rascacielos" transform="translate(573.667 14946)" fill="#12263f" font-size="16" font-family="Roboto-Bold, Roboto" font-weight="700"><tspan x="-43.344" y="0">Rascacielos</tspan></text>
      <circle id="Elipse_7028" data-name="Elipse 7028" cx="13" cy="13" r="13" transform="translate(494.667 14927)" fill="#12263f"/>
      <text id="_3" data-name="3" transform="translate(507.667 14946)" fill="#fff" font-size="16" font-family="Roboto-Bold, Roboto" font-weight="700"><tspan x="-4.59" y="0">3</tspan></text>
    </g>
    <path id="Trazado_621968" data-name="Trazado 621968" d="M9659.938,3294v-50h-19.609" transform="translate(3803.398 141)" fill="none" stroke="#12263f" stroke-width="2"/>
  </g>
</svg>
