<svg xmlns="http://www.w3.org/2000/svg" width="134" height="134" viewBox="0 0 134 134">
  <g id="Grupo_878021" data-name="Grupo 878021" transform="translate(-423 -1166)">
    <g id="Grupo_878020" data-name="Grupo 878020" transform="translate(129 -14928.848)">
      <g id="Elipse_6899" data-name="Elipse 6899" transform="translate(294 16094.848)" fill="#fff" stroke="#ffb338" stroke-width="3">
        <circle cx="67" cy="67" r="67" stroke="none"/>
        <circle cx="67" cy="67" r="65.5" fill="none"/>
      </g>
    </g>
    <g id="Grupo_870620" data-name="Grupo 870620" transform="translate(446 1188.499)">
      <path id="Trazado_609617" data-name="Trazado 609617" d="M10,13.938V70.312a3.437,3.437,0,0,0,3.438,3.438H77.719a3.437,3.437,0,0,0,3.438-3.438V13.938A3.437,3.437,0,0,0,77.719,10.5H13.438A3.437,3.437,0,0,0,10,13.938Zm0,0" transform="translate(-8.281 -8.281)" fill="#fff"/>
      <path id="Trazado_609618" data-name="Trazado 609618" d="M13.438,10.5H77.719a3.437,3.437,0,0,1,3.438,3.438V25.625H10V13.938A3.437,3.437,0,0,1,13.438,10.5Zm0,0" transform="translate(-8.281 -8.281)" fill="#b1de19"/>
      <path id="Trazado_609619" data-name="Trazado 609619" d="M58,146.492h42.625v26.125H58Zm0,0" transform="translate(-48.027 -120.898)" fill="#ffb338"/>
      <path id="Trazado_609620" data-name="Trazado 609620" d="M307.015,285.19l-31.331-9.022,9.023,31.331,5.334-5.334,12.9,12.9,11.641-11.641-12.9-12.9Zm0,0" transform="translate(-228.299 -228.285)" fill="#b6e1fd"/>
      <path id="Trazado_609621" data-name="Trazado 609621" d="M54.156,47.938h.016a1.727,1.727,0,1,0-.016,0Zm0,0" transform="translate(-43.424 -36.437)" fill="#12263f"/>
      <path id="Trazado_609622" data-name="Trazado 609622" d="M99.657,47.938h.016a1.727,1.727,0,1,0-.016,0Zm0,0" transform="translate(-81.104 -36.437)" fill="#12263f"/>
      <path id="Trazado_609623" data-name="Trazado 609623" d="M145.16,47.938h.016a1.727,1.727,0,1,0-.016,0Zm0,0" transform="translate(-118.786 -36.437)"/>
      <path id="Trazado_609624" data-name="Trazado 609624" d="M223.465,47.937H247.4a1.718,1.718,0,1,0,0-3.437H223.465a1.718,1.718,0,1,0,0,3.437Zm0,0" transform="translate(-183.632 -36.437)" fill="#12263f"/>
      <path id="Trazado_609625" data-name="Trazado 609625" d="M415.7,268.492a1.72,1.72,0,1,0,1.215.5A1.73,1.73,0,0,0,415.7,268.492Zm0,0" transform="translate(-342.828 -221.928)" fill="#12263f"/>
      <path id="Trazado_609626" data-name="Trazado 609626" d="M196.051,176.492h-2.14a1.719,1.719,0,0,0-1.719,1.719v12.375a1.719,1.719,0,0,0,1.719,1.719h2.14a7.906,7.906,0,0,0,0-15.812Zm0,12.375h-.422V179.93h.422a4.469,4.469,0,0,1,0,8.937Zm0,0" transform="translate(-159.157 -145.742)" fill="#12263f"/>
      <path id="Trazado_609627" data-name="Trazado 609627" d="M110.854,177.663a1.718,1.718,0,0,0-3.258,0l-4.164,12.375a1.719,1.719,0,1,0,3.258,1.1l.127-.377h4.817l.126.377a1.719,1.719,0,1,0,3.258-1.1Zm-2.881,9.658,1.252-3.72,1.252,3.72Zm0,0" transform="translate(-85.579 -145.742)" fill="#12263f"/>
      <path id="Trazado_609628" data-name="Trazado 609628" d="M87.5,73.926,75.813,62.24l4.119-4.118a1.719,1.719,0,0,0-.74-2.867l-24.88-7.165v-22.5a1.719,1.719,0,0,0-1.719-1.718H9.969A1.718,1.718,0,0,0,8.25,25.594V51.719a1.719,1.719,0,0,0,1.718,1.719H47.2l2.97,10.312H5.157a1.72,1.72,0,0,1-1.719-1.719V19.063H71.157V41.407a1.719,1.719,0,0,0,3.438,0V5.657A5.162,5.162,0,0,0,69.438.5H5.157A5.162,5.162,0,0,0,0,5.657V62.032a5.162,5.162,0,0,0,5.156,5.156h46l3.6,12.5a1.719,1.719,0,0,0,2.867.74l4.118-4.118L73.429,88a1.72,1.72,0,0,0,2.431,0L87.5,76.357a1.718,1.718,0,0,0,0-2.431ZM5.157,3.938H69.438a1.721,1.721,0,0,1,1.719,1.719v9.968H3.438V5.657A1.72,1.72,0,0,1,5.157,3.938ZM11.687,50V27.313H50.875V47.1l-3.014-.868a1.719,1.719,0,0,0-2.128,2.128L46.207,50ZM74.644,84.351,62.958,72.665a1.719,1.719,0,0,0-2.431,0l-3.273,3.274L49.9,50.395l25.544,7.356-3.273,3.274a1.718,1.718,0,0,0,0,2.431L83.854,75.141Zm0,0" fill="#12263f"/>
      <path id="Trazado_609629" data-name="Trazado 609629" d="M62.891,331.925a1.718,1.718,0,1,0,0-3.437H51.145a1.718,1.718,0,1,0,0,3.437Zm0,0" transform="translate(-40.931 -271.612)" fill="#12263f"/>
      <path id="Trazado_609630" data-name="Trazado 609630" d="M160.2,331.423a1.717,1.717,0,1,0-1.215.5A1.732,1.732,0,0,0,160.2,331.423Zm0,0" transform="translate(-130.234 -271.613)" fill="#12263f"/>
    </g>
  </g>
</svg>
