<svg xmlns="http://www.w3.org/2000/svg" xmlns:xlink="http://www.w3.org/1999/xlink" width="509.7" height="346.656" viewBox="0 0 509.7 346.656">
  <defs>
    <clipPath id="clip-path">
      <circle id="Elipse_6953" data-name="Elipse 6953" cx="22.827" cy="22.827" r="22.827" transform="matrix(0.35, -0.937, 0.937, 0.35, 0, 42.759)" fill="none"/>
    </clipPath>
    <radialGradient id="radial-gradient" cx="0.432" cy="0.591" r="0.534" gradientTransform="translate(-0.106) scale(1.212 1)" gradientUnits="objectBoundingBox">
      <stop offset="0" stop-color="#f9b08c"/>
      <stop offset="0.2" stop-color="#f2bf8f"/>
      <stop offset="0.855" stop-color="#f2ba85"/>
    </radialGradient>
    <radialGradient id="radial-gradient-2" cx="0.023" cy="0.224" r="0.453" gradientTransform="translate(-0.114) scale(1.227 1)" gradientUnits="objectBoundingBox">
      <stop offset="0.138" stop-color="#8c4b1d"/>
      <stop offset="0.733" stop-color="#88481b"/>
      <stop offset="1" stop-color="#84461a"/>
    </radialGradient>
    <clipPath id="clip-path-2">
      <path id="Trazado_619737" data-name="Trazado 619737" d="M321.519,58.734a1.135,1.135,0,1,1-1.244-1.013A1.135,1.135,0,0,1,321.519,58.734Z" transform="translate(-319.255 -57.715)" fill="none"/>
    </clipPath>
    <clipPath id="clip-path-3">
      <path id="Trazado_619740" data-name="Trazado 619740" d="M326.428,56.359a1.135,1.135,0,1,1-.843,1.365A1.135,1.135,0,0,1,326.428,56.359Z" transform="translate(-325.555 -56.328)" fill="none"/>
    </clipPath>
    <clipPath id="clip-path-4">
      <circle id="Elipse_6955" data-name="Elipse 6955" cx="22.827" cy="22.827" r="22.827" transform="translate(0 45.221) rotate(-82.095)" fill="none"/>
    </clipPath>
    <radialGradient id="radial-gradient-3" cx="0.393" cy="0.587" r="0.464" gradientTransform="translate(-0.095) scale(1.19 1)" xlink:href="#radial-gradient"/>
    <clipPath id="clip-path-5">
      <path id="Trazado_619760" data-name="Trazado 619760" d="M391.28,53.214a1.487,1.487,0,1,1-1.629-1.33A1.486,1.486,0,0,1,391.28,53.214Z" transform="translate(-388.314 -51.877)" fill="none"/>
    </clipPath>
    <clipPath id="clip-path-6">
      <path id="Trazado_619764" data-name="Trazado 619764" d="M399.339,52.009a1.487,1.487,0,1,1-1.91-.878A1.486,1.486,0,0,1,399.339,52.009Z" transform="translate(-396.457 -51.039)" fill="none"/>
    </clipPath>
    <clipPath id="clip-path-7">
      <path id="Trazado_619790" data-name="Trazado 619790" d="M474.889,41.955A22.827,22.827,0,1,1,449.86,21.566,22.826,22.826,0,0,1,474.889,41.955Z" transform="translate(-429.351 -21.446)" fill="none"/>
    </clipPath>
    <radialGradient id="radial-gradient-4" cx="0.569" cy="0.573" r="0.476" gradientTransform="translate(-0.055) scale(1.11 1)" xlink:href="#radial-gradient"/>
    <clipPath id="clip-path-8">
      <path id="Trazado_619780" data-name="Trazado 619780" d="M456.966,44.262a1.174,1.174,0,1,0,1.306-1.028A1.173,1.173,0,0,0,456.966,44.262Z" transform="translate(-456.958 -43.225)" fill="none"/>
    </clipPath>
    <clipPath id="clip-path-9">
      <path id="Trazado_619783" data-name="Trazado 619783" d="M452.205,41.752a1.172,1.172,0,1,0,.849,1.426A1.172,1.172,0,0,0,452.205,41.752Z" transform="translate(-450.741 -41.714)" fill="none"/>
    </clipPath>
    <clipPath id="clip-path-10">
      <path id="Trazado_619821" data-name="Trazado 619821" d="M350.528,164.506a22.827,22.827,0,1,1-25.029-20.39A22.827,22.827,0,0,1,350.528,164.506Z" transform="translate(-304.99 -143.996)" fill="none"/>
    </clipPath>
    <radialGradient id="radial-gradient-5" cx="0.435" cy="0.539" r="0.477" gradientTransform="translate(-0.062) scale(1.124 1)" xlink:href="#radial-gradient"/>
    <clipPath id="clip-path-11">
      <path id="Trazado_619797" data-name="Trazado 619797" d="M332.479,167.28a1.13,1.13,0,1,1-1.237-1.011A1.13,1.13,0,0,1,332.479,167.28Z" transform="translate(-330.224 -166.263)" fill="none"/>
    </clipPath>
    <clipPath id="clip-path-12">
      <path id="Trazado_619800" data-name="Trazado 619800" d="M336.687,165.031a1.062,1.062,0,1,1-.789,1.276A1.057,1.057,0,0,1,336.687,165.031Z" transform="translate(-335.869 -165.001)" fill="none"/>
    </clipPath>
    <clipPath id="clip-path-13">
      <circle id="Elipse_6958" data-name="Elipse 6958" cx="22.827" cy="22.827" r="22.827" transform="translate(0 36.027) rotate(-52.103)" fill="none"/>
    </clipPath>
    <radialGradient id="radial-gradient-6" cx="0.52" cy="0.514" r="0.444" gradientTransform="translate(-0.158) scale(1.316 1)" xlink:href="#radial-gradient"/>
    <clipPath id="clip-path-14">
      <path id="Trazado_619833" data-name="Trazado 619833" d="M398.039,161.365a1.126,1.126,0,1,0,1.006-1.235A1.127,1.127,0,0,0,398.039,161.365Z" transform="translate(-398.033 -160.124)" fill="none"/>
    </clipPath>
    <clipPath id="clip-path-15">
      <path id="Trazado_619836" data-name="Trazado 619836" d="M393.309,159.4a1.126,1.126,0,1,0,1.093,1.159A1.126,1.126,0,0,0,393.309,159.4Z" transform="translate(-392.149 -159.397)" fill="none"/>
    </clipPath>
    <clipPath id="clip-path-16">
      <path id="Trazado_619875" data-name="Trazado 619875" d="M486.245,150.64a22.827,22.827,0,1,1-25.029-20.389A22.829,22.829,0,0,1,486.245,150.64Z" transform="translate(-440.707 -130.131)" fill="none"/>
    </clipPath>
    <radialGradient id="radial-gradient-7" cx="0.39" cy="0.597" r="0.464" gradientTransform="translate(-0.095) scale(1.19 1)" xlink:href="#radial-gradient"/>
    <clipPath id="clip-path-17">
      <path id="Trazado_619856" data-name="Trazado 619856" d="M471.212,157.318a1.37,1.37,0,1,1-1.5-1.225A1.371,1.371,0,0,1,471.212,157.318Z" transform="translate(-468.479 -156.087)" fill="none"/>
    </clipPath>
    <clipPath id="clip-path-18">
      <path id="Trazado_619860" data-name="Trazado 619860" d="M478.636,156.208a1.37,1.37,0,1,1-1.762-.808A1.37,1.37,0,0,1,478.636,156.208Z" transform="translate(-475.98 -155.315)" fill="none"/>
    </clipPath>
  </defs>
  <g id="Grupo_877740" data-name="Grupo 877740" transform="translate(-221.105 -2.181)">
    <g id="Grupo_877732" data-name="Grupo 877732" transform="translate(271.067 2.181)">
      <g id="Grupo_877731" data-name="Grupo 877731">
        <rect id="Rectángulo_327124" data-name="Rectángulo 327124" width="181.083" height="204.372" transform="translate(0 18.404) rotate(-5.833)" fill="#fff"/>
        <g id="Grupo_877662" data-name="Grupo 877662" transform="translate(6.546 21.703)">
          <g id="Grupo_877661" data-name="Grupo 877661" clip-path="url(#clip-path)">
            <circle id="Elipse_6952" data-name="Elipse 6952" cx="22.827" cy="22.827" r="22.827" transform="matrix(0.973, -0.233, 0.233, 0.973, 1.864, 12.496)" fill="#8ae2df"/>
            <g id="Grupo_877660" data-name="Grupo 877660" transform="translate(16.861 10.18)">
              <g id="Grupo_877658" data-name="Grupo 877658">
                <path id="Trazado_619727" data-name="Trazado 619727" d="M322.943,73.4l-9.557-8.157s6.521,13.947,3.811,17.618,9.95,2.672,9.373.326C326.57,83.187,322.247,76.745,322.943,73.4Z" transform="translate(-306.853 -43.347)" fill="#ebae76"/>
                <path id="Trazado_619728" data-name="Trazado 619728" d="M323.079,79.789c1.259-.13.756-1.486,2.019-3.148l-9.551-2.261S319.362,80.173,323.079,79.789Z" transform="translate(-307.171 -44.692)" fill="#c7915e"/>
                <path id="Trazado_619729" data-name="Trazado 619729" d="M321.759,49.841s-12.865-7.094-12.339,2.083a46.855,46.855,0,0,0,.9,5.849c-.065,0-.13,0-.2.009a2.508,2.508,0,1,0,.509,4.99,2.588,2.588,0,0,0,.791-.211c1.243,4.98,2.268,8.761,3.334,9.385a29.385,29.385,0,0,0,15.785,3.529S334.672,59.423,321.759,49.841Z" transform="translate(-306.033 -40.694)" fill="url(#radial-gradient)"/>
                <g id="Grupo_877651" data-name="Grupo 877651" transform="translate(16.464 17.391)">
                  <path id="Trazado_619730" data-name="Trazado 619730" d="M325.425,60c-.142-.137-.485.147-.372.256a41.264,41.264,0,0,1,4.79,5.432,13.632,13.632,0,0,1-2.742.763c-.3.039-.312.42-.113.421a16.787,16.787,0,0,0,3.306-.881.2.2,0,0,0,.067-.316A47.774,47.774,0,0,0,325.425,60Z" transform="translate(-325.031 -59.96)" fill="#c78b5c"/>
                </g>
                <g id="Grupo_877652" data-name="Grupo 877652" transform="translate(16.159 25.762)">
                  <path id="Trazado_619731" data-name="Trazado 619731" d="M325.2,69.89c-.253-.31-.743.065-.423.485.281.368,1.451,1.631,4.076,1.364L328.8,71.2A3.6,3.6,0,0,1,325.2,69.89Z" transform="translate(-324.673 -69.776)" fill="#c78b5c"/>
                </g>
                <path id="Trazado_619732" data-name="Trazado 619732" d="M319.179,54.253l-2.618,2.2a15.681,15.681,0,0,0,3.844-1.357A.916.916,0,0,0,319.179,54.253Z" transform="translate(-307.32 -41.723)" fill="#0f0f0f"/>
                <path id="Trazado_619733" data-name="Trazado 619733" d="M324.471,54a15.623,15.623,0,0,0,4.038.551L325.5,52.925S324.331,52.841,324.471,54Z" transform="translate(-308.483 -41.533)" fill="#0f0f0f"/>
                <path id="Trazado_619734" data-name="Trazado 619734" d="M319.427,41.619c-3.574-5.7-11.329,1.774-11.44,6.722,0,0-6.652,2.831,2.861,9.885l.443,8.862,2.522-.258-1.728-5.951s3.851-1.165-.3-9.378c-3.037-6,6.623-.273,12.264-1.555,4.366-.993,3.935-4.725,4.1-7.969C328.147,41.978,322.917,47.187,319.427,41.619Z" transform="translate(-305.725 -39.567)" fill="url(#radial-gradient-2)"/>
                <g id="Grupo_877654" data-name="Grupo 877654" transform="translate(11.538 15.477)">
                  <g id="Grupo_877653" data-name="Grupo 877653" clip-path="url(#clip-path-2)">
                    <path id="Trazado_619735" data-name="Trazado 619735" d="M320.275,57.721a1.135,1.135,0,1,0,1.244,1.013A1.134,1.134,0,0,0,320.275,57.721Z" transform="translate(-319.255 -57.715)" fill="#fff"/>
                    <path id="Trazado_619736" data-name="Trazado 619736" d="M319.955,57.722a.946.946,0,1,0,1.037.845A.946.946,0,0,0,319.955,57.722Z" transform="translate(-319.233 -57.715)" fill="#626a39"/>
                  </g>
                </g>
                <g id="Grupo_877656" data-name="Grupo 877656" transform="translate(16.911 14.293)">
                  <g id="Grupo_877655" data-name="Grupo 877655" clip-path="url(#clip-path-3)">
                    <path id="Trazado_619738" data-name="Trazado 619738" d="M326.428,56.359a1.135,1.135,0,1,0,1.366.842A1.134,1.134,0,0,0,326.428,56.359Z" transform="translate(-325.555 -56.328)" fill="#fff"/>
                    <path id="Trazado_619739" data-name="Trazado 619739" d="M326.123,56.386a.946.946,0,1,0,1.139.7A.946.946,0,0,0,326.123,56.386Z" transform="translate(-325.532 -56.332)" fill="#626a39"/>
                  </g>
                </g>
                <g id="Grupo_877657" data-name="Grupo 877657" transform="translate(15.68 25.298)">
                  <path id="Trazado_619741" data-name="Trazado 619741" d="M324.245,69.415c-.333.3.064.894.064.894s-.192-.527.049-.79c.17-.184.534-.2,1.053-.061C325.411,69.458,324.731,68.98,324.245,69.415Z" transform="translate(-324.112 -69.232)" fill="#c78b5c"/>
                </g>
              </g>
              <g id="Grupo_877659" data-name="Grupo 877659" transform="translate(5.955 35.78)">
                <path id="Trazado_619742" data-name="Trazado 619742" d="M316.07,85.967h0Z" transform="translate(-313.203 -82.177)" fill="#292928"/>
                <path id="Trazado_619743" data-name="Trazado 619743" d="M316.07,85.966l.011,0-.011,0Z" transform="translate(-313.203 -82.176)"/>
                <path id="Trazado_619744" data-name="Trazado 619744" d="M314.175,86.847c.2-.12.425-.237.655-.351C314.6,86.61,314.38,86.727,314.175,86.847Z" transform="translate(-312.924 -82.255)" fill="#292928"/>
                <path id="Trazado_619745" data-name="Trazado 619745" d="M315.017,86.4c.238-.118.485-.233.735-.346C315.5,86.166,315.255,86.282,315.017,86.4Z" transform="translate(-313.048 -82.189)" fill="#292928"/>
                <path id="Trazado_619746" data-name="Trazado 619746" d="M313.472,87.321a4.936,4.936,0,0,1,.534-.366A4.936,4.936,0,0,0,313.472,87.321Z" transform="translate(-312.821 -82.322)" fill="#292928"/>
                <path id="Trazado_619747" data-name="Trazado 619747" d="M316.062,85.912l-.011,0h0l-.109.049.771-.346-.543.244Z" transform="translate(-313.185 -82.126)" fill="#292928"/>
                <path id="Trazado_619748" data-name="Trazado 619748" d="M326.133,83.775c-.562.079-.694-1.915-1.133-2.208-.193-.128-.495.055-.683.1a11.29,11.29,0,0,1-1.451.272,21.021,21.021,0,0,1-2.61.136c-.316,0-2.819-.27-2.914.183-.142.683.184,1.3-.237,1.961a2.693,2.693,0,0,1-1.057.862c.063-.023.129-.043.189-.071l-.543.244c.114-.053.234-.111.354-.173-.9.333-2.052.3-2.734.992a1.848,1.848,0,0,0-.521,1.867,30.245,30.245,0,0,0,17.019-1.338,7.958,7.958,0,0,0-.993-2.01A3.122,3.122,0,0,0,326.133,83.775Z" transform="translate(-312.709 -81.523)"/>
                <path id="Trazado_619749" data-name="Trazado 619749" d="M316.752,85.619c-.061.027-.126.048-.189.071-.119.062-.24.12-.354.173Z" transform="translate(-313.224 -82.126)"/>
              </g>
            </g>
          </g>
        </g>
        <g id="Grupo_877676" data-name="Grupo 877676" transform="translate(68.046 19.421)">
          <g id="Grupo_877675" data-name="Grupo 877675" clip-path="url(#clip-path-4)">
            <circle id="Elipse_6954" data-name="Elipse 6954" cx="22.827" cy="22.827" r="22.827" transform="matrix(0.987, -0.161, 0.161, 0.987, -0.447, 6.885)" fill="#71a4c4"/>
            <g id="Grupo_877674" data-name="Grupo 877674" transform="translate(10.709 7.35)">
              <g id="Grupo_877672" data-name="Grupo 877672">
                <path id="Trazado_619750" data-name="Trazado 619750" d="M379.668,36.5s-14.986,3.145-6.374,21.793c3.043,6.584.124,10.374.124,10.374,4.378,4.044,22.982,3.16,28.647-2.927,0,0-7.254-8.593-8.217-23.867C393.312,33.352,379.668,36.5,379.668,36.5Z" transform="translate(-370.625 -33.92)" fill="#ffd400"/>
                <path id="Trazado_619751" data-name="Trazado 619751" d="M392.157,66.768l-7.622-4.4s4.747,11.353,2.725,14.454,8.239.831,8.239.831S391.317,69.97,392.157,66.768Z" transform="translate(-372.673 -37.811)" fill="#ebb083"/>
                <path id="Trazado_619752" data-name="Trazado 619752" d="M391.541,69.366a13.387,13.387,0,0,0,1.839-1.407l-8.351-4.206S388.85,70.824,391.541,69.366Z" transform="translate(-372.746 -38.015)" fill="#bd875e"/>
                <path id="Trazado_619753" data-name="Trazado 619753" d="M395.751,43.469c-6.248-5.8-16.312-6.921-15.2,5.958,0,0-2.194-.931-3.427.66-2.489,3.206,3.008,5.564,3.008,5.564a15.109,15.109,0,0,0,.926,1.55,27.432,27.432,0,0,0,12.516,9.176C404.823,51.574,395.751,43.469,395.751,43.469Z" transform="translate(-371.487 -34.419)" fill="url(#radial-gradient-3)"/>
                <g id="Grupo_877663" data-name="Grupo 877663" transform="translate(19.749 14.799)">
                  <path id="Trazado_619754" data-name="Trazado 619754" d="M394.143,50.987c-.055-.165-.395.038-.357.172.737,2.72,2.65,4.315,3.191,5.055a21.041,21.041,0,0,1-2.007.71c-.278.054-.167.4.005.431.212.034,1.81-.635,2.523-.855a.165.165,0,0,0,.1-.264C396.2,54.524,395.077,53.8,394.143,50.987Z" transform="translate(-393.783 -50.925)" fill="#bd7d40"/>
                </g>
                <g id="Grupo_877665" data-name="Grupo 877665" transform="translate(16.958 22.502)">
                  <path id="Trazado_619755" data-name="Trazado 619755" d="M392.3,63.089s2.842,5.53,4.959.062C397.262,63.151,395.359,67.161,392.3,63.089Z" transform="translate(-390.774 -60.419)" fill="#cc8f5e"/>
                  <g id="Grupo_877664" data-name="Grupo 877664">
                    <path id="Trazado_619756" data-name="Trazado 619756" d="M396.381,60.39a1.172,1.172,0,0,0-1.373.862,1.07,1.07,0,0,0-1.512-.316,3.621,3.621,0,0,1-2.986.083A12.923,12.923,0,0,0,393.7,64.4c1.459.884,2.976-.29,3.64-1.808a24.716,24.716,0,0,1,1.121-2.631A3.371,3.371,0,0,1,396.381,60.39Z" transform="translate(-390.51 -59.958)" fill="#e03b45"/>
                    <path id="Trazado_619757" data-name="Trazado 619757" d="M395.96,62.15c-1.822.741-4.424-.355-4.424-.355.86.724,2.346,2.18,3.618,2.014,1.654-.217,2.736-3,2.736-3A5.839,5.839,0,0,1,395.96,62.15Z" transform="translate(-390.661 -60.084)" fill="#fff"/>
                  </g>
                </g>
                <g id="Grupo_877668" data-name="Grupo 877668" transform="translate(13.494 15.041)">
                  <g id="Grupo_877667" data-name="Grupo 877667" transform="translate(1.591 0.569)">
                    <g id="Grupo_877666" data-name="Grupo 877666" clip-path="url(#clip-path-5)">
                      <path id="Trazado_619758" data-name="Trazado 619758" d="M389.651,51.885a1.488,1.488,0,1,0,1.629,1.33A1.489,1.489,0,0,0,389.651,51.885Z" transform="translate(-388.314 -51.877)" fill="#fff"/>
                      <path id="Trazado_619759" data-name="Trazado 619759" d="M389.5,52.034a1.214,1.214,0,1,0,1.33,1.086A1.214,1.214,0,0,0,389.5,52.034Z" transform="translate(-388.328 -51.899)" fill="#213159"/>
                    </g>
                  </g>
                  <path id="Trazado_619761" data-name="Trazado 619761" d="M388.878,51.252a2.119,2.119,0,0,0-1.7,1.359.643.643,0,0,1-.73.159s1.179.706,1.6.617a1.188,1.188,0,0,1,.467-.831,1.707,1.707,0,0,1,2.268-.09A1.675,1.675,0,0,0,388.878,51.252Z" transform="translate(-386.448 -51.21)" fill="#0f0f0f"/>
                </g>
                <g id="Grupo_877671" data-name="Grupo 877671" transform="translate(22.004 14.192)">
                  <g id="Grupo_877670" data-name="Grupo 877670" transform="translate(0.025 0.704)">
                    <g id="Grupo_877669" data-name="Grupo 877669" clip-path="url(#clip-path-6)">
                      <path id="Trazado_619762" data-name="Trazado 619762" d="M397.428,51.131a1.488,1.488,0,1,0,1.91.878A1.487,1.487,0,0,0,397.428,51.131Z" transform="translate(-396.457 -51.039)" fill="#fff"/>
                      <path id="Trazado_619763" data-name="Trazado 619763" d="M397.332,51.4a1.155,1.155,0,1,0,1.483.681A1.151,1.151,0,0,0,397.332,51.4Z" transform="translate(-396.475 -51.081)" fill="#213159"/>
                    </g>
                  </g>
                  <path id="Trazado_619765" data-name="Trazado 619765" d="M399.759,50.781a2.12,2.12,0,0,0-2.125-.472c-1.434.358-1.19,2.091-1.19,2.091a1.575,1.575,0,0,1,1.851-1.086,1.949,1.949,0,0,1,1.031.545c.414-.1,1.16-1.257,1.16-1.257A.649.649,0,0,1,399.759,50.781Z" transform="translate(-396.428 -50.213)" fill="#0f0f0f"/>
                </g>
                <path id="Trazado_619766" data-name="Trazado 619766" d="M395.149,47.589c-.348.116-.262,1,.406.906a6.1,6.1,0,0,1,1.8-.623c.727-.1,1.855.154,2.341-.08a6.457,6.457,0,0,0-2.407-.679A8.513,8.513,0,0,0,395.149,47.589Z" transform="translate(-374.206 -35.565)" fill="#7e4f20"/>
                <path id="Trazado_619767" data-name="Trazado 619767" d="M389.8,48.514a8.365,8.365,0,0,0-2.176.275,6.511,6.511,0,0,0-2.038,1.446c.537.057,1.514-.56,2.234-.713a6.241,6.241,0,0,1,1.905-.019C390.386,49.365,390.172,48.507,389.8,48.514Z" transform="translate(-372.828 -35.771)" fill="#7e4f20"/>
                <path id="Trazado_619768" data-name="Trazado 619768" d="M396.085,35.858c-3.512-4.527-9.758-1.542-12.636,2.158,0,0,5.078,11.648,19.053,1.776C402.5,39.791,400.047,40.965,396.085,35.858Z" transform="translate(-372.513 -33.572)" fill="#ffd400"/>
                <path id="Trazado_619769" data-name="Trazado 619769" d="M377.446,48.826c4.474-.332,3.919,2.906,3.919,2.906,2.877-2.332,5.328-12.253,5.328-12.253C376.76,38.753,377.446,48.826,377.446,48.826Z" transform="translate(-371.628 -34.436)" fill="#ffd400"/>
                <path id="Trazado_619770" data-name="Trazado 619770" d="M380.52,57.118a1.391,1.391,0,1,0,1.527,1.242A1.391,1.391,0,0,0,380.52,57.118Z" transform="translate(-371.898 -37.037)" fill="#fff"/>
              </g>
              <g id="Grupo_877673" data-name="Grupo 877673" transform="translate(9.592 31.566)">
                <path id="Trazado_619771" data-name="Trazado 619771" d="M398.217,76.724c.032.014.063.028.093.043-.031-.015-.061-.038-.092-.051Z" transform="translate(-384.279 -71.489)" fill="#ee5842"/>
                <path id="Trazado_619772" data-name="Trazado 619772" d="M394.966,75.782c-2.622-.592-2.612-5.2-2.612-5.2a6.236,6.236,0,0,1-6.433.016c.906,4.3,1.016,5.963-1.261,6.486-.745.169-2.413,1.036-2.558,1.562a8.275,8.275,0,0,0-.229,1.676,29.7,29.7,0,0,0,8.6.3,32.475,32.475,0,0,0,5.532-1.043c.867-.247,2.28-.646,3.044-.949C398.666,77.36,397.665,76.391,394.966,75.782Z" transform="translate(-381.873 -70.587)" fill="#ee5842"/>
              </g>
            </g>
          </g>
        </g>
        <g id="Grupo_877686" data-name="Grupo 877686" transform="translate(128.836 16.43)">
          <g id="Grupo_877685" data-name="Grupo 877685" clip-path="url(#clip-path-7)">
            <path id="Trazado_619773" data-name="Trazado 619773" d="M449.86,21.566a22.827,22.827,0,1,0,25.029,20.389A22.828,22.828,0,0,0,449.86,21.566Z" transform="translate(-429.351 -21.446)" fill="#8ae2df"/>
            <g id="Grupo_877684" data-name="Grupo 877684" transform="translate(11.543 8.013)">
              <g id="Grupo_877683" data-name="Grupo 877683">
                <path id="Trazado_619774" data-name="Trazado 619774" d="M463.105,48.78l-8.1,10.028c1.365,3.152-1.237,10.319-1.237,10.319-.018,5.053,12.577.837,9.163-2.226S463.105,48.78,463.105,48.78Z" transform="translate(-444.489 -33.482)" fill="#ebae76"/>
                <path id="Trazado_619775" data-name="Trazado 619775" d="M456.586,65.073c4.822-.506,6.316-6.857,6.316-6.857l-8.942,4.168C455.252,64.246,455.321,65.2,456.586,65.073Z" transform="translate(-444.516 -34.871)" fill="#c7915e"/>
                <path id="Trazado_619776" data-name="Trazado 619776" d="M464.934,43.91a1.811,1.811,0,0,0-.206-.012,21.355,21.355,0,0,0,.448-4.543c.548-3.362-12.14-3.87-12.14-3.87-13.533,9.679-9.627,26.993-9.627,26.993a28.1,28.1,0,0,0,16.472-4c1.117-.625,2.245-4.518,3.622-9.648a2.886,2.886,0,0,0,.814.229,2.6,2.6,0,1,0,.617-5.153Z" transform="translate(-442.887 -31.525)" fill="url(#radial-gradient-4)"/>
                <g id="Grupo_877677" data-name="Grupo 877677" transform="translate(2.015 12.978)">
                  <path id="Trazado_619777" data-name="Trazado 619777" d="M450.058,46.105a49.187,49.187,0,0,0-4.76,6.158.2.2,0,0,0,.088.322,17.441,17.441,0,0,0,3.469.71c.2-.012.175-.4-.141-.426a14.208,14.208,0,0,1-2.878-.624,42.3,42.3,0,0,1,4.622-5.9C450.569,46.225,450.2,45.953,450.058,46.105Z" transform="translate(-445.25 -46.06)" fill="#bd7d40"/>
                </g>
                <g id="Grupo_877679" data-name="Grupo 877679" transform="translate(12 10.56)">
                  <g id="Grupo_877678" data-name="Grupo 877678" clip-path="url(#clip-path-8)">
                    <path id="Trazado_619778" data-name="Trazado 619778" d="M458.272,43.234a1.175,1.175,0,1,0,1.026,1.308A1.175,1.175,0,0,0,458.272,43.234Z" transform="translate(-456.958 -43.225)" fill="#fff"/>
                    <path id="Trazado_619779" data-name="Trazado 619779" d="M458.493,43.344a.931.931,0,1,0,.814,1.035A.93.93,0,0,0,458.493,43.344Z" transform="translate(-457.031 -43.242)" fill="#5b3109"/>
                  </g>
                </g>
                <g id="Grupo_877681" data-name="Grupo 877681" transform="translate(6.698 9.272)">
                  <g id="Grupo_877680" data-name="Grupo 877680" clip-path="url(#clip-path-9)">
                    <path id="Trazado_619781" data-name="Trazado 619781" d="M452.205,41.752a1.173,1.173,0,1,0,.849,1.426A1.172,1.172,0,0,0,452.205,41.752Z" transform="translate(-450.741 -41.714)" fill="#fff"/>
                    <path id="Trazado_619782" data-name="Trazado 619782" d="M452.405,41.881a.93.93,0,1,0,.673,1.133A.934.934,0,0,0,452.405,41.881Z" transform="translate(-450.815 -41.734)" fill="#5b3109"/>
                  </g>
                </g>
                <g id="Grupo_877682" data-name="Grupo 877682" transform="translate(8.557 20.659)">
                  <path id="Trazado_619784" data-name="Trazado 619784" d="M452.92,55.288c.54-.139.917-.11,1.089.085.245.275.038.81.036.818s.421-.611.081-.924C453.631,54.805,452.92,55.288,452.92,55.288Z" transform="translate(-452.92 -55.067)" fill="#bd8048"/>
                </g>
                <path id="Trazado_619785" data-name="Trazado 619785" d="M445.494,55.9s.526,3.971,2.537,3.733,4.194-3.409,4.194-3.409S447.234,57.435,445.494,55.9Z" transform="translate(-443.27 -34.531)" fill="#fff"/>
                <path id="Trazado_619786" data-name="Trazado 619786" d="M454.187,39.018l-1.874-.258c-.24-.035-.471.2-.516.521a.527.527,0,0,0,.356.64l1.874.258c.24.033.47-.2.516-.524A.529.529,0,0,0,454.187,39.018Z" transform="translate(-444.197 -32.007)" fill="#5b3109"/>
                <path id="Trazado_619787" data-name="Trazado 619787" d="M460.736,40.3l-2.187-.3a.592.592,0,0,0-.157,1.163l2.186.3a.591.591,0,0,0,.159-1.162Z" transform="translate(-445.105 -32.189)" fill="#5b3109"/>
                <path id="Trazado_619788" data-name="Trazado 619788" d="M466.015,36.124c-1.072-1.448-3.54-.978-3.54-.978a2.435,2.435,0,0,1-2.11-2.678c.07-1.677-4.8-2.48-3.9-.307.653,1.568-5.378-3.308-6.637,1.967,0,0-2.72,2.039-1.968,3.851.425,1.024,3.467-1.775,6.143-.843s5.624,1.632,8.018-.176a17.546,17.546,0,0,1,1.528,5.779c.023,2.506-2.165,3.158-1.361,5.3.415,1.1.767-1.9,2.349-3.405a1.494,1.494,0,0,1,2.106-.061c1.469,1.116.986,4.606-2.472,3.5l-.938,3.64c.8.118,10.46-3.543,3.218-11.3C466.452,40.409,468.283,39.187,466.015,36.124Z" transform="translate(-443.6 -30.842)" fill="#5b3109"/>
              </g>
              <path id="Trazado_619789" data-name="Trazado 619789" d="M464.73,69.8c-.6-.228-1.617-.405-1.919-.53-.57-.236-1.243-.623-1.339-2.31-.036-.64-4.161,1.139-7.565.763-.71-.079-.314,2.489-.89,2.509l-2.372.826h0c-1.044.269-1.711,2.749-1.368,2.83a35.2,35.2,0,0,0,9.313.336,33.252,33.252,0,0,0,3.745-.6,25.664,25.664,0,0,0,4.02-1.213S465.69,70.166,464.73,69.8Z" transform="translate(-443.814 -36.138)" fill="#00677f"/>
            </g>
          </g>
        </g>
        <g id="Grupo_877697" data-name="Grupo 877697" transform="translate(22.781 120.941)">
          <g id="Grupo_877696" data-name="Grupo 877696" clip-path="url(#clip-path-10)">
            <circle id="Elipse_6956" data-name="Elipse 6956" cx="22.827" cy="22.827" r="22.827" transform="translate(-4.687 5.947) rotate(-13.469)" fill="#71a4c4"/>
            <g id="Grupo_877695" data-name="Grupo 877695" transform="translate(11.329 10.707)">
              <g id="Grupo_877693" data-name="Grupo 877693">
                <path id="Trazado_619791" data-name="Trazado 619791" d="M333.673,180.969l-8.955-7.641s5.948,12.919,3.41,16.36,10.878,4.916,9.908.307C338.036,190,333.022,184.1,333.673,180.969Z" transform="translate(-319.223 -159.021)" fill="#ebae76"/>
                <path id="Trazado_619792" data-name="Trazado 619792" d="M333.789,187.635c1.18-.125,1.394-1.376,2.8-3.082l-10.409-2.758S330.3,187.993,333.789,187.635Z" transform="translate(-319.438 -160.268)" fill="#bd875e"/>
                <path id="Trazado_619793" data-name="Trazado 619793" d="M332.565,159.317s-11.491.264-11.05,3.314a19.382,19.382,0,0,0,.333,4.119c-.062,0-.123,0-.187.009a2.35,2.35,0,1,0,.478,4.675,2.551,2.551,0,0,0,.742-.2c1.167,4.665,2.124,8.207,3.124,8.79a25.448,25.448,0,0,0,14.848,3.879S344.663,168.294,332.565,159.317Z" transform="translate(-318.456 -156.959)" fill="url(#radial-gradient-5)"/>
                <g id="Grupo_877687" data-name="Grupo 877687" transform="translate(14.831 10.471)">
                  <path id="Trazado_619794" data-name="Trazado 619794" d="M336.041,168.843c-.175-.068-.467.152-.348.238a14.322,14.322,0,0,1,4.449,4.725,12.823,12.823,0,0,1-2.567.715c-.285.036-.291.394-.1.395a15.76,15.76,0,0,0,3.1-.826c.186-.091.094-.241.064-.3A13.662,13.662,0,0,0,336.041,168.843Z" transform="translate(-335.665 -168.83)" fill="#bd7d40"/>
                </g>
                <g id="Grupo_877689" data-name="Grupo 877689" transform="translate(10.19 8.282)">
                  <g id="Grupo_877688" data-name="Grupo 877688" clip-path="url(#clip-path-11)">
                    <path id="Trazado_619795" data-name="Trazado 619795" d="M331.241,166.269a1.131,1.131,0,1,0,1.237,1.011A1.134,1.134,0,0,0,331.241,166.269Z" transform="translate(-330.224 -166.263)" fill="#fff"/>
                    <path id="Trazado_619796" data-name="Trazado 619796" d="M331.041,166.336a.928.928,0,1,0,1.017.829A.93.93,0,0,0,331.041,166.336Z" transform="translate(-330.221 -166.273)" fill="#0f1214"/>
                  </g>
                </g>
                <g id="Grupo_877691" data-name="Grupo 877691" transform="translate(15.005 7.205)">
                  <g id="Grupo_877690" data-name="Grupo 877690" clip-path="url(#clip-path-12)">
                    <path id="Trazado_619798" data-name="Trazado 619798" d="M336.687,165.031a1.062,1.062,0,1,0,1.279.785A1.059,1.059,0,0,0,336.687,165.031Z" transform="translate(-335.869 -165.001)" fill="#fff"/>
                    <path id="Trazado_619799" data-name="Trazado 619799" d="M336.524,165.085a.873.873,0,1,0,.4,1.7.873.873,0,0,0-.4-1.7Z" transform="translate(-335.867 -165.01)" fill="#0f1214"/>
                  </g>
                </g>
                <g id="Grupo_877692" data-name="Grupo 877692" transform="translate(14.067 17.491)">
                  <path id="Trazado_619801" data-name="Trazado 619801" d="M334.894,177.234c-.312.278.06.837.06.837s-.178-.494.047-.739c.156-.173.5-.194.984-.058C335.985,177.274,335.35,176.824,334.894,177.234Z" transform="translate(-334.77 -177.062)" fill="#bd8048"/>
                </g>
                <rect id="Rectángulo_327125" data-name="Rectángulo 327125" width="3.36" height="1.02" transform="translate(8.647 6.993) rotate(-20.862)" fill="#0f0f0f"/>
                <rect id="Rectángulo_327126" data-name="Rectángulo 327126" width="3.358" height="1.023" transform="translate(13.83 5.495) rotate(-7.585)" fill="#0f0f0f"/>
                <path id="Trazado_619802" data-name="Trazado 619802" d="M321.722,165.58a1.892,1.892,0,1,0,1.838,1.7A1.777,1.777,0,0,0,321.722,165.58Z" transform="translate(-318.566 -157.88)" fill="#0f1214"/>
                <path id="Trazado_619803" data-name="Trazado 619803" d="M321.65,159.738a1.891,1.891,0,1,0,1.837,1.7A1.779,1.779,0,0,0,321.65,159.738Z" transform="translate(-318.555 -157.02)" fill="#0f1214"/>
                <path id="Trazado_619804" data-name="Trazado 619804" d="M324.569,157.613a1.89,1.89,0,1,0,1.841,1.7A1.778,1.778,0,0,0,324.569,157.613Z" transform="translate(-318.985 -156.707)" fill="#0f1214"/>
                <path id="Trazado_619805" data-name="Trazado 619805" d="M328.057,157.257a1.89,1.89,0,1,0,1.839,1.7A1.778,1.778,0,0,0,328.057,157.257Z" transform="translate(-319.498 -156.655)" fill="#0f1214"/>
                <path id="Trazado_619806" data-name="Trazado 619806" d="M331.38,156.917a1.89,1.89,0,1,0,1.841,1.7A1.777,1.777,0,0,0,331.38,156.917Z" transform="translate(-319.988 -156.605)" fill="#0f1214"/>
                <path id="Trazado_619807" data-name="Trazado 619807" d="M334.875,156.56a1.891,1.891,0,1,0,1.839,1.7A1.776,1.776,0,0,0,334.875,156.56Z" transform="translate(-320.502 -156.552)" fill="#0f1214"/>
                <path id="Trazado_619808" data-name="Trazado 619808" d="M323.553,168.857a1.891,1.891,0,1,0,1.84,1.7A1.776,1.776,0,0,0,323.553,168.857Z" transform="translate(-318.836 -158.362)" fill="#0f1214"/>
                <path id="Trazado_619809" data-name="Trazado 619809" d="M319.743,162.144a1.892,1.892,0,1,0,1.839,1.7A1.777,1.777,0,0,0,319.743,162.144Z" transform="translate(-318.275 -157.374)" fill="#0f1214"/>
                <path id="Trazado_619810" data-name="Trazado 619810" d="M322.433,161.869a1.891,1.891,0,1,0,1.84,1.7A1.777,1.777,0,0,0,322.433,161.869Z" transform="translate(-318.671 -157.333)" fill="#0f1214"/>
                <path id="Trazado_619811" data-name="Trazado 619811" d="M324.715,159.047a1.889,1.889,0,1,0,1.842,1.7A1.777,1.777,0,0,0,324.715,159.047Z" transform="translate(-319.007 -156.918)" fill="#0f1214"/>
                <path id="Trazado_619812" data-name="Trazado 619812" d="M328.122,157.889a1.891,1.891,0,1,0,1.839,1.7A1.781,1.781,0,0,0,328.122,157.889Z" transform="translate(-319.508 -156.748)" fill="#0f1214"/>
                <path id="Trazado_619813" data-name="Trazado 619813" d="M323.913,172.389a1.89,1.89,0,1,0,1.84,1.7A1.776,1.776,0,0,0,323.913,172.389Z" transform="translate(-318.889 -158.882)" fill="#0f1214"/>
                <path id="Trazado_619814" data-name="Trazado 619814" d="M335.76,178.166s1.418,2.305,3.237,2.556,1.22-2.409,1.22-2.409C338.617,179.673,335.76,178.166,335.76,178.166Z" transform="translate(-320.849 -159.733)" fill="#fff"/>
              </g>
              <g id="Grupo_877694" data-name="Grupo 877694" transform="translate(4.648 28.679)">
                <path id="Trazado_619815" data-name="Trazado 619815" d="M339.666,191.443l.053.042c.683.063.681.426.884,1.555a22.076,22.076,0,0,1,.565,2.391,15.237,15.237,0,0,0,2.892-1.408,5.2,5.2,0,0,0-.758-1.65C342.538,191.4,339.666,191.443,339.666,191.443Z" transform="translate(-326.072 -190.367)" fill="#fff"/>
                <path id="Trazado_619816" data-name="Trazado 619816" d="M332.887,194.221l-.486,1.2-4.346-2.315a7.248,7.248,0,0,0-.786.335l-.683,3.57c1.076.025,5.181.25,6.356.13.5-.051,1-.118,1.484-.192l-.416-2.1Z" transform="translate(-324.146 -190.612)" fill="#40969d"/>
                <path id="Trazado_619817" data-name="Trazado 619817" d="M338.919,191.2l.686.258-2.3,3.278-.785-1.048-.432.747.669,2.072a27.675,27.675,0,0,0,4.364-1.292,12.132,12.132,0,0,0-.664-2.472C340.089,191.7,339.6,191.26,338.919,191.2Z" transform="translate(-325.545 -190.331)" fill="#40969d"/>
                <path id="Trazado_619818" data-name="Trazado 619818" d="M336.209,193.8l-1.384-1.846-.85,2.1,1.122.629.416,2.1q.473-.075.932-.163l-.669-2.072Z" transform="translate(-325.234 -190.441)" fill="#0f1214"/>
                <path id="Trazado_619819" data-name="Trazado 619819" d="M337.884,190.92l-.911-.739s-2.866,2.724-8.167.364l-1.175,1.822.578.309,4.346,2.315.486-1.2.85-2.1,1.384,1.846.785,1.048,2.3-3.278-.424-.344Z" transform="translate(-324.3 -190.181)" fill="#fff"/>
                <path id="Trazado_619820" data-name="Trazado 619820" d="M326.835,193.473a3.922,3.922,0,0,0-3.11,2.969,12.8,12.8,0,0,0,3.423.658C328.542,193.3,326.835,193.473,326.835,193.473Z" transform="translate(-323.725 -190.665)" fill="#fff"/>
              </g>
            </g>
          </g>
        </g>
        <g id="Grupo_877707" data-name="Grupo 877707" transform="translate(71.445 105.823)">
          <g id="Grupo_877706" data-name="Grupo 877706" clip-path="url(#clip-path-13)">
            <circle id="Elipse_6957" data-name="Elipse 6957" cx="22.827" cy="22.827" r="22.827" transform="matrix(0.648, -0.761, 0.761, 0.648, -0.145, 34.611)" fill="#8ae2df"/>
            <g id="Grupo_877705" data-name="Grupo 877705" transform="translate(22.484 17.859)">
              <path id="Trazado_619822" data-name="Trazado 619822" d="M406.242,164.718l-7.612,9.794c1.339,3.1-2.581,10.246-2.581,10.246-.018,4.961,13.686.365,10.332-2.642S406.242,164.718,406.242,164.718Z" transform="translate(-389.541 -149.787)" fill="#ebae76"/>
              <path id="Trazado_619823" data-name="Trazado 619823" d="M400.012,181.417c3.67-.374,6.61-7.651,6.61-7.651l-9.719,4.845C398.714,180.073,398.768,181.541,400.012,181.417Z" transform="translate(-389.667 -151.119)" fill="#bd875e"/>
              <path id="Trazado_619824" data-name="Trazado 619824" d="M406.882,157.1c-.067.009-.13.019-.2.032a20.668,20.668,0,0,0-.582-4.314c-.235-3.242-12.124-.919-12.124-.919-10.43,11.972-2.988,27.182-2.988,27.182a26.807,26.807,0,0,0,14.412-7.341c.9-.827,1.086-4.689,1.235-9.754a2.528,2.528,0,0,0,.8.034,2.476,2.476,0,1,0-.559-4.92Z" transform="translate(-388.418 -147.782)" fill="url(#radial-gradient-6)"/>
              <g id="Grupo_877698" data-name="Grupo 877698" transform="translate(1.39 13.196)">
                <path id="Trazado_619825" data-name="Trazado 619825" d="M393.369,169.333a13.609,13.609,0,0,1-2.808.057,40.593,40.593,0,0,1,2.991-6.5c.077-.135-.327-.305-.421-.136a47.442,47.442,0,0,0-3.066,6.765c-.018.064-.061.246.153.282a16.451,16.451,0,0,0,3.38-.1C393.782,169.641,393.667,169.281,393.369,169.333Z" transform="translate(-390.048 -162.684)" fill="#bd7d40"/>
              </g>
              <g id="Grupo_877699" data-name="Grupo 877699" transform="translate(7.811 19.801)">
                <path id="Trazado_619826" data-name="Trazado 619826" d="M398.692,170.522c-.561-.318-1.114.287-1.114.287.47-.245.824-.3,1.028-.161.289.206.214.744.215.751S399.076,170.739,398.692,170.522Z" transform="translate(-397.578 -170.43)" fill="#bd8048"/>
              </g>
              <path id="Trazado_619827" data-name="Trazado 619827" d="M391.493,172.76s1.272,2.684,3.086,2.02a4.1,4.1,0,0,0,2.379-2.089S393.444,173.8,391.493,172.76Z" transform="translate(-388.871 -150.961)" fill="#fff"/>
              <path id="Trazado_619828" data-name="Trazado 619828" d="M399.007,157.8a.565.565,0,0,0,.4.687l2.333.629a.558.558,0,0,0,.687-.393L399.7,157.4A.564.564,0,0,0,399.007,157.8Z" transform="translate(-389.974 -148.708)" fill="#422a15"/>
              <path id="Trazado_619829" data-name="Trazado 619829" d="M394.483,155.907l-2.319,1.294a.529.529,0,0,0,.631.392l2.014-.614a.565.565,0,0,0-.327-1.072Z" transform="translate(-388.97 -148.488)" fill="#422a15"/>
              <path id="Trazado_619830" data-name="Trazado 619830" d="M408.35,151.588s1.979-3.056-5.091-4.18-4.607,2.893-7.109,2.71c-4.987-.356-3.509-2.6-3.509-2.6-3.734-.457-3.8,5.286-1.1,5.958s13.438-.924,13.438-.924a26.332,26.332,0,0,0-.363,8.149c1.042-3.279,2.1-3.7,2.1-3.7,2.564-1.315,3.6,2.385,2.146,3.485a3.13,3.13,0,0,1-2.731.669s-.584,8.7-1.035,9.707-11.022,6.4-12.959,6.268-2.5-2.969-2.5-2.969c.323,3.46,1.539,4.852,1.539,4.852a26.154,26.154,0,0,0,14.341-6.944c1.923-1.706,1.944-7.807,1.944-7.807.342.331,1.721,1.518,3.074-4.4C412.092,153.079,408.35,151.588,408.35,151.588Z" transform="translate(-388.598 -147.21)" fill="#734925"/>
              <g id="Grupo_877701" data-name="Grupo 877701" transform="translate(8.199 11.013)">
                <g id="Grupo_877700" data-name="Grupo 877700" clip-path="url(#clip-path-14)">
                  <path id="Trazado_619831" data-name="Trazado 619831" d="M399.045,160.13a1.126,1.126,0,1,0,1.235,1.006A1.126,1.126,0,0,0,399.045,160.13Z" transform="translate(-398.033 -160.124)" fill="#fff"/>
                  <path id="Trazado_619832" data-name="Trazado 619832" d="M399.414,160.061a.939.939,0,1,0,1.03.838A.939.939,0,0,0,399.414,160.061Z" transform="translate(-398.112 -160.114)" fill="#564336"/>
                </g>
              </g>
              <g id="Grupo_877703" data-name="Grupo 877703" transform="translate(3.182 10.393)">
                <g id="Grupo_877702" data-name="Grupo 877702" clip-path="url(#clip-path-15)">
                  <path id="Trazado_619834" data-name="Trazado 619834" d="M393.309,159.4a1.126,1.126,0,1,0,1.093,1.159A1.126,1.126,0,0,0,393.309,159.4Z" transform="translate(-392.149 -159.397)" fill="#fff"/>
                  <path id="Trazado_619835" data-name="Trazado 619835" d="M393.668,159.357a.939.939,0,1,0,.911.966A.939.939,0,0,0,393.668,159.357Z" transform="translate(-392.231 -159.391)" fill="#564336"/>
                </g>
              </g>
              <g id="Grupo_877704" data-name="Grupo 877704" transform="translate(4.668 30.919)">
                <path id="Trazado_619837" data-name="Trazado 619837" d="M394.724,187.633c-.237.7-.52,1.614-.832,2.562q.673.054,1.4.077c-.07-.835-.127-1.544-.141-2.056a2.49,2.49,0,0,1,.263-1.558A1.616,1.616,0,0,0,394.724,187.633Z" transform="translate(-393.892 -183.936)" fill="#fff"/>
                <path id="Trazado_619838" data-name="Trazado 619838" d="M398.878,189.593l-3.071-2.893.36-.442a1.028,1.028,0,0,0-.536.339,2.49,2.49,0,0,0-.264,1.558c.014.512.071,1.221.141,2.056a37.816,37.816,0,0,0,4.448-.136l.116-1.054-.607-.679Z" transform="translate(-394.109 -183.877)" fill="#ff8f33"/>
                <path id="Trazado_619839" data-name="Trazado 619839" d="M403.522,189.209l-.756-1.133-1.026.886.008.976a37.964,37.964,0,0,0,5.068-.883c-.124-1.446.9-3.229,2.068-2.821a5.922,5.922,0,0,0-1.369-.34Z" transform="translate(-395.047 -183.824)" fill="#ff8f33"/>
                <path id="Trazado_619840" data-name="Trazado 619840" d="M410.448,186.464a1.27,1.27,0,0,0-.276-.148A1.389,1.389,0,0,1,410.448,186.464Z" transform="translate(-396.288 -183.886)" fill="#ff8f33"/>
                <path id="Trazado_619841" data-name="Trazado 619841" d="M401.209,186.122l-1.035,2.2.607.679-.116,1.054c.2-.019.41-.038.617-.06l.235-.025-.008-.976,1.026-.886Z" transform="translate(-394.817 -183.857)" fill="#2e3133"/>
                <path id="Trazado_619842" data-name="Trazado 619842" d="M397.074,184.832l-.83,1.016-.36.442,3.071,2.893.588-1.249,1.035-2.2,1.326,1.988.756,1.133,3.994-3.314.125-.1-1.2-1.967C400.615,187.032,397.074,184.832,397.074,184.832Z" transform="translate(-394.185 -183.466)" fill="#fff"/>
                <path id="Trazado_619843" data-name="Trazado 619843" d="M409.805,186.3l-.047-.019c-1.163-.408-2.192,1.376-2.068,2.821a22.478,22.478,0,0,0,3.357-1.094l-.965-1.56A1.39,1.39,0,0,0,409.805,186.3Z" transform="translate(-395.922 -183.872)" fill="#fff"/>
              </g>
            </g>
          </g>
        </g>
        <g id="Grupo_877722" data-name="Grupo 877722" transform="translate(138.521 109.117)">
          <g id="Grupo_877721" data-name="Grupo 877721" clip-path="url(#clip-path-16)">
            <path id="Trazado_619844" data-name="Trazado 619844" d="M461.216,130.251a22.827,22.827,0,1,0,25.029,20.389A22.827,22.827,0,0,0,461.216,130.251Z" transform="translate(-440.707 -130.131)" fill="#71a4c4"/>
            <g id="Grupo_877720" data-name="Grupo 877720" transform="translate(9.288 6.271)">
              <g id="Grupo_877717" data-name="Grupo 877717">
                <path id="Trazado_619845" data-name="Trazado 619845" d="M459.579,173.562c.983-.894-2.591.892-1.911,2.612,1.03,2.61-1.329,2.268-1.463.768-.107-1.209,1.216-.937.929-.164,0,0,.462-.567-.059-.941-.335-.24-.944-.231-1.814.608-1.367,1.316.218,4.539,4.423,2.168C463.257,176.6,457.075,175.837,459.579,173.562Z" transform="translate(-452.067 -142.76)" fill="#422509"/>
                <path id="Trazado_619846" data-name="Trazado 619846" d="M458.559,142.15s-12.494.719-4,19.886a44.071,44.071,0,0,0,4.076,7.257c2.517,1.31,19.124-7.687,14.859-22.384C471.3,139.354,458.559,142.15,458.559,142.15Z" transform="translate(-451.598 -138.097)" fill="#422509"/>
                <path id="Trazado_619847" data-name="Trazado 619847" d="M472.019,169.8,465,165.755s4.373,10.459,2.51,13.316,7.588.765,7.588.765S471.246,172.755,472.019,169.8Z" transform="translate(-453.571 -141.646)" fill="#ebae76"/>
                <path id="Trazado_619848" data-name="Trazado 619848" d="M471.451,172.2a12.324,12.324,0,0,0,1.7-1.3l-7.694-3.874S468.973,173.542,471.451,172.2Z" transform="translate(-453.637 -141.833)" fill="#bd875e"/>
                <path id="Trazado_619849" data-name="Trazado 619849" d="M475.331,148.341c-5.757-5.344-15.03-6.375-14,5.488,0,0-2.021-.856-3.157.608-2.292,2.954,2.77,5.127,2.77,5.127a13.92,13.92,0,0,0,.854,1.426,25.287,25.287,0,0,0,11.531,8.456C483.686,155.808,475.331,148.341,475.331,148.341Z" transform="translate(-452.478 -138.521)" fill="url(#radial-gradient-7)"/>
                <g id="Grupo_877708" data-name="Grupo 877708" transform="translate(18.692 15.116)">
                  <path id="Trazado_619850" data-name="Trazado 619850" d="M473.848,155.267c-.049-.152-.362.034-.328.159a11.811,11.811,0,0,0,2.94,4.656,18.962,18.962,0,0,1-1.849.654c-.258.049-.156.373,0,.4.2.032,1.666-.582,2.323-.786a.154.154,0,0,0,.094-.245C475.746,158.526,474.708,157.858,473.848,155.267Z" transform="translate(-473.517 -155.21)" fill="#bd7d40"/>
                </g>
                <g id="Grupo_877710" data-name="Grupo 877710" transform="translate(16.12 22.213)">
                  <path id="Trazado_619851" data-name="Trazado 619851" d="M472.152,166.416s2.621,5.1,4.571.058C476.723,166.474,474.97,170.169,472.152,166.416Z" transform="translate(-470.744 -163.957)" fill="#cc8f5e"/>
                  <g id="Grupo_877709" data-name="Grupo 877709">
                    <path id="Trazado_619852" data-name="Trazado 619852" d="M475.911,163.929a1.079,1.079,0,0,0-1.266.792.988.988,0,0,0-1.393-.289,3.338,3.338,0,0,1-2.75.077,11.9,11.9,0,0,0,2.935,3.11c1.343.817,2.741-.264,3.354-1.665a22.423,22.423,0,0,1,1.032-2.423A3.113,3.113,0,0,1,475.911,163.929Z" transform="translate(-470.501 -163.532)" fill="#d24337"/>
                    <path id="Trazado_619853" data-name="Trazado 619853" d="M475.523,165.55c-1.679.684-4.076-.326-4.076-.326.792.666,2.161,2.008,3.333,1.854,1.524-.2,2.521-2.761,2.521-2.761A5.381,5.381,0,0,1,475.523,165.55Z" transform="translate(-470.64 -163.648)" fill="#fff"/>
                  </g>
                </g>
                <g id="Grupo_877713" data-name="Grupo 877713" transform="translate(12.929 15.339)">
                  <g id="Grupo_877712" data-name="Grupo 877712" transform="translate(1.466 0.525)">
                    <g id="Grupo_877711" data-name="Grupo 877711" clip-path="url(#clip-path-17)">
                      <path id="Trazado_619854" data-name="Trazado 619854" d="M469.71,156.094a1.371,1.371,0,1,0,1.5,1.225A1.371,1.371,0,0,0,469.71,156.094Z" transform="translate(-468.479 -156.087)" fill="#fff"/>
                      <path id="Trazado_619855" data-name="Trazado 619855" d="M469.517,156.066a1.183,1.183,0,1,0,1.3,1.056A1.182,1.182,0,0,0,469.517,156.066Z" transform="translate(-468.475 -156.083)" fill="#1c1f21"/>
                    </g>
                  </g>
                  <path id="Trazado_619857" data-name="Trazado 619857" d="M469,155.509a1.955,1.955,0,0,0-1.567,1.254.6.6,0,0,1-.674.148s1.087.651,1.471.568a1.445,1.445,0,0,1,.438-.994,1.5,1.5,0,0,1,2.082.145A1.543,1.543,0,0,0,469,155.509Z" transform="translate(-466.759 -155.471)" fill="#0f0f0f"/>
                </g>
                <g id="Grupo_877716" data-name="Grupo 877716" transform="translate(20.771 14.557)">
                  <g id="Grupo_877715" data-name="Grupo 877715" transform="translate(0.022 0.649)">
                    <g id="Grupo_877714" data-name="Grupo 877714" clip-path="url(#clip-path-18)">
                      <path id="Trazado_619858" data-name="Trazado 619858" d="M476.874,155.4a1.37,1.37,0,1,0,1.762.808A1.369,1.369,0,0,0,476.874,155.4Z" transform="translate(-475.98 -155.315)" fill="#fff"/>
                      <path id="Trazado_619859" data-name="Trazado 619859" d="M476.7,155.337a1.125,1.125,0,1,0,1.445.663A1.125,1.125,0,0,0,476.7,155.337Z" transform="translate(-475.978 -155.308)" fill="#1c1f21"/>
                    </g>
                  </g>
                  <path id="Trazado_619861" data-name="Trazado 619861" d="M479.022,155.078a1.949,1.949,0,0,0-1.959-.435c-1.32.331-1.1,1.926-1.1,1.926a1.546,1.546,0,0,1,1.822-1.2,1.333,1.333,0,0,1,.832.7c.381-.1,1.069-1.16,1.069-1.16A.6.6,0,0,1,479.022,155.078Z" transform="translate(-475.954 -154.554)" fill="#0f0f0f"/>
                </g>
                <path id="Trazado_619862" data-name="Trazado 619862" d="M474.777,152.135c-.322.11-.243.921.373.836a5.65,5.65,0,0,1,1.656-.573c.671-.093,1.71.141,2.159-.074a5.978,5.978,0,0,0-2.218-.625A7.925,7.925,0,0,0,474.777,152.135Z" transform="translate(-454.983 -139.577)" fill="#0f0f0f"/>
                <path id="Trazado_619863" data-name="Trazado 619863" d="M469.851,152.989a7.814,7.814,0,0,0-2,.252,5.982,5.982,0,0,0-1.878,1.333c.495.052,1.394-.518,2.057-.657a5.718,5.718,0,0,1,1.754-.017C470.388,153.774,470.191,152.982,469.851,152.989Z" transform="translate(-453.714 -139.767)" fill="#0f0f0f"/>
                <path id="Trazado_619864" data-name="Trazado 619864" d="M476.13,139.125c-3.236-4.17-9.481.528-12.133,3.936,0,0,7.692,10.8,20.566,1.706A15.551,15.551,0,0,1,476.13,139.125Z" transform="translate(-453.423 -137.485)" fill="#422509"/>
                <path id="Trazado_619865" data-name="Trazado 619865" d="M458.466,153.275c4.122-.3,3.611,2.679,3.611,2.679,2.649-2.149,4.908-11.289,4.908-11.289C457.835,144,458.466,153.275,458.466,153.275Z" transform="translate(-452.608 -138.537)" fill="#422509"/>
                <path id="Trazado_619866" data-name="Trazado 619866" d="M461.3,160.914a1.282,1.282,0,1,0,1.405,1.146A1.284,1.284,0,0,0,461.3,160.914Z" transform="translate(-452.856 -140.932)" fill="#fff"/>
                <path id="Trazado_619867" data-name="Trazado 619867" d="M458.2,174.284l1.767,1.029.7-1.175-1.758-1.056Z" transform="translate(-452.57 -142.725)" fill="#fc3"/>
              </g>
              <g id="Grupo_877719" data-name="Grupo 877719" transform="translate(9.236 30.563)">
                <path id="Trazado_619868" data-name="Trazado 619868" d="M477.761,182.957l.038-.013-.089-.034Z" transform="translate(-464.678 -174.734)" fill="#690"/>
                <path id="Trazado_619869" data-name="Trazado 619869" d="M477.431,178.842a6.548,6.548,0,0,0-2.508-.8c-2.762-.418-2.738-4.719-2.738-4.719a5.748,5.748,0,0,1-5.928.015c.835,3.959.937,5.493-1.162,5.974-.686.157-2.221.954-2.355,1.441-.1.353-.2.78-.31,1.241a20.529,20.529,0,0,0,8.021.629,23.35,23.35,0,0,0,5.062-1.078l-.051-.048.089.035a19.742,19.742,0,0,0,2.971-1.283A6.748,6.748,0,0,0,477.431,178.842Z" transform="translate(-462.429 -173.323)" fill="#c1d3d2"/>
                <g id="Grupo_877718" data-name="Grupo 877718" transform="translate(4.235 4.124)">
                  <path id="Trazado_619870" data-name="Trazado 619870" d="M467.922,178.924a.585.585,0,1,0,.64.523A.587.587,0,0,0,467.922,178.924Z" transform="translate(-467.395 -178.271)" fill="#fff"/>
                  <path id="Trazado_619871" data-name="Trazado 619871" d="M469.6,179.279a.586.586,0,1,0,.641.524A.585.585,0,0,0,469.6,179.279Z" transform="translate(-467.643 -178.324)" fill="#fff"/>
                  <path id="Trazado_619872" data-name="Trazado 619872" d="M471.312,179.363a.585.585,0,1,0,.643.522A.586.586,0,0,0,471.312,179.363Z" transform="translate(-467.895 -178.336)" fill="#fff"/>
                  <path id="Trazado_619873" data-name="Trazado 619873" d="M473.02,179a.585.585,0,1,0,.641.523A.585.585,0,0,0,473.02,179Z" transform="translate(-468.146 -178.283)" fill="#fff"/>
                  <path id="Trazado_619874" data-name="Trazado 619874" d="M474.5,178.162a.585.585,0,1,0,.641.524A.583.583,0,0,0,474.5,178.162Z" transform="translate(-468.364 -178.159)" fill="#fff"/>
                </g>
              </g>
            </g>
          </g>
        </g>
        <g id="Grupo_877723" data-name="Grupo 877723" transform="translate(19.954 73.176)">
          <rect id="Rectángulo_327127" data-name="Rectángulo 327127" width="39.972" height="2.674" transform="matrix(0.995, -0.102, 0.102, 0.995, 0, 15.879)" fill="#4e6c82"/>
          <rect id="Rectángulo_327128" data-name="Rectángulo 327128" width="39.972" height="2.674" transform="translate(0.478 20.557) rotate(-5.835)" fill="#4e6c82"/>
          <rect id="Rectángulo_327129" data-name="Rectángulo 327129" width="39.972" height="2.674" transform="translate(0.956 25.233) rotate(-5.828)" fill="#4e6c82"/>
          <rect id="Rectángulo_327130" data-name="Rectángulo 327130" width="39.972" height="2.674" transform="translate(1.434 29.913) rotate(-5.835)" fill="#4e6c82"/>
          <rect id="Rectángulo_327131" data-name="Rectángulo 327131" width="29.055" height="2.674" transform="matrix(0.995, -0.102, 0.102, 0.995, 1.912, 34.592)" fill="#4e6c82"/>
          <rect id="Rectángulo_327132" data-name="Rectángulo 327132" width="39.972" height="2.674" transform="translate(57.822 9.971) rotate(-5.835)" fill="#4e6c82"/>
          <rect id="Rectángulo_327133" data-name="Rectángulo 327133" width="39.972" height="2.674" transform="translate(58.3 14.651) rotate(-5.838)" fill="#4e6c82"/>
          <rect id="Rectángulo_327134" data-name="Rectángulo 327134" width="39.972" height="2.674" transform="translate(58.778 19.328) rotate(-5.836)" fill="#4e6c82"/>
          <rect id="Rectángulo_327135" data-name="Rectángulo 327135" width="39.972" height="2.674" transform="translate(59.256 24.003) rotate(-5.827)" fill="#4e6c82"/>
          <rect id="Rectángulo_327136" data-name="Rectángulo 327136" width="20.248" height="2.674" transform="translate(59.734 28.684) rotate(-5.835)" fill="#4e6c82"/>
          <rect id="Rectángulo_327137" data-name="Rectángulo 327137" width="39.972" height="2.674" transform="matrix(0.995, -0.102, 0.102, 0.995, 115.644, 4.065)" fill="#4e6c82"/>
          <rect id="Rectángulo_327138" data-name="Rectángulo 327138" width="39.972" height="2.674" transform="translate(116.122 8.739) rotate(-5.826)" fill="#4e6c82"/>
          <rect id="Rectángulo_327139" data-name="Rectángulo 327139" width="39.972" height="2.674" transform="translate(116.6 13.419) rotate(-5.828)" fill="#4e6c82"/>
          <rect id="Rectángulo_327140" data-name="Rectángulo 327140" width="39.972" height="2.674" transform="translate(117.078 18.099) rotate(-5.835)" fill="#4e6c82"/>
          <rect id="Rectángulo_327141" data-name="Rectángulo 327141" width="33.797" height="2.674" transform="matrix(0.995, -0.102, 0.102, 0.995, 117.556, 22.778)" fill="#4e6c82"/>
        </g>
        <g id="Grupo_877724" data-name="Grupo 877724" transform="translate(29.394 166.611)">
          <rect id="Rectángulo_327142" data-name="Rectángulo 327142" width="39.972" height="2.675" transform="translate(0 15.872) rotate(-5.827)" fill="#4e6c82"/>
          <rect id="Rectángulo_327143" data-name="Rectángulo 327143" width="39.972" height="2.674" transform="translate(0.478 20.554) rotate(-5.836)" fill="#4e6c82"/>
          <rect id="Rectángulo_327144" data-name="Rectángulo 327144" width="39.972" height="2.674" transform="translate(0.956 25.233) rotate(-5.838)" fill="#4e6c82"/>
          <rect id="Rectángulo_327145" data-name="Rectángulo 327145" width="39.972" height="2.675" transform="translate(1.434 29.909) rotate(-5.834)" fill="#4e6c82"/>
          <rect id="Rectángulo_327146" data-name="Rectángulo 327146" width="15.958" height="2.674" transform="translate(1.912 34.587) rotate(-5.828)" fill="#4e6c82"/>
          <rect id="Rectángulo_327147" data-name="Rectángulo 327147" width="39.972" height="2.675" transform="matrix(0.995, -0.102, 0.102, 0.995, 57.822, 9.968)" fill="#4e6c82"/>
          <rect id="Rectángulo_327148" data-name="Rectángulo 327148" width="39.972" height="2.674" transform="translate(58.3 14.644) rotate(-5.828)" fill="#4e6c82"/>
          <rect id="Rectángulo_327149" data-name="Rectángulo 327149" width="39.972" height="2.674" transform="translate(58.778 19.325) rotate(-5.836)" fill="#4e6c82"/>
          <rect id="Rectángulo_327150" data-name="Rectángulo 327150" width="39.972" height="2.674" transform="translate(59.256 24.003) rotate(-5.836)" fill="#4e6c82"/>
          <rect id="Rectángulo_327151" data-name="Rectángulo 327151" width="33.318" height="2.674" transform="translate(59.734 28.682) rotate(-5.836)" fill="#4e6c82"/>
          <rect id="Rectángulo_327152" data-name="Rectángulo 327152" width="39.972" height="2.675" transform="translate(115.644 4.058) rotate(-5.827)" fill="#4e6c82"/>
          <rect id="Rectángulo_327153" data-name="Rectángulo 327153" width="39.972" height="2.674" transform="translate(116.122 8.74) rotate(-5.836)" fill="#4e6c82"/>
          <rect id="Rectángulo_327154" data-name="Rectángulo 327154" width="39.972" height="2.674" transform="matrix(0.995, -0.102, 0.102, 0.995, 116.6, 13.418)" fill="#4e6c82"/>
          <rect id="Rectángulo_327155" data-name="Rectángulo 327155" width="39.972" height="2.675" transform="translate(117.078 18.092) rotate(-5.825)" fill="#4e6c82"/>
          <rect id="Rectángulo_327156" data-name="Rectángulo 327156" width="22.959" height="2.674" transform="translate(117.556 22.773) rotate(-5.828)" fill="#4e6c82"/>
        </g>
        <g id="Grupo_877725" data-name="Grupo 877725" transform="translate(46.595 72.545)">
          <path id="Trazado_619876" data-name="Trazado 619876" d="M333.875,97.868l-.96-9.168,13.859-1.452.96,9.169Zm-.024-8.409.784,7.471L346.8,95.657l-.783-7.472Z" transform="translate(-332.915 -87.247)" fill="#262323"/>
        </g>
        <g id="Grupo_877726" data-name="Grupo 877726" transform="translate(103.939 66.387)">
          <path id="Trazado_619877" data-name="Trazado 619877" d="M401.117,90.646l-.96-9.168,13.86-1.451.96,9.168Zm-.024-8.409.784,7.472,12.163-1.275-.783-7.472Z" transform="translate(-400.157 -80.026)" fill="#262323"/>
        </g>
        <g id="Grupo_877727" data-name="Grupo 877727" transform="translate(163.994 59.749)">
          <path id="Trazado_619878" data-name="Trazado 619878" d="M471.537,82.864l-.96-9.168,13.86-1.452.961,9.169Zm-.022-8.41.782,7.472,12.163-1.274-.783-7.472Z" transform="translate(-470.577 -72.243)" fill="#262323"/>
        </g>
        <g id="Grupo_877728" data-name="Grupo 877728" transform="translate(58.286 165.725)">
          <path id="Trazado_619879" data-name="Trazado 619879" d="M347.584,207.132l-.96-9.169,13.86-1.452.96,9.169Zm-.023-8.41.783,7.471,12.163-1.274-.783-7.471Z" transform="translate(-346.624 -196.51)" fill="#262323"/>
        </g>
        <g id="Grupo_877729" data-name="Grupo 877729" transform="translate(115.63 159.566)">
          <path id="Trazado_619880" data-name="Trazado 619880" d="M414.826,199.909l-.96-9.168,13.86-1.452.96,9.169ZM414.8,191.5l.783,7.471,12.163-1.273-.783-7.472Z" transform="translate(-413.866 -189.288)" fill="#262323"/>
        </g>
        <g id="Grupo_877730" data-name="Grupo 877730" transform="translate(175.685 152.929)">
          <path id="Trazado_619881" data-name="Trazado 619881" d="M485.247,192.127l-.961-9.168,13.86-1.452.961,9.169Zm-.023-8.41.783,7.472,12.162-1.275-.783-7.471Z" transform="translate(-484.286 -181.506)" fill="#262323"/>
        </g>
      </g>
      <path id="Trazado_619882" data-name="Trazado 619882" d="M474.21,69.037l6.839,10.3,11.2-12.314L480.98,74.558Z" transform="translate(-307.118 -11.726)" fill="#e53417"/>
    </g>
    <g id="Grupo_877739" data-name="Grupo 877739" transform="translate(229.293 41.44)">
      <g id="Grupo_877734" data-name="Grupo 877734" transform="translate(0 146.451)">
        <g id="Grupo_877733" data-name="Grupo 877733" transform="translate(36.718)">
          <path id="Trazado_619883" data-name="Trazado 619883" d="M324.781,226.6s-5.348-2.755-13.308,12.5c-3.469,6.633-9.371,14.057-13.3,16.937l-3.687-36.088L283,236.584s1.442,41.5-2.719,47.445c-.793,3.558-1.884,6.848-7.928,14.042,0,0,18.224,12.175,22.15,6.67,0,0,1.41-6.564,7.135-14.855,1.243-1.808,2.806-3.825,4.44-6.05,4.481-6.114,9.493-13.922,9.932-23.906,0,0-.491-4.854,5.286-14.35C331.783,228.307,324.781,226.6,324.781,226.6Z" transform="translate(-272.349 -219.945)" fill="#ffc891"/>
          <path id="Trazado_619884" data-name="Trazado 619884" d="M330.728,230.547c-2.809-.878-6.673,4.71-6.673,4.71a7.034,7.034,0,0,0,6.67,4C331.5,238.446,334.314,231.66,330.728,230.547Z" transform="translate(-279.96 -221.492)" fill="#fff"/>
        </g>
        <path id="Trazado_619885" data-name="Trazado 619885" d="M266.857,314.048l30.462,12.63,6.512-16.556-30.076-12.016Z" transform="translate(-234.822 -231.45)" fill="#fff"/>
        <path id="Trazado_619886" data-name="Trazado 619886" d="M263.4,305.554l-42.3,87.789h45l31-73.221Z" transform="translate(-229.293 -232.546)" fill="#0d0917"/>
      </g>
      <g id="Grupo_877738" data-name="Grupo 877738" transform="translate(222.702)">
        <g id="Grupo_877736" data-name="Grupo 877736">
          <g id="Grupo_877735" data-name="Grupo 877735">
            <path id="Trazado_619887" data-name="Trazado 619887" d="M577.728,63.274l-16.37-.148c.047.071.123.13.183.207l-22.194.024-15.559-1.133c-6.157.383-18.892.728-19.055.808l.072,11.283a6.271,6.271,0,0,0,2.412.532l4.8.042c-.035-.02-.055-.044-.1-.073,0,0,.273-5.874,14.987.233l.293-.008,15.994.21a5.837,5.837,0,0,0,1.344,3.6,5.7,5.7,0,0,0,4.372,2.125l.264,0,15.2.165A5.574,5.574,0,0,0,570,75.523l2.92.042,4.938.047a6,6,0,0,0,6.057-6.077A6.323,6.323,0,0,0,582.48,65.6,6.224,6.224,0,0,0,577.728,63.274ZM563.072,76.861l-12.194-.113c-2.254-.02-4.1-.677-4.4-1.456l20.973.208C567.15,76.288,565.313,76.907,563.072,76.861Z" transform="translate(-492.538 -50.278)" fill="#685637"/>
            <path id="Trazado_619888" data-name="Trazado 619888" d="M502.628,63.169l0-.01-12.19,5.53,12.281,5.8-.014-.039Z" transform="translate(-490.434 -50.416)" fill="#a3927b"/>
            <path id="Trazado_619889" data-name="Trazado 619889" d="M587.535,103.983c-8.763-7.882-8.713-18.913-13.4-27.476l-2.92-.042a5.574,5.574,0,0,1-5.618,5.623l-15.2-.165c1.412,4.761-1.3,5.9-1.3,5.9s-1.144,2.386-9.678-6.26c-3.623-3.645-11.143-9.872-14.249-11.161-14.706-6.1-12.03,5.351-11.932,5.425,9.881,7.458,13.706,8.838,19.954,14.276,3.139,2.746,11.089,12.763,14.074,15.686,3.685,3.59,6.275,4.331,11.086,6.4,5.112,2.2,10.269,4.007,14.73,7.439a60.046,60.046,0,0,1,15.712,18.052,45.474,45.474,0,0,1,2.052,4.136c8.2,2.125,16.6-18.288,16.6-18.288C598.246,115.042,587.535,103.983,587.535,103.983Z" transform="translate(-493.752 -51.219)" fill="#ffc891"/>
            <path id="Trazado_619890" data-name="Trazado 619890" d="M528.556,51.733c-10.627,1.557-25.819,2.7-22.83,6.445a10.448,10.448,0,0,0,3.687,2.35c2.555,1.171,11.363.83,17.525.445l12.5.321,26.285-.2c-.061-.077-15.16-12.882-15.16-12.882Z" transform="translate(-492.628 -48.216)" fill="#fc9"/>
            <path id="Trazado_619891" data-name="Trazado 619891" d="M558.083,79l12.194.113c2.241.046,4.077-.573,4.374-1.36l-20.973-.208C553.98,78.328,555.829,78.985,558.083,79Z" transform="translate(-499.743 -52.534)" fill="#f9ca80"/>
          </g>
          <path id="Trazado_619892" data-name="Trazado 619892" d="M514.128,74.009c-.329,3.155,6.352,6.014,6.352,6.014,4.209-3.351,1.942-7.2,1.942-7.2C521.4,72.182,514.525,70.008,514.128,74.009Z" transform="translate(-493.92 -51.666)" fill="#fcf0eb"/>
          <path id="Trazado_619893" data-name="Trazado 619893" d="M507.423,56.849c1.43.986,4.205.516,5.987-.268,1.053-.463.838-1.848.838-1.848C513.3,54.88,506.154,55.974,507.423,56.849Z" transform="translate(-492.912 -49.175)" fill="#fcf0eb"/>
        </g>
        <g id="Grupo_877737" data-name="Grupo 877737" transform="translate(71.935 48.767)">
          <path id="Trazado_619894" data-name="Trazado 619894" d="M574.785,125.921l12,15.546,26.57-20.531-12-15.536Z" transform="translate(-574.785 -105.401)" fill="#fff"/>
          <path id="Trazado_619895" data-name="Trazado 619895" d="M609.749,112.936l-30.286,23.383L741.424,365.139h40.925Z" transform="translate(-575.474 -106.51)" fill="#0d0917"/>
        </g>
      </g>
    </g>
  </g>
</svg>
