<svg xmlns="http://www.w3.org/2000/svg" width="274.359" height="258.186" viewBox="0 0 274.359 258.186">
  <g id="Grupo_876220" data-name="Grupo 876220" transform="translate(-84.321 -143.005)">
    <path id="Trazado_619170" data-name="Trazado 619170" d="M289.013,312.285c-.751-.617-24.384-19.118,29.875-2.327,15.212,4.707,41.147,32.258,58.83,48.956,18.5,17.474,23.036,36.254-1.322,37.764-30.291,1.879-16.683-19.994-50.415-41.541C315.581,348.5,272.815,328.917,289.013,312.285Z" transform="translate(-55.061 -44.265)" fill="#fff"/>
    <path id="Trazado_619171" data-name="Trazado 619171" d="M272.155,238.97s-2.863,30.046-3.036,35.71-3.329,29.079-15.724,31.155-15.983-14.539-16.927-21.525,2.314-31.345,2.314-31.345Z" transform="translate(-42.064 -26.561)" fill="#f8c3ac"/>
    <path id="Trazado_619172" data-name="Trazado 619172" d="M236.468,284.311a55.591,55.591,0,0,0,1.25,6.406q1.922-1.418,3.79-2.908a124.5,124.5,0,0,0,23.133-24.248c2.068-2.858,4.242-5.867,6.076-9.009.733-8.161,1.439-15.582,1.439-15.582l-33.373,14S235.524,277.324,236.468,284.311Z" transform="translate(-42.064 -26.561)" fill="#2a2524" opacity="0.29"/>
    <path id="Trazado_619173" data-name="Trazado 619173" d="M209.358,188.244s-6.986,41.842,21.888,61.407c0,0,36.841-9.514,36.269-39.839-.6-31.811-1.461-46.493-24.547-46.525C212.756,163.245,209.358,188.244,209.358,188.244Z" transform="translate(-34.403 -5.614)" fill="#f8c3ac"/>
    <path id="Trazado_619174" data-name="Trazado 619174" d="M251.418,199.349c.119-.19,10.55-2.974,13.453,3.328a20.4,20.4,0,0,0-12.958,0S249.648,202.182,251.418,199.349Z" transform="translate(-46.063 -15.381)" fill="#362b29"/>
    <path id="Trazado_619175" data-name="Trazado 619175" d="M227.9,199.349c-.119-.19-10.55-2.974-13.454,3.328a20.4,20.4,0,0,1,12.958,0S229.675,202.182,227.9,199.349Z" transform="translate(-36.018 -15.381)" fill="#362b29"/>
    <g id="Grupo_876195" data-name="Grupo 876195" transform="translate(175.639 204.803)" opacity="0.19">
      <path id="Trazado_619176" data-name="Trazado 619176" d="M270.5,232.8c0,2.4-3.212,4.343-7.175,4.343s-7.175-1.945-7.175-4.343,3.213-4.343,7.175-4.343S270.5,230.4,270.5,232.8Z" transform="translate(-223.198 -228.454)" fill="#d43552"/>
      <path id="Trazado_619177" data-name="Trazado 619177" d="M220.761,232.8c0,2.4-2.277,4.343-5.086,4.343s-5.086-1.945-5.086-4.343,2.277-4.343,5.086-4.343S220.761,230.4,220.761,232.8Z" transform="translate(-210.588 -228.454)" fill="#d43552"/>
    </g>
    <path id="Trazado_619178" data-name="Trazado 619178" d="M230.931,222.293a10.36,10.36,0,0,1-.93,6.968,9.53,9.53,0,0,1-2.261,2.868,10.893,10.893,0,0,1-1.465,1.1c-.516.326-1.078.563-1.614.845l.356-.559a8.334,8.334,0,0,0,.456,2.293,6.221,6.221,0,0,0,1.175,2.026,5.33,5.33,0,0,0,1.919,1.4,8.868,8.868,0,0,0,2.423.653,7.183,7.183,0,0,1-2.595-.163,5.259,5.259,0,0,1-2.369-1.276,6.437,6.437,0,0,1-1.566-2.241,7.973,7.973,0,0,1-.644-2.672l-.021-.366.377-.194a13.359,13.359,0,0,0,2.78-1.76,9.721,9.721,0,0,0,2.139-2.473A12.784,12.784,0,0,0,230.931,222.293Z" transform="translate(-38.605 -21.946)" fill="#d43552"/>
    <path id="Trazado_619179" data-name="Trazado 619179" d="M227.4,250.317s16.427-.142,22.234-3.692c0,0-1.133,13.181-11.117,14.171S227.4,250.317,227.4,250.317Z" transform="translate(-39.601 -28.68)" fill="#82070a"/>
    <path id="Trazado_619180" data-name="Trazado 619180" d="M250.476,252.953c-5.044-.8-14.3-.937-16.3,8.1a9.127,9.127,0,0,0,6.215,1.4C246.4,261.857,249.2,256.849,250.476,252.953Z" transform="translate(-41.477 -30.337)" fill="#d43552"/>
    <path id="Trazado_619181" data-name="Trazado 619181" d="M233.621,253.149c3.5-.1,10.942.226,15.793-2.671a22.579,22.579,0,0,0,.777-3.853c-4.754,2.907-16.62,3.529-20.769,3.658C229.759,251.611,230.752,253.234,233.621,253.149Z" transform="translate(-40.161 -28.68)" fill="#fff"/>
    <path id="Trazado_619182" data-name="Trazado 619182" d="M263.874,216.459c0,2.366-1.284,4.284-2.868,4.284s-2.868-1.918-2.868-4.284,1.284-4.284,2.868-4.284S263.874,214.093,263.874,216.459Z" transform="translate(-48.11 -19.145)" fill="#362b29"/>
    <path id="Trazado_619183" data-name="Trazado 619183" d="M222.6,216.459c0,2.366,1.284,4.284,2.868,4.284s2.868-1.918,2.868-4.284-1.284-4.284-2.868-4.284S222.6,214.093,222.6,216.459Z" transform="translate(-38.273 -19.145)" fill="#362b29"/>
    <path id="Trazado_619184" data-name="Trazado 619184" d="M256.815,152.2c-.223.02-1.351-1.326-1.527-1.484a16.77,16.77,0,0,0-4.085-2.651,42.513,42.513,0,0,0-10.257-3.863,56.57,56.57,0,0,0-36.215,4.431c1.082,2.719,4.43,3.587,7.312,4.093a33.084,33.084,0,0,0-18.211,27.225,12.3,12.3,0,0,0,8.156-2.382c-.736,2.013-3.155,9.473-1.216,11.271,1.212,1.124,5.134-.572,6.446-1.2q9.1-4.357,17.825-9.431a59.145,59.145,0,0,0-4.236,9.587,130.919,130.919,0,0,0,19.841-10.382l-1.1,5.022a34.051,34.051,0,0,0,14.819-7.613,48.36,48.36,0,0,1,.578,6.9,9.66,9.66,0,0,0,.542,3.93,2.922,2.922,0,0,0,3.184,1.825c-.272.077,1.242,8.8,1.256,9.542a79.428,79.428,0,0,1-.475,10.384,17.085,17.085,0,0,0,4.3,1.81q.409-2.485.884-4.961c.484-2.521,1.655-3.479,3.082-5.354a16.622,16.622,0,0,0,2.881-7.613C271.542,183.92,280.794,149.744,256.815,152.2Z" transform="translate(-30.311 0)" fill="#453835"/>
    <path id="Trazado_619185" data-name="Trazado 619185" d="M288.97,230.566s.914-13.443,0-17.031c0,0,7.436-9.517,10.5-.755C303.162,223.354,293.532,231.851,288.97,230.566Z" transform="translate(-56.644 -18.286)" fill="#f8c3ac"/>
    <g id="Grupo_876200" data-name="Grupo 876200" transform="translate(168.065 182.836)">
      <g id="Grupo_876196" data-name="Grupo 876196">
        <path id="Trazado_619186" data-name="Trazado 619186" d="M212.663,225.518c-6.919,0-12.548-6.155-12.548-13.719s5.629-13.719,12.548-13.719,12.548,6.155,12.548,13.719S219.582,225.518,212.663,225.518Zm0-26.716c-6.521,0-11.825,5.831-11.825,13s5.3,13,11.825,13,11.825-5.83,11.825-13S219.183,198.8,212.663,198.8Z" transform="translate(-200.115 -198.079)" fill="#fff"/>
      </g>
      <g id="Grupo_876197" data-name="Grupo 876197" transform="translate(32.534 0.724)">
        <path id="Trazado_619187" data-name="Trazado 619187" d="M257.72,226.519c-6.959,0-12.62-6.155-12.62-13.719s5.661-13.719,12.62-13.719,12.62,6.154,12.62,13.719S264.679,226.519,257.72,226.519Zm0-26.716c-6.56,0-11.9,5.83-11.9,13s5.337,13,11.9,13,11.9-5.831,11.9-13S264.28,199.8,257.72,199.8Z" transform="translate(-245.1 -199.08)" fill="#fff"/>
      </g>
      <g id="Grupo_876198" data-name="Grupo 876198" transform="translate(24.224 13.248)">
        <path id="Trazado_619188" data-name="Trazado 619188" d="M241.941,218.978a5.358,5.358,0,0,0-3.9-1.857,6.074,6.074,0,0,0-3.89,1.846l-.537-.485a6.717,6.717,0,0,1,4.407-2.084,6.022,6.022,0,0,1,4.441,2.074Z" transform="translate(-233.61 -216.397)" fill="#fff"/>
      </g>
      <g id="Grupo_876199" data-name="Grupo 876199" transform="translate(57.295 12.072)">
        <path id="Trazado_619189" data-name="Trazado 619189" d="M279.573,217.81l-.236-.684,6.849-2.355.236.684Z" transform="translate(-279.337 -214.771)" fill="#fff"/>
      </g>
    </g>
    <path id="Trazado_619190" data-name="Trazado 619190" d="M276.026,332.322c-.012,1.2-.025,2.411-.037,3.652v.006c-.006.612-.012,1.224-.018,1.848q-.018,1.513-.037,3.065c-.055,4.27-.134,8.717-.221,13.28v.007c-.018.667-.03,1.334-.043,2.006-.025,1.015-.048,2.043-.067,3.071-.795,35.75-2.4,75.978-2.643,82.163H213.322c-.189-3.12-.367-6.411-.545-9.843-.5-9.9-.948-20.965-1.309-32.349v-.007c-.361-11.513-.636-23.344-.789-34.649v-.007c-.141-10.724-.184-20.97-.086-29.993,0-.306.007-.618.012-.918v-.006c-.006-.067,0-.123,0-.184v-.019c.012-1.26.031-2.5.055-3.707,0-.128,0-.25.007-.372.055-3.12.129-6.05.22-8.767.019-.458.031-.911.049-1.358.007-.1.007-.208.012-.312q.027-.679.055-1.339c.025-.581.049-1.144.08-1.7v-.006a96.957,96.957,0,0,1,1.193-12.706c-.007-.006,0-.006,0-.006.312-1.572.678-2.49,1.095-2.643a13.26,13.26,0,0,0,1.456-.673c.165-.085.336-.177.508-.269.716-.4,1.505-.875,2.324-1.4.208-.141.435-.281.649-.428a.018.018,0,0,1,.012-.007c.593-.385,1.2-.8,1.8-1.217v-.006c4.484-3.1,9.042-6.766,9.042-6.766s.048.08.147.226a112.262,112.262,0,0,0,7.059,9.862,27.194,27.194,0,0,0,5.029,5.034c.007.006.012.006.018.012a3,3,0,0,0,2.515.728c3.927-1.419,18.059-17.275,18.059-17.275s4.123,3.542,7.744,7.2c.226.221.44.447.655.667h.006c1.065,1.1,2.061,2.2,2.863,3.194a12.535,12.535,0,0,1,1.584,2.342,3.488,3.488,0,0,1,.171.465v.006c.63,2.239.936,9.091,1.01,18.628-.007,0,0,.007,0,.007C276.051,324.351,276.051,328.2,276.026,332.322Z" transform="translate(-34.936 -40.229)" fill="#00b4fb"/>
    <g id="Grupo_876201" data-name="Grupo 876201" transform="translate(192.502 264.155)">
      <path id="Trazado_619191" data-name="Trazado 619191" d="M240.314,310.521s3.205,6.481,4.754,7.471,7.213.85,7.213.85,4.248-5.381,5.948-6.089,5.4,6.1,5.4,6.1-10.069,5.233-10.919,5.233-8.639-.567-8.639-.567-8.466-3.871-9.968-6.75S240.314,310.521,240.314,310.521Z" transform="translate(-233.905 -310.521)" fill="#362b29"/>
      <path id="Trazado_619192" data-name="Trazado 619192" d="M247.5,319.155a60.735,60.735,0,0,0,8.5,0s3.2,6.8,3.012,7.931-5.995,8.308-6.585,8.5-4.158.755-4.924,0-4.4-8.5-4.754-9.252S244.3,320.1,247.5,319.155Z" transform="translate(-236.342 -312.911)" fill="#362b29"/>
      <path id="Trazado_619193" data-name="Trazado 619193" d="M245.73,341.87s-9.29,47.583-9.432,52.681,17.984,10.2,17.984,10.2l3.4-16.994-7.027-45.884Z" transform="translate(-234.567 -319.198)" fill="#362b29"/>
    </g>
    <path id="Trazado_619194" data-name="Trazado 619194" d="M256.716,304.063s11.32,4.6,13.939,14.056c0,0,13.572-23.026,12.439-28.124s-8.078-7.292-8.078-7.292S266.969,295.66,256.716,304.063Z" transform="translate(-47.716 -38.666)" fill="#00b4fb"/>
    <path id="Trazado_619195" data-name="Trazado 619195" d="M256.716,306.853a28.655,28.655,0,0,1,4.611,2.231,14.9,14.9,0,0,1,2.127,1.449c.689.515,1.327,1.094,1.966,1.668a23.141,23.141,0,0,1,3.351,3.929,18.077,18.077,0,0,1,2.179,4.7l-.558-.074c2.592-4.458,5.073-8.992,7.375-13.607,1.145-2.31,2.244-4.644,3.216-7.024.449-1.2,1-2.369,1.412-3.585a9.307,9.307,0,0,0,.7-3.753,8.941,8.941,0,0,1-.336,3.861,24.175,24.175,0,0,1-1.208,3.707c-.981,2.4-2.086,4.747-3.236,7.066-2.31,4.634-4.793,9.17-7.395,13.646l-.348.6-.21-.672a17.466,17.466,0,0,0-2.1-4.524A22.456,22.456,0,0,0,265,312.648c-.625-.561-1.249-1.127-1.924-1.632-.329-.262-.674-.5-1.013-.754s-.662-.524-1.011-.761A33.037,33.037,0,0,0,256.716,306.853Z" transform="translate(-47.716 -41.457)" fill="#362b29"/>
    <path id="Trazado_619196" data-name="Trazado 619196" d="M232.823,285.3s6.214,13.318,13.011,19.46c0,0-11.861,1.233-13.011,15.583,0,0-9.755-16.869-9.041-24.673S228.685,284.813,232.823,285.3Z" transform="translate(-38.59 -39.372)" fill="#00b4fb"/>
    <path id="Trazado_619197" data-name="Trazado 619197" d="M245.811,308.75a17.049,17.049,0,0,0-9.063,5.59,12.223,12.223,0,0,0-.783,1.095l-.379.557-.31.6c-.2.4-.426.793-.608,1.2l-.472,1.266c-.076.213-.166.42-.23.636l-.161.657-.324,1.315c-.158.89-.248,1.793-.376,2.688l-.13.908-.44-.78a114.5,114.5,0,0,1-5.881-11.932,58.6,58.6,0,0,1-2.251-6.275,17.9,17.9,0,0,1-.644-6.62c.031.556.041,1.107.088,1.653l.268,1.626.41,1.6c.134.531.348,1.043.476,1.575a54.725,54.725,0,0,0,2.217,6.211,114.014,114.014,0,0,0,5.847,11.861l-.57.128c.13-.919.222-1.844.385-2.758l.333-1.355.167-.678c.067-.223.158-.438.237-.657l.49-1.31c.189-.426.422-.833.631-1.25l.323-.621.394-.581a12.8,12.8,0,0,1,.816-1.14l.919-1.061,1.03-.955a12.708,12.708,0,0,1,2.3-1.594A14.405,14.405,0,0,1,245.811,308.75Z" transform="translate(-38.567 -43.359)" fill="#362b29"/>
    <path id="Trazado_619198" data-name="Trazado 619198" d="M293.369,444.429H172.238c.067-1.138.2-3.432.379-6.631.049-.844.1-1.75.159-2.716.012-.183.018-.367.03-.556.012-.129.019-.263.025-.392.019-.306.037-.612.055-.93.1-1.658.2-3.456.318-5.377.055-.887.11-1.81.171-2.753.018-.343.043-.685.061-1.028.012-.2.024-.4.036-.594.122-1.976.251-4.056.385-6.215v-.006c.025-.386.049-.764.074-1.156s.048-.777.08-1.168c.012-.245.03-.5.048-.753v-.006c.007-.177.019-.349.031-.532.214-3.4.446-6.962.691-10.638.067-.991.135-1.982.2-2.985.061-.96.128-1.927.2-2.906.037-.52.074-1.046.111-1.566.183-2.716.372-5.475.575-8.246v-.018q.192-2.652.385-5.322c.073-1.01.153-2.013.226-3.022v-.006c.215-2.894.435-5.794.661-8.663.025-.354.055-.71.085-1.064v-.006c.343-4.386.7-8.705,1.059-12.877v-.007c.025-.306.055-.605.08-.905.012-.128.025-.257.03-.385h.006q.138-1.6.276-3.156c.116-1.3.239-2.594.355-3.861.085-.887.165-1.768.251-2.636.122-1.266.244-2.5.367-3.719.007-.08.012-.153.018-.226a.022.022,0,0,1,.007-.019.047.047,0,0,0,.006-.03c.049-.5.1-.991.153-1.48.006-.006.006-.012,0-.012.006-.036.006-.073.012-.11.153-1.48.306-2.918.459-4.3.055-.5.11-.985.166-1.462.11-.954.22-1.891.33-2.8l.074-.623c.025-.177.043-.355.067-.532a124.172,124.172,0,0,1,2.123-13.067c.03-.135.067-.263.1-.391a7.632,7.632,0,0,1,.93-2.4c.043-.061.092-.116.141-.178a14.676,14.676,0,0,1,1.786-1.829,1,1,0,0,1,.123-.1v-.006c.006,0,.006-.007.006-.007.532-.458,1.114-.917,1.737-1.37,4.858-3.555,12.057-6.778,16.316-8.527,0,0,0-.007.006,0,.306-.129.587-.245.856-.355.759-.306,1.389-.55,1.841-.728h.007c.453-.177.734-.281.8-.3a.018.018,0,0,1,.012-.007c.085.4.177.8.269,1.217.294,1.316.612,2.7.954,4.142,1.621,6.748,3.756,14.694,6.063,22.873V329c.343,1.229.7,2.46,1.046,3.695,2.313,8.075,4.735,16.23,6.956,23.558v.012c4.613,15.2,8.356,26.862,8.356,26.862,1.4-2.263,3.958-8.931,6.992-17.587v-.006c1.719-4.906,3.6-10.443,5.494-16.186.288-.857.569-1.719.85-2.588,1.389-4.2,2.771-8.467,4.111-12.632.281-.869.557-1.738.838-2.6,2.637-8.247,5.059-15.954,6.87-21.772,1.022-3.273,1.848-5.946,2.416-7.781.545-1.767.845-2.753.845-2.753a.018.018,0,0,1,.012.006h.007a46.572,46.572,0,0,1,8.491,4.27c4.448,2.814,9.434,7.048,11.82,12.786,1.419,3.419,3.163,15.948,4.906,31.939.141,1.3.288,2.631.428,3.983.111,1.07.226,2.147.337,3.242v.006c.581,5.591,1.15,11.477,1.713,17.447.1,1.095.2,2.2.3,3.3C290.622,406.947,293,438.935,293.369,444.429Z" transform="translate(-24.334 -43.238)" fill="#fff"/>
    <path id="Trazado_619199" data-name="Trazado 619199" d="M185.539,441.885c2.4,1.71,4.234,4.109,6.62,5.835s5.751,2.678,8.24,1.1c1.7-1.075,2.57-3.045,3.322-4.91q3.563-8.847,6.353-17.98a93.009,93.009,0,0,0,3.013-12.218c.619-3.818.861-7.686,1.1-11.546.508-8.158,1.016-16.358.208-24.492-.786-7.908-2.429-17.546-8.723-22.95-3.136-2.693-5.951-5.817-9.711-7.658-4.028-1.972-8.553-2.667-12.941-3.35-.69-.108-1.386-.213-2.083-.3-3.51,28.989-7,86.218-8.178,106.613A32.77,32.77,0,0,0,185.539,441.885Z" transform="translate(-24.479 -55.472)" fill="#bce3fb" opacity="0.51"/>
    <path id="Trazado_619200" data-name="Trazado 619200" d="M211.9,301.794q-3.153,4.113-6.226,8.284c-2.044,2.784-4.073,5.581-5.983,8.452-.474.72-.942,1.444-1.381,2.181-.216.37-.427.742-.615,1.12a4.846,4.846,0,0,0-.241.568.656.656,0,0,0-.026.5,7.6,7.6,0,0,0,1.437,2.019c.571.636,1.177,1.245,1.794,1.844,2.483,2.38,5.105,4.63,7.743,6.845l.187.157-.107.217c-1.887,3.83-3.683,7.717-5.3,11.666a63.178,63.178,0,0,0-2.157,6.008,12.809,12.809,0,0,0-.58,3.064,1.824,1.824,0,0,0,.016.364l.017.177.048.151a1.278,1.278,0,0,0,.147.333l.184.35q.359.7.754,1.4c4.148,7.48,8.412,14.906,12.646,22.344L239.8,424.392l-.54.018,15.471-31.829c5.131-10.622,10.26-21.247,15.273-31.921,1.245-2.672,2.5-5.343,3.677-8.038.284-.664.6-1.373.8-2a2.624,2.624,0,0,0,.032-1c-.032-.354-.088-.713-.152-1.071-.255-1.433-.618-2.862-.985-4.285-.749-2.846-1.58-5.674-2.408-8.505l-1.233-4.252c-.2-.711-.4-1.423-.576-2.145-.087-.363-.176-.723-.242-1.1-.018-.092-.034-.188-.044-.291a1.546,1.546,0,0,1-.017-.339,1.406,1.406,0,0,1,.264-.637,15.893,15.893,0,0,1,1.446-1.737c.5-.545,1.017-1.077,1.531-1.606l3.077-3.175a33.124,33.124,0,0,0,2.865-3.325,3.572,3.572,0,0,0,.487-.916.62.62,0,0,0,.028-.2,1.243,1.243,0,0,0-.069-.221,5.192,5.192,0,0,0-.234-.478c-.349-.636-.754-1.253-1.159-1.866-3.311-4.872-6.9-9.564-10.473-14.253,3.656,4.63,7.319,9.254,10.723,14.083.419.61.835,1.22,1.207,1.87a5.547,5.547,0,0,1,.26.511,1.546,1.546,0,0,1,.1.3.938.938,0,0,1-.03.341,3.848,3.848,0,0,1-.523,1.041,33.424,33.424,0,0,1-2.846,3.423l-3.026,3.231a32.342,32.342,0,0,0-2.849,3.3.905.905,0,0,0-.166.367,1.051,1.051,0,0,0,.017.212,2.543,2.543,0,0,0,.04.255c.062.348.151.7.238,1.058.18.709.374,1.418.57,2.128l1.224,4.247c.827,2.831,1.659,5.663,2.412,8.522.37,1.432.734,2.865,1,4.335.066.368.124.738.158,1.119a3.215,3.215,0,0,1-.045,1.2c-.247.777-.546,1.411-.837,2.1-1.186,2.71-2.438,5.379-3.685,8.054-5.016,10.681-10.145,21.305-15.276,31.929L239.8,424.679l-.252.519-.287-.5L213.721,380.14c-4.236-7.44-8.5-14.861-12.652-22.352q-.392-.7-.767-1.425l-.189-.361a1.712,1.712,0,0,1-.173-.4l-.069-.233-.024-.221a2.36,2.36,0,0,1-.02-.437,13.288,13.288,0,0,1,.6-3.228,63.762,63.762,0,0,1,2.179-6.071c1.627-3.972,3.426-7.861,5.319-11.71l.08.374c-2.673-2.2-5.277-4.482-7.733-6.934-.613-.615-1.214-1.242-1.786-1.9a7.82,7.82,0,0,1-1.5-2.216,1.113,1.113,0,0,1,.04-.766,5.558,5.558,0,0,1,.275-.62c.2-.391.425-.767.652-1.138.457-.739.94-1.458,1.428-2.173,1.967-2.848,4.044-5.61,6.137-8.359S209.749,304.5,211.9,301.794Z" transform="translate(-31.172 -43.237)" fill="#362b29"/>
    <path id="Trazado_619201" data-name="Trazado 619201" d="M255.258,476.541c-.176-2.553-.3-5.106-.451-7.658l-.142-7.662-.325-15.326-.346-15.327-.174-7.663c.043-2.554.06-5.109.123-7.666.185,2.551.325,5.1.489,7.659l.174,7.662.346,15.323.326,15.326.145,7.664C255.371,471.429,255.338,473.985,255.258,476.541Z" transform="translate(-46.915 -75.35)" fill="#362b29"/>
    <path id="Trazado_619202" data-name="Trazado 619202" d="M228.721,214.363c.362.834.355,1.641-.017,1.8s-.965-.384-1.327-1.219-.354-1.641.017-1.8S228.359,213.529,228.721,214.363Z" transform="translate(-39.522 -19.405)" fill="#fff"/>
    <path id="Trazado_619203" data-name="Trazado 619203" d="M264.1,214.363c.362.834.354,1.641-.017,1.8s-.965-.384-1.327-1.219-.355-1.641.016-1.8S263.736,213.529,264.1,214.363Z" transform="translate(-49.314 -19.405)" fill="#fff"/>
    <g id="Grupo_876206" data-name="Grupo 876206" transform="translate(92.404 286.827)">
      <path id="Trazado_619204" data-name="Trazado 619204" d="M180.983,350.617c-14.587-17.021-31.227-5.163-38.6,1.789a8.264,8.264,0,0,1-8.965,1.572c-28.249-12.223-43.658,8.4-35.933,33.329,6.351,20.489,29.747,43.9,39.885,53.344a5.15,5.15,0,0,0,7.945-1.164l4.924-8.349a5.157,5.157,0,0,1,7.367-1.627l8.415,5.8a5.15,5.15,0,0,0,7.809-2.591C179.636,415.446,195.086,367.075,180.983,350.617Z" transform="translate(-95.497 -341.87)" fill="#fff"/>
      <path id="Trazado_619205" data-name="Trazado 619205" d="M142.688,402.276s18.155-1.2,26.629-6.557c0,0,9.769,16.826-8.581,21.38C143.789,421.306,142.688,402.276,142.688,402.276Z" transform="translate(-108.559 -356.774)" fill="#82070a"/>
      <g id="Grupo_876205" data-name="Grupo 876205" transform="translate(24.79 24.926)">
        <g id="Grupo_876204" data-name="Grupo 876204">
          <g id="Grupo_876202" data-name="Grupo 876202" transform="translate(0 7.238)">
            <path id="Trazado_619206" data-name="Trazado 619206" d="M130.7,396.4a.619.619,0,0,1-.59-.506,16.914,16.914,0,0,1-.095-6.2c.393-1.924,1.241-3.1,2.387-3.311s2.357.587,3.409,2.246a16.91,16.91,0,0,1,2.117,5.831.618.618,0,0,1-1.216.223,15.649,15.649,0,0,0-1.945-5.392c-.742-1.171-1.546-1.8-2.141-1.692s-1.122.985-1.4,2.342a15.635,15.635,0,0,0,.1,5.732.619.619,0,0,1-.5.719A.658.658,0,0,1,130.7,396.4Z" transform="translate(-129.775 -386.344)" fill="#362b29"/>
          </g>
          <g id="Grupo_876203" data-name="Grupo 876203" transform="translate(34.055)">
            <path id="Trazado_619207" data-name="Trazado 619207" d="M177.8,386.387a.619.619,0,0,1-.589-.506c-.921-5.013.064-9.1,2.292-9.513s4.6,3.064,5.525,8.077a.618.618,0,1,1-1.215.224c-.8-4.339-2.821-7.32-4.087-7.085s-2.1,3.736-1.3,8.075a.618.618,0,0,1-.5.719A.659.659,0,0,1,177.8,386.387Z" transform="translate(-176.864 -376.335)" fill="#362b29"/>
          </g>
        </g>
      </g>
      <path id="Trazado_619208" data-name="Trazado 619208" d="M156.553,429.836c-.065-.075-.13-.15-.2-.225a3.161,3.161,0,0,0-1.033-.854c-1.2-.53-2.5.395-3.49,1.259a24.163,24.163,0,0,1-5.636,4.042c-5.042,2.319-8.517-.319-11.486-4.282-9.032-12.054-18.176-24.4-22.958-38.683-.616-1.844-1.15-3.728-1.593-5.64a21.423,21.423,0,0,1,1.813-15.4,3.53,3.53,0,0,0,3.906-.017,2.766,2.766,0,0,1,1.247-.686,2.064,2.064,0,0,1,.915.223,15.042,15.042,0,0,0,8.094,1.144,9.125,9.125,0,0,0,6.606-4.493,2.444,2.444,0,0,0,3.194-.051,2.518,2.518,0,0,1,.464-.41,1.76,1.76,0,0,1,1.443.106,10.7,10.7,0,0,0,6.824.532c2.215-.7,4.1-2.818,3.922-5.135a5.113,5.113,0,0,0,7-6.4,16.276,16.276,0,0,1-6.873-.651,16.58,16.58,0,0,1-4.9,4.548c-1.427.864-3.414,1.454-4.643.326-.383-.351-.647-.84-1.1-1.09a3,3,0,0,0-1.527-.2c-4.493.1-8.568-2.522-12.965-3.453-8.2-1.736-17.338.256-22.726,6.939-4.924,6.106-6.019,14.428-5,22a44.984,44.984,0,0,0,1.632,7.31c6.351,20.489,29.747,43.9,39.885,53.344a5.15,5.15,0,0,0,7.946-1.164l4.924-8.349A5.19,5.19,0,0,1,154.3,431.9c.866-.065,4.143.572,4.561,1.4A17.325,17.325,0,0,0,156.553,429.836Z" transform="translate(-95.5 -345.158)" fill="#bce3fb" opacity="0.33"/>
      <path id="Trazado_619209" data-name="Trazado 619209" d="M162.977,420.5c7.543-1.872,10.33-5.818,11-9.815a17.153,17.153,0,0,0-13.455-2.146c-6.146,1.548-8.69,6.2-9.74,9.99C153.458,420.716,157.336,421.9,162.977,420.5Z" transform="translate(-110.8 -360.172)" fill="#d43552"/>
    </g>
    <g id="Grupo_876207" data-name="Grupo 876207" transform="translate(105.789 218.767)">
      <path id="Trazado_619210" data-name="Trazado 619210" d="M366.713,404.942s9.5-11.511-5.671-19.859-125.374-63-159-91.134-67.131-57.444-77.416-41.842c-5.528,8.386,23.89,32.438,65.926,56.258C252.488,343.46,358.208,414.674,366.713,404.942Z" transform="translate(-116.76 -247.762)" fill="#3d672f"/>
      <path id="Trazado_619211" data-name="Trazado 619211" d="M365.3,408.387s9.5-11.511-5.671-19.859-125.373-63-159-91.134-67.131-57.444-77.415-41.842c-5.528,8.386,23.889,32.438,65.925,56.258C251.075,346.905,356.8,418.119,365.3,408.387Z" transform="translate(-116.37 -248.715)" fill="#617a0b"/>
      <path id="Trazado_619212" data-name="Trazado 619212" d="M132.117,265.726s8.005-2.03,15.692,6.435,28.524,13.113,25.449,23.453-17.944,26.912-17.944,26.912-4.314,2.747-13.19-5.409-11.383-13.7-21.08-16.614S108.851,290.721,132.117,265.726Z" transform="translate(-114.005 -252.675)" fill="#fff"/>
      <path id="Trazado_619213" data-name="Trazado 619213" d="M142.134,318.245c-8.875-8.156-11.383-13.7-21.08-16.614-6.553-1.969-9.783-5.768-4.03-15.723a15.835,15.835,0,0,1,8.247,1.083c1.5-2.5,3.26-4.846,4.929-7.226l6.69-9.53c1.188-1.694,3.734.273,2.544,1.967L133,281.372c-1.711,2.437-3.552,4.848-5.071,7.425a10.364,10.364,0,0,1,1.441,1.631c.038.054.1.109.136.163,3.036-3.855,6.174-7.629,9.494-11.243a1.653,1.653,0,0,1,2.256-.289,1.622,1.622,0,0,1,.289,2.256c-3.432,3.736-6.674,7.638-9.8,11.631a44.536,44.536,0,0,0,4.206,3.19,176.468,176.468,0,0,1,12.269-15.1c1.381-1.519,3.942.431,2.544,1.967a176.651,176.651,0,0,0-12.128,14.907c1.533.983,3.145,1.988,4.8,3.015q6.18-8.468,12.61-16.75a1.609,1.609,0,0,1,2.544,1.967q-6.348,8.144-12.422,16.5c1.773,1.12,3.53,2.264,5.22,3.435A126.228,126.228,0,0,1,162.8,291.744c1.393-1.5,3.955.445,2.544,1.967a126.186,126.186,0,0,0-11.362,14.24c3.338,2.519,6.179,5.146,7.8,7.891-3.529,4.538-6.463,7.811-6.463,7.811S151.01,326.4,142.134,318.245Z" transform="translate(-114.014 -253.802)" fill="#2b95f9" opacity="0.79"/>
    </g>
    <g id="Grupo_876208" data-name="Grupo 876208" transform="translate(84.321 261.745)">
      <path id="Trazado_619214" data-name="Trazado 619214" d="M134.3,310.34a4.116,4.116,0,0,0-3.462,1.211,3.626,3.626,0,0,0-2.4-3.111c-1.378-.413-3.137.461-3.234,1.813.1-1.342-3.54-1.81-4.388-1.785-1.712.048-3.507.258-4.415,1.829-3.554-2.017-7.825-4.1-11.658-2.595-4.273,1.677-5.444,7.191-3.674,11.2-4.082-.084-7.861,3.367-7.876,7.191-2.546.671-5.017,2.057-6.224,4.26a5.029,5.029,0,0,0,1.467,6.638,8.374,8.374,0,0,0-4.02,6.4,7.153,7.153,0,0,0,1.138,5.342,4.624,4.624,0,0,0,5.231,1.569c-.286,2.6,3.162,4.46,5.862,3.8s4.587-2.91,6.037-5.143a9.838,9.838,0,0,0,4.263,3.133c1.752.5,4.041-.252,4.435-1.927a2.843,2.843,0,0,0,3.562.376c.348-.244.681-.588,1.115-.577a1.532,1.532,0,0,1,.814.372,10.573,10.573,0,0,0,7.054,2.252c2.531-.261,4.961-2.175,5.028-4.558a4,4,0,0,0,5-2.364,7.274,7.274,0,0,0,7.049,3.3,6.957,6.957,0,0,0,5.8-5c1.574,1.423,3.793,2.972,6.1,2.14a3.948,3.948,0,0,0,2.591-4.154,2.585,2.585,0,0,0,2.442-1.36,4.7,4.7,0,0,0,3.981,2.708,4.792,4.792,0,0,0,4.32-2.205,1.173,1.173,0,0,1,.33-.416,1.484,1.484,0,0,1,.744-.132,2.613,2.613,0,0,0,2.172-1.368,6.785,6.785,0,0,0,3.222,1.261c2.394.136,2.848-1.762,3.895-3.275a21.509,21.509,0,0,1,2.4-2.348,6.217,6.217,0,0,0,1.483-6.027,6.753,6.753,0,0,0-4.656-4.388,3.237,3.237,0,0,0,.054-3.816,8.181,8.181,0,0,0-3.249-2.624c-2.573-1.34-5.791-2.224-8.41-.964a9.333,9.333,0,0,0-5.094-8.939c-3.386-1.65-8.016-.89-10.332,1.952.286-.352-3.53-1.329-3.864-1.35-2.933-.19-5.146,1.384-7.136,3.161A7.14,7.14,0,0,0,134.3,310.34Z" transform="translate(-84.321 -307.188)" fill="#d6f6ff"/>
      <path id="Trazado_619215" data-name="Trazado 619215" d="M178.992,340.133a6.242,6.242,0,0,0,1.378-2.283,6.743,6.743,0,0,0-1.3-.834,3.578,3.578,0,0,1-6.789.744,2.949,2.949,0,0,1-5.411-2.092,11.114,11.114,0,0,1-12.327.99c1.231.717-2.491,4.612-3.022,4.958a6.864,6.864,0,0,1-5.6.85c-.461,1.669-3.633,1.3-4.906.767a5.437,5.437,0,0,1-5.082,3.445A7.412,7.412,0,0,1,130.3,343.8a5.374,5.374,0,0,1-3.758,4.528c-1.922.557-3.511-.153-5.051-1.229-.441-.308-3.583-2.724-3.209-3.183a3.314,3.314,0,0,1-3.052,1.149,2.519,2.519,0,0,0-.986-.083c-.524.124-.817.662-1.164,1.074a3.934,3.934,0,0,1-4.8.631,6.732,6.732,0,0,1-2.964-4.169,14.491,14.491,0,0,1-2.751,3.34,4.89,4.89,0,0,1-4.033,1.162,4.109,4.109,0,0,1-3.014-3.946,4.675,4.675,0,0,1,.685-2.407,5.437,5.437,0,0,1,2-1.943,4.257,4.257,0,0,1-.485-7.767c-2.477-1.086-2.567-2.767-2.154-4.566a7,7,0,0,0-2.368,5.016c-2.546.671-5.017,2.057-6.224,4.26a5.029,5.029,0,0,0,1.467,6.638,8.374,8.374,0,0,0-4.02,6.4,7.153,7.153,0,0,0,1.138,5.342,4.624,4.624,0,0,0,5.231,1.569c-.285,2.6,3.162,4.46,5.862,3.8s4.587-2.91,6.036-5.144a9.847,9.847,0,0,0,4.263,3.133c1.753.5,4.041-.252,4.435-1.927a2.843,2.843,0,0,0,3.562.376c.348-.244.681-.588,1.115-.577a1.532,1.532,0,0,1,.814.372,10.571,10.571,0,0,0,7.054,2.252c2.531-.261,4.961-2.175,5.028-4.558a4,4,0,0,0,5-2.364,7.274,7.274,0,0,0,7.049,3.3,6.958,6.958,0,0,0,5.8-5c1.574,1.423,3.793,2.972,6.1,2.14a3.948,3.948,0,0,0,2.591-4.154,2.587,2.587,0,0,0,2.443-1.36,4.7,4.7,0,0,0,3.98,2.708,4.792,4.792,0,0,0,4.32-2.205,1.174,1.174,0,0,1,.33-.416,1.485,1.485,0,0,1,.745-.132,2.613,2.613,0,0,0,2.171-1.368,6.785,6.785,0,0,0,3.222,1.261c2.394.136,2.848-1.762,3.895-3.275A21.567,21.567,0,0,1,178.992,340.133Z" transform="translate(-84.321 -312.504)" fill="#00b4fb" opacity="0.12"/>
      <path id="Trazado_619216" data-name="Trazado 619216" d="M119.011,312.821a8.2,8.2,0,0,0-3.2-1.334,2.8,2.8,0,0,0-2.919,1.448,3.415,3.415,0,0,0-.2,1.3,4.752,4.752,0,0,0,1.07,3.343c1.033,1.082,2.685,1.255,4.181,1.219a7.778,7.778,0,0,0,4.051-.971,2.092,2.092,0,0,0,.847-.9c.408-.976-.414-2.014-1.24-2.674a14.342,14.342,0,0,0-3.625-2.108Z" transform="translate(-92.172 -308.373)" fill="#fff"/>
      <path id="Trazado_619217" data-name="Trazado 619217" d="M136.995,314.626a1.837,1.837,0,0,0-1.841.26,1.328,1.328,0,0,0-.219,1.755,1.821,1.821,0,0,0,1.312.556c.844.064,1.888-.3,2-1.138a1.075,1.075,0,0,0-1.176-1.143Z" transform="translate(-98.264 -309.21)" fill="#fff"/>
      <path id="Trazado_619218" data-name="Trazado 619218" d="M161.517,314.854a1.428,1.428,0,0,0-.456.606c-.248.793.73,1.384,1.529,1.611a7.04,7.04,0,0,0,4.623.133,7.52,7.52,0,0,1,1.4-.582,6.489,6.489,0,0,1,2.007.175,1.761,1.761,0,0,0,1.794-.644,5.892,5.892,0,0,0,6.926,3.333,2.625,2.625,0,0,0,2.658,1.209,2.577,2.577,0,0,0,1.427-2.591,5.818,5.818,0,0,0-7.059-5.645c-1.42.31-2.828,1.154-4.232.777-.406-.109-.846-.315-1.22-.124-.442.225-.551.907-1.031,1.031a1.167,1.167,0,0,1-.673-.11C166.7,313.13,163.615,313,161.517,314.854Z" transform="translate(-105.55 -308.612)" fill="#fff"/>
    </g>
    <path id="Trazado_619219" data-name="Trazado 619219" d="M406.029,407.951s-14.916-.944-17.749,3.4-2.643,18.693,0,20.393,3.21-13.6,3.21-13.6.755,16.238,3.776,17.372,3.022-13.827,3.022-13.827.59,16.578,3.777,16.471,2.078-13.566,2.078-13.566,1.32,11.867,3.586,12.055,1.888-11.2,1.888-11.2,10.763-.879,10.2-6.922S411.871,407.988,406.029,407.951Z" transform="translate(-83.562 -73.309)" fill="#f8c3ac"/>
    <path id="Trazado_619220" data-name="Trazado 619220" d="M109.952,443.56s-7.232-13.08-4.518-17.5,15.768-10.383,18.434-8.721-10.916,8.715-10.916,8.715,15-6.262,17.317-4.015-11.207,8.645-11.207,8.645,15.238-6.556,16.5-3.631-9.694,6.884-9.694,6.884,9.612-3.085,10.751-1.117-9.321,6.5-9.321,6.5,3.807,10.1-1.9,12.177S112.484,448.824,109.952,443.56Z" transform="translate(-5.675 -75.853)" fill="#f8c3ac"/>
    <g id="Grupo_876219" data-name="Grupo 876219" transform="translate(166.047 146.797)" opacity="0.07">
      <g id="Grupo_876209" data-name="Grupo 876209" transform="translate(33.352 0)">
        <path id="Trazado_619224" data-name="Trazado 619224" d="M264.174,153.48a25.959,25.959,0,0,0-15.692-5.232,25.485,25.485,0,0,0-4.779.472c-.456.088-.263.785.192.7a25.233,25.233,0,0,1,15.986,2.231,24.928,24.928,0,0,1,3.928,2.455c.37.282.731-.346.365-.624Z" transform="translate(-243.442 -148.248)" fill="#fff"/>
      </g>
      <g id="Grupo_876210" data-name="Grupo 876210" transform="translate(0 13.635)">
        <path id="Trazado_619225" data-name="Trazado 619225" d="M210.981,167.139a25.956,25.956,0,0,0-11.861,11.529,25.441,25.441,0,0,0-1.778,4.461c-.131.446.576.6.708.15a25.229,25.229,0,0,1,9.332-13.17,24.914,24.914,0,0,1,3.986-2.358c.421-.2.029-.808-.387-.611Z" transform="translate(-197.325 -167.101)" fill="#fff"/>
      </g>
      <g id="Grupo_876211" data-name="Grupo 876211" transform="translate(15.746 6.929)">
        <path id="Trazado_619226" data-name="Trazado 619226" d="M250.522,157.957a34.7,34.7,0,0,0-13.823,1.631,36.3,36.3,0,0,0-12.18,6.813,33.982,33.982,0,0,0-5.354,5.753c-.276.375.352.736.624.365a35.073,35.073,0,0,1,23-13.623,33.239,33.239,0,0,1,7.736-.215c.464.041.461-.683,0-.723Z" transform="translate(-219.097 -157.828)" fill="#fff"/>
      </g>
      <g id="Grupo_876212" data-name="Grupo 876212" transform="translate(12.135 18.302)">
        <path id="Trazado_619227" data-name="Trazado 619227" d="M233.6,173.6a53.3,53.3,0,0,0-19.432,17.192c-.264.384.362.746.625.364a52.587,52.587,0,0,1,19.172-16.932c.414-.214.048-.838-.365-.624Z" transform="translate(-214.104 -173.554)" fill="#fff"/>
      </g>
      <g id="Grupo_876213" data-name="Grupo 876213" transform="translate(28.443 23.074)">
        <path id="Trazado_619228" data-name="Trazado 619228" d="M251.409,180.269a68.269,68.269,0,0,1-14.586,12.307c-.393.247-.031.873.365.624a68.948,68.948,0,0,0,14.733-12.42c.31-.346-.2-.858-.512-.511Z" transform="translate(-236.654 -180.153)" fill="#fff"/>
      </g>
      <g id="Grupo_876214" data-name="Grupo 876214" transform="translate(47.552 22.865)">
        <path id="Trazado_619229" data-name="Trazado 619229" d="M271.292,180.039c-1.984,3.44-5.075,6.008-8.1,8.5-.359.3.156.806.511.511,3.07-2.536,6.191-5.156,8.208-8.651a.362.362,0,0,0-.624-.365Z" transform="translate(-263.076 -179.863)" fill="#fff"/>
      </g>
      <g id="Grupo_876215" data-name="Grupo 876215" transform="translate(60.779 32.198)">
        <path id="Trazado_619230" data-name="Trazado 619230" d="M281.611,193.489a17.423,17.423,0,0,1,10.137,10c.165.43.864.244.7-.192a18.206,18.206,0,0,0-10.643-10.5c-.438-.161-.626.537-.192.7Z" transform="translate(-281.365 -192.768)" fill="#fff"/>
      </g>
      <g id="Grupo_876216" data-name="Grupo 876216" transform="translate(19.792 7.065)">
        <path id="Trazado_619231" data-name="Trazado 619231" d="M225.375,165.6a17.423,17.423,0,0,1,12.48-6.857c.459-.035.48-.759.015-.723a18.208,18.208,0,0,0-13.108,7.2c-.279.373.336.754.613.383Z" transform="translate(-224.691 -158.016)" fill="#fff"/>
      </g>
      <g id="Grupo_876217" data-name="Grupo 876217" transform="translate(66.28 26.407)">
        <path id="Trazado_619232" data-name="Trazado 619232" d="M289.178,185.466c3.315,1.6,5.813,4.385,8.22,7.09.307.346.882-.095.571-.444-2.493-2.8-5.078-5.658-8.511-7.312-.42-.2-.7.466-.28.667Z" transform="translate(-288.971 -184.762)" fill="#fff"/>
      </g>
      <g id="Grupo_876218" data-name="Grupo 876218" transform="translate(70.689 20.847)">
        <path id="Trazado_619233" data-name="Trazado 619233" d="M295.239,177.753a11.58,11.58,0,0,1,4.6,5.335.364.364,0,0,0,.495.129.37.37,0,0,0,.129-.495,12.21,12.21,0,0,0-4.859-5.594c-.4-.243-.762.382-.365.624Z" transform="translate(-295.068 -177.074)" fill="#fff"/>
      </g>
    </g>
  </g>
</svg>
