<svg xmlns="http://www.w3.org/2000/svg" xmlns:xlink="http://www.w3.org/1999/xlink" width="715" height="269.359" viewBox="0 0 715 269.359">
  <defs>
    <linearGradient id="linear-gradient" x1="-1345.57" y1="-39.561" x2="-1345.438" y2="-38.649" gradientUnits="objectBoundingBox">
      <stop offset="0" stop-color="#c9926a"/>
      <stop offset="1" stop-color="#c9926a" stop-opacity="0"/>
    </linearGradient>
    <linearGradient id="linear-gradient-2" x1="-549.823" y1="-173.123" x2="-549.678" y2="-172.297" xlink:href="#linear-gradient"/>
  </defs>
  <g id="Grupo_1034297" data-name="Grupo 1034297" transform="translate(-705 -1459.151)">
    <path id="Trazado_624642" data-name="Trazado 624642" d="M87.116,0c48.113,0,87.116,2.611,87.116,5.831s-39,5.831-87.116,5.831S0,9.051,0,5.831,39,0,87.116,0Z" transform="translate(705 1673.968)" opacity="0.2"/>
    <path id="Trazado_624643" data-name="Trazado 624643" d="M87.116,0c48.113,0,87.116,2.611,87.116,5.831s-39,5.831-87.116,5.831S0,9.051,0,5.831,39,0,87.116,0Z" transform="translate(1245.768 1673.968)" opacity="0.2"/>
    <path id="Trazado_624644" data-name="Trazado 624644" d="M87.116,0c48.113,0,87.116,2.611,87.116,5.831s-39,5.831-87.116,5.831S0,9.051,0,5.831,39,0,87.116,0Z" transform="translate(875.886 1673.968)" opacity="0.2"/>
    <path id="Trazado_624645" data-name="Trazado 624645" d="M87.116,0c48.113,0,87.116,2.611,87.116,5.831s-39,5.831-87.116,5.831S0,9.051,0,5.831,39,0,87.116,0Z" transform="translate(1072.004 1673.968)" opacity="0.2"/>
    <g id="Grupo_878028" data-name="Grupo 878028" transform="translate(853.938 1528.411)">
      <path id="Trazado_620747" data-name="Trazado 620747" d="M697.695,490.058c-6.865,0-13.724,4.563-15.876,7.177l-.023-.019a5.486,5.486,0,0,1-4.581,2.642c-2.952,0-5.348-2.559-5.678-5.788V436.3h-.019v.137H620.833c-3.175,0-5.756,2.9-5.756,6.414a6.637,6.637,0,0,0,2.326,5.162v.015a22.4,22.4,0,0,1,7.924,17.8c0,12.718-9.276,22.123-20.7,22.123-11.436,0-20.706-9.405-20.706-22.123a22.4,22.4,0,0,1,7.947-17.8l-.03-.015a6.638,6.638,0,0,0,2.343-5.162c0-3.513-2.58-6.414-5.765-6.414H537.726V436.3h-.012V494.07c-.345,3.229-2.731,5.788-5.674,5.788a5.443,5.443,0,0,1-4.586-2.642l-.029.019a22.122,22.122,0,0,0-15.86-7.177c-11.332,0-20.524,8.652-20.524,21.526s9.192,21.539,20.524,21.539a23.072,23.072,0,0,0,15.86-7.169h.029a5.479,5.479,0,0,1,4.586-2.605c2.943,0,5.33,2.5,5.674,5.723v57.77h54.475a6.48,6.48,0,0,0,3.1-5.644,6.646,6.646,0,0,0-2.337-5.18l.033-.041c-5.054-4.294-7.942-10.091-7.942-17.778,0-12.719,9.274-21.249,20.681-21.249,11.431,0,20.722,8.53,20.722,21.249,0,7.687-2.909,13.484-7.932,17.778v.041a6.759,6.759,0,0,0-2.328,5.18,6.48,6.48,0,0,0,3.106,5.644h52.248v-57.77c.331-3.22,2.726-5.723,5.678-5.723a5.523,5.523,0,0,1,4.581,2.605h.023a22.688,22.688,0,0,0,15.876,7.169c11.309,0,20.514-8.673,20.514-21.539S709,490.058,697.695,490.058Z" transform="translate(-491.041 -436.305)" fill="#18344c"/>
    </g>
    <g id="Grupo_878030" data-name="Grupo 878030" transform="translate(1086.383 1494.568)">
      <g id="Grupo_878029" data-name="Grupo 878029">
        <path id="Trazado_620748" data-name="Trazado 620748" d="M1140.547,410.807h-56.1a6.02,6.02,0,0,1-5.6-5.8,5.705,5.705,0,0,1,2.549-4.681V400.3c5.564-3.931,6.983-9.206,6.983-16.221,0-11.551-8.454-20.955-21.048-20.955s-21.033,9.4-21.033,20.955c0,7.015,1.424,12.29,6.989,16.221l-.018.023a5.658,5.658,0,0,1,2.585,4.681,6.073,6.073,0,0,1-5.668,5.8H993.641v.024h.135v51.777a6.111,6.111,0,0,0,6.278,5.881,6.388,6.388,0,0,0,5.054-2.377h.014a21.551,21.551,0,0,1,17.423-8.1c12.452,0,21.637,9.479,21.637,21.144,0,11.686-9.185,21.156-21.637,21.156a21.546,21.546,0,0,1-17.423-8.121l-.014.032a6.388,6.388,0,0,0-5.054-2.395,6.111,6.111,0,0,0-6.278,5.89v51.786h60.037a6.875,6.875,0,0,0,3.052-5.647,6.654,6.654,0,0,0-2.336-5.178l.031-.043c-2.823-2.725-8.827-10.092-8.827-17.776a21.594,21.594,0,1,1,43.175,0c0,7.684-5.714,14.714-8.817,17.776v.043a6.779,6.779,0,0,0,.8,10.825H1141V491.87a6.292,6.292,0,0,0-5.527-3.162,6.4,6.4,0,0,0-5.071,2.387l-.038-.033a21.322,21.322,0,0,1-17.4,8.113c-12.453,0-21.647-9.475-21.647-21.128,0-11.678,9.194-21.17,21.647-21.17a21.406,21.406,0,0,1,17.4,8.1h.038a6.509,6.509,0,0,0,5.071,2.376,6.291,6.291,0,0,0,5.527-3.174V410.807Z" transform="translate(-993.641 -363.129)" fill="#00738a"/>
      </g>
    </g>
    <g id="Grupo_878047" data-name="Grupo 878047" transform="translate(1227.753 1478.1)">
      <g id="Grupo_878031" data-name="Grupo 878031" transform="translate(62.822 179.124)">
        <path id="Trazado_620749" data-name="Trazado 620749" d="M1449.923,718.806a4.135,4.135,0,0,1-1.394,6.065c-1.237.863-12.9,7.472-13.013,7.508-1.016.343.424,2.07.439,3.612.013,1.8,13.251.483,13.251.483s6.325-3.415,8.728-4.554c2.147-1.017,7.678-5.791,6.733-7.173-3.079-4.5-6.7-9.921-6.7-9.921Z" transform="translate(-1435.154 -714.827)" fill="#e8c0a8"/>
      </g>
      <g id="Grupo_878032" data-name="Grupo 878032" transform="translate(57.976 185.977)">
        <path id="Trazado_620750" data-name="Trazado 620750" d="M1426,745.962a1.312,1.312,0,0,1-1.165-1.937,5.773,5.773,0,0,1,2.148-2.2c1.807-1.086,3.506-1.887,3.506-1.887s.456,1.627,5,1.191c3.339-.32,6.9-1.474,14.633-5.754a34.84,34.84,0,0,0,7.327-5.733,7.024,7.024,0,0,1,2.353,3.486c.616,1.613-.06,2.729-1.346,3.677-2.014,1.484-10.41,6.608-10.41,6.608a24.381,24.381,0,0,1-10.466,2.453Z" transform="translate(-1424.675 -729.644)" fill="#2c5871"/>
      </g>
      <g id="Grupo_878033" data-name="Grupo 878033" transform="translate(6.943 50.928)">
        <path id="Trazado_620751" data-name="Trazado 620751" d="M1314.331,454.645l1.481,9.838,36.882-3.126,31.76-6.947c4.932-1.585,9.106-4.424,7.756-11.25-1.619-8.169-11.992-4.859-11.992-4.859l-32.8,12.325Z" transform="translate(-1314.331 -437.637)" fill="#055067"/>
      </g>
      <g id="Grupo_878034" data-name="Grupo 878034" transform="translate(9.272 65.52)">
        <path id="Trazado_620752" data-name="Trazado 620752" d="M1319.937,478.081c-.127-.693-1.772-8.181,1.187-8.6l1.89-.279a1.3,1.3,0,0,1,1.338,1.094l2.934,10.952a1.052,1.052,0,0,1-.672,1.387l-4.517.644a1.22,1.22,0,0,1-1.237-1.127Z" transform="translate(-1319.367 -469.187)" fill="#b2cdd6"/>
      </g>
      <g id="Grupo_878035" data-name="Grupo 878035" transform="translate(0.265 62.033)">
        <path id="Trazado_620753" data-name="Trazado 620753" d="M1311.769,472.719l-3.18-7.859s-3.563-2.747-5.813-3.16c-2.01-.371-4.067,1.274-2.073,2.936a21.925,21.925,0,0,1,2.811,3.119l1.935,7.273s.81,5.86,6.831,5C1315.747,479.534,1311.769,472.719,1311.769,472.719Z" transform="translate(-1299.891 -461.648)" fill="#cd987f"/>
      </g>
      <g id="Grupo_878036" data-name="Grupo 878036" transform="translate(152.659 172.713)">
        <path id="Trazado_620754" data-name="Trazado 620754" d="M1644.648,705.612l-9-4.647-6.239,9.39a6.957,6.957,0,0,1,3.045,7.845,69.405,69.405,0,0,1-3.045,6.826l5.563,1.105,8.261-12.484Z" transform="translate(-1629.404 -700.965)" fill="#e8c0a8"/>
      </g>
      <g id="Grupo_878037" data-name="Grupo 878037" transform="translate(92.169 105.993)">
        <path id="Trazado_620755" data-name="Trazado 620755" d="M1525.356,556.7s7.8,45.28,9.584,45.567c10.457,1.686,30.594,21.346,30.594,21.346a29.647,29.647,0,0,1-1.963,5.015,7.646,7.646,0,0,1-4.47,4.182L1526.86,616.3a17.691,17.691,0,0,1-8.78-8.676l-19.471-41.9Z" transform="translate(-1498.61 -556.7)" fill="#055067"/>
      </g>
      <g id="Grupo_878038" data-name="Grupo 878038" transform="translate(52.594 91.154)">
        <path id="Trazado_620756" data-name="Trazado 620756" d="M1483.969,529.354c9.851,9.729,5.123,22.767-12.862,33.989s-30.26,17.355-37.212,21.173c-.793.438-1.253,1.569-.633,2.228,7.612,8.006,17.343,31.678,17.343,31.678s-.7,1.479-5.8,1.409-6.545-.974-6.545-.974l-23.426-30.366a8.676,8.676,0,0,1-.07-10.484l28.648-37.093S1468.411,513.986,1483.969,529.354Z" transform="translate(-1413.038 -524.615)" fill="#006f90"/>
      </g>
      <path id="Trazado_620757" data-name="Trazado 620757" d="M1519.344,539.982c-.1-3.783-1.751-7.39-5.03-10.629-15.559-15.367-40.556,11.561-40.556,11.561l-4.267,5.524C1480.552,559.595,1509.885,556.519,1519.344,539.982Z" transform="translate(-1390.789 -433.461)" fill="#046583"/>
      <g id="Grupo_878039" data-name="Grupo 878039" transform="translate(61.94 39.105)">
        <path id="Trazado_620758" data-name="Trazado 620758" d="M1433.825,425.71l-.56,25.042a6.8,6.8,0,0,0,.642,3.429,10.15,10.15,0,0,0,4.747,4.614c.332.179,9.184,6.443,11.6,8.792,8.329,8.1.068,15.238.068,15.238s14.722,9.6,28.466,1.553c9.349-5.477,15.8-12.981,17.38-17.852-22.512-16.193-32.781-34.756-42.437-49.345-2.275-3.438-4.209-3.789-6.972-4.04a5.993,5.993,0,0,1-2.9-1.07S1433.865,425.464,1433.825,425.71Z" transform="translate(-1433.248 -412.072)" fill="#006f90"/>
      </g>
      <g id="Grupo_878040" data-name="Grupo 878040" transform="translate(61.755 37.603)">
        <path id="Trazado_620759" data-name="Trazado 620759" d="M1443.378,408.837c-.836-.067-1.059.122-1.453,1.062l-8.652,13.633c-1.126,1.788.264,3.676.979,4.642,0,0,3.116,4.451,6.346-2.333l5.85-13.7c.374-.908.56-1.572-.536-1.983Z" transform="translate(-1432.848 -408.825)" fill="#fffeff"/>
      </g>
      <g id="Grupo_878041" data-name="Grupo 878041" transform="translate(146.318 173.959)">
        <path id="Trazado_620760" data-name="Trazado 620760" d="M1615.837,732.281a3.351,3.351,0,0,1,.919-3.439,36.739,36.739,0,0,1,5.376-2.606,7.7,7.7,0,0,0,2.827.115c4.574-.575,6.083-3.7,6.391-9.514a78.458,78.458,0,0,0-.46-12.972s1.743-.872,4.647.968a11.024,11.024,0,0,1,2.515,2.515s-.774,3.68-1.935,8.037-2.358,10.04-5.036,12.877a12.86,12.86,0,0,1-9.173,4.042C1619.658,732.3,1615.837,732.281,1615.837,732.281Z" transform="translate(-1615.693 -703.658)" fill="#2c5871"/>
      </g>
      <g id="Grupo_878042" data-name="Grupo 878042" transform="translate(11.141 57.902)">
        <path id="Trazado_620761" data-name="Trazado 620761" d="M1323.408,467.649l1.191,9.877,36.96-2.039,31.947-6.009c4.98-1.436,9.234-4.155,8.083-11.016-1.374-8.215-11.845-5.211-11.845-5.211L1356.6,464.605Z" transform="translate(-1323.408 -452.716)" fill="#007a9e"/>
      </g>
      <g id="Grupo_878043" data-name="Grupo 878043" transform="translate(0 63.198)">
        <path id="Trazado_620762" data-name="Trazado 620762" d="M1310.912,475.518l-2.944-7.949s-3.482-2.851-5.721-3.331c-2-.43-4.1,1.154-2.157,2.876a21.941,21.941,0,0,1,2.717,3.2l1.717,7.328s.64,5.88,6.684,5.2C1314.686,482.447,1310.912,475.518,1310.912,475.518Z" transform="translate(-1299.318 -464.167)" fill="#e8c0a8"/>
      </g>
      <g id="Grupo_878044" data-name="Grupo 878044" transform="translate(9.225 69.751)">
        <path id="Trazado_620763" data-name="Trazado 620763" d="M1319.693,487.171c-.107-.7-1.576-8.226,1.633-8.587l2.053-.24a1.36,1.36,0,0,1,1.393,1.123l2.72,11.023a1.062,1.062,0,0,1-.785,1.371l-4.892.552a1.254,1.254,0,0,1-1.288-1.151Z" transform="translate(-1319.265 -478.337)" fill="#fffeff"/>
      </g>
      <g id="Grupo_878046" data-name="Grupo 878046" transform="translate(32.564)">
        <path id="Trazado_620764" data-name="Trazado 620764" d="M1412.186,380.4s-5.5,11.064-14.6,12.484c-5.067.791-8.768-2.874-11-6.829-3.29-5.84-6.516-13.779-6.523-19.652-.011-9.7,4.532-18.828,18.168-18.85C1407.758,347.535,1415.933,362.316,1412.186,380.4Z" transform="translate(-1375.285 -338.286)" fill="#e8c0a8"/>
        <path id="Trazado_620765" data-name="Trazado 620765" d="M1384.963,411.857l.021-.022-.476-.629a35.774,35.774,0,0,1-3.668,5.4c4.149,2.283,6.7-1.5,4.867-5.163a2.261,2.261,0,0,0-.744.415C1384.8,412.018,1384.82,411.974,1384.963,411.857Z" transform="translate(-1375.702 -372.502)" fill="#e8c0a8"/>
        <path id="Trazado_620766" data-name="Trazado 620766" d="M1370.183,344.061l.05.11C1370.184,344.121,1370.175,344.086,1370.183,344.061Z" transform="translate(-1369.972 -336.41)" fill="#8e5830"/>
        <g id="Grupo_878045" data-name="Grupo 878045" transform="translate(6.997 28.35)">
          <path id="Trazado_620767" data-name="Trazado 620767" d="M1384.989,390.345c.147,1.366.783,6.262,4.581,5.661s1.3-6.109,1.3-6.109S1386.731,390.1,1384.989,390.345Z" transform="translate(-1384.929 -389.397)" fill="url(#linear-gradient)"/>
          <path id="Trazado_620768" data-name="Trazado 620768" d="M1385.7,389.245c3.987-1.1,7.363.172,3.635.948S1383.62,389.818,1385.7,389.245Z" transform="translate(-1384.859 -388.817)" fill="#7e2627"/>
          <path id="Trazado_620769" data-name="Trazado 620769" d="M1393.411,400.55c-1.6-1.852-3.729-.463-3.2,1.328" transform="translate(-1387.69 -394.652)" fill="none" stroke="#4b2b19" stroke-miterlimit="10" stroke-width="0.401"/>
        </g>
        <path id="Trazado_620770" data-name="Trazado 620770" d="M1411.03,419.973c.97.453,2.506,4.569-3.9,6.894" transform="translate(-1389.835 -377.214)" fill="none" stroke="#a56052" stroke-miterlimit="10" stroke-width="0.297"/>
        <path id="Trazado_620771" data-name="Trazado 620771" d="M1455.582,387.584c-28.056-18.138-22.933-35.63-37.718-52.053-9.527-10.583-24.06-9.266-32.408-4.156s-7.16,6.48-7.16,6.48-1.95,3.278,5.043,3.841c2.9.233,10.277,6.572,15.213,16.014,12.012,22.982,9.956,26.393,10.277,31.072,2.947,4.328,2.064-5.263,2.064-5.263a23.162,23.162,0,0,1,1.624,7.05c5.132,5.039,12.774,2.828,12.774,2.828s-1.6-12.144-3.334-16.694c4.2,7.023,4.894,15.594,4.894,15.594s2.874-1.507.809-7.5a25.41,25.41,0,0,1,3.036,6.459S1444.431,398.919,1455.582,387.584Z" transform="translate(-1374.2 -327.518)"/>
        <path id="Trazado_620772" data-name="Trazado 620772" d="M1374.8,343.524c-2.751,1.939-6.256,6.468-4.669,14.191,1.948,9.481,11.4,11.39,20.672,5.911-6.382.078-6.919-1.278-6.533-2.858.806-3.3,6.73-1.96,6.138-8.524C1389.9,346.676,1383.473,337.409,1374.8,343.524Z" transform="translate(-1369.73 -335.041)"/>
      </g>
    </g>
    <g id="Grupo_878070" data-name="Grupo 878070" transform="translate(713.322 1475.275)">
      <g id="Grupo_878048" data-name="Grupo 878048" transform="translate(178.331 54.149)">
        <path id="Trazado_620773" data-name="Trazado 620773" d="M573.225,457.621l2.668-13.128,4.227-5.866s2.747-1.02,2.894,2.588a30.13,30.13,0,0,1-1.2,8.128l-.315,9.31s1.2,6.823-6.3,7.455C570.88,466.475,573.225,457.621,573.225,457.621Z" transform="translate(-572.59 -438.494)" fill="#d19370"/>
      </g>
      <g id="Grupo_878049" data-name="Grupo 878049" transform="translate(107.103 56.413)">
        <path id="Trazado_620774" data-name="Trazado 620774" d="M490.231,458.657a57.473,57.473,0,0,1,.713,17.746l-30.2-2.613-28.809-8.7s-11.709-2.071-13.226-10.546c-1.265-7.058,6.7-11.949,10.817-11.052,3.849.837,35.813,12.927,35.813,12.927Z" transform="translate(-418.577 -443.39)" fill="#055067"/>
      </g>
      <g id="Grupo_878051" data-name="Grupo 878051" transform="translate(0 164.105)">
        <g id="Grupo_878050" data-name="Grupo 878050">
          <path id="Trazado_620775" data-name="Trazado 620775" d="M209.606,703.2c1.706,1.352,6.965,2.859,6.965,2.859,2.168.953,4.846.469,4.829,3.53l-.009,1.637c-.011,2.069-.294,3.047-2.46,3.038H205.245c-2.253-.013-7.92-.506-9.488-6.231,0,0-2.511-9.364-3.294-11.795-.049-.15-2.461.016-2.345-.1.658-.67-1.705-4.862-2.858-9.125-.869-3.209.542-5.074,2.346-5.955l11.423-4.786c1.587-.775,6.973,16.476,7.239,18.225C208.267,694.5,206.391,700.656,209.606,703.2Z" transform="translate(-186.996 -676.246)" fill="#0f3146"/>
        </g>
      </g>
      <g id="Grupo_878052" data-name="Grupo 878052" transform="translate(0 168.996)">
        <path id="Trazado_620776" data-name="Trazado 620776" d="M221.074,717.628H207.387c-2.251-.015-9.07-.518-10.639-6.241,0,0-5.276-15.381-6.429-19.644-.393-1.454-1.22-3.985-.854-4.92-1.735.909-3.051,2.751-2.206,5.875,1.153,4.263,2.883,9.628,2.825,9.628a12,12,0,0,1,2.378-.4c.783,2.43,3.294,11.795,3.294,11.795,1.568,5.724,7.236,6.218,9.488,6.231H218.93c1.905.01,2.354-.747,2.441-2.339C221.27,717.613,221.185,717.628,221.074,717.628Z" transform="translate(-186.997 -686.823)" fill="#011420"/>
      </g>
      <g id="Grupo_878053" data-name="Grupo 878053" transform="translate(8.703 99.68)">
        <path id="Trazado_620777" data-name="Trazado 620777" d="M289.7,552.822a3.041,3.041,0,0,1,.459,4.273l-29.9,38.192c-5.035,6.251-9.013,7.785-15.955,11.816l-23.693,14.615c-3.749,2.142-7.857-1.786-9.642-5.358l-3.748-8.216c-.786-1.548-2.731-4,0-5.535l22.856-12.678c6.618-4.529,9.51-5.1,13.929-11.786l22.735-39.959a2.762,2.762,0,0,1,4.038-.626Z" transform="translate(-205.813 -536.945)" fill="#055067"/>
      </g>
      <g id="Grupo_878058" data-name="Grupo 878058" transform="translate(87.04 190.952)">
        <g id="Grupo_878055" data-name="Grupo 878055">
          <g id="Grupo_878054" data-name="Grupo 878054">
            <path id="Trazado_620778" data-name="Trazado 620778" d="M401.176,734.526l15.667,6.024c2.162.963,4.451,1.859,4.423,4.921l-.016,1.634c-.02,2.07-.305,3.049-2.474,3.027l-17.4-.166a22.559,22.559,0,0,1-6.133-1.149s-4.169-1.485-5.089-1.715c-1.752-.433-5.106.983-5.123,2.71l-7.658-.075c-1.671-.012-2.188-.4-2.176-1.729l1.613-13.713Z" transform="translate(-375.198 -734.296)" fill="#0f3146"/>
          </g>
        </g>
        <g id="Grupo_878057" data-name="Grupo 878057" transform="translate(0 12.711)">
          <g id="Grupo_878056" data-name="Grupo 878056">
            <path id="Trazado_620779" data-name="Trazado 620779" d="M421.252,761.781v.1c-.02,2.07-.305,3.049-2.474,3.027l-17.4-.166a22.559,22.559,0,0,1-6.133-1.149s-4.169-1.485-5.089-1.715c-2.177-.538-.149,2.757-2.4,2.736l-10.386-.1c-1.671-.012-2.188-.4-2.176-1.729l.28-.9Z" transform="translate(-375.198 -761.781)" fill="#011420"/>
          </g>
        </g>
      </g>
      <g id="Grupo_878059" data-name="Grupo 878059" transform="translate(63.922 94.625)">
        <path id="Trazado_620780" data-name="Trazado 620780" d="M355.821,540.8l32.3,32.224c5.646,5.644,4.134,13.516,2.274,16.7l-16.542,30.734c-.836,1.462,2.08,1.927-1.49,3.293-7.37,2.823-20.934,1.567-20.934,1.567-2.665,0-3.921-.7-2.979-2.821l18.659-33.557c.879-1.546.749-2.974-.706-4l-31.952-22.749s-9.243-6.389-9.243-14.856c0-12.329,8.78-21.326,8.78-21.326Z" transform="translate(-325.21 -526.013)" fill="#006f90"/>
      </g>
      <path id="Trazado_620781" data-name="Trazado 620781" d="M365.039,550l-9.217-9.2L333.99,526.013s-8.78,9-8.78,21.326c0,3.794,1.857,7.164,3.906,9.736C340.155,558.915,354.668,555.81,365.039,550Z" transform="translate(-261.288 -431.389)" fill="#046583"/>
      <g id="Grupo_878060" data-name="Grupo 878060" transform="translate(108.789 34.865)">
        <path id="Trazado_620782" data-name="Trazado 620782" d="M448.461,425.73l0-.861c-.007-2.446.081-2.661,1.373-4.74l9.778-15.761L447.415,396.8l-11.134,17.953-8.766,5.951a25,25,0,0,0-5.291,5.239Z" transform="translate(-422.224 -396.799)" fill="#e8c0a8"/>
      </g>
      <path id="Trazado_620783" data-name="Trazado 620783" d="M468.382,396.8l-7.151,11.532a35.841,35.841,0,0,0,10.048,11.023l9.3-14.987Z" transform="translate(-334.402 -361.934)" fill="#d19370"/>
      <g id="Grupo_878061" data-name="Grupo 878061" transform="translate(62.862 49.749)">
        <path id="Trazado_620784" data-name="Trazado 620784" d="M393.463,454.72c-.833,3.09-17.034,18.529-23.737,25.834a29.392,29.392,0,0,0-7.235,15.273c-22.921,5.5-39.572-8.582-39.572-8.582,7.476-18.289,12.227-31.527,41.08-49.507,6.849-4.268,22.42-8.757,22.42-8.757l9.033,17.955Z" transform="translate(-322.919 -428.981)" fill="#006f90"/>
      </g>
      <g id="Grupo_878062" data-name="Grupo 878062" transform="translate(121.633 47.746)">
        <path id="Trazado_620785" data-name="Trazado 620785" d="M464.264,440.974l-.041,9.792c-.005,1.239.086,2.831-.026,4.684l-7.1-6.851-7.1-20.485c.064-.05,1.279-1.112,1.279-1.112l2.56-2.35Z" transform="translate(-449.995 -424.651)" fill="#e4e6ea"/>
      </g>
      <g id="Grupo_878063" data-name="Grupo 878063" transform="translate(132.885 64.199)">
        <path id="Trazado_620786" data-name="Trazado 620786" d="M476.668,460.226l-2.343,3.716.946,5.216a3.8,3.8,0,0,1-.251,2.064l-.359.829,1.3,1.251c.246-1.634.4-2.98.515-3.788l.859-6.646,0-1.627Z" transform="translate(-474.325 -460.226)" fill="#e4003e"/>
      </g>
      <g id="Grupo_878065" data-name="Grupo 878065" transform="translate(121.65 46.782)">
        <g id="Grupo_878064" data-name="Grupo 878064">
          <path id="Trazado_620787" data-name="Trazado 620787" d="M454.3,423.347c-.456-1.007-1.132-1.174-2.059.292l-2.208,3.5,9.378,18.605c.357.877.771,1.463,1.323.764l3.058-4.845c1.215-1.929,1.006-2.282-.243-4.19Z" transform="translate(-450.032 -422.565)" fill="#fff"/>
        </g>
      </g>
      <g id="Grupo_878066" data-name="Grupo 878066" transform="translate(178.578 66.395)">
        <path id="Trazado_620788" data-name="Trazado 620788" d="M573.513,484.515l1.91-13.26,3.883-6.1s2.683-1.175,3.037,2.418a30,30,0,0,1-.734,8.181l.22,9.315s1.6,6.739-5.856,7.8C571.68,493.487,573.513,484.515,573.513,484.515Z" transform="translate(-573.124 -464.974)" fill="#e8c0a8"/>
      </g>
      <g id="Grupo_878068" data-name="Grupo 878068" transform="translate(116.56 4.629)">
        <path id="Trazado_620789" data-name="Trazado 620789" d="M462.381,377.632s19.565,11,24.543,6.13c.752-.733,2.4-6.855,3.341-11.294,1.395-6.557,2.1-15.1.353-20.7-2.889-9.264-14.179-21.87-23.051-18.395S438.973,350.006,462.381,377.632Z" transform="translate(-445.644 -332.152)" fill="#e8c0a8"/>
        <path id="Trazado_620790" data-name="Trazado 620790" d="M527.252,389.69l-.044-.023.43-1.2c2.551,2.677,5.523,4.545,8.254,6.546-5.291,5.517-11.041.915-9.987-5.606a3.652,3.652,0,0,1,1.347.281C527.577,389.861,527.527,389.8,527.252,389.69Z" transform="translate(-485.657 -362.086)" fill="#e8c0a8"/>
        <path id="Trazado_620791" data-name="Trazado 620791" d="M538.615,340.153l-.032.116C538.624,340.212,538.628,340.177,538.615,340.153Z" transform="translate(-492.54 -336.115)" fill="#8e5830"/>
        <path id="Trazado_620792" data-name="Trazado 620792" d="M459.424,363.326c-.657,4.525-1.422,13.721-4.647,15.375-4.473-3.751-9.816-9.415-12.712-14.559-2.821-5.007-5.7-15.641,1.408-22.635,6.683-7.7,11.164-9.571,15.093-9.974a47.962,47.962,0,0,1,12.019.859c11.569,2.117,11.1,13.5,11.1,13.5-2.512,2.147-10.743-2.476-12.472.888-1.8,3.494-1.274,7.659-2.673,11.3C465.348,361.193,461.257,359.368,459.424,363.326Z" transform="translate(-439.026 -331.422)" fill="#3d150c"/>
        <path id="Trazado_620793" data-name="Trazado 620793" d="M479.78,387.852c1.064,2.959,4.435,6,6.38,5.3s2.661-3.664,1.6-6.623-3.446-6.643-5.978-5.567C479.878,381.773,478.717,384.893,479.78,387.852Z" transform="translate(-460.715 -357.95)" fill="#e8c0a8"/>
        <g id="Grupo_878067" data-name="Grupo 878067" transform="translate(37.29 21.158)">
          <path id="Trazado_620794" data-name="Trazado 620794" d="M525.591,377.743c.267,1.348,1.123,6.211-2.681,6.771s-3.067-5.442-3.067-5.442S523.855,378.031,525.591,377.743Z" transform="translate(-519.726 -377.478)" fill="url(#linear-gradient-2)"/>
          <path id="Trazado_620795" data-name="Trazado 620795" d="M524.62,377.173c-4.134.143-6.976,2.364-3.186,1.991S526.778,377.1,524.62,377.173Z" transform="translate(-519.657 -377.171)" fill="#7e2627"/>
          <path id="Trazado_620796" data-name="Trazado 620796" d="M523.855,389.976c.974-2.245,3.42-1.556,3.454.311" transform="translate(-521.913 -383.296)" fill="none" stroke="#4b2b19" stroke-miterlimit="10" stroke-width="0.401"/>
        </g>
        <path id="Trazado_620797" data-name="Trazado 620797" d="M511.4,414.654c-.79.722-1.026,5.109,5.78,5.415" transform="translate(-477.72 -376.161)" fill="none" stroke="#a56052" stroke-miterlimit="10" stroke-width="0.297"/>
      </g>
      <g id="Grupo_878069" data-name="Grupo 878069" transform="translate(108.976 65)">
        <path id="Trazado_620798" data-name="Trazado 620798" d="M492.875,477.751c1.74,5.769.985,14.546.985,14.546l-27.04-.182a30.872,30.872,0,0,1-9-1.874s-21.286-7.708-25.958-9.6-10.326-5.344-9.047-12.291c1.081-5.868,8.493-7.206,11.759-5.963,3.931,1.5,23.071,10.293,29.24,13.107a13.485,13.485,0,0,0,4.475,1.176Z" transform="translate(-422.628 -461.959)" fill="#007a9e"/>
      </g>
      <path id="Trazado_620799" data-name="Trazado 620799" d="M450.362,336.042c.178-3.3,3.917-13.231,20.921-14.558s18.171,16.214,28.951,18.927c-10.827,5.854-16.856,1.426-19.924,1.037,1.7,2.24-.487.73-2.483-.438,1.363,3.9-1.907,9.016-5.19,11.691-1.871-4.678-14.094-13.2-14.094-13.2S451.969,339.256,450.362,336.042Z" transform="translate(-328.559 -321.412)" fill="#3d150c"/>
    </g>
    <path id="Trazado_624646" data-name="Trazado 624646" d="M9.939-4.29a1.729,1.729,0,0,0-.674-1.466A8.838,8.838,0,0,0,6.839-6.834,17.2,17.2,0,0,1,4.065-7.951Q1.28-9.456,1.28-12.005a3.949,3.949,0,0,1,.747-2.364,4.871,4.871,0,0,1,2.145-1.623,8.074,8.074,0,0,1,3.139-.584,7.349,7.349,0,0,1,3.122.635,4.971,4.971,0,0,1,2.128,1.791,4.687,4.687,0,0,1,.758,2.628H9.95a2.2,2.2,0,0,0-.708-1.746,2.908,2.908,0,0,0-1.988-.623,3.107,3.107,0,0,0-1.92.522,1.647,1.647,0,0,0-.685,1.376,1.578,1.578,0,0,0,.8,1.336A9.072,9.072,0,0,0,7.816-9.647,10.214,10.214,0,0,1,12.005-7.5a4.272,4.272,0,0,1,1.314,3.189,3.935,3.935,0,0,1-1.606,3.33A7.031,7.031,0,0,1,7.39.225,8.349,8.349,0,0,1,3.953-.466,5.438,5.438,0,0,1,1.589-2.358,4.846,4.846,0,0,1,.775-5.144h3.38q0,2.707,3.234,2.707a3.146,3.146,0,0,0,1.875-.489A1.589,1.589,0,0,0,9.939-4.29ZM20.979.225a5.965,5.965,0,0,1-4.352-1.64,5.828,5.828,0,0,1-1.679-4.369V-6.1a7.341,7.341,0,0,1,.708-3.274,5.192,5.192,0,0,1,2-2.224,5.627,5.627,0,0,1,2.959-.781A5.043,5.043,0,0,1,24.544-10.8a6.389,6.389,0,0,1,1.432,4.458V-5.02H18.238a3.015,3.015,0,0,0,.949,1.909,2.869,2.869,0,0,0,2,.719,3.5,3.5,0,0,0,2.931-1.359l1.595,1.786A4.872,4.872,0,0,1,23.741-.354,6.485,6.485,0,0,1,20.979.225Zm-.371-9.984a2.028,2.028,0,0,0-1.567.654,3.388,3.388,0,0,0-.769,1.873h4.515v-.26A2.416,2.416,0,0,0,22.2-9.167,2.092,2.092,0,0,0,20.608-9.759ZM34.859,0a3.6,3.6,0,0,1-.326-1.089A3.927,3.927,0,0,1,31.468.225,4.314,4.314,0,0,1,28.509-.809a3.323,3.323,0,0,1-1.174-2.605,3.434,3.434,0,0,1,1.432-2.965,7.065,7.065,0,0,1,4.138-1.044H34.4v-.7a2,2,0,0,0-.432-1.348A1.7,1.7,0,0,0,32.6-9.973a1.934,1.934,0,0,0-1.286.393A1.335,1.335,0,0,0,30.85-8.5H27.6a3.26,3.26,0,0,1,.651-1.954A4.306,4.306,0,0,1,30.1-11.865a6.712,6.712,0,0,1,2.673-.511,5.3,5.3,0,0,1,3.566,1.129,3.948,3.948,0,0,1,1.32,3.173v5.267a5.809,5.809,0,0,0,.483,2.617V0ZM32.175-2.257a2.8,2.8,0,0,0,1.325-.32,2.1,2.1,0,0,0,.9-.859V-5.525H33.186q-2.437,0-2.594,1.685l-.011.191a1.3,1.3,0,0,0,.427,1A1.658,1.658,0,0,0,32.175-2.257Zm14.8-6.851a8.818,8.818,0,0,0-1.168-.09,2.377,2.377,0,0,0-2.415,1.247V0H40.149V-12.151h3.066L43.3-10.7a3.007,3.007,0,0,1,2.707-1.673,3.4,3.4,0,0,1,1.011.146Zm6.4,6.716a2.129,2.129,0,0,0,1.46-.494A1.731,1.731,0,0,0,55.422-4.2h3.043a4.163,4.163,0,0,1-.674,2.263A4.446,4.446,0,0,1,55.978-.343a5.676,5.676,0,0,1-2.544.567,5.275,5.275,0,0,1-4.11-1.656,6.555,6.555,0,0,1-1.5-4.576v-.213A6.48,6.48,0,0,1,49.313-10.7a5.214,5.214,0,0,1,4.1-1.673,5.111,5.111,0,0,1,3.656,1.3,4.593,4.593,0,0,1,1.4,3.453H55.422a2.23,2.23,0,0,0-.584-1.541,1.947,1.947,0,0,0-1.482-.593,1.955,1.955,0,0,0-1.713.827,4.791,4.791,0,0,0-.578,2.683v.337a4.852,4.852,0,0,0,.573,2.7A1.979,1.979,0,0,0,53.378-2.392Zm10.107-8.434a4.051,4.051,0,0,1,3.246-1.55q3.953,0,4.009,4.593V0H67.5V-7.693a2.258,2.258,0,0,0-.449-1.544,1.926,1.926,0,0,0-1.494-.5,2.209,2.209,0,0,0-2.066,1.1V0H60.24V-17.25h3.246Zm25.482,3.74H82.5v4.38h7.592V0H79.13V-16.352H90.068v2.729H82.5v3.9h6.469Zm5.874-5.065.1,1.4a4.242,4.242,0,0,1,3.493-1.628,3.526,3.526,0,0,1,2.875,1.134,5.292,5.292,0,0,1,.966,3.392V0H99.03V-7.771a2.106,2.106,0,0,0-.449-1.5,2.011,2.011,0,0,0-1.494-.466,2.233,2.233,0,0,0-2.055,1.168V0H91.787V-12.151Zm9.422,5.986a7.121,7.121,0,0,1,1.331-4.5,4.312,4.312,0,0,1,3.588-1.707,3.782,3.782,0,0,1,3.111,1.37l.135-1.146h2.942V-.4a5.193,5.193,0,0,1-.724,2.774,4.652,4.652,0,0,1-2.038,1.8,7.166,7.166,0,0,1-3.077.618,6.663,6.663,0,0,1-2.605-.533A4.624,4.624,0,0,1,105,2.875L106.442.9a3.8,3.8,0,0,0,2.942,1.359,2.783,2.783,0,0,0,2.01-.691,2.591,2.591,0,0,0,.719-1.96v-.651A3.754,3.754,0,0,1,109.16.225a4.3,4.3,0,0,1-3.543-1.713,7.12,7.12,0,0,1-1.353-4.543Zm3.246.242a4.434,4.434,0,0,0,.663,2.593,2.108,2.108,0,0,0,1.819.939,2.254,2.254,0,0,0,2.123-1.114V-8.623a2.248,2.248,0,0,0-2.1-1.114,2.121,2.121,0,0,0-1.836.956A5,5,0,0,0,107.509-5.924ZM121.289,0h-3.257V-12.151h3.257Zm-3.448-15.3a1.6,1.6,0,0,1,.489-1.2,1.835,1.835,0,0,1,1.331-.472,1.839,1.839,0,0,1,1.325.472,1.589,1.589,0,0,1,.494,1.2,1.593,1.593,0,0,1-.5,1.213,1.844,1.844,0,0,1-1.32.472,1.844,1.844,0,0,1-1.32-.472A1.593,1.593,0,0,1,117.841-15.3Zm9.108,3.145.1,1.4a4.242,4.242,0,0,1,3.493-1.628,3.526,3.526,0,0,1,2.875,1.134,5.292,5.292,0,0,1,.966,3.392V0h-3.246V-7.771a2.106,2.106,0,0,0-.449-1.5,2.011,2.011,0,0,0-1.494-.466,2.233,2.233,0,0,0-2.055,1.168V0h-3.246V-12.151ZM142.436.225a5.965,5.965,0,0,1-4.352-1.64,5.828,5.828,0,0,1-1.679-4.369V-6.1a7.341,7.341,0,0,1,.708-3.274,5.192,5.192,0,0,1,2-2.224,5.627,5.627,0,0,1,2.959-.781A5.043,5.043,0,0,1,146-10.8a6.389,6.389,0,0,1,1.432,4.458V-5.02H139.7a3.015,3.015,0,0,0,.949,1.909,2.869,2.869,0,0,0,2,.719,3.5,3.5,0,0,0,2.931-1.359l1.595,1.786A4.872,4.872,0,0,1,145.2-.354,6.485,6.485,0,0,1,142.436.225Zm-.371-9.984a2.028,2.028,0,0,0-1.567.654,3.388,3.388,0,0,0-.769,1.873h4.515v-.26a2.416,2.416,0,0,0-.584-1.675A2.092,2.092,0,0,0,142.065-9.759Zm26.583,1.954a9.871,9.871,0,0,1-.854,4.234,6.428,6.428,0,0,1-2.443,2.808,6.757,6.757,0,0,1-3.644.988,6.8,6.8,0,0,1-3.627-.977,6.491,6.491,0,0,1-2.471-2.791,9.589,9.589,0,0,1-.887-4.172v-.809a9.819,9.819,0,0,1,.87-4.251,6.48,6.48,0,0,1,2.459-2.819,6.765,6.765,0,0,1,3.633-.983,6.765,6.765,0,0,1,3.633.983,6.48,6.48,0,0,1,2.459,2.819,9.791,9.791,0,0,1,.87,4.24Zm-3.414-.741a6.881,6.881,0,0,0-.921-3.908,3,3,0,0,0-2.628-1.336,3,3,0,0,0-2.617,1.32,6.8,6.8,0,0,0-.932,3.869v.8a6.967,6.967,0,0,0,.921,3.886,2.993,2.993,0,0,0,2.65,1.381,2.966,2.966,0,0,0,2.605-1.331,6.927,6.927,0,0,0,.921-3.88Zm16.587,2.583a7.288,7.288,0,0,1-1.275,4.5A4.087,4.087,0,0,1,177.1.225a3.786,3.786,0,0,1-2.976-1.28V4.672h-3.246V-12.151h3.01l.112,1.19a3.815,3.815,0,0,1,3.077-1.415,4.115,4.115,0,0,1,3.493,1.662,7.485,7.485,0,0,1,1.247,4.582ZM178.576-6.2a4.782,4.782,0,0,0-.6-2.617,1.957,1.957,0,0,0-1.746-.921,2.125,2.125,0,0,0-2.1,1.168v4.975a2.161,2.161,0,0,0,2.123,1.2Q178.576-2.392,178.576-6.2Zm9.142-8.939v2.987h2.078v2.381h-2.078v6.064a1.448,1.448,0,0,0,.258.966,1.3,1.3,0,0,0,.988.292,5.176,5.176,0,0,0,.955-.079V-.067a6.682,6.682,0,0,1-1.965.292q-3.414,0-3.481-3.448V-9.771H182.7v-2.381h1.774v-2.987ZM195.028,0h-3.257V-12.151h3.257Zm-3.448-15.3a1.6,1.6,0,0,1,.489-1.2,1.835,1.835,0,0,1,1.331-.472,1.839,1.839,0,0,1,1.325.472,1.589,1.589,0,0,1,.494,1.2,1.593,1.593,0,0,1-.5,1.213,1.844,1.844,0,0,1-1.32.472,1.844,1.844,0,0,1-1.32-.472A1.593,1.593,0,0,1,191.581-15.3Zm9.164,3.145.1,1.359a4.27,4.27,0,0,1,3.493-1.583,3.241,3.241,0,0,1,3.223,1.853,4.172,4.172,0,0,1,3.65-1.853,3.624,3.624,0,0,1,2.942,1.151,5.291,5.291,0,0,1,.966,3.465V0h-3.257V-7.749a2.314,2.314,0,0,0-.4-1.51,1.792,1.792,0,0,0-1.426-.477,2.026,2.026,0,0,0-2.021,1.393L208.022,0h-3.246V-7.738a2.286,2.286,0,0,0-.416-1.527,1.809,1.809,0,0,0-1.415-.472,2.1,2.1,0,0,0-2,1.146V0H197.7V-12.151ZM221.038,0h-3.257V-12.151h3.257ZM217.59-15.3a1.6,1.6,0,0,1,.489-1.2,1.835,1.835,0,0,1,1.331-.472,1.839,1.839,0,0,1,1.325.472,1.589,1.589,0,0,1,.494,1.2,1.593,1.593,0,0,1-.5,1.213,1.844,1.844,0,0,1-1.32.472,1.844,1.844,0,0,1-1.32-.472A1.593,1.593,0,0,1,217.59-15.3Zm9.849,12.679h5.941V0H223.3V-1.977l5.716-7.558h-5.548v-2.617H233.2v1.912ZM242.455,0a3.6,3.6,0,0,1-.326-1.089A3.927,3.927,0,0,1,239.063.225,4.314,4.314,0,0,1,236.1-.809a3.323,3.323,0,0,1-1.174-2.605,3.434,3.434,0,0,1,1.432-2.965A7.065,7.065,0,0,1,240.5-7.423h1.494v-.7a2,2,0,0,0-.432-1.348,1.7,1.7,0,0,0-1.365-.505,1.934,1.934,0,0,0-1.286.393,1.335,1.335,0,0,0-.466,1.078H235.2a3.26,3.26,0,0,1,.651-1.954,4.306,4.306,0,0,1,1.842-1.409,6.712,6.712,0,0,1,2.673-.511,5.3,5.3,0,0,1,3.566,1.129,3.948,3.948,0,0,1,1.32,3.173v5.267a5.809,5.809,0,0,0,.483,2.617V0Zm-2.684-2.257a2.8,2.8,0,0,0,1.325-.32,2.1,2.1,0,0,0,.9-.859V-5.525h-1.213q-2.437,0-2.594,1.685l-.011.191a1.3,1.3,0,0,0,.427,1A1.658,1.658,0,0,0,239.771-2.257ZM251.63-15.139v2.987h2.078v2.381H251.63v6.064a1.448,1.448,0,0,0,.258.966,1.3,1.3,0,0,0,.988.292,5.176,5.176,0,0,0,.955-.079V-.067a6.682,6.682,0,0,1-1.965.292q-3.414,0-3.481-3.448V-9.771H246.61v-2.381h1.774v-2.987ZM258.941,0h-3.257V-12.151h3.257Zm-3.448-15.3a1.6,1.6,0,0,1,.489-1.2,1.835,1.835,0,0,1,1.331-.472,1.839,1.839,0,0,1,1.325.472,1.589,1.589,0,0,1,.494,1.2,1.593,1.593,0,0,1-.5,1.213,1.844,1.844,0,0,1-1.32.472,1.844,1.844,0,0,1-1.32-.472A1.593,1.593,0,0,1,255.493-15.3Zm5.615,9.108a7.206,7.206,0,0,1,.7-3.223,5.1,5.1,0,0,1,2-2.19,5.849,5.849,0,0,1,3.038-.775,5.533,5.533,0,0,1,4.015,1.5A6.04,6.04,0,0,1,272.6-6.783l.022.831a6.351,6.351,0,0,1-1.561,4.487A5.426,5.426,0,0,1,266.87.225a5.453,5.453,0,0,1-4.195-1.685,6.463,6.463,0,0,1-1.567-4.582Zm3.246.23a4.542,4.542,0,0,0,.651,2.649,2.149,2.149,0,0,0,1.864.917,2.154,2.154,0,0,0,1.842-.905,4.97,4.97,0,0,0,.663-2.9,4.5,4.5,0,0,0-.663-2.632,2.154,2.154,0,0,0-1.864-.934,2.119,2.119,0,0,0-1.842.928A5.054,5.054,0,0,0,264.354-5.958Zm13.252-6.194.1,1.4a4.242,4.242,0,0,1,3.493-1.628,3.526,3.526,0,0,1,2.875,1.134,5.292,5.292,0,0,1,.966,3.392V0h-3.246V-7.771a2.106,2.106,0,0,0-.449-1.5,2.011,2.011,0,0,0-1.494-.466A2.233,2.233,0,0,0,277.8-8.569V0h-3.246V-12.151Zm15.768,5.5a17.235,17.235,0,0,1,.685-4.9,12.921,12.921,0,0,1,2.021-4.116,7.548,7.548,0,0,1,2.9-2.488l.629,1.752a7.817,7.817,0,0,0-2.561,3.751,17.368,17.368,0,0,0-.921,5.93v.348a17.7,17.7,0,0,0,.91,5.952,7.969,7.969,0,0,0,2.572,3.807l-.629,1.718a7.551,7.551,0,0,1-2.847-2.42,12.705,12.705,0,0,1-2.016-4,17.132,17.132,0,0,1-.741-4.739ZM309.995-4.29a1.729,1.729,0,0,0-.674-1.466A8.838,8.838,0,0,0,306.9-6.834a17.2,17.2,0,0,1-2.774-1.117q-2.785-1.5-2.785-4.054a3.949,3.949,0,0,1,.747-2.364,4.872,4.872,0,0,1,2.145-1.623,8.074,8.074,0,0,1,3.139-.584,7.349,7.349,0,0,1,3.122.635,4.971,4.971,0,0,1,2.128,1.791,4.687,4.687,0,0,1,.758,2.628h-3.369a2.2,2.2,0,0,0-.708-1.746,2.908,2.908,0,0,0-1.988-.623,3.107,3.107,0,0,0-1.92.522,1.647,1.647,0,0,0-.685,1.376,1.578,1.578,0,0,0,.8,1.336,9.072,9.072,0,0,0,2.364,1.011A10.214,10.214,0,0,1,312.061-7.5a4.272,4.272,0,0,1,1.314,3.189,3.935,3.935,0,0,1-1.606,3.33A7.031,7.031,0,0,1,307.445.225a8.349,8.349,0,0,1-3.437-.691,5.438,5.438,0,0,1-2.364-1.892,4.846,4.846,0,0,1-.814-2.785h3.38q0,2.707,3.234,2.707a3.146,3.146,0,0,0,1.875-.489A1.589,1.589,0,0,0,309.995-4.29Zm15.5-2.8h-6.469v4.38h7.592V0H315.655V-16.352h10.938v2.729h-7.569v3.9h6.469Zm16.531-.719a9.871,9.871,0,0,1-.854,4.234,6.428,6.428,0,0,1-2.443,2.808,6.757,6.757,0,0,1-3.644.988,6.8,6.8,0,0,1-3.627-.977,6.491,6.491,0,0,1-2.471-2.791,9.588,9.588,0,0,1-.887-4.172v-.809a9.819,9.819,0,0,1,.87-4.251,6.48,6.48,0,0,1,2.459-2.819,6.765,6.765,0,0,1,3.633-.983,6.765,6.765,0,0,1,3.633.983,6.48,6.48,0,0,1,2.459,2.819,9.791,9.791,0,0,1,.87,4.24Zm-3.414-.741a6.881,6.881,0,0,0-.921-3.908,3,3,0,0,0-2.628-1.336,3,3,0,0,0-2.617,1.32,6.8,6.8,0,0,0-.932,3.869v.8a6.967,6.967,0,0,0,.921,3.886,2.993,2.993,0,0,0,2.65,1.381,2.966,2.966,0,0,0,2.605-1.331,6.927,6.927,0,0,0,.921-3.88ZM349.852-6.39a16.354,16.354,0,0,1-.73,4.885,13.261,13.261,0,0,1-2.1,4.144A7.566,7.566,0,0,1,344.09,5.11l-.629-1.718a7.9,7.9,0,0,0,2.516-3.706,17.162,17.162,0,0,0,.955-5.761v-.6a17.549,17.549,0,0,0-.915-5.918,8.232,8.232,0,0,0-2.555-3.841l.629-1.718a7.569,7.569,0,0,1,2.881,2.4,13.09,13.09,0,0,1,2.1,4.054,16.238,16.238,0,0,1,.781,4.8Z" transform="translate(893.565 1477.3)" fill="#12263f"/>
    <path id="Trazado_624647" data-name="Trazado 624647" d="M-7.024-2.611a1.052,1.052,0,0,0-.41-.892A5.38,5.38,0,0,0-8.911-4.16,10.467,10.467,0,0,1-10.6-4.84a2.759,2.759,0,0,1-1.7-2.468,2.4,2.4,0,0,1,.455-1.439,2.965,2.965,0,0,1,1.306-.988,4.914,4.914,0,0,1,1.911-.355,4.473,4.473,0,0,1,1.9.386,3.026,3.026,0,0,1,1.3,1.09,2.853,2.853,0,0,1,.461,1.6H-7.017a1.342,1.342,0,0,0-.431-1.063,1.77,1.77,0,0,0-1.21-.379,1.891,1.891,0,0,0-1.169.318,1,1,0,0,0-.417.837.96.96,0,0,0,.489.813,5.522,5.522,0,0,0,1.439.615,6.217,6.217,0,0,1,2.55,1.306,2.6,2.6,0,0,1,.8,1.941A2.4,2.4,0,0,1-5.944-.6,4.279,4.279,0,0,1-8.576.137a5.082,5.082,0,0,1-2.092-.42,3.31,3.31,0,0,1-1.439-1.152,2.95,2.95,0,0,1-.5-1.7h2.058q0,1.647,1.969,1.647a1.915,1.915,0,0,0,1.142-.3A.967.967,0,0,0-7.024-2.611Zm9.434-1.7H-1.528v2.666H3.093V0H-3.579V-9.953H3.08v1.661H-1.528V-5.92H2.41Zm10.063-.437a6.008,6.008,0,0,1-.52,2.577A3.913,3.913,0,0,1,10.466-.465a4.113,4.113,0,0,1-2.218.6A4.141,4.141,0,0,1,6.04-.458a3.951,3.951,0,0,1-1.5-1.7A5.837,5.837,0,0,1,4-4.7v-.492a5.977,5.977,0,0,1,.53-2.587,3.945,3.945,0,0,1,1.5-1.716,4.118,4.118,0,0,1,2.211-.6,4.118,4.118,0,0,1,2.211.6,3.945,3.945,0,0,1,1.5,1.716,5.96,5.96,0,0,1,.53,2.581ZM10.394-5.2a4.188,4.188,0,0,0-.561-2.379,1.827,1.827,0,0,0-1.6-.813,1.827,1.827,0,0,0-1.593.8,4.141,4.141,0,0,0-.567,2.355v.485a4.241,4.241,0,0,0,.561,2.365,1.822,1.822,0,0,0,1.613.841,1.806,1.806,0,0,0,1.586-.81,4.216,4.216,0,0,0,.561-2.362Zm-27.3,17.451a6.008,6.008,0,0,1-.52,2.577,3.913,3.913,0,0,1-1.487,1.709,4.113,4.113,0,0,1-2.218.6,4.141,4.141,0,0,1-2.208-.595,3.951,3.951,0,0,1-1.5-1.7,5.837,5.837,0,0,1-.54-2.54v-.492a5.977,5.977,0,0,1,.53-2.587,3.945,3.945,0,0,1,1.5-1.716,4.118,4.118,0,0,1,2.211-.6,4.118,4.118,0,0,1,2.211.6,3.945,3.945,0,0,1,1.5,1.716,5.96,5.96,0,0,1,.53,2.581Zm-2.078-.451a4.188,4.188,0,0,0-.561-2.379,1.827,1.827,0,0,0-1.6-.813,1.827,1.827,0,0,0-1.593.8,4.141,4.141,0,0,0-.567,2.355v.485a4.241,4.241,0,0,0,.561,2.365,1.822,1.822,0,0,0,1.613.841,1.806,1.806,0,0,0,1.586-.81,4.216,4.216,0,0,0,.561-2.362ZM-13.727,9.6l.062.854a2.582,2.582,0,0,1,2.126-.991,2.146,2.146,0,0,1,1.75.69A3.221,3.221,0,0,1-9.2,12.222V17h-1.976V12.27a1.282,1.282,0,0,0-.273-.913,1.224,1.224,0,0,0-.909-.284,1.359,1.359,0,0,0-1.251.711V17h-1.976V9.6ZM2.44,13.37a4.436,4.436,0,0,1-.776,2.738,2.488,2.488,0,0,1-2.1,1.029,2.3,2.3,0,0,1-1.812-.779v3.486H-4.218V9.6h1.832l.068.725A2.322,2.322,0,0,1-.444,9.467a2.5,2.5,0,0,1,2.126,1.012,4.556,4.556,0,0,1,.759,2.789ZM.465,13.227A2.911,2.911,0,0,0,.1,11.634a1.191,1.191,0,0,0-1.063-.561,1.294,1.294,0,0,0-1.278.711v3.028a1.316,1.316,0,0,0,1.292.731Q.465,15.544.465,13.227ZM7.95,17a2.194,2.194,0,0,1-.2-.663,2.39,2.39,0,0,1-1.866.8,2.626,2.626,0,0,1-1.8-.629,2.023,2.023,0,0,1-.714-1.586,2.09,2.09,0,0,1,.872-1.8,4.3,4.3,0,0,1,2.519-.636H7.67v-.424a1.219,1.219,0,0,0-.263-.82,1.035,1.035,0,0,0-.831-.308,1.177,1.177,0,0,0-.783.239.813.813,0,0,0-.284.656H3.534a1.984,1.984,0,0,1,.4-1.189,2.621,2.621,0,0,1,1.121-.858,4.086,4.086,0,0,1,1.627-.311,3.228,3.228,0,0,1,2.17.687,2.4,2.4,0,0,1,.8,1.931v3.206a3.536,3.536,0,0,0,.294,1.593V17ZM6.316,15.626a1.7,1.7,0,0,0,.807-.195,1.28,1.28,0,0,0,.547-.523V13.637H6.932q-1.483,0-1.579,1.025l-.007.116a.791.791,0,0,0,.26.608A1.009,1.009,0,0,0,6.316,15.626Zm4.566-2.379a4.335,4.335,0,0,1,.81-2.741,2.625,2.625,0,0,1,2.184-1.039,2.3,2.3,0,0,1,1.894.834l.082-.7h1.791v7.15a3.161,3.161,0,0,1-.441,1.688,2.832,2.832,0,0,1-1.241,1.094,4.362,4.362,0,0,1-1.873.376,4.056,4.056,0,0,1-1.586-.325,2.815,2.815,0,0,1-1.169-.837l.875-1.2A2.314,2.314,0,0,0,14,18.374a1.694,1.694,0,0,0,1.224-.42,1.577,1.577,0,0,0,.438-1.193v-.4a2.285,2.285,0,0,1-1.8.772,2.618,2.618,0,0,1-2.157-1.042,4.334,4.334,0,0,1-.824-2.765Zm1.976.147a2.7,2.7,0,0,0,.4,1.578,1.283,1.283,0,0,0,1.107.572,1.372,1.372,0,0,0,1.292-.678V11.751a1.369,1.369,0,0,0-1.278-.678,1.291,1.291,0,0,0-1.118.582A3.042,3.042,0,0,0,12.858,13.394Zm9.707,3.743a3.631,3.631,0,0,1-2.649-1,3.548,3.548,0,0,1-1.022-2.659v-.191a4.468,4.468,0,0,1,.431-1.993,3.161,3.161,0,0,1,1.22-1.354,3.425,3.425,0,0,1,1.8-.475,3.07,3.07,0,0,1,2.389.957,3.889,3.889,0,0,1,.872,2.714v.807H20.9a1.835,1.835,0,0,0,.578,1.162,1.746,1.746,0,0,0,1.22.438,2.132,2.132,0,0,0,1.784-.827L25.45,15.8a2.966,2.966,0,0,1-1.2.981A3.947,3.947,0,0,1,22.565,17.137ZM22.34,11.06a1.234,1.234,0,0,0-.954.4,2.062,2.062,0,0,0-.468,1.14h2.748V12.44a1.471,1.471,0,0,0-.355-1.02A1.274,1.274,0,0,0,22.34,11.06Z" transform="translate(965.58 1600.343)" fill="#fff"/>
    <path id="Trazado_624648" data-name="Trazado 624648" d="M-7.024-2.611a1.052,1.052,0,0,0-.41-.892A5.38,5.38,0,0,0-8.911-4.16,10.467,10.467,0,0,1-10.6-4.84a2.759,2.759,0,0,1-1.7-2.468,2.4,2.4,0,0,1,.455-1.439,2.965,2.965,0,0,1,1.306-.988,4.914,4.914,0,0,1,1.911-.355,4.473,4.473,0,0,1,1.9.386,3.026,3.026,0,0,1,1.3,1.09,2.853,2.853,0,0,1,.461,1.6H-7.017a1.342,1.342,0,0,0-.431-1.063,1.77,1.77,0,0,0-1.21-.379,1.891,1.891,0,0,0-1.169.318,1,1,0,0,0-.417.837.96.96,0,0,0,.489.813,5.522,5.522,0,0,0,1.439.615,6.217,6.217,0,0,1,2.55,1.306,2.6,2.6,0,0,1,.8,1.941A2.4,2.4,0,0,1-5.944-.6,4.279,4.279,0,0,1-8.576.137a5.082,5.082,0,0,1-2.092-.42,3.31,3.31,0,0,1-1.439-1.152,2.95,2.95,0,0,1-.5-1.7h2.058q0,1.647,1.969,1.647a1.915,1.915,0,0,0,1.142-.3A.967.967,0,0,0-7.024-2.611Zm9.434-1.7H-1.528v2.666H3.093V0H-3.579V-9.953H3.08v1.661H-1.528V-5.92H2.41Zm10.063-.437a6.008,6.008,0,0,1-.52,2.577A3.913,3.913,0,0,1,10.466-.465a4.113,4.113,0,0,1-2.218.6A4.141,4.141,0,0,1,6.04-.458a3.951,3.951,0,0,1-1.5-1.7A5.837,5.837,0,0,1,4-4.7v-.492a5.977,5.977,0,0,1,.53-2.587,3.945,3.945,0,0,1,1.5-1.716,4.118,4.118,0,0,1,2.211-.6,4.118,4.118,0,0,1,2.211.6,3.945,3.945,0,0,1,1.5,1.716,5.96,5.96,0,0,1,.53,2.581ZM10.394-5.2a4.188,4.188,0,0,0-.561-2.379,1.827,1.827,0,0,0-1.6-.813,1.827,1.827,0,0,0-1.593.8,4.141,4.141,0,0,0-.567,2.355v.485a4.241,4.241,0,0,0,.561,2.365,1.822,1.822,0,0,0,1.613.841,1.806,1.806,0,0,0,1.586-.81,4.216,4.216,0,0,0,.561-2.362ZM-18,12.249a6.008,6.008,0,0,1-.52,2.577,3.913,3.913,0,0,1-1.487,1.709,4.113,4.113,0,0,1-2.218.6,4.141,4.141,0,0,1-2.208-.595,3.951,3.951,0,0,1-1.5-1.7,5.837,5.837,0,0,1-.54-2.54v-.492a5.977,5.977,0,0,1,.53-2.587,3.945,3.945,0,0,1,1.5-1.716,4.118,4.118,0,0,1,2.211-.6,4.118,4.118,0,0,1,2.211.6,3.945,3.945,0,0,1,1.5,1.716A5.96,5.96,0,0,1-18,11.8Zm-2.078-.451a4.188,4.188,0,0,0-.561-2.379,1.827,1.827,0,0,0-1.6-.813,1.827,1.827,0,0,0-1.593.8,4.141,4.141,0,0,0-.567,2.355v.485a4.241,4.241,0,0,0,.561,2.365,1.822,1.822,0,0,0,1.613.841,1.806,1.806,0,0,0,1.586-.81,4.216,4.216,0,0,0,.561-2.362ZM-16.1,17V11.053h-1.1V9.6h1.1V8.975a2.553,2.553,0,0,1,.714-1.931,2.767,2.767,0,0,1,2-.687,4.619,4.619,0,0,1,1,.137L-12.4,8.024a2.519,2.519,0,0,0-.6-.062q-1.114,0-1.114,1.046V9.6h1.47v1.449h-1.47V17Zm5.018,0V11.053h-1.1V9.6h1.1V8.975a2.553,2.553,0,0,1,.714-1.931,2.767,2.767,0,0,1,2-.687,4.619,4.619,0,0,1,1,.137l-.021,1.531a2.519,2.519,0,0,0-.6-.062Q-9.1,7.963-9.1,9.009V9.6h1.47v1.449H-9.1V17ZM3.538,13.37a4.436,4.436,0,0,1-.776,2.738,2.488,2.488,0,0,1-2.1,1.029,2.3,2.3,0,0,1-1.812-.779v3.486H-3.121V9.6h1.832l.068.725A2.322,2.322,0,0,1,.653,9.467a2.5,2.5,0,0,1,2.126,1.012,4.556,4.556,0,0,1,.759,2.789Zm-1.976-.144A2.911,2.911,0,0,0,1.2,11.634a1.191,1.191,0,0,0-1.063-.561,1.294,1.294,0,0,0-1.278.711v3.028a1.316,1.316,0,0,0,1.292.731Q1.562,15.544,1.562,13.227ZM9.047,17a2.194,2.194,0,0,1-.2-.663,2.39,2.39,0,0,1-1.866.8,2.626,2.626,0,0,1-1.8-.629,2.023,2.023,0,0,1-.714-1.586,2.09,2.09,0,0,1,.872-1.8,4.3,4.3,0,0,1,2.519-.636h.909v-.424a1.219,1.219,0,0,0-.263-.82,1.035,1.035,0,0,0-.831-.308,1.177,1.177,0,0,0-.783.239.813.813,0,0,0-.284.656H4.631a1.984,1.984,0,0,1,.4-1.189,2.621,2.621,0,0,1,1.121-.858,4.086,4.086,0,0,1,1.627-.311,3.228,3.228,0,0,1,2.17.687,2.4,2.4,0,0,1,.8,1.931v3.206a3.536,3.536,0,0,0,.294,1.593V17ZM7.414,15.626a1.7,1.7,0,0,0,.807-.195,1.28,1.28,0,0,0,.547-.523V13.637H8.029q-1.483,0-1.579,1.025l-.007.116a.791.791,0,0,0,.26.608A1.009,1.009,0,0,0,7.414,15.626Zm4.566-2.379a4.335,4.335,0,0,1,.81-2.741,2.625,2.625,0,0,1,2.184-1.039,2.3,2.3,0,0,1,1.894.834l.082-.7h1.791v7.15a3.161,3.161,0,0,1-.441,1.688,2.832,2.832,0,0,1-1.241,1.094,4.362,4.362,0,0,1-1.873.376,4.056,4.056,0,0,1-1.586-.325,2.815,2.815,0,0,1-1.169-.837l.875-1.2a2.314,2.314,0,0,0,1.791.827,1.694,1.694,0,0,0,1.224-.42,1.577,1.577,0,0,0,.438-1.193v-.4a2.285,2.285,0,0,1-1.8.772A2.618,2.618,0,0,1,12.8,16.094a4.334,4.334,0,0,1-.824-2.765Zm1.976.147a2.7,2.7,0,0,0,.4,1.578,1.283,1.283,0,0,0,1.107.572,1.372,1.372,0,0,0,1.292-.678V11.751a1.369,1.369,0,0,0-1.278-.678,1.291,1.291,0,0,0-1.118.582A3.042,3.042,0,0,0,13.956,13.394Zm9.707,3.743a3.631,3.631,0,0,1-2.649-1,3.548,3.548,0,0,1-1.022-2.659v-.191a4.468,4.468,0,0,1,.431-1.993,3.161,3.161,0,0,1,1.22-1.354,3.425,3.425,0,0,1,1.8-.475,3.07,3.07,0,0,1,2.389.957,3.889,3.889,0,0,1,.872,2.714v.807h-4.71a1.835,1.835,0,0,0,.578,1.162,1.746,1.746,0,0,0,1.22.438,2.132,2.132,0,0,0,1.784-.827l.971,1.087a2.966,2.966,0,0,1-1.2.981A3.947,3.947,0,0,1,23.663,17.137Zm-.226-6.077a1.234,1.234,0,0,0-.954.4,2.062,2.062,0,0,0-.468,1.14h2.748V12.44a1.471,1.471,0,0,0-.355-1.02A1.274,1.274,0,0,0,23.437,11.06Z" transform="translate(1157.825 1563.52)" fill="#fff"/>
    <path id="Trazado_624649" data-name="Trazado 624649" d="M9.939-4.29a1.729,1.729,0,0,0-.674-1.466A8.838,8.838,0,0,0,6.839-6.834,17.2,17.2,0,0,1,4.065-7.951Q1.28-9.456,1.28-12.005a3.949,3.949,0,0,1,.747-2.364,4.871,4.871,0,0,1,2.145-1.623,8.074,8.074,0,0,1,3.139-.584,7.349,7.349,0,0,1,3.122.635,4.971,4.971,0,0,1,2.128,1.791,4.687,4.687,0,0,1,.758,2.628H9.95a2.2,2.2,0,0,0-.708-1.746,2.908,2.908,0,0,0-1.988-.623,3.107,3.107,0,0,0-1.92.522,1.647,1.647,0,0,0-.685,1.376,1.578,1.578,0,0,0,.8,1.336A9.072,9.072,0,0,0,7.816-9.647,10.214,10.214,0,0,1,12.005-7.5a4.272,4.272,0,0,1,1.314,3.189,3.935,3.935,0,0,1-1.606,3.33A7.031,7.031,0,0,1,7.39.225,8.349,8.349,0,0,1,3.953-.466,5.438,5.438,0,0,1,1.589-2.358,4.846,4.846,0,0,1,.775-5.144h3.38q0,2.707,3.234,2.707a3.146,3.146,0,0,0,1.875-.489A1.589,1.589,0,0,0,9.939-4.29Zm15.5-2.8H18.968v4.38H26.56V0H15.6V-16.352H26.538v2.729H18.968v3.9h6.469Zm16.531-.719a9.871,9.871,0,0,1-.854,4.234A6.428,6.428,0,0,1,38.672-.764a6.757,6.757,0,0,1-3.644.988A6.8,6.8,0,0,1,31.4-.752,6.491,6.491,0,0,1,28.93-3.543a9.589,9.589,0,0,1-.887-4.172v-.809a9.819,9.819,0,0,1,.87-4.251,6.48,6.48,0,0,1,2.459-2.819,6.765,6.765,0,0,1,3.633-.983,6.765,6.765,0,0,1,3.633.983A6.48,6.48,0,0,1,41.1-12.775a9.791,9.791,0,0,1,.87,4.24Zm-3.414-.741a6.881,6.881,0,0,0-.921-3.908,3,3,0,0,0-2.628-1.336,3,3,0,0,0-2.617,1.32A6.8,6.8,0,0,0,31.457-8.6v.8a6.967,6.967,0,0,0,.921,3.886,2.993,2.993,0,0,0,2.65,1.381,2.966,2.966,0,0,0,2.605-1.331,6.927,6.927,0,0,0,.921-3.88Zm21.7.168H50.211v-2.65h10.04Zm0,4.863H50.211v-2.65h10.04ZM77.513-4.29a1.729,1.729,0,0,0-.674-1.466,8.838,8.838,0,0,0-2.426-1.078,17.2,17.2,0,0,1-2.774-1.117q-2.785-1.5-2.785-4.054a3.949,3.949,0,0,1,.747-2.364,4.872,4.872,0,0,1,2.145-1.623,8.074,8.074,0,0,1,3.139-.584,7.349,7.349,0,0,1,3.122.635,4.971,4.971,0,0,1,2.128,1.791,4.687,4.687,0,0,1,.758,2.628H77.524a2.2,2.2,0,0,0-.708-1.746,2.908,2.908,0,0,0-1.988-.623,3.107,3.107,0,0,0-1.92.522,1.647,1.647,0,0,0-.685,1.376,1.578,1.578,0,0,0,.8,1.336A9.072,9.072,0,0,0,75.39-9.647,10.214,10.214,0,0,1,79.579-7.5a4.272,4.272,0,0,1,1.314,3.189,3.935,3.935,0,0,1-1.606,3.33A7.031,7.031,0,0,1,74.963.225a8.349,8.349,0,0,1-3.437-.691,5.438,5.438,0,0,1-2.364-1.892,4.846,4.846,0,0,1-.814-2.785h3.38q0,2.707,3.234,2.707a3.146,3.146,0,0,0,1.875-.489A1.589,1.589,0,0,0,77.513-4.29Zm15.5-2.8H86.542v4.38h7.592V0H83.173V-16.352H94.111v2.729H86.542v3.9h6.469Zm16.531-.719a9.871,9.871,0,0,1-.854,4.234,6.428,6.428,0,0,1-2.443,2.808A6.757,6.757,0,0,1,102.6.225a6.8,6.8,0,0,1-3.627-.977A6.491,6.491,0,0,1,96.5-3.543a9.589,9.589,0,0,1-.887-4.172v-.809a9.819,9.819,0,0,1,.87-4.251,6.48,6.48,0,0,1,2.459-2.819,6.765,6.765,0,0,1,3.633-.983,6.765,6.765,0,0,1,3.633.983,6.48,6.48,0,0,1,2.459,2.819,9.791,9.791,0,0,1,.87,4.24Zm-3.414-.741a6.881,6.881,0,0,0-.921-3.908,3,3,0,0,0-2.628-1.336,3,3,0,0,0-2.617,1.32A6.8,6.8,0,0,0,99.03-8.6v.8a6.967,6.967,0,0,0,.921,3.886,2.993,2.993,0,0,0,2.65,1.381,2.966,2.966,0,0,0,2.605-1.331,6.927,6.927,0,0,0,.921-3.88ZM117-6.188a7.206,7.206,0,0,1,.7-3.223,5.1,5.1,0,0,1,2-2.19,5.849,5.849,0,0,1,3.038-.775,5.533,5.533,0,0,1,4.015,1.5,6.04,6.04,0,0,1,1.735,4.088l.022.831a6.351,6.351,0,0,1-1.561,4.487A5.426,5.426,0,0,1,122.76.225a5.453,5.453,0,0,1-4.195-1.685A6.463,6.463,0,0,1,117-6.042Zm3.246.23a4.542,4.542,0,0,0,.651,2.649,2.149,2.149,0,0,0,1.864.917A2.154,2.154,0,0,0,124.6-3.3a4.97,4.97,0,0,0,.663-2.9,4.5,4.5,0,0,0-.663-2.632,2.154,2.154,0,0,0-1.864-.934,2.119,2.119,0,0,0-1.842.928A5.054,5.054,0,0,0,120.245-5.958ZM133.5-12.151l.1,1.4a4.242,4.242,0,0,1,3.493-1.628,3.526,3.526,0,0,1,2.875,1.134,5.292,5.292,0,0,1,.966,3.392V0h-3.246V-7.771a2.106,2.106,0,0,0-.449-1.5,2.011,2.011,0,0,0-1.494-.466,2.233,2.233,0,0,0-2.055,1.168V0h-3.246V-12.151Zm26.56,6.188a7.288,7.288,0,0,1-1.275,4.5A4.087,4.087,0,0,1,155.34.225a3.786,3.786,0,0,1-2.976-1.28V4.672h-3.246V-12.151h3.01l.112,1.19a3.815,3.815,0,0,1,3.077-1.415,4.115,4.115,0,0,1,3.493,1.662,7.485,7.485,0,0,1,1.247,4.582ZM156.811-6.2a4.782,4.782,0,0,0-.6-2.617,1.957,1.957,0,0,0-1.746-.921,2.125,2.125,0,0,0-2.1,1.168v4.975a2.161,2.161,0,0,0,2.123,1.2Q156.811-2.392,156.811-6.2Zm12.3,6.2a3.6,3.6,0,0,1-.326-1.089A3.927,3.927,0,0,1,165.717.225a4.314,4.314,0,0,1-2.959-1.033,3.323,3.323,0,0,1-1.174-2.605,3.434,3.434,0,0,1,1.432-2.965,7.065,7.065,0,0,1,4.138-1.044h1.494v-.7a2,2,0,0,0-.432-1.348,1.7,1.7,0,0,0-1.365-.505,1.934,1.934,0,0,0-1.286.393A1.335,1.335,0,0,0,165.1-8.5h-3.246a3.26,3.26,0,0,1,.651-1.954,4.306,4.306,0,0,1,1.842-1.409,6.712,6.712,0,0,1,2.673-.511,5.3,5.3,0,0,1,3.566,1.129,3.948,3.948,0,0,1,1.32,3.173v5.267a5.809,5.809,0,0,0,.483,2.617V0Zm-2.684-2.257a2.8,2.8,0,0,0,1.325-.32,2.1,2.1,0,0,0,.9-.859V-5.525h-1.213q-2.437,0-2.594,1.685l-.011.191a1.3,1.3,0,0,0,.427,1A1.658,1.658,0,0,0,166.424-2.257Zm7.5-3.908a7.121,7.121,0,0,1,1.331-4.5,4.312,4.312,0,0,1,3.588-1.707,3.782,3.782,0,0,1,3.111,1.37l.135-1.146h2.942V-.4a5.193,5.193,0,0,1-.724,2.774,4.652,4.652,0,0,1-2.038,1.8,7.166,7.166,0,0,1-3.077.618,6.663,6.663,0,0,1-2.605-.533,4.624,4.624,0,0,1-1.92-1.376L176.1.9a3.8,3.8,0,0,0,2.942,1.359,2.783,2.783,0,0,0,2.01-.691,2.591,2.591,0,0,0,.719-1.96v-.651A3.754,3.754,0,0,1,178.823.225a4.3,4.3,0,0,1-3.543-1.713,7.12,7.12,0,0,1-1.353-4.543Zm3.246.242a4.434,4.434,0,0,0,.663,2.593,2.108,2.108,0,0,0,1.819.939,2.254,2.254,0,0,0,2.123-1.114V-8.623a2.248,2.248,0,0,0-2.1-1.114,2.121,2.121,0,0,0-1.836.956A5,5,0,0,0,177.172-5.924ZM193.119.225a5.965,5.965,0,0,1-4.352-1.64,5.828,5.828,0,0,1-1.679-4.369V-6.1a7.341,7.341,0,0,1,.708-3.274,5.192,5.192,0,0,1,2-2.224,5.627,5.627,0,0,1,2.959-.781,5.043,5.043,0,0,1,3.925,1.572,6.389,6.389,0,0,1,1.432,4.458V-5.02h-7.738a3.015,3.015,0,0,0,.949,1.909,2.869,2.869,0,0,0,2,.719,3.5,3.5,0,0,0,2.931-1.359l1.595,1.786a4.872,4.872,0,0,1-1.977,1.612A6.485,6.485,0,0,1,193.119.225Zm-.371-9.984a2.028,2.028,0,0,0-1.567.654,3.388,3.388,0,0,0-.769,1.873h4.515v-.26a2.416,2.416,0,0,0-.584-1.675A2.092,2.092,0,0,0,192.749-9.759Zm19.485.606h4.054v2.931h-4.054V-1.64h-3.088V-6.222H205.08V-9.153h4.065v-4.391h3.088ZM232.662-4.29a1.729,1.729,0,0,0-.674-1.466,8.838,8.838,0,0,0-2.426-1.078,17.2,17.2,0,0,1-2.774-1.117Q224-9.456,224-12.005a3.949,3.949,0,0,1,.747-2.364,4.871,4.871,0,0,1,2.145-1.623,8.074,8.074,0,0,1,3.139-.584,7.349,7.349,0,0,1,3.122.635,4.971,4.971,0,0,1,2.128,1.791,4.687,4.687,0,0,1,.758,2.628h-3.369a2.2,2.2,0,0,0-.708-1.746,2.908,2.908,0,0,0-1.988-.623,3.107,3.107,0,0,0-1.92.522,1.647,1.647,0,0,0-.685,1.376,1.578,1.578,0,0,0,.8,1.336,9.072,9.072,0,0,0,2.364,1.011A10.214,10.214,0,0,1,234.728-7.5a4.272,4.272,0,0,1,1.314,3.189,3.935,3.935,0,0,1-1.606,3.33A7.031,7.031,0,0,1,230.112.225a8.349,8.349,0,0,1-3.437-.691,5.438,5.438,0,0,1-2.364-1.892,4.846,4.846,0,0,1-.814-2.785h3.38q0,2.707,3.234,2.707a3.146,3.146,0,0,0,1.875-.489A1.589,1.589,0,0,0,232.662-4.29Zm15.5-2.8h-6.469v4.38h7.592V0H238.322V-16.352H249.26v2.729h-7.569v3.9h6.469Zm16.531-.719a9.871,9.871,0,0,1-.854,4.234,6.428,6.428,0,0,1-2.443,2.808,6.757,6.757,0,0,1-3.644.988,6.8,6.8,0,0,1-3.627-.977,6.491,6.491,0,0,1-2.471-2.791,9.589,9.589,0,0,1-.887-4.172v-.809a9.819,9.819,0,0,1,.87-4.251,6.48,6.48,0,0,1,2.459-2.819,6.765,6.765,0,0,1,3.633-.983,6.765,6.765,0,0,1,3.633.983,6.48,6.48,0,0,1,2.459,2.819,9.791,9.791,0,0,1,.87,4.24Zm-3.414-.741a6.881,6.881,0,0,0-.921-3.908,3,3,0,0,0-2.628-1.336,3,3,0,0,0-2.617,1.32,6.8,6.8,0,0,0-.932,3.869v.8a6.967,6.967,0,0,0,.921,3.886,2.993,2.993,0,0,0,2.65,1.381,2.966,2.966,0,0,0,2.605-1.331,6.927,6.927,0,0,0,.921-3.88Zm10.871,2.358a7.206,7.206,0,0,1,.7-3.223,5.1,5.1,0,0,1,2-2.19,5.849,5.849,0,0,1,3.038-.775,5.533,5.533,0,0,1,4.015,1.5,6.04,6.04,0,0,1,1.735,4.088l.022.831A6.351,6.351,0,0,1,282.1-1.466a5.426,5.426,0,0,1-4.189,1.69,5.453,5.453,0,0,1-4.195-1.685,6.463,6.463,0,0,1-1.567-4.582Zm3.246.23a4.542,4.542,0,0,0,.651,2.649,2.149,2.149,0,0,0,1.864.917,2.154,2.154,0,0,0,1.842-.905,4.97,4.97,0,0,0,.663-2.9,4.5,4.5,0,0,0-.663-2.632,2.154,2.154,0,0,0-1.864-.934,2.119,2.119,0,0,0-1.842.928A5.054,5.054,0,0,0,275.394-5.958ZM286.545,0V-9.771h-1.808v-2.381h1.808v-1.033a4.2,4.2,0,0,1,1.174-3.173A4.545,4.545,0,0,1,291-17.486a7.587,7.587,0,0,1,1.651.225l-.034,2.516a4.138,4.138,0,0,0-.988-.1q-1.831,0-1.831,1.718v.977h2.415v2.381H289.8V0Zm8.243,0V-9.771H292.98v-2.381h1.808v-1.033a4.2,4.2,0,0,1,1.174-3.173,4.545,4.545,0,0,1,3.285-1.129,7.587,7.587,0,0,1,1.651.225l-.034,2.516a4.138,4.138,0,0,0-.988-.1q-1.831,0-1.831,1.718v.977h2.415v2.381h-2.415V0Zm24.022-5.963a7.288,7.288,0,0,1-1.275,4.5,4.087,4.087,0,0,1-3.442,1.69,3.786,3.786,0,0,1-2.976-1.28V4.672h-3.246V-12.151h3.01l.112,1.19a3.815,3.815,0,0,1,3.077-1.415,4.115,4.115,0,0,1,3.493,1.662,7.485,7.485,0,0,1,1.247,4.582ZM315.565-6.2a4.782,4.782,0,0,0-.6-2.617,1.957,1.957,0,0,0-1.746-.921,2.125,2.125,0,0,0-2.1,1.168v4.975a2.161,2.161,0,0,0,2.123,1.2Q315.565-2.392,315.565-6.2Zm12.3,6.2a3.6,3.6,0,0,1-.326-1.089A3.927,3.927,0,0,1,324.471.225a4.314,4.314,0,0,1-2.959-1.033,3.323,3.323,0,0,1-1.174-2.605,3.434,3.434,0,0,1,1.432-2.965,7.065,7.065,0,0,1,4.138-1.044H327.4v-.7a2,2,0,0,0-.432-1.348,1.7,1.7,0,0,0-1.365-.505,1.934,1.934,0,0,0-1.286.393,1.335,1.335,0,0,0-.466,1.078h-3.246a3.26,3.26,0,0,1,.651-1.954,4.306,4.306,0,0,1,1.842-1.409,6.712,6.712,0,0,1,2.673-.511,5.3,5.3,0,0,1,3.566,1.129,3.948,3.948,0,0,1,1.32,3.173v5.267a5.809,5.809,0,0,0,.483,2.617V0Zm-2.684-2.257a2.8,2.8,0,0,0,1.325-.32,2.1,2.1,0,0,0,.9-.859V-5.525h-1.213q-2.437,0-2.594,1.685l-.011.191a1.3,1.3,0,0,0,.427,1A1.658,1.658,0,0,0,325.178-2.257Zm7.5-3.908a7.121,7.121,0,0,1,1.331-4.5,4.312,4.312,0,0,1,3.588-1.707,3.782,3.782,0,0,1,3.111,1.37l.135-1.146h2.942V-.4a5.193,5.193,0,0,1-.724,2.774,4.652,4.652,0,0,1-2.038,1.8,7.166,7.166,0,0,1-3.077.618,6.663,6.663,0,0,1-2.605-.533,4.624,4.624,0,0,1-1.92-1.376L334.859.9A3.8,3.8,0,0,0,337.8,2.257a2.783,2.783,0,0,0,2.01-.691,2.591,2.591,0,0,0,.719-1.96v-.651A3.754,3.754,0,0,1,337.577.225a4.3,4.3,0,0,1-3.543-1.713,7.119,7.119,0,0,1-1.353-4.543Zm3.246.242a4.434,4.434,0,0,0,.663,2.593,2.108,2.108,0,0,0,1.819.939,2.254,2.254,0,0,0,2.123-1.114V-8.623a2.248,2.248,0,0,0-2.1-1.114,2.121,2.121,0,0,0-1.836.956A5,5,0,0,0,335.926-5.924ZM351.873.225a5.965,5.965,0,0,1-4.352-1.64,5.828,5.828,0,0,1-1.679-4.369V-6.1a7.341,7.341,0,0,1,.708-3.274,5.192,5.192,0,0,1,2-2.224,5.627,5.627,0,0,1,2.959-.781,5.043,5.043,0,0,1,3.925,1.572,6.389,6.389,0,0,1,1.432,4.458V-5.02h-7.738a3.015,3.015,0,0,0,.949,1.909,2.869,2.869,0,0,0,2,.719,3.5,3.5,0,0,0,2.931-1.359l1.595,1.786a4.872,4.872,0,0,1-1.977,1.612A6.485,6.485,0,0,1,351.873.225ZM351.5-9.759a2.028,2.028,0,0,0-1.567.654,3.388,3.388,0,0,0-.769,1.873h4.515v-.26a2.416,2.416,0,0,0-.584-1.675A2.092,2.092,0,0,0,351.5-9.759Z" transform="translate(879.089 1723.727)" fill="#12263f"/>
  </g>
</svg>
