<svg xmlns="http://www.w3.org/2000/svg" width="715" height="402" viewBox="0 0 715 402">
  <g id="Grupo_1034302" data-name="Grupo 1034302" transform="translate(-11240.332 566.399)">
    <g id="Grupo_878563" data-name="Grupo 878563" transform="translate(20001.332 6960.094)">
      <rect id="concept-diversity-inclusion-equality-conceptual-photos" width="715" height="402" rx="19" transform="translate(-8761 -7526.493)" fill="#fff"/>
      <g id="Grupo_878562" data-name="Grupo 878562" transform="translate(-8695.635 -7638.34)">
        <g id="Shadow" transform="translate(66.541 484.414)">
          <ellipse id="_Path_" data-name="&lt;Path&gt;" cx="251.987" cy="14.716" rx="251.987" ry="14.716" fill="#f5f5f5"/>
        </g>
        <g id="Ladder" transform="translate(389.209 423.913)">
          <g id="Grupo_878521" data-name="Grupo 878521">
            <g id="Grupo_878516" data-name="Grupo 878516" transform="translate(38.989 3.425)">
              <path id="Trazado_621328" data-name="Trazado 621328" d="M334.385,432.793h9.54l13-71.8h-9.54Z" transform="translate(-334.385 -360.998)" fill="#263238"/>
              <path id="Trazado_621329" data-name="Trazado 621329" d="M334.385,432.793h9.54l13-71.8h-9.54Z" transform="translate(-334.385 -360.998)" fill="#fff" opacity="0.2"/>
              <path id="Trazado_621330" data-name="Trazado 621330" d="M334.385,432.793h6.941l13-71.8h-6.941Z" transform="translate(-334.385 -360.998)" fill="#fff" opacity="0.2"/>
            </g>
            <path id="Trazado_621331" data-name="Trazado 621331" d="M314.174,378.4h38.2a2.109,2.109,0,0,0,2.108-2.109h0a2.108,2.108,0,0,0-2.108-2.108h-38.2a2.108,2.108,0,0,0-2.108,2.108h0A2.109,2.109,0,0,0,314.174,378.4Z" transform="translate(-302.083 -353.621)" fill="#263238"/>
            <path id="Trazado_621332" data-name="Trazado 621332" d="M310.911,396.9h38.2a2.109,2.109,0,0,0,2.109-2.108h0a2.11,2.11,0,0,0-2.109-2.109h-38.2a2.11,2.11,0,0,0-2.109,2.109h0A2.109,2.109,0,0,0,310.911,396.9Z" transform="translate(-303.061 -348.079)" fill="#263238"/>
            <g id="Grupo_878517" data-name="Grupo 878517" transform="translate(0 3.425)">
              <path id="Trazado_621333" data-name="Trazado 621333" d="M304.385,432.793h9.54l13-71.8h-9.54Z" transform="translate(-304.385 -360.998)" fill="#263238"/>
              <path id="Trazado_621334" data-name="Trazado 621334" d="M304.385,432.793h9.54l13-71.8h-9.54Z" transform="translate(-304.385 -360.998)" fill="#fff" opacity="0.2"/>
              <path id="Trazado_621335" data-name="Trazado 621335" d="M304.385,432.793h6.941l13-71.8h-6.941Z" transform="translate(-304.385 -360.998)" fill="#fff" opacity="0.2"/>
            </g>
            <g id="Grupo_878518" data-name="Grupo 878518" transform="translate(66.282 3.425)">
              <path id="Trazado_621336" data-name="Trazado 621336" d="M377.921,432.793h-9.54l-13-71.8h9.54Z" transform="translate(-355.385 -360.998)" fill="#263238"/>
              <path id="Trazado_621337" data-name="Trazado 621337" d="M377.921,432.793h-9.54l-13-71.8h9.54Z" transform="translate(-355.385 -360.998)" fill="#fff" opacity="0.4"/>
              <path id="Trazado_621338" data-name="Trazado 621338" d="M375.322,432.793h-6.941l-13-71.8h6.941Z" transform="translate(-355.385 -360.998)" fill="#fff" opacity="0.2"/>
            </g>
            <path id="Trazado_621339" data-name="Trazado 621339" d="M369.11,378.4h-38.2A2.11,2.11,0,0,1,328.8,376.3h0a2.109,2.109,0,0,1,2.109-2.108h38.2a2.109,2.109,0,0,1,2.109,2.108h0A2.11,2.11,0,0,1,369.11,378.4Z" transform="translate(-297.068 -353.621)" fill="#263238"/>
            <path id="Trazado_621340" data-name="Trazado 621340" d="M372.374,396.9h-38.2a2.108,2.108,0,0,1-2.108-2.108h0a2.109,2.109,0,0,1,2.108-2.109h38.2a2.109,2.109,0,0,1,2.108,2.109h0A2.108,2.108,0,0,1,372.374,396.9Z" transform="translate(-296.09 -348.079)" fill="#263238"/>
            <path id="Trazado_621341" data-name="Trazado 621341" d="M369.11,378.4h-38.2A2.11,2.11,0,0,1,328.8,376.3h0a2.109,2.109,0,0,1,2.109-2.108h38.2a2.109,2.109,0,0,1,2.109,2.108h0A2.11,2.11,0,0,1,369.11,378.4Z" transform="translate(-297.068 -353.621)" fill="#fff" opacity="0.2"/>
            <path id="Trazado_621342" data-name="Trazado 621342" d="M372.374,396.9h-38.2a2.108,2.108,0,0,1-2.108-2.108h0a2.109,2.109,0,0,1,2.108-2.109h38.2a2.109,2.109,0,0,1,2.108,2.109h0A2.108,2.108,0,0,1,372.374,396.9Z" transform="translate(-296.09 -348.079)" fill="#fff" opacity="0.2"/>
            <g id="Grupo_878519" data-name="Grupo 878519" transform="translate(27.293 3.425)">
              <path id="Trazado_621343" data-name="Trazado 621343" d="M347.921,432.793h-9.54l-13-71.8h9.54Z" transform="translate(-325.385 -360.998)" fill="#263238"/>
              <path id="Trazado_621344" data-name="Trazado 621344" d="M347.921,432.793h-9.54l-13-71.8h9.54Z" transform="translate(-325.385 -360.998)" fill="#fff" opacity="0.4"/>
              <path id="Trazado_621345" data-name="Trazado 621345" d="M345.322,432.793h-6.941l-13-71.8h6.941Z" transform="translate(-325.385 -360.998)" fill="#fff" opacity="0.2"/>
            </g>
            <g id="Grupo_878520" data-name="Grupo 878520" transform="translate(8.998)">
              <rect id="Rectángulo_327428" data-name="Rectángulo 327428" width="72.095" height="6.85" rx="1.187" fill="#263238"/>
              <rect id="Rectángulo_327429" data-name="Rectángulo 327429" width="29.32" height="6.85" rx="1.187" fill="#fff" opacity="0.2"/>
            </g>
          </g>
        </g>
        <g id="interface" transform="translate(158.935 441.439)">
          <g id="Grupo_878524" data-name="Grupo 878524" transform="translate(0 0)">
            <g id="Grupo_878522" data-name="Grupo 878522">
              <rect id="Rectángulo_327430" data-name="Rectángulo 327430" width="87.269" height="56.76" fill="#407bff"/>
              <rect id="Rectángulo_327431" data-name="Rectángulo 327431" width="87.269" height="56.76" fill="#fff" opacity="0.6" style="isolation: isolate"/>
            </g>
            <rect id="Rectángulo_327432" data-name="Rectángulo 327432" width="80.883" height="43.28" transform="translate(3.193 10.643)" fill="#407bff"/>
            <g id="Grupo_878523" data-name="Grupo 878523" transform="translate(9.784 17.109)">
              <rect id="Rectángulo_327433" data-name="Rectángulo 327433" width="59.831" height="1.862" fill="#fff"/>
              <rect id="Rectángulo_327434" data-name="Rectángulo 327434" width="28.707" height="1.862" transform="translate(0 5.702)" fill="#fff"/>
              <rect id="Rectángulo_327435" data-name="Rectángulo 327435" width="36.157" height="1.862" transform="translate(0 11.404)" fill="#fff"/>
              <rect id="Rectángulo_327436" data-name="Rectángulo 327436" width="12.743" height="1.862" transform="translate(0 17.106)" fill="#fff"/>
              <rect id="Rectángulo_327437" data-name="Rectángulo 327437" width="8.252" height="1.862" transform="translate(0 22.808)" fill="#fff"/>
            </g>
          </g>
        </g>
        <g id="Monitor" transform="translate(142.475 171.807)">
          <g id="Grupo_878542" data-name="Grupo 878542">
            <g id="Grupo_878525" data-name="Grupo 878525" transform="translate(140.529 232.88)">
              <path id="Trazado_621346" data-name="Trazado 621346" d="M293.714,438.013H222.667L234.7,343.57h46.986Z" transform="translate(-222.667 -343.57)" fill="#407bff"/>
              <path id="Trazado_621347" data-name="Trazado 621347" d="M293.709,438.015H222.668L230.9,373.4l3.8-29.831h46.979l5.608,44.008Z" transform="translate(-222.666 -343.57)" fill="#fff" opacity="0.6"/>
              <path id="Trazado_621348" data-name="Trazado 621348" d="M285.388,387.578,229,373.4l3.8-29.831H279.78Z" transform="translate(-220.768 -343.57)" opacity="0.1" style="isolation: isolate"/>
            </g>
            <g id="Grupo_878526" data-name="Grupo 878526">
              <path id="Trazado_621349" data-name="Trazado 621349" d="M458.072,164.382H123.109a8.572,8.572,0,0,0-8.571,8.571V399.718a8.572,8.572,0,0,0,8.571,8.571H458.072a8.572,8.572,0,0,0,8.571-8.571V172.953A8.572,8.572,0,0,0,458.072,164.382Z" transform="translate(-114.538 -164.382)" fill="#407bff"/>
              <path id="Trazado_621350" data-name="Trazado 621350" d="M458.072,164.382H123.109a8.572,8.572,0,0,0-8.571,8.571V399.718a8.572,8.572,0,0,0,8.571,8.571H458.072a8.572,8.572,0,0,0,8.571-8.571V172.953A8.572,8.572,0,0,0,458.072,164.382Z" transform="translate(-114.538 -164.382)" fill="#fff" opacity="0.7"/>
            </g>
            <rect id="Rectángulo_327438" data-name="Rectángulo 327438" width="329.551" height="218.665" transform="translate(11.279 8.394)" fill="#407bff"/>
            <g id="Grupo_878527" data-name="Grupo 878527" transform="translate(115.041 320.227)">
              <rect id="Rectángulo_327439" data-name="Rectángulo 327439" width="122.024" height="6.982" rx="1.037" fill="#407bff"/>
              <rect id="Rectángulo_327440" data-name="Rectángulo 327440" width="122.024" height="6.982" rx="1.037" fill="#fff" opacity="0.7"/>
            </g>
            <g id="Grupo_878537" data-name="Grupo 878537" transform="translate(11.279 8.602)">
              <rect id="Rectángulo_327441" data-name="Rectángulo 327441" width="329.551" height="32.592" opacity="0.2" style="isolation: isolate"/>
              <rect id="Rectángulo_327442" data-name="Rectángulo 327442" width="141.223" height="185.478" transform="translate(0 32.979)" fill="#fff" opacity="0.4"/>
              <g id="Grupo_878531" data-name="Grupo 878531" transform="translate(153.536 10.23)">
                <rect id="Rectángulo_327443" data-name="Rectángulo 327443" width="123.237" height="71.251" transform="translate(2.06 2.06)" fill="none" stroke="#fff" stroke-miterlimit="10" stroke-width="1" stroke-dasharray="5"/>
                <g id="Grupo_878528" data-name="Grupo 878528">
                  <rect id="Rectángulo_327444" data-name="Rectángulo 327444" width="4.12" height="4.12" transform="translate(123.237)" fill="#407bff" stroke="#fff" stroke-miterlimit="10" stroke-width="1"/>
                  <rect id="Rectángulo_327445" data-name="Rectángulo 327445" width="4.12" height="4.12" transform="translate(123.237 71.251)" fill="#407bff" stroke="#fff" stroke-miterlimit="10" stroke-width="1"/>
                  <rect id="Rectángulo_327446" data-name="Rectángulo 327446" width="4.12" height="4.12" fill="#407bff" stroke="#fff" stroke-miterlimit="10" stroke-width="1"/>
                  <rect id="Rectángulo_327447" data-name="Rectángulo 327447" width="4.12" height="4.12" transform="translate(0 71.251)" fill="#407bff" stroke="#fff" stroke-miterlimit="10" stroke-width="1"/>
                </g>
                <g id="Grupo_878529" data-name="Grupo 878529" transform="translate(61.619)">
                  <rect id="Rectángulo_327448" data-name="Rectángulo 327448" width="4.12" height="4.12" fill="#407bff" stroke="#fff" stroke-miterlimit="10" stroke-width="1"/>
                  <rect id="Rectángulo_327449" data-name="Rectángulo 327449" width="4.12" height="4.12" transform="translate(0 71.251)" fill="#407bff" stroke="#fff" stroke-miterlimit="10" stroke-width="1"/>
                </g>
                <g id="Grupo_878530" data-name="Grupo 878530" transform="translate(0 35.625)">
                  <rect id="Rectángulo_327450" data-name="Rectángulo 327450" width="4.12" height="4.12" transform="translate(123.237)" fill="#407bff" stroke="#fff" stroke-miterlimit="10" stroke-width="1"/>
                  <rect id="Rectángulo_327451" data-name="Rectángulo 327451" width="4.12" height="4.12" fill="#407bff" stroke="#fff" stroke-miterlimit="10" stroke-width="1"/>
                </g>
              </g>
              <path id="Rectángulo_327452" data-name="Rectángulo 327452" d="M1.893,0H33.183a1.894,1.894,0,0,1,1.894,1.894v9.191a1.894,1.894,0,0,1-1.894,1.894H1.893A1.893,1.893,0,0,1,0,11.084V1.893A1.893,1.893,0,0,1,1.893,0Z" transform="translate(235.026 36.223)" fill="#fff" opacity="0.7"/>
              <path id="Rectángulo_327453" data-name="Rectángulo 327453" d="M1.893,0H33.183a1.894,1.894,0,0,1,1.894,1.894v9.191a1.893,1.893,0,0,1-1.893,1.893H1.894A1.894,1.894,0,0,1,0,11.084V1.893A1.893,1.893,0,0,1,1.893,0Z" transform="translate(183.04 36.223)" fill="#fff" opacity="0.7"/>
              <path id="Rectángulo_327454" data-name="Rectángulo 327454" d="M1.894,0H33.183a1.894,1.894,0,0,1,1.894,1.894v9.191a1.893,1.893,0,0,1-1.893,1.893H1.894A1.894,1.894,0,0,1,0,11.085V1.894A1.894,1.894,0,0,1,1.894,0Z" transform="translate(116.111 194.245)" fill="#fff" opacity="0.7"/>
              <g id="Grupo_878532" data-name="Grupo 878532" transform="translate(307.806 11.589)">
                <line id="Línea_2575" data-name="Línea 2575" x2="10.968" fill="none" stroke="#fff" stroke-linecap="round" stroke-linejoin="round" stroke-width="1.5"/>
                <line id="Línea_2576" data-name="Línea 2576" x2="10.968" transform="translate(0 5.199)" fill="none" stroke="#fff" stroke-linecap="round" stroke-linejoin="round" stroke-width="1.5"/>
                <line id="Línea_2577" data-name="Línea 2577" x2="10.968" transform="translate(0 10.397)" fill="none" stroke="#fff" stroke-linecap="round" stroke-linejoin="round" stroke-width="1.5"/>
              </g>
              <rect id="Rectángulo_327455" data-name="Rectángulo 327455" width="110.539" height="110.539" transform="translate(22.341 61.729)" fill="#fff" opacity="0.5"/>
              <g id="Grupo_878533" data-name="Grupo 878533" transform="translate(66.554 68.71)">
                <line id="Línea_2578" data-name="Línea 2578" y2="95.342" transform="translate(2.06 2.06)" fill="none" stroke="#407bff" stroke-miterlimit="10" stroke-width="1"/>
                <path id="Trazado_621351" data-name="Trazado 621351" d="M223.682,320.8h0a47.671,47.671,0,0,1-47.671-47.671h0a47.671,47.671,0,0,1,47.671-47.671h0" transform="translate(-173.951 -223.394)" fill="none" stroke="#407bff" stroke-miterlimit="10" stroke-width="1"/>
                <rect id="Rectángulo_327456" data-name="Rectángulo 327456" width="4.12" height="4.12" transform="translate(47.671)" fill="#fff" stroke="#407bff" stroke-miterlimit="10" stroke-width="1"/>
                <rect id="Rectángulo_327457" data-name="Rectángulo 327457" width="4.12" height="4.12" transform="translate(47.671 95.342)" fill="#fff" stroke="#407bff" stroke-miterlimit="10" stroke-width="1"/>
                <rect id="Rectángulo_327458" data-name="Rectángulo 327458" width="4.12" height="4.12" transform="translate(0 47.671)" fill="#fff" stroke="#407bff" stroke-miterlimit="10" stroke-width="1"/>
                <path id="Trazado_621352" data-name="Trazado 621352" d="M177.326,225.7a1.068,1.068,0,1,1-1.068-1.068A1.068,1.068,0,0,1,177.326,225.7Z" transform="translate(-174.197 -223.641)" fill="#fff" stroke="#407bff" stroke-miterlimit="10" stroke-width="1"/>
                <path id="Trazado_621353" data-name="Trazado 621353" d="M177.326,299.061a1.068,1.068,0,1,1-1.068-1.067A1.068,1.068,0,0,1,177.326,299.061Z" transform="translate(-174.197 -201.658)" fill="#fff" stroke="#407bff" stroke-miterlimit="10" stroke-width="1"/>
              </g>
              <path id="Trazado_621354" data-name="Trazado 621354" d="M326.872,326.128H293.411a9.669,9.669,0,0,1-9.669-9.669h0a9.669,9.669,0,0,1,9.669-9.669h33.461a9.669,9.669,0,0,1,9.669,9.669h0A9.669,9.669,0,0,1,326.872,326.128Z" transform="translate(-75.116 -130.313)" fill="#fff" opacity="0.7"/>
              <path id="Trazado_621355" data-name="Trazado 621355" d="M363.872,259.192H260.5a2.113,2.113,0,0,1-2.113-2.113h0a2.113,2.113,0,0,1,2.113-2.113H363.872a2.113,2.113,0,0,1,2.113,2.113h0A2.113,2.113,0,0,1,363.872,259.192Z" transform="translate(-82.714 -145.841)" fill="#fff" opacity="0.7"/>
              <path id="Trazado_621356" data-name="Trazado 621356" d="M363.872,271.07H260.5a2.113,2.113,0,0,1-2.113-2.113h0a2.114,2.114,0,0,1,2.113-2.115H363.872a2.114,2.114,0,0,1,2.113,2.115h0A2.113,2.113,0,0,1,363.872,271.07Z" transform="translate(-82.714 -142.283)" fill="#fff" opacity="0.7"/>
              <path id="Trazado_621357" data-name="Trazado 621357" d="M354.883,282.945H290.5a2.113,2.113,0,0,1-2.113-2.113h0a2.113,2.113,0,0,1,2.113-2.113h64.384A2.113,2.113,0,0,1,357,280.832h0A2.113,2.113,0,0,1,354.883,282.945Z" transform="translate(-73.725 -138.724)" fill="#fff" opacity="0.7"/>
              <g id="Grupo_878534" data-name="Grupo 878534" transform="translate(10.408 9.035)">
                <rect id="Rectángulo_327459" data-name="Rectángulo 327459" width="7.302" height="7.302" opacity="0.4" style="isolation: isolate"/>
                <path id="Rectángulo_327460" data-name="Rectángulo 327460" d="M1.439,0H5.863A1.44,1.44,0,0,1,7.3,1.44V5.863A1.439,1.439,0,0,1,5.863,7.3H1.44A1.44,1.44,0,0,1,0,5.863V1.439A1.439,1.439,0,0,1,1.439,0Z" transform="translate(14.199)" opacity="0.4" style="isolation: isolate"/>
                <path id="Rectángulo_327461" data-name="Rectángulo 327461" d="M2.572,0h2.16A2.571,2.571,0,0,1,7.3,2.571v2.16A2.571,2.571,0,0,1,4.731,7.3H2.572A2.572,2.572,0,0,1,0,4.731V2.572A2.572,2.572,0,0,1,2.572,0Z" transform="translate(28.399)" opacity="0.4" style="isolation: isolate"/>
              </g>
              <g id="Grupo_878536" data-name="Grupo 878536" transform="translate(14.889 178.721)">
                <g id="Grupo_878535" data-name="Grupo 878535">
                  <path id="Trazado_621358" data-name="Trazado 621358" d="M152.585,318.895v-2.846l-1.466-.138a7.592,7.592,0,0,0-1.093-2.629l.942-1.137-2.013-2.012-1.137.941a7.587,7.587,0,0,0-2.628-1.093l-.138-1.465h-2.846l-.138,1.465a7.583,7.583,0,0,0-2.629,1.093l-1.137-.941-2.012,2.012.941,1.137a7.592,7.592,0,0,0-1.093,2.629l-1.465.138v2.846l1.465.138a7.586,7.586,0,0,0,1.093,2.628l-.941,1.137,2.012,2.013,1.137-.942a7.583,7.583,0,0,0,2.629,1.093l.138,1.466h2.846l.138-1.466a7.587,7.587,0,0,0,2.628-1.093l1.137.942,2.013-2.013-.942-1.137a7.586,7.586,0,0,0,1.093-2.628Zm-8.956,2.429a3.853,3.853,0,1,1,3.852-3.852A3.852,3.852,0,0,1,143.629,321.324Z" transform="translate(-134.673 -308.516)" fill="#fff" opacity="0.9"/>
                  <path id="Trazado_621359" data-name="Trazado 621359" d="M160.566,324.558v-2.23l-1.149-.109a5.939,5.939,0,0,0-.856-2.059l.738-.892-1.576-1.576-.892.737a5.969,5.969,0,0,0-2.06-.856l-.108-1.148h-2.23l-.108,1.148a5.97,5.97,0,0,0-2.06.856l-.892-.737-1.576,1.576.738.892a5.939,5.939,0,0,0-.856,2.059l-1.149.109v2.23l1.149.108a5.945,5.945,0,0,0,.856,2.06l-.738.89,1.576,1.578.892-.738a5.946,5.946,0,0,0,2.06.857l.108,1.149h2.23l.108-1.149a5.946,5.946,0,0,0,2.06-.857l.892.738,1.576-1.578-.738-.89a5.945,5.945,0,0,0,.856-2.06Zm-7.018,1.9a3.019,3.019,0,1,1,3.019-3.019A3.019,3.019,0,0,1,153.548,326.462Z" transform="translate(-131.12 -306.146)" fill="#fff" opacity="0.6"/>
                  <path id="Trazado_621360" data-name="Trazado 621360" d="M151.173,329.129v-1.873l-.964-.091a5,5,0,0,0-.72-1.73l.62-.749-1.324-1.324-.749.62a5,5,0,0,0-1.73-.72l-.091-.964h-1.873l-.091.964a5,5,0,0,0-1.731.72l-.747-.62-1.326,1.324.62.749a4.993,4.993,0,0,0-.719,1.73l-.966.091v1.873l.964.091a4.993,4.993,0,0,0,.719,1.73l-.62.749,1.326,1.324.747-.619a5.025,5.025,0,0,0,1.731.719l.091.964h1.873l.091-.964a5.019,5.019,0,0,0,1.73-.719l.749.619,1.324-1.324-.62-.749a5,5,0,0,0,.72-1.73Zm-5.9,1.6a2.536,2.536,0,1,1,2.536-2.536A2.536,2.536,0,0,1,145.278,330.729Z" transform="translate(-133.262 -304.386)" fill="#fff" opacity="0.4"/>
                </g>
              </g>
            </g>
            <g id="Grupo_878539" data-name="Grupo 878539" transform="translate(289.351 20.157)">
              <g id="Grupo_878538" data-name="Grupo 878538" transform="translate(0 0)">
                <path id="Trazado_621361" data-name="Trazado 621361" d="M337.177,179.892l5.514,14.736,9.222-9.222Z" transform="translate(-337.177 -179.892)" fill="#407bff"/>
                <rect id="Rectángulo_327462" data-name="Rectángulo 327462" width="2.905" height="6.457" transform="translate(6.815 8.869) rotate(-45)" fill="#407bff"/>
              </g>
              <path id="Trazado_621362" data-name="Trazado 621362" d="M351.913,185.406l-14.736-5.514,5.514,14.736,3.584-3.584,2.283,2.283,2.055-2.054-2.283-2.283Z" transform="translate(-337.177 -179.892)" fill="#fff" opacity="0.4"/>
            </g>
            <g id="Grupo_878540" data-name="Grupo 878540" transform="translate(62.074 62.094)">
              <path id="Trazado_621363" data-name="Trazado 621363" d="M163.81,222.891l13.863,5.188-7.268-7.269a1.416,1.416,0,0,1-1.7-.218,1.435,1.435,0,1,1,2.03-2.029,1.416,1.416,0,0,1,.217,1.7l7.269,7.27-5.188-13.866-4.592,1.019-.179-1.658-.869-.869-5.091,5.089.869.869,1.658.179Z" transform="translate(-162.3 -212.16)" fill="#263238"/>
              <path id="Trazado_621364" data-name="Trazado 621364" d="M163.81,222.891l13.863,5.188-7.268-7.269a1.416,1.416,0,0,1-1.7-.218,1.435,1.435,0,1,1,2.03-2.029,1.416,1.416,0,0,1,.217,1.7l7.269,7.27-5.188-13.866-4.592,1.019-.179-1.658-.869-.869-5.091,5.089.869.869,1.658.179Z" transform="translate(-162.3 -212.16)" fill="#fff" opacity="0.2"/>
            </g>
            <g id="Grupo_878541" data-name="Grupo 878541" transform="translate(10.634 8.394)" opacity="0.1">
              <path id="Trazado_621365" data-name="Trazado 621365" d="M171.561,170.841l-48.841,182.5v-182.5Z" transform="translate(-122.72 -170.841)" fill="#fff"/>
              <path id="Trazado_621366" data-name="Trazado 621366" d="M225.5,170.841,166.975,389.506H126.66l58.51-218.665Z" transform="translate(-121.54 -170.841)" fill="#fff"/>
              <path id="Trazado_621367" data-name="Trazado 621367" d="M265.507,170.841,206.984,389.506H188.75l58.523-218.665Z" transform="translate(-102.935 -170.841)" fill="#fff"/>
              <path id="Trazado_621368" data-name="Trazado 621368" d="M304.338,170.841,245.815,389.506H239.29l58.523-218.665Z" transform="translate(-87.791 -170.841)" fill="#fff"/>
            </g>
          </g>
        </g>
        <g id="Character_2" data-name="Character 2" transform="translate(446.009 167.477)">
          <g id="Grupo_878551" data-name="Grupo 878551">
            <g id="Grupo_878544" data-name="Grupo 878544" transform="translate(101.814 60.963)">
              <path id="Trazado_621369" data-name="Trazado 621369" d="M446.54,207.958c4.61,5.325,28.081,50.538,23.544,61.094s-42.145-1.613-42.145-1.613l2.247-14.9s14.615.513,16.013-.872-19.77-22.527-19.77-22.527Z" transform="translate(-426.429 -207.958)" fill="#263238"/>
              <g id="Grupo_878543" data-name="Grupo 878543" transform="translate(0.001 0.003)" opacity="0.2" style="isolation: isolate">
                <path id="Trazado_621370" data-name="Trazado 621370" d="M470.085,269.056a5.7,5.7,0,0,1-2.742,2.781c-.013,0-.026.013-.039.026-.234.117-.494.234-.754.338a.922.922,0,0,1-.1.039,5.784,5.784,0,0,1-.715.247,15.769,15.769,0,0,1-3.249.676c-.312.039-.624.065-.949.091-.468.039-.936.065-1.417.078-.4.013-.819.026-1.235.026-12.607.013-30.945-5.913-30.945-5.913l2.248-14.907s14.608.52,16.012-.871c.338-.338-.663-1.846-2.365-3.938l-.026-.026c-4.133-5.082-12.412-13.542-15.83-17-.962-.975-1.547-1.56-1.547-1.56l20.106-21.184C451.149,213.276,474.621,258.49,470.085,269.056Z" transform="translate(-426.43 -207.96)" fill="#fff"/>
              </g>
            </g>
            <path id="Trazado_621371" data-name="Trazado 621371" d="M467,269.117c-.013,0-.026.013-.039.026-.234.117-.494.234-.754.338a.91.91,0,0,1-.1.039,5.779,5.779,0,0,1-.715.247,15.765,15.765,0,0,1-3.249.676c-.312.039-.624.065-.949.091-.468.039-.936.065-1.417.078-.4.013-.819.026-1.235.026-12.607.013-30.945-5.913-30.945-5.913l2.248-14.907s16.454,1.391,17.857,0a.173.173,0,0,0,.039-.065c.26-.546-1.56-2.391-4.25-4.744l-.026-.026c-4.133-5.082-12.412-13.542-15.83-17l9.513-10.163,7.239-.78S460.367,242.916,467,269.117Z" transform="translate(-324.268 -144.273)" opacity="0.2" style="isolation: isolate"/>
            <g id="Grupo_878545" data-name="Grupo 878545" transform="translate(71.287 57.767)">
              <path id="Trazado_621372" data-name="Trazado 621372" d="M406.156,207.212c-2.606,1.89-3.887,4.567-2.863,5.98l68.677,94.684c1.024,1.413,3.966,1.025,6.571-.863s3.887-4.567,2.862-5.98l-68.676-94.684C411.7,204.936,408.761,205.324,406.156,207.212Z" transform="translate(-402.941 -205.499)" fill="#263238"/>
              <path id="Trazado_621373" data-name="Trazado 621373" d="M412.723,206.35,481.4,301.034c1.023,1.41-.261,4.09-2.859,5.974s-5.544,2.272-6.567.862L403.3,213.186c-.565-.779-.426-1.938.251-3.152a7.611,7.611,0,0,1,1.3-1.7,10.191,10.191,0,0,1,1.3-1.123C408.754,205.327,411.7,204.94,412.723,206.35Z" transform="translate(-402.939 -205.498)" fill="#fff" opacity="0.7"/>
              <path id="Trazado_621374" data-name="Trazado 621374" d="M481.26,300.381c1.023,1.41-.261,4.09-2.859,5.974s-5.544,2.272-6.567.862c-.565-.779.853-1.953,1.675-3.662l-70.1-94.174a7.611,7.611,0,0,1,1.3-1.7L473.4,302.376a10.274,10.274,0,0,1,1.3-1.133C477.291,299.358,480.237,298.971,481.26,300.381Z" transform="translate(-402.8 -204.845)" opacity="0.3" style="isolation: isolate"/>
            </g>
            <g id="Grupo_878546" data-name="Grupo 878546" transform="translate(63.701 54.242)">
              <path id="Trazado_621375" data-name="Trazado 621375" d="M399.4,205.4c-2.2,2.35-2.949,5.221-1.675,6.412l85.387,79.941c1.274,1.193,4.09.256,6.289-2.094s2.95-5.221,1.675-6.414L405.688,203.3C404.415,202.111,401.6,203.048,399.4,205.4Z" transform="translate(-397.104 -202.786)" fill="#407bff"/>
              <path id="Trazado_621376" data-name="Trazado 621376" d="M405.684,203.3l85.387,79.941c1.272,1.19.52,4.067-1.674,6.41s-5.013,3.282-6.284,2.091L397.725,211.8c-.7-.656-.786-1.822-.351-3.141a7.626,7.626,0,0,1,.957-1.917,10.469,10.469,0,0,1,1.068-1.35C401.593,203.053,404.413,202.115,405.684,203.3Z" transform="translate(-397.102 -202.786)" fill="#fff" opacity="0.7"/>
              <path id="Trazado_621377" data-name="Trazado 621377" d="M491.01,282.332c1.272,1.19.52,4.067-1.674,6.41s-5.013,3.282-6.284,2.091c-.7-.656.467-2.079.95-3.913l-86.689-79.169a7.626,7.626,0,0,1,.957-1.917l85.4,79.95a10.313,10.313,0,0,1,1.059-1.359C486.92,282.082,489.739,281.143,491.01,282.332Z" transform="translate(-397.041 -201.873)" opacity="0.3" style="isolation: isolate"/>
            </g>
            <path id="Trazado_621378" data-name="Trazado 621378" d="M420.293,433.737l-6.511.1c-6.615-31.074-11.294-69.531-14.205-98.539-.455-4.549-.871-8.851-1.235-12.866-.169-1.91-.338-3.743-.494-5.51-.78-8.721-1.313-15.635-1.638-19.911-.234-3.119-.351-4.835-.351-4.835h23.524l-.221,5.991-.728,19.781-.078,2.261-.494,13.061-.819,22.237C425.115,386.82,420.293,433.737,420.293,433.737Z" transform="translate(-333.775 -121.758)" fill="#ebb376"/>
            <path id="Trazado_621379" data-name="Trazado 621379" d="M466.365,431.948l-6.407,1.209c-12.828-32.062-24.875-73.118-32.712-101.8-1.209-4.445-2.326-8.6-3.327-12.373-.052-.195-.091-.377-.143-.559-1.975-7.486-3.5-13.451-4.445-17.233-.728-2.963-1.131-4.588-1.131-4.588l23.186-4,1.313,9.747,1.936,14.322.377,2.807,1.313,9.76,3.522,26.175C463.129,384.888,466.365,431.948,466.365,431.948Z" transform="translate(-327.081 -121.632)" fill="#ebb376"/>
            <path id="Trazado_621380" data-name="Trazado 621380" d="M444.374,314.689,423.658,317c-.052-.195-.091-.377-.143-.559-1.975-7.486-3.5-13.451-4.445-17.233l23.368,1.157Z" transform="translate(-326.821 -119.651)" opacity="0.2" style="isolation: isolate"/>
            <path id="Trazado_621381" data-name="Trazado 621381" d="M419.082,297.057l-.728,19.781-.078,2.261-20.015,2.222c-.169-1.91-.338-3.743-.494-5.51-.78-8.721-1.313-15.635-1.638-19.911Z" transform="translate(-333.694 -120.643)" opacity="0.2" style="isolation: isolate"/>
            <path id="Trazado_621382" data-name="Trazado 621382" d="M400,422.677a12.778,12.778,0,0,1,4.074-2.216h0s4.432-4.4,6.565-17.632l5.8-1.513a4.942,4.942,0,0,1,5.278,2.061,2.791,2.791,0,0,1,.369.762,33.8,33.8,0,0,1,.62,4.3c.584,4.479.083,14.534.083,14.534h-1.049l-.416-9.126c-.156-3.1-2.526.537-3.2,3.872s-2.121,6.887-8.912,7.053C401.288,424.928,398,424.619,400,422.677Z" transform="translate(-332.706 -89.098)" fill="#263238"/>
            <path id="Trazado_621383" data-name="Trazado 621383" d="M419.593,404.908c.381-3.1.5-8.483.5-8.483l-12.89,1.43s1.56,6.124.273,10.722C413.969,406.874,419.593,404.908,419.593,404.908Z" transform="translate(-330.376 -90.521)" fill="#263238"/>
            <path id="Trazado_621384" data-name="Trazado 621384" d="M440.36,422.677a12.764,12.764,0,0,1,4.074-2.216h0s4.432-4.4,6.565-17.632l5.8-1.513a4.943,4.943,0,0,1,5.278,2.061,2.83,2.83,0,0,1,.369.762,33.8,33.8,0,0,1,.62,4.3c.583,4.479.083,14.534.083,14.534H462.1l-.417-9.126c-.155-3.1-2.525.537-3.2,3.872s-2.121,6.887-8.912,7.053C441.647,424.928,438.359,424.619,440.36,422.677Z" transform="translate(-320.613 -89.098)" fill="#263238"/>
            <path id="Trazado_621385" data-name="Trazado 621385" d="M459.952,404.908c.381-3.1.5-8.483.5-8.483l-12.891,1.43s1.561,6.124.274,10.722C454.328,406.874,459.952,404.908,459.952,404.908Z" transform="translate(-318.283 -90.521)" fill="#263238"/>
            <path id="Trazado_621386" data-name="Trazado 621386" d="M454.508,325.058l-24.524,3.132-.949.117-5.043-18.481-1.326,19.807-26.279-1.378c-11.71-68.712,8.3-84.945,8.3-84.945l35.649,7.174c16.145,27.442,12.3,59.343,12.3,59.343Z" transform="translate(-334.719 -136.401)" fill="#407bff"/>
            <g id="Grupo_878547" data-name="Grupo 878547" transform="translate(80.683)">
              <path id="Trazado_621387" data-name="Trazado 621387" d="M415.517,178.566c0,2.7-1.2,4.884-2.673,4.884s-2.673-2.187-2.673-4.884,1.2-4.885,2.673-4.885S415.517,175.868,415.517,178.566Z" transform="translate(-410.17 -157.265)" fill="none" stroke="#263238" stroke-linecap="round" stroke-linejoin="round" stroke-width="0.5"/>
              <path id="Trazado_621388" data-name="Trazado 621388" d="M432.5,197.646a1.834,1.834,0,0,1-.309.227,14.21,14.21,0,0,1-4.98,2.436c-5.266,1.215-8.864.5-11.211-1.888h-.012c-3.288-3.574-4.111-9.906-3.646-17.543a28.688,28.688,0,0,1,1.667-8.919c.013-.025.013-.112.025-.135.047-.1.083-.229.13-.325a10.427,10.427,0,0,1,7.661-6.362,21.132,21.132,0,0,1,4.515-.508C441.236,164.474,443.918,189.141,432.5,197.646Z" transform="translate(-409.554 -159.978)" fill="#ebb376"/>
              <path id="Trazado_621389" data-name="Trazado 621389" d="M431.324,190.477a13.858,13.858,0,0,1-4.98,2.228c-5.266,1.215-8.864.321-11.211-2.1a14.859,14.859,0,0,0,9.447-.775C426.713,188.856,429.083,189.356,431.324,190.477Z" transform="translate(-408.683 -152.582)" opacity="0.2" style="isolation: isolate"/>
              <path id="Trazado_621390" data-name="Trazado 621390" d="M432.265,204.617c.918,4.241-4.575,5.968-4.575,5.968-8.983-3.835-10.651-8.613-10.651-8.613,7.494-3.908,5.325-14.964,5.325-14.964l1.526.751,10.7,2.094s-2.97,5.7-3.364,7c0,.012-.012.025-.012.036C429.2,203.676,432.265,204.617,432.265,204.617Z" transform="translate(-408.111 -153.272)" fill="#ebb376"/>
              <path id="Trazado_621391" data-name="Trazado 621391" d="M413.6,172.751s-.821,10.444,9.075,14.929c0,0,4.25,10.848,10.505,11,8.53.208,16.047-11.928,13.091-24.288C442.442,158.364,418.158,157.06,413.6,172.751Z" transform="translate(-409.147 -160.87)" fill="#263238"/>
              <path id="Trazado_621392" data-name="Trazado 621392" d="M416.725,180.3c0-1.63,1.313-4.366,3.844-4,2.621.385,4.074,6.845-2.367,8.289C417.279,184.8,416.717,183.7,416.725,180.3Z" transform="translate(-408.206 -156.489)" fill="#ebb376"/>
              <path id="Trazado_621393" data-name="Trazado 621393" d="M432.537,161.832s-9.963-2.52-15.47,1.487c-6.432,4.677-8.87,9.517-1.255,17.029,0,0,16.728-5.422,22.289-4.275a60.192,60.192,0,0,1,9.537,2.77C448.809,167.8,438.1,159.574,432.537,161.832Z" transform="translate(-409.896 -161.05)" fill="#263238"/>
              <path id="Trazado_621394" data-name="Trazado 621394" d="M417.067,182.26s2.662,12.044-1.484,22.3c0,0,23.651,8.206,31.878,3.749s.685-19.421.342-28.048-4.093-21.378-16.613-18.516S417.067,182.26,417.067,182.26Z" transform="translate(-408.548 -160.964)" fill="#263238"/>
              <line id="Línea_2579" data-name="Línea 2579" x2="9.992" transform="translate(0 20.529)" fill="none" stroke="#263238" stroke-linecap="round" stroke-linejoin="round" stroke-width="0.5"/>
            </g>
            <path id="Trazado_621395" data-name="Trazado 621395" d="M422.771,319.329l-.949.117-5.043-18.481s10.813-18.468,7.434-28.085C424.695,273.556,436.34,290.828,422.771,319.329Z" transform="translate(-327.507 -127.541)" opacity="0.2" style="isolation: isolate"/>
            <g id="Grupo_878548" data-name="Grupo 878548" transform="translate(62.692 48.775)">
              <path id="Trazado_621396" data-name="Trazado 621396" d="M408.651,200.216s11.892-4.242,29.82.933,18.586,12.811,18.586,12.811S445.7,239.7,443.912,268.851L397.2,267.1S391.629,225.97,408.651,200.216Z" transform="translate(-396.327 -198.58)" fill="#263238"/>
              <path id="Trazado_621397" data-name="Trazado 621397" d="M457.061,213.954s-11.359,25.746-13.152,54.9L397.2,267.109a125.335,125.335,0,0,1-.858-14.244,139.345,139.345,0,0,1,1.3-20.911c1.56-10.787,4.77-22.3,11.008-31.737,0,0,11.892-4.237,29.814.936S457.061,213.954,457.061,213.954Z" transform="translate(-396.326 -198.579)" fill="#fff" opacity="0.2" style="isolation: isolate"/>
            </g>
            <path id="Trazado_621398" data-name="Trazado 621398" d="M408,226.015s-1.936,11.853-11.658,19.157a139.345,139.345,0,0,1,1.3-20.911Z" transform="translate(-333.634 -142.11)" opacity="0.2" style="isolation: isolate"/>
            <path id="Trazado_621399" data-name="Trazado 621399" d="M370.852,203.6l-5.889-8.736s-.906-3.794-2.038-4.661-12.458-5.668-13.817-5.646-1.359,8.812,0,10.306,8.493,4.7,10.362,5.021.963,0,.963,0l5.209,10.385Z" transform="translate(-348.09 -154.005)" fill="#ebb376"/>
            <g id="Grupo_878549" data-name="Grupo 878549" transform="translate(12.571 43.273)">
              <path id="Trazado_621400" data-name="Trazado 621400" d="M420.207,201.485a256.729,256.729,0,0,0-36.42,18.79l-19-25.929s-5.132,1.592-7.022,10.505c0,0,9.764,37.189,22.446,40.874s39.349-10.742,39.349-10.742S427.3,215.6,420.207,201.485Z" transform="translate(-357.762 -194.346)" fill="#263238"/>
              <path id="Trazado_621401" data-name="Trazado 621401" d="M420.207,201.485a256.729,256.729,0,0,0-36.42,18.79l-19-25.929s-5.132,1.592-7.022,10.505c0,0,9.764,37.189,22.446,40.874s39.349-10.742,39.349-10.742S427.3,215.6,420.207,201.485Z" transform="translate(-357.762 -194.346)" fill="#fff" opacity="0.2" style="isolation: isolate"/>
            </g>
            <g id="Grupo_878550" data-name="Grupo 878550" transform="translate(87.038 48.774)">
              <path id="Trazado_621402" data-name="Trazado 621402" d="M415.06,198.584s4.147,29.677,17.289,30.877,19.023-20.725,16.8-23.388S429.992,198.385,415.06,198.584Z" transform="translate(-415.06 -198.579)" fill="#263238"/>
              <path id="Trazado_621403" data-name="Trazado 621403" d="M415.06,198.584s4.147,29.677,17.289,30.877,19.023-20.725,16.8-23.388S429.992,198.385,415.06,198.584Z" transform="translate(-415.06 -198.579)" fill="#fff" opacity="0.3" style="isolation: isolate"/>
            </g>
          </g>
        </g>
        <g id="Character_1" data-name="Character 1" transform="translate(21.303 139.602)">
          <g id="_Group_" data-name="&lt;Group&gt;">
            <path id="Trazado_621404" data-name="Trazado 621404" d="M55.362,413.806h9.623l.8-22.294H56.146Z" transform="translate(-11.097 -64.118)" fill="#b97964"/>
            <path id="Trazado_621405" data-name="Trazado 621405" d="M67.122,407.809H55.431a.846.846,0,0,0-.82.661l-1.9,8.57a1.42,1.42,0,0,0,1.1,1.683,1.4,1.4,0,0,0,.312.031c3.783-.062,6.539-.3,11.289-.3,2.926,0,11.753.307,15.792.307s4.567-3.991,2.914-4.358c-7.418-1.617-13-3.857-15.376-5.987A2.324,2.324,0,0,0,67.122,407.809Z" transform="translate(-11.9 -59.235)" fill="#263238"/>
            <path id="Trazado_621406" data-name="Trazado 621406" d="M64.342,409.319a.232.232,0,0,1-.172-.2.208.208,0,0,1,.11-.22c.343-.221,3.452-2.13,4.518-1.58a.686.686,0,0,1,.391.637,1.343,1.343,0,0,1-.477,1.224,2.879,2.879,0,0,1-1.848.49A11.562,11.562,0,0,1,64.342,409.319ZM65,409a4.672,4.672,0,0,0,3.427-.172.941.941,0,0,0,.307-.82c-.013-.185-.086-.269-.147-.269a.514.514,0,0,0-.294-.061A9.336,9.336,0,0,0,65,409Z" transform="translate(-8.459 -59.41)" fill="#407bff"/>
            <path id="Trazado_621407" data-name="Trazado 621407" d="M64.28,409.869a.242.242,0,0,1-.11-.208c.013-.134.246-2.9,1.359-3.807a1.221,1.221,0,0,1,.967-.294.745.745,0,0,1,.734.6c.2,1.016-1.726,3.135-2.718,3.673H64.4A.2.2,0,0,1,64.28,409.869Zm1.543-3.746a5.392,5.392,0,0,0-1.138,3.011c.992-.746,2.216-2.35,2.094-2.975-.013-.061-.038-.233-.331-.233h-.11A.787.787,0,0,0,65.823,406.123Z" transform="translate(-8.458 -59.912)" fill="#407bff"/>
            <path id="Trazado_621408" data-name="Trazado 621408" d="M56.061,391.522H65.7l-.416,11.5H55.645Z" transform="translate(-11.013 -64.115)" opacity="0.2" style="isolation: isolate"/>
            <path id="Trazado_621409" data-name="Trazado 621409" d="M93.494,414.162l9.932,1.049,1.864-21.42-9.932-1.049Z" transform="translate(0.329 -63.75)" fill="#b97964"/>
            <path id="Trazado_621410" data-name="Trazado 621410" d="M105.273,407.574H93.582a.844.844,0,0,0-.82.66l-1.9,8.57a1.422,1.422,0,0,0,1.408,1.714c3.783-.061,6.539-.294,11.289-.294,2.925,0,11.753.305,15.792.305s4.567-3.99,2.914-4.358c-7.418-1.615-13-3.856-15.376-5.986A2.324,2.324,0,0,0,105.273,407.574Z" transform="translate(-0.469 -59.305)" fill="#263238"/>
            <path id="Trazado_621411" data-name="Trazado 621411" d="M102.493,409.083a.23.23,0,0,1-.172-.195.209.209,0,0,1,.11-.221c.343-.22,3.452-2.13,4.518-1.579a.684.684,0,0,1,.391.637,1.345,1.345,0,0,1-.477,1.224,2.87,2.87,0,0,1-1.848.489A11.481,11.481,0,0,1,102.493,409.083Zm.662-.318a4.678,4.678,0,0,0,3.427-.17.942.942,0,0,0,.307-.821c-.013-.183-.086-.269-.147-.269a.536.536,0,0,0-.294-.061A9.361,9.361,0,0,0,103.155,408.764Z" transform="translate(2.973 -59.481)" fill="#407bff"/>
            <path id="Trazado_621412" data-name="Trazado 621412" d="M102.431,409.634a.244.244,0,0,1-.11-.208c.013-.135.246-2.9,1.359-3.808a1.226,1.226,0,0,1,.967-.294.748.748,0,0,1,.734.6c.2,1.016-1.726,3.133-2.718,3.673h-.11A.2.2,0,0,1,102.431,409.634Zm1.543-3.746a5.389,5.389,0,0,0-1.138,3.011c.992-.747,2.216-2.351,2.094-2.975-.013-.061-.038-.233-.331-.233h-.11A.774.774,0,0,0,103.974,405.888Z" transform="translate(2.974 -59.982)" fill="#407bff"/>
            <path id="Trazado_621413" data-name="Trazado 621413" d="M95.152,392.741l9.932,1.049-.97,11.048-9.932-1.049Z" transform="translate(0.535 -63.75)" opacity="0.2" style="isolation: isolate"/>
            <path id="Trazado_621414" data-name="Trazado 621414" d="M60.854,241.05h51.08c4.858,26.522,20.06,120.374,9.153,204L103.794,442.9s1.6-111.013-13.667-152.053c-1.757,21.964-3.842,45.334-5.652,57.769-4.443,30.608-13.957,97.5-13.957,97.5h-17.6s3.6-64.026,5.265-94.106C60,319.352,60.784,247.756,60.854,241.05Z" transform="translate(-11.831 -109.203)" fill="#263238"/>
            <g id="Grupo_878552" data-name="Grupo 878552" transform="translate(89.83 330.761)">
              <path id="Trazado_621415" data-name="Trazado 621415" d="M111.825,403.214l-21.4-3.184.655-5.927,22.265,2.923Z" transform="translate(-90.422 -394.103)" fill="#407bff"/>
            </g>
            <g id="Grupo_878553" data-name="Grupo 878553" transform="translate(40.041 330.443)">
              <path id="Trazado_621416" data-name="Trazado 621416" d="M72.876,400.469H52.112v-6.207l21.547-.4Z" transform="translate(-52.112 -393.858)" fill="#407bff"/>
            </g>
            <path id="Trazado_621417" data-name="Trazado 621417" d="M81.55,283.561a136.921,136.921,0,0,1,5.705,22.1c1.428-19.544-4.285-40.273-4.285-40.273Z" transform="translate(-3.25 -101.911)" opacity="0.2" style="isolation: isolate"/>
            <path id="Trazado_621418" data-name="Trazado 621418" d="M58.181,247.89l-1.166,6.169s35.742,4.628,57.978,4.5l-.771-4.242Z" transform="translate(-10.602 -107.154)" fill="#407bff"/>
            <path id="Trazado_621419" data-name="Trazado 621419" d="M113.737,207.8s12.367,38.978,20.82,41.526,29.954-29.618,29.954-29.618,19.269-.186,20.132-1.5-5.008-14.885-6.416-14.908-18.185,6.312-18.836,7.37-19.9,19.469-20.842,18.949-8.218-23.712-8.218-23.712Z" transform="translate(6.394 -120.516)" fill="#b97964"/>
            <path id="Trazado_621420" data-name="Trazado 621420" d="M154.7,214.41a4.133,4.133,0,0,0,.463-.118c-.083-.048-.155-.095-.226-.143A1.587,1.587,0,0,1,154.7,214.41Z" transform="translate(18.668 -117.264)" fill="#b97964"/>
            <g id="Grupo_878554" data-name="Grupo 878554" transform="translate(113.115 60.609)">
              <path id="Trazado_621421" data-name="Trazado 621421" d="M108.338,208.409l1.508,2.777,7.039,13.009,1.46,2.682,19.739-6.861s-8.2-30.647-11.051-33.78Z" transform="translate(-108.338 -186.237)" fill="#407bff"/>
              <path id="Trazado_621422" data-name="Trazado 621422" d="M108.338,208.409l1.508,2.777,7.039,13.009,1.46,2.682,19.739-6.861s-8.2-30.647-11.051-33.78Z" transform="translate(-108.338 -186.237)" fill="#fff" opacity="0.4" style="isolation: isolate"/>
            </g>
            <path id="Trazado_621423" data-name="Trazado 621423" d="M109.5,207.1l7.039,13.009c4.343-8.546,3.085-20.238,3.085-20.238Z" transform="translate(5.124 -121.542)" opacity="0.2" style="isolation: isolate"/>
            <g id="Grupo_878555" data-name="Grupo 878555" transform="translate(46.408 45.964)">
              <path id="Trazado_621424" data-name="Trazado 621424" d="M142.408,189.611a41.879,41.879,0,0,0-29.729-14.43c-19.352-.908-25.426,1.016-32.5,7.329-10.331,9.222-23.165,88.7-23.165,88.7s27.027,8.357,57.988,6.307c0,0,.233-22.059,7.212-36.929A412.985,412.985,0,0,0,142.408,189.611Z" transform="translate(-57.01 -174.969)" fill="#407bff"/>
              <path id="Trazado_621425" data-name="Trazado 621425" d="M57.011,271.205s27.027,8.355,57.994,6.314c0,0,.025-2.718.369-6.9.153-1.97.391-4.285.724-6.778.331-2.576.782-5.353,1.365-8.177.308-1.519.664-3.05,1.057-4.583a60.968,60.968,0,0,1,3.691-10.5q1.283-2.743,2.493-5.4c1.4-3.085,2.719-6.089,3.952-8.961,2.588-6.042,4.807-11.573,6.659-16.4,1.33-3.466,2.468-6.576,3.418-9.246,1.057-2.968,1.887-5.413,2.493-7.229.8-2.41,1.187-3.727,1.187-3.727a25.015,25.015,0,0,0-2.089-2.291,42.246,42.246,0,0,0-27-12.094c-.214-.025-.428-.036-.642-.048-14.742-.689-21.781.261-27.419,3.549a30.437,30.437,0,0,0-5.08,3.786,17.537,17.537,0,0,0-3.536,5.531,119.92,119.92,0,0,0-5.9,17.235c-.285,1.033-.571,2.09-.855,3.158-1.27,4.819-2.516,9.958-3.691,15.156-.333,1.472-.665,2.955-.985,4.428-.487,2.255-.962,4.51-1.424,6.73-1.163,5.6-2.22,11.039-3.145,15.918-1.318,7.026-2.351,12.9-2.968,16.546C57.248,269.756,57.011,271.205,57.011,271.205Zm56.8-95.265c1.365.047,2.694.153,3.869.308,5.247.7,13.187,4.867,12.986,6.849s-3.24,7.014-11,5.793a19.257,19.257,0,0,1-7.538-3.146c-4.3-2.836-7.418-6.67-7.726-7.916C104.026,176.355,109.071,175.8,113.807,175.94Z" transform="translate(-57.011 -174.969)" fill="#fff" opacity="0.4" style="isolation: isolate"/>
              <path id="Trazado_621426" data-name="Trazado 621426" d="M90.724,196.079S80.441,220.87,78.385,241.435l27.685,3.532s12.432-33.485,15-43.959C121.067,201.009,98.951,198.8,90.724,196.079Z" transform="translate(-50.606 -168.643)" fill="#407bff"/>
              <path id="Trazado_621427" data-name="Trazado 621427" d="M107.066,200.615l3.856.386-2.828,2.185Z" transform="translate(-42.012 -167.284)" fill="#fff" opacity="0.4" style="isolation: isolate"/>
            </g>
            <path id="Trazado_621428" data-name="Trazado 621428" d="M95.468,182.4c2.091,5.98,9.877,8.708,13.962,9.053,5.731.485,7.4-4.012,7.4-4.012s-4.657-2.317-4.2-4.937a12.3,12.3,0,0,1,1.922-4.445,25.672,25.672,0,0,1,1.6-2.2l-7.47-16.014C107.008,166.835,101.9,180.162,95.468,182.4Z" transform="translate(0.92 -133.536)" fill="#b97964"/>
            <path id="Trazado_621429" data-name="Trazado 621429" d="M105.686,165.57c-3.566,7.759,1.47,13.163,4.255,15.216a12.3,12.3,0,0,1,1.922-4.445Z" transform="translate(3.613 -131.82)" opacity="0.2" style="isolation: isolate"/>
            <g id="Grupo_878558" data-name="Grupo 878558" transform="translate(98.606)">
              <g id="Grupo_878556" data-name="Grupo 878556" transform="translate(23.661 12.058)">
                <path id="Trazado_621430" data-name="Trazado 621430" d="M127.473,149.762s2.39,13.2-4.5,18.5-7.591-19.382-7.591-19.382Z" transform="translate(-115.38 -148.88)" fill="#b97964"/>
                <path id="Trazado_621431" data-name="Trazado 621431" d="M127.473,149.762s2.39,13.2-4.5,18.5-7.591-19.382-7.591-19.382Z" transform="translate(-115.38 -148.88)" opacity="0.4" style="isolation: isolate"/>
              </g>
              <path id="Trazado_621432" data-name="Trazado 621432" d="M106.442,179.482a12.039,12.039,0,0,0,13.948,4.272,13.6,13.6,0,0,0,8.072-7.737c3.235-8.2,3.964-28.218-4.781-27.471-7.165.612-14.192-1.606-17.849,4.6a12.955,12.955,0,0,0-1.8,5.8C103.252,168.439,102.342,173.989,106.442,179.482Z" transform="translate(-95.32 -136.928)" fill="#b97964"/>
              <path id="Trazado_621433" data-name="Trazado 621433" d="M114.624,160.424c-.161.754.2,1.445.715,1.517s1-.5,1.109-1.266-.216-1.448-.715-1.517S114.74,159.647,114.624,160.424Z" transform="translate(-91.957 -133.743)" fill="#263238"/>
              <path id="Trazado_621434" data-name="Trazado 621434" d="M121.309,161.371c-.161.754.216,1.449.715,1.518s1-.5,1.109-1.266-.216-1.448-.715-1.517S121.414,160.642,121.309,161.371Z" transform="translate(-89.954 -133.459)" fill="#263238"/>
              <path id="Trazado_621435" data-name="Trazado 621435" d="M119.378,161.068a27.607,27.607,0,0,0,2.738,7.1,4.491,4.491,0,0,1-3.791.165Z" transform="translate(-90.837 -133.169)" fill="#a24e3f"/>
              <path id="Trazado_621436" data-name="Trazado 621436" d="M112.921,158.168a.478.478,0,0,0,.463-.114,3.677,3.677,0,0,1,3.1-1.1.453.453,0,0,0,.191-.885h0a4.518,4.518,0,0,0-3.93,1.337.455.455,0,0,0-.021.641l.008.008A.7.7,0,0,0,112.921,158.168Z" transform="translate(-92.551 -134.683)" fill="#263238"/>
              <path id="Trazado_621437" data-name="Trazado 621437" d="M125.167,160a.443.443,0,0,0,.264.056.453.453,0,0,0,.3-.565l0-.009a4.518,4.518,0,0,0-2.889-3,.452.452,0,0,0-.556.318h0a.465.465,0,0,0,.318.558h0a3.671,3.671,0,0,1,2.251,2.41A.468.468,0,0,0,125.167,160Z" transform="translate(-89.655 -134.549)" fill="#263238"/>
              <path id="Trazado_621438" data-name="Trazado 621438" d="M113.684,166.918s1.6,3.434,4.853,3.306" transform="translate(-92.227 -131.417)" fill="none" stroke="#263238" stroke-linecap="round" stroke-linejoin="round" stroke-width="0.5"/>
              <g id="Grupo_878557" data-name="Grupo 878557" transform="translate(3.471 11.218)">
                <path id="Trazado_621439" data-name="Trazado 621439" d="M113.684,148.233l.12,4.232a3.133,3.133,0,0,0-1.934,3.781c1.022,3.646-1.484,8.917-4.389,10.84,0,0,.06-1.532-1.261-1.291s-1.706,8.212.448,12.235c0,0-4.6-4.228-5.965-12.763-1.261-7.894-1.044-12.9.077-16.669Z" transform="translate(-99.845 -148.233)" fill="#b97964"/>
                <path id="Trazado_621440" data-name="Trazado 621440" d="M113.684,148.233l.12,4.232a3.133,3.133,0,0,0-1.934,3.781c1.022,3.646-1.484,8.917-4.389,10.84,0,0,.06-1.532-1.261-1.291s-1.706,8.212.448,12.235c0,0-4.6-4.228-5.965-12.763-1.261-7.894-1.044-12.9.077-16.669Z" transform="translate(-99.845 -148.233)" opacity="0.4" style="isolation: isolate"/>
              </g>
              <path id="Trazado_621441" data-name="Trazado 621441" d="M100.741,155.9s5.409.832,13.862-.85c13.1-2.606,18.668,2.213,18.668,2.213s3.109-2.672,2.723-6.445-5.62-4.416-5.62-4.416-1.578-4.242-5.049-5.527-6.948,1.929-6.948,1.929-4.333-4.177-9.37-2.99a7.565,7.565,0,0,0-6.047,7.361s-5.912.6-5.783,3.644S100.741,155.9,100.741,155.9Z" transform="translate(-97.174 -139.602)" fill="#263238"/>
              <ellipse id="Elipse_6998" data-name="Elipse 6998" cx="4.245" cy="4.894" rx="4.245" ry="4.894" transform="translate(19.426 22.418)" fill="none" stroke="#263238" stroke-linecap="round" stroke-linejoin="round" stroke-width="0.5"/>
              <path id="Trazado_621442" data-name="Trazado 621442" d="M128.832,162.3c0,2.7-1.9,4.894-4.245,4.894s-4.245-2.191-4.245-4.894,1.9-4.893,4.245-4.893S128.832,159.6,128.832,162.3Z" transform="translate(-90.232 -134.266)" fill="none" stroke="#263238" stroke-linecap="round" stroke-linejoin="round" stroke-width="0.5"/>
              <path id="Trazado_621443" data-name="Trazado 621443" d="M118.654,161.148s1.369-.862,2.2.139" transform="translate(-90.738 -133.249)" fill="none" stroke="#263238" stroke-linecap="round" stroke-linejoin="round" stroke-width="0.5"/>
              <path id="Trazado_621444" data-name="Trazado 621444" d="M114.546,160.854l-7.455-.994a3.662,3.662,0,0,0-2.733.741l-.325.253" transform="translate(-95.119 -133.541)" fill="none" stroke="#263238" stroke-linecap="round" stroke-linejoin="round" stroke-width="0.5"/>
              <path id="Trazado_621445" data-name="Trazado 621445" d="M99.916,163.325a9.07,9.07,0,0,0,4.5,5.27c2.842,1.426,4.87-.975,4.6-3.977-.27-2.667-2.047-6.706-5.157-6.853S99.039,160.51,99.916,163.325Z" transform="translate(-96.422 -134.161)" fill="#b97964"/>
            </g>
            <path id="Trazado_621446" data-name="Trazado 621446" d="M63.322,222.789c12.261-5.092,21.959-26.137,21.959-26.137l-6.967-4.213-9.46,7.608c-.285,1.033-.571,2.09-.855,3.158-1.27,4.819-2.516,9.958-3.691,15.156C63.974,219.833,63.642,221.316,63.322,222.789Z" transform="translate(-8.712 -123.77)" opacity="0.2" style="isolation: isolate"/>
            <path id="Trazado_621447" data-name="Trazado 621447" d="M115.308,219.3l21.166-7.773.6,1.8-21.166,7.541Z" transform="translate(6.865 -118.05)" fill="#407bff"/>
            <g id="Grupo_878560" data-name="Grupo 878560" transform="translate(0 145.013)">
              <rect id="Rectángulo_327463" data-name="Rectángulo 327463" width="62.098" height="38.302" transform="translate(6) rotate(9.013)" fill="#407bff"/>
              <g id="Grupo_878559" data-name="Grupo 878559" transform="translate(15.253 14.401)">
                <path id="Trazado_621448" data-name="Trazado 621448" d="M45.5,262.261,33.04,268.718l9.848,9.995" transform="translate(-33.04 -262.261)" fill="none" stroke="#fff" stroke-linecap="round" stroke-linejoin="round" stroke-width="2"/>
                <path id="Trazado_621449" data-name="Trazado 621449" d="M51.789,280.485l12.457-6.457L54.4,264.033" transform="translate(-27.421 -261.73)" fill="none" stroke="#fff" stroke-linecap="round" stroke-linejoin="round" stroke-width="2"/>
                <line id="Línea_2580" data-name="Línea 2580" y1="15.525" x2="8.449" transform="translate(14.188 1.615)" fill="none" stroke="#fff" stroke-linecap="round" stroke-linejoin="round" stroke-width="2"/>
              </g>
            </g>
            <path id="Trazado_621450" data-name="Trazado 621450" d="M77.724,183.375s-23.11,23.2-26.268,27.716-9.181,54.5-9.181,54.5-1.27.441-1.379,1.521-.2,15.12,0,15.77,10.846,7.216,12.41,5.655,3.757-17.461,3.757-17.461l-5.608-5.484s6.531-36.82,10.608-42.779,20.923-18.727,20.923-18.727Z" transform="translate(-15.468 -126.485)" fill="#b97964"/>
            <g id="Grupo_878561" data-name="Grupo 878561" transform="translate(42.491 47.549)">
              <path id="Trazado_621451" data-name="Trazado 621451" d="M91.532,176.188c3.369,7.134.807,22.156-5.4,27.458a182.182,182.182,0,0,1-20.779,14.91L54,203.708s12.061-11.776,19.365-18.56C82.245,176.9,91.532,176.188,91.532,176.188Z" transform="translate(-53.997 -176.188)" fill="#407bff"/>
              <path id="Trazado_621452" data-name="Trazado 621452" d="M91.532,176.188c3.369,7.134.807,22.156-5.4,27.458a182.182,182.182,0,0,1-20.779,14.91L54,203.708s12.061-11.776,19.365-18.56C82.245,176.9,91.532,176.188,91.532,176.188Z" transform="translate(-53.997 -176.188)" fill="#fff" opacity="0.4" style="isolation: isolate"/>
            </g>
            <path id="Trazado_621453" data-name="Trazado 621453" d="M54.321,196.626l-1.4,1.913,11.847,15.482,1.675-1.2Z" transform="translate(-11.83 -122.515)" fill="#407bff"/>
          </g>
        </g>
      </g>
    </g>
  </g>
</svg>
