<svg xmlns="http://www.w3.org/2000/svg" xmlns:xlink="http://www.w3.org/1999/xlink" width="222.28" height="222.28" viewBox="0 0 222.28 222.28">
  <defs>
    <filter id="Trazado_624708" x="17.318" y="8.394" width="197.642" height="197.643" filterUnits="userSpaceOnUse">
      <feOffset dx="-2" input="SourceAlpha"/>
      <feGaussianBlur stdDeviation="1.5" result="blur"/>
      <feFlood flood-opacity="0.4"/>
      <feComposite operator="in" in2="blur"/>
      <feComposite in="SourceGraphic"/>
    </filter>
    <filter id="Trazado_624710" x="36.865" y="27.94" width="158.549" height="158.548" filterUnits="userSpaceOnUse">
      <feOffset dx="-2" input="SourceAlpha"/>
      <feGaussianBlur stdDeviation="1.5" result="blur-2"/>
      <feFlood flood-opacity="0.4"/>
      <feComposite operator="in" in2="blur-2"/>
      <feComposite in="SourceGraphic"/>
    </filter>
    <filter id="Trazado_624709" x="0" y="0" width="222.28" height="222.28" filterUnits="userSpaceOnUse">
      <feOffset dx="-7" dy="4" input="SourceAlpha"/>
      <feGaussianBlur stdDeviation="2.5" result="blur-3"/>
      <feFlood flood-opacity="0.259"/>
      <feComposite operator="in" in2="blur-3"/>
      <feComposite in="SourceGraphic"/>
    </filter>
    <clipPath id="clip-path">
      <path id="Trazado_621068" data-name="Trazado 621068" d="M382.385,343.592a1.495,1.495,0,1,1-1.495-1.495A1.495,1.495,0,0,1,382.385,343.592Z" transform="translate(-379.395 -342.097)" fill="#4d97d3"/>
    </clipPath>
  </defs>
  <g id="Grupo_1034300" data-name="Grupo 1034300" transform="translate(-683.282 -9464.106)">
    <g transform="matrix(1, 0, 0, 1, 683.28, 9464.11)" filter="url(#Trazado_624708)">
      <path id="Trazado_624708-2" data-name="Trazado 624708" d="M94.321,0A94.321,94.321,0,1,1,0,94.321,94.321,94.321,0,0,1,94.321,0Z" transform="translate(23.82 12.89)" fill="#49a8d6"/>
    </g>
    <g transform="matrix(1, 0, 0, 1, 683.28, 9464.11)" filter="url(#Trazado_624710)">
      <path id="Trazado_624710-2" data-name="Trazado 624710" d="M74.078,0A74.078,74.078,0,1,1,0,74.078,74.078,74.078,0,0,1,74.078,0Z" transform="translate(43.37 33.84) rotate(-0.54)" fill="#fff"/>
    </g>
    <g transform="matrix(1, 0, 0, 1, 683.28, 9464.11)" filter="url(#Trazado_624709)">
      <g id="Trazado_624709-2" data-name="Trazado 624709" transform="translate(26.5 15.5)" fill="none">
        <path d="M91.64,0A91.64,91.64,0,1,1,0,91.64,91.64,91.64,0,0,1,91.64,0Z" stroke="none"/>
        <path d="M 91.64019775390625 -1.52587890625e-05 C 41.02870178222656 -1.52587890625e-05 -1.52587890625e-05 41.02870178222656 -1.52587890625e-05 91.64019775390625 C -1.52587890625e-05 142.2516632080078 41.02870178222656 183.2803802490234 91.64019775390625 183.2803802490234 C 142.2516632080078 183.2803802490234 183.2803802490234 142.2516632080078 183.2803802490234 91.64019775390625 C 183.2803802490234 41.02870178222656 142.2516632080078 -1.52587890625e-05 91.64019775390625 -1.52587890625e-05 M 91.64019775390625 -12.00001525878906 C 148.78759765625 -12.00001525878906 195.2803802490234 34.4927978515625 195.2803802490234 91.64019775390625 C 195.2803802490234 148.78759765625 148.78759765625 195.2803802490234 91.64019775390625 195.2803802490234 C 34.4927978515625 195.2803802490234 -12.00001525878906 148.78759765625 -12.00001525878906 91.64019775390625 C -12.00001525878906 34.4927978515625 34.4927978515625 -12.00001525878906 91.64019775390625 -12.00001525878906 Z" stroke="none" fill="#fff"/>
      </g>
    </g>
    <g id="Grupo_878304" data-name="Grupo 878304" transform="translate(749.822 9543.735)">
      <path id="Trazado_621059" data-name="Trazado 621059" d="M465.15,903.277h14.283l3.99,16.4h14.719v2.231h-51.7v-2.231h13.224Z" transform="translate(-420.692 -837.801)" fill="#414042"/>
      <path id="Trazado_621060" data-name="Trazado 621060" d="M552.726,903.277h7.644l1.692,6.956h-18.3l2.326-6.956Z" transform="translate(-501.629 -837.801)" fill="#231f20" opacity="0.5"/>
      <path id="Trazado_621061" data-name="Trazado 621061" d="M298.277,518.639h93.614a4.811,4.811,0,0,1,4.793,4.83V581.7a4.811,4.811,0,0,1-4.793,4.83H298.277a4.811,4.811,0,0,1-4.792-4.83V523.469A4.811,4.811,0,0,1,298.277,518.639Z" transform="translate(-293.485 -517.914)"/>
      <path id="Trazado_621062" data-name="Trazado 621062" d="M298.277,514.331h93.614a4.811,4.811,0,0,1,4.793,4.83v58.232a4.811,4.811,0,0,1-4.793,4.83H298.277a4.811,4.811,0,0,1-4.792-4.83V519.161A4.811,4.811,0,0,1,298.277,514.331Z" transform="translate(-293.485 -514.331)" fill="#414042"/>
      <path id="Trazado_621063" data-name="Trazado 621063" d="M310.115,528.676h93.614a2.409,2.409,0,0,1,2.4,2.415v54.171a2.408,2.408,0,0,1-2.4,2.415H310.115a2.408,2.408,0,0,1-2.4-2.415V531.091A2.409,2.409,0,0,1,310.115,528.676Z" transform="translate(-305.323 -526.261)" fill="#5ed2d5"/>
      <rect id="Rectángulo_327383" data-name="Rectángulo 327383" width="51.7" height="1.419" transform="translate(25.749 84.111)"/>
      <path id="Trazado_621064" data-name="Trazado 621064" d="M591.614,885.74a1.744,1.744,0,1,1-1.73,1.743A1.737,1.737,0,0,1,591.614,885.74Z" transform="translate(-539.987 -823.216)" fill="#fff"/>
    </g>
    <path id="Trazado_624711" data-name="Trazado 624711" d="M0,0H78.923V91.769H0Z" transform="translate(761.96 9513.378)" fill="#fff"/>
    <path id="Trazado_624712" data-name="Trazado 624712" d="M0,0H78.923V25.066H0Z" transform="translate(761.96 9513.378)" fill="#f1f2f2"/>
    <path id="Trazado_624713" data-name="Trazado 624713" d="M0,0H78.923V6.036H0Z" transform="translate(761.96 9513.378)" fill="#bac6c9"/>
    <path id="Trazado_621065" data-name="Trazado 621065" d="M446.512,347.544H407.823a1.1,1.1,0,0,1-1.1-1.1h0a1.1,1.1,0,0,1,1.1-1.1h38.689a1.1,1.1,0,0,1,1.1,1.1h0A1.1,1.1,0,0,1,446.512,347.544Z" transform="translate(362.164 9169.948)" fill="#fff"/>
    <g id="Grupo_878308" data-name="Grupo 878308" transform="translate(764.284 9514.741)">
      <path id="Trazado_621066" data-name="Trazado 621066" d="M382.385,343.592a1.495,1.495,0,1,1-1.495-1.495A1.495,1.495,0,0,1,382.385,343.592Z" transform="translate(-379.395 -342.097)" fill="#4d97d3"/>
      <g id="Grupo_878307" data-name="Grupo 878307" clip-path="url(#clip-path)">
        <g id="Grupo_878306" data-name="Grupo 878306" transform="translate(-0.456 0.255)">
          <path id="Trazado_621067" data-name="Trazado 621067" d="M377.88,344.124s.009.009.013,0S377.891,344.113,377.88,344.124Zm-1.094.282c-.012,0-.029.011-.022.012a.082.082,0,0,0,.033-.009s.019-.022.017-.022S376.8,344.4,376.787,344.406Zm1.2.456c.012,0,.006-.025,0-.023S377.97,344.867,377.983,344.862Zm.414.387c-.008,0-.025-.006-.032-.018s-.027-.024-.034-.021a.026.026,0,0,1-.027,0c-.009-.007-.025-.016-.031-.023a.054.054,0,0,0-.028-.011c-.007,0-.006-.006-.015.011s0,.023-.016.02,0,0,.01-.021,0-.028-.014-.024,0,.013-.02.017-.019-.011-.008-.013.03-.015.029-.021,0-.022-.013-.022-.008-.015-.022-.034-.035-.041-.048-.038-.02.017-.028,0-.016-.019-.021-.028-.016,0-.02,0l0,0s-.014,0-.007-.009.01-.037.007-.036-.008.022-.014.02,0,0-.013-.013-.029,0-.029.006a.02.02,0,0,1-.005.013.057.057,0,0,1-.007-.013.018.018,0,0,0-.027,0c-.008.008-.013-.022-.019-.022a.031.031,0,0,0-.022.02c-.005.013,0,.031-.006.03s-.007-.026-.006-.034.013-.023,0-.025-.022.014-.028.015a.052.052,0,0,0-.023.022c-.006.011-.009.018-.016.022s-.017,0-.015,0-.02-.02-.023-.014-.013.01-.023.015-.02-.007-.022-.013a.046.046,0,0,1-.009-.025.145.145,0,0,1,0-.048c0-.011-.017-.034-.025-.032s-.016.011-.024.01,0,0-.017,0,0,0,0-.015,0-.029.008-.04.009-.037,0-.039-.023,0-.033,0a.017.017,0,0,0-.016.022c0,.012-.006.021-.009.019s-.008-.008-.021,0-.017.007-.029-.005a.071.071,0,0,1-.027-.043.109.109,0,0,1,0-.049c.005-.011.007-.03,0-.033s.01-.016.018-.019a.064.064,0,0,0,.025-.021c0-.005.014,0,.026,0a.032.032,0,0,1,.026.007c.011.008.015,0,.016-.009s.008-.007.021-.006.031-.012.034-.008.008.021.015.015.01-.015.011,0,0,.042.014.045,0,.021.013.022.016-.027.014-.037a.248.248,0,0,0-.012-.046c0-.007.006-.024.018-.03a.307.307,0,0,0,.042-.044c.009-.009.035-.012.029-.023a.063.063,0,0,1-.009-.031c0-.008.007-.006.01,0s.018-.009.016-.016,0-.017.008-.016.011-.008.009-.013.01-.013.017-.011.033,0,.037,0-.009-.017-.007-.029a.037.037,0,0,1,.025-.024c.008,0,.018,0,.019-.005s.014-.016.014-.006,0,.027,0,.027.022-.014.025-.015l.03-.01s.031-.006.03-.016a.092.092,0,0,0-.006-.024s-.007,0-.012.009-.013.008-.014,0,0-.023,0-.017-.011.012-.014.009-.006-.012-.006-.012a.017.017,0,0,0,.007-.02c-.005-.012-.016-.009-.028,0a.075.075,0,0,1-.025.011.119.119,0,0,0-.021.01.1.1,0,0,1,.017-.031c.009-.009.032-.007.04-.016s.023,0,.023,0,.011-.012.009,0-.007.026,0,.026.027-.013.02-.015.006-.008.015-.016.022,0,.027,0,.01-.016.018-.017.008.012,0,.022-.017.031-.023.037,0,.013,0,.011.016,0,.024,0a.009.009,0,0,1,.013.007s.009,0,.009,0,.015,0,.018,0,.008,0,.006-.012-.005-.014-.007-.023-.006-.011-.015-.008-.01,0-.015-.006-.01.006,0,0l.013-.022c0-.009.021-.025.008-.029s-.017-.006-.017-.015-.013-.023-.017-.023-.025.007-.025,0a.1.1,0,0,0,0-.034c0-.007-.015-.037-.017-.04s-.007,0-.02.017-.023.021-.029.018-.015,0-.019-.009.018-.017.017-.024-.017-.008-.026-.009-.012-.015-.027-.015a.253.253,0,0,0-.039.006c-.005,0-.008.01-.015.026s0,.019-.009.023-.015.005-.007.01.013.026.013.026a.046.046,0,0,1-.013.02c-.009.008-.018.015-.02.007a.006.006,0,0,0-.013,0c0,.008.006.012,0,.02s0,.029-.006.036-.014,0-.02,0-.008-.01,0-.013.005-.024.005-.024-.019.025-.015.012,0-.013,0-.023,0-.022-.012-.019a.064.064,0,0,1-.036,0,.06.06,0,0,1-.034-.013c-.011-.008-.019,0-.026,0s0-.019-.006-.021,0-.005,0-.023,0-.013.027-.034.03-.03.048-.035.018.01.021,0,.023-.045.017-.031.014.013,0,.024-.008.011,0,.011a.094.094,0,0,0,.024-.012s.019-.012.02,0,0,.016.005.016.026-.014.016-.022-.018-.006-.022-.016,0-.006-.013,0-.007,0-.01,0-.009,0-.009,0,0-.007.013-.008a.062.062,0,0,1,.02,0l.017-.009s.02-.006.022-.019-.008-.011-.009-.015.01-.01.016-.014a.042.042,0,0,1,.018,0s.008,0,.01-.005,0-.013.007-.009-.006.017,0,.013.011,0,.014,0-.009.021-.015.025-.016.01-.005.01H378a.183.183,0,0,0,.016-.019c.006-.009.009,0,.012,0s.016,0,0,.012a.058.058,0,0,0-.026.022c-.005.008-.008.012-.019.009a.02.02,0,0,0-.024.007c-.005.007-.011.029-.005.026l.018-.007a.29.29,0,0,1,.035,0c.006,0,.011.012.015.01s.007,0,.012.01.008-.013.016,0,0,.011.008.01h.019s0-.014.014-.012.014.017.016.006.006-.02,0-.028-.017-.012-.018-.017a.013.013,0,0,1,0-.013s.016,0,.022.006.011.013.018.007.015-.01.019-.014l.015-.018s-.028,0-.03-.01-.012-.015-.016-.015-.018.011-.017,0,.006-.031,0-.032a.3.3,0,0,1-.044-.009.264.264,0,0,1-.029-.017c-.006-.006-.014-.014-.021-.013s-.041.011-.046.01a.155.155,0,0,0-.031.008c-.007,0,0,.018-.016.024s-.016.009,0-.013,0-.025-.013-.015-.038.018-.038.027-.009.017,0,.025.008.01.021.007a.058.058,0,0,1,.024,0s-.007.017-.013.02-.014,0-.019.013-.017.014-.015.01.012-.019.009-.025-.005-.007-.016,0-.013.011-.012,0a.026.026,0,0,0-.006-.018.092.092,0,0,0,0-.019c0-.006-.013,0-.018,0a.067.067,0,0,0-.007.025c0,.011-.007.027-.015.029s-.01.011-.018.015-.008,0,0-.013a.171.171,0,0,1,.011-.024s-.009,0-.017,0-.02.008-.012.011,0,.018-.009.024a.25.25,0,0,1-.053.008c-.011,0-.028.008-.027,0s.016-.015.023-.016a.069.069,0,0,0,.042-.019c.015-.016,0-.016-.008-.015s-.011,0-.013-.012.017-.021.018-.026-.01,0-.019,0-.016-.005-.022.005-.013.039-.016.034,0-.015,0-.022-.008,0-.018,0a.259.259,0,0,1-.032.01s0,0-.006-.006-.012,0-.015-.007.005-.009-.007-.008-.018.012-.029.012a.236.236,0,0,0-.03.006.032.032,0,0,0-.026.011c-.008.009-.023.025-.028.026s-.019.011,0,.009,0,.011.016.007a.084.084,0,0,0,.042-.018c.01-.011.013-.012.013-.008s0,.024,0,.024a.038.038,0,0,0,.006.01s-.012.015-.016.01-.019,0-.021-.006-.015-.005-.023,0a.281.281,0,0,1-.032.005.211.211,0,0,0-.025.016s0-.009,0-.014-.011.007-.016.009-.008-.007-.023,0-.015.012-.03.014-.016,0-.023,0l-.007,0a.037.037,0,0,1-.013.011c-.01.006-.02.013-.019.007s0-.006,0-.006,0-.005-.018,0-.011-.012-.015-.011a.608.608,0,0,1-.058.02.066.066,0,0,0-.027,0l-.026.009h-.015s-.019.009-.018,0,0-.006,0-.006a.155.155,0,0,1-.025.017.124.124,0,0,1-.028.011.363.363,0,0,0-.036.016.15.15,0,0,1-.02.007.1.1,0,0,0-.031.016s-.013.013,0,.009.01,0,.015,0,.008,0,.008,0-.005.012-.013.013-.016,0-.016,0v0l-.016.008a.387.387,0,0,0-.04.016s0,.009,0,.013.025,0,.025,0a.075.075,0,0,0,.025-.009.033.033,0,0,1,.02-.007s-.017.016-.027.018a.11.11,0,0,0-.041.016c-.016.01-.025.012-.029.02s0,.016,0,.021.021-.007.028-.013.017-.008,0,0,0,.013,0,.013.015-.013.016-.011a.08.08,0,0,1,0,.01s.021-.013.02-.007-.015.013-.024.018l-.046.022a.286.286,0,0,1-.04.018c-.005,0-.017.014-.007.012a.49.49,0,0,0,.053-.022c.01,0,0,.01.028,0s.042-.03.047-.03,0,.008.007.009.02-.009.028-.014.021-.019.015-.017a.1.1,0,0,1-.018,0,.121.121,0,0,0,.025-.018.068.068,0,0,1,.024-.02c.011,0,.009,0-.006.012s0,.006.015,0,.007.008.024,0,.025-.026.031-.027.008.01.018,0,.015.006.025,0,.037,0,.043,0,.019,0,.011.02,0,.014.005.013.017,0,.014.009-.02.031-.013.036.012.014.018.01.011-.022.007-.024,0-.011,0-.015.009-.006.008,0,0,.024,0,.023.01.013,0,.022-.011.026,0,.025.019.01.022.011,0,.012,0,.015a.2.2,0,0,1,0,.029l-.024.059a.065.065,0,0,0,.005.049c.008.012,0,.041,0,.045a.046.046,0,0,0,.03.012c.01,0,.015.007.021.025s.01.047.017.05.017.011.01.018-.017.021-.007.021.014-.007.021,0,.016.018.014.026.008.01.013.011.013.025.024.014-.012-.026-.018-.033,0-.021-.012-.035-.011-.025-.02-.035-.017-.019,0-.028.011.009.014.02a.172.172,0,0,0,.032.045c.009.01.024.047.029.047s.02.021.02.021.008.017,0,.023,0,.025.011.03.042.005.044.025.006.031.019.031.029-.007.033,0,.014.02.021.011.008-.013.018-.013.015.009.021.016.022.025.03.024.019.011.024.007.015,0,.02.005a.035.035,0,0,1,.014.03c0,.016.017.02.023.025a.117.117,0,0,1,.023.021c.006.007.019.009.022.013s.007.013.016.006a.019.019,0,0,0,.006-.019.021.021,0,0,1,.017,0c.006.006.011.024.014.027a.058.058,0,0,1,.009.04c0,.015,0,.031,0,.031s-.015.014-.022.018a.051.051,0,0,0-.012.034.163.163,0,0,1,.008.039c0,.01-.008.019,0,.035s.03.021.033.035.026.046.031.06a.35.35,0,0,1,.024.051c0,.02.04.034.045.036s.018.015.026.02a.081.081,0,0,1,.025.025.1.1,0,0,1,.012.033s.009.048.013.073.021.05.017.057-.014.008-.006.017,0,.013,0,.018.016.028.016.037,0,.023,0,.031a.046.046,0,0,0,0,.029c.006.013,0,.008,0,.02s.011.008.015.023a.23.23,0,0,0,.006.03c0,.011.015.027.017.031a.076.076,0,0,1,0,.028.034.034,0,0,0,0,.024c0,.007.014.017.015.021a.072.072,0,0,0,.005.027c.005.01.011.007.016.014s0,.011,0,.019.014.008.021.024a.07.07,0,0,0,.024.028s.014.015.018.016.005,0,0-.018.012,0,.009.009,0,.015,0,.015a.212.212,0,0,0,.026.015.038.038,0,0,0,.019,0s.018,0,.017-.006-.015-.005-.024-.01a.2.2,0,0,1-.037-.038c-.005-.009-.013-.026-.009-.031a.231.231,0,0,0,.012-.026.045.045,0,0,0,0-.026s-.016,0-.019-.007a.016.016,0,0,1,0-.019c.005-.009,0-.022.006-.026a.038.038,0,0,0,.006-.021c0-.01,0,0-.01-.005s-.014-.017-.016-.024.015,0,.026.008,0-.007,0-.015-.005-.023,0-.018a.082.082,0,0,0,.038,0s.006-.026.008-.033a.017.017,0,0,0-.005-.019.268.268,0,0,1-.027-.027.121.121,0,0,1,0-.036c0-.007.011.042.026.049s.023.011.032-.006.015-.027.014-.039a.038.038,0,0,1,0-.027s.009,0,.011-.019.01,0,.013-.019-.017-.037-.007-.048a.254.254,0,0,1,.029-.024.06.06,0,0,1,.017-.008c.012,0,.026,0,.028-.009a.307.307,0,0,1,.009-.037c0-.01.01-.026.006-.033s0-.039,0-.048-.014-.029,0-.047a.161.161,0,0,0,.03-.05.258.258,0,0,0,.009-.053A.065.065,0,0,0,378.4,345.249Zm-1.086-.838c-.006,0,0-.013,0-.019s-.009-.005-.013-.008-.008-.02,0-.018.006.008.009.007.013.013.015.018A.021.021,0,0,1,377.311,344.41Zm.606-.282c-.012.005-.006.015,0,.011S377.927,344.124,377.917,344.128Zm.7-.25a.133.133,0,0,1,.009-.042c0-.009.013-.015.009-.018s-.009,0-.011-.01a.042.042,0,0,1,.012-.032.288.288,0,0,1,.046-.052c.013-.006.024-.03.016-.034a.025.025,0,0,0-.036,0c-.013.016-.022.031-.034.027s-.01-.03-.014-.043.006-.058,0-.054l-.011,0a.034.034,0,0,0-.02,0c-.011,0-.02.016-.025.014s-.023.008-.026.009a.055.055,0,0,1-.047,0,.092.092,0,0,0,.033,0l.045-.017c.01,0,0-.01,0-.011a.323.323,0,0,0-.043-.009.255.255,0,0,0-.032.009.079.079,0,0,0-.048.017.138.138,0,0,1-.029.018c-.01.012-.025.042-.028.035s0-.026-.007-.018-.009.027-.02.041-.028.014-.031.01-.007-.007-.029,0-.049.02-.048.03-.016.02-.018.014-.023.01-.027.021-.012.025-.02.023-.018.009-.023.019-.028.019-.029.019-.028,0-.023.013.009,0,.017,0,.006.022.009.024.011,0,.016-.008a.289.289,0,0,0,.016-.026s-.007.019,0,.022.025-.006.029-.005a.1.1,0,0,1,.034.008c.005.005.022.007.024.019s-.011.055-.009.06.017-.017.021-.022a.011.011,0,0,1,.017,0,.066.066,0,0,1,.005.029c0,.007-.007.018-.009.014s-.009,0,0-.01.01-.024.005-.024h-.009s-.008,0-.017.012-.009.029,0,.029.014,0,.013,0-.014.016-.015.023a.151.151,0,0,0,0,.034s.013.009.016.009-.009,0-.007.009,0,.023.009.026a.067.067,0,0,1,.022.027c0,.008.019-.007.022-.008s0,.02.007.021.012,0,.021-.012a.058.058,0,0,0,.011-.03c0-.009,0-.015.01-.013s.012,0,.014-.012,0-.021.01-.025.022-.017.03-.017.029,0,.032,0,.019-.035.025-.036a.186.186,0,0,0,.039,0c.016,0,.035-.02.04-.02s.018,0,.015-.006-.007-.019-.016-.019-.005-.03,0-.03.022.01.02.02,0,.023.013.018a.019.019,0,0,0,.011-.023.143.143,0,0,1,0-.02c0-.007,0-.028.009-.031S378.612,343.894,378.614,343.878Zm-.783.874c.013,0,.007-.016,0-.014S377.818,344.756,377.83,344.753Zm.83-.7c0-.006.021-.008.021-.008s.016-.017.011-.024a.04.04,0,0,0-.023-.012c-.006,0-.012.007-.025.008s-.023.009-.027,0-.026-.011-.028-.006-.009.007-.005.021.007.021.012.02.021,0,.022.005.006.014.018.009S378.657,344.056,378.66,344.051Zm-.832.8c-.01,0-.008.027,0,.023S377.839,344.853,377.829,344.855Zm.1-.034a.053.053,0,0,0-.026,0c-.007,0-.026.023-.026.023a.126.126,0,0,0,.02,0c.008,0,.013.006.019.01s.019-.006.024-.006.01.017.011,0A.029.029,0,0,0,377.928,344.821Zm-.066,0c0-.006-.012-.021-.02-.02s-.025-.01-.033-.019a.043.043,0,0,0-.033-.009.248.248,0,0,0-.035.01c0,.014.01.01.024.009s.038,0,.042,0a.287.287,0,0,0,.03.024C377.843,344.821,377.861,344.823,377.862,344.817Zm.891-.547c.009,0,.018-.008.026-.012a.035.035,0,0,0,.019-.027.06.06,0,0,0-.005-.031.017.017,0,0,0-.018-.006c-.009,0-.011.016-.017.016s-.014,0-.012.014.006.018,0,.022S378.745,344.269,378.753,344.27Zm-.9-.354c.005,0,.02,0,.02.01s.013.013.013.013h.018a.093.093,0,0,1,.029-.007.3.3,0,0,0,.045,0,.027.027,0,0,0,.019-.012s-.016-.008-.022-.006l-.046.007-.028,0c-.008,0-.009-.005-.013-.009s-.008-.016-.014-.017l-.017,0c-.006,0-.017,0-.015-.005s-.011.013-.007.016A.117.117,0,0,0,377.855,343.916Zm1.645,1.459c-.013,0-.017.02-.03.036s-.026.03-.03.029a.03.03,0,0,0-.024.033.069.069,0,0,1-.008.054c-.009.011,0,.039,0,.056s0,.026.013.026.021-.008.03-.028.013-.039.022-.055.019-.05.023-.059a.189.189,0,0,0,.016-.053C379.509,345.4,379.507,345.377,379.5,345.375Zm-2.815-.942c-.005,0,.006.006.015,0a.084.084,0,0,0,.027-.01l-.011,0A.065.065,0,0,0,376.685,344.433Zm2.8-.483c.013.01.028.014.033,0a.025.025,0,0,0-.01-.025.014.014,0,0,1,0-.023c.009-.009.019-.021.032-.022a.156.156,0,0,1,.056.006c.012.006.022-.016.023-.025s-.02-.019-.022-.008-.029.005-.035,0a.423.423,0,0,0-.055.005c-.009,0-.008.016-.019.024l-.031.023c-.005,0-.008.021,0,.024A.135.135,0,0,1,379.482,343.95Zm-1.631-.011c0-.01-.011-.011-.02,0S377.848,343.95,377.851,343.939Zm.956.267c.01.006.032.012.024.018a.166.166,0,0,0-.036.045c0,.009.028,0,.028,0s-.007.01,0,.013.009-.011.017-.011.025.007.034.007.022-.017.021-.027a.054.054,0,0,0-.021-.033c-.009-.006-.02-.033-.026-.039s.023-.026.016-.036-.029,0-.037-.012-.016,0-.021.011-.011,0-.017,0-.006.019,0,.027A.074.074,0,0,0,378.807,344.206Zm-.96-.254c-.007,0-.032.019-.034.025s0,.006.011,0l.028-.009c.006,0,.014-.016.008-.016S377.854,343.949,377.847,343.952Zm-.289.036a.132.132,0,0,0,.026-.008c.005,0,.028-.013.022-.006s-.006.018,0,.016.022-.016.023-.012,0,.014,0,.016a.036.036,0,0,0,.022,0,.075.075,0,0,1,.028-.006c.006,0,.023,0,.027,0s.011-.008.015-.013l.017-.023s0-.009-.007,0-.012.008-.017.008,0-.015-.007-.01a.091.091,0,0,0-.024.017c-.005,0-.014.008-.015.007l-.008-.01s-.028,0-.026,0,0-.012-.011-.008-.046.021-.049.022,0,.009-.008.01a.029.029,0,0,0-.018.01C377.543,343.991,377.55,343.99,377.558,343.988Zm-.7.336s.021-.014.013-.013a.057.057,0,0,0-.017.006C376.853,344.32,376.858,344.325,376.862,344.324Zm.826-.39s.012,0,.014-.006.018-.023.012-.022a.27.27,0,0,0-.038.021c-.009,0-.014.014-.009.013S377.688,343.931,377.688,343.935Zm.081-.026c.007,0,.026-.01.024-.006s-.005.008,0,.008a.064.064,0,0,0,.015,0s.01-.012.01-.019,0-.007-.007-.009a.05.05,0,0,0-.026,0,.032.032,0,0,0-.023.014C377.76,343.906,377.762,343.91,377.769,343.908Zm0,.1a.208.208,0,0,0,.022-.018.035.035,0,0,0,.007-.024s-.02,0-.026.005-.015,0-.025.006-.011.017,0,.017.022-.009.021,0S377.753,344.022,377.769,344.012Zm-.034-.042c.006,0,.018-.02.022-.021s.026-.01.024,0,0,0,.008,0,.022-.015.025-.02,0-.013-.009-.009a.249.249,0,0,0-.054.013c-.008.007-.014.024-.017.026S377.729,343.973,377.735,343.971Zm2.806,1.013c-.018.023-.016.018-.027.013s-.031.013-.028.019.028,0,.033.009,0,.013.016.01.025-.021.023-.03A.067.067,0,0,0,380.541,344.983Zm-.058.267c-.01.011-.025.022-.027.031s.026-.01.026-.01.018,0,.021-.013A.012.012,0,0,0,380.483,345.25Zm.255.373a.379.379,0,0,1-.037.023c-.028.016-.061.034-.076.045s-.015.014,0,.011.005,0,.031-.016l.069-.042a.35.35,0,0,0,.044-.031s0-.011,0-.008S380.75,345.616,380.738,345.623Zm-.448-.373a.006.006,0,0,0,0,0c-.01-.007-.026,0-.028-.009s-.009-.01-.015,0a.016.016,0,0,0,0,.024.04.04,0,0,0,.025,0,.043.043,0,0,0,.019-.007.007.007,0,0,0,0,0,.02.02,0,0,0,.024.01c.013,0,.031.005.034,0s-.007-.019-.012-.018a.243.243,0,0,1-.031-.006A.05.05,0,0,0,380.29,345.25Zm.392.277a.208.208,0,0,0,.029-.08.117.117,0,0,1,.017-.049c.007-.011-.029-.005-.034-.012s.008-.032.009-.046a.065.065,0,0,0-.009-.034c0-.012,0-.042,0-.039s-.029.039-.026.049-.018.034-.031.049-.017,0-.024-.006-.02-.009-.024-.017.027-.034.025-.042-.034,0-.037,0-.005-.012-.011-.011-.015.026-.015.026a.163.163,0,0,0-.009-.019c-.006-.01,0,.007-.016.02a.066.066,0,0,0-.019.021c-.009.013-.017.009-.022,0s-.014,0-.022,0a.211.211,0,0,0-.027.032c-.005.005-.03-.006-.038,0a.24.24,0,0,0-.021.053c0,.005-.023.005-.033.013a.046.046,0,0,1-.027.006.394.394,0,0,0-.054.036c-.011.008-.035.033-.034.039s.016.019.01.023a.039.039,0,0,0-.013.036c0,.014,0,.019,0,.026s0,.01,0,.022-.026.026-.034.034a.023.023,0,0,0,0,.024c0,.006.019,0,.03-.006s.027-.017.033-.02a.111.111,0,0,1,.032,0,.385.385,0,0,1,.037-.045.032.032,0,0,1,.029-.006.211.211,0,0,1,.041-.02c.028-.01.01,0,.016.006s.017,0,.019.008-.014.021-.02.028.014,0,.019-.006a.118.118,0,0,1,.029-.023c.015-.009-.006.011-.01.021s.02-.017.011,0a.043.043,0,0,0,0,.01s.01,0,0,.014-.015.02-.014.022.018,0,.013.009.01,0,.019-.008.015,0,.014,0,.022-.013.041-.021a.065.065,0,0,0,.025-.014c.01-.008.029-.028.049-.044A.673.673,0,0,0,380.681,345.527Zm-.28-.25c-.006.012.011.016.016,0S380.406,345.266,380.4,345.277Zm.032-.115c0,.013-.017.023-.01.029s.031-.024.033-.015,0,.013,0,.024.02.009.02.009.007-.031,0-.038-.016-.016,0-.014.023-.005.021-.013-.024,0-.031,0a.026.026,0,0,1-.016,0C380.438,345.143,380.438,345.149,380.433,345.162Zm.025.54-.009,0c-.022.016,0,.011-.016.025s.006,0,.013,0a.364.364,0,0,0,.047-.041C380.5,345.678,380.461,345.7,380.458,345.7Zm-1.547-1.231c0-.006,0-.018-.011,0S378.909,344.477,378.911,344.471Zm.083,0a.02.02,0,0,0-.01-.025c-.01,0-.015.022-.009.03S378.988,344.482,378.994,344.471Zm.065.054s.019,0,.014-.015-.015-.015-.018-.015-.018,0-.023,0,.007.013.013.016S379.054,344.524,379.059,344.525Zm1.935-.228c-.014-.009-.041-.023-.035-.024s.013,0,.007-.007-.035-.026-.036-.032-.027-.021-.039-.025-.045-.01-.057-.016a.1.1,0,0,0-.031-.013.092.092,0,0,0,.009.018s0,0-.02-.011a.2.2,0,0,0-.056-.021l-.027,0a.044.044,0,0,1-.027-.009c-.015-.01-.029-.016-.036-.02a.131.131,0,0,0-.042-.011l-.03-.005-.029-.016a.321.321,0,0,0-.039-.021.111.111,0,0,1-.039-.009.1.1,0,0,0-.026-.014s-.017-.012-.011-.011a.1.1,0,0,0,.023,0,.126.126,0,0,0-.028-.018c-.009,0-.031-.012-.035-.014s0,.006-.007,0-.017,0-.026-.008-.008.008.009.016.027.006.037.014a.06.06,0,0,1,.013.016c0,.005.007.017,0,.018s-.013-.006-.018,0-.032-.006-.032,0-.016-.012-.019-.01,0,.015-.011.013a.079.079,0,0,1-.029-.023.149.149,0,0,0-.024-.027.116.116,0,0,0-.032-.009c-.007,0-.028,0-.029,0s-.008.006-.015.005-.018-.011-.034-.017a.307.307,0,0,0-.05-.012s-.018-.005-.016-.01a.025.025,0,0,0-.009-.029.132.132,0,0,0-.04-.016.091.091,0,0,0-.03-.007c-.011,0-.008.009-.019,0s.016.007-.01-.009-.03-.006-.037-.013l0,0a.014.014,0,0,1,0,.011.03.03,0,0,1-.019.009.092.092,0,0,1-.034-.014c-.019-.035-.012,0-.019,0s-.009.011-.019.007a.043.043,0,0,0-.032,0c-.007,0-.013,0-.018.012a.036.036,0,0,1-.021.012l-.025,0c-.008,0-.02,0-.008.008s.038.024.043.03.015.023.012.027-.011,0-.017-.011a.033.033,0,0,0-.021-.021c-.013-.007-.011,0-.025-.016s-.024-.014-.025-.006.007.025,0,.026-.01.006-.015-.007-.014-.037-.016-.024,0,.013,0,.02a.133.133,0,0,1,.013.027c0,.013.005.021.008.021s.005-.012.013-.014.021-.007.026.006.017.018.009.023a.019.019,0,0,1-.024-.008c0-.009-.012-.01-.016,0a.175.175,0,0,0-.011.03s-.019.013-.023.01,0-.018.008-.024a.025.025,0,0,0,0-.026.138.138,0,0,1-.017-.039c0-.007,0-.016-.007-.024s-.022-.018-.03-.023-.01.015-.015.02,0,.012-.01.013-.009.017.009.029.025.019.022.024-.021,0-.021,0a.081.081,0,0,0-.023-.01.288.288,0,0,1-.027-.011c-.008,0-.024,0-.026,0s-.008.022-.017.016-.011-.012-.02-.007-.022-.006-.026,0,0,.009-.02,0-.013,0-.03.008-.029-.006-.032,0-.007.024-.012.014,0-.027,0-.033a.026.026,0,0,0-.028,0,.054.054,0,0,0,.005.027c0,.006.01.029,0,.025s-.008-.019-.014-.018a.03.03,0,0,0-.014.008s-.014,0-.016.008,0,.022,0,.023-.008.007-.02,0-.012,0-.014,0-.015.014-.018,0,0-.018-.01-.027,0-.009.009,0a.051.051,0,0,0,.048,0c.02-.009.028-.013.018-.02s-.02-.025-.034-.029-.032.008-.055,0a.364.364,0,0,0-.037-.021c-.009,0-.065-.041-.088-.036a.378.378,0,0,0-.089.057.245.245,0,0,1-.021.037.123.123,0,0,1-.052.035c-.019.006-.042.049-.042.055s.009.028.007.033a.04.04,0,0,0,.016.033c.011.006.031,0,.032,0s.016-.028.017-.015.012.034.01.043,0,.018.008.017l.045-.013a.019.019,0,0,0,.009-.019c0-.012.012-.028.015-.033s.013-.022,0-.028-.024-.008-.011-.025.023,0,.039-.026-.006-.034.012-.035.038,0,.035.007a.133.133,0,0,1-.037.036.025.025,0,0,0,0,.034c.006.009.009.03.018.027s.019-.013.03-.011a.194.194,0,0,0,.033,0s.019.021.012.024a.2.2,0,0,1-.036,0c-.017,0-.037,0-.036,0s.025.016.017.023-.016,0-.027,0-.015.019-.018.031.007.033-.009.025-.028-.008-.032-.005-.012,0-.022,0a.045.045,0,0,1-.025,0h-.022a.034.034,0,0,1-.01-.02c0-.012,0-.025,0-.028a.025.025,0,0,0-.027.01.052.052,0,0,0,0,.033c0,.007.017.022.006.018a.032.032,0,0,0-.035,0c-.008.009-.023.028-.023.028s-.027,0-.027.012,0,.021-.01.023-.022.006-.035.009-.012.011-.027.012-.018.011,0,.013.035.015.036.028a.1.1,0,0,1-.007.042c0,.009-.026,0-.039,0s-.039-.006-.05,0-.01.036-.007.049a.026.026,0,0,1-.006.025.021.021,0,0,0,0,.024c.005.006.01.019.014.021s.019,0,.024,0,.011.025.014.021.008-.024.014-.019.019,0,.029,0,.016-.017.026-.024,0-.008,0-.016.01-.019.018-.03.022,0,.025-.013,0-.033.013-.031a.275.275,0,0,0,.028.009c.008,0,.024-.016.028-.019a.017.017,0,0,1,.023.012.073.073,0,0,0,.026.033s.033.015.038.02a.069.069,0,0,1,.014.03c0,.012.016.026.017.016s-.012-.044,0-.043a.031.031,0,0,0,.017,0,.313.313,0,0,0-.029-.024.069.069,0,0,1-.029-.029c-.007-.015-.023-.018-.023-.033s.016-.006.025.006.031.029.039.039.02.015.024.028a.146.146,0,0,0,.018.034c0,.006.007.053.011.061s.023-.016.029-.022.015-.009.016-.021-.014-.021-.019-.025.011-.009.016-.015.015-.016.019-.007a.41.41,0,0,1,.007.051c0,.006.025.015.03.023s.024.011.027.006.021,0,.026,0a.07.07,0,0,0,.026-.005c.009,0,.017-.012.017.008a.126.126,0,0,1-.012.063c-.011.015-.006.022-.017.022a.025.025,0,0,0-.014,0c0-.008-.009-.014-.016-.011s-.03,0-.041.022-.015.019-.018.013.032-.031.027-.038-.032,0-.046,0-.027-.012-.039-.015-.016.027-.027.042-.029-.008-.039-.008-.029-.02-.029-.02a.1.1,0,0,0-.027-.011c-.008,0-.024-.019-.028-.019s-.017-.013-.008-.019.028.007.019-.026a.032.032,0,0,0-.047-.022.364.364,0,0,1-.068,0,.28.28,0,0,0-.047.021l-.033.017s-.028-.006-.038,0-.026.025-.029.025-.014.01-.021.033,0,.042-.012.049a.205.205,0,0,0-.049.031c-.009.012-.017.058-.028.077s0,.037,0,.049a.072.072,0,0,1,0,.055c-.012.021-.011.031-.017.033s.006.007.008.022-.01.03.012.043.041.014.047.032.025.059.025.059.021.024.031.034.014,0,.016-.006.015-.012.031-.012a.215.215,0,0,0,.043,0c.016,0,.027-.029.033-.032a.048.048,0,0,1,.044,0c.015.012.012.028.02.039s.021,0,.032-.006.006-.006.018,0,.018.018.006.031,0,.034-.012.055.006.021.018.03.021.067.028.077,0,.04,0,.058.01.029,0,.038a.086.086,0,0,0-.022.056.152.152,0,0,0,.007.061c0,.01.013.039.018.049s.022.029.022.046-.015.042-.011.051a.227.227,0,0,0,.015.034.091.091,0,0,1,.01.037.126.126,0,0,1,0,.027c0,.016,0,.027.009.034s.016.009.021,0a.064.064,0,0,1,.04-.022.051.051,0,0,0,.045-.011.642.642,0,0,0,.045-.061c.008-.011.027-.03.026-.042s-.01-.03,0-.037.037-.012.039-.021a.29.29,0,0,0,0-.053c0-.007.007-.021.017-.036a.334.334,0,0,1,.037-.038.125.125,0,0,0,.029-.045.491.491,0,0,1,.005-.053.026.026,0,0,0-.006-.031c-.009-.012-.007-.039-.01-.045a.084.084,0,0,1,.012-.048.284.284,0,0,0,.033-.046c.01-.013.038-.055.05-.058a.067.067,0,0,0,.035-.04c0-.013.037-.063.038-.073s.016-.048.011-.057-.05.013-.056.016a.073.073,0,0,1-.04.013c-.018,0-.01-.02-.011-.029a.127.127,0,0,0-.024-.044.078.078,0,0,1-.024-.037c-.006-.018-.029-.029-.039-.043s0-.055-.009-.075-.018-.047-.026-.067l-.006-.013c.01,0,.025-.009.027,0a.465.465,0,0,1,.018.049c0,.016.015.01.016.025a.173.173,0,0,0,.018.055.215.215,0,0,1,.029.037.183.183,0,0,1,.011.043c0,.022.006.051.016.056s.04-.007.046-.012a.219.219,0,0,1,.057-.029c.014,0,.016-.013.033-.018a.1.1,0,0,0,.041-.032.212.212,0,0,0,.029-.051c0-.01.016-.017.01-.029a.086.086,0,0,0-.039-.031c-.009,0-.009-.02-.014-.02s0,.01-.015.017-.022.022-.03.019,0-.01-.011-.023-.018-.016-.018-.026-.026-.03-.029-.044.015-.035.022-.022.012.034.027.043.029.024.036.027.023-.015.029-.013.018.029.029.034a.216.216,0,0,0,.05.006c.006,0,.029,0,.034-.007s.007-.009.013-.008.017.026.025.029.023,0,.022.02.008.034.016.036.025-.021.025-.021,0,.036,0,.049a.338.338,0,0,0,.013.06s.016.044.02.054a.192.192,0,0,1,.022.052c0,.013,0,.033.007.032s.015-.023.024-.037a.173.173,0,0,0,.022-.041.279.279,0,0,0,0-.056c0-.01.007-.018.023-.027s.027-.032.04-.045.012-.033.039-.033.025,0,.031-.008.013-.014.017,0a.179.179,0,0,0,.027.043.067.067,0,0,1,.009.037c0,.016-.008.062,0,.062s.026-.049.026-.049.025-.021.024,0,0,.045,0,.059.018.046.018.038.011-.031.011-.044.006-.007.02.005a.1.1,0,0,1,.023.036l.012.052c0,.007.021-.032.025-.04a.022.022,0,0,1,.016-.015c.009,0,.021,0,.025-.018s.015-.032,0-.052a.238.238,0,0,0-.03-.043.1.1,0,0,1-.019-.034l.027-.031c.006-.008.017,0,.018.007s-.009.017-.011.037.014.027.019.02a.127.127,0,0,0,.015-.026s-.008,0-.01-.017.014-.025.02-.021a.1.1,0,0,0,.058-.015c.016-.01.025-.032.034-.041s.041-.038.037-.052a.154.154,0,0,0-.016-.052.439.439,0,0,0-.032-.039c-.006-.008.017-.008.026-.019s-.005-.022-.01-.021a.075.075,0,0,1-.025,0c-.006,0-.011-.008-.021-.017s0-.02,0-.018.017-.012.021-.018.013-.011.012,0,0,.029.006.031.025-.017.028-.016a.04.04,0,0,1,.012.026c0,.007,0,.02.006.019s.01-.012.013-.008.016.012.014.026-.012.018,0,.028.018,0,.027,0,.009-.033,0-.043a.222.222,0,0,1-.028-.034c0-.006.02,0,.017-.015a.016.016,0,0,1,.009-.02c.006,0,.011-.019.016-.013s.027.013.03.006a.3.3,0,0,1,.032-.045.05.05,0,0,0,.007-.046.1.1,0,0,0-.012-.041.153.153,0,0,1,.027.044.311.311,0,0,0,.022.045s.016.013.02.011-.014-.027-.016-.032a.009.009,0,0,1,.005-.012s-.011-.022-.02-.031-.02-.015-.016-.016,0-.01,0-.012-.007-.011-.013-.01-.02,0-.014.006a.042.042,0,0,0-.026-.019c-.009,0-.011.005-.02,0s-.011-.017-.015-.018-.005.014-.015,0,0-.018.017-.022.017-.036.027-.035.038.008.059.011.022-.007.033,0a.123.123,0,0,0,.04.017c.008,0,.005,0,.011-.008s.015-.013.015-.021.014-.011.022,0,.012.018.02.02.013-.005.02-.008a.025.025,0,0,0,.01-.006s-.016.024-.022.029-.026.005-.027.017a.034.034,0,0,0,.006.031c.011.015.041.038.04.051a.109.109,0,0,0,.007.032.053.053,0,0,1,.013-.028.058.058,0,0,0,.012-.032c0-.006.02,0,.014-.012a.122.122,0,0,1-.011-.026c0-.008-.011-.008-.013-.018s-.01-.02.02-.014.022.006.046.01.022-.008.039-.009a.081.081,0,0,1,.041,0C381,344.306,381.008,344.306,380.994,344.3Zm-1.756-.2c0-.021.034.006.03.016S379.236,344.113,379.238,344.1Zm1.6,1.462s0,0,0-.011.02-.023,0-.015a.045.045,0,0,0-.016.018.117.117,0,0,1-.021.023c-.006,0-.028.015-.026.018s.022-.006.012,0-.027.018-.021.017a.14.14,0,0,0,.032-.02.4.4,0,0,1,.034-.022c.012-.006.016-.014.012-.013S380.845,345.564,380.842,345.561Zm-.879-1.661c0-.008-.01-.011,0,0Zm.525.847c-.016,0-.024.044-.01.043S380.5,344.745,380.488,344.747Zm-.023.213c0,.012.028-.019.037-.03s.024-.006.028-.012l0-.007-.023-.006c-.01,0-.023.011-.017-.01s.023-.017.02-.032a.023.023,0,0,0-.019-.02c-.008,0,0,.014-.01.023s-.024.013-.017.029.03.027.024.034S380.468,344.948,380.465,344.96Zm.207-.458c.013.011.021,0,.036,0a.111.111,0,0,0,.027,0s.023,0,.015-.009a.05.05,0,0,0-.036-.015s-.017-.015-.025-.013-.005.014,0,.017S380.658,344.492,380.672,344.5Zm-.273.555c-.021,0-.025.021-.03.025a.055.055,0,0,1-.019.009c-.009,0-.013.014-.017.021s-.016-.011-.021-.006a.09.09,0,0,0,0,.052.041.041,0,0,0,.027.033.077.077,0,0,1,.024,0c.007,0,.032,0,.033-.009a.065.065,0,0,1,.017-.042c.013-.012.026-.019.023-.036s-.012-.027,0-.035.018-.011.019-.018-.021.019-.018-.024c0-.009-.018,0-.021.012S380.42,345.057,380.4,345.057Zm-.459-.063c-.007,0-.02.072-.007.077s.026-.043.022-.05S379.95,344.989,379.939,344.994Zm.257.043a.3.3,0,0,0,.015.058c0,.009.02.022.026.029s.017,0,.014-.011a.084.084,0,0,1-.011-.029.107.107,0,0,0-.011-.04c-.007-.016-.015-.02-.02-.031a.183.183,0,0,0-.024-.031c-.009,0-.01.022-.007.029S380.193,345.013,380.2,345.038Zm-.01.17c0,.005.041.012.043.023s.011.012.015,0a.107.107,0,0,1,.016-.041c.007-.008.007-.02,0-.018s-.014-.017-.026-.028a.164.164,0,0,1-.034-.036.276.276,0,0,0-.035-.037.032.032,0,0,0-.027-.011c-.014,0,.017.032.02.036s.029.034.027.049A.2.2,0,0,0,380.186,345.208Zm.355-.272s-.021.027,0,.025A.013.013,0,1,0,380.541,344.936Zm-.012.041c0-.007-.014-.027-.027-.021s-.015.025,0,.024S380.533,344.983,380.529,344.977Zm.235.2c0-.006,0-.022-.021-.024s-.018-.008-.033-.017a.075.075,0,0,0-.058,0c0,.006,0,0-.012,0s-.023,0-.025-.007-.009-.011-.021,0-.015.011,0,.014.024,0,.013.013-.019.024-.013.024.028-.007.029,0-.006.007.015.009.023.01.026.015.011.02,0,.02-.023.014-.017.015.028-.006.027,0,0,.026.013.023.026-.025.034-.031.031-.012.029,0a.024.024,0,0,0,.01.027c.01.006.022.011.026.005s.005-.028,0-.031a.032.032,0,0,1-.012-.03C380.781,345.189,380.769,345.188,380.764,345.182Zm-.3-.052.045-.007c.005,0,.017-.017.012-.017l-.041.009a.1.1,0,0,1-.023,0C380.447,345.123,380.451,345.132,380.464,345.13Zm.086.007c.013,0,.032-.043.025-.046S380.537,345.134,380.549,345.137Zm.054-.544a.092.092,0,0,1-.014.018s-.021,0-.014.015.017.03.024.03.015,0,.012-.018.016,0,.023,0,.01-.009.011-.019v0a.014.014,0,0,0,.011.012c.014,0,.016-.005.016-.009s.022-.008.026-.012.02-.008.02-.013-.009-.033,0-.035.013,0,0-.019-.02-.034-.029-.027.006.027,0,.041,0,.028-.008.027a.06.06,0,0,0-.03.015C380.642,344.6,380.606,344.586,380.6,344.592Z" transform="translate(-376.684 -343.612)" fill="#fff"/>
        </g>
      </g>
    </g>
    <path id="Trazado_624714" data-name="Trazado 624714" d="M0,0H2.088V.35H0Z" transform="translate(836.01 9515.469)" fill="#fff"/>
    <path id="Trazado_624715" data-name="Trazado 624715" d="M0,0H2.088V.35H0Z" transform="translate(836.01 9516.222)" fill="#fff"/>
    <path id="Trazado_624716" data-name="Trazado 624716" d="M0,0H2.088V.35H0Z" transform="translate(836.01 9516.974)" fill="#fff"/>
    <path id="Trazado_621069" data-name="Trazado 621069" d="M781.37,346.071a.732.732,0,1,1-.732.732.733.733,0,0,1,.732-.732m0-.337a1.069,1.069,0,1,0,1.069,1.069,1.069,1.069,0,0,0-1.069-1.069Z" transform="translate(51.473 9169.619)" fill="#fff"/>
    <path id="Trazado_621070" data-name="Trazado 621070" d="M453.215,401.974h-61.6a3.339,3.339,0,0,1-3.339-3.339h0a3.339,3.339,0,0,1,3.339-3.339h61.6a3.339,3.339,0,0,1,3.339,3.339h0A3.339,3.339,0,0,1,453.215,401.974Z" transform="translate(377.504 9128.4)" fill="#fff"/>
    <path id="Trazado_621071" data-name="Trazado 621071" d="M738.156,395.3h-7.262v6.678h7.262a3.339,3.339,0,0,0,3.339-3.339h0A3.339,3.339,0,0,0,738.156,395.3Z" transform="translate(92.563 9128.4)" fill="#08839c"/>
    <path id="Trazado_621072" data-name="Trazado 621072" d="M750.32,406.5l-.779-.779a.309.309,0,0,0-.242-.09l-.248-.248a1.43,1.43,0,0,0,.235-.57h0v0c0-.026.008-.053.011-.079v-.006c0-.041.008-.081.009-.122V404.6c0-.025,0-.049,0-.074v-.008c0-.039,0-.078-.008-.117l0-.017c0-.019-.005-.038-.008-.057l0-.021c0-.011,0-.022-.006-.033l-.006-.027c0-.015-.007-.03-.011-.045l-.008-.029-.008-.027-.015-.047-.008-.024-.015-.038-.01-.024-.018-.042-.009-.019-.025-.05-.008-.015-.024-.044-.007-.012-.031-.051-.009-.013-.035-.05-.005-.007-.035-.046-.008-.01-.041-.048-.009-.01-.046-.048a1.439,1.439,0,1,0-.083,2.111l.216.216a.309.309,0,0,0,.083.289l.779.779a.31.31,0,0,0,.438-.439Zm-1.706-1.354-.16.16h0a.946.946,0,1,1,.16-.16Z" transform="translate(79.64 9121.89)" fill="#fff"/>
    <path id="Trazado_621079" data-name="Trazado 621079" d="M398.5,461.5h-4.98a.545.545,0,0,1-.545-.545h0a.545.545,0,0,1,.545-.545h4.98a.545.545,0,0,1,.545.545h0A.545.545,0,0,1,398.5,461.5Z" transform="translate(373.596 9074.252)" fill="#08839c"/>
    <g id="Grupo_878313" data-name="Grupo 878313" transform="translate(766.57 9541.69)">
      <path id="Trazado_621080" data-name="Trazado 621080" d="M432.168,503.276H393.52a.545.545,0,0,1-.545-.545h0a.545.545,0,0,1,.545-.545h38.648a.545.545,0,0,1,.545.545h0A.545.545,0,0,1,432.168,503.276Z" transform="translate(-392.975 -502.186)" fill="#08839c"/>
      <rect id="Rectángulo_327390" data-name="Rectángulo 327390" width="23.751" height="1.09" rx="0.545" transform="translate(12.858 3.914)" fill="#5ed2d5"/>
      <path id="Trazado_621081" data-name="Trazado 621081" d="M501.819,543.471H469.9a.545.545,0,0,1-.545-.545h0a.545.545,0,0,1,.545-.545h31.919a.545.545,0,0,1,.545.545h0A.545.545,0,0,1,501.819,543.471Z" transform="translate(-456.497 -535.615)" fill="#d0d1d1"/>
      <path id="Trazado_621082" data-name="Trazado 621082" d="M512.762,560.414H469.9a.545.545,0,0,1-.545-.545h0a.545.545,0,0,1,.545-.545h42.861a.545.545,0,0,1,.545.545h0A.545.545,0,0,1,512.762,560.414Z" transform="translate(-456.497 -549.705)" fill="#d0d1d1"/>
      <rect id="Rectángulo_327391" data-name="Rectángulo 327391" width="38.06" height="1.09" rx="0.545" transform="translate(12.858 12.099)" fill="#d0d1d1"/>
      <rect id="Rectángulo_327392" data-name="Rectángulo 327392" width="51.19" height="1.09" rx="0.545" transform="translate(0 15.055)" fill="#d0d1d1"/>
      <rect id="Rectángulo_327393" data-name="Rectángulo 327393" width="10.843" height="10.843" rx="5.422" transform="translate(0 2.77)" fill="#bac6c9"/>
    </g>
    <g id="Grupo_878314" data-name="Grupo 878314" transform="translate(766.57 9561.924)">
      <path id="Trazado_621083" data-name="Trazado 621083" d="M432.168,623.466H393.52a.545.545,0,0,1-.545-.545h0a.545.545,0,0,1,.545-.545h38.648a.545.545,0,0,1,.545.545h0A.545.545,0,0,1,432.168,623.466Z" transform="translate(-392.975 -622.376)" fill="#08839c"/>
      <path id="Trazado_621084" data-name="Trazado 621084" d="M492.561,646.718H469.9a.545.545,0,0,1-.545-.545h0a.545.545,0,0,1,.545-.545h22.66a.545.545,0,0,1,.545.545h0A.545.545,0,0,1,492.561,646.718Z" transform="translate(-456.497 -641.714)" fill="#5ed2d5"/>
      <path id="Trazado_621085" data-name="Trazado 621085" d="M504.345,663.661H469.9a.545.545,0,0,1-.545-.545h0a.545.545,0,0,1,.545-.545h34.444a.545.545,0,0,1,.545.545h0A.545.545,0,0,1,504.345,663.661Z" transform="translate(-456.497 -655.805)" fill="#d0d1d1"/>
      <path id="Trazado_621086" data-name="Trazado 621086" d="M512.762,680.6H469.9a.545.545,0,0,1-.545-.545h0a.545.545,0,0,1,.545-.545h42.861a.545.545,0,0,1,.545.545h0A.545.545,0,0,1,512.762,680.6Z" transform="translate(-456.497 -669.895)" fill="#d0d1d1"/>
      <path id="Trazado_621087" data-name="Trazado 621087" d="M512.762,695.338H469.9a.545.545,0,0,1-.545-.545h0a.545.545,0,0,1,.545-.545h42.861a.545.545,0,0,1,.545.545h0A.545.545,0,0,1,512.762,695.338Z" transform="translate(-456.497 -682.149)" fill="#d0d1d1"/>
      <path id="Trazado_621088" data-name="Trazado 621088" d="M436.045,712.894H393.52a.545.545,0,0,1-.545-.545h0a.545.545,0,0,1,.545-.545h42.525a.545.545,0,0,1,.545.545h0A.545.545,0,0,1,436.045,712.894Z" transform="translate(-392.975 -696.75)" fill="#d0d1d1"/>
      <rect id="Rectángulo_327394" data-name="Rectángulo 327394" width="10.843" height="10.843" rx="5.422" transform="translate(0 2.77)" fill="#bac6c9"/>
    </g>
    <g id="Grupo_878315" data-name="Grupo 878315" transform="translate(766.57 9582.998)">
      <path id="Trazado_621089" data-name="Trazado 621089" d="M442.269,748.656H393.52a.545.545,0,0,1-.545-.545h0a.545.545,0,0,1,.545-.545h48.749a.545.545,0,0,1,.545.545h0A.545.545,0,0,1,442.269,748.656Z" transform="translate(-392.975 -747.566)" fill="#08839c"/>
      <path id="Trazado_621090" data-name="Trazado 621090" d="M492.561,771.907H469.9a.545.545,0,0,1-.545-.545h0a.545.545,0,0,1,.545-.545h22.66a.545.545,0,0,1,.545.545h0A.545.545,0,0,1,492.561,771.907Z" transform="translate(-456.497 -766.903)" fill="#5ed2d5"/>
      <path id="Trazado_621091" data-name="Trazado 621091" d="M519.5,788.851H469.9a.545.545,0,0,1-.545-.545h0a.545.545,0,0,1,.545-.545h49.6a.545.545,0,0,1,.545.545h0A.545.545,0,0,1,519.5,788.851Z" transform="translate(-456.497 -780.995)" fill="#d0d1d1"/>
      <path id="Trazado_621092" data-name="Trazado 621092" d="M519.5,805.794H469.9a.545.545,0,0,1-.545-.545h0a.545.545,0,0,1,.545-.545h49.6a.545.545,0,0,1,.545.545h0A.545.545,0,0,1,519.5,805.794Z" transform="translate(-456.497 -795.085)" fill="#d0d1d1"/>
      <path id="Trazado_621093" data-name="Trazado 621093" d="M512.762,820.528H469.9a.545.545,0,0,1-.545-.545h0a.545.545,0,0,1,.545-.545h42.861a.545.545,0,0,1,.545.545h0A.545.545,0,0,1,512.762,820.528Z" transform="translate(-456.497 -807.339)" fill="#d0d1d1"/>
      <path id="Trazado_621094" data-name="Trazado 621094" d="M444.462,838.084H393.52a.545.545,0,0,1-.545-.545h0a.545.545,0,0,1,.545-.545h50.942a.545.545,0,0,1,.545.545h0A.545.545,0,0,1,444.462,838.084Z" transform="translate(-392.975 -821.939)" fill="#d0d1d1"/>
      <rect id="Rectángulo_327395" data-name="Rectángulo 327395" width="10.843" height="10.843" rx="5.422" transform="translate(0 2.77)" fill="#bac6c9"/>
    </g>
    <path id="Trazado_621095" data-name="Trazado 621095" d="M450.674,461.5h-4.98a.545.545,0,0,1-.545-.545h0a.545.545,0,0,1,.545-.545h4.98a.545.545,0,0,1,.545.545h0A.545.545,0,0,1,450.674,461.5Z" transform="translate(330.204 9074.252)" fill="#d0d1d1"/>
    <path id="Trazado_621096" data-name="Trazado 621096" d="M502.848,461.5h-4.98a.545.545,0,0,1-.545-.545h0a.545.545,0,0,1,.545-.545h4.98a.545.545,0,0,1,.545.545h0A.545.545,0,0,1,502.848,461.5Z" transform="translate(286.813 9074.252)" fill="#d0d1d1"/>
    <path id="Trazado_621097" data-name="Trazado 621097" d="M555.022,461.5h-4.98a.545.545,0,0,1-.545-.545h0a.545.545,0,0,1,.545-.545h4.98a.545.545,0,0,1,.545.545h0A.545.545,0,0,1,555.022,461.5Z" transform="translate(243.423 9074.252)" fill="#d0d1d1"/>
    <path id="Trazado_621098" data-name="Trazado 621098" d="M607.2,461.5h-4.98a.545.545,0,0,1-.545-.545h0a.545.545,0,0,1,.545-.545h4.98a.545.545,0,0,1,.545.545h0A.545.545,0,0,1,607.2,461.5Z" transform="translate(200.032 9074.252)" fill="#d0d1d1"/>
    <g id="Grupo_878317" data-name="Grupo 878317" transform="translate(806.532 9563.851)">
      <path id="Trazado_621099" data-name="Trazado 621099" d="M671.842,654.055a14.125,14.125,0,1,1-18.591-7.308A14.125,14.125,0,0,1,671.842,654.055Z" transform="translate(-642.339 -643.591)" fill="#f2f2f2" opacity="0.4"/>
      <path id="Trazado_621100" data-name="Trazado 621100" d="M668.88,688.271a10.169,10.169,0,0,1,4.707-11.974.922.922,0,0,1,1.289.445h0a.932.932,0,0,1-.408,1.184,8.315,8.315,0,0,0-3.833,9.751.932.932,0,0,1-.507,1.145h0A.922.922,0,0,1,668.88,688.271Z" transform="translate(-661.988 -669.052)" fill="#fff"/>
      <path id="Trazado_621101" data-name="Trazado 621101" d="M640.2,635.191a16.388,16.388,0,1,0,21.57,8.479A16.389,16.389,0,0,0,640.2,635.191Zm11.7,26.861a12.911,12.911,0,1,1,6.68-16.993A12.912,12.912,0,0,1,651.905,662.052Z" transform="translate(-630.356 -633.823)" fill="#29394e"/>
      <rect id="Rectángulo_327396" data-name="Rectángulo 327396" width="4.285" height="25.813" transform="matrix(0.917, -0.399, 0.399, 0.917, 20.681, 30.839)" fill="#29394e"/>
      <rect id="Rectángulo_327397" data-name="Rectángulo 327397" width="6.553" height="23.124" rx="3.277" transform="translate(21.449 35.546) rotate(-23.54)" fill="#c25600"/>
      <path id="Trazado_621102" data-name="Trazado 621102" d="M763.348,844.856l7.541,17.309a1.892,1.892,0,0,0,2.489.979l2.54-1.106a1.891,1.891,0,0,0,.979-2.489l-7.54-17.309Z" transform="translate(-740.96 -807.154)" fill="#29394e"/>
      <path id="Trazado_621103" data-name="Trazado 621103" d="M766.447,849.767l-3.1,1.35,7.541,17.309a1.892,1.892,0,0,0,2.489.978l1.255-.547Z" transform="translate(-740.96 -813.414)" opacity="0.15" style="mix-blend-mode: multiply;isolation: isolate"/>
    </g>
    <path id="Trazado_621104" data-name="Trazado 621104" d="M654.274,653.67a16.389,16.389,0,1,0-10.206,22.209l1.372,3.149a1.892,1.892,0,0,0-.379,2.074l4.155,9.537h7.148l-5.111-11.732-.184-.422a1.89,1.89,0,0,0-1.685-1.134l-1.418-3.256A16.392,16.392,0,0,0,654.274,653.67Zm-9.869,18.382a12.911,12.911,0,1,1,6.68-16.993A12.912,12.912,0,0,1,644.405,672.052Z" transform="translate(182.413 8921.711)" opacity="0.15" style="mix-blend-mode: multiply;isolation: isolate"/>
  </g>
</svg>
