<svg xmlns="http://www.w3.org/2000/svg" width="715" height="402" viewBox="0 0 715 402">
  <g id="Grupo_1034303" data-name="Grupo 1034303" transform="translate(-11240.332 -70.601)">
    <path id="concept-diversity-inclusion-equality-conceptual-photos" d="M19,0H696a19,19,0,0,1,19,19V383a19,19,0,0,1-19,19H19A19,19,0,0,1,0,383V19A19,19,0,0,1,19,0Z" transform="translate(11240.332 70.601)" fill="#fff"/>
    <g id="Grupo_878880" data-name="Grupo 878880" transform="translate(11381.229 63.761)">
      <g id="Background_Complete" data-name="Background Complete" transform="translate(18.077 29.562)">
        <g id="Grupo_878565" data-name="Grupo 878565">
          <g id="Grupo_878564" data-name="Grupo 878564">
            <path id="Trazado_621454" data-name="Trazado 621454" d="M80.182,62.971A31.053,31.053,0,1,0,22.364,78.659h-.017l.088.117c1.19,2.006,2.682,3.441,4.19,5.549l18.03,23.883a5.607,5.607,0,0,0,8.951,0l17.729-23.49a66.873,66.873,0,0,0,4.51-5.975l.064-.085H75.9A30.856,30.856,0,0,0,80.182,62.971ZM49.13,76.491A13.666,13.666,0,1,1,62.8,62.826,13.666,13.666,0,0,1,49.13,76.491Z" transform="translate(-18.077 -31.919)" fill="#f5f5f5"/>
          </g>
        </g>
        <g id="Grupo_878567" data-name="Grupo 878567" transform="translate(369.672 205.705)">
          <g id="Grupo_878566" data-name="Grupo 878566">
            <path id="Trazado_621455" data-name="Trazado 621455" d="M480.522,287.7a13.69,13.69,0,1,0-25.49,6.917h-.008l.039.051c.525.885,1.183,1.518,1.847,2.447l7.948,10.529a2.472,2.472,0,0,0,3.946,0l7.816-10.355a29.6,29.6,0,0,0,1.988-2.634l.028-.037h-.005A13.612,13.612,0,0,0,480.522,287.7Zm-13.689,5.961a6.024,6.024,0,1,1,6.024-6.024A6.025,6.025,0,0,1,466.832,293.662Z" transform="translate(-453.142 -274.012)" fill="#f5f5f5"/>
          </g>
        </g>
        <g id="Grupo_878578" data-name="Grupo 878578" transform="translate(264.188 254.657)">
          <g id="Grupo_878569" data-name="Grupo 878569" transform="translate(12.949)">
            <g id="Grupo_878568" data-name="Grupo 878568">
              <circle id="Elipse_6999" data-name="Elipse 6999" cx="34.277" cy="34.277" r="34.277" transform="translate(0 48.475) rotate(-45)" fill="#f5f5f5"/>
            </g>
          </g>
          <g id="Grupo_878571" data-name="Grupo 878571" transform="translate(32.895 19.946)">
            <g id="Grupo_878570" data-name="Grupo 878570">
              <path id="Trazado_621456" data-name="Trazado 621456" d="M396.241,412.156a28.529,28.529,0,1,1,28.529-28.528A28.561,28.561,0,0,1,396.241,412.156Zm0-52.175a23.647,23.647,0,1,0,23.647,23.647A23.673,23.673,0,0,0,396.241,359.98Z" transform="translate(-367.713 -355.098)" fill="#fff"/>
            </g>
          </g>
          <g id="Grupo_878573" data-name="Grupo 878573" transform="translate(50.726 37.214)">
            <g id="Grupo_878572" data-name="Grupo 878572">
              <path id="Trazado_621457" data-name="Trazado 621457" d="M399.2,396.435a10.507,10.507,0,1,1,10.507-10.506A10.518,10.518,0,0,1,399.2,396.435Zm0-16.131a5.625,5.625,0,1,0,5.625,5.625A5.631,5.631,0,0,0,399.2,380.3Z" transform="translate(-388.698 -375.421)" fill="#fff"/>
            </g>
          </g>
          <g id="Grupo_878575" data-name="Grupo 878575" transform="translate(19.007 47.721)">
            <g id="Grupo_878574" data-name="Grupo 878574">
              <path id="Trazado_621458" data-name="Trazado 621458" d="M393.594,387.787H380.312l2.316,4.1-31.26,14.327,1.055,1.758,31.365-14.161,2.149,4.07Z" transform="translate(-351.368 -387.787)" fill="#e0e0e0"/>
            </g>
          </g>
          <g id="Grupo_878577" data-name="Grupo 878577" transform="translate(0 64.021)">
            <g id="Grupo_878576" data-name="Grupo 878576">
              <path id="Trazado_621459" data-name="Trazado 621459" d="M348.006,409.094l-.331-.323a6.352,6.352,0,0,0-6.206-1.549L329,410.852l6.944,3.051-2.79,7.419,11.7-4.172a6.351,6.351,0,0,0,4.21-6.3h0Z" transform="translate(-328.999 -406.969)" fill="#e0e0e0"/>
            </g>
          </g>
        </g>
        <g id="Grupo_878594" data-name="Grupo 878594" transform="translate(108.819 276.865)">
          <g id="Grupo_878581" data-name="Grupo 878581" transform="translate(0)">
            <g id="Grupo_878580" data-name="Grupo 878580">
              <g id="Grupo_878579" data-name="Grupo 878579">
                <path id="Trazado_621460" data-name="Trazado 621460" d="M169.258,408.888a2.146,2.146,0,0,1,.257-.084l.738-.216,2.841-.811,10.625-2.982-.1.171c-.544-1.821-1.154-3.863-1.808-6.051l-.03-.1.085-.07a34.141,34.141,0,0,0,7.408-8.72,23.914,23.914,0,0,0,2.48-5.939,17.376,17.376,0,0,0,.4-6.8,21.448,21.448,0,0,0-6.983-12.744,25.685,25.685,0,0,0-14.464-6.226,21.178,21.178,0,0,0-11.617,2.323,23.214,23.214,0,0,0-8.653,7.282,20.96,20.96,0,0,0-3.723,9.892c-.05.855-.185,1.7-.165,2.537s.048,1.668.071,2.488a25.638,25.638,0,0,0,.85,4.71,21.992,21.992,0,0,0,1.728,4.181,20.714,20.714,0,0,0,2.451,3.475,22.947,22.947,0,0,0,5.917,4.775,30.536,30.536,0,0,0,10.539,3.643l.061.009.012.055.81,3.859c.087.424.153.753.2,1a3.526,3.526,0,0,1,.061.348,2.393,2.393,0,0,1-.086-.312c-.057-.235-.135-.555-.235-.967q-.315-1.342-.914-3.887l.072.065a30.141,30.141,0,0,1-10.664-3.559,23.138,23.138,0,0,1-6.029-4.8,20.944,20.944,0,0,1-2.512-3.522,22.269,22.269,0,0,1-1.78-4.249,25.948,25.948,0,0,1-.882-4.784q-.041-1.248-.082-2.525c-.022-.852.11-1.71.16-2.581a21.344,21.344,0,0,1,3.775-10.1,23.6,23.6,0,0,1,8.81-7.437,21.607,21.607,0,0,1,11.863-2.376,26.088,26.088,0,0,1,14.725,6.35,21.2,21.2,0,0,1,4.768,6.043,13.1,13.1,0,0,1,.811,1.7,12.164,12.164,0,0,1,.668,1.734c.178.59.372,1.172.535,1.757q.161.9.319,1.792a17.755,17.755,0,0,1-.431,6.958,24.274,24.274,0,0,1-2.545,6.03,34.26,34.26,0,0,1-7.539,8.78l.054-.172c.638,2.194,1.234,4.239,1.765,6.064l.039.135-.135.036-10.745,2.857-2.829.739-.721.182A1.591,1.591,0,0,1,169.258,408.888Z" transform="translate(-146.145 -357.76)" fill="#e0e0e0"/>
              </g>
            </g>
          </g>
          <g id="Grupo_878584" data-name="Grupo 878584" transform="translate(24.026 51.125)">
            <g id="Grupo_878583" data-name="Grupo 878583">
              <g id="Grupo_878582" data-name="Grupo 878582">
                <path id="Trazado_621461" data-name="Trazado 621461" d="M189.316,417.942a64.341,64.341,0,0,1-7.386,2.263,64.2,64.2,0,0,1-7.509,1.815,64.2,64.2,0,0,1,7.386-2.263A64.533,64.533,0,0,1,189.316,417.942Z" transform="translate(-174.422 -417.929)" fill="#e0e0e0"/>
              </g>
            </g>
          </g>
          <g id="Grupo_878587" data-name="Grupo 878587" transform="translate(30.341 58.062)">
            <g id="Grupo_878586" data-name="Grupo 878586">
              <g id="Grupo_878585" data-name="Grupo 878585">
                <path id="Trazado_621462" data-name="Trazado 621462" d="M187.149,426.119a9.338,9.338,0,0,1-5.3,1.27,13,13,0,0,1,2.634-.693A13.027,13.027,0,0,1,187.149,426.119Z" transform="translate(-181.853 -426.094)" fill="#e0e0e0"/>
              </g>
            </g>
          </g>
          <g id="Grupo_878590" data-name="Grupo 878590" transform="translate(17.362 21.042)">
            <g id="Grupo_878589" data-name="Grupo 878589">
              <g id="Grupo_878588" data-name="Grupo 878588">
                <path id="Trazado_621463" data-name="Trazado 621463" d="M175.366,411.78a1.015,1.015,0,0,1-.083-.242c-.051-.188-.116-.425-.2-.721-.172-.669-.41-1.6-.715-2.782-.609-2.455-1.476-5.948-2.544-10.25-.531-2.168-1.111-4.54-1.735-7.083a4.9,4.9,0,0,0-.745-1.753,1.241,1.241,0,0,0-1.55-.515,1.8,1.8,0,0,0-.8,1.619,2.774,2.774,0,0,0,.757,1.829,4.482,4.482,0,0,0,3.932,1.305,4.577,4.577,0,0,0,3.447-2.61,6.843,6.843,0,0,0,.492-4.609,4.084,4.084,0,0,0-1.056-2.078,1.679,1.679,0,0,0-2.037-.283,1.7,1.7,0,0,0-.383,2.027,4.607,4.607,0,0,0,1.586,1.739,8.559,8.559,0,0,0,4.344,1.793,4.818,4.818,0,0,0,2.229-.334,4.514,4.514,0,0,0,1.738-1.354,3.541,3.541,0,0,0,.784-1.972,2.564,2.564,0,0,0-.642-1.9,1.726,1.726,0,0,0-1.743-.6,2.115,2.115,0,0,0-1.291,1.343c-.422,1.251-.049,2.643.1,3.921.412,2.583.875,4.982,1.3,7.169.877,4.344,1.589,7.871,2.089,10.348.242,1.2.432,2.138.57,2.814.056.3.1.543.138.734a1.068,1.068,0,0,1,.032.253.981.981,0,0,1-.078-.243c-.048-.189-.109-.427-.184-.724-.157-.672-.376-1.608-.655-2.8-.552-2.432-1.339-5.954-2.236-10.323-.444-2.186-.926-4.581-1.356-7.173-.094-.653-.207-1.307-.275-1.993a4.919,4.919,0,0,1,.172-2.128,2.52,2.52,0,0,1,1.556-1.606,2.15,2.15,0,0,1,2.178.712,2.993,2.993,0,0,1,.762,2.217,3.974,3.974,0,0,1-.869,2.22,4.967,4.967,0,0,1-1.91,1.495,5.265,5.265,0,0,1-2.44.375,8.993,8.993,0,0,1-4.588-1.875,5.049,5.049,0,0,1-1.737-1.926,2.158,2.158,0,0,1,.539-2.589,2.134,2.134,0,0,1,2.622.319,4.518,4.518,0,0,1,1.191,2.312,7.291,7.291,0,0,1-.535,4.922,5.025,5.025,0,0,1-3.791,2.844,4.9,4.9,0,0,1-4.315-1.461,3.2,3.2,0,0,1-.856-2.117,2.2,2.2,0,0,1,1.038-1.983,1.486,1.486,0,0,1,1.167-.054,1.919,1.919,0,0,1,.88.7,5.275,5.275,0,0,1,.8,1.9l1.68,7.1c1.007,4.316,1.825,7.821,2.4,10.284.268,1.19.478,2.128.63,2.8.062.3.112.54.152.732A1.081,1.081,0,0,1,175.366,411.78Z" transform="translate(-166.578 -382.524)" fill="#e0e0e0"/>
              </g>
            </g>
          </g>
          <g id="Grupo_878593" data-name="Grupo 878593" transform="translate(26.293 54.299)">
            <g id="Grupo_878592" data-name="Grupo 878592">
              <g id="Grupo_878591" data-name="Grupo 878591">
                <path id="Trazado_621464" data-name="Trazado 621464" d="M189.175,421.679a42.359,42.359,0,0,1-5.981,1.875,42.48,42.48,0,0,1-6.105,1.427,42.385,42.385,0,0,1,5.983-1.875A42.566,42.566,0,0,1,189.175,421.679Z" transform="translate(-177.089 -421.664)" fill="#e0e0e0"/>
              </g>
            </g>
          </g>
        </g>
      </g>
      <g id="Floor" transform="translate(34.034 399.754)">
        <g id="Grupo_878596" data-name="Grupo 878596" transform="translate(0)">
          <g id="Grupo_878595" data-name="Grupo 878595">
            <path id="Trazado_621465" data-name="Trazado 621465" d="M399.069,467.818c0,.122-81.09.221-181.1.221-100.042,0-181.115-.1-181.115-.221s81.073-.222,181.115-.222C317.979,467.6,399.069,467.7,399.069,467.818Z" transform="translate(-36.857 -467.596)" fill="#263238"/>
          </g>
        </g>
      </g>
      <g id="Screen" transform="translate(48.958 57.962)">
        <g id="Grupo_878646" data-name="Grupo 878646">
          <g id="Grupo_878597" data-name="Grupo 878597" transform="translate(0.221 0.222)">
            <rect id="Rectángulo_327464" data-name="Rectángulo 327464" width="332.105" height="21.275" fill="#e0e0e0"/>
          </g>
          <g id="Grupo_878598" data-name="Grupo 878598" transform="translate(0.172 41.041)">
            <rect id="Rectángulo_327465" data-name="Rectángulo 327465" width="332.105" height="186.252" fill="#fff"/>
          </g>
          <g id="Grupo_878599" data-name="Grupo 878599" transform="translate(0.221 8.179)">
            <path id="Trazado_621466" data-name="Trazado 621466" d="M54.681,88.128h45.6L104.8,74.968h73.917l4.519,13.159H386.786v20.147H54.681Z" transform="translate(-54.681 -74.968)" fill="#ebebeb"/>
          </g>
          <g id="Grupo_878600" data-name="Grupo 878600" transform="translate(6.189 6.208)">
            <path id="Trazado_621467" data-name="Trazado 621467" d="M66.7,75.145a2.5,2.5,0,1,1-2.5-2.5A2.5,2.5,0,0,1,66.7,75.145Z" transform="translate(-61.705 -72.649)" fill="#263238"/>
          </g>
          <g id="Grupo_878601" data-name="Grupo 878601" transform="translate(13.914 6.208)">
            <path id="Trazado_621468" data-name="Trazado 621468" d="M75.787,75.145a2.5,2.5,0,1,1-2.5-2.5A2.5,2.5,0,0,1,75.787,75.145Z" transform="translate(-70.796 -72.649)" fill="#263238"/>
          </g>
          <g id="Grupo_878602" data-name="Grupo 878602" transform="translate(21.637 6.208)">
            <path id="Trazado_621469" data-name="Trazado 621469" d="M84.878,75.145a2.5,2.5,0,1,1-2.5-2.5A2.5,2.5,0,0,1,84.878,75.145Z" transform="translate(-79.886 -72.649)" fill="#263238"/>
          </g>
          <g id="Grupo_878603" data-name="Grupo 878603" transform="translate(61.448 24.832)">
            <path id="Trazado_621470" data-name="Trazado 621470" d="M360.908,107.215H133.062a6.323,6.323,0,0,1-6.323-6.323h0a6.322,6.322,0,0,1,6.323-6.323H360.908a6.322,6.322,0,0,1,6.323,6.323h0A6.323,6.323,0,0,1,360.908,107.215Z" transform="translate(-126.739 -94.568)" fill="#fafafa"/>
          </g>
          <g id="Grupo_878604" data-name="Grupo 878604" transform="translate(69.41 28.293)">
            <path id="Trazado_621471" data-name="Trazado 621471" d="M139.924,102.468V104.6h-1.082v-1.97c0-.6-.278-.881-.756-.881-.52,0-.895.319-.895,1.006V104.6h-1.083V99.458h1.083v1.8a1.639,1.639,0,0,1,1.186-.444A1.463,1.463,0,0,1,139.924,102.468Z" transform="translate(-136.109 -98.764)" fill="#e0e0e0"/>
            <path id="Trazado_621472" data-name="Trazado 621472" d="M144.081,104.529a1.553,1.553,0,0,1-.881.235,1.23,1.23,0,0,1-1.394-1.338v-1.534h-.575v-.832h.575v-.908h1.083v.908h.93v.832h-.93v1.52a.435.435,0,0,0,.465.492.731.731,0,0,0,.437-.139Z" transform="translate(-136.879 -98.868)" fill="#e0e0e0"/>
            <path id="Trazado_621473" data-name="Trazado 621473" d="M147.535,104.529a1.553,1.553,0,0,1-.881.235,1.23,1.23,0,0,1-1.394-1.338v-1.534h-.575v-.832h.575v-.908h1.083v.908h.93v.832h-.93v1.52a.435.435,0,0,0,.465.492.731.731,0,0,0,.437-.139Z" transform="translate(-137.398 -98.868)" fill="#e0e0e0"/>
            <path id="Trazado_621474" data-name="Trazado 621474" d="M152.823,102.979a1.812,1.812,0,0,1-1.859,1.921,1.447,1.447,0,0,1-1.123-.45v1.741h-1.083v-5.078h1.034v.43a1.448,1.448,0,0,1,1.172-.485A1.812,1.812,0,0,1,152.823,102.979Zm-1.1,0a.954.954,0,1,0-.95,1.033A.941.941,0,0,0,151.727,102.979Z" transform="translate(-138.01 -99.004)" fill="#e0e0e0"/>
            <path id="Trazado_621475" data-name="Trazado 621475" d="M154.082,101.731a.673.673,0,0,1,1.346,0,.673.673,0,1,1-1.346,0Zm0,2.49a.673.673,0,0,1,1.346,0,.673.673,0,1,1-1.346,0Z" transform="translate(-138.81 -99.005)" fill="#e0e0e0"/>
            <path id="Trazado_621476" data-name="Trazado 621476" d="M158.4,98.641h.964l-2.289,6.534h-.964Z" transform="translate(-139.115 -98.641)" fill="#e0e0e0"/>
            <path id="Trazado_621477" data-name="Trazado 621477" d="M161,98.641h.964l-2.289,6.534h-.964Z" transform="translate(-139.506 -98.641)" fill="#e0e0e0"/>
          </g>
          <g id="Grupo_878608" data-name="Grupo 878608" transform="translate(85.486 51.898)">
            <g id="Grupo_878605" data-name="Grupo 878605" transform="translate(0.207 0.221)">
              <path id="Trazado_621478" data-name="Trazado 621478" d="M364.991,149.1H166.48a11.209,11.209,0,0,1-11.208-11.208h0a11.208,11.208,0,0,1,11.208-11.208h198.51A11.208,11.208,0,0,1,376.2,137.889h0A11.209,11.209,0,0,1,364.991,149.1Z" transform="translate(-155.272 -126.681)" fill="#fafafa"/>
            </g>
            <g id="Grupo_878607" data-name="Grupo 878607">
              <g id="Grupo_878606" data-name="Grupo 878606">
                <path id="Trazado_621479" data-name="Trazado 621479" d="M364.954,149.059a11.831,11.831,0,0,0,4.588-1.039,11.271,11.271,0,0,0,6.032-6.826,11.3,11.3,0,0,0,.464-4.1,11.025,11.025,0,0,0-4.6-8.242,10.99,10.99,0,0,0-5.134-2,26.009,26.009,0,0,0-2.966-.086l-3.1.005L331.7,126.8l-165.247.065a10.99,10.99,0,0,0-5.138,20.7,11.284,11.284,0,0,0,5.512,1.274l11.511,0,43.875.014,74.291.047,50.084.071,13.617.042,3.541.022c.8.008,1.207.023,1.207.023s-.409.014-1.207.022l-3.541.022-13.617.042-50.084.071-74.291.047-43.875.014-11.511,0a11.736,11.736,0,0,1-5.718-1.323,11.432,11.432,0,0,1,5.344-21.533l165.247.065,28.539.032,3.1.005a25.9,25.9,0,0,1,2.993.1,11.208,11.208,0,0,1,5.23,2.058,11.226,11.226,0,0,1,2.476,15.836,11.2,11.2,0,0,1-4.457,3.588,11.577,11.577,0,0,1-3.417.913C365.363,149.059,364.954,149.059,364.954,149.059Z" transform="translate(-155.029 -126.421)" fill="#263238"/>
              </g>
            </g>
          </g>
          <g id="Grupo_878609" data-name="Grupo 878609" transform="translate(101.449 60.53)">
            <path id="Trazado_621480" data-name="Trazado 621480" d="M173.816,141.805l.424-.94a3.167,3.167,0,0,0,1.778.563c.739,0,1.04-.246,1.04-.578,0-1.009-3.135-.316-3.135-2.318,0-.917.739-1.679,2.272-1.679a3.613,3.613,0,0,1,1.871.478l-.385.947a3.046,3.046,0,0,0-1.494-.423c-.74,0-1.025.277-1.025.616,0,.993,3.135.308,3.135,2.287,0,.9-.747,1.67-2.287,1.67A3.843,3.843,0,0,1,173.816,141.805Z" transform="translate(-173.816 -136.622)" fill="#e0e0e0"/>
            <path id="Trazado_621481" data-name="Trazado 621481" d="M183.982,140.83h-3.135a1.1,1.1,0,0,0,1.186.832,1.4,1.4,0,0,0,1.039-.4l.64.693a2.174,2.174,0,0,1-1.71.67,2.15,2.15,0,0,1-2.364-2.133,2.109,2.109,0,0,1,2.21-2.134A2.051,2.051,0,0,1,184,140.507C184,140.6,183.989,140.729,183.982,140.83Zm-3.15-.7h2.04a1.034,1.034,0,0,0-2.04,0Z" transform="translate(-174.691 -136.848)" fill="#e0e0e0"/>
            <path id="Trazado_621482" data-name="Trazado 621482" d="M189.2,140.2v2.365h-1.124v-.517a1.361,1.361,0,0,1-1.263.578c-.97,0-1.547-.539-1.547-1.255,0-.732.516-1.241,1.778-1.241H188c0-.516-.308-.816-.955-.816a1.99,1.99,0,0,0-1.193.385l-.432-.839a3.181,3.181,0,0,1,1.787-.5C188.473,138.358,189.2,138.943,189.2,140.2Zm-1.2,1.054v-.423h-.824c-.562,0-.739.208-.739.485,0,.3.254.5.678.5A.884.884,0,0,0,188,141.253Z" transform="translate(-175.538 -136.848)" fill="#e0e0e0"/>
            <path id="Trazado_621483" data-name="Trazado 621483" d="M193.754,138.358v1.109c-.1-.008-.177-.015-.269-.015a1.018,1.018,0,0,0-1.1,1.155v1.957h-1.2v-4.144h1.147v.547A1.672,1.672,0,0,1,193.754,138.358Z" transform="translate(-176.426 -136.848)" fill="#e0e0e0"/>
            <path id="Trazado_621484" data-name="Trazado 621484" d="M194.647,140.492a2.142,2.142,0,0,1,2.31-2.134,1.9,1.9,0,0,1,1.856,1.054l-.932.5a1.031,1.031,0,0,0-.931-.569,1.149,1.149,0,0,0,0,2.3,1.019,1.019,0,0,0,.931-.57l.932.508a1.922,1.922,0,0,1-1.856,1.048A2.141,2.141,0,0,1,194.647,140.492Z" transform="translate(-176.947 -136.848)" fill="#e0e0e0"/>
            <path id="Trazado_621485" data-name="Trazado 621485" d="M204.568,139.924V142.3h-1.2v-2.188c0-.67-.308-.978-.839-.978-.578,0-.994.354-.994,1.117V142.3h-1.2v-5.715h1.2v2a1.821,1.821,0,0,1,1.317-.493A1.624,1.624,0,0,1,204.568,139.924Z" transform="translate(-177.802 -136.581)" fill="#e0e0e0"/>
            <path id="Trazado_621486" data-name="Trazado 621486" d="M208.82,142.359a.747.747,0,0,1,1.495,0,.747.747,0,1,1-1.495,0Z" transform="translate(-179.077 -137.338)" fill="#e0e0e0"/>
            <path id="Trazado_621487" data-name="Trazado 621487" d="M211.2,142.359a.747.747,0,0,1,1.495,0,.747.747,0,1,1-1.495,0Z" transform="translate(-179.434 -137.338)" fill="#e0e0e0"/>
            <path id="Trazado_621488" data-name="Trazado 621488" d="M213.572,142.359a.747.747,0,0,1,1.495,0,.747.747,0,1,1-1.495,0Z" transform="translate(-179.792 -137.338)" fill="#e0e0e0"/>
          </g>
          <g id="Grupo_878611" data-name="Grupo 878611" transform="translate(26.991 93.823)">
            <g id="Grupo_878610" data-name="Grupo 878610">
              <path id="Trazado_621489" data-name="Trazado 621489" d="M121.774,175.985c0,.122-7.967.221-17.793.221s-17.8-.1-17.8-.221,7.965-.222,17.8-.222S121.774,175.862,121.774,175.985Z" transform="translate(-86.186 -175.763)"/>
            </g>
          </g>
          <g id="Grupo_878612" data-name="Grupo 878612" transform="translate(26.99 104.213)">
            <rect id="Rectángulo_327466" data-name="Rectángulo 327466" width="36.977" height="36.977" fill="#2b95f9"/>
          </g>
          <g id="Grupo_878614" data-name="Grupo 878614" transform="translate(83.641 112.707)">
            <g id="Grupo_878613" data-name="Grupo 878613">
              <path id="Trazado_621490" data-name="Trazado 621490" d="M357.886,198.209c0,.122-45.9.221-102.51.221-56.628,0-102.519-.1-102.519-.221s45.891-.222,102.519-.222C311.985,197.987,357.886,198.086,357.886,198.209Z" transform="translate(-152.858 -197.987)"/>
            </g>
          </g>
          <g id="Grupo_878616" data-name="Grupo 878616" transform="translate(85.692 126.629)">
            <g id="Grupo_878615" data-name="Grupo 878615">
              <path id="Trazado_621491" data-name="Trazado 621491" d="M209.3,214.594c0,.122-12.1.221-27.012.221s-27.014-.1-27.014-.221,12.093-.222,27.014-.222S209.3,214.471,209.3,214.594Z" transform="translate(-155.272 -214.372)"/>
            </g>
          </g>
          <g id="Grupo_878618" data-name="Grupo 878618" transform="translate(85.692 139.538)">
            <g id="Grupo_878617" data-name="Grupo 878617">
              <path id="Trazado_621492" data-name="Trazado 621492" d="M325.477,229.786c0,.122-38.1.222-85.1.222-47.01,0-85.107-.1-85.107-.222s38.1-.221,85.107-.221C287.373,229.565,325.477,229.664,325.477,229.786Z" transform="translate(-155.272 -229.565)" fill="#e0e0e0"/>
            </g>
          </g>
          <g id="Grupo_878620" data-name="Grupo 878620" transform="translate(26.991 160.054)">
            <g id="Grupo_878619" data-name="Grupo 878619">
              <path id="Trazado_621493" data-name="Trazado 621493" d="M121.774,253.931c0,.122-7.967.221-17.793.221s-17.8-.1-17.8-.221,7.965-.221,17.8-.221S121.774,253.809,121.774,253.931Z" transform="translate(-86.186 -253.71)"/>
            </g>
          </g>
          <g id="Grupo_878621" data-name="Grupo 878621" transform="translate(26.99 170.443)">
            <rect id="Rectángulo_327467" data-name="Rectángulo 327467" width="36.977" height="36.977" fill="#2b95f9"/>
          </g>
          <g id="Grupo_878623" data-name="Grupo 878623" transform="translate(83.641 178.938)">
            <g id="Grupo_878622" data-name="Grupo 878622">
              <path id="Trazado_621494" data-name="Trazado 621494" d="M370.068,276.155c0,.122-48.628.221-108.6.221-59.993,0-108.609-.1-108.609-.221s48.617-.221,108.609-.221C321.44,275.934,370.068,276.033,370.068,276.155Z" transform="translate(-152.858 -275.934)"/>
            </g>
          </g>
          <g id="Grupo_878625" data-name="Grupo 878625" transform="translate(85.692 192.86)">
            <g id="Grupo_878624" data-name="Grupo 878624">
              <path id="Trazado_621495" data-name="Trazado 621495" d="M209.3,292.54c0,.122-12.1.221-27.012.221s-27.014-.1-27.014-.221,12.093-.221,27.014-.221S209.3,292.418,209.3,292.54Z" transform="translate(-155.272 -292.319)"/>
            </g>
          </g>
          <g id="Grupo_878627" data-name="Grupo 878627" transform="translate(85.692 205.769)">
            <g id="Grupo_878626" data-name="Grupo 878626">
              <path id="Trazado_621496" data-name="Trazado 621496" d="M355.121,307.732c0,.122-44.741.222-99.92.222-55.2,0-99.929-.1-99.929-.222s44.732-.221,99.929-.221C310.379,307.511,355.121,307.61,355.121,307.732Z" transform="translate(-155.272 -307.511)" fill="#e0e0e0"/>
            </g>
          </g>
          <g id="Grupo_878629" data-name="Grupo 878629">
            <g id="Grupo_878628" data-name="Grupo 878628">
              <path id="Trazado_621497" data-name="Trazado 621497" d="M386.746,293.079c0-1.456-.07-89.041-.178-227.515l.178.178-332.077.043h-.027l.221-.221c-.007,81.209-.013,158.371-.019,227.515l-.2-.2,332.1.2-332.1.2h-.2v-.2c-.006-69.144-.012-146.306-.019-227.515v-.222h.248l332.077.044h.178v.178C386.816,204.038,386.748,291.625,386.746,293.079Z" transform="translate(-54.421 -65.343)" fill="#263238"/>
            </g>
          </g>
          <g id="Grupo_878631" data-name="Grupo 878631" transform="translate(62.911 16.484)">
            <g id="Grupo_878630" data-name="Grupo 878630">
              <path id="Trazado_621498" data-name="Trazado 621498" d="M180.839,84.965c0,.122-11.726.221-26.188.221s-26.19-.1-26.19-.221,11.723-.222,26.19-.222S180.839,84.842,180.839,84.965Z" transform="translate(-128.461 -84.743)"/>
            </g>
          </g>
          <g id="Grupo_878632" data-name="Grupo 878632" transform="translate(21.528 58.527)">
            <rect id="Rectángulo_327468" data-name="Rectángulo 327468" width="46.514" height="14.011" fill="#455a64"/>
          </g>
          <g id="Grupo_878634" data-name="Grupo 878634" transform="translate(85.8 95.004)">
            <g id="Grupo_878633" data-name="Grupo 878633">
              <path id="Trazado_621499" data-name="Trazado 621499" d="M220,177.374c0,.122-14.463.221-32.3.221s-32.3-.1-32.3-.221,14.46-.221,32.3-.221S220,177.252,220,177.374Z" transform="translate(-155.399 -177.153)" fill="#2b95f9"/>
            </g>
          </g>
          <g id="Grupo_878636" data-name="Grupo 878636" transform="translate(85.8 160.054)">
            <g id="Grupo_878635" data-name="Grupo 878635">
              <path id="Trazado_621500" data-name="Trazado 621500" d="M220,253.931c0,.122-14.463.221-32.3.221s-32.3-.1-32.3-.221,14.46-.221,32.3-.221S220,253.809,220,253.931Z" transform="translate(-155.399 -253.71)" fill="#2b95f9"/>
            </g>
          </g>
          <g id="Grupo_878639" data-name="Grupo 878639" transform="translate(285.739 56.258)">
            <g id="Grupo_878637" data-name="Grupo 878637">
              <path id="Trazado_621501" data-name="Trazado 621501" d="M396.1,142.351a5.4,5.4,0,1,1,5.4-5.4A5.405,5.405,0,0,1,396.1,142.351Zm0-9.948a4.549,4.549,0,1,0,4.55,4.549A4.554,4.554,0,0,0,396.1,132.4Z" transform="translate(-390.706 -131.553)" fill="#2b95f9" stroke="#2b95f9" stroke-width="1"/>
            </g>
            <g id="Grupo_878638" data-name="Grupo 878638" transform="translate(8.088 8.85)">
              <path id="Trazado_621502" data-name="Trazado 621502" d="M404.168,146.312a.425.425,0,0,1-.3-.123l-3.518-3.493a.425.425,0,0,1,.6-.6l3.518,3.493a.424.424,0,0,1,0,.6A.419.419,0,0,1,404.168,146.312Z" transform="translate(-400.225 -141.969)" fill="#2b95f9" stroke="#2b95f9" stroke-width="1"/>
            </g>
          </g>
          <g id="Grupo_878641" data-name="Grupo 878641" transform="translate(146.412 125.673)">
            <g id="Grupo_878640" data-name="Grupo 878640">
              <path id="Trazado_621503" data-name="Trazado 621503" d="M288.886,213.468c0,.122-13.915.222-31.075.222s-31.078-.1-31.078-.222,13.911-.221,31.078-.221S288.886,213.346,288.886,213.468Z" transform="translate(-226.733 -213.247)"/>
            </g>
          </g>
          <g id="Grupo_878643" data-name="Grupo 878643" transform="translate(216.216 124.717)">
            <g id="Grupo_878642" data-name="Grupo 878642">
              <path id="Trazado_621504" data-name="Trazado 621504" d="M341.395,212.343c0,.122-7.278.221-16.255.221s-16.256-.1-16.256-.221,7.277-.221,16.256-.221S341.395,212.221,341.395,212.343Z" transform="translate(-308.884 -212.122)"/>
            </g>
          </g>
          <g id="Grupo_878645" data-name="Grupo 878645" transform="translate(146.118 192.86)">
            <g id="Grupo_878644" data-name="Grupo 878644">
              <path id="Trazado_621505" data-name="Trazado 621505" d="M288.54,292.54c0,.122-13.915.221-31.076.221s-31.078-.1-31.078-.221,13.912-.221,31.078-.221S288.54,292.418,288.54,292.54Z" transform="translate(-226.386 -292.319)"/>
            </g>
          </g>
        </g>
      </g>
      <g id="Plant" transform="translate(24.329 265.382)">
        <g id="Grupo_878663" data-name="Grupo 878663">
          <g id="Grupo_878647" data-name="Grupo 878647" transform="translate(39.309 3.149)">
            <path id="Trazado_621506" data-name="Trazado 621506" d="M98.478,313.16c-6.894,3.57-12.18,9.719-15.981,16.488s-6.25,14.2-8.677,21.573L71.7,389.254c8.021-13.645,14.459-29.687,16.2-45.42l-5.338-.476c3.579-.546,6.583-3.14,8.494-6.214s2.9-6.621,3.856-10.111L88.4,328A24.133,24.133,0,0,0,98.478,313.16Z" transform="translate(-71.697 -313.16)" fill="#455a64"/>
          </g>
          <g id="Grupo_878649" data-name="Grupo 878649" transform="translate(39.309 3.149)" opacity="0.3">
            <g id="Grupo_878648" data-name="Grupo 878648">
              <path id="Trazado_621507" data-name="Trazado 621507" d="M98.478,313.16c-6.894,3.57-12.18,9.719-15.981,16.488s-6.25,14.2-8.677,21.573L71.7,389.254c8.021-13.645,14.459-29.687,16.2-45.42l-5.338-.476c3.579-.546,6.583-3.14,8.494-6.214s2.9-6.621,3.856-10.111L88.4,328A24.133,24.133,0,0,0,98.478,313.16Z" transform="translate(-71.697 -313.16)"/>
            </g>
          </g>
          <g id="Grupo_878650" data-name="Grupo 878650" transform="translate(20.876)">
            <path id="Trazado_621508" data-name="Trazado 621508" d="M67.249,397.609S49.838,376.77,50.04,356.877h7.033s-7.64-5.023-7.035-7.837.806-13.463.806-13.463l6.43,1.608s-4.822-2.411-5.425-6.229,1.407-21.5,1.407-21.5,7.837,8.239,10.248,16.679,8.74,18.286,6.882,44.006S67.249,397.609,67.249,397.609Z" transform="translate(-50.004 -309.454)" fill="#455a64"/>
          </g>
          <g id="Grupo_878651" data-name="Grupo 878651" transform="translate(46.941 22.689)">
            <path id="Trazado_621509" data-name="Trazado 621509" d="M80.686,403.59s18.862-12.566,23.054-28.6l-5.655-1.538s7.241-2.368,7.37-4.762,2.3-11,2.3-11l-5.522-.115s4.4-.884,5.725-3.821,3.573-17.594,3.573-17.594-8.1,4.909-11.888,11.167S88.613,360.112,84.481,381.2,80.686,403.59,80.686,403.59Z" transform="translate(-80.679 -336.157)" fill="#455a64"/>
          </g>
          <g id="Grupo_878653" data-name="Grupo 878653" transform="translate(28.88 18.169)">
            <g id="Grupo_878652" data-name="Grupo 878652">
              <path id="Trazado_621510" data-name="Trazado 621510" d="M59.427,330.837a.853.853,0,0,1,.068.215l.158.641c.136.6.325,1.424.562,2.471.487,2.145,1.131,5.265,1.869,9.13,1.485,7.729,3.241,18.466,4.625,30.4s2.116,22.791,2.433,30.655c.163,3.932.247,7.115.263,9.315.007,1.073.012,1.92.015,2.534,0,.268-.005.485-.007.659a.847.847,0,0,1-.018.224.842.842,0,0,1-.027-.223c-.01-.174-.022-.391-.037-.659-.024-.613-.057-1.459-.1-2.531-.069-2.2-.2-5.378-.4-9.3-.4-7.855-1.186-18.695-2.559-30.619s-3.088-22.653-4.493-30.391c-.7-3.87-1.3-7-1.73-9.152-.2-1.054-.365-1.885-.482-2.487-.047-.264-.084-.478-.115-.649A.863.863,0,0,1,59.427,330.837Z" transform="translate(-59.424 -330.837)" fill="#263238"/>
            </g>
          </g>
          <g id="Grupo_878654" data-name="Grupo 878654" transform="translate(0 52.293)">
            <path id="Trazado_621511" data-name="Trazado 621511" d="M61.141,419.621s-15.933-18.078-20.88-29.006l3.734-1.6a9.677,9.677,0,0,1-7.579-2.484,28.68,28.68,0,0,1-5.152-6.38l4.92-.831A18.294,18.294,0,0,1,25.435,371c5.806.954,11.058,4.144,15.386,8.129a76.612,76.612,0,0,1,9.323,10.8,36.774,36.774,0,0,1,3.621,5.953C56.442,401.417,61.15,412.981,61.141,419.621Z" transform="translate(-25.435 -370.997)" fill="#455a64"/>
          </g>
          <g id="Grupo_878656" data-name="Grupo 878656" transform="translate(42.719 33.211)">
            <g id="Grupo_878655" data-name="Grupo 878655">
              <path id="Trazado_621512" data-name="Trazado 621512" d="M103.243,348.54a.661.661,0,0,1-.068.187l-.24.528q-.353.741-.96,2.01c-.848,1.739-2.052,4.266-3.511,7.4-2.923,6.268-6.777,15.014-10.586,24.854s-6.834,18.911-8.889,25.514c-1.029,3.3-1.839,5.981-2.38,7.838q-.407,1.346-.642,2.133l-.178.552a.642.642,0,0,1-.076.184.654.654,0,0,1,.031-.2l.136-.564q.206-.794.562-2.156c.492-1.872,1.256-4.567,2.247-7.883,1.98-6.632,4.968-15.724,8.776-25.582s7.718-18.589,10.715-24.827c1.5-3.12,2.744-5.628,3.64-7.344l1.034-1.974.28-.508A.657.657,0,0,1,103.243,348.54Z" transform="translate(-75.711 -348.54)" fill="#263238"/>
            </g>
          </g>
          <g id="Grupo_878658" data-name="Grupo 878658" transform="translate(25.388 77.759)">
            <g id="Grupo_878657" data-name="Grupo 878657">
              <path id="Trazado_621513" data-name="Trazado 621513" d="M66.984,431.872a7.442,7.442,0,0,1-.255-1.289c-.127-.834-.342-2.035-.638-3.511a73.669,73.669,0,0,0-3.236-11.294,73.754,73.754,0,0,0-5.036-10.617c-.753-1.3-1.387-2.347-1.841-3.057a7.551,7.551,0,0,1-.661-1.135,7.424,7.424,0,0,1,.8,1.04c.5.682,1.177,1.7,1.968,2.993A63.725,63.725,0,0,1,66.4,427.014c.258,1.49.426,2.7.5,3.547A7.4,7.4,0,0,1,66.984,431.872Z" transform="translate(-55.314 -400.968)" fill="#263238"/>
            </g>
          </g>
          <g id="Grupo_878659" data-name="Grupo 878659" transform="translate(23.21 104.41)">
            <rect id="Rectángulo_327469" data-name="Rectángulo 327469" width="34.871" height="7.113" fill="#2b95f9"/>
          </g>
          <g id="Grupo_878660" data-name="Grupo 878660" transform="translate(26.533 111.524)">
            <path id="Trazado_621514" data-name="Trazado 621514" d="M56.661,440.706l3.772,23.926H81.5l3.516-23.926Z" transform="translate(-56.661 -440.706)" fill="#2b95f9"/>
          </g>
          <g id="Grupo_878662" data-name="Grupo 878662" transform="translate(26.476 111.302)">
            <g id="Grupo_878661" data-name="Grupo 878661">
              <path id="Trazado_621515" data-name="Trazado 621515" d="M86.061,440.667c0,.122-6.6.221-14.732.221s-14.734-.1-14.734-.221,6.6-.222,14.734-.222S86.061,440.544,86.061,440.667Z" transform="translate(-56.595 -440.445)" fill="#263238"/>
            </g>
          </g>
        </g>
      </g>
      <g id="Character" transform="translate(174.732 82.795)">
        <g id="Grupo_878855" data-name="Grupo 878855">
          <g id="Grupo_878741" data-name="Grupo 878741" transform="translate(57.419 300.382)">
            <g id="Grupo_878740" data-name="Grupo 878740">
              <g id="Grupo_878739" data-name="Grupo 878739">
                <g id="Grupo_878673" data-name="Grupo 878673">
                  <g id="Grupo_878672" data-name="Grupo 878672">
                    <g id="Grupo_878671" data-name="Grupo 878671">
                      <g id="Grupo_878670" data-name="Grupo 878670">
                        <g id="Grupo_878669" data-name="Grupo 878669">
                          <g id="Grupo_878668" data-name="Grupo 878668">
                            <g id="Grupo_878667" data-name="Grupo 878667">
                              <g id="Grupo_878666" data-name="Grupo 878666">
                                <g id="Grupo_878665" data-name="Grupo 878665">
                                  <g id="Grupo_878664" data-name="Grupo 878664">
                                    <path id="Trazado_621516" data-name="Trazado 621516" d="M270.02,448.086v17.647l35.586-.172c-.259-3.579-19.789-10.718-19.789-10.718l.388-6.757Z" transform="translate(-270.02 -448.086)" fill="#455a64"/>
                                  </g>
                                </g>
                              </g>
                            </g>
                          </g>
                        </g>
                      </g>
                    </g>
                  </g>
                </g>
                <g id="Grupo_878684" data-name="Grupo 878684" transform="translate(4.746 5.091)" opacity="0.6">
                  <g id="Grupo_878683" data-name="Grupo 878683">
                    <g id="Grupo_878682" data-name="Grupo 878682">
                      <g id="Grupo_878681" data-name="Grupo 878681">
                        <g id="Grupo_878680" data-name="Grupo 878680">
                          <g id="Grupo_878679" data-name="Grupo 878679">
                            <g id="Grupo_878678" data-name="Grupo 878678">
                              <g id="Grupo_878677" data-name="Grupo 878677">
                                <g id="Grupo_878676" data-name="Grupo 878676">
                                  <g id="Grupo_878675" data-name="Grupo 878675">
                                    <g id="Grupo_878674" data-name="Grupo 878674">
                                      <path id="Trazado_621517" data-name="Trazado 621517" d="M276.615,454.146a1.543,1.543,0,0,0-.975,1.763,1.386,1.386,0,0,0,1.642,1.04,1.628,1.628,0,0,0,1.023-1.873,1.419,1.419,0,0,0-1.821-.881" transform="translate(-275.606 -454.078)" fill="#fff"/>
                                    </g>
                                  </g>
                                </g>
                              </g>
                            </g>
                          </g>
                        </g>
                      </g>
                    </g>
                  </g>
                </g>
                <g id="Grupo_878694" data-name="Grupo 878694" transform="translate(0 14.828)">
                  <g id="Grupo_878693" data-name="Grupo 878693">
                    <g id="Grupo_878692" data-name="Grupo 878692">
                      <g id="Grupo_878691" data-name="Grupo 878691">
                        <g id="Grupo_878690" data-name="Grupo 878690">
                          <g id="Grupo_878689" data-name="Grupo 878689">
                            <g id="Grupo_878688" data-name="Grupo 878688">
                              <g id="Grupo_878687" data-name="Grupo 878687">
                                <g id="Grupo_878686" data-name="Grupo 878686">
                                  <g id="Grupo_878685" data-name="Grupo 878685">
                                    <path id="Trazado_621518" data-name="Trazado 621518" d="M270.02,468.356v-2.819l33.975.4s1.772,1.066,1.611,2.245Z" transform="translate(-270.02 -465.537)" fill="#263238"/>
                                  </g>
                                </g>
                              </g>
                            </g>
                          </g>
                        </g>
                      </g>
                    </g>
                  </g>
                </g>
                <g id="Grupo_878705" data-name="Grupo 878705" transform="translate(12.599 6.937)">
                  <g id="Grupo_878704" data-name="Grupo 878704">
                    <g id="Grupo_878703" data-name="Grupo 878703">
                      <g id="Grupo_878702" data-name="Grupo 878702">
                        <g id="Grupo_878701" data-name="Grupo 878701">
                          <g id="Grupo_878700" data-name="Grupo 878700">
                            <g id="Grupo_878699" data-name="Grupo 878699">
                              <g id="Grupo_878698" data-name="Grupo 878698">
                                <g id="Grupo_878697" data-name="Grupo 878697">
                                  <g id="Grupo_878696" data-name="Grupo 878696">
                                    <g id="Grupo_878695" data-name="Grupo 878695">
                                      <path id="Trazado_621519" data-name="Trazado 621519" d="M288.044,456.411c0,.184-.866.28-1.708.881-.857.579-1.285,1.378-1.445,1.308-.16-.033.082-1.131,1.114-1.84S288.08,456.242,288.044,456.411Z" transform="translate(-284.847 -456.25)" fill="#263238"/>
                                    </g>
                                  </g>
                                </g>
                              </g>
                            </g>
                          </g>
                        </g>
                      </g>
                    </g>
                  </g>
                </g>
                <g id="Grupo_878716" data-name="Grupo 878716" transform="translate(18.146 8.659)">
                  <g id="Grupo_878715" data-name="Grupo 878715">
                    <g id="Grupo_878714" data-name="Grupo 878714">
                      <g id="Grupo_878713" data-name="Grupo 878713">
                        <g id="Grupo_878712" data-name="Grupo 878712">
                          <g id="Grupo_878711" data-name="Grupo 878711">
                            <g id="Grupo_878710" data-name="Grupo 878710">
                              <g id="Grupo_878709" data-name="Grupo 878709">
                                <g id="Grupo_878708" data-name="Grupo 878708">
                                  <g id="Grupo_878707" data-name="Grupo 878707">
                                    <g id="Grupo_878706" data-name="Grupo 878706">
                                      <path id="Trazado_621520" data-name="Trazado 621520" d="M293.688,458.348c.042.177-.7.5-1.278,1.283-.6.765-.734,1.6-.906,1.6-.162.031-.3-1.039.437-2S293.682,458.174,293.688,458.348Z" transform="translate(-291.376 -458.277)" fill="#263238"/>
                                    </g>
                                  </g>
                                </g>
                              </g>
                            </g>
                          </g>
                        </g>
                      </g>
                    </g>
                  </g>
                </g>
                <g id="Grupo_878727" data-name="Grupo 878727" transform="translate(22.337 10.049)">
                  <g id="Grupo_878726" data-name="Grupo 878726">
                    <g id="Grupo_878725" data-name="Grupo 878725">
                      <g id="Grupo_878724" data-name="Grupo 878724">
                        <g id="Grupo_878723" data-name="Grupo 878723">
                          <g id="Grupo_878722" data-name="Grupo 878722">
                            <g id="Grupo_878721" data-name="Grupo 878721">
                              <g id="Grupo_878720" data-name="Grupo 878720">
                                <g id="Grupo_878719" data-name="Grupo 878719">
                                  <g id="Grupo_878718" data-name="Grupo 878718">
                                    <g id="Grupo_878717" data-name="Grupo 878717">
                                      <path id="Trazado_621521" data-name="Trazado 621521" d="M296.527,463.092c-.157.042-.41-.869.02-1.879s1.232-1.421,1.307-1.269c.1.149-.417.7-.758,1.529C296.737,462.3,296.7,463.071,296.527,463.092Z" transform="translate(-296.309 -459.913)" fill="#263238"/>
                                    </g>
                                  </g>
                                </g>
                              </g>
                            </g>
                          </g>
                        </g>
                      </g>
                    </g>
                  </g>
                </g>
                <g id="Grupo_878738" data-name="Grupo 878738" transform="translate(11.773 1.446)">
                  <g id="Grupo_878737" data-name="Grupo 878737">
                    <g id="Grupo_878736" data-name="Grupo 878736">
                      <g id="Grupo_878735" data-name="Grupo 878735">
                        <g id="Grupo_878734" data-name="Grupo 878734">
                          <g id="Grupo_878733" data-name="Grupo 878733">
                            <g id="Grupo_878732" data-name="Grupo 878732">
                              <g id="Grupo_878731" data-name="Grupo 878731">
                                <g id="Grupo_878730" data-name="Grupo 878730">
                                  <g id="Grupo_878729" data-name="Grupo 878729">
                                    <g id="Grupo_878728" data-name="Grupo 878728">
                                      <path id="Trazado_621522" data-name="Trazado 621522" d="M287.553,450.422c-.071.167-.867-.073-1.843.012-.978.065-1.733.423-1.825.268-.1-.131.63-.82,1.781-.9S287.636,450.277,287.553,450.422Z" transform="translate(-283.876 -449.788)" fill="#263238"/>
                                    </g>
                                  </g>
                                </g>
                              </g>
                            </g>
                          </g>
                        </g>
                      </g>
                    </g>
                  </g>
                </g>
              </g>
            </g>
          </g>
          <g id="Grupo_878745" data-name="Grupo 878745" transform="translate(68.907 302.647)">
            <g id="Grupo_878744" data-name="Grupo 878744" transform="translate(0 0)">
              <g id="Grupo_878743" data-name="Grupo 878743">
                <g id="Grupo_878742" data-name="Grupo 878742">
                  <path id="Trazado_621523" data-name="Trazado 621523" d="M287.7,456.374a2.6,2.6,0,0,0,.076-1.078,5.982,5.982,0,0,0-.942-2.782,5.475,5.475,0,0,0-1.392-1.465,1.206,1.206,0,0,0-1.2-.211,1.356,1.356,0,0,0-.7,1.162,4.667,4.667,0,0,0,3.127,4.129,4.461,4.461,0,0,0,4.807-1.427,3.245,3.245,0,0,0,.638-1.089,1.175,1.175,0,0,0,.005-.706.839.839,0,0,0-.484-.511,1.508,1.508,0,0,0-1.109.11,6.619,6.619,0,0,0-.828.472,7.422,7.422,0,0,0-2.034,2.013,2.776,2.776,0,0,0-.49.946,10.273,10.273,0,0,1,2.709-2.633c.477-.274,1.1-.666,1.6-.491.22.091.308.35.2.659a2.817,2.817,0,0,1-.559.9,4.042,4.042,0,0,1-4.3,1.248,4.238,4.238,0,0,1-2.818-3.587.881.881,0,0,1,.419-.764.812.812,0,0,1,.793.157,5.21,5.21,0,0,1,1.325,1.31,6.233,6.233,0,0,1,1.038,2.585C287.679,455.989,287.658,456.372,287.7,456.374Z" transform="translate(-283.54 -450.751)" fill="#263238"/>
                </g>
              </g>
            </g>
          </g>
          <g id="Grupo_878752" data-name="Grupo 878752" transform="translate(30.797 301.2)">
            <g id="Grupo_878751" data-name="Grupo 878751">
              <g id="Grupo_878750" data-name="Grupo 878750">
                <g id="Grupo_878749" data-name="Grupo 878749">
                  <g id="Grupo_878748" data-name="Grupo 878748">
                    <g id="Grupo_878747" data-name="Grupo 878747">
                      <g id="Grupo_878746" data-name="Grupo 878746">
                        <path id="Trazado_621524" data-name="Trazado 621524" d="M252.306,450.786l.6,4.54-.4,10.243-13.342.325-.475-10.568,1.518-6.277Z" transform="translate(-238.689 -449.049)" fill="#455a64"/>
                      </g>
                    </g>
                  </g>
                </g>
              </g>
            </g>
          </g>
          <g id="Grupo_878760" data-name="Grupo 878760" transform="translate(37.999 302.939)">
            <g id="Grupo_878759" data-name="Grupo 878759">
              <g id="Grupo_878758" data-name="Grupo 878758">
                <g id="Grupo_878757" data-name="Grupo 878757">
                  <g id="Grupo_878756" data-name="Grupo 878756">
                    <g id="Grupo_878755" data-name="Grupo 878755">
                      <g id="Grupo_878754" data-name="Grupo 878754">
                        <g id="Grupo_878753" data-name="Grupo 878753">
                          <path id="Trazado_621525" data-name="Trazado 621525" d="M247.184,465.1c-.082,0,.11-3.129.428-7s.642-7.008.723-7.013-.111,3.128-.429,7S247.264,465.1,247.184,465.1Z" transform="translate(-247.165 -451.095)" fill="#263238"/>
                        </g>
                      </g>
                    </g>
                  </g>
                </g>
              </g>
            </g>
          </g>
          <g id="Grupo_878767" data-name="Grupo 878767" transform="translate(31.188 316.014)">
            <g id="Grupo_878766" data-name="Grupo 878766">
              <g id="Grupo_878765" data-name="Grupo 878765">
                <g id="Grupo_878764" data-name="Grupo 878764">
                  <g id="Grupo_878763" data-name="Grupo 878763">
                    <g id="Grupo_878762" data-name="Grupo 878762">
                      <g id="Grupo_878761" data-name="Grupo 878761">
                        <path id="Trazado_621526" data-name="Trazado 621526" d="M252.628,466.484l-13.479.156v1.874l13.488-.016Z" transform="translate(-239.149 -466.484)" fill="#263238"/>
                      </g>
                    </g>
                  </g>
                </g>
              </g>
            </g>
          </g>
          <g id="Grupo_878775" data-name="Grupo 878775" transform="translate(31.219 306.145)">
            <g id="Grupo_878774" data-name="Grupo 878774">
              <g id="Grupo_878773" data-name="Grupo 878773">
                <g id="Grupo_878772" data-name="Grupo 878772">
                  <g id="Grupo_878771" data-name="Grupo 878771">
                    <g id="Grupo_878770" data-name="Grupo 878770">
                      <g id="Grupo_878769" data-name="Grupo 878769">
                        <g id="Grupo_878768" data-name="Grupo 878768">
                          <path id="Trazado_621527" data-name="Trazado 621527" d="M239.188,458.85a1.794,1.794,0,0,1,.342-.54,9.251,9.251,0,0,1,1.189-1.273,9.046,9.046,0,0,1,2.155-1.446,7.1,7.1,0,0,1,8.313,1.538,6.088,6.088,0,0,1,.977,1.451,1.7,1.7,0,0,1,.212.6,13.9,13.9,0,0,0-1.4-1.859,7.105,7.105,0,0,0-5-2.051,8.167,8.167,0,0,0-5.074,1.981C239.787,458.165,239.244,458.9,239.188,458.85Z" transform="translate(-239.185 -454.869)" fill="#263238"/>
                        </g>
                      </g>
                    </g>
                  </g>
                </g>
              </g>
            </g>
          </g>
          <g id="Grupo_878825" data-name="Grupo 878825" transform="translate(28.364)">
            <g id="Grupo_878781" data-name="Grupo 878781" transform="translate(9.455 11.459)">
              <g id="Grupo_878780" data-name="Grupo 878780">
                <g id="Grupo_878779" data-name="Grupo 878779">
                  <g id="Grupo_878778" data-name="Grupo 878778">
                    <g id="Grupo_878777" data-name="Grupo 878777">
                      <g id="Grupo_878776" data-name="Grupo 878776">
                        <path id="Trazado_621528" data-name="Trazado 621528" d="M247.094,113.732l-.141,46.126,19.789.943.572-11.219s7.029,1.4,8.842-5.132c1.159-4.169.869-36.4.869-36.4Z" transform="translate(-246.953 -108.054)" fill="#b78876"/>
                      </g>
                    </g>
                  </g>
                </g>
              </g>
            </g>
            <g id="Grupo_878787" data-name="Grupo 878787" transform="translate(2.851 5.013)">
              <g id="Grupo_878786" data-name="Grupo 878786">
                <g id="Grupo_878785" data-name="Grupo 878785">
                  <g id="Grupo_878784" data-name="Grupo 878784">
                    <g id="Grupo_878783" data-name="Grupo 878783">
                      <g id="Grupo_878782" data-name="Grupo 878782">
                        <path id="Trazado_621529" data-name="Trazado 621529" d="M278.462,110.162c-3.118.892-3.794,5.987-3.794,5.987l-4.889,10.8c-2.49-1.95-5.835-1.838-6.468,2.539-.458,3.163,3.474,3.8,3.474,3.8-2.289,3.9-3.841,7.047-7.175,10.752-3.607,4.011-5.627,4.415-9.54,4.48h-4.314s-2.111-6.854-6.022-24c-4.339-19.019,18.15-16.568,22.319-21.422C268.843,95.194,288.287,107.35,278.462,110.162Z" transform="translate(-239.181 -100.468)" fill="#263238"/>
                      </g>
                    </g>
                  </g>
                </g>
              </g>
            </g>
            <g id="Grupo_878788" data-name="Grupo 878788">
              <path id="Trazado_621530" data-name="Trazado 621530" d="M283.45,105.144a4.317,4.317,0,0,0-4.308-3.59,2.683,2.683,0,0,0-.56-3.413,4.385,4.385,0,0,0-3.564-.869,12.974,12.974,0,0,0-3.552,1.278,6,6,0,0,0-2.292-3.035,6.907,6.907,0,0,0-3.818-.947c-6.073,0-9.274,4.16-12.531,8.4a5.091,5.091,0,0,1-1.97,1.868,5.346,5.346,0,0,1-1.834.206,13.2,13.2,0,0,0-11.228,6.982c-2.127,4.108-3.713,13.617,1.788,19.511l3.317,7.4L274.619,113.8c.225.117,2.214,1.087,3.744.282,3.8-2,2.2-5.334,2.2-5.334C280.87,108.593,283.772,107.169,283.45,105.144Z" transform="translate(-235.826 -94.568)" fill="#263238"/>
            </g>
            <g id="Grupo_878792" data-name="Grupo 878792" transform="translate(16.733 35.296)">
              <g id="Grupo_878791" data-name="Grupo 878791">
                <g id="Grupo_878790" data-name="Grupo 878790">
                  <g id="Grupo_878789" data-name="Grupo 878789">
                    <path id="Trazado_621531" data-name="Trazado 621531" d="M257.049,136.108a9.312,9.312,0,0,1-1.512,6.715c-.133-.066.5-1.479.91-3.323S256.9,136.111,257.049,136.108Z" transform="translate(-255.519 -136.108)" fill="#455a64"/>
                  </g>
                </g>
              </g>
            </g>
            <g id="Grupo_878796" data-name="Grupo 878796" transform="translate(19.398 33.033)">
              <g id="Grupo_878795" data-name="Grupo 878795">
                <g id="Grupo_878794" data-name="Grupo 878794">
                  <g id="Grupo_878793" data-name="Grupo 878793">
                    <path id="Trazado_621532" data-name="Trazado 621532" d="M259.913,133.444a13.026,13.026,0,0,1-1.228,6.583,17.978,17.978,0,0,1,.551-3.3A18.067,18.067,0,0,1,259.913,133.444Z" transform="translate(-258.656 -133.444)" fill="#455a64"/>
                  </g>
                </g>
              </g>
            </g>
            <g id="Grupo_878800" data-name="Grupo 878800" transform="translate(22.452 25.415)">
              <g id="Grupo_878799" data-name="Grupo 878799">
                <g id="Grupo_878798" data-name="Grupo 878798">
                  <g id="Grupo_878797" data-name="Grupo 878797">
                    <path id="Trazado_621533" data-name="Trazado 621533" d="M267.308,124.484c.048.066-.513.474-1.224,1.309a12.672,12.672,0,0,0-2.133,3.68,31.029,31.029,0,0,0-1.182,4.149,6.977,6.977,0,0,1-.49,1.744,6.218,6.218,0,0,1,.142-1.811,20.328,20.328,0,0,1,1.063-4.263,10.749,10.749,0,0,1,2.34-3.741A3.748,3.748,0,0,1,267.308,124.484Z" transform="translate(-262.25 -124.479)" fill="#455a64"/>
                  </g>
                </g>
              </g>
            </g>
            <g id="Grupo_878804" data-name="Grupo 878804" transform="translate(28.225 20.237)">
              <g id="Grupo_878803" data-name="Grupo 878803">
                <g id="Grupo_878802" data-name="Grupo 878802">
                  <g id="Grupo_878801" data-name="Grupo 878801">
                    <path id="Trazado_621534" data-name="Trazado 621534" d="M271.1,118.385a2.561,2.561,0,0,1,.384,1.248,8.3,8.3,0,0,1-1.506,6.008c-.487.648-.884.96-.927.919a17.325,17.325,0,0,0,1.775-3.9A17.226,17.226,0,0,0,271.1,118.385Z" transform="translate(-269.044 -118.385)" fill="#455a64"/>
                  </g>
                </g>
              </g>
            </g>
            <g id="Grupo_878808" data-name="Grupo 878808" transform="translate(4.195 30.348)">
              <g id="Grupo_878807" data-name="Grupo 878807">
                <g id="Grupo_878806" data-name="Grupo 878806">
                  <g id="Grupo_878805" data-name="Grupo 878805">
                    <path id="Trazado_621535" data-name="Trazado 621535" d="M243.231,131.694c-.067.122-.674-.089-1.354-.469s-1.176-.785-1.109-.907.674.089,1.354.469S243.3,131.573,243.231,131.694Z" transform="translate(-240.763 -130.284)" fill="#455a64"/>
                  </g>
                </g>
              </g>
            </g>
            <g id="Grupo_878812" data-name="Grupo 878812" transform="translate(14.136 26.832)">
              <g id="Grupo_878811" data-name="Grupo 878811">
                <g id="Grupo_878810" data-name="Grupo 878810">
                  <g id="Grupo_878809" data-name="Grupo 878809">
                    <path id="Trazado_621536" data-name="Trazado 621536" d="M254.551,126.147c.131.02.05,1-.565,2.007s-1.435,1.54-1.513,1.434c-.093-.11.529-.761,1.084-1.693S254.41,126.115,254.551,126.147Z" transform="translate(-252.463 -126.146)" fill="#455a64"/>
                  </g>
                </g>
              </g>
            </g>
            <g id="Grupo_878816" data-name="Grupo 878816" transform="translate(16.409 25.252)">
              <g id="Grupo_878815" data-name="Grupo 878815">
                <g id="Grupo_878814" data-name="Grupo 878814">
                  <g id="Grupo_878813" data-name="Grupo 878813">
                    <path id="Trazado_621537" data-name="Trazado 621537" d="M257.893,124.289a3.958,3.958,0,0,1-.88,2.4c-.793,1.2-1.791,1.85-1.868,1.744-.093-.112.708-.89,1.45-2.021A20.526,20.526,0,0,1,257.893,124.289Z" transform="translate(-255.137 -124.288)" fill="#455a64"/>
                  </g>
                </g>
              </g>
            </g>
            <g id="Grupo_878820" data-name="Grupo 878820" transform="translate(7.397 4.022)">
              <g id="Grupo_878819" data-name="Grupo 878819">
                <g id="Grupo_878818" data-name="Grupo 878818">
                  <g id="Grupo_878817" data-name="Grupo 878817">
                    <path id="Trazado_621538" data-name="Trazado 621538" d="M270.911,101.215c-.035.04-.371-.282-1.085-.688a7.322,7.322,0,0,0-3.315-.857,8.888,8.888,0,0,0-4.864,1.308,12.054,12.054,0,0,0-4.144,4.616,20.727,20.727,0,0,0-1.682,4.325l-.079.29-.266-.139a9.849,9.849,0,0,0-4.415-1.129,10.437,10.437,0,0,0-3.594.542,15.3,15.3,0,0,0-2.935,1.468,3.059,3.059,0,0,1,.662-.587,9.167,9.167,0,0,1,2.171-1.165,10.28,10.28,0,0,1,3.7-.67,10.061,10.061,0,0,1,4.637,1.116l-.345.15a20.367,20.367,0,0,1,1.7-4.44,12.235,12.235,0,0,1,4.345-4.773,9.036,9.036,0,0,1,5.119-1.266,7.045,7.045,0,0,1,3.4,1.043,5.155,5.155,0,0,1,.76.6C270.846,101.117,270.923,101.2,270.911,101.215Z" transform="translate(-244.531 -99.301)" fill="#455a64"/>
                  </g>
                </g>
              </g>
            </g>
            <g id="Grupo_878824" data-name="Grupo 878824" transform="translate(20.492 7.796)">
              <g id="Grupo_878823" data-name="Grupo 878823">
                <g id="Grupo_878822" data-name="Grupo 878822">
                  <g id="Grupo_878821" data-name="Grupo 878821">
                    <path id="Trazado_621539" data-name="Trazado 621539" d="M283.634,104.393c-.035-.008.551-.148,1.136.515a1.971,1.971,0,0,1,.455,1.444,2.247,2.247,0,0,1-1.15,1.643,3.262,3.262,0,0,1-2.4.331,6.967,6.967,0,0,1-2.48-1.2,24.583,24.583,0,0,0-2.426-1.663,10.12,10.12,0,0,0-2.924-1.027,12.353,12.353,0,0,0-5.967.409,16.355,16.355,0,0,0-4.411,2.241,45.054,45.054,0,0,0-3.52,2.98,5.026,5.026,0,0,1,.783-.975,19.08,19.08,0,0,1,2.53-2.291,15.84,15.84,0,0,1,4.476-2.394,12.515,12.515,0,0,1,6.2-.462,10.4,10.4,0,0,1,3.067,1.09,23.335,23.335,0,0,1,2.457,1.716,6.674,6.674,0,0,0,2.305,1.173,2.91,2.91,0,0,0,2.134-.233,1.963,1.963,0,0,0,1.049-1.371,1.8,1.8,0,0,0-.331-1.289A1.742,1.742,0,0,0,283.634,104.393Z" transform="translate(-259.942 -103.743)" fill="#455a64"/>
                  </g>
                </g>
              </g>
            </g>
          </g>
          <g id="Grupo_878826" data-name="Grupo 878826" transform="translate(69.986 43.766)">
            <path id="Trazado_621540" data-name="Trazado 621540" d="M379.569,146.146c-.747-.664-10.825,3.564-10.825,3.564s-7.519,5.9-10.613,9.382l-1.912,1.59-28.6,22.24-35.178-14.634-7.632,19.625s39.492,15.721,45.509,13.029c6.539-2.925,30.882-28.4,30.939-28.489h0l3.515-3.387s1.86-.037,3.27-.12,5.539-2.827,5.539-2.827a8.032,8.032,0,0,0,.8-2.405,1.54,1.54,0,0,0-.764-1.747,3.944,3.944,0,0,0-1.589-4.41,3.536,3.536,0,0,0,.94-1.777c.348-1.294-1.327-2.515-1.327-2.515s5.848-3.977,7.268-4.675S380.315,146.809,379.569,146.146Z" transform="translate(-284.81 -146.076)" fill="#b78876"/>
          </g>
          <g id="Grupo_878832" data-name="Grupo 878832" transform="translate(20.522 149.566)">
            <g id="Grupo_878827" data-name="Grupo 878827">
              <path id="Trazado_621541" data-name="Trazado 621541" d="M288.865,365.842c.117-1.292.182-2.284.182-2.906l3.972-63.415S289.68,281,288.1,276.088l-14.2-5.5-18.917,7.369-.2-2.463-27.864,9.631s-.721,19.009,0,24.8c.231,1.858.961,6.661,1.843,12.319h0s.9,12.3,1.082,12.983c.675,2.507.831,8.646.831,14.8,0,7.819.425,17.122.913,21.546s.724,53.054.724,53.054H252.87l2.64-77.463c.443-8.3,1.108-21,1.535-30.179l4.83,28.6c0,1.049,2.937,17.4,2.937,17.4a153.953,153.953,0,0,0-1.26,15.516c-.339,14.417-2.033,46.124-2.033,46.124h20.127s6.044-45.787,7.22-58.781h0Z" transform="translate(-226.596 -270.591)" fill="#263238"/>
            </g>
            <g id="Grupo_878828" data-name="Grupo 878828" transform="translate(55.567 15.296)">
              <path id="Trazado_621542" data-name="Trazado 621542" d="M302.159,298.426a7.745,7.745,0,0,1-1.855-.989,25.755,25.755,0,0,1-7.259-7.023A7.744,7.744,0,0,1,292,288.594a14.329,14.329,0,0,1,1.3,1.64,34.167,34.167,0,0,0,7.183,6.95A14.383,14.383,0,0,1,302.159,298.426Z" transform="translate(-291.993 -288.592)" fill="#455a64"/>
            </g>
            <g id="Grupo_878829" data-name="Grupo 878829" transform="translate(26.264 18.364)">
              <path id="Trazado_621543" data-name="Trazado 621543" d="M261.087,310.493a2.44,2.44,0,0,1-.394-.632c-.233-.418-.531-1.043-.866-1.831a30.005,30.005,0,0,1-2.28-13.084,20.133,20.133,0,0,1,.2-2.016,2.467,2.467,0,0,1,.157-.728c.071.008-.028,1.058-.046,2.753a35.779,35.779,0,0,0,2.258,12.961C260.7,309.507,261.15,310.462,261.087,310.493Z" transform="translate(-257.506 -292.203)" fill="#455a64"/>
            </g>
            <g id="Grupo_878831" data-name="Grupo 878831" transform="translate(28.057 32.148)">
              <g id="Grupo_878830" data-name="Grupo 878830">
                <path id="Trazado_621544" data-name="Trazado 621544" d="M264.4,336.809a5.5,5.5,0,0,1-.264-1.1c-.149-.807-.335-1.823-.557-3.035-.447-2.661-1.036-6.164-1.687-10.035-1.137-7.114-1.911-11.958-2.271-14.209a20.96,20.96,0,0,1,.972,4.107c.49,2.559,1.107,6.105,1.749,10.029s1.185,7.48,1.556,10.058c.165,1.221.3,2.245.414,3.058A5.409,5.409,0,0,1,264.4,336.809Z" transform="translate(-259.616 -308.426)" fill="#455a64"/>
              </g>
            </g>
          </g>
          <g id="Grupo_878836" data-name="Grupo 878836" transform="translate(1.596 104.324)">
            <g id="Grupo_878833" data-name="Grupo 878833">
              <path id="Trazado_621545" data-name="Trazado 621545" d="M207.561,217.347s-2.716,19.113-3.223,25.81c-.306,4.032,3.789,9.385,6.915,9.777,3.175.4,13.666,1.018,13.666,1.018l.873-11.987-.273-2.384-3.271-.616.986-19.011Z" transform="translate(-204.322 -217.347)" fill="#b78876"/>
            </g>
            <g id="Grupo_878835" data-name="Grupo 878835" transform="translate(17.267 3.249)">
              <g id="Grupo_878834" data-name="Grupo 878834">
                <path id="Trazado_621546" data-name="Trazado 621546" d="M225.857,221.171a4.5,4.5,0,0,1,.122,1.038c.05.67.093,1.641.116,2.841.054,2.4,0,5.721-.206,9.378s-.5,6.961-.735,9.348c-.119,1.194-.226,2.158-.311,2.824a4.674,4.674,0,0,1-.177,1.03,4.6,4.6,0,0,1,0-1.045c.045-.765.1-1.713.167-2.835.161-2.494.37-5.748.6-9.347.206-3.649.312-6.956.34-9.351.011-1.123.02-2.072.028-2.838A4.69,4.69,0,0,1,225.857,221.171Z" transform="translate(-224.644 -221.171)" fill="#aa6550"/>
              </g>
            </g>
          </g>
          <g id="Grupo_878838" data-name="Grupo 878838" transform="translate(20.949 156.884)" opacity="0.3">
            <g id="Grupo_878837" data-name="Grupo 878837">
              <path id="Trazado_621547" data-name="Trazado 621547" d="M227.258,286.768c5.353,1.988,11.219,2.156,16.908,1.658s11.305-1.635,16.99-2.174a81.488,81.488,0,0,1,25.738,1.666,4.611,4.611,0,0,0,1.814.172A1.52,1.52,0,0,0,290,286.952c.147-.95-.893-1.613-1.78-1.986a75.9,75.9,0,0,0-61.117,1.366" transform="translate(-227.099 -279.204)"/>
            </g>
          </g>
          <g id="Grupo_878844" data-name="Grupo 878844" transform="translate(0 58.968)">
            <g id="Grupo_878839" data-name="Grupo 878839">
              <path id="Trazado_621548" data-name="Trazado 621548" d="M305.513,179.664l-30.177-15.025a98.372,98.372,0,0,0-14.344-.626H241.019s-24.206,7.139-28.2,13.719l-10.375,31.1,20.507,3.1h0l2.558,22.343s-2.545,25.872-2.545,29.632a27.638,27.638,0,0,0,.321,5.2s41.034-6.239,51.138-2.949S287.26,269.1,287.26,269.1s-.845-10.739-1.594-16.969l-2.343-31.178-1.73-23.805,18.99,5.812Z" transform="translate(-202.444 -163.967)" fill="#2b95f9"/>
            </g>
            <g id="Grupo_878840" data-name="Grupo 878840" transform="translate(12.032 26.275)">
              <path id="Trazado_621549" data-name="Trazado 621549" d="M224.892,216.821c-.076.008-.276-1.287-.732-3.354a57,57,0,0,0-2.374-7.934,63.906,63.906,0,0,0-3.52-7.576l-1.239-2.23a3.736,3.736,0,0,1-.42-.839,3.848,3.848,0,0,1,.577.757c.348.5.821,1.241,1.374,2.173a50.511,50.511,0,0,1,3.667,7.574,45.676,45.676,0,0,1,2.258,8.019c.186,1.047.309,1.9.363,2.488A3.528,3.528,0,0,1,224.892,216.821Z" transform="translate(-216.604 -194.889)" fill="#263238"/>
            </g>
            <g id="Grupo_878841" data-name="Grupo 878841" transform="translate(35.489 57.037)">
              <path id="Trazado_621550" data-name="Trazado 621550" d="M267.746,231.094a1.6,1.6,0,0,1-.106.41l-.385,1.15c-.167.5-.383,1.106-.665,1.8s-.575,1.494-.967,2.35c-.738,1.733-1.721,3.752-2.909,5.944a73.826,73.826,0,0,1-9.28,13.261c-1.652,1.867-3.213,3.481-4.587,4.769-.67.662-1.32,1.214-1.876,1.714s-1.05.913-1.462,1.241l-.948.755a1.531,1.531,0,0,1-.349.24c-.009-.012.092-.117.293-.308l.894-.816c.394-.348.873-.776,1.41-1.293s1.172-1.082,1.826-1.755c1.342-1.311,2.872-2.94,4.5-4.811,1.608-1.886,3.3-4.023,4.95-6.363s3.06-4.673,4.281-6.83c1.2-2.169,2.207-4.165,2.978-5.875.408-.845.724-1.633,1.022-2.316s.541-1.279.732-1.767l.461-1.12A1.555,1.555,0,0,1,267.746,231.094Z" transform="translate(-244.21 -231.094)" fill="#263238"/>
            </g>
            <g id="Grupo_878843" data-name="Grupo 878843" transform="translate(70.822 2.732)">
              <g id="Grupo_878842" data-name="Grupo 878842">
                <path id="Trazado_621551" data-name="Trazado 621551" d="M287.939,167.183a9.75,9.75,0,0,0-1.591,3.787,13.237,13.237,0,0,0,.029,4.46,52.552,52.552,0,0,0,1.275,5.388c1.042,3.8,2.145,7.2,2.981,9.646l1,2.894a5.427,5.427,0,0,1,.325,1.078,5.223,5.223,0,0,1-.491-1.015c-.285-.666-.681-1.637-1.139-2.849-.916-2.423-2.072-5.817-3.117-9.634a47.055,47.055,0,0,1-1.251-5.447,12.933,12.933,0,0,1,.071-4.584,8.31,8.31,0,0,1,1.167-2.864A3.2,3.2,0,0,1,287.939,167.183Z" transform="translate(-285.793 -167.182)" fill="#263238"/>
              </g>
            </g>
          </g>
          <g id="Grupo_878846" data-name="Grupo 878846" transform="translate(4.319 92.657)">
            <g id="Grupo_878845" data-name="Grupo 878845">
              <path id="Trazado_621552" data-name="Trazado 621552" d="M219.227,205.4a4.253,4.253,0,0,1-1.608,1.092,8.116,8.116,0,0,1-8.878-1.351,4.262,4.262,0,0,1-1.211-1.521c.06-.047.5.553,1.413,1.282a8.526,8.526,0,0,0,8.554,1.3C218.587,205.777,219.184,205.336,219.227,205.4Z" transform="translate(-207.527 -203.615)" fill="#fff"/>
            </g>
          </g>
          <g id="Grupo_878848" data-name="Grupo 878848" transform="translate(14.677 80.408)">
            <g id="Grupo_878847" data-name="Grupo 878847">
              <path id="Trazado_621553" data-name="Trazado 621553" d="M278.9,189.2a4.089,4.089,0,0,1-.254.653c-.183.422-.474,1.035-.89,1.8a24.623,24.623,0,0,1-4.487,5.869,20.282,20.282,0,0,1-9.577,5.212,17.886,17.886,0,0,1-6.5.28,19.148,19.148,0,0,1-6.572-2.337c-4.173-2.331-7.695-5.279-11.554-6.688a18.131,18.131,0,0,0-10.653-.588,18.978,18.978,0,0,0-6.619,3.034c-1.394,1.033-2.046,1.752-2.085,1.711A13.064,13.064,0,0,1,221.7,196.3a18.638,18.638,0,0,1,17.518-2.691c3.95,1.423,7.506,4.388,11.623,6.683a18.851,18.851,0,0,0,6.422,2.3,17.6,17.6,0,0,0,6.345-.248,20.187,20.187,0,0,0,9.451-5.042,25.779,25.779,0,0,0,4.552-5.726c.437-.75.752-1.348.959-1.756A4.23,4.23,0,0,1,278.9,189.2Z" transform="translate(-219.717 -189.2)" fill="#fff"/>
            </g>
          </g>
          <g id="Grupo_878850" data-name="Grupo 878850" transform="translate(83.64 69.511)">
            <g id="Grupo_878849" data-name="Grupo 878849">
              <path id="Trazado_621554" data-name="Trazado 621554" d="M309.995,176.375a4,4,0,0,1,.393.978,11.818,11.818,0,0,1,.489,2.835,13.134,13.134,0,0,1-.473,4.248,12.911,12.911,0,0,1-2.388,4.66,33.889,33.889,0,0,1-3.788,3.581,10.148,10.148,0,0,0-2.57,3.238,5.516,5.516,0,0,0-.563,2.7c.051.66.191,1.013.151,1.026-.014.005-.057-.078-.126-.245a3.254,3.254,0,0,1-.2-.763,5.333,5.333,0,0,1,.449-2.85,10.058,10.058,0,0,1,2.58-3.411,36.984,36.984,0,0,0,3.72-3.561,13.38,13.38,0,0,0,2.892-8.616A19.981,19.981,0,0,0,309.995,176.375Z" transform="translate(-300.879 -176.375)" fill="#fff"/>
            </g>
          </g>
          <g id="Grupo_878852" data-name="Grupo 878852" transform="translate(22.301 135.585)">
            <g id="Grupo_878851" data-name="Grupo 878851">
              <path id="Trazado_621555" data-name="Trazado 621555" d="M250.063,259.7a3.591,3.591,0,0,1-.885.308,18.842,18.842,0,0,1-2.5.534,8.819,8.819,0,0,1-3.813-.223,5.683,5.683,0,0,1-2-1.126,17.09,17.09,0,0,1-1.631-1.785,8.46,8.46,0,0,0-1.707-1.575,8,8,0,0,0-1.947-.934,8.568,8.568,0,0,0-3.643-.35,7.8,7.8,0,0,0-2.4.676,5.976,5.976,0,0,1-.845.389,2.828,2.828,0,0,1,.768-.543,7.018,7.018,0,0,1,2.432-.832,8.52,8.52,0,0,1,3.809.27,8.208,8.208,0,0,1,2.066.962,8.692,8.692,0,0,1,1.8,1.648,17.693,17.693,0,0,0,1.582,1.749,5.353,5.353,0,0,0,1.84,1.063,8.891,8.891,0,0,0,3.65.3C248.756,259.986,250.045,259.616,250.063,259.7Z" transform="translate(-228.691 -254.138)" fill="#fff"/>
            </g>
          </g>
          <g id="Grupo_878854" data-name="Grupo 878854" transform="translate(52.085 130.824)">
            <g id="Grupo_878853" data-name="Grupo 878853">
              <path id="Trazado_621556" data-name="Trazado 621556" d="M294.406,257.041c.009.012-.083.09-.268.229a7.668,7.668,0,0,1-.838.566,12.614,12.614,0,0,1-3.434,1.437,14.478,14.478,0,0,1-5.514.319,13.558,13.558,0,0,1-6.268-2.514,62.947,62.947,0,0,1-5.012-4.507,16.144,16.144,0,0,0-4.449-3.066,8.532,8.532,0,0,0-3.534-.783c-.863.014-1.336.144-1.345.1a1.041,1.041,0,0,1,.336-.115,4.985,4.985,0,0,1,1-.157,8.177,8.177,0,0,1,3.662.665,15.867,15.867,0,0,1,4.6,3.052c1.554,1.376,3.1,3.055,5,4.452a13.417,13.417,0,0,0,6.063,2.468,14.654,14.654,0,0,0,5.383-.219,13.917,13.917,0,0,0,3.424-1.282A13.546,13.546,0,0,1,294.406,257.041Z" transform="translate(-263.743 -248.535)" fill="#fff"/>
            </g>
          </g>
        </g>
      </g>
      <g id="Magnifying_Glass" data-name="Magnifying Glass" transform="translate(304.971 16.239)">
        <g id="Grupo_878879" data-name="Grupo 878879">
          <g id="Grupo_878874" data-name="Grupo 878874">
            <g id="Grupo_878864" data-name="Grupo 878864" transform="translate(0 2.193)">
              <g id="Grupo_878859" data-name="Grupo 878859">
                <g id="Grupo_878858" data-name="Grupo 878858">
                  <g id="Grupo_878857" data-name="Grupo 878857">
                    <g id="Grupo_878856" data-name="Grupo 878856">
                      <path id="Trazado_621557" data-name="Trazado 621557" d="M380.458,101.445A43.441,43.441,0,1,1,437.241,41.29h0a43.435,43.435,0,0,1-56.782,60.155ZM416.666,25.7a40.5,40.5,0,1,0,18.026,17A40.517,40.517,0,0,0,416.666,25.7Z" transform="translate(-355.721 -18.82)" fill="#263238"/>
                    </g>
                  </g>
                </g>
              </g>
              <g id="Grupo_878863" data-name="Grupo 878863" transform="translate(62.063 77.16)">
                <g id="Grupo_878862" data-name="Grupo 878862" transform="translate(0 0)">
                  <g id="Grupo_878861" data-name="Grupo 878861">
                    <g id="Grupo_878860" data-name="Grupo 878860">
                      <path id="Trazado_621558" data-name="Trazado 621558" d="M464.742,162.582h0a5.4,5.4,0,0,1-7.431-1.761L428.9,114.783a.927.927,0,0,1,.3-1.276l6.061-3.74a.928.928,0,0,1,1.259.276L466.4,155A5.4,5.4,0,0,1,464.742,162.582Z" transform="translate(-428.763 -109.628)" fill="#263238"/>
                    </g>
                  </g>
                </g>
              </g>
            </g>
            <g id="Grupo_878873" data-name="Grupo 878873" transform="translate(1.044)">
              <g id="Grupo_878868" data-name="Grupo 878868">
                <g id="Grupo_878867" data-name="Grupo 878867">
                  <g id="Grupo_878866" data-name="Grupo 878866">
                    <g id="Grupo_878865" data-name="Grupo 878865">
                      <path id="Trazado_621559" data-name="Trazado 621559" d="M381.687,98.864A43.441,43.441,0,1,1,438.471,38.71h0a43.434,43.434,0,0,1-56.783,60.154ZM417.9,23.119a40.5,40.5,0,1,0,18.026,16.995A40.513,40.513,0,0,0,417.9,23.119Z" transform="translate(-356.951 -16.239)" fill="#455a64"/>
                    </g>
                  </g>
                </g>
              </g>
              <g id="Grupo_878872" data-name="Grupo 878872" transform="translate(61.718 76.825)">
                <g id="Grupo_878871" data-name="Grupo 878871">
                  <g id="Grupo_878870" data-name="Grupo 878870">
                    <g id="Grupo_878869" data-name="Grupo 878869">
                      <path id="Rectángulo_327470" data-name="Rectángulo 327470" d="M0,0H8.945a0,0,0,0,1,0,0V57.273a4.472,4.472,0,0,1-4.472,4.472h0A4.474,4.474,0,0,1,0,57.272V0A0,0,0,0,1,0,0Z" transform="translate(0 4.697) rotate(-31.669)" fill="#455a64"/>
                    </g>
                  </g>
                </g>
              </g>
            </g>
          </g>
          <g id="Grupo_878878" data-name="Grupo 878878" transform="translate(12.074 9.59)">
            <g id="Grupo_878877" data-name="Grupo 878877">
              <g id="Grupo_878876" data-name="Grupo 878876">
                <g id="Grupo_878875" data-name="Grupo 878875">
                  <path id="Trazado_621560" data-name="Trazado 621560" d="M369.936,51.056a8.459,8.459,0,0,1,.241-1.341,12.271,12.271,0,0,1,.4-1.55,20.07,20.07,0,0,1,.679-2.01l.455-1.148c.161-.4.375-.792.572-1.211A29.5,29.5,0,0,1,373.7,41.2a31,31,0,0,1,9.381-9.64c.888-.546,1.718-1.086,2.554-1.489.413-.208.8-.432,1.195-.6l1.135-.487a20.068,20.068,0,0,1,1.992-.732,12.149,12.149,0,0,1,1.537-.443,8.465,8.465,0,0,1,1.335-.279,8.542,8.542,0,0,1-1.291.434,14.328,14.328,0,0,0-1.507.506c-.577.225-1.251.438-1.951.783l-1.113.506c-.385.178-.766.407-1.171.619-.819.41-1.633.956-2.5,1.5a31.98,31.98,0,0,0-9.268,9.524c-.523.885-1.047,1.713-1.434,2.544-.2.41-.42.8-.588,1.187s-.323.766-.475,1.126c-.326.709-.521,1.388-.73,1.972a14.292,14.292,0,0,0-.466,1.519A8.649,8.649,0,0,1,369.936,51.056Z" transform="translate(-369.931 -27.526)" fill="#e0e0e0"/>
                </g>
              </g>
            </g>
          </g>
        </g>
      </g>
    </g>
  </g>
</svg>
