<svg xmlns="http://www.w3.org/2000/svg" width="715" height="402" viewBox="0 0 715 402">
  <g id="Grupo_1034301" data-name="Grupo 1034301" transform="translate(-650 -10858.602)">
    <rect id="concept-diversity-inclusion-equality-conceptual-photos" width="715" height="402" rx="19" transform="translate(650 10858.602)" fill="#fff"/>
    <g id="Shadows" transform="translate(810 11122.577)">
      <path id="Shadow" d="M346.29,354.744c-21.122-12.2-55.368-12.2-76.49,0-17.9,10.338-20.625,26.117-8.175,38.114a8.994,8.994,0,0,0-2.013.818L192.884,432.2c-2.833,1.636-2.833,4.287,0,5.923l4.177,2.412a10.54,10.54,0,0,0,10.084-.283l62.147-40.673a6.26,6.26,0,0,0,.714-.562c21.137,12.078,55.229,12.042,76.284-.114C367.412,386.711,367.412,366.939,346.29,354.744Z" transform="translate(-46.569 -309.908)" fill="#e6e6e6"/>
      <path id="Shadow-2" data-name="Shadow" d="M456.553,312.055c16.736,9.428,16.9,25,.374,34.788s-43.5,10.076-60.248.651-16.912-25-.375-34.788S439.815,302.628,456.553,312.055Z" transform="translate(-69.216 -305.17)" fill="#e0e0e0"/>
    </g>
    <g id="Grid" transform="translate(833.559 10901.148)">
      <g id="Grid-2" data-name="Grid">
        <g id="Grupo_878349" data-name="Grupo 878349">
          <g id="Grupo_878332" data-name="Grupo 878332" transform="translate(0.273 22.352)">
            <rect id="Rectángulo_327398" data-name="Rectángulo 327398" width="213.737" height="0.933" transform="translate(0 107.009) rotate(-30.043)" fill="#e0e0e0"/>
          </g>
          <g id="Grupo_878333" data-name="Grupo 878333" transform="translate(0.27 44.793)">
            <rect id="Rectángulo_327399" data-name="Rectángulo 327399" width="213.737" height="0.933" transform="translate(0 107) rotate(-30.041)" fill="#e0e0e0"/>
          </g>
          <g id="Grupo_878334" data-name="Grupo 878334" transform="translate(0.248 67.268)">
            <rect id="Rectángulo_327400" data-name="Rectángulo 327400" width="213.737" height="0.934" transform="translate(0 106.921) rotate(-30.016)" fill="#e0e0e0"/>
          </g>
          <g id="Grupo_878335" data-name="Grupo 878335" transform="translate(0.245 89.709)">
            <rect id="Rectángulo_327401" data-name="Rectángulo 327401" width="213.737" height="0.934" transform="translate(0 106.912) rotate(-30.014)" fill="#e0e0e0"/>
          </g>
          <g id="Grupo_878336" data-name="Grupo 878336" transform="translate(0.248 112.142)">
            <rect id="Rectángulo_327402" data-name="Rectángulo 327402" width="213.737" height="0.934" transform="translate(0 106.921) rotate(-30.016)" fill="#e0e0e0"/>
          </g>
          <g id="Grupo_878337" data-name="Grupo 878337" transform="translate(0.248 134.578)">
            <rect id="Rectángulo_327403" data-name="Rectángulo 327403" width="213.737" height="0.934" transform="translate(0 106.921) rotate(-30.016)" fill="#e0e0e0"/>
          </g>
          <g id="Grupo_878338" data-name="Grupo 878338" transform="translate(16.827 97.62)">
            <rect id="Rectángulo_327404" data-name="Rectángulo 327404" width="0.933" height="157.056" fill="#e0e0e0"/>
          </g>
          <g id="Grupo_878339" data-name="Grupo 878339" transform="translate(33.654 87.904)">
            <rect id="Rectángulo_327405" data-name="Rectángulo 327405" width="0.933" height="157.056" fill="#e0e0e0"/>
          </g>
          <g id="Grupo_878340" data-name="Grupo 878340" transform="translate(50.482 78.189)">
            <rect id="Rectángulo_327406" data-name="Rectángulo 327406" width="0.933" height="157.056" fill="#e0e0e0"/>
          </g>
          <g id="Grupo_878341" data-name="Grupo 878341" transform="translate(67.31 68.474)">
            <rect id="Rectángulo_327407" data-name="Rectángulo 327407" width="0.933" height="157.056" transform="translate(0)" fill="#e0e0e0"/>
          </g>
          <g id="Grupo_878342" data-name="Grupo 878342" transform="translate(84.137 58.758)">
            <rect id="Rectángulo_327408" data-name="Rectángulo 327408" width="0.933" height="157.056" fill="#e0e0e0"/>
          </g>
          <g id="Grupo_878343" data-name="Grupo 878343" transform="translate(100.965 49.043)">
            <rect id="Rectángulo_327409" data-name="Rectángulo 327409" width="0.933" height="157.056" fill="#e0e0e0"/>
          </g>
          <g id="Grupo_878344" data-name="Grupo 878344" transform="translate(117.792 39.328)">
            <rect id="Rectángulo_327410" data-name="Rectángulo 327410" width="0.933" height="157.057" fill="#e0e0e0"/>
          </g>
          <g id="Grupo_878345" data-name="Grupo 878345" transform="translate(134.619 29.612)">
            <rect id="Rectángulo_327411" data-name="Rectángulo 327411" width="0.933" height="157.057" fill="#e0e0e0"/>
          </g>
          <g id="Grupo_878346" data-name="Grupo 878346" transform="translate(151.447 19.897)">
            <rect id="Rectángulo_327412" data-name="Rectángulo 327412" width="0.933" height="157.057" fill="#e0e0e0"/>
          </g>
          <g id="Grupo_878347" data-name="Grupo 878347" transform="translate(168.274 10.182)">
            <rect id="Rectángulo_327413" data-name="Rectángulo 327413" width="0.933" height="157.056" fill="#e0e0e0"/>
          </g>
          <g id="Grupo_878348" data-name="Grupo 878348">
            <path id="Trazado_621106" data-name="Trazado 621106" d="M54.581,319.129a.481.481,0,0,1-.234-.062.468.468,0,0,1-.232-.4V161.684a.466.466,0,0,1,.232-.4l185.1-106.869a.466.466,0,0,1,.7.4V211.793a.466.466,0,0,1-.232.4l-185.1,106.87A.481.481,0,0,1,54.581,319.129Zm.466-157.176v155.9l184.17-106.33V55.623Z" transform="translate(-54.115 -54.349)" fill="#e0e0e0"/>
          </g>
        </g>
        <g id="Grupo_878365" data-name="Grupo 878365" transform="translate(0 156.978)">
          <g id="Grupo_878350" data-name="Grupo 878350" transform="translate(17.021 9.711)">
            <rect id="Rectángulo_327414" data-name="Rectángulo 327414" width="213.737" height="0.934" transform="translate(0 106.936) rotate(-30.021)" fill="#e0e0e0"/>
          </g>
          <g id="Grupo_878351" data-name="Grupo 878351" transform="translate(33.846 19.43)">
            <rect id="Rectángulo_327415" data-name="Rectángulo 327415" width="213.737" height="0.934" transform="translate(0 106.928) rotate(-30.018)" fill="#e0e0e0"/>
          </g>
          <g id="Grupo_878352" data-name="Grupo 878352" transform="translate(50.676 29.141)">
            <rect id="Rectángulo_327416" data-name="Rectángulo 327416" width="213.737" height="0.934" transform="translate(0 106.936) rotate(-30.021)" fill="#e0e0e0"/>
          </g>
          <g id="Grupo_878353" data-name="Grupo 878353" transform="translate(67.504 38.856)">
            <rect id="Rectángulo_327417" data-name="Rectángulo 327417" width="213.737" height="0.934" transform="translate(0 106.936) rotate(-30.021)" fill="#e0e0e0"/>
          </g>
          <g id="Grupo_878354" data-name="Grupo 878354" transform="translate(17.06 97.216)">
            <rect id="Rectángulo_327418" data-name="Rectángulo 327418" width="0.934" height="97.152" transform="matrix(0.5, -0.866, 0.866, 0.5, 0, 0.809)" fill="#e0e0e0"/>
          </g>
          <g id="Grupo_878355" data-name="Grupo 878355" transform="translate(33.887 87.501)">
            <rect id="Rectángulo_327419" data-name="Rectángulo 327419" width="0.934" height="97.153" transform="translate(0 0.809) rotate(-60)" fill="#e0e0e0"/>
          </g>
          <g id="Grupo_878356" data-name="Grupo 878356" transform="translate(50.715 77.786)">
            <rect id="Rectángulo_327420" data-name="Rectángulo 327420" width="0.934" height="97.153" transform="translate(0 0.809) rotate(-60)" fill="#e0e0e0"/>
          </g>
          <g id="Grupo_878357" data-name="Grupo 878357" transform="translate(67.543 68.069)">
            <rect id="Rectángulo_327421" data-name="Rectángulo 327421" width="0.934" height="97.153" transform="matrix(0.5, -0.866, 0.866, 0.5, 0, 0.809)" fill="#e0e0e0"/>
          </g>
          <g id="Grupo_878358" data-name="Grupo 878358" transform="translate(84.37 58.354)">
            <rect id="Rectángulo_327422" data-name="Rectángulo 327422" width="0.934" height="97.153" transform="translate(0 0.809) rotate(-60)" fill="#e0e0e0"/>
          </g>
          <g id="Grupo_878359" data-name="Grupo 878359" transform="translate(101.197 48.639)">
            <rect id="Rectángulo_327423" data-name="Rectángulo 327423" width="0.934" height="97.153" transform="translate(0 0.809) rotate(-60)" fill="#e0e0e0"/>
          </g>
          <g id="Grupo_878360" data-name="Grupo 878360" transform="translate(118.025 38.924)">
            <rect id="Rectángulo_327424" data-name="Rectángulo 327424" width="0.934" height="97.152" transform="translate(0 0.809) rotate(-60)" fill="#e0e0e0"/>
          </g>
          <g id="Grupo_878361" data-name="Grupo 878361" transform="translate(134.852 29.208)">
            <rect id="Rectángulo_327425" data-name="Rectángulo 327425" width="0.934" height="97.153" transform="translate(0 0.809) rotate(-60)" fill="#e0e0e0"/>
          </g>
          <g id="Grupo_878362" data-name="Grupo 878362" transform="translate(151.68 19.493)">
            <rect id="Rectángulo_327426" data-name="Rectángulo 327426" width="0.934" height="97.152" transform="translate(0 0.809) rotate(-60)" fill="#e0e0e0"/>
          </g>
          <g id="Grupo_878363" data-name="Grupo 878363" transform="translate(168.507 9.778)">
            <rect id="Rectángulo_327427" data-name="Rectángulo 327427" width="0.934" height="97.153" transform="translate(0 0.809) rotate(-60)" fill="#e0e0e0"/>
          </g>
          <g id="Grupo_878364" data-name="Grupo 878364">
            <path id="Trazado_621107" data-name="Trazado 621107" d="M138.659,388.509a.468.468,0,0,1-.233-.062L54.347,339.905a.468.468,0,0,1,0-.809l185.1-106.869a.467.467,0,0,1,.468,0L324,280.77a.468.468,0,0,1,0,.809l-185.1,106.869A.471.471,0,0,1,138.659,388.509ZM55.514,339.5l83.145,48,184.17-106.329-83.146-48Z" transform="translate(-54.115 -232.165)" fill="#e0e0e0"/>
          </g>
        </g>
      </g>
    </g>
    <g id="Charts" transform="translate(854.479 10930.839)">
      <g id="Charts-2" data-name="Charts" transform="translate(0 0)">
        <g id="Grupo_878369" data-name="Grupo 878369" transform="translate(0 67.734)">
          <g id="Grupo_878368" data-name="Grupo 878368" transform="translate(0 4.486)">
            <g id="Grupo_878367" data-name="Grupo 878367">
              <g id="Grupo_878366" data-name="Grupo 878366">
                <path id="Trazado_621108" data-name="Trazado 621108" d="M103.541,180.206c0,10.156-5.759,21.948-12.868,26.348s-12.861-.273-12.861-10.419,5.76-21.948,12.861-26.348v19.484l12.24-14.356A20.715,20.715,0,0,1,103.541,180.206Z" transform="translate(-77.812 -169.787)" fill="#455a64"/>
              </g>
            </g>
          </g>
          <path id="Trazado_621109" data-name="Trazado 621109" d="M105.962,171.489c-1.676-6.336-6.521-8.667-12.238-5.129V185.84Z" transform="translate(-79.677 -164.705)" fill="#2b95f9"/>
        </g>
        <g id="Grupo_878374" data-name="Grupo 878374" transform="translate(42.318 45.91)">
          <g id="Grupo_878372" data-name="Grupo 878372" transform="translate(0 2.446)">
            <g id="Grupo_878371" data-name="Grupo 878371">
              <g id="Grupo_878370" data-name="Grupo 878370">
                <path id="Trazado_621110" data-name="Trazado 621110" d="M138.608,161.139l7.567,10.2a24.392,24.392,0,0,1-7.567,8.183c-7.1,4.4-12.86-.263-12.86-10.419s5.759-21.948,12.86-26.348Z" transform="translate(-125.748 -142.755)" fill="#455a64"/>
              </g>
            </g>
          </g>
          <g id="Grupo_878373" data-name="Grupo 878373" transform="translate(14.821)">
            <path id="Trazado_621111" data-name="Trazado 621111" d="M150.1,170.217a36.7,36.7,0,0,0,5.3-18.155c0-10.153-5.759-14.82-12.864-10.423v18.383Z" transform="translate(-142.536 -139.984)" fill="#2b95f9"/>
          </g>
        </g>
        <g id="Grupo_878379" data-name="Grupo 878379" transform="translate(125.713)">
          <g id="Grupo_878377" data-name="Grupo 878377">
            <g id="Grupo_878376" data-name="Grupo 878376">
              <g id="Grupo_878375" data-name="Grupo 878375">
                <path id="Trazado_621112" data-name="Trazado 621112" d="M232.453,87.98v18.385l-12.24,1.891C221.883,99.845,226.736,91.517,232.453,87.98Z" transform="translate(-220.213 -87.98)" fill="#455a64"/>
              </g>
            </g>
          </g>
          <g id="Grupo_878378" data-name="Grupo 878378" transform="translate(1.547 0.455)">
            <path id="Trazado_621113" data-name="Trazado 621113" d="M222.591,110.424a31.192,31.192,0,0,0-.626,6.07c0,10.153,5.759,14.82,12.864,10.423s12.864-16.191,12.864-26.344-5.759-14.82-12.864-10.423v18.385Z" transform="translate(-221.965 -88.496)" fill="#2b95f9"/>
          </g>
        </g>
        <g id="Grupo_878384" data-name="Grupo 878384" transform="translate(84.332 22.127)">
          <g id="Grupo_878382" data-name="Grupo 878382" transform="translate(0 1.068)">
            <g id="Grupo_878381" data-name="Grupo 878381">
              <g id="Grupo_878380" data-name="Grupo 878380">
                <path id="Trazado_621114" data-name="Trazado 621114" d="M186.207,114.255v18.384L178.648,152.2c-3.215-1.355-5.31-5.482-5.31-11.6C173.338,130.448,179.1,118.646,186.207,114.255Z" transform="translate(-173.338 -114.255)" fill="#455a64"/>
              </g>
            </g>
          </g>
          <g id="Grupo_878383" data-name="Grupo 878383" transform="translate(7.373)">
            <path id="Trazado_621115" data-name="Trazado 621115" d="M181.69,152.637c2.122.893,4.735.578,7.561-1.17,7.1-4.4,12.864-16.192,12.864-26.345s-5.76-14.82-12.864-10.423v18.385Z" transform="translate(-181.69 -113.045)" fill="#2b95f9"/>
          </g>
        </g>
        <g id="Grupo_878385" data-name="Grupo 878385" transform="translate(5.09 45.485)">
          <path id="Trazado_621116" data-name="Trazado 621116" d="M83.578,237.075v-6a.492.492,0,0,1,.223-.386L98.993,221.8c.123-.071.223-.013.223.129v6a.494.494,0,0,1-.223.386L83.8,237.2C83.678,237.274,83.578,237.217,83.578,237.075Z" transform="translate(-83.578 -149.144)" fill="#2b95f9"/>
          <path id="Trazado_621117" data-name="Trazado 621117" d="M131.319,209.652v-6a.492.492,0,0,1,.223-.386l15.191-8.882c.123-.071.223-.013.223.129v6a.493.493,0,0,1-.223.386l-15.191,8.882C131.419,209.851,131.319,209.794,131.319,209.652Z" transform="translate(-89.173 -145.93)" fill="#2b95f9"/>
          <path id="Trazado_621118" data-name="Trazado 621118" d="M179.06,182.229v-6a.492.492,0,0,1,.223-.386l15.191-8.881c.124-.072.223-.014.223.128v6a.491.491,0,0,1-.223.386l-15.191,8.882C179.16,182.428,179.06,182.371,179.06,182.229Z" transform="translate(-94.767 -142.717)" fill="#2b95f9"/>
          <path id="Trazado_621119" data-name="Trazado 621119" d="M226.8,154.806v-6a.492.492,0,0,1,.223-.386l15.191-8.881c.124-.072.223-.014.223.128v6a.491.491,0,0,1-.223.386l-15.191,8.882C226.9,155.005,226.8,154.948,226.8,154.806Z" transform="translate(-100.362 -139.503)" fill="#2b95f9"/>
        </g>
      </g>
      <g id="Graph" transform="translate(9.352 13.429)">
        <g id="Grupo_878386" data-name="Grupo 878386" transform="translate(0 20.371)">
          <path id="Trazado_621120" data-name="Trazado 621120" d="M273.508,126.266,256.68,155.2l-16.827,49.626-16.827-9.212L206.2,241.91,189.371,232.7l-16.827,10.084-16.827,23.3-16.828-1.218-16.827,34.547-16.827-.953-16.827,23.4V344.3l3.79,2.189L277.3,239.593V128.455Z" transform="translate(-88.406 -126.266)" fill="#263238"/>
          <path id="Trazado_621121" data-name="Trazado 621121" d="M92.7,324.341l16.827-23.4,16.827.952,16.827-34.548,16.827,1.218,16.827-23.3,16.827-10.084,16.827,9.212,16.827-46.3,16.827,9.212,16.827-49.626L277.8,128.745V239.884L92.7,346.778Z" transform="translate(-88.909 -126.557)" fill="#455a64"/>
          <path id="Trazado_621122" data-name="Trazado 621122" d="M88.406,344.72l3.79,2.189,16.827-23.4-3.79-2.189Z" transform="translate(-88.406 -149.124)" fill="#37474f"/>
          <path id="Trazado_621123" data-name="Trazado 621123" d="M143.356,283.266l3.79,2.188L130.319,320l-3.79-2.189Z" transform="translate(-92.873 -144.665)" fill="#37474f"/>
          <path id="Trazado_621124" data-name="Trazado 621124" d="M164.651,281.553l3.79,2.189,16.827-23.3-3.79-2.189Z" transform="translate(-97.341 -141.733)" fill="#37474f"/>
          <path id="Trazado_621125" data-name="Trazado 621125" d="M238.662,204.82l3.79,2.188-16.827,46.3-3.79-2.188Z" transform="translate(-104.042 -135.472)" fill="#37474f"/>
          <path id="Trazado_621126" data-name="Trazado 621126" d="M276.784,159.04l3.791,2.188-16.827,49.626-3.791-2.188Z" transform="translate(-108.509 -130.107)" fill="#37474f"/>
        </g>
        <g id="Grupo_878411" data-name="Grupo 878411" transform="translate(1.867)">
          <g id="Grupo_878398" data-name="Grupo 878398" transform="translate(0 6.879)">
            <g id="Grupo_878387" data-name="Grupo 878387" transform="translate(168.834)">
              <path id="Trazado_621127" data-name="Trazado 621127" d="M282.156,133.459a.4.4,0,0,1-.216-.064.391.391,0,0,1-.109-.54l14.378-21.7a.389.389,0,1,1,.649.43l-14.378,21.7A.387.387,0,0,1,282.156,133.459Z" transform="translate(-281.767 -110.984)" fill="#455a64"/>
            </g>
            <g id="Grupo_878388" data-name="Grupo 878388" transform="translate(151.338 28.544)">
              <path id="Trazado_621128" data-name="Trazado 621128" d="M262.338,186.523a.391.391,0,0,1-.369-.515l14.386-42.427a.39.39,0,0,1,.738.25l-14.386,42.427A.39.39,0,0,1,262.338,186.523Z" transform="translate(-261.949 -143.316)" fill="#455a64"/>
            </g>
            <g id="Grupo_878389" data-name="Grupo 878389" transform="translate(136.521 67.14)">
              <path id="Trazado_621129" data-name="Trazado 621129" d="M257.251,194.205a.4.4,0,0,1-.187-.048l-11.7-6.391a.39.39,0,0,1,.374-.683l11.7,6.39a.39.39,0,0,1-.187.732Z" transform="translate(-245.165 -187.036)" fill="#455a64"/>
            </g>
            <g id="Grupo_878390" data-name="Grupo 878390" transform="translate(119.095 69.682)">
              <path id="Trazado_621130" data-name="Trazado 621130" d="M225.815,229.822a.394.394,0,0,1-.133-.024.389.389,0,0,1-.233-.5l14.222-39.127a.389.389,0,0,1,.732.266l-14.222,39.128A.389.389,0,0,1,225.815,229.822Z" transform="translate(-225.425 -189.915)" fill="#455a64"/>
            </g>
            <g id="Grupo_878391" data-name="Grupo 878391" transform="translate(102.868 104.225)">
              <path id="Trazado_621131" data-name="Trazado 621131" d="M220.457,236.953a.385.385,0,0,1-.187-.049l-13.023-7.13a.389.389,0,1,1,.374-.682l13.023,7.129a.39.39,0,0,1-.187.732Z" transform="translate(-207.044 -229.044)" fill="#455a64"/>
            </g>
            <g id="Grupo_878392" data-name="Grupo 878392" transform="translate(86.624 104.679)">
              <path id="Trazado_621132" data-name="Trazado 621132" d="M189.032,237.435a.389.389,0,0,1-.2-.723l11.846-7.1a.389.389,0,0,1,.4.668l-11.846,7.1A.383.383,0,0,1,189.032,237.435Z" transform="translate(-188.644 -229.558)" fill="#455a64"/>
            </g>
            <g id="Grupo_878393" data-name="Grupo 878393" transform="translate(69.501 116.04)">
              <path id="Trazado_621133" data-name="Trazado 621133" d="M169.637,260.7a.389.389,0,0,1-.315-.617l12.634-17.5a.389.389,0,0,1,.631.456l-12.635,17.5A.386.386,0,0,1,169.637,260.7Z" transform="translate(-169.248 -242.427)" fill="#455a64"/>
            </g>
            <g id="Grupo_878394" data-name="Grupo 878394" transform="translate(52.757 135.517)">
              <path id="Trazado_621134" data-name="Trazado 621134" d="M162.922,266.157l-.028,0-12.252-.887a.389.389,0,0,1-.359-.417.375.375,0,0,1,.416-.359l12.252.887a.389.389,0,0,1-.028.778Z" transform="translate(-150.282 -264.49)" fill="#455a64"/>
            </g>
            <g id="Grupo_878395" data-name="Grupo 878395" transform="translate(35.392 138.869)">
              <path id="Trazado_621135" data-name="Trazado 621135" d="M131,296.53a.39.39,0,0,1-.35-.561l13.377-27.464a.389.389,0,0,1,.7.341l-13.377,27.465A.391.391,0,0,1,131,296.53Z" transform="translate(-130.611 -268.287)" fill="#455a64"/>
            </g>
            <g id="Grupo_878396" data-name="Grupo 878396" transform="translate(19.08 169.076)">
              <path id="Trazado_621136" data-name="Trazado 621136" d="M124.794,303.976h-.022l-12.271-.694a.389.389,0,0,1-.366-.411.382.382,0,0,1,.411-.366l12.27.695a.389.389,0,0,1-.022.778Z" transform="translate(-112.134 -302.503)" fill="#455a64"/>
            </g>
            <g id="Grupo_878397" data-name="Grupo 878397" transform="translate(0 171.908)">
              <path id="Trazado_621137" data-name="Trazado 621137" d="M90.91,326.93a.4.4,0,0,1-.228-.073.391.391,0,0,1-.088-.545l14.7-20.44a.39.39,0,1,1,.633.456l-14.7,20.44A.393.393,0,0,1,90.91,326.93Z" transform="translate(-90.521 -305.711)" fill="#455a64"/>
            </g>
          </g>
          <g id="Grupo_878410" data-name="Grupo 878410" transform="translate(14.33)">
            <g id="Grupo_878399" data-name="Grupo 878399" transform="translate(0 172.197)">
              <path id="Trazado_621138" data-name="Trazado 621138" d="M108.647,306.285a1.648,1.648,0,0,1-.835-.221,2.59,2.59,0,0,1-1.059-2.357,6.324,6.324,0,0,1,2.692-5.109,1.977,1.977,0,0,1,2.024-.131,2.589,2.589,0,0,1,1.058,2.356,6.324,6.324,0,0,1-2.692,5.109A2.4,2.4,0,0,1,108.647,306.285Zm1.984-7.26a1.654,1.654,0,0,0-.8.248,5.561,5.561,0,0,0-2.3,4.434,1.87,1.87,0,0,0,.668,1.683,1.257,1.257,0,0,0,1.244-.132,5.558,5.558,0,0,0,2.3-4.434,1.872,1.872,0,0,0-.668-1.683A.89.89,0,0,0,110.63,299.025Z" transform="translate(-106.753 -298.246)" fill="#455a64"/>
            </g>
            <g id="Grupo_878400" data-name="Grupo 878400" transform="translate(33.655 138.71)">
              <path id="Trazado_621139" data-name="Trazado 621139" d="M146.77,268.353a1.648,1.648,0,0,1-.835-.221,2.591,2.591,0,0,1-1.059-2.356,6.325,6.325,0,0,1,2.693-5.11,1.976,1.976,0,0,1,2.023-.132,2.591,2.591,0,0,1,1.059,2.357A6.321,6.321,0,0,1,147.958,268,2.389,2.389,0,0,1,146.77,268.353Zm1.984-7.26a1.654,1.654,0,0,0-.8.248,5.561,5.561,0,0,0-2.3,4.435,1.873,1.873,0,0,0,.668,1.683,1.262,1.262,0,0,0,1.245-.132,5.561,5.561,0,0,0,2.3-4.434,1.871,1.871,0,0,0-.668-1.683A.881.881,0,0,0,148.753,261.093Z" transform="translate(-144.875 -260.314)" fill="#455a64"/>
            </g>
            <g id="Grupo_878401" data-name="Grupo 878401" transform="translate(16.827 172.974)">
              <path id="Trazado_621140" data-name="Trazado 621140" d="M127.708,307.166a1.651,1.651,0,0,1-.835-.221,2.592,2.592,0,0,1-1.058-2.357,6.322,6.322,0,0,1,2.693-5.109,1.974,1.974,0,0,1,2.023-.132,2.592,2.592,0,0,1,1.058,2.356,6.322,6.322,0,0,1-2.693,5.109A2.39,2.39,0,0,1,127.708,307.166Zm1.985-7.261a1.655,1.655,0,0,0-.8.249,5.563,5.563,0,0,0-2.3,4.434,1.87,1.87,0,0,0,.667,1.683,1.261,1.261,0,0,0,1.246-.132,5.563,5.563,0,0,0,2.3-4.435,1.869,1.869,0,0,0-.668-1.683A.88.88,0,0,0,129.692,299.9Z" transform="translate(-125.814 -299.126)" fill="#455a64"/>
            </g>
            <g id="Grupo_878402" data-name="Grupo 878402" transform="translate(50.482 139.622)">
              <path id="Trazado_621141" data-name="Trazado 621141" d="M165.831,269.387a1.656,1.656,0,0,1-.837-.222,2.592,2.592,0,0,1-1.058-2.356,6.319,6.319,0,0,1,2.693-5.109,1.976,1.976,0,0,1,2.024-.132,2.6,2.6,0,0,1,1.058,2.357,6.322,6.322,0,0,1-2.693,5.109A2.39,2.39,0,0,1,165.831,269.387Zm1.983-7.261a1.66,1.66,0,0,0-.8.248,5.56,5.56,0,0,0-2.3,4.435,1.868,1.868,0,0,0,.668,1.682,1.262,1.262,0,0,0,1.245-.131,5.564,5.564,0,0,0,2.3-4.435,1.868,1.868,0,0,0-.668-1.683A.881.881,0,0,0,167.813,262.126Z" transform="translate(-163.936 -261.347)" fill="#455a64"/>
            </g>
            <g id="Grupo_878403" data-name="Grupo 878403" transform="translate(67.31 116.148)">
              <path id="Trazado_621142" data-name="Trazado 621142" d="M184.892,242.8a1.648,1.648,0,0,1-.835-.221A2.592,2.592,0,0,1,183,240.219a6.321,6.321,0,0,1,2.692-5.109,1.974,1.974,0,0,1,2.023-.132,2.593,2.593,0,0,1,1.059,2.357,6.322,6.322,0,0,1-2.693,5.109A2.391,2.391,0,0,1,184.892,242.8Zm1.984-7.261a1.657,1.657,0,0,0-.8.248,5.561,5.561,0,0,0-2.3,4.435,1.871,1.871,0,0,0,.668,1.683,1.264,1.264,0,0,0,1.245-.132,5.563,5.563,0,0,0,2.3-4.435,1.872,1.872,0,0,0-.668-1.683A.89.89,0,0,0,186.875,235.536Z" transform="translate(-182.998 -234.757)" fill="#455a64"/>
            </g>
            <g id="Grupo_878404" data-name="Grupo 878404" transform="translate(84.137 106.433)">
              <path id="Trazado_621143" data-name="Trazado 621143" d="M203.953,231.791a1.656,1.656,0,0,1-.836-.221,2.593,2.593,0,0,1-1.058-2.356,6.325,6.325,0,0,1,2.693-5.11,1.979,1.979,0,0,1,2.024-.132,2.594,2.594,0,0,1,1.058,2.357,6.322,6.322,0,0,1-2.693,5.109A2.389,2.389,0,0,1,203.953,231.791Zm1.985-7.26a1.654,1.654,0,0,0-.8.248,5.563,5.563,0,0,0-2.3,4.435,1.869,1.869,0,0,0,.668,1.683,1.262,1.262,0,0,0,1.245-.132,5.564,5.564,0,0,0,2.3-4.435,1.869,1.869,0,0,0-.668-1.683A.88.88,0,0,0,205.937,224.531Z" transform="translate(-202.059 -223.752)" fill="#455a64"/>
            </g>
            <g id="Grupo_878405" data-name="Grupo 878405" transform="translate(100.965 115.645)">
              <path id="Trazado_621144" data-name="Trazado 621144" d="M223.014,242.226a1.648,1.648,0,0,1-.835-.221,2.591,2.591,0,0,1-1.058-2.357,6.321,6.321,0,0,1,2.692-5.109,1.977,1.977,0,0,1,2.024-.132,2.593,2.593,0,0,1,1.058,2.356,6.322,6.322,0,0,1-2.693,5.11A2.4,2.4,0,0,1,223.014,242.226ZM225,234.965a1.654,1.654,0,0,0-.8.249,5.646,5.646,0,0,0-2.3,4.434,1.87,1.87,0,0,0,.668,1.683,1.264,1.264,0,0,0,1.245-.132,5.561,5.561,0,0,0,2.3-4.435,1.87,1.87,0,0,0-.668-1.682A.882.882,0,0,0,225,234.965Z" transform="translate(-221.12 -234.187)" fill="#455a64"/>
            </g>
            <g id="Grupo_878406" data-name="Grupo 878406" transform="translate(117.792 69.348)">
              <path id="Trazado_621145" data-name="Trazado 621145" d="M242.076,189.784a1.651,1.651,0,0,1-.836-.221,2.592,2.592,0,0,1-1.059-2.357,6.322,6.322,0,0,1,2.693-5.109,1.975,1.975,0,0,1,2.024-.132,2.594,2.594,0,0,1,1.058,2.357,6.322,6.322,0,0,1-2.693,5.109A2.4,2.4,0,0,1,242.076,189.784Zm1.984-7.26a1.657,1.657,0,0,0-.8.248,5.561,5.561,0,0,0-2.3,4.434,1.867,1.867,0,0,0,.668,1.683,1.265,1.265,0,0,0,1.245-.132,5.563,5.563,0,0,0,2.3-4.434,1.87,1.87,0,0,0-.667-1.683A.883.883,0,0,0,244.059,182.524Z" transform="translate(-240.181 -181.744)" fill="#455a64"/>
            </g>
            <g id="Grupo_878407" data-name="Grupo 878407" transform="translate(133.291 77.819)">
              <path id="Trazado_621146" data-name="Trazado 621146" d="M259.631,199.38a1.654,1.654,0,0,1-.836-.221,2.594,2.594,0,0,1-1.058-2.357,6.322,6.322,0,0,1,2.693-5.109,1.972,1.972,0,0,1,2.023-.132,2.591,2.591,0,0,1,1.059,2.357,6.322,6.322,0,0,1-2.693,5.109A2.389,2.389,0,0,1,259.631,199.38Zm1.984-7.261a1.658,1.658,0,0,0-.8.249,5.561,5.561,0,0,0-2.3,4.434,1.87,1.87,0,0,0,.667,1.683,1.261,1.261,0,0,0,1.246-.132,5.561,5.561,0,0,0,2.3-4.434,1.867,1.867,0,0,0-.668-1.683A.882.882,0,0,0,261.614,192.119Z" transform="translate(-257.737 -191.34)" fill="#455a64"/>
            </g>
            <g id="Grupo_878408" data-name="Grupo 878408" transform="translate(150.118 28.193)">
              <path id="Trazado_621147" data-name="Trazado 621147" d="M278.693,143.166a1.659,1.659,0,0,1-.837-.221,2.6,2.6,0,0,1-1.058-2.356,6.322,6.322,0,0,1,2.693-5.11,1.978,1.978,0,0,1,2.023-.132,2.591,2.591,0,0,1,1.058,2.357,6.324,6.324,0,0,1-2.692,5.109A2.394,2.394,0,0,1,278.693,143.166Zm1.984-7.261a1.657,1.657,0,0,0-.8.249,5.561,5.561,0,0,0-2.3,4.435,1.87,1.87,0,0,0,.668,1.682,1.258,1.258,0,0,0,1.245-.132,5.646,5.646,0,0,0,2.3-4.434,1.87,1.87,0,0,0-.668-1.683A.882.882,0,0,0,280.676,135.9Z" transform="translate(-276.798 -135.127)" fill="#455a64"/>
            </g>
            <g id="Grupo_878409" data-name="Grupo 878409" transform="translate(168.275)">
              <path id="Trazado_621148" data-name="Trazado 621148" d="M299.259,111.231a1.654,1.654,0,0,1-.836-.221,2.594,2.594,0,0,1-1.058-2.357,6.321,6.321,0,0,1,2.693-5.109,1.978,1.978,0,0,1,2.024-.132,2.6,2.6,0,0,1,1.058,2.357,6.324,6.324,0,0,1-2.693,5.11A2.389,2.389,0,0,1,299.259,111.231Zm1.984-7.261a1.655,1.655,0,0,0-.8.249,5.56,5.56,0,0,0-2.3,4.434,1.871,1.871,0,0,0,.668,1.683,1.257,1.257,0,0,0,1.246-.132,5.562,5.562,0,0,0,2.3-4.435,1.869,1.869,0,0,0-.668-1.682A.882.882,0,0,0,301.242,103.97Z" transform="translate(-297.365 -103.191)" fill="#455a64"/>
            </g>
          </g>
        </g>
      </g>
      <g id="Graph-2" data-name="Graph" transform="translate(42.618 8.101)">
        <g id="Grupo_878436" data-name="Grupo 878436">
          <g id="Grupo_878423" data-name="Grupo 878423" transform="translate(0 7.006)">
            <g id="Grupo_878412" data-name="Grupo 878412" transform="translate(170.04)">
              <path id="Trazado_621149" data-name="Trazado 621149" d="M319.088,131.273a.391.391,0,0,1-.345-.57l13.3-25.4a.389.389,0,0,1,.69.361l-13.3,25.4A.391.391,0,0,1,319.088,131.273Z" transform="translate(-318.699 -105.091)" fill="#27debf"/>
            </g>
            <g id="Grupo_878413" data-name="Grupo 878413" transform="translate(152.562 32.397)">
              <path id="Trazado_621150" data-name="Trazado 621150" d="M299.29,189.916a.4.4,0,0,1-.115-.018.391.391,0,0,1-.258-.487l14.6-47.348a.39.39,0,0,1,.745.23l-14.6,47.348A.39.39,0,0,1,299.29,189.916Z" transform="translate(-298.901 -141.789)" fill="#27debf"/>
            </g>
            <g id="Grupo_878414" data-name="Grupo 878414" transform="translate(136.386 71.979)">
              <path id="Trazado_621151" data-name="Trazado 621151" d="M294.261,197.455a.387.387,0,0,1-.234-.079l-13.3-10.052a.389.389,0,1,1,.47-.621l13.3,10.052a.389.389,0,0,1-.235.7Z" transform="translate(-280.577 -186.625)" fill="#27debf"/>
            </g>
            <g id="Grupo_878415" data-name="Grupo 878415" transform="translate(119.1 74.229)">
              <path id="Trazado_621152" data-name="Trazado 621152" d="M261.386,228.934a.39.39,0,0,1-.365-.523l14.212-38.982a.389.389,0,0,1,.732.267l-14.212,38.981A.388.388,0,0,1,261.386,228.934Z" transform="translate(-260.997 -189.174)" fill="#27debf"/>
            </g>
            <g id="Grupo_878416" data-name="Grupo 878416" transform="translate(103.081 113.051)">
              <path id="Trazado_621153" data-name="Trazado 621153" d="M255.836,237.137a.355.355,0,0,1-.1-.013l-12.6-3.208a.389.389,0,1,1,.192-.754l12.6,3.208a.389.389,0,0,1-.1.767Z" transform="translate(-242.851 -233.149)" fill="#27debf"/>
            </g>
            <g id="Grupo_878417" data-name="Grupo 878417" transform="translate(85.507 116.105)">
              <path id="Trazado_621154" data-name="Trazado 621154" d="M223.334,278.286a.4.4,0,0,1-.127-.021.391.391,0,0,1-.241-.5l14.209-40.9a.39.39,0,0,1,.736.255l-14.209,40.9A.389.389,0,0,1,223.334,278.286Z" transform="translate(-222.944 -236.608)" fill="#27debf"/>
            </g>
            <g id="Grupo_878418" data-name="Grupo 878418" transform="translate(68.906 147.366)">
              <path id="Trazado_621155" data-name="Trazado 621155" d="M217.952,284.766a.39.39,0,0,1-.26-.1L204.27,272.7a.39.39,0,0,1,.518-.582l13.422,11.968a.389.389,0,0,1-.259.68Z" transform="translate(-204.139 -272.019)" fill="#27debf"/>
            </g>
            <g id="Grupo_878419" data-name="Grupo 878419" transform="translate(52.63 142.205)">
              <path id="Trazado_621156" data-name="Trazado 621156" d="M198.589,270.135a.393.393,0,0,1-.1-.012L186,266.94a.39.39,0,1,1,.191-.756l12.5,3.183a.39.39,0,0,1-.1.767Z" transform="translate(-185.703 -266.173)" fill="#27debf"/>
            </g>
            <g id="Grupo_878420" data-name="Grupo 878420" transform="translate(35.212 145.265)">
              <path id="Trazado_621157" data-name="Trazado 621157" d="M166.362,302.736a.39.39,0,0,1-.359-.542l13.737-32.317a.389.389,0,1,1,.717.3L166.721,302.5A.39.39,0,0,1,166.362,302.736Z" transform="translate(-165.972 -269.64)" fill="#27debf"/>
            </g>
            <g id="Grupo_878421" data-name="Grupo 878421" transform="translate(19.196 181.57)">
              <path id="Trazado_621158" data-name="Trazado 621158" d="M148.22,313.177a.39.39,0,0,1-.052-.776l12.054-1.635a.4.4,0,0,1,.439.334.391.391,0,0,1-.334.439l-12.053,1.635C148.256,313.175,148.238,313.177,148.22,313.177Z" transform="translate(-147.831 -310.764)" fill="#27debf"/>
            </g>
            <g id="Grupo_878422" data-name="Grupo 878422" transform="translate(0 186.899)">
              <path id="Trazado_621159" data-name="Trazado 621159" d="M126.476,346.357a.383.383,0,0,1-.18-.045.389.389,0,0,1-.165-.525l15.062-28.777a.389.389,0,1,1,.689.36l-15.062,28.777A.388.388,0,0,1,126.476,346.357Z" transform="translate(-126.087 -316.8)" fill="#27debf"/>
            </g>
          </g>
          <g id="Grupo_878435" data-name="Grupo 878435" transform="translate(14.33)">
            <g id="Grupo_878424" data-name="Grupo 878424" transform="translate(0 186.9)">
              <path id="Trazado_621160" data-name="Trazado 621160" d="M144.213,316.9a1.648,1.648,0,0,1-.835-.221,2.591,2.591,0,0,1-1.059-2.357,6.325,6.325,0,0,1,2.693-5.109,1.976,1.976,0,0,1,2.023-.132,2.593,2.593,0,0,1,1.059,2.357,6.323,6.323,0,0,1-2.693,5.109A2.4,2.4,0,0,1,144.213,316.9Zm1.984-7.26a1.654,1.654,0,0,0-.8.248,5.563,5.563,0,0,0-2.3,4.434,1.87,1.87,0,0,0,.667,1.683,1.261,1.261,0,0,0,1.246-.132,5.563,5.563,0,0,0,2.3-4.434,1.871,1.871,0,0,0-.668-1.684A.889.889,0,0,0,146.2,309.645Z" transform="translate(-142.319 -308.866)" fill="#27debf"/>
            </g>
            <g id="Grupo_878425" data-name="Grupo 878425" transform="translate(33.655 145.141)">
              <path id="Trazado_621161" data-name="Trazado 621161" d="M182.335,269.6a1.651,1.651,0,0,1-.836-.221,2.6,2.6,0,0,1-1.058-2.358,6.325,6.325,0,0,1,2.693-5.109,1.979,1.979,0,0,1,2.024-.131,2.591,2.591,0,0,1,1.058,2.356,6.32,6.32,0,0,1-2.693,5.109A2.393,2.393,0,0,1,182.335,269.6Zm1.984-7.261a1.663,1.663,0,0,0-.8.248,5.563,5.563,0,0,0-2.3,4.434,1.87,1.87,0,0,0,.668,1.684,1.261,1.261,0,0,0,1.245-.132,5.56,5.56,0,0,0,2.3-4.434,1.867,1.867,0,0,0-.668-1.682A.882.882,0,0,0,184.318,262.342Z" transform="translate(-180.441 -261.564)" fill="#27debf"/>
            </g>
            <g id="Grupo_878426" data-name="Grupo 878426" transform="translate(16.827 184.443)">
              <path id="Trazado_621162" data-name="Trazado 621162" d="M163.275,314.122a1.654,1.654,0,0,1-.836-.221,2.594,2.594,0,0,1-1.058-2.357,6.325,6.325,0,0,1,2.692-5.109,1.972,1.972,0,0,1,2.023-.132,2.591,2.591,0,0,1,1.059,2.357,6.321,6.321,0,0,1-2.692,5.109A2.4,2.4,0,0,1,163.275,314.122Zm1.983-7.261a1.654,1.654,0,0,0-.8.249,5.651,5.651,0,0,0-2.3,4.434,1.871,1.871,0,0,0,.668,1.683,1.257,1.257,0,0,0,1.244-.132,5.645,5.645,0,0,0,2.3-4.434,1.872,1.872,0,0,0-.668-1.684A.89.89,0,0,0,165.257,306.861Z" transform="translate(-161.38 -306.082)" fill="#27debf"/>
            </g>
            <g id="Grupo_878427" data-name="Grupo 878427" transform="translate(50.482 149.121)">
              <path id="Trazado_621163" data-name="Trazado 621163" d="M201.4,274.111a1.649,1.649,0,0,1-.835-.221,2.592,2.592,0,0,1-1.059-2.357,6.321,6.321,0,0,1,2.693-5.109,1.976,1.976,0,0,1,2.023-.132,2.591,2.591,0,0,1,1.058,2.357,6.325,6.325,0,0,1-2.692,5.109A2.389,2.389,0,0,1,201.4,274.111Zm1.984-7.26a1.654,1.654,0,0,0-.8.248,5.642,5.642,0,0,0-2.3,4.434,1.874,1.874,0,0,0,.668,1.684,1.262,1.262,0,0,0,1.245-.132,5.561,5.561,0,0,0,2.3-4.434,1.871,1.871,0,0,0-.668-1.683A.881.881,0,0,0,203.38,266.851Z" transform="translate(-199.502 -266.072)" fill="#27debf"/>
            </g>
            <g id="Grupo_878428" data-name="Grupo 878428" transform="translate(67.31 163.954)">
              <path id="Trazado_621164" data-name="Trazado 621164" d="M220.458,290.913a1.654,1.654,0,0,1-.836-.221,2.594,2.594,0,0,1-1.058-2.357,6.321,6.321,0,0,1,2.692-5.109,1.976,1.976,0,0,1,2.024-.132,2.594,2.594,0,0,1,1.058,2.356,6.325,6.325,0,0,1-2.693,5.11A2.4,2.4,0,0,1,220.458,290.913Zm1.984-7.261a1.652,1.652,0,0,0-.8.249,5.645,5.645,0,0,0-2.3,4.434,1.867,1.867,0,0,0,.667,1.682,1.262,1.262,0,0,0,1.245-.131,5.563,5.563,0,0,0,2.3-4.435,1.871,1.871,0,0,0-.668-1.683A.88.88,0,0,0,222.441,283.652Z" transform="translate(-218.564 -282.873)" fill="#27debf"/>
            </g>
            <g id="Grupo_878429" data-name="Grupo 878429" transform="translate(84.136 115.887)">
              <path id="Trazado_621165" data-name="Trazado 621165" d="M239.519,236.465a1.648,1.648,0,0,1-.835-.221,2.591,2.591,0,0,1-1.059-2.357,6.322,6.322,0,0,1,2.693-5.109,1.98,1.98,0,0,1,2.024-.132A2.594,2.594,0,0,1,243.4,231a6.322,6.322,0,0,1-2.693,5.109A2.392,2.392,0,0,1,239.519,236.465Zm1.984-7.26a1.654,1.654,0,0,0-.8.248,5.647,5.647,0,0,0-2.3,4.434,1.872,1.872,0,0,0,.668,1.684,1.262,1.262,0,0,0,1.245-.132,5.646,5.646,0,0,0,2.3-4.434,1.872,1.872,0,0,0-.668-1.683A.881.881,0,0,0,241.5,229.2Z" transform="translate(-237.624 -228.426)" fill="#27debf"/>
            </g>
            <g id="Grupo_878430" data-name="Grupo 878430" transform="translate(100.965 120.173)">
              <path id="Trazado_621166" data-name="Trazado 621166" d="M258.581,241.32a1.665,1.665,0,0,1-.837-.22,2.594,2.594,0,0,1-1.058-2.357,6.32,6.32,0,0,1,2.693-5.109,1.974,1.974,0,0,1,2.023-.132,2.592,2.592,0,0,1,1.058,2.357,6.322,6.322,0,0,1-2.693,5.109A2.389,2.389,0,0,1,258.581,241.32Zm1.983-7.26a1.657,1.657,0,0,0-.8.248,5.563,5.563,0,0,0-2.3,4.435,1.869,1.869,0,0,0,.668,1.683,1.258,1.258,0,0,0,1.245-.132,5.564,5.564,0,0,0,2.3-4.435,1.869,1.869,0,0,0-.668-1.683A.89.89,0,0,0,260.563,234.06Z" transform="translate(-256.686 -233.281)" fill="#27debf"/>
            </g>
            <g id="Grupo_878431" data-name="Grupo 878431" transform="translate(117.791 74.019)">
              <path id="Trazado_621167" data-name="Trazado 621167" d="M277.641,189.04a1.654,1.654,0,0,1-.836-.221,2.593,2.593,0,0,1-1.059-2.356,6.322,6.322,0,0,1,2.693-5.11,1.974,1.974,0,0,1,2.023-.132,2.592,2.592,0,0,1,1.059,2.357,6.322,6.322,0,0,1-2.693,5.109A2.389,2.389,0,0,1,277.641,189.04Zm1.984-7.261a1.658,1.658,0,0,0-.8.249,5.648,5.648,0,0,0-2.3,4.435,1.87,1.87,0,0,0,.668,1.682,1.258,1.258,0,0,0,1.245-.132,5.646,5.646,0,0,0,2.3-4.434,1.87,1.87,0,0,0-.668-1.683A.882.882,0,0,0,279.624,181.779Z" transform="translate(-275.746 -181)" fill="#27debf"/>
            </g>
            <g id="Grupo_878432" data-name="Grupo 878432" transform="translate(134.619 86.74)">
              <path id="Trazado_621168" data-name="Trazado 621168" d="M296.7,203.45a1.659,1.659,0,0,1-.835-.22,2.6,2.6,0,0,1-1.058-2.358,6.322,6.322,0,0,1,2.693-5.109,1.975,1.975,0,0,1,2.024-.132,2.594,2.594,0,0,1,1.058,2.357,6.323,6.323,0,0,1-2.693,5.109A2.389,2.389,0,0,1,296.7,203.45Zm1.985-7.261a1.655,1.655,0,0,0-.8.249,5.561,5.561,0,0,0-2.3,4.434,1.867,1.867,0,0,0,.668,1.683,1.26,1.26,0,0,0,1.245-.131,5.564,5.564,0,0,0,2.3-4.435,1.869,1.869,0,0,0-.668-1.683A.881.881,0,0,0,298.686,196.189Z" transform="translate(-294.808 -195.41)" fill="#27debf"/>
            </g>
            <g id="Grupo_878433" data-name="Grupo 878433" transform="translate(151.447 32.152)">
              <path id="Trazado_621169" data-name="Trazado 621169" d="M315.764,141.615a1.662,1.662,0,0,1-.836-.22,2.594,2.594,0,0,1-1.058-2.357,6.319,6.319,0,0,1,2.692-5.109,1.972,1.972,0,0,1,2.023-.132,2.593,2.593,0,0,1,1.059,2.357,6.322,6.322,0,0,1-2.693,5.109A2.389,2.389,0,0,1,315.764,141.615Zm1.984-7.26a1.657,1.657,0,0,0-.8.248,5.561,5.561,0,0,0-2.3,4.435,1.869,1.869,0,0,0,.668,1.682,1.259,1.259,0,0,0,1.245-.131,5.563,5.563,0,0,0,2.3-4.435,1.872,1.872,0,0,0-.668-1.683A.89.89,0,0,0,317.747,134.355Z" transform="translate(-313.87 -133.576)" fill="#27debf"/>
            </g>
            <g id="Grupo_878434" data-name="Grupo 878434" transform="translate(168.274)">
              <path id="Trazado_621170" data-name="Trazado 621170" d="M334.825,105.195a1.665,1.665,0,0,1-.837-.22,2.6,2.6,0,0,1-1.058-2.357,6.32,6.32,0,0,1,2.693-5.109,1.974,1.974,0,0,1,2.023-.132,2.592,2.592,0,0,1,1.058,2.357,6.322,6.322,0,0,1-2.693,5.109A2.389,2.389,0,0,1,334.825,105.195Zm1.984-7.26a1.66,1.66,0,0,0-.8.248,5.563,5.563,0,0,0-2.3,4.435,1.87,1.87,0,0,0,.668,1.683,1.258,1.258,0,0,0,1.245-.132,5.564,5.564,0,0,0,2.3-4.435,1.871,1.871,0,0,0-.667-1.683A.892.892,0,0,0,336.808,97.935Z" transform="translate(-332.93 -97.156)" fill="#27debf"/>
            </g>
          </g>
        </g>
        <g id="Grupo_878437" data-name="Grupo 878437" transform="translate(0.389 21.674)">
          <path id="Trazado_621171" data-name="Trazado 621171" d="M311.63,121.707,294.8,153.859,283,192.144,278.144,207.9l-13.206-9.984-3.79-2.188L244.32,241.88l-16.827-4.286L210.981,285.12l-13.353-11.906-3.79-2.189-16.828-4.286-16.827,39.586-16.828,2.281-16.827,32.152V363.2l3.79,2.189,185.1-106.868V123.9Z" transform="translate(-126.528 -121.707)" fill="#2b95f9" opacity="0.4"/>
          <path id="Trazado_621173" data-name="Trazado 621173" d="M126.528,369.836l3.791,2.188v22.437l-3.791-2.189Z" transform="translate(-126.528 -150.785)" fill="#2b95f9"/>
          <path id="Trazado_621175" data-name="Trazado 621175" d="M164.65,325.577l3.79,2.188,16.827-39.586-3.79-2.189Z" transform="translate(-130.995 -140.959)" fill="#27debf" opacity="0.3"/>
          <path id="Trazado_621176" data-name="Trazado 621176" d="M164.65,325.577l3.79,2.188,16.827-39.586-3.79-2.189Z" transform="translate(-130.995 -140.959)" fill="#2b95f9" opacity="0.15"/>
          <path id="Trazado_621177" data-name="Trazado 621177" d="M143.355,333.416l3.791,2.189-16.827,32.152-3.791-2.188Z" transform="translate(-126.528 -146.517)" fill="#27debf" opacity="0.3"/>
          <path id="Trazado_621178" data-name="Trazado 621178" d="M143.355,333.416l3.791,2.189-16.827,32.152-3.791-2.188Z" transform="translate(-126.528 -146.517)" fill="#2b95f9" opacity="0.15"/>
          <path id="Trazado_621179" data-name="Trazado 621179" d="M242.494,255.165l-3.791-2.189L222.192,300.5l3.475,3.1Z" transform="translate(-137.738 -137.09)" fill="#27debf" opacity="0.3"/>
          <path id="Trazado_621180" data-name="Trazado 621180" d="M242.494,255.165l-3.791-2.189L222.192,300.5l3.475,3.1Z" transform="translate(-137.738 -137.09)" fill="#2b95f9" opacity="0.15"/>
          <path id="Trazado_621181" data-name="Trazado 621181" d="M259.956,251.705l3.79,2.188,16.827-46.154-3.79-2.188Z" transform="translate(-142.164 -131.532)" fill="#27debf" opacity="0.3"/>
          <path id="Trazado_621182" data-name="Trazado 621182" d="M259.956,251.705l3.79,2.188,16.827-46.154-3.79-2.188Z" transform="translate(-142.164 -131.532)" fill="#2b95f9" opacity="0.15"/>
          <path id="Trazado_621183" data-name="Trazado 621183" d="M318.719,160.315l-3.791-2.189-16.658,54.04,3.621,2.738Z" transform="translate(-146.654 -125.975)" fill="#27debf" opacity="0.3"/>
          <path id="Trazado_621184" data-name="Trazado 621184" d="M318.719,160.315l-3.791-2.189-16.658,54.04,3.621,2.738Z" transform="translate(-146.654 -125.975)" fill="#2b95f9" opacity="0.15"/>
        </g>
      </g>
    </g>
    <g id="Arrow" transform="translate(1088.358 10930.923)">
      <g id="Arrow-2" data-name="Arrow" transform="translate(0 0)">
        <path id="Trazado_621185" data-name="Trazado 621185" d="M356,90.263l-3.79-2.188-9.476,21.884,3.79,2.188,1.9-1.095V246.221l3.79,2.188,7.58-4.377V104.488l5.686-3.283Z" transform="translate(-342.737 -88.075)" fill="#b6e1fd"/>
        <path id="Trazado_621186" data-name="Trazado 621186" d="M365.982,101.5l-9.476-10.942-9.476,21.884,5.686-3.283V248.7l7.58-4.377V104.778Z" transform="translate(-343.24 -88.365)" fill="#2b95f9"/>
      </g>
    </g>
    <g id="Magnifying_glass" data-name="Magnifying glass" transform="translate(957.825 11147.479)">
      <g id="Glass" transform="translate(0)">
        <g id="Grupo_878453" data-name="Grupo 878453" transform="translate(64.455)">
          <path id="Trazado_621240" data-name="Trazado 621240" d="M364.435,361.247c0-7.132-4.713-14.265-14.138-19.707-18.852-10.883-49.416-10.883-68.267,0-9.426,5.442-14.139,12.575-14.139,19.707h0v13.138c0,7.132,4.713,14.265,14.139,19.707,18.852,10.883,49.415,10.883,68.267,0,9.425-5.442,14.138-12.575,14.138-19.707V361.247Zm-80.072-15.664c8.419-4.861,19.712-7.537,31.8-7.537s23.38,2.677,31.8,7.537c7.612,4.395,11.8,9.958,11.8,15.665s-4.192,11.268-11.8,15.663c-8.419,4.861-19.711,7.538-31.8,7.538s-23.38-2.678-31.8-7.538c-7.611-4.395-11.8-9.957-11.8-15.663S276.751,349.978,284.363,345.584Z" transform="translate(-267.888 -333.378)" fill="#2b95f9"/>
          <path id="Trazado_621241" data-name="Trazado 621241" d="M282.026,380.955c18.851,10.884,49.415,10.884,68.267,0s18.852-28.53,0-39.414-49.415-10.883-68.267,0S263.176,370.071,282.026,380.955Zm-9.47-19.706c0-5.706,4.192-11.27,11.8-15.665,8.419-4.861,19.712-7.537,31.8-7.537s23.38,2.677,31.8,7.537c7.612,4.395,11.8,9.958,11.8,15.665s-4.193,11.268-11.8,15.663c-8.419,4.861-19.712,7.538-31.8,7.538s-23.381-2.678-31.8-7.538C276.749,372.517,272.556,366.954,272.556,361.248Z" transform="translate(-267.888 -333.378)" fill="#fff" opacity="0.3"/>
          <g id="Grupo_878452" data-name="Grupo 878452" transform="translate(4.665 4.667)">
            <path id="Trazado_621242" data-name="Trazado 621242" d="M273.172,361.866a12.954,12.954,0,0,0,1.886,6.573c1.914-3.314,5.285-6.423,9.925-9.093,8.412-4.865,19.71-7.544,31.8-7.544s23.379,2.679,31.791,7.544c4.641,2.67,8.011,5.779,9.934,9.093a13.029,13.029,0,0,0,1.877-6.573c0-5.7-4.193-11.269-11.811-15.667-8.412-4.855-19.71-7.534-31.791-7.534s-23.388,2.679-31.8,7.534C277.364,350.6,273.172,356.161,273.172,361.866Z" transform="translate(-273.172 -338.665)" fill="#2b95f9"/>
            <path id="Trazado_621243" data-name="Trazado 621243" d="M273.172,361.866a12.954,12.954,0,0,0,1.886,6.573c1.914-3.314,5.285-6.423,9.925-9.093,8.412-4.865,19.71-7.544,31.8-7.544s23.379,2.679,31.791,7.544c4.641,2.67,8.011,5.779,9.934,9.093a13.029,13.029,0,0,0,1.877-6.573c0-5.7-4.193-11.269-11.811-15.667-8.412-4.855-19.71-7.534-31.791-7.534s-23.388,2.679-31.8,7.534C277.364,350.6,273.172,356.161,273.172,361.866Z" transform="translate(-273.172 -338.665)" fill="#2b95f9" opacity="0.1"/>
          </g>
          <path id="Trazado_621244" data-name="Trazado 621244" d="M285.032,352.941c8.419-4.861,19.712-7.537,31.8-7.537s23.38,2.677,31.8,7.537c6.281,3.627,10.226,8.049,11.416,12.69-1.19,4.641-5.135,9.064-11.416,12.69-8.419,4.861-19.712,7.538-31.8,7.538s-23.381-2.678-31.8-7.538c-6.28-3.626-10.226-8.049-11.416-12.69C274.806,360.99,278.75,356.568,285.032,352.941Z" transform="translate(-268.559 -334.787)" fill="#fff" opacity="0.4"/>
          <path id="Trazado_621245" data-name="Trazado 621245" d="M304.786,391.47V404.6a63.22,63.22,0,0,1-22.754-7.376c-9.429-5.443-14.144-12.577-14.144-19.71V364.375a16.616,16.616,0,0,1,.578-4.3h.01c-2.287,8.487,2.232,17.469,13.556,24.014A63.4,63.4,0,0,0,304.786,391.47Z" transform="translate(-267.888 -336.506)" opacity="0.1"/>
        </g>
        <g id="Grupo_878457" data-name="Grupo 878457" transform="translate(0 49.601)">
          <g id="Grupo_878454" data-name="Grupo 878454" transform="translate(57.027)">
            <path id="Trazado_621246" data-name="Trazado 621246" d="M282.478,395.9a7.478,7.478,0,0,0-3.358-5.872,2.381,2.381,0,0,0-2.381-.25v0l-.009.005h0l-16.249,9.274-.011.006,0,0h0a2.38,2.38,0,0,0-.991,2.179,7.472,7.472,0,0,0,3.358,5.872,2.374,2.374,0,0,0,2.391.246h0l16.247-9.271v0A2.368,2.368,0,0,0,282.478,395.9Z" transform="translate(-259.474 -389.563)" fill="#37474f"/>
            <path id="Trazado_621247" data-name="Trazado 621247" d="M281.665,398.6a2.368,2.368,0,0,0,1.009-2.188,6.437,6.437,0,0,0-.574-2.532L261.146,405.86a6.414,6.414,0,0,0,1.882,1.763,2.374,2.374,0,0,0,2.391.246l16.247-9.271Z" transform="translate(-259.67 -390.069)" fill="#263238"/>
          </g>
          <path id="Trazado_621248" data-name="Trazado 621248" d="M258.236,408.3a9.729,9.729,0,0,0-4.37-7.643,3.112,3.112,0,0,0-3.061-.339l0-.006-.045.025,0,0-53.888,28.78,8.04,14.21,52.024-32.18A3.09,3.09,0,0,0,258.236,408.3Z" transform="translate(-195.11 -390.793)" fill="#2b95f9"/>
          <path id="Trazado_621249" data-name="Trazado 621249" d="M205.423,443.808l52.024-32.18a3.089,3.089,0,0,0,1.307-2.848,9.146,9.146,0,0,0-1.462-4.638l-56.014,32.34Z" transform="translate(-195.627 -391.272)" opacity="0.1"/>
          <g id="Grupo_878455" data-name="Grupo 878455" transform="translate(0 37.974)">
            <path id="Trazado_621250" data-name="Trazado 621250" d="M200.609,446.713a12.753,12.753,0,0,1-5.732-10.023c.015-3.683,2.605-5.167,5.787-3.313A12.761,12.761,0,0,1,206.4,443.4C206.38,447.082,203.79,448.565,200.609,446.713Z" transform="translate(-194.877 -432.578)" fill="#0b5faf"/>
          </g>
        </g>
      </g>
    </g>
    <g id="Gears" transform="translate(823.326 10906.515)">
      <g id="Gears-2" data-name="Gears">
        <g id="Grupo_878458" data-name="Grupo 878458">
          <path id="Trazado_621252" data-name="Trazado 621252" d="M57.144,127.839a2.323,2.323,0,0,1-.36-.027l-3.634-.563a2.006,2.006,0,0,1-1.644-2.6l1.99-6.716a1.572,1.572,0,0,0-.48-1.4,10.5,10.5,0,0,1-1.083-1.162.59.59,0,0,0-.822-.166l-4.546,3.441a1.654,1.654,0,0,1-2.728-.975L42.6,112.542a3.683,3.683,0,0,1,.844-3.14l4.467-4.689A3.557,3.557,0,0,0,48.7,102.8a32.935,32.935,0,0,1,.376-3.6.932.932,0,0,0-.555-.971l-2.865-1a2.193,2.193,0,0,1-1.335-2.832l2.764-7.49a3,3,0,0,1,2.644-1.875l3.462-.059a1.984,1.984,0,0,0,1.429-.854c.728-1.234,1.508-2.422,2.317-3.531a3.246,3.246,0,0,0,.524-1.948L56.8,73.55A3.793,3.793,0,0,1,57.933,70.5l5.087-4.575a1.7,1.7,0,0,1,2.841.694l1.478,3.94a.411.411,0,0,0,.229.256.507.507,0,0,0,.409-.037,17.99,17.99,0,0,1,2.26-.915,2.754,2.754,0,0,0,1.445-1.224L74.625,62a2.764,2.764,0,0,1,2.83-1.545l3.635.563a2.007,2.007,0,0,1,1.644,2.6l-1.989,6.716a1.568,1.568,0,0,0,.478,1.4A10.54,10.54,0,0,1,82.308,72.9a.585.585,0,0,0,.821.166l4.545-3.442A1.655,1.655,0,0,1,90.4,70.6l1.236,5.128a3.67,3.67,0,0,1-.846,3.142l-4.464,4.688a3.541,3.541,0,0,0-.787,1.916,33.093,33.093,0,0,1-.376,3.6.929.929,0,0,0,.554.971l2.866,1a2.192,2.192,0,0,1,1.333,2.834l-2.762,7.487a3.007,3.007,0,0,1-2.646,1.876l-3.462.059a1.984,1.984,0,0,0-1.429.855c-.724,1.227-1.5,2.415-2.318,3.529a3.236,3.236,0,0,0-.522,1.947l.659,5.087a3.808,3.808,0,0,1-1.13,3.047l-5.089,4.576a1.7,1.7,0,0,1-2.842-.694L66.9,117.7a.414.414,0,0,0-.229-.256.5.5,0,0,0-.409.037,18.409,18.409,0,0,1-2.258.915,2.773,2.773,0,0,0-1.45,1.225l-2.942,6.641A2.78,2.78,0,0,1,57.144,127.839ZM51.425,113.48a2.269,2.269,0,0,1,1.764.878,9.1,9.1,0,0,0,.92.986,3.163,3.163,0,0,1,.933,3.048l-1.989,6.716a.4.4,0,0,0,.343.545l3.634.563a1.136,1.136,0,0,0,1.108-.6l2.943-6.641a4.322,4.322,0,0,1,2.423-2.1,16.59,16.59,0,0,0,2.057-.834,2.1,2.1,0,0,1,1.71-.083,2.016,2.016,0,0,1,1.141,1.188l1.478,3.94a.329.329,0,0,0,.1.16.488.488,0,0,0,.153-.1l5.089-4.575a2.223,2.223,0,0,0,.608-1.643l-.659-5.085a4.842,4.842,0,0,1,.82-3.1c.782-1.072,1.533-2.216,2.231-3.4a3.583,3.583,0,0,1,2.793-1.649l3.461-.058a1.415,1.415,0,0,0,1.159-.821l2.762-7.489a.579.579,0,0,0-.352-.751l-2.868-1a2.549,2.549,0,0,1-1.614-2.746,31.439,31.439,0,0,0,.36-3.422,5.123,5.123,0,0,1,1.23-2.951l4.464-4.688A2.081,2.081,0,0,0,90.07,76.1h0l-1.236-5.129a.416.416,0,0,0-.059-.147,1.16,1.16,0,0,0-.128.081L84.1,74.348a2.18,2.18,0,0,1-3.053-.441,8.8,8.8,0,0,0-.919-.984,3.165,3.165,0,0,1-.933-3.05l1.99-6.716a.438.438,0,0,0-.032-.36.433.433,0,0,0-.314-.185l-3.633-.563a1.139,1.139,0,0,0-1.108.6l-2.943,6.641a4.32,4.32,0,0,1-2.422,2.1,16.606,16.606,0,0,0-2.057.833,2.1,2.1,0,0,1-1.711.084,2.021,2.021,0,0,1-1.14-1.189l-1.477-3.939a.327.327,0,0,0-.1-.16.466.466,0,0,0-.152.1L59.011,71.7a2.209,2.209,0,0,0-.608,1.642l.658,5.087a4.852,4.852,0,0,1-.821,3.1c-.78,1.068-1.53,2.211-2.231,3.4a3.578,3.578,0,0,1-2.793,1.648l-3.461.058a1.413,1.413,0,0,0-1.157.819l-2.764,7.491a.578.578,0,0,0,.353.751l2.867,1a2.55,2.55,0,0,1,1.615,2.745,31.31,31.31,0,0,0-.36,3.423,5.143,5.143,0,0,1-1.227,2.951l-4.468,4.689a2.089,2.089,0,0,0-.443,1.65l1.237,5.128a.415.415,0,0,0,.059.148c.011-.011.058-.029.127-.081l4.546-3.441A2.121,2.121,0,0,1,51.425,113.48Zm11.4-4.388a6.4,6.4,0,0,1-1.906-.282c-2.257-.7-3.879-2.657-4.567-5.509-1.516-6.289,1.89-15.578,7.595-20.706,3.179-2.859,6.595-4,9.38-3.139,2.256.7,3.878,2.656,4.567,5.509,1.516,6.29-1.89,15.578-7.593,20.706h0C67.812,107.906,65.181,109.092,62.822,109.092ZM71.4,80.786c-1.949,0-4.2,1.047-6.38,3.009-5.311,4.774-8.5,13.355-7.1,19.13.557,2.309,1.759,3.813,3.475,4.346,2.23.688,5.079-.329,7.825-2.8,5.309-4.773,8.5-13.355,7.1-19.13-.557-2.31-1.759-3.813-3.475-4.346A4.882,4.882,0,0,0,71.4,80.786Z" transform="translate(-42.524 -60.427)" fill="#b6e1fd"/>
        </g>
        <g id="Grupo_878459" data-name="Grupo 878459" transform="translate(56.146 1.612)">
          <path id="Trazado_621253" data-name="Trazado 621253" d="M116.856,111.4a1.856,1.856,0,0,1-.279-.021l-2.633-.41a1.593,1.593,0,0,1-1.3-2.06l1.443-4.868a1,1,0,0,0-.307-.876,7.727,7.727,0,0,1-.8-.857c-.074-.091-.249-.218-.4-.1l-3.3,2.494a1.338,1.338,0,0,1-2.2-.784l-.9-3.718a2.816,2.816,0,0,1,.648-2.406l3.235-3.4a2.461,2.461,0,0,0,.533-1.3,23.456,23.456,0,0,1,.275-2.623.536.536,0,0,0-.313-.55l-2.076-.728a1.727,1.727,0,0,1-1.055-2.23l2.007-5.431a2.325,2.325,0,0,1,2.044-1.45l2.509-.041a1.3,1.3,0,0,0,.921-.553c.523-.888,1.091-1.752,1.686-2.57a2.226,2.226,0,0,0,.355-1.313l-.477-3.688a2.906,2.906,0,0,1,.863-2.33l3.689-3.317a1.368,1.368,0,0,1,2.282.558l1.07,2.856c.138.124.2.117.272.083a13.278,13.278,0,0,1,1.657-.671,1.864,1.864,0,0,0,.962-.812l2.136-4.815a2.121,2.121,0,0,1,2.2-1.2l2.635.409a1.6,1.6,0,0,1,1.3,2.06l-1.443,4.87a1,1,0,0,0,.307.876,7.652,7.652,0,0,1,.8.857.3.3,0,0,0,.4.1l3.3-2.495a1.337,1.337,0,0,1,2.2.784l.9,3.718a2.815,2.815,0,0,1-.644,2.406l-3.237,3.4a2.45,2.45,0,0,0-.532,1.3,24.7,24.7,0,0,1-.273,2.623.529.529,0,0,0,.309.552l2.076.728a1.728,1.728,0,0,1,1.052,2.232l-2,5.429a2.321,2.321,0,0,1-2.044,1.45l-2.509.042a1.3,1.3,0,0,0-.92.553c-.524.887-1.092,1.751-1.687,2.569a2.226,2.226,0,0,0-.355,1.313l.477,3.688a2.91,2.91,0,0,1-.863,2.331l-3.688,3.317a1.446,1.446,0,0,1-1.3.368,1.431,1.431,0,0,1-.982-.927l-1.07-2.855c-.141-.13-.207-.116-.272-.084a13.251,13.251,0,0,1-1.657.672,1.852,1.852,0,0,0-.962.811l-2.136,4.816A2.156,2.156,0,0,1,116.856,111.4Zm-4.141-10.687a1.783,1.783,0,0,1,1.386.689,6.249,6.249,0,0,0,.652.7,2.439,2.439,0,0,1,.717,2.353l-1.443,4.868.139.219,2.633.41a.685.685,0,0,0,.653-.357l2.137-4.816a3.265,3.265,0,0,1,1.836-1.6,11.672,11.672,0,0,0,1.473-.6,1.656,1.656,0,0,1,1.354-.064,1.6,1.6,0,0,1,.9.941l1.071,2.855,3.648-3.326a1.5,1.5,0,0,0,.4-1.07l-.477-3.688a3.665,3.665,0,0,1,.62-2.35c.569-.78,1.109-1.606,1.608-2.452a2.746,2.746,0,0,1,2.144-1.263l2.507-.042a.891.891,0,0,0,.711-.5l2.006-5.431a.278.278,0,0,0-.009-.218.282.282,0,0,0-.166-.147l-2.077-.728a1.984,1.984,0,0,1-1.259-2.145,23.072,23.072,0,0,0,.258-2.463,3.872,3.872,0,0,1,.93-2.229l3.235-3.4a1.386,1.386,0,0,0,.288-1.066v0l-.9-3.718L136.486,72.6a1.715,1.715,0,0,1-2.4-.343,6.413,6.413,0,0,0-.652-.7,2.438,2.438,0,0,1-.718-2.353l1.443-4.869.038-.187-.176-.032-2.635-.409a.666.666,0,0,0-.653.356l-2.137,4.817a3.275,3.275,0,0,1-1.836,1.6,11.8,11.8,0,0,0-1.475.6,1.662,1.662,0,0,1-1.352.063,1.6,1.6,0,0,1-.9-.94l-1.071-2.856-3.649,3.326a1.5,1.5,0,0,0-.4,1.069l.478,3.688a3.676,3.676,0,0,1-.621,2.352c-.569.778-1.109,1.6-1.608,2.452a2.751,2.751,0,0,1-2.143,1.263l-2.509.041a.9.9,0,0,0-.712.5l-2,5.429a.282.282,0,0,0,.011.22.275.275,0,0,0,.162.146l2.078.728a1.992,1.992,0,0,1,1.263,2.143,21.846,21.846,0,0,0-.26,2.464,3.844,3.844,0,0,1-.93,2.23l-3.236,3.4a1.391,1.391,0,0,0-.29,1.067l.9,3.718,3.213-2.526A1.678,1.678,0,0,1,112.715,100.714Zm8.261-2.9a4.8,4.8,0,0,1-1.423-.21,5.253,5.253,0,0,1-3.4-4.094c-1.111-4.6,1.377-11.4,5.547-15.146,2.34-2.1,4.868-2.948,6.934-2.305a5.253,5.253,0,0,1,3.4,4.093c1.111,4.6-1.377,11.4-5.545,15.146h0A8.585,8.585,0,0,1,120.976,97.81Zm6.219-20.52a7.184,7.184,0,0,0-4.53,2.146c-3.816,3.429-6.109,9.588-5.11,13.731a3.83,3.83,0,0,0,2.427,3.051c1.564.488,3.587-.243,5.538-2h0c3.815-3.429,6.106-9.589,5.108-13.731a3.83,3.83,0,0,0-2.427-3.05A3.377,3.377,0,0,0,127.195,77.29Z" transform="translate(-106.123 -62.253)" fill="#b6e1fd"/>
        </g>
      </g>
    </g>
    <g id="Speech_bubbles" data-name="Speech bubbles" transform="translate(844.163 10878.351)">
      <g id="Speech_Bubble" data-name="Speech Bubble" transform="translate(109.531)">
        <g id="Grupo_878460" data-name="Grupo 878460">
          <path id="Trazado_621254" data-name="Trazado 621254" d="M191.814,73.525a1.437,1.437,0,0,1-.773-.22,2.146,2.146,0,0,1-.844-1.917V51.61a5.7,5.7,0,0,1,2.351-4.434l29.061-18.268a1.782,1.782,0,0,1,1.947-.162,2.147,2.147,0,0,1,.844,1.917V50.441a5.7,5.7,0,0,1-2.351,4.433l-4.306,2.707-2.906,10.757a1.029,1.029,0,0,1-.914.8,1.014,1.014,0,0,1-1-.667l-2.5-6.285L192.988,73.143A2.237,2.237,0,0,1,191.814,73.525Zm30.235-43.79L192.988,48a4.772,4.772,0,0,0-1.912,3.605V71.388a1.259,1.259,0,0,0,.4,1.089,1.032,1.032,0,0,0,1.068-.163l18.29-11.5,2.89,7.27a.126.126,0,0,0,.139.093.134.134,0,0,0,.126-.109l3-11.125,4.612-2.9a4.777,4.777,0,0,0,1.911-3.605V30.661a1.255,1.255,0,0,0-.4-1.089,1.033,1.033,0,0,0-1.067.162Z" transform="translate(-190.197 -28.525)" fill="#b6e1fd"/>
        </g>
        <g id="Grupo_878461" data-name="Grupo 878461" transform="translate(6.664 11.523)">
          <path id="Trazado_621255" data-name="Trazado 621255" d="M198.186,55.1a.434.434,0,0,1-.38-.239.5.5,0,0,1,.161-.653l19.995-12.569a.422.422,0,0,1,.6.175.5.5,0,0,1-.161.653l-20,12.569A.412.412,0,0,1,198.186,55.1Z" transform="translate(-197.746 -41.577)" fill="#b6e1fd"/>
        </g>
        <g id="Grupo_878462" data-name="Grupo 878462" transform="translate(6.664 15.738)">
          <path id="Trazado_621256" data-name="Trazado 621256" d="M198.186,59.877a.433.433,0,0,1-.38-.238.5.5,0,0,1,.161-.654l19.995-12.569a.422.422,0,0,1,.6.175.5.5,0,0,1-.161.653l-20,12.569A.411.411,0,0,1,198.186,59.877Z" transform="translate(-197.746 -46.352)" fill="#b6e1fd"/>
        </g>
        <g id="Grupo_878463" data-name="Grupo 878463" transform="translate(6.664 19.953)">
          <path id="Trazado_621257" data-name="Trazado 621257" d="M198.186,64.652a.433.433,0,0,1-.38-.239.5.5,0,0,1,.161-.653L217.961,51.19a.422.422,0,0,1,.6.175.5.5,0,0,1-.161.654l-20,12.569A.412.412,0,0,1,198.186,64.652Z" transform="translate(-197.746 -51.126)" fill="#b6e1fd"/>
        </g>
      </g>
    </g>
    <g id="Light_bulb" data-name="Light bulb" transform="translate(1143.769 10894.886)">
      <g id="Idea">
        <g id="Light" transform="translate(10.67 10.526)">
          <g id="Grupo_878480" data-name="Grupo 878480">
            <g id="Grupo_878479" data-name="Grupo 878479">
              <g id="Grupo_878470" data-name="Grupo 878470" transform="translate(9.557 31.463)">
                <path id="Trazado_621274" data-name="Trazado 621274" d="M433.617,97.445a2.6,2.6,0,1,1-2.573-2.628A2.6,2.6,0,0,1,433.617,97.445Z" transform="translate(-428.416 -94.817)" fill="#37474f"/>
              </g>
              <g id="Grupo_878471" data-name="Grupo 878471" transform="translate(7.765 29.888)">
                <path id="Trazado_621275" data-name="Trazado 621275" d="M427.659,97.346c-1.712-1.013-1.7-2.625.038-3.6a6.889,6.889,0,0,1,6.235.066c1.711,1.012,1.694,2.624-.038,3.6A6.9,6.9,0,0,1,427.659,97.346Z" transform="translate(-426.386 -93.033)" fill="#455a64"/>
              </g>
              <g id="Grupo_878472" data-name="Grupo 878472" transform="translate(7.64 28.816)">
                <path id="Trazado_621276" data-name="Trazado 621276" d="M427.556,96.264c-1.764-1.043-1.746-2.7.04-3.71a7.1,7.1,0,0,1,6.427.068c1.764,1.043,1.746,2.7-.039,3.71A7.106,7.106,0,0,1,427.556,96.264Z" transform="translate(-426.245 -91.818)" fill="#37474f"/>
              </g>
              <g id="Grupo_878473" data-name="Grupo 878473" transform="translate(7.512 27.711)">
                <path id="Trazado_621277" data-name="Trazado 621277" d="M427.451,95.149c-1.818-1.076-1.8-2.788.041-3.825a7.324,7.324,0,0,1,6.625.071c1.818,1.075,1.8,2.788-.041,3.824A7.324,7.324,0,0,1,427.451,95.149Z" transform="translate(-426.099 -90.566)" fill="#455a64"/>
              </g>
              <g id="Grupo_878474" data-name="Grupo 878474" transform="translate(7.379 26.572)">
                <path id="Trazado_621278" data-name="Trazado 621278" d="M427.342,94c-1.874-1.108-1.856-2.874.041-3.942a7.544,7.544,0,0,1,6.828.072c1.874,1.108,1.856,2.874-.042,3.942A7.546,7.546,0,0,1,427.342,94Z" transform="translate(-425.948 -89.276)" fill="#37474f"/>
              </g>
              <g id="Grupo_878475" data-name="Grupo 878475" transform="translate(7.292 25.428)">
                <path id="Trazado_621279" data-name="Trazado 621279" d="M427.272,92.8c-1.912-1.131-1.894-2.932.042-4.022a7.7,7.7,0,0,1,6.967.073c1.912,1.132,1.893,2.933-.042,4.023A7.7,7.7,0,0,1,427.272,92.8Z" transform="translate(-425.85 -87.98)" fill="#455a64"/>
              </g>
              <g id="Grupo_878476" data-name="Grupo 878476">
                <path id="Trazado_621280" data-name="Trazado 621280" d="M430.108,59.178a12.387,12.387,0,0,0-12.517,12.255c-.1,9.832,7.991,11.551,7.95,15.514a2.122,2.122,0,0,0,1.233,1.758,6.678,6.678,0,0,0,6.043.064,2.12,2.12,0,0,0,1.269-1.731h0c.041-3.963,8.171-5.51,8.275-15.342A12.387,12.387,0,0,0,430.108,59.178Z" transform="translate(-417.59 -59.177)" fill="#ffb338"/>
              </g>
            </g>
          </g>
          <g id="Grupo_878481" data-name="Grupo 878481" transform="translate(6.039 12.161)">
            <path id="Trazado_621283" data-name="Trazado 621283" d="M432.272,88.212a.419.419,0,0,1-.416-.416,30.008,30.008,0,0,1,.943-7.068,15.313,15.313,0,0,1,.637-1.962,5.713,5.713,0,0,1-1.069-.537,7.271,7.271,0,0,1-1.628-1.4,7.249,7.249,0,0,1-1.656,1.364A5.654,5.654,0,0,1,428,78.71a15.184,15.184,0,0,1,.6,1.974,30.028,30.028,0,0,1,.794,7.087.426.426,0,0,1-.433.406.42.42,0,0,1-.407-.433,29.837,29.837,0,0,0-.772-6.868,13.95,13.95,0,0,0-.6-1.967,2.628,2.628,0,0,1-2.336-.712,1.345,1.345,0,0,1-.162-1.736,1.113,1.113,0,0,1,1.149-.467c.661.138,1.3.825,1.842,1.941a4.748,4.748,0,0,0,.981-.457,6.415,6.415,0,0,0,1.582-1.332,3.116,3.116,0,0,1-.588-2.369,1.182,1.182,0,0,1,2.26.025,3.109,3.109,0,0,1-.638,2.354,6.433,6.433,0,0,0,1.554,1.366,4.728,4.728,0,0,0,.971.478c.566-1.1,1.218-1.777,1.882-1.9a1.122,1.122,0,0,1,1.138.491,1.344,1.344,0,0,1-.2,1.733,2.631,2.631,0,0,1-2.35.663,13.788,13.788,0,0,0-.647,1.955,29.663,29.663,0,0,0-.916,6.85.42.42,0,0,1-.417.425Zm-6.678-11.4c-.072,0-.15.031-.243.154-.207.278.033.581.111.668a1.68,1.68,0,0,0,1.338.463c-.439-.827-.868-1.22-1.146-1.278A.274.274,0,0,0,425.594,76.808Zm9.058,1.368A1.688,1.688,0,0,0,436,77.742c.08-.085.327-.383.124-.666-.116-.163-.215-.17-.3-.154C435.546,76.975,435.108,77.359,434.651,78.177Zm-3.879-4.383a.279.279,0,0,0-.324.222.725.725,0,1,0,.643.006A.279.279,0,0,0,430.772,73.793Z" transform="translate(-424.43 -72.953)" fill="#fff"/>
          </g>
        </g>
        <g id="Grupo_878491" data-name="Grupo 878491">
          <g id="Grupo_878482" data-name="Grupo 878482" transform="translate(22.294)">
            <path id="Trazado_621284" data-name="Trazado 621284" d="M431.777,53.063a.8.8,0,0,1-.215.027.809.809,0,0,1-.805-.812l.018-4.218a.809.809,0,0,1,1.618.006l-.019,4.218A.809.809,0,0,1,431.777,53.063Z" transform="translate(-430.756 -47.254)" fill="#e0e0e0"/>
          </g>
          <g id="Grupo_878483" data-name="Grupo 878483" transform="translate(11.189 2.931)">
            <path id="Trazado_621285" data-name="Trazado 621285" d="M421.291,55.827a.81.81,0,0,1-.912-.38l-2.095-3.661a.809.809,0,0,1,1.4-.8l2.095,3.661a.813.813,0,0,1-.493,1.185Z" transform="translate(-418.177 -50.574)" fill="#e0e0e0"/>
          </g>
          <g id="Grupo_878484" data-name="Grupo 878484" transform="translate(3.023 11.029)">
            <path id="Trazado_621286" data-name="Trazado 621286" d="M413.591,63.461a.8.8,0,0,1-.617-.081l-3.644-2.125a.809.809,0,0,1,.814-1.4l3.644,2.125a.808.808,0,0,1-.2,1.48Z" transform="translate(-408.927 -59.747)" fill="#e0e0e0"/>
          </g>
          <g id="Grupo_878485" data-name="Grupo 878485" transform="translate(0 22.126)">
            <path id="Trazado_621287" data-name="Trazado 621287" d="M410.742,73.925a.786.786,0,0,1-.215.027l-4.219-.018a.809.809,0,0,1,.007-1.618l4.218.018a.81.81,0,0,1,.208,1.591Z" transform="translate(-405.503 -72.317)" fill="#e0e0e0"/>
          </g>
          <g id="Grupo_878486" data-name="Grupo 878486" transform="translate(37.769 31.284)">
            <path id="Trazado_621288" data-name="Trazado 621288" d="M452.95,86.4a.807.807,0,0,1-.617-.082L448.689,84.2a.809.809,0,0,1,.814-1.4l3.644,2.125a.808.808,0,0,1-.2,1.48Z" transform="translate(-448.286 -82.691)" fill="#e0e0e0"/>
          </g>
          <g id="Grupo_878487" data-name="Grupo 878487" transform="translate(3.166 31.284)">
            <path id="Trazado_621289" data-name="Trazado 621289" d="M409.688,86.4a.81.81,0,0,0,.618-.082L413.95,84.2a.809.809,0,0,0-.814-1.4l-3.644,2.125a.808.808,0,0,0,.2,1.48Z" transform="translate(-409.089 -82.691)" fill="#e0e0e0"/>
          </g>
          <g id="Grupo_878488" data-name="Grupo 878488" transform="translate(40.219 22.295)">
            <path id="Trazado_621290" data-name="Trazado 621290" d="M456.3,74.115a.786.786,0,0,1-.215.028l-4.218-.018a.809.809,0,1,1,.006-1.617l4.218.017a.809.809,0,0,1,.208,1.59Z" transform="translate(-451.061 -72.508)" fill="#e0e0e0"/>
          </g>
          <g id="Grupo_878489" data-name="Grupo 878489" transform="translate(37.845 11.19)">
            <path id="Trazado_621291" data-name="Trazado 621291" d="M449.391,63.614a.809.809,0,0,1-.612-1.484l3.662-2.094a.809.809,0,0,1,.8,1.4l-3.663,2.094A.816.816,0,0,1,449.391,63.614Z" transform="translate(-448.371 -59.929)" fill="#e0e0e0"/>
          </g>
          <g id="Grupo_878490" data-name="Grupo 878490" transform="translate(31.283 3.023)">
            <path id="Trazado_621292" data-name="Trazado 621292" d="M441.959,55.913a.809.809,0,0,1-.909-1.188l2.125-3.644a.809.809,0,1,1,1.4.814l-2.124,3.644A.811.811,0,0,1,441.959,55.913Z" transform="translate(-440.939 -50.679)" fill="#e0e0e0"/>
          </g>
        </g>
      </g>
    </g>
    <g id="Character" transform="translate(1115.144 10933.624)">
      <g id="Character-2" data-name="Character">
        <g id="Grupo_878492" data-name="Grupo 878492">
          <path id="Trazado_621293" data-name="Trazado 621293" d="M381.926,91.149c1.424-.238,1.548,2.524,1.648,5.431.092,2.674.288,7.838.871,7.912s2.229-1.1,3.661-1.2c1.4-.1,2.509,1.086,1.474,1.621-.593.306-2.369,1.709-3.206,2.3s-1.935,1.464-2,2.637,6.4,19.908,6.4,19.908,15.107,9.259,18.384,11.054,4.93,1.635,6.737,2.979c-3.459,2-8.438,6.939-11.221,9.6,0,0,.649.376-3.8-3.258-5.381-4.4-15.184-10.6-18.433-15.03-2.3-5.687-5.827-22.01-6.333-23.521-.608-1.815-1.492-2.7-1.969-4.166a13.472,13.472,0,0,1-1.044-5.157,1.9,1.9,0,0,1,.6-1.468c.223-.167.5-.245.727-.409.349-.255.641-.738,1.024-.937.531-.275,1.338.047,1.85-.26.225-.135.669-.811.926-.86a4.474,4.474,0,0,1,1.245.057c.247.005.757.142.856-.186.122-.4.03-1.265.284-3.388S380.953,91.312,381.926,91.149Z" transform="translate(-373.078 -91.135)" fill="#e49fa1"/>
          <path id="Trazado_621294" data-name="Trazado 621294" d="M416.733,146.592a53.589,53.589,0,0,0-6.422-2.869c-3.1-1.265-18.528-11.115-18.528-11.115l-5.616-15.2s-.773,1.569-3.613,2.421a5.673,5.673,0,0,1-4.747-.522s3.391,14.356,4,16.738,1.175,3.376,3.517,5.506S405.341,157.6,405.341,157.6Z" transform="translate(-373.632 -94.214)"/>
          <path id="Trazado_621295" data-name="Trazado 621295" d="M381.11,102.381c-.158,1.731.137,3.658-.707,4.2a1.593,1.593,0,0,0-2.9.291,1.266,1.266,0,0,1-1.248-.413,1.3,1.3,0,0,1-1.87.321c.232.5,1.022,1.274,1.776.486,0,0,1.32.813,2.1-.215a3.319,3.319,0,0,0-.207,3.2A4.831,4.831,0,0,1,379,107.2a1.987,1.987,0,0,0,2-.356C381.842,106.032,381.11,102.381,381.11,102.381Z" transform="translate(-373.232 -92.453)" fill="#9a4a4d"/>
        </g>
        <g id="Grupo_878507" data-name="Grupo 878507" transform="translate(16.967 17.176)">
          <g id="Bottom" transform="translate(0 65.867)">
            <path id="Trazado_621296" data-name="Trazado 621296" d="M451.51,297.351c-1.676-7.384-1.387-20.746-2.229-27.425-.987-7.82-6.833-15.561-6.833-15.561s2.472-19.966,3.418-28.864c2.221-20.887-1.674-28.982-3.873-32.123a43.538,43.538,0,0,1-2.4-3.8,34.145,34.145,0,0,1-2.153-4.375l-28.99.3a37.46,37.46,0,0,0-3.69,16.1c-3.02,10.883-2.511,45.431-2.035,57.928.286,7.49,5.129,40.46,5.236,41.476.046.436,1.361,2.334,4.336,1.835s3.771-1.538,3.773-1.851c.005-1.082.148-2.285.242-3.363.612-7.047,3.319-22.123,4.188-29.308a18.6,18.6,0,0,0-2.4-11.342l4.385-19.338a143.052,143.052,0,0,0,6.385,26.982c3.32,9.481,14.771,37.556,14.771,37.556,1.045,2.949,7.311,1.458,8.125-3.584Z" transform="translate(-393.477 -185.201)" fill="#12263f"/>
            <path id="Trazado_621297" data-name="Trazado 621297" d="M456.811,312.237c1.568-.268,1.35,5.181,2.276,8.488.992,3.545,2.769,5.94,3.62,8.84a10.913,10.913,0,0,1-.13,7.854c-.756,2.375-5.78,6.369-8.34,3.65a15.359,15.359,0,0,1-3.841-9.609,53.3,53.3,0,0,0-1.373-8.535c-.662-2.817-2.15-7.755-1-8.129l.659,1.62c.923,1.128,7.942-.358,8.388-2.938Z" transform="translate(-398.778 -200.087)" fill="#37474f"/>
            <g id="Grupo_878494" data-name="Grupo 878494" transform="translate(0 108.257)">
              <g id="Grupo_878493" data-name="Grupo 878493">
                <path id="Trazado_621298" data-name="Trazado 621298" d="M419.265,316.618c.4,1.716-.091,6.4-.091,6.4a6.243,6.243,0,0,1-3.414,2.656l-1.106-6.539Z" transform="translate(-394.917 -308.858)" fill="#263238"/>
                <path id="Trazado_621299" data-name="Trazado 621299" d="M414.96,325.926l-5.8-1.98-1.34-5.182,6.46,3.158Z" transform="translate(-394.117 -309.11)"/>
                <path id="Trazado_621300" data-name="Trazado 621300" d="M406,309.813l-.216-1.533c-.795.374-.755,6.7-4.981,11.152-3.117,3.286-6.664,5.217-8.066,6.935-1.877,2.3,2.517,6.174,8.3,5.009,2.87-.579,7.226-2.358,8.424-4.275s2.025-5.051,3-6.46,3.672-2.488,4.31-4.05c.706-1.729.15-4.064-.323-5.674-.433-1.476-.162-3.054-.837-3.089l-.155,1.193c-.4.782-2.714,1.814-5.628,1.937C408.443,311.016,406.619,311.083,406,309.813Z" transform="translate(-392.297 -307.828)" fill="#37474f"/>
              </g>
            </g>
            <g id="Grupo_878495" data-name="Grupo 878495" transform="translate(8.012 8.177)">
              <path id="Trazado_621301" data-name="Trazado 621301" d="M405.093,196.952s6.448,4.6,18.9,3.76,17.883-6.248,17.883-6.248a27.55,27.55,0,0,1,4.8,11.712c.665,5.324-.621,21.575-1.873,33.225s-1.782,15.669-1.782,15.669,2.789,4.852,4.821,9.162c2.612,5.54,2.427,23.646,2.889,30.311-2.378,2.726-7.507,3.83-9.379,3.362-2.814-5.933-11.828-28.887-13.27-33.245a94.355,94.355,0,0,1-5.714-25.936l-3.526,19.442a27.713,27.713,0,0,1,1.889,7.041c.637,4.218-2.565,21.406-3.722,26.764a9.866,9.866,0,0,1-10.588,0c-.651-4.972-3.62-23.764-4.038-29.027a258.161,258.161,0,0,1-.929-31.253A222.384,222.384,0,0,1,405.093,196.952Z" transform="translate(-401.373 -194.464)" fill="#2b95f9"/>
            </g>
          </g>
          <g id="Top" transform="translate(10.889)">
            <g id="Grupo_878505" data-name="Grupo 878505" transform="translate(6.514)">
              <g id="Grupo_878502" data-name="Grupo 878502">
                <path id="Trazado_621303" data-name="Trazado 621303" d="M422.522,132.426a3.856,3.856,0,0,0-.6-1.187,5.466,5.466,0,0,0-1.3-.983,17.541,17.541,0,0,0-2.919-1.212c-1.707-.6-3.531-1.4-4.338-3.023a2.007,2.007,0,0,1-.2-1.487,1.059,1.059,0,0,1,1.18-.748,5.53,5.53,0,0,1-1.57-1.67,2.536,2.536,0,0,1-.185-2.219,1.671,1.671,0,0,1,1.88-.972,8.3,8.3,0,0,1-2.294-2.941,2.447,2.447,0,0,1,.737-2.837c.577-.464,2.324-.5,3.063-.557a48.779,48.779,0,0,0,7.693-1.545,27.27,27.27,0,0,1,9.414-.073c2.556.572,4.848,1.754,5.978,4.238.294.644.33.941.973,1.222a12.351,12.351,0,0,1,1.943.773,7.412,7.412,0,0,1,2.829,3.664,20.869,20.869,0,0,1,.848,7.01,16.6,16.6,0,0,0,1.151,6.946c.658,1.384,1.689,2.619,2,4.12a4.574,4.574,0,0,1-6.32,5.117,6.686,6.686,0,0,0,.566-3.784c-.459,2.231-2.723,3.676-4.957,4.119-5.356,1.062-10.209-2.7-12.953-6.982A38.935,38.935,0,0,1,422.522,132.426Z" transform="translate(-412.011 -110.591)" fill="#263238"/>
                <path id="Trazado_621304" data-name="Trazado 621304" d="M417.11,126.794c.09,0-1.284,3.7-1.445,4.029-1.642,3.332-3.1,6.323-1.579,9.875a7.742,7.742,0,0,0,5.548,4.344,15.73,15.73,0,0,0,3.789.233,4.782,4.782,0,0,0,2.859-.949c.519-.42.331-1.774.35-2.43q.115-3.755.23-7.51c.013-.445.221-7.311.223-7.311Z" transform="translate(-412.179 -112.489)" fill="#263238"/>
                <g id="Grupo_878496" data-name="Grupo 878496" transform="translate(3.098 5.603)">
                  <path id="Trazado_621305" data-name="Trazado 621305" d="M421.066,116.937c-1.832.864-5.616,4.8-5.545,14.179.058,7.8,1.408,9.666,3.518,10.633,1.259.577,3.311.567,5.716.394l-.1,4.711s-6.986,4.759-1.607,5.96a11.983,11.983,0,0,0,8.57-1.78,11.806,11.806,0,0,0,3.481-3.177l.868-10.47s1.268,1.484,3.824-.362c2.111-1.524,3.037-4.339,1.66-6.025a3.529,3.529,0,0,0-5.63.542s-1.345.712-2.494-2a35.265,35.265,0,0,1-6.393-3.635A13.587,13.587,0,0,1,421.066,116.937Z" transform="translate(-415.52 -116.937)" fill="#e49fa1"/>
                </g>
                <g id="Grupo_878497" data-name="Grupo 878497" transform="translate(9.766 23.75)">
                  <path id="Trazado_621306" data-name="Trazado 621306" d="M427.34,137.493l-4.267,1.07a2.16,2.16,0,0,0,2.625,1.672A2.3,2.3,0,0,0,427.34,137.493Z" transform="translate(-423.073 -137.493)" fill="#9a4a4d"/>
                </g>
                <path id="Trazado_621307" data-name="Trazado 621307" d="M424.956,140.364a2.039,2.039,0,0,1,2.2-1.836,2.006,2.006,0,0,1,.4.075,2.264,2.264,0,0,1-1.642,1.752A2.1,2.1,0,0,1,424.956,140.364Z" transform="translate(-413.528 -113.864)" fill="#f28f8f"/>
                <g id="Grupo_878498" data-name="Grupo 878498" transform="translate(4.979 12.723)">
                  <path id="Trazado_621308" data-name="Trazado 621308" d="M417.682,126.539l2.332-.62a1.159,1.159,0,0,0-1.435-.877A1.267,1.267,0,0,0,417.682,126.539Z" transform="translate(-417.651 -125.002)" fill="#263238"/>
                </g>
                <g id="Grupo_878499" data-name="Grupo 878499" transform="translate(15.568 14.099)">
                  <path id="Trazado_621309" data-name="Trazado 621309" d="M429.645,127.222l2.163,1.071a1.158,1.158,0,0,0-.5-1.6A1.268,1.268,0,0,0,429.645,127.222Z" transform="translate(-429.645 -126.561)" fill="#263238"/>
                </g>
                <g id="Grupo_878500" data-name="Grupo 878500" transform="translate(5.721 15.698)">
                  <path id="Trazado_621310" data-name="Trazado 621310" d="M423.043,128.372l-1.079,6.5-3.473-1.042Z" transform="translate(-418.491 -128.372)" fill="#9a4a4d"/>
                </g>
                <g id="Grupo_878501" data-name="Grupo 878501" transform="translate(12.301 26.848)">
                  <path id="Trazado_621311" data-name="Trazado 621311" d="M425.977,144.963c2.527-.094,8.1-2,9.089-3.96a5.259,5.259,0,0,1-2.2,3.247,27.778,27.778,0,0,1-6.922,2.238Z" transform="translate(-425.945 -141.003)" fill="#9a4a4d"/>
                </g>
                <path id="Trazado_621312" data-name="Trazado 621312" d="M438.337,130.925l-.381,4.084h0a2.792,2.792,0,0,1-2.52-3.039l.352-3.77Z" transform="translate(-414.755 -112.654)" fill="#263238"/>
              </g>
              <g id="Grupo_878503" data-name="Grupo 878503" transform="translate(4.473 15.717)">
                <path id="Trazado_621313" data-name="Trazado 621313" d="M419.236,129.365a1.112,1.112,0,0,1-1.008,1.166,1.041,1.041,0,0,1-1.148-.967,1.11,1.11,0,0,1,1.007-1.166A1.042,1.042,0,0,1,419.236,129.365Z" transform="translate(-417.077 -128.394)" fill="#263238"/>
              </g>
              <g id="Grupo_878504" data-name="Grupo 878504" transform="translate(12.714 16.044)">
                <path id="Trazado_621314" data-name="Trazado 621314" d="M428.57,129.736a1.111,1.111,0,0,1-1.007,1.166,1.04,1.04,0,0,1-1.148-.967,1.111,1.111,0,0,1,1.007-1.166A1.042,1.042,0,0,1,428.57,129.736Z" transform="translate(-426.412 -128.765)" fill="#263238"/>
              </g>
            </g>
            <g id="Grupo_878506" data-name="Grupo 878506" transform="translate(0 35.123)">
              <path id="Trazado_621315" data-name="Trazado 621315" d="M437.745,181.13l3.7-12.821c1.964-5.859,1.381-9.767.968-11.618-.664-2.584-8.549-4.906-8.549-4.906-1.2-.38-4.762-.4-5.855-.588l-8.1-.732a37.517,37.517,0,0,0-12,10.478c-2.639,3.427-5.129,8.3.222,13.539a16.26,16.26,0,0,0,.622,6.946" transform="translate(-404.672 -150.387)" fill="#12263f"/>
              <path id="Trazado_621317" data-name="Trazado 621317" d="M433.355,177.445a8.325,8.325,0,0,1-8.229,3.749,8.784,8.784,0,0,1-7.066-5.25s-.263,6.123,6.95,6.711S433.355,177.445,433.355,177.445Z" transform="translate(-406.206 -153.372)" opacity="0.2"/>
            </g>
          </g>
        </g>
        <g id="Grupo_878514" data-name="Grupo 878514" transform="translate(51.589 55.188)">
          <g id="Grupo_878508" data-name="Grupo 878508" transform="translate(3.059 34.142)">
            <path id="Trazado_621318" data-name="Trazado 621318" d="M434.985,211.569V238.76a.561.561,0,0,0,.215.507l1.229.714a.405.405,0,0,0,.192.038.73.73,0,0,0,.353-.1l30.822-17.8a1.757,1.757,0,0,0,.791-1.382l-.008-27.151a.56.56,0,0,0-.223-.507.156.156,0,0,0-.053-.031h-.008l-1.152-.676a.469.469,0,0,0-.207-.053.774.774,0,0,0-.353.107l-16.155,9.312-1.912,1.106s-2.349,1.351-2.856,1.635c-.039.023-.062.039-.077.047l-9.806,5.659a1.11,1.11,0,0,0-.161.115,1.666,1.666,0,0,0-.4.484A1.583,1.583,0,0,0,434.985,211.569Z" transform="translate(-434.981 -192.322)" fill="#27debf"/>
            <path id="Trazado_621319" data-name="Trazado 621319" d="M435.246,210.786l1.19.691h.007c.039-.061.077-.123.116-.177a1.861,1.861,0,0,1,.284-.307,1.066,1.066,0,0,1,.161-.115l9.806-5.652c.245-.146,2.457-1.413,2.9-1.666l1.175-.676,16.923-9.757a.564.564,0,0,1,.515-.077l-1.152-.676a.469.469,0,0,0-.208-.053.667.667,0,0,0-.353.107l-16.155,9.312-1.912,1.106s-2.349,1.351-2.856,1.635c-.039.023-.062.039-.077.047l-9.806,5.659a1.112,1.112,0,0,0-.161.115A1.665,1.665,0,0,0,435.246,210.786Z" transform="translate(-435.012 -192.322)" fill="#fff" opacity="0.5"/>
            <path id="Trazado_621320" data-name="Trazado 621320" d="M468.731,193.68l.014,27.158a1.755,1.755,0,0,1-.8,1.381l-30.908,17.843a.47.47,0,0,1-.705-.407v-27.3a1.614,1.614,0,0,1,.233-.784,1.7,1.7,0,0,1,.562-.6l9.805-5.661c.25-.141,2.463-1.408,2.9-1.661l18.094-10.436a.59.59,0,0,1,.522-.076l.032.017.018.009.009.006A.571.571,0,0,1,468.731,193.68Z" transform="translate(-435.14 -192.415)" fill="#b6e1fd"/>
            <path id="Trazado_621321" data-name="Trazado 621321" d="M436.594,214h.007c.039-.061.077-.123.116-.177A1.459,1.459,0,0,0,436.594,214Z" transform="translate(-435.17 -194.841)" fill="#27debf"/>
            <path id="Trazado_621322" data-name="Trazado 621322" d="M436.466,242.445a.128.128,0,0,1-.035-.011l-1.234-.716a.575.575,0,0,1-.215-.506V214.018a1.625,1.625,0,0,1,.236-.784l1.193.695v0a1.616,1.616,0,0,0-.232.783v27.3A.463.463,0,0,0,436.466,242.445Z" transform="translate(-434.981 -194.773)" opacity="0.2"/>
          </g>
          <g id="Grupo_878510" data-name="Grupo 878510" transform="translate(9.571)">
            <g id="Grupo_878509" data-name="Grupo 878509" transform="translate(0.326 2.223)">
              <path id="Trazado_621323" data-name="Trazado 621323" d="M461.711,191.335c-6.6-26.991-10-35.274-18.022-35.169-2.341,2.8.128,11.508,1.676,15.741,0,0,7.1,17.333,8.413,23.521,1.156,5.437,2.467,12.277,2.384,16.951a3.385,3.385,0,0,1-.917,2.223c-1.506,1.633-1.512,2.949-2.489,4.755-.764,1.413-1.6,1.942-1.362,2.261a1.827,1.827,0,0,0,2.477.183,9.339,9.339,0,0,0,1.877-1.8,20.922,20.922,0,0,1-1.464,6.2l-1.678.968s.514,1.744,4.568.581c4.578-1.313,6.219-1.88,6.7-9.644a59.938,59.938,0,0,0,.085-8.593C463.271,202.152,462.774,195.68,461.711,191.335Z" transform="translate(-442.726 -156.166)" fill="#e49fa1"/>
            </g>
            <path id="Trazado_621324" data-name="Trazado 621324" d="M443.446,153.648s8.091,1.805,10.029,4.772c2.239,3.427,3.09,7.851,6.854,21.242a116.163,116.163,0,0,1,4.291,30.847s-4.717,2.2-9.068-.311c0,0-1.928-11.649-3.637-17.847s-7.191-19.626-7.191-19.626S440.395,162.97,443.446,153.648Z" transform="translate(-442.357 -153.648)"/>
          </g>
          <g id="Grupo_878511" data-name="Grupo 878511" transform="translate(0 58.771)">
            <path id="Trazado_621325" data-name="Trazado 621325" d="M434.009,237.239c-.373.23-.53-.466-.618-1.488l-.032-1.887s-1.443,1.292-1.8-3.073c-.389-4.8,1.762-5.685,1.762-5.685s.01-.8.01-2.379.335-1.967.7-2.233l.54-.274V236.9S434.381,237.01,434.009,237.239Z" transform="translate(-431.516 -220.22)" fill="#37474f"/>
          </g>
          <g id="Grupo_878512" data-name="Grupo 878512" transform="translate(2.87 60.156)">
            <path id="Trazado_621326" data-name="Trazado 621326" d="M436.152,235.049c0-1.431.137-2.279,1.054-2.841,1.048-.643,1.5-.863,1.5-.863l.268-8.848s-1.516,1.02-2.035,1.322-.817-1.5-.79-2.03l-1.24.565-.145,13.662Z" transform="translate(-434.767 -221.789)" fill="#37474f"/>
          </g>
          <g id="Grupo_878513" data-name="Grupo 878513" transform="translate(5.314 57.219)">
            <path id="Trazado_621327" data-name="Trazado 621327" d="M439.465,233.8l-1.083.652c-.6.36-.862-1.476-.591-4.1l-.256-5.845c.272-2.625.317-5.032.915-5.391l1.083-.652Z" transform="translate(-437.535 -218.463)" fill="#37474f"/>
          </g>
        </g>
      </g>
    </g>
  </g>
</svg>
