<svg xmlns="http://www.w3.org/2000/svg" width="391" height="197" viewBox="0 0 391 197">
  <g id="Grupo_1034300" data-name="Grupo 1034300" transform="translate(-8164 2595)">
    <g id="Grupo_877902" data-name="Grupo 877902">
      <g id="Grupo_877861" data-name="Grupo 877861" transform="translate(8164 -2595)">
        <rect id="Rect치ngulo_327209" data-name="Rect치ngulo 327209" width="391" height="197" fill="#617a0b"/>
      </g>
      <g id="Grupo_877883" data-name="Grupo 877883" transform="translate(8215.751 -2497.25)">
        <rect id="Rect치ngulo_327212" data-name="Rect치ngulo 327212" width="284" height="56" rx="28" transform="translate(0.25 0.25)" fill="#b1de19"/>
        <g id="Grupo_877879" data-name="Grupo 877879" transform="translate(165.353 5.125)">
          <path id="Trazado_620346" data-name="Trazado 620346" d="M3080.451,3800.84l7.351,14.894,16.436,2.388-11.894,11.594,2.808,16.371-14.7-7.729h0V3800.84Z" transform="translate(-3056.663 -3800.84)" fill="#e5be51"/>
          <path id="Trazado_620347" data-name="Trazado 620347" d="M2788.152,3829.715l-11.894-11.594,16.437-2.388,7.351-14.894v37.518l-14.7,7.729Z" transform="translate(-2776.258 -3800.84)" fill="#ffde6a"/>
        </g>
        <g id="Grupo_877880" data-name="Grupo 877880" transform="translate(113.383 5.125)">
          <path id="Trazado_620348" data-name="Trazado 620348" d="M2415.867,3800.84l7.35,14.894,16.437,2.388-11.894,11.594,2.808,16.371-14.7-7.729h0V3800.84Z" transform="translate(-2392.08 -3800.84)" fill="#e5be51"/>
          <path id="Trazado_620349" data-name="Trazado 620349" d="M2123.573,3829.715l-11.894-11.594,16.437-2.388,7.351-14.894v37.518l-14.7,7.729Z" transform="translate(-2111.68 -3800.84)" fill="#ffde6a"/>
        </g>
        <g id="Grupo_877881" data-name="Grupo 877881" transform="translate(61.413 5.125)">
          <path id="Trazado_620350" data-name="Trazado 620350" d="M1758.647,3815.733l16.437,2.388-11.894,11.594,2.808,16.371-14.7-7.729V3800.84Z" transform="translate(-1727.509 -3800.84)" fill="#e5be51"/>
          <path id="Trazado_620351" data-name="Trazado 620351" d="M1447.1,3818.122l16.437-2.388,7.351-14.894v37.517l-14.7,7.729,2.807-16.371Z" transform="translate(-1447.104 -3800.84)" fill="#ffde6a"/>
        </g>
        <g id="Grupo_877882" data-name="Grupo 877882" transform="translate(9.443 5.125)">
          <path id="Trazado_620352" data-name="Trazado 620352" d="M1094.067,3815.733l16.437,2.388-11.893,11.594,2.808,16.371-14.7-7.729V3800.84Z" transform="translate(-1062.929 -3800.84)" fill="#e5be51"/>
          <path id="Trazado_620353" data-name="Trazado 620353" d="M782.525,3818.122l16.437-2.388,7.351-14.894v37.517l-14.7,7.729,2.807-16.371Z" transform="translate(-782.525 -3800.84)" fill="#ffde6a"/>
        </g>
      </g>
      <g id="Grupo_877884" data-name="Grupo 877884" transform="translate(8429.188 -2465.043)">
        <path id="Trazado_620354" data-name="Trazado 620354" d="M3414.2,4168.023l-23.047,3.349,16.677,16.256-3.937,22.955,20.614-10.838V4147.14Z" transform="translate(-3391.157 -4147.14)" fill="#e5be51"/>
        <path id="Trazado_620355" data-name="Trazado 620355" d="M3851.035,4171.372l-23.047-3.349-10.307-20.883v52.605l20.614,10.838-3.937-22.955Z" transform="translate(-3784.327 -4147.14)" fill="#ffde6a"/>
      </g>
      <g id="Grupo_877886" data-name="Grupo 877886" transform="translate(8451.268 -2436.489)">
        <g id="Grupo_877885" data-name="Grupo 877885">
          <path id="Trazado_620356" data-name="Trazado 620356" d="M3678.343,4514.7a2.419,2.419,0,1,1-2.419-2.42A2.419,2.419,0,0,1,3678.343,4514.7Z" transform="translate(-3673.504 -4512.284)" fill="#fff"/>
          <path id="Trazado_620357" data-name="Trazado 620357" d="M3904.823,4514.7a2.419,2.419,0,1,1-2.419-2.42A2.419,2.419,0,0,1,3904.823,4514.7Z" transform="translate(-3882.273 -4512.284)" fill="#fff"/>
        </g>
      </g>
      <path id="Trazado_620358" data-name="Trazado 620358" d="M3675.281,4678.41q.411,0,.821.028a14.389,14.389,0,0,1,8.066,3.418,17.613,17.613,0,0,1,2.979,3.07l-1.338.954a16.339,16.339,0,0,0-2.721-2.785,12.9,12.9,0,0,0-7.109-3.019c-3.935-.262-7.917,1.72-11.834,5.889l-1.2-1.125C3666.959,4680.57,3671.1,4678.41,3675.281,4678.41Z" transform="translate(4787.495 -7101.908)" fill="#fff"/>
      <path id="Trazado_620359" data-name="Trazado 620359" d="M4230.289,3021.922s.014.434.041,1.248.065,2.008.1,3.528.093,3.365.137,5.482c.023,1.059.049,2.185.076,3.372s.046,2.436.071,3.738.048,2.659.074,4.064.045,2.856.068,4.349c.042,2.985.083,6.133.116,9.39q.022,2.442.046,4.959t.038,5.082c.017,3.419.033,6.893.05,10.367s.014,6.948.009,10.367q-.005,2.565-.009,5.082t-.018,4.96c-.015,3.257-.038,6.405-.063,9.39q-.023,2.239-.044,4.35t-.052,4.064c-.017,1.3-.034,2.551-.05,3.739s-.039,2.314-.058,3.372c-.033,2.117-.075,3.963-.107,5.483s-.065,2.714-.084,3.528-.035,1.249-.035,1.249-.015-.434-.042-1.248-.065-2.008-.1-3.528-.093-3.365-.138-5.482c-.024-1.058-.049-2.185-.076-3.372s-.047-2.436-.071-3.738-.049-2.66-.075-4.064-.044-2.856-.068-4.349c-.042-2.985-.083-6.134-.115-9.39q-.023-2.443-.046-4.959t-.037-5.082c-.025-3.419-.036-6.893-.048-10.367s-.006-6.948-.009-10.367q.005-2.565.01-5.082t.019-4.96c.015-3.257.038-6.405.063-9.39q.022-2.239.043-4.35t.052-4.064c.018-1.3.034-2.551.05-3.739s.039-2.314.057-3.372c.032-2.117.075-3.962.106-5.482s.065-2.714.084-3.528S4230.289,3021.922,4230.289,3021.922Z" transform="translate(4264.998 -5574.958)" fill="#fff"/>
      <path id="Trazado_620360" data-name="Trazado 620360" d="M3771.29,2742.922s.014.434.041,1.248.065,2.008.1,3.528.093,3.365.137,5.482c.023,1.059.049,2.185.076,3.372s.046,2.436.071,3.738.048,2.66.074,4.064.044,2.856.068,4.349c.042,2.985.083,6.134.115,9.39q.022,2.443.046,4.959t.038,5.082c.016,3.42.033,6.894.049,10.367s.015,6.948.009,10.367q0,2.565-.009,5.082t-.018,4.96c-.015,3.257-.038,6.405-.063,9.39q-.023,2.239-.043,4.349t-.052,4.064c-.017,1.3-.034,2.551-.05,3.739s-.039,2.314-.058,3.372c-.032,2.117-.075,3.963-.106,5.483s-.065,2.714-.084,3.528-.035,1.249-.035,1.249-.015-.434-.042-1.248-.065-2.008-.1-3.528-.093-3.365-.138-5.482c-.023-1.058-.049-2.185-.076-3.372s-.046-2.436-.071-3.738-.049-2.66-.075-4.064-.044-2.856-.068-4.349c-.042-2.985-.082-6.133-.115-9.39q-.023-2.443-.046-4.96t-.037-5.082c-.024-3.419-.035-6.893-.048-10.367s-.006-6.948-.008-10.367q0-2.565.01-5.082t.018-4.96c.015-3.257.038-6.405.063-9.391.015-1.492.029-2.945.043-4.349s.035-2.762.052-4.064.034-2.551.05-3.739.04-2.314.057-3.372c.032-2.117.075-3.963.106-5.482s.065-2.714.083-3.528S3771.29,2742.922,3771.29,2742.922Z" transform="translate(4688.103 -5317.775)" fill="#fff"/>
      <path id="Trazado_620361" data-name="Trazado 620361" d="M3406.29,2978.922s.014.435.042,1.248.065,2.008.1,3.528.093,3.365.137,5.482c.024,1.058.049,2.185.076,3.372s.046,2.436.071,3.738.049,2.66.074,4.064.045,2.856.068,4.349c.042,2.985.083,6.133.115,9.39q.023,2.443.046,4.96t.038,5.082c.016,3.419.033,6.893.049,10.367s.015,6.948.009,10.367q0,2.565-.009,5.082t-.018,4.96c-.015,3.257-.038,6.406-.063,9.391q-.023,2.239-.044,4.349c-.018,1.4-.035,2.762-.052,4.064s-.034,2.551-.05,3.739-.039,2.314-.057,3.372c-.033,2.117-.075,3.963-.107,5.482s-.065,2.714-.084,3.528-.035,1.249-.035,1.249l-.042-1.248c-.024-.814-.066-2.008-.1-3.528s-.093-3.365-.137-5.482c-.024-1.058-.05-2.185-.076-3.372s-.046-2.436-.071-3.738-.049-2.66-.074-4.064-.044-2.856-.068-4.349c-.042-2.985-.082-6.134-.115-9.39q-.023-2.443-.046-4.96t-.037-5.082c-.024-3.42-.035-6.893-.049-10.367s-.005-6.948-.008-10.367q0-2.565.01-5.082t.019-4.96c.015-3.257.038-6.405.063-9.39q.022-2.239.044-4.349t.052-4.064c.017-1.3.034-2.551.05-3.739s.039-2.314.057-3.372c.032-2.117.075-3.963.106-5.483s.065-2.714.083-3.528S3406.29,2978.922,3406.29,2978.922Z" transform="translate(5024.559 -5535.32)" fill="#fff"/>
      <g id="Grupo_877898" data-name="Grupo 877898" transform="translate(8420.557 -2594.459)">
        <g id="Grupo_877889" data-name="Grupo 877889" transform="translate(2.329 22.44)">
          <g id="Grupo_877888" data-name="Grupo 877888">
            <path id="Trazado_620362" data-name="Trazado 620362" d="M3311.2,3395.645h0c-.046-1.558-.1-3.235-.147-5C3311.106,3393.681,3311.2,3395.645,3311.2,3395.645Z" transform="translate(-3311.018 -3342.829)" fill="none"/>
            <path id="Trazado_620363" data-name="Trazado 620363" d="M3994.192,3458.563c-3.75-8.1-7.346-5.007-8-.662a2.25,2.25,0,0,1,1.313-1.148,1.957,1.957,0,0,1,2.154.668c5,6.134,4.877,12.344,11.814,12.141a4.568,4.568,0,0,0,1.8-.43h0C4001.009,3468.7,3998.412,3467.687,3994.192,3458.563Z" transform="translate(-3933.359 -3400.786)" fill="#c1a590"/>
            <g id="Grupo_877887" data-name="Grupo 877887">
              <path id="Trazado_620364" data-name="Trazado 620364" d="M3433.588,2819.716c1.8,20.836,31.729,25.454,31.729,25.454s.145,39.634,2.308,41.609a6.49,6.49,0,0,0,3.405.845,6.569,6.569,0,0,0,6.348-6.733l-.123-4.177-1.033-35.069-.139-4.727a1.444,1.444,0,0,1,.132-.632c.652-4.345,4.248-7.442,8,.662,4.22,9.123,6.817,10.136,9.086,10.569h0a4.532,4.532,0,0,0,1.974-6.433l-15.445-30.827,0-.01a101.267,101.267,0,0,0-6.109-12.192l-.236-.471a3.219,3.219,0,0,0-.459-.6,12.472,12.472,0,0,0-2.768-3.157c-3.855-2.669-2.076-14.2-2.076-14.536,0-.22-25.229-.076-34-.02C3433.592,2785,3432.107,2802.595,3433.588,2819.716Z" transform="translate(-3423.379 -2779.171)" fill="#fcd0ad"/>
              <path id="Trazado_620365" data-name="Trazado 620365" d="M3310.585,2828.145c.052,1.764.106,3.441.152,5,.2,6.685.333,11.2.333,11.2a6.506,6.506,0,0,0,13.007.038.7.7,0,0,1,.089.025l.179,6.091a6.545,6.545,0,0,0,13.083-.386l.192,6.542a6.545,6.545,0,0,0,13.084-.387l.771,26.164a6.554,6.554,0,0,0,3.326,5.5c-2.163-1.975-2.308-41.609-2.308-41.609s-29.927-4.618-31.729-25.454c-1.481-17.122,0-34.717.581-40.447l-2.967.02s-4.189,13.957-6.069,22.517c-.056.25-.121.5-.174.762a35.428,35.428,0,0,0-.728,4.442h0A152.559,152.559,0,0,0,3310.585,2828.145Z" transform="translate(-3310.556 -2780.328)" fill="#c1a590"/>
            </g>
          </g>
          <path id="Trazado_620366" data-name="Trazado 620366" d="M3847.827,4007.471a11.751,11.751,0,0,0,10.82,0s1.5-9.043-4.758-9.043S3847.827,4007.471,3847.827,4007.471Z" transform="translate(-3805.811 -3903.082)" fill="#f2dccd"/>
          <path id="Trazado_620367" data-name="Trazado 620367" d="M4160.119,3480.882l-3.9,3.131s-5.072-10.059-.231-11.382Z" transform="translate(-4087.942 -3418.402)" fill="#f2dccd"/>
        </g>
        <g id="Grupo_877897" data-name="Grupo 877897">
          <g id="Grupo_877896" data-name="Grupo 877896">
            <g id="Grupo_877894" data-name="Grupo 877894" transform="translate(3.594 7.21)">
              <g id="Grupo_877893" data-name="Grupo 877893">
                <g id="Grupo_877892" data-name="Grupo 877892">
                  <g id="Grupo_877891" data-name="Grupo 877891">
                    <g id="Grupo_877890" data-name="Grupo 877890">
                      <path id="Trazado_620368" data-name="Trazado 620368" d="M3644.284,2610.76l20.889.2a3.982,3.982,0,0,0,4.019-3.945l.148-15.891a3.982,3.982,0,0,0-3.944-4.02l-20.889-.2-.051,5.424Z" transform="translate(-3619.451 -2586.709)" fill="#c1e0da"/>
                      <path id="Trazado_620369" data-name="Trazado 620369" d="M3330.672,2608.265l20.888.2.172-18.432.051-5.424-20.888-.195a3.981,3.981,0,0,0-4.019,3.945l-.149,15.891A3.983,3.983,0,0,0,3330.672,2608.265Z" transform="translate(-3326.727 -2584.41)" fill="#99d1d7"/>
                    </g>
                    <path id="Trazado_620370" data-name="Trazado 620370" d="M3808.529,2762.361a3.866,3.866,0,1,1,3.829,3.9A3.866,3.866,0,0,1,3808.529,2762.361Z" transform="translate(-3770.852 -2744.915)" fill="#134f78"/>
                  </g>
                </g>
              </g>
            </g>
            <g id="Grupo_877895" data-name="Grupo 877895">
              <path id="Trazado_620371" data-name="Trazado 620371" d="M3659.372,2512.379l-23.761-.143-.381-20.021,28.342.132-.225,17.528C3663.284,2511.346,3661.505,2512.468,3659.372,2512.379Z" transform="translate(-3607.511 -2492.215)" fill="#134f78"/>
              <path id="Trazado_620372" data-name="Trazado 620372" d="M3309.3,2512.238l-.432,0v.043l-24.145-.088c-2.134.073-3.9-1.063-3.955-2.535l.056-17.44h27.663Z" transform="translate(-3280.771 -2492.215)" fill="#0e3d56"/>
            </g>
          </g>
        </g>
      </g>
    </g>
  </g>
</svg>
