<svg xmlns="http://www.w3.org/2000/svg" width="424.188" height="280.223" viewBox="0 0 424.188 280.223">
  <g id="Grupo_877839" data-name="Grupo 877839" transform="translate(-26.329 0.92)">
    <g id="Grupo_877836" data-name="Grupo 877836" transform="translate(26.329 20.123)">
      <path id="Trazado_620226" data-name="Trazado 620226" d="M82.15,56.132c1.028.364,1.753-1.728.834-2.176C82.6,53.769,80.249,55.458,82.15,56.132Z" transform="translate(16.923 7.47)" fill="#96a1a1"/>
      <path id="Trazado_620227" data-name="Trazado 620227" d="M87.052,40.911c.885-.395,2.008-.246,2.369-1.237.791-2.183-4.143-2.8-5.491-1.378C82.379,39.936,85.28,41.7,87.052,40.911Z" transform="translate(18.55 -5.418)" fill="#96a1a1"/>
      <path id="Trazado_620228" data-name="Trazado 620228" d="M236.911,154.261c.327-.177-.195-.778,0-1.055.2-.295,1.287.184,1.539-.066a1.99,1.99,0,0,0-.1-3.228c-.809-.6-3.226-1.617-4.458-.086C232.308,151.794,235.616,154.957,236.911,154.261Z" transform="translate(136.308 82.12)" fill="#96a1a1"/>
      <path id="Trazado_620229" data-name="Trazado 620229" d="M235.929,148.249c-.532.548.669,1.764,1.069,1.419.866-.743-.4-1.419-1.069-1.419C235.929,148.335,235.989,148.185,235.929,148.249Z" transform="translate(138.133 81.502)" fill="#96a1a1"/>
      <path id="Trazado_620230" data-name="Trazado 620230" d="M233.3,147.969c-.684.411-.414,1.687.587,1.4C234.34,149.072,234.042,147.785,233.3,147.969Z" transform="translate(135.876 81.28)" fill="#96a1a1"/>
      <path id="Trazado_620231" data-name="Trazado 620231" d="M250.378,155.484c1.319-2.638,2.94-4.211.591-5.695-2.408-1.519-2.251,1.408-3.62,3.261-1.209,1.657-2.626,1.864-3.5,3.779a2.467,2.467,0,0,0,2.7,3.365C249.447,159.613,249.227,157.785,250.378,155.484Z" transform="translate(144.312 82.392)" fill="#96a1a1"/>
      <path id="Trazado_620232" data-name="Trazado 620232" d="M249.191,147.634c0,.753-1.808,1.376-1.482,2.94.237,1.135,1.253.677,1.412,1.408-.034-.086.1,2.485,1.614,2.54.843.03.682-1.671,1.194-1.894,1.689-.737,2.669-2.669-.419-4.109-1.1-.514.405-2.672-1.485-2.115-.93.275-.352-3.224-1.621-2.644C247.383,144.227,249.191,146.86,249.191,147.634Z" transform="translate(147.456 77.939)" fill="#96a1a1"/>
      <path id="Trazado_620233" data-name="Trazado 620233" d="M241.331,129c-.757-.759.437-2.48-.366-3.831-1.114-1.874-2.306-3.9-4.563-2.424-.491.32-2.66,5.514-5.47,6.173-.928.216-1.35-1.378-2.858-.691a5.332,5.332,0,0,0-2.824,2.606c-.428.864.818,1.5.509,2-.2.323-1.376-.42-1.708-.4-2.464.143-1.591,3.561-3.465,4.663-1.423.835-3.615,1.1-5.175,1.849-.684.3-.039-.7-1.948.755-1.646,1.257,2.271,4.663.316,6.585-2.046,2.014.211,3.338.719,5.018,1.053,3.4-1.2,4.975-.034,7.837.557,1.367,2.28,1.958,4.12,1.592,1.051-.173,1.587-1.687,2.754-2.024.937-.271,5.384,1.687,8.033-2.151a4.865,4.865,0,0,1,6.793-1.526c1.56,1.034.825,3.777,5.311,2.344,1.228-.393-1,2.258.123,2.756,1.658.734-.4,1,.805,2.064,1.885,1.669,1.957,5.163,5.982,4.911,1.226-.077.843-1.487,1.614-1.53.771-.02.477,1.444,1.3,1.657,3.106.809,5.1-1.807,6.016-4.649.6-1.851.737-3.768,1.683-5.746a14.683,14.683,0,0,0,.493-12.382,36.945,36.945,0,0,0-2.176-3.981c-.087-.107-2.053-2.54-2.49-3.079-.6-.687-2.069-1.205-2.526-1.892-1.123-1.7.127-5.878-.514-7.61-1.069-2.881-3.392-4.5-4.572-4.361C244.478,123.849,245.369,133.048,241.331,129Z" transform="translate(120.185 61.093)" fill="#617a0b"/>
      <path id="Trazado_620234" data-name="Trazado 620234" d="M224.747,121.251c.876.835,2.872-.361.93-1.464C225.024,119.416,224.142,120.677,224.747,121.251Z" transform="translate(129.299 59.115)" fill="#96a1a1"/>
      <path id="Trazado_620235" data-name="Trazado 620235" d="M227.344,118.454c-.4.321-1.128,1.182-.753,1.7C227.662,121.637,228.942,117.14,227.344,118.454Z" transform="translate(130.824 57.93)" fill="#96a1a1"/>
      <path id="Trazado_620236" data-name="Trazado 620236" d="M229.994,119.22c1.059-.129,1.842.216,2.49,1.616.876,1.871-1.678,3.122-.614,3.94.907.694,1.685-.732,2.176-.582,1.56.537,2.174,2.262,4.122,1.53,1.192-.432,1.141-2.542,3.1-1.68.771.343.948,1.5,1.632,1.98,1.314.948,4.263,2.153,2.929-.129-.195-.346-2.5-2.662-1.259-4.431.578-.823-2.951-2.028-3.917-2.7a19.739,19.739,0,0,0-5.28-2.476c-2.876-1.139-2.717-.452-5,0-1.421.3-3.652-1.057-4.69.8C225.219,117.931,226.008,119.706,229.994,119.22Z" transform="translate(130.103 55.935)" fill="#96a1a1"/>
      <path id="Trazado_620237" data-name="Trazado 620237" d="M220.589,115.162c-1.093.271.621,1.53,1.369.539C222.485,115,221.182,115.016,220.589,115.162Z" transform="translate(125.915 55.473)" fill="#96a1a1"/>
      <path id="Trazado_620238" data-name="Trazado 620238" d="M225.085,114.8c-.3-.043-.851-.052-.809.323.18,1.619,3.956,2.631,4.575.714C229.946,112.441,226.4,115.419,225.085,114.8Z" transform="translate(129.086 54.764)" fill="#96a1a1"/>
      <path id="Trazado_620239" data-name="Trazado 620239" d="M222.606,116.607c-.1.55,2.86,1.653,3.367,1.076C227.1,116.4,222.911,114.968,222.606,116.607Z" transform="translate(127.775 56.094)" fill="#96a1a1"/>
      <path id="Trazado_620240" data-name="Trazado 620240" d="M221.659,116.283c-1.228,1.4.582,1.858,1.135.632C222.969,116.53,221.9,116,221.659,116.283Z" transform="translate(126.705 56.355)" fill="#96a1a1"/>
      <path id="Trazado_620241" data-name="Trazado 620241" d="M221.78,115.439c.125,3.035,2.455,2.494,3.129,1.594.6-.8-.96-3-1.426-3.59-.384-.491.891-1.566.316-1.68C222.335,111.473,221.711,113.284,221.78,115.439Z" transform="translate(127.125 52.844)" fill="#96a1a1"/>
      <path id="Trazado_620242" data-name="Trazado 620242" d="M216.439,118.1a9.769,9.769,0,0,0,1.123,1.766c-.055-.084-.412,1.455.245,1.98.9.719,2.194,1.766,3.42.743,1.691-1.407-.632-3.306-.157-4.211C223.819,113.137,214.747,112.286,216.439,118.1Z" transform="translate(122.769 54.689)" fill="#96a1a1"/>
      <path id="Trazado_620243" data-name="Trazado 620243" d="M222.893,113.059c-2.24-1.724-7.492-.457-5.047.875,1.826.994,1.119.675,3.047.2.6-.171,1.128.709,1.9.471,1.187-.368,1.453-2.237.1-1.546C222.823,113.1,223.114,113.23,222.893,113.059Z" transform="translate(123.541 53.228)" fill="#96a1a1"/>
      <path id="Trazado_620244" data-name="Trazado 620244" d="M219.667,122.96c0,1.334,4.784-1.044,4.666-1.765C224.012,119.242,219.949,122.357,219.667,122.96Z" transform="translate(125.47 59.774)" fill="#96a1a1"/>
      <path id="Trazado_620245" data-name="Trazado 620245" d="M219.638,122.64c-.509.086-.812.514-.368.773a.677.677,0,0,0,.735,0c.293-.25.054-.944-.368-.773C219.462,122.726,219.726,122.6,219.638,122.64Z" transform="translate(124.989 61.386)" fill="#96a1a1"/>
      <path id="Trazado_620246" data-name="Trazado 620246" d="M217.181,121.3c.03,1.744,5.918,1.018,5.736-.409C222.783,119.841,217.169,120.505,217.181,121.3Z" transform="translate(123.518 59.608)" fill="#96a1a1"/>
      <path id="Trazado_620247" data-name="Trazado 620247" d="M217.126,121.438c-1.562.582,1.591,1.964,1.8,1.485.152-.337-1.262-1.616-1.8-1.485C216.932,121.5,217.2,121.417,217.126,121.438Z" transform="translate(123.135 60.457)" fill="#96a1a1"/>
      <path id="Trazado_620248" data-name="Trazado 620248" d="M207.644,120.461c-.687,1.883,3.438,1.787,5.875,2.089,1.932.259,5.395,3.019,6.4,1.117.718-1.35-2.08-.571-3.106-1.483-.793-.705,1.635-.987,1.471-1.789C217.532,116.728,208.949,116.883,207.644,120.461Z" transform="translate(115.97 57.537)" fill="#96a1a1"/>
      <path id="Trazado_620249" data-name="Trazado 620249" d="M210.918,115.271c-2.146-.036-.612,3.984.316,5.489,1.351,2.262,1.914,2.024,4.491,2.542,2.6.557,1.785,1.385,3.245-1.292a24.092,24.092,0,0,1,.614-2.842c.377-.78,2.569-1.08,2.246-2.283-.559-2.071-3.5-2.426-1.562-4.563.866-.953,1.4-3.347.287-3.961-2.731-.818-2.922,2.28-3.692,3.12C215.146,113.354,212.987,115.307,210.918,115.271Z" transform="translate(117.747 50.09)" fill="#96a1a1"/>
      <path id="Trazado_620250" data-name="Trazado 620250" d="M202.564,115.356c1.21,1.83,3.49,2.929,4.77,4.975.878,1.357.753,4.713,2.947,5.081,3.3.555,3.206-1.823,4.35-3.745,1.012-1.7-1.5-3.179-3.04-3.858-2.019-.885-6.962-8.713-9.361-8.067C199.595,110.45,201.792,114.149,202.564,115.356Z" transform="translate(110.79 51.251)" fill="#96a1a1"/>
      <path id="Trazado_620251" data-name="Trazado 620251" d="M220.846,107.5c-1.292-.437-3.738,3.192-1.807,3.144,3.31-.08,2.533,1.928,4.42,1.4,2.813-.785,1.053-6.223-.054-6.223-1.123,0-1.316,2.715-2.56,1.68C220.651,107.54,220.962,107.535,220.846,107.5Z" transform="translate(124.414 48.198)" fill="#96a1a1"/>
      <path id="Trazado_620252" data-name="Trazado 620252" d="M219.077,107.825c-.3,1.489,2.5,2.048,2.044-.73-.212-1.184-2.447-4.934-3.317-4.283C216.623,103.7,219.315,106.64,219.077,107.825Z" transform="translate(123.771 45.781)" fill="#96a1a1"/>
      <path id="Trazado_620253" data-name="Trazado 620253" d="M223.545,107.344c1.782-1.457-.827-3.717-2.256-5.193-.719-.741-2.071-.05-2.415.9C218.786,103.3,222.189,108.453,223.545,107.344Z" transform="translate(124.845 45.076)" fill="#96a1a1"/>
      <path id="Trazado_620254" data-name="Trazado 620254" d="M218.435,103.869c-1.148-2.081-4.206,4.243-3.106,5.741C216.579,111.315,220.058,106.813,218.435,103.869Z" transform="translate(121.879 46.343)" fill="#96a1a1"/>
      <path id="Trazado_620255" data-name="Trazado 620255" d="M218.367,98.4c-1.842,1.225-1.091,8.031.718,6.651C220.227,104.179,221.662,98.4,218.367,98.4Z" transform="translate(123.613 42.376)" fill="#96a1a1"/>
      <path id="Trazado_620256" data-name="Trazado 620256" d="M219.776,93.014c-.462-.555-4.179,2.69-2.1,4.563a.586.586,0,0,0,.737,0C219.707,96.238,220.762,94.2,219.776,93.014Z" transform="translate(123.412 38.097)" fill="#96a1a1"/>
      <path id="Trazado_620257" data-name="Trazado 620257" d="M246.414,73.876c-.993-.825-2.051,1.53-3.685,1.68-1.789.173-2.392-1.637-4.433-.646-.607.293-3.292,4.565-1.99,6.255,1.039,1.348-.168,7.546-2.117,6.878-.436-.148.455-1.071,0-1.228-1.046-.359-.664,1.939-1.807,1.292-.932-.527-.266,2.8-1.687,2.838-9.427.216-7.424,7.88-5.173,7.665,1.514-.145.184-3.4,1.685-2.928,1.157-.6,1.9-2.383,3.053-2.151,1.655.332,2.283.543,3.108-.625,2.928-4.15,3.474-2.085,5.284-5.673,1.462-2.894-.885-3.336-.059-6.346.409-1.485-.193-2.281,1.839-2.274,1.783.005,5.982-3.058,5.982-4.738C246.325,73.876,246.479,73.931,246.414,73.876Z" transform="translate(128.593 22.983)" fill="#96a1a1"/>
      <path id="Trazado_620258" data-name="Trazado 620258" d="M239.29,37.77c-1.192-1.307-2.985-1.335-4.59-1.2-.984.082-.759,1.16-.689,1.6C234.1,38.764,241.149,39.809,239.29,37.77Z" transform="translate(136.676 -6.213)" fill="#96a1a1"/>
      <path id="Trazado_620259" data-name="Trazado 620259" d="M228.724,37.009c-.552,4.4,11.145,1.285,9.472-1.292-.689-1.064-.916-.284-2.737,1.26a.578.578,0,0,1-.753,0C232.436,34.19,229.09,34.086,228.724,37.009Z" transform="translate(132.566 -7.519)" fill="#96a1a1"/>
      <path id="Trazado_620260" data-name="Trazado 620260" d="M204.107,33.9c1.633,1.155,6.159-1.55,6.3-1.753,1.457-2.347-3.17-1.912-3.244-2.294-.093-.477.42-.387.509-.85C205.091,28.458,202.6,32.839,204.107,33.9Z" transform="translate(112.894 -12.145)" fill="#96a1a1"/>
      <path id="Trazado_620261" data-name="Trazado 620261" d="M203.164,27.564c-4.349.775-4.5,4.495-.5,4.947,3.035.355,4.008-.275,3.849-2.5-.193-3.024-1.1.477-2.3-1.528-.287-.482.639-.5.318-.9C204.234,27.2,203.62,27.553,203.164,27.564Z" transform="translate(109.856 -13.369)" fill="#96a1a1"/>
      <path id="Trazado_620262" data-name="Trazado 620262" d="M205.629,26.927c-.162-2.685-6.925-2.017-7.176,1.453-.02.271,1.592.88,2,1.151C200.543,29.592,205.706,28.215,205.629,26.927Z" transform="translate(108.813 -15.037)" fill="#96a1a1"/>
      <path id="Trazado_620263" data-name="Trazado 620263" d="M200.3,28.234c-.823,0-1.421-.58-2.278-.387C198.126,30.958,201.441,28.234,200.3,28.234Z" transform="translate(108.475 -13.05)" fill="#96a1a1"/>
      <path id="Trazado_620264" data-name="Trazado 620264" d="M174.929,43.91c-1.105-.127-4.8,4.122-3.385,5.275.525.425,2.412,4.468,6.946,2.335-.141-1.862-1.824-2.455-1.93-4.177-.141-2.131,3.767-1.955,4.82-3.256,2.49-3.047,2.371-6.139,6.019-7.226,1.069-.323,5.595-1.476,5.122-2.906-.7-2.1-3.313.257-4.245.6-2.262.894-11.669-.193-11.155,4.522.295,2.7-2.929,2.356-2.562,3.993.423-.109,1.387.935.37.839C174.754,43.889,175.122,43.932,174.929,43.91Z" transform="translate(87.436 -8.899)" fill="#96a1a1"/>
      <path id="Trazado_620265" data-name="Trazado 620265" d="M149.633,28.333c.405,1.26,3.472-.316,2.581.859-.38.5-1.1-.466-1.353.132-1.439,3.445,9.417,2.763,8.8-.614-.425-2.353-4.074.469-4.611-.775-.245-.564,1.076-.951.437-1.141-1.635-.486-.314,1.232-2.269,1.089-1.769-.13-3.661-1.369-3.59.45C149.638,28.478,149.563,28.162,149.633,28.333Z" transform="translate(70.459 -13.914)" fill="#96a1a1"/>
      <path id="Trazado_620266" data-name="Trazado 620266" d="M147.922,35.244c-.139,1.508,1.187,3.94,3.183,3.676,2.151-.287,1.869-4.888,3.156-6.469.309-.382,1.123-.175,1.6.519,1.048,1.532,1.4,3.129,3.051,3.656a2.236,2.236,0,0,0,2.613-1.226c.511-1.355-.211-.443-1.525-1.6a13.563,13.563,0,0,0-5.564-3.624c-.653-.246-1.121.02-1.278-.444s.377-.832.091-1.212c-1.169-1.553-2.531,1.364-3.069,1.248-.3-.066.02-.941-.759-1.3-.17-.08-1.221.023-1.491-.334-.7-.93-4.477-.662-2.053,2.292.364.443.232,2.051-.232,2.228-.744.286-.994-.841-1.564-.162s1.228,2.983,3.9,1.228c.4-.259.686-1.162,1.107-1.216.052-.011,2.783-.229,2.456.914C151.4,33.891,148.079,33.532,147.922,35.244Z" transform="translate(66.042 -13.176)" fill="#96a1a1"/>
      <path id="Trazado_620267" data-name="Trazado 620267" d="M316.481,79.927c3.122,0,3.649-1.637,5.805-1.076,1.192.28-.216,1.25,1,1.678,3.847,1.357,5.632-5.554,6.193-5.941,2.015-1.378.489.951,3.058,1.84,3.151,1.089,5.107-5.4,6.643-4.424,2.04,1.294-2.315,4.434-4.229,6.373-2.421,2.453-5.491,3.81-6.348,7.017a20.833,20.833,0,0,0-.193,7.792c.509,2.949,2.574,2.549,4.366,1.392,1.908-1.232.659-2.3,2.737-4.729,1.316-1.535-.2-1.708,1.542-3.056,1.267-.98,1.23-8.526,2.526-8.892.7-.171.452.682.912.561,1.428-.38.825-1.357,1.369-1.4a14.856,14.856,0,0,0,1.981.15c1.56-.214.334.989,1.509,1.464,4.288,1.737,6.032-4.663,7.915-5.655,3.083-1.623.7-4.1-.864-5.366-.894-.818,5.491-.243,4.806-3.822.928-.075,1.069,1.109,1.367,1.153a18.541,18.541,0,0,1,2.369.6c1.262.732.946,1.207,2.562,1.68,2.208.689,1.874-1.68,2.437-2.281.491-.55,3.718.664,2.61-2.419-.682-1.9-4.5-1.773-4.6-.812-.114,1.019.387,1.364-.637,1.153-.586-.121.195-1.926-.4-2.53-.316-.312-.912-.054-1.176-.334a66.248,66.248,0,0,0-5.771-4.015c-2.806-1.68-11.277-3.57-10.663-.7.75,3.513-2.312,2.271-1.6-.275.484-1.724-7.007-1.41-7.9.091-.279.469-.038,1.591-.555,1.8-3.058,1.228-1.876-5.825-5.98-5.523-1.526.12-3,.71-4.561.323a5.742,5.742,0,0,1-3.56-2.917c-1.2-2.053-3.074.809-5.089-1.317-.919-.969-2.1-.566-3.488-.6-2.631-.064-2.867-1.034-4.438.925-.819,1.021,2.344,1.816,1.246,2.671-.846.659-2.4-1.451-2.929-.571-.236.395.909.919.316,1.255-1.073.607-1.123-1.018-2.246-1.276.052,0-2.965-.043-3.122.021-1.632.528-.7,2.829-2.613,2.487a3.206,3.206,0,0,1-2.508-3.056c-.018-.7,1.007-3.185,0-3.833-2.694-1.733-3.2-.946-6.584,1.334-1.276.859-2.731,0-4.466-.871-.632-.323-1-1.355-1.79-1.6-1.507-.473-3.724,1.764-4.877.573-.28-.289-.644-1.121-.962-1.348-.509-.364.753-1.292-.473-1.68-1.387-.452.6-1.7.753-2.756.666-4.606-6.916-2.049-8.051-3.454-.357-.441,1.085-.814.562-1.292-.7-.641-2.226.544-2.738-.236-.214-.327,1.157-1.426,1.071-1.669-1.239-3.522-5.323,3.083-5.684,3.424-1.894,1.787-2.665,1.355-4.736,1.635-.753.086-2.121-1.028-3.244-.86a32.114,32.114,0,0,1-3.561,2.076,21.688,21.688,0,0,0-3.158.98c-.4.195-2.6,1.141-2.824,1.582-1.034,1.885,1.914.614.089,2.251-2,1.8-6.516-1.244-7.13,1.735-.339,1.642,3.515,4.12,1.482,4.313-.578.054-1.334-1.3-1.683-1.442-1.562-.677-3.959-1.951-4.175-.323-.089.684,3.592,3.717,1.86,4.059-1.55.307-2.755-.5-3.667-1.907-.316-.484.621-3.618-.316-3.831a.553.553,0,0,0-.509.15c-2.176,1.721-1.367,1.691-1.612,3.37,0,.011.384,4.693.473,4.865,1.332,2.669.964.259,2.594,1.034,2.019.98,3.9,4.631,3.738,4.822-2.1,2.43-1.707-5.588-5.232-2.067a12.572,12.572,0,0,1-.5,2.369c-.491.98-5.475,5.359-5.982,2.369-.182-1.076,2.492-.787,3.49-1.83.912-.991,2.7-2.642,1.544-3.726-1.073-1-3.2-7.457-1.807-8.794.193-.184.63-.559.818-.723,1.923-1.676-3.01-2.485-4.5-1.117-.193.193-3.708,3.153-1.175,9.3.3.723,1.612.7,1.367,1.84-.421,2-2.051-.737-2.123-.764-1.791-.705-3.228-1.421-4.981-2.142-.912-.377-4.209-2.476-4.736-2.369-2.3.43,3.544,5.893-.107,5.812-4.126-.089-1.921,1.167-5.893-1.755-1.9-1.4-4.086,1.432-6.016,3.015-.332.278-4.588,1.637-4.209.236.85-3.14-1.564-4.152-2.315-2.476-.511,1.142,1.351,5.823.561,6.416.195-.129-1.858-.71-2.437-.569a5.972,5.972,0,0,0-2.613,1.948c-.227.452,1.573,1.176.877,2.389-.768,1.339-2.562.216-2.562,1.207,0,.775-1.946.409-2.1.3-1.928-1.119-.964-.841-1.823-2.585-.721-1.517-4.777-3.579-3.422-5.295,2.174-2.751,11.962,5.554,10.666-.689-.316-1.5-3.281-2.885-4.42-3.4-1.79-.819-4.458-.227-5.245-.819C182.686,54.2,179,54.955,178.159,54c1.4,0,.686-.8-.034-1.259a7.632,7.632,0,0,0-3.868-1.333c-.405-.118-4.884,2.108-3.658.484-2.613-.323-2.38,2.585-3.983,3.076-1.019.312-1.251-1.624-2.119-1.462-4.532.85-7.706,5.345-6.982,6.264.877,1.112,2.926-1.464,2.708.186-.257,1.955-5.234,5.1-5.307,5.928-.118,1.35,1,1.06,1.214,1.3.985,1.121-2.447,1.433-2.962,2.2-.8,1.194-.382,1.016-.775,1.714-1.753,3.112-6.4,3.9-4.49,6.285,1.785,2.237.65,3.585,1.244,4.133,2.051,1.9,2.447-3.458,5.613-2.455,1.93.612,1.735,7.88,2.508,8.224,1.789.86,2.2-.957,3.02-.948,2.406.021,1.612-1.835,1.523-2.367-.139-.839,2-3.229,2.123-3.617.4-1.271,1.93-2.369-.37-2.369,0-2.023-1.419-3.917.3-6.35.86-1.248,2.456-1.314,3.245-2.6.527-.841.544-3.261,1.773-4.209.948-.721,3.12.507,3.279,1.883.368,2.972-7.455,4.629-3.858,9.752,2.524,3.6,9.4-2.356,9.909,1.314.366,2.651-4.017,1.162-5.982,1.464-.753.15-3.715.134-3.508,1.291.337,1.889,1.176.561,1.633.819.859.516,2.21.864,1.682,1.7-1.087,1.721-2-.559-3.245,0-1.507.668-1.341,5.625-3.3,6.955-2.53,1.719-3,.171-5.122.409-.719.064-2.21-1.3-4.015.278-.619.541-1.755-.439-1.56-1.016.568-1.683,1.246-3.435-.089-4.279.28-2.5-.246-2.949-1.824-.969-1.1,1.378-.3,2.863-.35,4.2-.125,3.444-5.161,3.561-5.753,4.693-1.387,2.647-.711,2.963-2.2,3.531-1.6.614-1.128,2.576-1.924,2.8-1.212.337-3.9-1.692-5.543,1.421-.857,1.619,2.1,3.056,2.735,4.65,3.543,8.676-5.05,3.315-8.542,5.123.666,2.778-1.342,4.945-.78,7.635.509,2.412.868,2.01,2.587,3.365,1.089.862.844,1.585,2.683,1.616a18.605,18.605,0,0,0,5.316-3.747c.578-.666.86.173,1.3-.58.262-.452-.332-.976-.382-1.408a5.084,5.084,0,0,1,.7-2.381c.578-.86,3.1-1.764,3.542-2.217.527-.537-.368-1.657.58-2.367.789-.6,2.228.753,3.1.559.334-.043,2.042-2.7,2.878-2.324,3.858,1.719.437,2.34,3.858,9.261,1.908,3.863,6.378-.571,6.6-.919,1.059-1.669-2.6-3.156-3.722-4.747a32.592,32.592,0,0,0-3.167-3.47c-3.37-3.349,4.4-3.986,5.254,1.489.278,1.78,3.033,2,3.77,3.661.455,1.032-.509,2.9,1.562,4.907,2.6,2.513,3.876.345,5.3.066-.229-.5-.527-.905-1-.905-1.4.777-2.28-1.917-2.051-2.519,8.785-2.285,4.832,5.875,7.182,6.669,2.03.684,2.969-1.473,6.551-.557,2.471.632,4.183,2.8,2.533,6.014-1.068,2.085-6.175,1.81-6.148,3.029a4.632,4.632,0,0,0,4.42,4.434c4.227.029,3.3,8.051,5.036,11.625,1.1,2.239,3.367,4,4.313,6.587,1.282,3.486.064,5.68,3.6,6.335,2.315.43,3.1-2.547,4.693-3.365,1.824-.9,2.719-1.851,4.175-2.669,1.876-1.055,3-.6,4.3-2.455.614-.818,4.222-1.326,4.768-4.143.416-2.148-2.165-3.926-4.575-4.575-.884-.237-2.7-2.74-3.917-1.68-1.91,1.667-3.469-1.787-3.642-1.915a10.45,10.45,0,0,1-2.351-3.745c-.475-3.531.912-2.369,2.612-.905,2.107,1.766,2.824,2.583,5.3,3.576.421.171,1.419-.175,2,0,.439.15.543,1.355,1.139,1.676,1.107.646,3.859.948,5.159,1.012,3,.13,3.84-.193,6.243,1.487,1.3.9,1.239,3.045,3.02,3.9,1.26.607,2.26-1.041,3.645,1.348.684,1.119.139,2.583.316,3.831a39.082,39.082,0,0,0,1.807,6.717c.491,1.55,1.385,6.632,2.613,7.514,1.3.884,2.6-.71,3.315-2.54a14.382,14.382,0,0,0,.614-4.026,8.757,8.757,0,0,1,1.755-4.177c2.333-2.756,6.186-11.182,11.786-9.858.864.2,1.623,5.311,2.315,6.027,1.514,1.564-.314,2.2,1.246,3.7,1.053,1.012,2.246-1.141,2.437-1.076,1.669.557.195,4.55.161,6.766a16.712,16.712,0,0,0,.771,5.15c.387,1.207,2.912,3.026,3.454,4.552.65,1.853,3.554,1.887,2.912-.516-.671-2.515-3.156-2.023-3.561-5.125-.087-.709.562-5.145,2.053-4.152,1.3.859,1.175.818,2.333,2.583.262.407,1.209.732,1.351.989.42.86-.787,2.3.491,2.928,2.192,1.073,3.138-2.713,4.122-4.37,1.824-3.056.684-5.618-.807-7.987-2.264-3.617-4.254-10.431.9-8.351,1.239.5-.478,3.933.527,4.732,3.622,2.881,5.375-5.1,6.428-5.509a8.561,8.561,0,0,0,3.349-2.217c1.807-1.658,5.139-5.295,5.561-8.288.314-2.2-.632-.841-.809-2.326-.1-.818.544-.644.316-2.11-.278-1.764-2.278-3.959-2.244-5.23.07-2.431,2.087-1.614,2.806-2.906.632-1.141.632-1.075-1.228-1.915-.825-.343-.223,1.433-1.683,1.184-3.292-3.122-.9-5.172,1.964-2.928.777.607,2.965-1.958,3.877-1.464,1.912,1.055-1.078,2.4.561,3.358,2.865,1.669.282,5.02,1.737,5.962,2.526,1.639,4.491-1.441,4.438-3.938-.036-2.239-2.351-2.5-1.876-5.618.975-5.837,5.646-5.6,6.489-5.9a4.63,4.63,0,0,0,2.3-1.678,33.084,33.084,0,0,0,4.192-6.05c1.123-2.046-.741-3.053.882-4.552,2.257-2.085-.669,6.723,2.014,7.458,5.8,1.591,3.331-16.229,1.4-16.059-.175.014-.382-.118-.493,0-1.532,1.646,1.3,3.247-.507,4.218-1.542.827-1.389-5.7-3.736-4.218-1.937,1.225-4.8-.659-2.194-2.671a14.321,14.321,0,0,0,3.088-3.874C311.079,80.141,313.1,79.927,316.481,79.927Z" transform="translate(55.404 -10.149)" fill="#8d9696"/>
      <path id="Trazado_620268" data-name="Trazado 620268" d="M134.5,76.675c1.128,1.451,2.053-.893,2.772-1.043,1.105-.216,2.665.43,3.56-.066a3.965,3.965,0,0,0,1.667-4.52c-.264-1.119-.655.743-.982.625-.634-.228-.353-1.421-.686-1.766-.562-.6-1.332-2.024-2.069-3.079-1.123-1.614-.684-2.106-.859-3.4-.105-.86-.4-3.087-1-3.64-2.342-2.144-1.871,1.184-2.544,1.464a3.233,3.233,0,0,0-1.576,4.2c.507.561,1.182-.437,1.935.207.612.521.468-.137,1.287,2.31.891,2.656-2.189,1.721-1.539,3.617.145.428.559-.077.885.307.537.63-1.325,1.028-.764,1.824.352.5,1.923-.366,1.912.546C136.5,74.612,133.7,75.635,134.5,76.675Z" transform="translate(57.051 11.497)" fill="#96a1a1"/>
      <path id="Trazado_620269" data-name="Trazado 620269" d="M135.34,65.919c1.8-2.233-1.919-4.938-2.735-.775-.268,1.366-2.733.862-2.708,3.094.045,3.788,4.39,3.174,4.87,1.717C135.381,68.095,134.421,67.061,135.34,65.919Z" transform="translate(54.987 14.558)" fill="#96a1a1"/>
      <path id="Trazado_620270" data-name="Trazado 620270" d="M173.69,134.433c1.583-2.3,2.522-10.759-1.123-10.4-1,.1-1.1,3.445-1.614,4.006-1.051,1.184-2.683.687-3.752,1.956-.825.991.1,4.07,0,4.888-.195,1.55-.737,1.744-1,3.681-.332,2.521.141,6.243,2.878,5.511,2.631-.709,1.789-1.7,2.246-4.584.034-.344.705-3.613.753-3.681C172.317,135.467,173.046,135.367,173.69,134.433Z" transform="translate(83.417 62.494)" fill="#96a1a1"/>
      <path id="Trazado_620271" data-name="Trazado 620271" d="M180.51,91.815c-3.588-1.323-7.765-5.848-10.225-3.035-2.763,3.163-5.97,1.807-6.227,1.464-.727-.969-4.438-1.119-5.122-2.26-1.282-2.11.345-1.594-.877-4.327-1.094-2.446-3.019-1.1-4.738-1.055-1.823.043-3.768-.948-6.1.3-1.58.818-2.649,1.96-4.738,1.894-2.524-.043-2.392-.155-4.5,1.462-.507.391-.841-.171-1.255.366-2.3,3-1.817,1.555-2.308,2.783-.789,1.958-.077,4.043-.8,5.291-.437.732-2.087,1.723-2.753,2.754-.719,1.057-1.58,2.844-2.367,4.265s-3.558,4.059-3.208,6.23c.237,1.471,1.541,2.294,1.646,2.637.491,1.594-.334,4.222-.437,5.836-.125,1.96-.264,3.638,1.507,5.877a85.689,85.689,0,0,0,5.737,6.673c.718.777,1.068,2.542,2.613,2.928,1.735.389,1.964-.516,3.613-.773,1.437-.216,2.524.559,3.508.516,2.069-.086,1.928-1.055,3.611-1.765a9.1,9.1,0,0,1,5.106,0c1.246.689.93,1.808,2.771,2.324,3.194.862,3.424.278,3.859,3.876.232,1.924-2.615,3.306-2.262,4.693,1.082,4.266,6.628,11.582,5.98,16.363-.632,4.82-3,5.014-.982,10.118a45,45,0,0,1,2.367,8.565c.719,3.618,3.017,6.071,3.859,9.345.718,2.8-.386,3.681.755,5.209,3.015,4.047,11-.732,13.346-3.831a23.131,23.131,0,0,0,2.983-4.738c.527-1.419-.175-3.444.123-4.306.262-.687,2.244-1.119,2.878-2.153,1.7-2.712-.86-3.874-.371-6.716.387-2.3,3.861-3.486,4.861-4.607,2.471-2.713,2.613-5.748,2-9.838-.352-2.3-2.087-5.727-1.369-8.524.946-3.767,4.877-7.407,7.228-9.947,1.735-1.873,4.059-3.817,4.613-6.587,1.1-5.536-7.148-5.207-9.586-8.479-1.4-1.915-6.794-11.507-7.6-13.981C186.442,102.872,183.852,93.047,180.51,91.815Z" transform="translate(51.352 29.651)" fill="#3d672f"/>
      <path id="Trazado_620272" data-name="Trazado 620272" d="M89.851,194.671c-1.671,8.542,4.947,14.94,5.42,15.306,2.387,1.807,6.273,2.974,6.928.709.532-1.83-2.56-1.216-3.156-2.96-.561-1.68,3.308-5.161,2.756-10.15-.168-1.514-3.16-1.915-2.16-4.909.316-.944,8.878-17.316,10.716-19.244,1.919-2.012,4.42-2.356,6.8-4.306,4.325-3.533,4.052-7.9,5.807-10.463A8.1,8.1,0,0,1,127.3,155.6c2.56-.905,3.261-.691,4.7-3.768,1.7-3.636,1-9.149,2.369-12.078,1-2.13,3.192-3.4,3.77-5.855.4-1.635-.719-4.154-2.385-5.768a8.068,8.068,0,0,0-4.79-2.626c-1.21-.3-5.436-2.456-6.314-2.669a10.828,10.828,0,0,1-4.384-1.939c-.505-.332-4.192-7.664-6.525-8.4-1.894-.561-3.992-4.081-6.087-5.534-.959-.666-4.509.011-6.082-.891-6.987-4-14.158,1.062-14.51,4.315-.193,1.807,1.351,3.7.352,6.2-.544,1.378-7.069,5.041-4.3,13.239.512,1.514,1.587,1.735,2.1,2.617a12.235,12.235,0,0,1,1.237,2.271c.684,2.067,1.316,5.511,2.4,7.06,1.491,2.11,3.281,2.713,5.139,4.5,3.14,3.037,1.981,9.5,1.473,14.229-.28,2.585-1.069,5.061-1.314,7.449-.282,2.842,0,5.812-.93,8.483-1.035,2.972-.966,4.715-1.614,8.051C91.64,184.292,89.855,194.652,89.851,194.671Z" transform="translate(17.721 47.244)" fill="#038a7b"/>
      <path id="Trazado_620273" data-name="Trazado 620273" d="M97.8,99.5c-.05-1.978-3.929-.989-5.754-1.291-1.159-.173-3.442-1.269-3.736.387-.25,1.4.96,1.894,1.987,2.3C93.051,101.978,97.862,101.926,97.8,99.5Z" transform="translate(22.312 41.818)" fill="#96a1a1"/>
      <path id="Trazado_620274" data-name="Trazado 620274" d="M92.657,99.516c1.059-1.807-3.881-4.37-6.109-5.229A7.224,7.224,0,0,0,81.327,95c-1.475,1.053-.123,2.819,1.451,2.879.926.036,2.267-.339,2.758-.123C88.114,98.891,91.14,102.1,92.657,99.516Z" transform="translate(16.354 38.979)" fill="#96a1a1"/>
      <path id="Trazado_620275" data-name="Trazado 620275" d="M123.327,52.464c-.619.646-1.982-.739-2.492,0a.781.781,0,0,0,.123.925c2.094,1.578.659,1.583,1.958,2.165.28.107,3.859,1.492,7.655-1.864,1.478-1.309,2.544.673,3.054-1.448.211-.841-1.089-.818-1.442-1.157-2.731-2.622-3.685-.42-5.771-.753-.314-.032-2.174-.355-1.84-.312-.894-.1-4.616.086-3.106,1.216C122.4,51.936,124.32,51.427,123.327,52.464Z" transform="translate(47.795 4.204)" fill="#96a1a1"/>
      <path id="Trazado_620276" data-name="Trazado 620276" d="M96.941,70.949c.414,2.821,3.6,2.18,4.445,2.481,1.282.473,1.533,2.526,2.842,1.851,3.4-1.757.611-7.767-2.656-5.5C101.518,69.821,96.543,68.257,96.941,70.949Z" transform="translate(29.094 19.512)" fill="#96a1a1"/>
      <path id="Trazado_620277" data-name="Trazado 620277" d="M137.24,68.362c2.362-.148,2.2-1.889,4.017-1.034,4.359,2.057,7.764-2.646,6.175-3.681-2.512-1.637-4.661-2.028-1.844-2.508,1.275-.216,2.76,2.114,3.829-.586.411-1.039-2.919-1.919-3.015-2.778-.064-.575,2.819.578,2.083-2.264-.352-1.335,3.663-.6,3.683-4.1.007-1.23-2.035-.943-.37-2.8,1.63-1.817.061-1.9,1.241-2.467,3.683-1.78-3.249-5.323-3.267-5.336-2.472-1.908,7.008-5.827,5.518-8.515-.5-.9-2.845.837-2.949-.173-.218-2.151,3.263-.353,4.947-1.84s-.091-2.41-1.192-2.217a35.237,35.237,0,0,0-5,1.141c-.951.321-4.713,4.27-5.42,2.756-1.309-2.8-2.214-1.437-3.369-2.594s2.008-.414,2.123-1.53c.327-3.17,2.785-.494,4.368-2.367a.578.578,0,0,0,0-.7c-1.683-1.748-3.454-.452-5.3-.839-2.772-.561.05-1.851-.737-3.236-1.6-2.821-14.431.184-18.926,2.128-1.1.475-1.785,1.939-4.293,2.165-1.819.164-3.926-1.35-5.9.685-.5.518-2.017,4.242-3.49,3.165a6.97,6.97,0,0,0-2.608-1.153c-5.4-.612-11.639,2.269-12.173,5.091-.216,1.135.5,1.035,1.5,1.035.719,0,1.05,2.4-.175,3.035a23.611,23.611,0,0,1-2.385.409c-1.282.411-4.329-.355-4.877,1.185-1.192,3.349,3.586,1.758,5.043,3.6s-3.552.6-4.341,1.657c-1,1.348,1.134,4.536,4.459,4.047,2.672,0,7.485-1.776,9.152-.462,2.4,1.894,10.115,7.835,7.376,11.991-.869,1.319-1.978.853-1.746,2.476.241,1.694,3.752,1.883,1.542,1.464,3.14-.462-.95,7.251.659,9.122a11.493,11.493,0,0,1,1.6,1.8c.141.409,1.175,8.622,3.3,10.581.948.882,3.768,3.315,6.619,2.028,4.156-1.878,3.626-9.95,5.695-12.437C129.973,72.9,133.62,68.588,137.24,68.362Z" transform="translate(23.076 -19.541)" fill="#f7ac3e"/>
      <path id="Trazado_620278" data-name="Trazado 620278" d="M80.008,42.421c.871,2.7,7.972,2.729,9.463,2.289,3.8-1.119,6.482-5.18,6.435-7.626-.039-2.121-2.829-.3-3.981-.55-.25-.052-.318-.505-.246-.753.771-2.619,6.307,1.446,6.157-1.464-.025-.505,2.59.693,2.824-.914.123-.852,5.618-3.32,4.843-4.677-.877-1.076-1.107.436-1.739-1-.935-2.114,8.051-.064,8.49-2.754.28-1.83-10.623-4.256-11.857-3.37-2.083,1.5-13.994-1.558-14.531,1.275-.355,1.88-9.1.735-10.043,3.785-.493,1.6,1.6,2.39,3.315,3.026a15.48,15.48,0,0,0,7.64.139c2.385-.721,6.967-4.441,7.076-1.851.043,1.039-3.3.491-2.754,1.517.448.843-3.3.446-4.543,1.83a.727.727,0,0,0,0,.764c.712,1.189-2.364-1.633-3.342.643-.793,1.84,3.911,1.341,4.9,3.2.389.732-.405,1.712-1.071,1.744C81.587,37.932,78.792,38.656,80.008,42.421Z" transform="translate(12.474 -18.068)" fill="#96a1a1"/>
      <path id="Trazado_620279" data-name="Trazado 620279" d="M81.893,33.339c3.563-5.6-8.683-9.038-8.888-6.227-.218,2.956,4.167,1.369,3.385,3.569-.334.939-1.214.318-1.5,1.226C74.045,34.546,81.138,34.526,81.893,33.339Z" transform="translate(10.312 -14.382)" fill="#96a1a1"/>
      <path id="Trazado_620280" data-name="Trazado 620280" d="M76.19,32.172c-.305.245-.707.687-.562,1.076.412,1.112,2.464.827,2.806-.237C78.883,31.614,77.068,31.464,76.19,32.172Z" transform="translate(12.354 -9.948)" fill="#96a1a1"/>
      <path id="Trazado_620281" data-name="Trazado 620281" d="M78.107,39.917c1.792,1.335,12.8,1.321,10.77-2.576-1.21-2.347-4.961-.141-6.628-.195-3.49-.1-4.481-4.845-6.4-2.913C73.966,36.134,75.938,38.3,78.107,39.917Z" transform="translate(11.959 -8.367)" fill="#96a1a1"/>
      <path id="Trazado_620282" data-name="Trazado 620282" d="M72.72,36.892c.145.957,4.033,2.626,3.683-.075C76.122,34.608,72.514,35.542,72.72,36.892Z" transform="translate(10.088 -7.015)" fill="#96a1a1"/>
      <path id="Trazado_620283" data-name="Trazado 620283" d="M75.605,35.919c1.985-1-.366-3.3-1.839-3.02C70.732,33.491,74.345,36.554,75.605,35.919Z" transform="translate(9.987 -9.071)" fill="#96a1a1"/>
      <path id="Trazado_620284" data-name="Trazado 620284" d="M73.162,33.1c2.435.868,2.619.411,3.3-.528a.708.708,0,0,0,0-.764C75.551,30.7,71.584,32.533,73.162,33.1Z" transform="translate(10.154 -10.184)" fill="#96a1a1"/>
      <path id="Trazado_620285" data-name="Trazado 620285" d="M73.9,32.557c2.33-1.789-1.571-3.185-2.319-2.451C70.45,31.218,72.287,33.19,73.9,32.557Z" transform="translate(8.926 -11.402)" fill="#96a1a1"/>
      <path id="Trazado_620286" data-name="Trazado 620286" d="M72.088,28.851c.512-1.039-1.185-2.34-1.93-1.389a.877.877,0,0,0,0,.914C70.653,29.208,71.73,29.578,72.088,28.851Z" transform="translate(7.983 -13.58)" fill="#96a1a1"/>
      <path id="Trazado_620287" data-name="Trazado 620287" d="M71.993,31.919c1.519-3.62-5.452-4.7-5.5-2.085-.018,1.028,1.119,1.687.948,2C66.582,33.416,71.477,33.145,71.993,31.919Z" transform="translate(5.208 -12.594)" fill="#96a1a1"/>
      <path id="Trazado_620288" data-name="Trazado 620288" d="M70.326,32.331c.08-.894-1.525-1.539-2-.612C67.708,32.926,70.232,33.411,70.326,32.331Z" transform="translate(6.569 -10.334)" fill="#96a1a1"/>
      <path id="Trazado_620289" data-name="Trazado 620289" d="M70.636,37.714c1.473-.186.968.469,2.315,1.6,1.292,1.089,2.912-.8,2.719-2.981-.228-2.4-6.935-4.724-8.262-2.617C66.182,35.668,68.876,37.937,70.636,37.714Z" transform="translate(5.681 -9.054)" fill="#96a1a1"/>
      <path id="Trazado_620290" data-name="Trazado 620290" d="M67.065,36.078c-.255,1.417,2,2.058,2,.271C69.066,35.339,67.1,35.9,67.065,36.078Z" transform="translate(5.639 -6.804)" fill="#96a1a1"/>
      <path id="Trazado_620291" data-name="Trazado 620291" d="M68.013,33.52c.673-.777-.791-2.376-1.548-1.867C65.221,32.487,67.22,34.436,68.013,33.52Z" transform="translate(4.871 -10.107)" fill="#96a1a1"/>
      <path id="Trazado_620292" data-name="Trazado 620292" d="M85.727,49.167c.714.644,3.369-.064,2.492-1.8C87.446,45.83,83.949,47.562,85.727,49.167Z" transform="translate(19.916 1.839)" fill="#96a1a1"/>
      <path id="Trazado_620293" data-name="Trazado 620293" d="M75.038,43.37c.86-.157-.045-1.057.946-1.753,1.56-1.1,3.629-.095,3.369-2.671-.146-1.435-3.981-1.678-5.122-.678C73.213,39.173,72.171,43.895,75.038,43.37Z" transform="translate(10.453 -5.313)" fill="#96a1a1"/>
      <path id="Trazado_620294" data-name="Trazado 620294" d="M71.208,45.5c2.767.814,4.316-1.962,2.417-4.557-1.359-1.857.377-2.228-.737-2.874a2.013,2.013,0,0,0-2.876.807C67.369,43.129,69.9,45.114,71.208,45.5Z" transform="translate(7.059 -5.244)" fill="#96a1a1"/>
      <path id="Trazado_620295" data-name="Trazado 620295" d="M68.568,39.743c1.319-1.685-2.671-2.937-2.683-1.366C65.873,39.895,67.852,40.659,68.568,39.743Z" transform="translate(4.728 -5.316)" fill="#96a1a1"/>
      <path id="Trazado_620296" data-name="Trazado 620296" d="M62.876,34.295c.832-.039,1.469.193,1.86-1.635.13-.6,1.378-.211.994-.935-.705-1.328-3.688-.894-4.2.632A1.534,1.534,0,0,0,62.876,34.295Z" transform="translate(1.259 -10.596)" fill="#96a1a1"/>
      <path id="Trazado_620297" data-name="Trazado 620297" d="M61.82,32.583c.687-.8-1.026-2.449-1.683-1.389C59.462,32.284,61.217,33.285,61.82,32.583Z" transform="translate(0.096 -10.661)" fill="#96a1a1"/>
      <path id="Trazado_620298" data-name="Trazado 620298" d="M61.516,34.485c-1.874-.059-3.544,2.872-2.3,4.1,1.107,1.1,5.157-.032,6.543.118-.473.678-3.385.021-3.192,1.259.264,1.433,8.89,1.84,9.981-3.486A2.975,2.975,0,0,0,69.612,33.3c-1.469.057-1.317,1.7-3.365,2.494C64.806,36.349,62.521,34.515,61.516,34.485Z" transform="translate(-0.845 -8.741)" fill="#96a1a1"/>
      <path id="Trazado_620299" data-name="Trazado 620299" d="M60.53,33.277c-.17.436.916,1.614,1.508.766a.638.638,0,0,0-.07-.766C61.558,32.99,60.721,32.788,60.53,33.277Z" transform="translate(0.51 -8.988)" fill="#96a1a1"/>
      <path id="Trazado_620300" data-name="Trazado 620300" d="M58.024,35.214c-.293.216-.8.584-.632.914.632,1.253,2.944.021,1.824-1.3C58.938,34.5,58.367,34.959,58.024,35.214Z" transform="translate(-1.965 -7.629)" fill="#96a1a1"/>
      <path id="Trazado_620301" data-name="Trazado 620301" d="M63.564,32.887c-2.178-3.372-7.271.207-8.419,3.585-.739,2.178,3.494-.827,5.595-.316C62.049,36.473,64.352,34.1,63.564,32.887Z" transform="translate(-3.771 -10.125)" fill="#96a1a1"/>
      <path id="Trazado_620302" data-name="Trazado 620302" d="M65.647,51.937c2.087.7,3.683-1.109,5.543-1.539,1.121-.248,8.64.653,7.928-2.292-.721-2.972-3.245-1.928-4.4-4.618-.437-1.044-2.385-6.114-3.963-3.7-.719,1.13,1.93,3.767-.054,3.585-1-.109-.591-3.788-2.806-3.52-.509.061-.819,2.967-1.367,2.292-.3-.362.612-1.075.421-1.517-.623-1.432-5.088-1.2-6.227-.593-2.053,1.119-3.758,1.582-3.053,3.638.5,1.469,1.273,1.014,1.367,2.078.154,1.692,5.877-.473,6.614,1.066.262.571-4.388.323-4.607,1.314C60.911,48.7,63.542,51.248,65.647,51.937Z" transform="translate(-1.853 -4.15)" fill="#96a1a1"/>
      <path id="Trazado_620303" data-name="Trazado 620303" d="M61.835,41.508c3.1-1.96,4.495-2.353.514-3.354-1.018-.259-6.157-1.744-7.226-.646-.6.614-2.988,4.87-2.089,6.921.6,1.357,1.651,3.022,3.369,2.756C59.4,46.721,59.923,42.713,61.835,41.508Z" transform="translate(-5.519 -5.747)" fill="#96a1a1"/>
      <path id="Trazado_620304" data-name="Trazado 620304" d="M51.587,72.314c1.771.646,3.454.173,5.173.862,3.035,1.2,8.683,6.8,9.156,7.4.159.216,1.475.948,1.632,1.292,1.053,1.937,4.772,6.782,3.49,9.817-1.037,2.458,3.7,2.97,4.649,5.725.966,2.842-.28,5.6-.28,7.967-.036,4.413,1.789,10.57,4.245,13.863,1.421,1.915,3.613,2,4.911,4.477,1.051,1.96,2.526,7.449,3.279,8.8.457.818,2.176,5.58,2.642,6.459,9.324,17.6,36.742,25.181,37.929,23.423,1.721-2.551-1.246-2.585-2.526-3.618-3.087-2.538.211-5.38-1.367-8.2-1.351-2.39-5.625-.17-6.028-2.069-.518-2.438,2.854-5.836.241-6.735-2.738-.943-1.649,2.065-3.422,3.786-1.632,1.594-4.261.559-5.543-.8-2.806-3.035-2.7-11.387-1.018-14.445,2.315-4.175,7.008-4.709,11.523-3.645,3.588.844,4.793,7.9,7.328,7.251,3.069-.793-.959-8.083.951-10.775,1.228-1.744,3.808-2.173,4.543-4.241.632-1.764-.091-5.2,2.046-7.653.769-.882,4.375-1.348,4.936-2.658,1.9-4.441,14.72-4.456,12.348-9.643-.875-1.914-2.085,2.315-4.277.894-2.912-1.937-.318-3.176-.985-4.468-1.84-3.488,10.07-3.933,10.227-8.331.239-6.764-7.664-4.454-7.087-7.082.37-1.682-1.257-7.68-3.174-7.965-1.812-.271-1.1,3.938-2.878,4.434-1.719.452-5.577-8.008-8.822-9.02-3.683-1.184-4.1,5.812-4.4,5.812-.814,6.137.014,6.523-1.807,10.182-.846,1.7,1.441,4.752-1.085,5.032-2.456.214-.809-3.69-2.09-5.484-1.717-2.408-4.559-1.1-7.016-2.649-1.087-.666-2.374-1.148-3.333-1.635-.864-.439-1.069.516-1.807-.043-.561-.409-3.986-4.172-.789-10.722.564-1.155,1.915-1.391,2.508-2.712,1.541-3.433,4.568.921,7.63.086a9.861,9.861,0,0,1,1.93-1.012c.562-.107.971,1.06,1.632.625,3.354-2.21-3.481-3.915-2.585-5.338.882-1.4,3.742-2.576,1.76-6.384,3.351-.7-1.471-2.226-1.253-3.613.336-2.126,8.046-1.962,10.55,2.6.552,1.007,2.4,1.937,2.455,3.486.071,2.089-.68.994-1.812,3.786-.478,1.176-5.327.036-5.134,2.619.193,2.519,3.3-.237,4.088-.129,2.508.387,2.7,2.519,4.3,4.133,1.578,1.551,3.984,3.649,5.964,2.583a5.251,5.251,0,0,0,2.3-4.068c-.548-2.315-3.3-3.4-4.79-5.812,1.141-2.044,1.58-.625,2.912.237,2.14,1.387,5.841-.959,4.877-2.455-.964-1.517-7.064-5.92-7.175-6.437-.114-.541.866-1.939.739-2.569-.712-3.556-7.665-5.1-9.858-5.948-1.683-.646-3.683,2.883-6,1.6-1.148-.636.28-1.442-.439-2.712-1.228-2.185-4.547.955-6.032-1.276-1.307-1.962-4.327-.857-4.87,2.392-.891,5.336,6.368,5.73,6.446,7.366.05,1.044-1.385,7.976-3.806,6.437-1.087-.689.023-2.779,0-2.831-1.275-2.815-4.42-2.046-5.139-3.369-1-1.808-1.262-6.8-4.315-4.188-2.876,2.455-2.806,7.992-9.436,8.815-1.66.207-2.015-.361-3.092,1.051-4.4,5.764-9.867,2.381-10.572-.555-.071-.3.287-.4.459-1.319.377-2.026-12.055-5.58-15.492-5.452-.991.037-6.218,3.135-8.322,3.674-3.542.9-16.964-7.626-30.615-3.867-2.376.653-2.471,2.576-4.088,3.788-2.292,1.719-2.483,12.185-2.49,17.2C26.324,72.551,30,74.608,31,75.674,32.118,76.882,30,77.23,34.4,81.538c3.843,3.768,12.4-6.03,13.028-7.433A3.116,3.116,0,0,1,51.587,72.314Z" transform="translate(-26.329 -4.862)" fill="#aeb7b7"/>
    </g>
    <g id="Grupo_877838" data-name="Grupo 877838" transform="translate(274.42 -0.92)">
      <path id="Trazado_620305" data-name="Trazado 620305" d="M267.121,116.249a56.5,56.5,0,0,1,55.406-56.485V45.042A71.224,71.224,0,0,0,252.4,116.249c0,.107.008.211.008.316h14.722C267.129,116.46,267.121,116.356,267.121,116.249Z" transform="translate(-252.399 -45.015)" fill="#61cbb2"/>
      <path id="Trazado_620306" data-name="Trazado 620306" d="M322.525,168.815V154.093a56.5,56.5,0,0,1-55.4-56.169H252.4A71.218,71.218,0,0,0,322.525,168.815Z" transform="translate(-252.397 -26.373)" fill="#fad23d"/>
      <path id="Trazado_620307" data-name="Trazado 620307" d="M305.357,59.743a56.514,56.514,0,0,1,56.514,56.514c0,.107-.008.211-.008.316h14.722c0-.105.008-.21.008-.316a71.235,71.235,0,0,0-71.236-71.234c-.372,0-.737.022-1.108.027V59.771C304.618,59.764,304.985,59.743,305.357,59.743Z" transform="translate(-234.121 -45.022)" fill="#40a18a"/>
      <path id="Trazado_620308" data-name="Trazado 620308" d="M305.357,154.121c-.372,0-.738-.022-1.108-.028v14.722c.371.005.736.028,1.108.028a71.231,71.231,0,0,0,71.228-70.919H361.862A56.51,56.51,0,0,1,305.357,154.121Z" transform="translate(-234.121 -26.373)" fill="#f49305"/>
      <path id="Trazado_620309" data-name="Trazado 620309" d="M316.607,132.745A34.559,34.559,0,0,1,282.52,98.186l-.007-1.346H270.4l0,1.358a47.12,47.12,0,0,0,46.155,46.663l1.374.022V132.771Z" transform="translate(-246.053 -26.755)" fill="#6b7777"/>
      <path id="Trazado_620310" data-name="Trazado 620310" d="M364.175,109.759l0-1h-.028a46.928,46.928,0,0,0-46.217-45.723v-.02l-.482.008c-.054,0-.107,0-.162,0-.15,0-.3,0-.448.009l-1.614.026v.037A47.08,47.08,0,0,0,270.4,109.912l0,1.555H282.52l0-1.555a34.941,34.941,0,0,1,34.091-34.756l.8-.015a34.819,34.819,0,0,1,34.653,34.719v.248a34.849,34.849,0,0,1-34.769,34.577l-2.061-.043v12.12l1.6.03c.153.005.306.009.46.009a46.981,46.981,0,0,0,46.885-46.681v-.074l0-.134C364.178,109.861,364.175,109.811,364.175,109.759Z" transform="translate(-246.053 -38.678)" fill="#b1de19"/>
      <g id="Grupo_877837" data-name="Grupo 877837" transform="translate(59.904 50.158)">
        <path id="Trazado_620311" data-name="Trazado 620311" d="M306.206,90.683a4.288,4.288,0,1,0-4.287-4.289A4.289,4.289,0,0,0,306.206,90.683Z" transform="translate(-294.847 -82.107)" fill="#fff"/>
        <path id="Trazado_620312" data-name="Trazado 620312" d="M319.01,98.869l-5.766-8.835a2.083,2.083,0,0,0-.441-.475l-.022-.019a2.081,2.081,0,0,0-.244-.165,1.885,1.885,0,0,0-.223-.122l-.038-.015a1.757,1.757,0,0,0-.7-.157H304.52a1.8,1.8,0,0,0-.944.283,2.083,2.083,0,0,0-.778.7L297.032,98.9a2.1,2.1,0,1,0,3.519,2.3l1.653-2.532v20.825a2.316,2.316,0,1,0,4.631,0V106.278h2.315v13.209a2.316,2.316,0,1,0,4.631,0V98.546l1.71,2.62a2.1,2.1,0,1,0,3.519-2.3Z" transform="translate(-296.69 -79.648)" fill="#fff"/>
      </g>
    </g>
  </g>
</svg>
