<svg xmlns="http://www.w3.org/2000/svg" width="715" height="260" viewBox="0 0 715 260">
  <g id="Grupo_1034298" data-name="Grupo 1034298" transform="translate(-181 -8430)">
    <path id="optimizacion-motores-busqueda-seo-concepto-telefono-inteligente" d="M0,0H715V260H0Z" transform="translate(181 8430)" fill="#b6e1fd"/>
    <path id="Trazado_624642" data-name="Trazado 624642" d="M49.188-22.109a8.239,8.239,0,0,0-3.114-6.855q-3.114-2.457-10.94-5.084a104.957,104.957,0,0,1-12.8-5.084Q6.17-47.074,6.17-60.957a19.57,19.57,0,0,1,4.028-12.2,26.05,26.05,0,0,1,11.4-8.227,44.353,44.353,0,0,1,16.567-2.942,38.8,38.8,0,0,1,16.082,3.2A25.462,25.462,0,0,1,65.3-72.011,23.8,23.8,0,0,1,69.24-58.5h-20q0-5.084-3.114-7.884a12.136,12.136,0,0,0-8.427-2.8q-5.37,0-8.484,2.371a7.273,7.273,0,0,0-3.114,6.027q0,3.2,3.428,5.8t12.054,5.37a73.843,73.843,0,0,1,14.168,5.97Q69.24-35.877,69.24-22.223q0,10.912-8.227,17.139T38.448,1.143a44.77,44.77,0,0,1-18.31-3.628A27.606,27.606,0,0,1,7.8-12.426,25.9,25.9,0,0,1,3.656-26.965H23.766q0,6.684,3.456,9.855t11.226,3.171A12.905,12.905,0,0,0,46.3-16.082,7.071,7.071,0,0,0,49.188-22.109Z" transform="translate(352.667 8590)" fill="#12263f"/>
    <path id="Trazado_624643" data-name="Trazado 624643" d="M10.09-4.535a1.69,1.69,0,0,0-.639-1.406A7.938,7.938,0,0,0,7.207-6.984,21.53,21.53,0,0,1,4.582-8.027Q1.266-9.656,1.266-12.5a4.014,4.014,0,0,1,.826-2.5A5.344,5.344,0,0,1,4.43-16.693a9.1,9.1,0,0,1,3.4-.6,7.958,7.958,0,0,1,3.3.656,5.223,5.223,0,0,1,2.268,1.869A4.881,4.881,0,0,1,14.2-12H10.1a2.063,2.063,0,0,0-.639-1.617,2.489,2.489,0,0,0-1.729-.574,2.807,2.807,0,0,0-1.74.486,1.492,1.492,0,0,0-.639,1.236,1.5,1.5,0,0,0,.7,1.189,8.867,8.867,0,0,0,2.473,1.1,15.147,15.147,0,0,1,2.906,1.225A4.884,4.884,0,0,1,14.2-4.559a4.166,4.166,0,0,1-1.687,3.516A7.506,7.506,0,0,1,7.887.234,9.184,9.184,0,0,1,4.131-.51,5.663,5.663,0,0,1,1.6-2.549,5.313,5.313,0,0,1,.75-5.531H4.875A2.617,2.617,0,0,0,5.584-3.51a3.351,3.351,0,0,0,2.3.65A2.647,2.647,0,0,0,9.5-3.3,1.45,1.45,0,0,0,10.09-4.535Zm16.8-2.707H20.426v4.078h7.641V0H16.313V-17.062H28.09v3.176H20.426v3.6h6.469ZM39.434-3.187H33.8L32.813,0H28.418l6.258-17.062h3.867L44.848,0H40.43ZM34.781-6.363h3.668l-1.84-5.918Zm17.648.328H50.2V0H46.09V-17.062H52.8a7.5,7.5,0,0,1,4.746,1.346,4.561,4.561,0,0,1,1.711,3.8,5.54,5.54,0,0,1-.721,2.95,5.115,5.115,0,0,1-2.256,1.9L59.848-.176V0H55.441ZM50.2-9.2h2.6a2.335,2.335,0,0,0,1.764-.617,2.384,2.384,0,0,0,.592-1.721,2.412,2.412,0,0,0-.6-1.733A2.313,2.313,0,0,0,52.8-13.9H50.2ZM75.551-5.777a6.231,6.231,0,0,1-.961,3.146A5.8,5.8,0,0,1,72.123-.516,8.4,8.4,0,0,1,68.5.234a6.7,6.7,0,0,1-5.3-2.191,9.048,9.048,0,0,1-1.934-6.187v-.844a10.328,10.328,0,0,1,.873-4.389,6.615,6.615,0,0,1,2.514-2.906,7.013,7.013,0,0,1,3.8-1.025,7.354,7.354,0,0,1,4.992,1.635,6.459,6.459,0,0,1,2.145,4.506h-4.1a3.056,3.056,0,0,0-.785-2.238,3.229,3.229,0,0,0-2.25-.68,2.457,2.457,0,0,0-2.25,1.148,7.381,7.381,0,0,0-.75,3.668v1.207a8.167,8.167,0,0,0,.686,3.9A2.509,2.509,0,0,0,68.5-2.988a3.159,3.159,0,0,0,2.168-.668,2.835,2.835,0,0,0,.8-2.121ZM91.758,0h-4.09V-7.125H81.609V0H77.5V-17.062h4.113v6.773h6.059v-6.773h4.09Z" transform="translate(340.667 8475)" fill="#12263f"/>
    <path id="Trazado_624644" data-name="Trazado 624644" d="M6.691-17.062,10.5-5.191l3.8-11.871h5.414V0H15.586V-3.984l.4-8.156L11.859,0H9.141L5-12.152l.4,8.168V0H1.289V-17.062ZM32.227-3.187H26.59L25.605,0H21.211l6.258-17.062h3.867L37.641,0H33.223ZM27.574-6.363h3.668L29.4-12.281Zm17.648.328H43V0H38.883V-17.062H45.6a7.5,7.5,0,0,1,4.746,1.346,4.561,4.561,0,0,1,1.711,3.8,5.54,5.54,0,0,1-.721,2.95,5.115,5.115,0,0,1-2.256,1.9L52.641-.176V0H48.234ZM43-9.2h2.6a2.335,2.335,0,0,0,1.764-.617,2.384,2.384,0,0,0,.592-1.721,2.412,2.412,0,0,0-.6-1.733A2.313,2.313,0,0,0,45.6-13.9H43ZM60.34-6.352,58.652-4.5V0H54.539V-17.062h4.113v7.523l1.43-2.168,3.68-5.355h5.086L63.082-9.516,68.848,0H63.973Zm20.133-.891H74v4.078h7.641V0H69.891V-17.062H81.668v3.176H74v3.6h6.469Zm16.477-6.645H91.828V0H87.715V-13.887H82.688v-3.176H96.949ZM103.066,0h-4.1V-17.062h4.1Zm17.109,0h-4.09l-6.047-10.617V0h-4.113V-17.062h4.113l6.035,10.617V-17.062h4.1Zm16.57-2.109a6.614,6.614,0,0,1-2.777,1.7,11.979,11.979,0,0,1-4.008.645,7.146,7.146,0,0,1-5.355-2.051,8.3,8.3,0,0,1-2.145-5.707L122.449-9a10.182,10.182,0,0,1,.891-4.4,6.614,6.614,0,0,1,2.549-2.895,7.21,7.21,0,0,1,3.838-1.014,7.559,7.559,0,0,1,4.951,1.459,6.182,6.182,0,0,1,2.057,4.354h-3.961a3.235,3.235,0,0,0-.914-2.039,2.949,2.949,0,0,0-1.992-.609,2.684,2.684,0,0,0-2.391,1.313,7.008,7.008,0,0,0-.855,3.75v1.031a6.86,6.86,0,0,0,.873,3.838,3.088,3.088,0,0,0,2.748,1.283,3.456,3.456,0,0,0,2.391-.715V-6.293h-2.859V-9.117h6.973Z" transform="translate(605.667 8480)" fill="#12263f"/>
    <path id="Trazado_624645" data-name="Trazado 624645" d="M11.871-7.242H5.4v4.078h7.641V0H1.289V-17.062H13.066v3.176H5.4v3.6h6.469ZM28.969,0h-4.09L18.832-10.617V0H14.719V-17.062h4.113L24.867-6.445V-17.062h4.1Zm16.57-2.109a6.614,6.614,0,0,1-2.777,1.7,11.979,11.979,0,0,1-4.008.645A7.146,7.146,0,0,1,33.4-1.816a8.3,8.3,0,0,1-2.145-5.707L31.242-9a10.182,10.182,0,0,1,.891-4.4,6.614,6.614,0,0,1,2.549-2.895,7.21,7.21,0,0,1,3.838-1.014,7.559,7.559,0,0,1,4.951,1.459A6.182,6.182,0,0,1,45.527-11.5H41.566a3.235,3.235,0,0,0-.914-2.039,2.949,2.949,0,0,0-1.992-.609,2.684,2.684,0,0,0-2.391,1.313,7.008,7.008,0,0,0-.855,3.75v1.031a6.86,6.86,0,0,0,.873,3.838A3.088,3.088,0,0,0,39.035-2.93a3.456,3.456,0,0,0,2.391-.715V-6.293H38.566V-9.117h6.973ZM52.313,0h-4.1V-17.062h4.1ZM69.422,0h-4.09L59.285-10.617V0H55.172V-17.062h4.113L65.32-6.445V-17.062h4.1ZM82.605-7.242H76.137v4.078h7.641V0H72.023V-17.062H83.8v3.176H76.137v3.6h6.469Z" transform="translate(479.667 8659)" fill="#12263f"/>
    <path id="Trazado_624646" data-name="Trazado 624646" d="M57.872-35.306H26.336v19.881H63.584V0H6.284V-83.18H63.7V-67.7H26.336v17.539H57.872Z" transform="translate(488.667 8621)" fill="#12263f"/>
    <path id="Trazado_624647" data-name="Trazado 624647" d="M32.621-83.18,51.188-25.308,69.7-83.18H96.091V0H75.981V-19.424l1.942-39.762L57.814,0H44.561L24.394-59.243l1.942,39.819V0H6.284V-83.18Z" transform="translate(621.667 8590)" fill="#12263f"/>
    <path id="Trazado_621054" data-name="Trazado 621054" d="M9410.333-2783.5V-2866h60.6" transform="translate(-9135.666 11332.5)" fill="none" stroke="#707070" stroke-width="2"/>
    <path id="Trazado_621055" data-name="Trazado 621055" d="M9583.3-2869.5h37.033" transform="translate(-9145.333 11336)" fill="none" stroke="#707070" stroke-width="2"/>
    <path id="Trazado_621046" data-name="Trazado 621046" d="M379.557,371.824a5.468,5.468,0,1,1-7.733,7.733l-17.6-17.6a46.048,46.048,0,0,0,7.733-7.733Z" transform="translate(-53.981 8253.019)" fill="#4dbbeb"/>
    <path id="Trazado_621047" data-name="Trazado 621047" d="M319.143,311.41l7.8,7.8a46.048,46.048,0,0,1-7.733,7.733l-7.8-7.8v0a34.871,34.871,0,0,0,7.731-7.731Z" transform="translate(-18.976 8288.024)" fill="#fff5cd"/>
    <path id="Trazado_621048" data-name="Trazado 621048" d="M79.271,44.635a34.448,34.448,0,0,1-6.6,20.309,34.87,34.87,0,0,1-7.731,7.731,34.625,34.625,0,1,1,14.326-28.04Z" transform="translate(227.49 8534.49)" fill="#4dbbeb"/>
    <path id="Trazado_621049" data-name="Trazado 621049" d="M77.344,50A27.344,27.344,0,1,1,50,77.344,27.375,27.375,0,0,1,77.344,50Z" transform="translate(194.781 8501.781)" fill="#bee7f4"/>
    <path id="Trazado_621050" data-name="Trazado 621050" d="M91.2,80.886,66.865,56.554a36.131,36.131,0,0,0,6.052-20.1A36.458,36.458,0,1,0,36.458,72.916a36.133,36.133,0,0,0,20.1-6.052l6.726,6.726,0,0,17.6,17.6A7.291,7.291,0,1,0,91.2,80.886ZM59.521,64.676a36.581,36.581,0,0,0,5.155-5.155l5.172,5.172a44.247,44.247,0,0,1-5.155,5.155ZM3.646,36.458A32.807,32.807,0,1,1,55.7,63.023h0A32.8,32.8,0,0,1,3.646,36.458ZM88.619,88.619a3.643,3.643,0,0,1-5.155,0L67.277,72.432a47.9,47.9,0,0,0,5.155-5.155L88.619,83.465a3.643,3.643,0,0,1,0,5.154Z" transform="translate(235.667 8542.667)"/>
    <path id="Trazado_621051" data-name="Trazado 621051" d="M98.333,69.167A29.167,29.167,0,1,0,69.167,98.333,29.2,29.2,0,0,0,98.333,69.167ZM69.167,94.687A25.521,25.521,0,1,1,94.687,69.167,25.55,25.55,0,0,1,69.167,94.687Z" transform="translate(202.959 8509.959)"/>
    <path id="Trazado_621052" data-name="Trazado 621052" d="M211.2,96.405a1.823,1.823,0,0,0,1.048-2.356A21.909,21.909,0,0,0,191.823,80a1.823,1.823,0,0,0,0,3.646,18.354,18.354,0,0,1,17.025,11.712,1.821,1.821,0,0,0,2.355,1.048Z" transform="translate(80.303 8477.25)"/>
    <path id="Trazado_621053" data-name="Trazado 621053" d="M301.823,190a1.823,1.823,0,1,0,1.823,1.823A1.824,1.824,0,0,0,301.823,190Z" transform="translate(-9.646 8387.303)"/>
    <path id="Trazado_621056" data-name="Trazado 621056" d="M9725.333-2807.4V-2696h179.3" transform="translate(-9155.365 11341)" fill="none" stroke="#707070" stroke-width="2"/>
    <path id="Trazado_621057" data-name="Trazado 621057" d="M0,40.733V0H147.5" transform="translate(790 8471.5) rotate(90)" fill="none" stroke="#707070" stroke-width="2"/>
    <path id="Trazado_621033" data-name="Trazado 621033" d="M23.125,86.875H17.292A7.292,7.292,0,0,1,10,79.583V17.292A7.292,7.292,0,0,1,17.292,10H92.4a7.292,7.292,0,0,1,7.292,7.292V79.583A7.292,7.292,0,0,1,92.4,86.875H23.125Z" transform="translate(734.823 8571.823)" fill="#fff"/>
    <path id="Trazado_621034" data-name="Trazado 621034" d="M92.4,10h-75.1A7.292,7.292,0,0,0,10,17.292v5.833H99.687V17.292A7.292,7.292,0,0,0,92.4,10Z" transform="translate(734.823 8571.823)" fill="#eb6f2d"/>
    <path id="Trazado_621035" data-name="Trazado 621035" d="M21,82h86.588" transform="translate(725.825 8512.948)" fill="#231f20"/>
    <path id="Trazado_624648" data-name="Trazado 624648" d="M0,0H12V20H0Z" transform="translate(753 8651.333)" fill="#a5dc69"/>
    <path id="Trazado_624649" data-name="Trazado 624649" d="M0,0H12V25H0Z" transform="translate(794 8646.333)" fill="#78d2fa"/>
    <path id="Trazado_624650" data-name="Trazado 624650" d="M0,0H11.667V40.208H0Z" transform="translate(773.625 8631.302)" fill="#f5c86e"/>
    <path id="Trazado_624651" data-name="Trazado 624651" d="M0,0H11.667V42.93H0Z" transform="translate(814.458 8628.58)" fill="#eb6f2d"/>
    <path id="Trazado_624652" data-name="Trazado 624652" d="M4.74,0A4.74,4.74,0,1,1,0,4.74,4.74,4.74,0,0,1,4.74,0Z" transform="translate(773.692 8606.604)" fill="#f5c86e"/>
    <path id="Trazado_624653" data-name="Trazado 624653" d="M4.74,0A4.74,4.74,0,1,1,0,4.74,4.74,4.74,0,0,1,4.74,0Z" transform="translate(794.966 8628.307)" fill="#78d2fa"/>
    <path id="Trazado_624654" data-name="Trazado 624654" d="M4.74,0A4.74,4.74,0,1,1,0,4.74,4.74,4.74,0,0,1,4.74,0Z" transform="translate(815.552 8606.604)" fill="#eb6f2d"/>
    <path id="Trazado_624655" data-name="Trazado 624655" d="M4.74,0A4.74,4.74,0,1,1,0,4.74,4.74,4.74,0,0,1,4.74,0Z" transform="translate(754.182 8626.563)" fill="#a5dc69"/>
    <path id="Trazado_621036" data-name="Trazado 621036" d="M86.968,80.3a6.372,6.372,0,0,0,6.365-6.365V9.115A9.125,9.125,0,0,0,84.218,0H9.115A9.125,9.125,0,0,0,0,9.115v64.82A6.372,6.372,0,0,0,6.365,80.3h2.02v9.388H1.823a1.823,1.823,0,1,0,0,3.646H91.51a1.823,1.823,0,0,0,0-3.646H84.948V80.3ZM9.115,3.646h75.1a5.475,5.475,0,0,1,5.469,5.469v4.01H3.829c-.062,0-.123,0-.183.009V9.115A5.475,5.475,0,0,1,9.115,3.646Zm2.917,86.041V73.281h8.021V89.687Zm20.417,0V53.125h8.021V89.687Zm20.417,0V68.541h8.021V89.687Zm20.417,0V70.045a1.823,1.823,0,0,0-3.646,0V89.687h-5.1V66.719A1.823,1.823,0,0,0,62.708,64.9H51.041a1.823,1.823,0,0,0-1.823,1.823V89.687h-5.1V51.3a1.823,1.823,0,0,0-1.823-1.823H30.625A1.823,1.823,0,0,0,28.8,51.3V89.687H23.7V71.458a1.823,1.823,0,0,0-1.823-1.823H10.208a1.823,1.823,0,0,0-1.823,1.823v5.2H6.365a2.722,2.722,0,0,1-2.719-2.719V16.761c.06.006.121.009.183.009H89.687V73.934a2.722,2.722,0,0,1-2.719,2.719h-2.02V48.581a1.823,1.823,0,0,0-1.823-1.823H71.458a1.823,1.823,0,0,0-1.823,1.823v9.206a1.823,1.823,0,1,0,3.646,0V50.4H81.3V89.687Z" transform="translate(743 8580)"/>
    <path id="Trazado_621037" data-name="Trazado 621037" d="M213.888,39.646h41.186a1.823,1.823,0,0,0,0-3.646H213.888a1.823,1.823,0,0,0,0,3.646Z" transform="translate(569.593 8550.563)"/>
    <path id="Trazado_621038" data-name="Trazado 621038" d="M95.823,39.646a1.824,1.824,0,1,0-1.289-.534A1.836,1.836,0,0,0,95.823,39.646Z" transform="translate(666.136 8550.563)"/>
    <path id="Trazado_621039" data-name="Trazado 621039" d="M55.823,39.646a1.824,1.824,0,1,0-1.289-.534A1.836,1.836,0,0,0,55.823,39.646Z" transform="translate(698.844 8550.563)"/>
    <path id="Trazado_621040" data-name="Trazado 621040" d="M135.823,39.646a1.824,1.824,0,1,0-1.289-.534A1.836,1.836,0,0,0,135.823,39.646Z" transform="translate(633.427 8550.563)"/>
    <path id="Trazado_621041" data-name="Trazado 621041" d="M383.823,342.64a1.824,1.824,0,1,0,1.289.534A1.83,1.83,0,0,0,383.823,342.64Z" transform="translate(430.635 8299.82)"/>
    <path id="Trazado_621042" data-name="Trazado 621042" d="M119.269,149.064a6.572,6.572,0,1,0-5.31-2.713L101.851,158.46a6.547,6.547,0,0,0-6.052-.147L83.155,145.669a6.563,6.563,0,1,0-11.325.282L61.066,156.715a6.568,6.568,0,1,0,2.578,2.578L74.537,148.4a6.548,6.548,0,0,0,6.04-.154l12.52,12.52a6.562,6.562,0,1,0,11.332.271L116.862,148.6A6.52,6.52,0,0,0,119.269,149.064Zm0-9.479a2.917,2.917,0,1,1-2.917,2.917A2.92,2.92,0,0,1,119.269,139.585ZM57.9,165.378a2.917,2.917,0,1,1,2.917-2.917A2.92,2.92,0,0,1,57.9,165.378Zm19.512-19.96a2.917,2.917,0,1,1,2.917-2.917A2.92,2.92,0,0,1,77.41,145.418Zm21.273,21.7a2.917,2.917,0,1,1,2.917-2.917A2.92,2.92,0,0,1,98.684,167.122Z" transform="translate(701.022 8468.842)"/>
    <path id="Trazado_621043" data-name="Trazado 621043" d="M133.083,129.666a1.82,1.82,0,1,0-1.291-.534A1.839,1.839,0,0,0,133.083,129.666Z" transform="translate(635.668 8476.952)"/>
    <path id="Trazado_621044" data-name="Trazado 621044" d="M47.823,129.667h8.75a1.823,1.823,0,1,0,0-3.646h-8.75a1.823,1.823,0,1,0,0,3.646Z" transform="translate(705.386 8476.951)"/>
    <path id="Trazado_621045" data-name="Trazado 621045" d="M56.573,177.667a1.823,1.823,0,1,0,0-3.646h-8.75a1.823,1.823,0,1,0,0,3.646Z" transform="translate(705.386 8437.701)"/>
    <g id="Grupo_878296" data-name="Grupo 878296" transform="translate(475 8444)">
      <path id="Trazado_621023" data-name="Trazado 621023" d="M94.9,77.375h9.844a6.152,6.152,0,0,0,6.152-6.152V44.152A6.152,6.152,0,0,0,104.746,38H16.152A6.152,6.152,0,0,0,10,44.152v27.07a6.152,6.152,0,0,0,6.152,6.152Z" transform="translate(-7.949 -35.949)" fill="#ffc66c"/>
      <path id="Trazado_621024" data-name="Trazado 621024" d="M378.094,359.028l17.04,17.04a4.9,4.9,0,0,0,6.934-6.933l-17.04-17.041Z" transform="translate(-300.555 -285.629)" fill="#ff5d5d"/>
      <path id="Trazado_621025" data-name="Trazado 621025" d="M239.223,188.609A24.609,24.609,0,1,1,214.613,164,24.61,24.61,0,0,1,239.223,188.609Z" transform="translate(-151.038 -136.109)" fill="#fff"/>
      <path id="Trazado_621026" data-name="Trazado 621026" d="M264,222a16,16,0,1,1-16-16A16,16,0,0,1,264,222Z" transform="translate(-184.425 -169.496)" fill="#72d8ff"/>
      <path id="Trazado_621027" data-name="Trazado 621027" d="M240.051,196A18.047,18.047,0,1,0,258.1,214.047,18.067,18.067,0,0,0,240.051,196Zm0,31.992A13.945,13.945,0,1,1,254,214.047,13.961,13.961,0,0,1,240.051,227.992Z" transform="translate(-176.476 -161.547)"/>
      <path id="Trazado_621028" data-name="Trazado 621028" d="M302.055,239a2.051,2.051,0,0,0,0,4.1,5.132,5.132,0,0,1,5.126,5.126,2.051,2.051,0,1,0,4.1,0A9.238,9.238,0,0,0,302.055,239Z" transform="translate(-238.48 -195.732)"/>
      <path id="Trazado_621029" data-name="Trazado 621029" d="M46.634,99.105a2.051,2.051,0,1,0-3.643,1.886l5.52,10.664a2.05,2.05,0,0,0,3.67-.055l3.342-6.958,3.63,7.014a2.053,2.053,0,0,0,1.822,1.108h.031a2.053,2.053,0,0,0,1.818-1.163l5.121-10.664a2.051,2.051,0,1,0-3.7-1.775l-3.342,6.958-3.631-7.014a2.05,2.05,0,0,0-3.67.055l-3.341,6.958Z" transform="translate(-33.992 -83.642)"/>
      <path id="Trazado_621030" data-name="Trazado 621030" d="M118.039,32.1a2.053,2.053,0,1,0-1.449-.6A2.066,2.066,0,0,0,118.039,32.1Z" transform="translate(-92.201 -28)"/>
      <path id="Trazado_621031" data-name="Trazado 621031" d="M105,63.273V36.2A8.213,8.213,0,0,0,96.8,28H34.451a2.051,2.051,0,0,0,0,4.1H96.8a4.106,4.106,0,0,1,4.1,4.1v27.07a4.106,4.106,0,0,1-4.1,4.1H86.953c-.059,0-.117,0-.175.009A26.8,26.8,0,0,0,72.363,55.33L75.4,49l3.631,7.013a2.049,2.049,0,0,0,1.821,1.108h.031A2.051,2.051,0,0,0,82.7,55.958l5.121-10.664a2.051,2.051,0,0,0-3.7-1.775l-3.341,6.958-3.631-7.014a2.051,2.051,0,0,0-3.67.055l-3.342,6.958-3.63-7.014a2.051,2.051,0,0,0-3.643,1.886l4.539,8.768a26.7,26.7,0,0,0-11.109.732l4.589-9.555a2.051,2.051,0,0,0-3.7-1.775l-3.342,6.958L50.22,43.463a2.051,2.051,0,0,0-3.67.055l-3.341,6.958-3.631-7.014a2.051,2.051,0,0,0-3.643,1.886l5.52,10.664a2.051,2.051,0,0,0,3.67-.055L48.468,49l3.63,7.013a2.009,2.009,0,0,0,.216.326A26.836,26.836,0,0,0,40.377,67.375H8.2a4.106,4.106,0,0,1-4.1-4.1V36.2a4.106,4.106,0,0,1,4.1-4.1H16.61a2.051,2.051,0,0,0,0-4.1H8.2A8.213,8.213,0,0,0,0,36.2v27.07a8.212,8.212,0,0,0,8.2,8.2H38.488a26.654,26.654,0,0,0,38.364,32.136l16.276,16.276a6.954,6.954,0,1,0,9.834-9.835l-6.395-6.395a2.051,2.051,0,0,0-2.9,2.9l6.4,6.4a2.852,2.852,0,0,1-4.033,4.034L80.292,101.251a26.636,26.636,0,0,0,8.37-29.775H96.8A8.212,8.212,0,0,0,105,63.273ZM63.575,103.059A22.559,22.559,0,1,1,86.134,80.5,22.585,22.585,0,0,1,63.575,103.059Z" transform="translate(0 -28)"/>
      <path id="Trazado_621032" data-name="Trazado 621032" d="M430.691,370.882a2.05,2.05,0,1,0,1.45-.6A2.065,2.065,0,0,0,430.691,370.882Z" transform="translate(-341.888 -300.087)"/>
    </g>
  </g>
</svg>
