<svg xmlns="http://www.w3.org/2000/svg" xmlns:xlink="http://www.w3.org/1999/xlink" width="228" height="89.256" viewBox="0 0 228 89.256">
  <defs>
    <filter id="Trazado_624644" x="0" y="30" width="228" height="59" filterUnits="userSpaceOnUse">
      <feOffset dy="3" input="SourceAlpha"/>
      <feGaussianBlur stdDeviation="3" result="blur"/>
      <feFlood flood-opacity="0.161"/>
      <feComposite operator="in" in2="blur"/>
      <feComposite in="SourceGraphic"/>
    </filter>
    <filter id="Trazado_502571" x="0" y="0" width="89.256" height="89.256" filterUnits="userSpaceOnUse">
      <feOffset dy="3" input="SourceAlpha"/>
      <feGaussianBlur stdDeviation="3" result="blur-2"/>
      <feFlood flood-opacity="0.161"/>
      <feComposite operator="in" in2="blur-2"/>
      <feComposite in="SourceGraphic"/>
    </filter>
  </defs>
  <g id="Grupo_1034298" data-name="Grupo 1034298" transform="translate(-840 -7940.872)">
    <g transform="matrix(1, 0, 0, 1, 840, 7940.87)" filter="url(#Trazado_624644)">
      <path id="Trazado_624644-2" data-name="Trazado 624644" d="M0,0H200a10,10,0,0,1,10,10V41H0Z" transform="translate(9 36)" fill="#fff"/>
    </g>
    <path id="Trazado_624645" data-name="Trazado 624645" d="M1.074,19V4.781H6.182a7.232,7.232,0,0,1,4.175,1.006,3.347,3.347,0,0,1,1.431,2.92,3.383,3.383,0,0,1-.508,1.885,2.959,2.959,0,0,1-1.494,1.152,3,3,0,0,1,1.709,1.094,3.18,3.18,0,0,1,.6,1.953,3.765,3.765,0,0,1-1.323,3.14A6.3,6.3,0,0,1,6.846,19ZM4.5,12.955v3.408H6.748a2.136,2.136,0,0,0,1.426-.425,1.487,1.487,0,0,0,.5-1.2A1.576,1.576,0,0,0,6.9,12.955Zm0-2.246H6.289a2.539,2.539,0,0,0,1.6-.411,1.46,1.46,0,0,0,.479-1.185,1.533,1.533,0,0,0-.518-1.3,2.77,2.77,0,0,0-1.67-.4H4.5Zm15.615,7.148A3.393,3.393,0,0,1,17.295,19.2a3.328,3.328,0,0,1-2.632-1.011,4.251,4.251,0,0,1-.894-2.905V8.434h3.291V15.3a1.183,1.183,0,0,0,1.318,1.357,1.72,1.72,0,0,0,1.611-.811V8.434H23.3V19H20.215Zm8.867-1.4H33.8V19H24.824V17.164l4.688-6.191H25.029V8.434h8.662v1.777Zm10.293,0h4.814V19H35.117V17.164L39.8,10.973H35.322V8.434h8.662v1.777Zm11.943-.43a.76.76,0,0,0-.439-.674,6.685,6.685,0,0,0-1.67-.527,7.615,7.615,0,0,1-2.031-.718,3.4,3.4,0,0,1-1.221-1.079,2.577,2.577,0,0,1-.42-1.455,2.92,2.92,0,0,1,1.2-2.4,4.948,4.948,0,0,1,3.145-.942,5.482,5.482,0,0,1,3.359.947,2.962,2.962,0,0,1,1.27,2.49h-3.3q0-1.27-1.338-1.27a1.326,1.326,0,0,0-.869.288.892.892,0,0,0-.352.718.819.819,0,0,0,.43.713,4.06,4.06,0,0,0,1.372.449,11.857,11.857,0,0,1,1.655.42,3.007,3.007,0,0,1,2.383,2.939,2.767,2.767,0,0,1-1.284,2.354,5.632,5.632,0,0,1-3.325.908,5.747,5.747,0,0,1-2.422-.488,4.05,4.05,0,0,1-1.66-1.328,3.007,3.007,0,0,1-.6-1.768h3.076a1.272,1.272,0,0,0,.488,1.069,2.009,2.009,0,0,0,1.2.337,1.58,1.58,0,0,0,1.011-.273A.875.875,0,0,0,51.221,16.031Zm11.006,1.826A3.393,3.393,0,0,1,59.4,19.2a3.328,3.328,0,0,1-2.632-1.011,4.251,4.251,0,0,1-.894-2.905V8.434H59.17V15.3a1.183,1.183,0,0,0,1.318,1.357,1.72,1.72,0,0,0,1.611-.811V8.434H65.41V19H62.324Zm8.1-9.424.107,1.24a3.633,3.633,0,0,1,3.018-1.436A2.675,2.675,0,0,1,76.152,9.83a3.517,3.517,0,0,1,3.105-1.592q3.213,0,3.3,3.887V19h-3.3V12.33a2.014,2.014,0,0,0-.273-1.182,1.164,1.164,0,0,0-1-.371,1.559,1.559,0,0,0-1.455.869l.01.137V19h-3.3V12.35a2.117,2.117,0,0,0-.264-1.2,1.161,1.161,0,0,0-1.006-.371,1.578,1.578,0,0,0-1.445.869V19H67.236V8.434Zm13.7,5.186a6.236,6.236,0,0,1,.615-2.817,4.4,4.4,0,0,1,1.768-1.9,5.323,5.323,0,0,1,2.705-.664,4.858,4.858,0,0,1,3.74,1.47,5.64,5.64,0,0,1,1.367,4v.117a5.472,5.472,0,0,1-1.372,3.921,4.871,4.871,0,0,1-3.716,1.45,4.927,4.927,0,0,1-3.623-1.353,5.29,5.29,0,0,1-1.475-3.667Zm3.291.205a3.932,3.932,0,0,0,.459,2.148,1.529,1.529,0,0,0,1.357.684q1.758,0,1.8-2.705v-.332q0-2.842-1.816-2.842-1.65,0-1.787,2.451Z" transform="translate(945 7983.771)" fill="#12263f"/>
    <path id="Trazado_194609" data-name="Trazado 194609" d="M0,0,85,40H0Z" transform="translate(849 7977.771)" fill="#ffb338"/>
    <path id="Trazado_203286" data-name="Trazado 203286" d="M0,20.438ZM4.438,16" transform="translate(862.875 7933.347)" fill="#ffc846"/>
    <g transform="matrix(1, 0, 0, 1, 840, 7940.87)" filter="url(#Trazado_502571)">
      <path id="Trazado_502571-2" data-name="Trazado 502571" d="M295.256,259.628A35.628,35.628,0,1,1,259.628,224,35.629,35.629,0,0,1,295.256,259.628Zm0,0" transform="translate(-215 -218)" fill="#cee4c6"/>
    </g>
    <g id="Grupo_877981" data-name="Grupo 877981" transform="translate(863.054 7954.947)">
      <path id="Trazado_620699" data-name="Trazado 620699" d="M56.892,0A21.582,21.582,0,0,0,36.156,27.538a1.282,1.282,0,1,0,2.463-.709,18.979,18.979,0,0,1-.694-3.974H48.089c.035,1.517.129,3.016.285,4.47a1.282,1.282,0,1,0,2.549-.273c-.146-1.364-.236-2.771-.27-4.2H63.131c-.034,1.426-.124,2.833-.27,4.2A1.282,1.282,0,0,0,64,28.463a1.335,1.335,0,0,0,.138.007,1.282,1.282,0,0,0,1.273-1.145c.155-1.454.25-2.952.285-4.47H75.859a18.957,18.957,0,0,1-.7,3.979,1.282,1.282,0,1,0,2.463.709A21.583,21.583,0,0,0,56.892,0Zm6.531,6.777a17.584,17.584,0,0,0-1.785-3.614,19.005,19.005,0,0,1,8.284,4.58,24.414,24.414,0,0,1-5.444,2.547,30.661,30.661,0,0,0-1.055-3.512Zm-2.4.893A28.2,28.2,0,0,1,62,10.954a24.5,24.5,0,0,1-10.219-.009,28.291,28.291,0,0,1,.98-3.275c1.188-3.2,2.731-5.106,4.128-5.106S59.832,4.472,61.02,7.67ZM50.361,6.777a30.61,30.61,0,0,0-1.052,3.5,24.413,24.413,0,0,1-5.43-2.55,19,19,0,0,1,8.267-4.564A17.584,17.584,0,0,0,50.361,6.777ZM48.791,12.8a51.035,51.035,0,0,0-.7,7.49H37.925A18.907,18.907,0,0,1,42.108,9.634,26.979,26.979,0,0,0,48.791,12.8Zm2.487.655a27.053,27.053,0,0,0,11.23.009,48.628,48.628,0,0,1,.624,6.825H50.652a48.59,48.59,0,0,1,.625-6.834ZM65,12.815a26.99,26.99,0,0,0,6.7-3.162,18.905,18.905,0,0,1,4.168,10.639H65.7A50.981,50.981,0,0,0,65,12.815Z" transform="translate(-35.318)"/>
      <g id="Grupo_877980" data-name="Grupo 877980" transform="translate(0.003 30.829)">
        <path id="Trazado_620700" data-name="Trazado 620700" d="M74.316,141.177H39.488a4.162,4.162,0,0,1-4.157-4.157V126.11a4.161,4.161,0,0,1,4.157-4.157H74.316a4.161,4.161,0,0,1,4.157,4.157V137.02A4.162,4.162,0,0,1,74.316,141.177ZM39.488,124.516a1.6,1.6,0,0,0-1.594,1.594V137.02a1.6,1.6,0,0,0,1.594,1.594H74.316a1.6,1.6,0,0,0,1.593-1.594V126.11a1.6,1.6,0,0,0-1.593-1.594Z" transform="translate(-35.331 -121.953)"/>
      </g>
    </g>
    <g id="Grupo_877982" data-name="Grupo 877982" transform="translate(868.699 7992.142)">
      <path id="Trazado_620701" data-name="Trazado 620701" d="M63.811,150.992c-.021-.09-.917-3.855-.917-3.855H61.36l-1.03,3.915-.913-3.915h-1.77l1.837,7.263h1.528s1.027-3.744,1.044-3.8l.923,3.8h1.529l2.052-7.263H64.81s-.985,3.8-1,3.855Z" transform="translate(-57.647 -147.137)"/>
      <path id="Trazado_620702" data-name="Trazado 620702" d="M109.219,150.993c-.022-.093-.917-3.856-.917-3.856h-1.535s-1,3.806-1.03,3.915c-.026-.113-.913-3.915-.913-3.915h-1.77l1.837,7.263h1.528s1.028-3.744,1.044-3.8l.923,3.8h1.528l2.052-7.263h-1.749s-.985,3.8-1,3.856Z" transform="translate(-91.575 -147.137)"/>
      <path id="Trazado_620703" data-name="Trazado 620703" d="M155.625,147.137s-.986,3.806-1,3.855c-.021-.09-.917-3.855-.917-3.855h-1.535l-1.03,3.92-.913-3.92h-1.77L150.3,154.4h1.527s1.028-3.744,1.044-3.8c.013.055.923,3.8.923,3.8h1.528l2.051-7.263Z" transform="translate(-125.504 -147.137)"/>
    </g>
  </g>
</svg>
