<svg xmlns="http://www.w3.org/2000/svg" width="620.001" height="486.089" viewBox="0 0 620.001 486.089">
  <g id="Grupo_879058" data-name="Grupo 879058" transform="translate(-773.557 -8.85)">
    <path id="Trazado_621833" data-name="Trazado 621833" d="M1165.894,1717.142c0,4.417-92.565,9.545-199.22,9.545s-193.117-3.58-193.117-8,86.461-8,193.117-8S1165.894,1712.725,1165.894,1717.142Z" transform="translate(0 -1231.748)" fill="#32323f" opacity="0.1"/>
    <g id="Grupo_879047" data-name="Grupo 879047" transform="translate(815.832 265.037)">
      <g id="Grupo_879046" data-name="Grupo 879046" transform="translate(0)">
        <path id="Trazado_621834" data-name="Trazado 621834" d="M1252.394,753.393H975.842a13.092,13.092,0,0,0-13.09,13.09V961.046a13.09,13.09,0,0,0,13.09,13.09h276.551a13.09,13.09,0,0,0,13.09-13.09V766.483A13.092,13.092,0,0,0,1252.394,753.393ZM1235.561,861.7a8.752,8.752,0,1,1,8.755-8.752A8.752,8.752,0,0,1,1235.561,861.7Z" transform="translate(-962.752 -753.393)" fill="#98d4e2"/>
        <g id="Grupo_879045" data-name="Grupo 879045" transform="translate(0 0.001)">
          <path id="Trazado_621835" data-name="Trazado 621835" d="M1265.485,766.49v13.3c-58.653-.352-256.667-1.584-302.733-1.774V766.49a13.09,13.09,0,0,1,13.09-13.091h276.553A13.091,13.091,0,0,1,1265.485,766.49Z" transform="translate(-962.752 -753.399)" fill="#0267a4"/>
          <circle id="Elipse_7008" data-name="Elipse 7008" cx="5.151" cy="5.151" r="5.151" transform="translate(10.744 8.408)" fill="#dedee0"/>
          <circle id="Elipse_7009" data-name="Elipse 7009" cx="5.151" cy="5.151" r="5.151" transform="translate(25.685 8.408)" fill="#dedee0"/>
          <circle id="Elipse_7010" data-name="Elipse 7010" cx="5.151" cy="5.151" r="5.151" transform="translate(39.945 8.408)" fill="#dedee0"/>
          <rect id="Rectángulo_327506" data-name="Rectángulo 327506" width="48.104" height="27.696" rx="13.848" transform="translate(17.049 40.075)" fill="#f2f2f4"/>
          <rect id="Rectángulo_327507" data-name="Rectángulo 327507" width="267.413" height="2.006" transform="translate(15.558 76.62)" fill="#c1c1c6"/>
          <rect id="Rectángulo_327508" data-name="Rectángulo 327508" width="187.442" height="21.864" rx="10.932" transform="translate(89.223 39.523)" fill="#e5e5e5"/>
          <path id="Rectángulo_327509" data-name="Rectángulo 327509" d="M20.707,0H79.949a20.707,20.707,0,0,1,20.707,20.707V38.222A20.706,20.706,0,0,1,79.949,58.929H20.707A20.707,20.707,0,0,1,0,38.222V20.707A20.707,20.707,0,0,1,20.707,0Z" transform="translate(15.84 87.002)" fill="#f4f4f4"/>
          <rect id="Rectángulo_327510" data-name="Rectángulo 327510" width="91.71" height="5.494" transform="translate(131.998 89.775) rotate(0.32)" fill="#3b3b4c" opacity="0.27"/>
          <rect id="Rectángulo_327511" data-name="Rectángulo 327511" width="91.71" height="5.494" transform="translate(130.374 107.833) rotate(0.32)" fill="#3b3b4c" opacity="0.27"/>
          <rect id="Rectángulo_327512" data-name="Rectángulo 327512" width="91.71" height="5.494" transform="translate(130.404 123.642) rotate(0.32)" fill="#3b3b4c" opacity="0.27"/>
          <rect id="Rectángulo_327513" data-name="Rectángulo 327513" width="91.71" height="5.494" transform="translate(129.603 140.069) rotate(0.32)" fill="#3b3b4c" opacity="0.27"/>
          <rect id="Rectángulo_327514" data-name="Rectángulo 327514" width="91.71" height="5.494" transform="translate(127.185 157.312) rotate(0.32)" fill="#3b3b4c" opacity="0.27"/>
          <rect id="Rectángulo_327515" data-name="Rectángulo 327515" width="91.71" height="5.494" transform="translate(17.445 195.153) rotate(0.32)" fill="#3b3b4c" opacity="0.27"/>
          <rect id="Rectángulo_327516" data-name="Rectángulo 327516" width="91.71" height="5.494" transform="translate(123.775 176.246) rotate(0.32)" fill="#3b3b4c" opacity="0.27"/>
          <rect id="Rectángulo_327517" data-name="Rectángulo 327517" width="48.75" height="5.494" transform="translate(122.715 196.751) rotate(0.32)" fill="#3b3b4c" opacity="0.27"/>
          <rect id="Rectángulo_327518" data-name="Rectángulo 327518" width="9.771" height="10.489" transform="translate(199.124 88.033) rotate(0.32)" fill="#fff"/>
          <rect id="Rectángulo_327519" data-name="Rectángulo 327519" width="91.71" height="5.494" transform="translate(19.314 157.469) rotate(0.32)" fill="#3b3b4c" opacity="0.27"/>
          <rect id="Rectángulo_327520" data-name="Rectángulo 327520" width="91.71" height="5.494" transform="translate(17.69 175.527) rotate(0.32)" fill="#3b3b4c" opacity="0.27"/>
          <g id="Grupo_879044" data-name="Grupo 879044" transform="translate(43.161 86.557)">
            <rect id="Rectángulo_327521" data-name="Rectángulo 327521" width="10.971" height="14.254" transform="translate(118.773 0) rotate(0.32)" fill="#98d4e2"/>
            <rect id="Rectángulo_327522" data-name="Rectángulo 327522" width="11.571" height="8.75" transform="translate(139.484 20.864) rotate(0.32)" fill="#98d4e2"/>
            <rect id="Rectángulo_327523" data-name="Rectángulo 327523" width="6.171" height="11.246" transform="translate(172.442 35.851) rotate(0.32)" fill="#98d4e2"/>
            <rect id="Rectángulo_327524" data-name="Rectángulo 327524" width="12.514" height="12.047" transform="matrix(1, 0.006, -0.006, 1, 114.853, 34.28)" fill="#98d4e2"/>
            <rect id="Rectángulo_327525" data-name="Rectángulo 327525" width="5.077" height="10.096" transform="translate(141.754 52.037) rotate(0.32)" fill="#98d4e2"/>
            <rect id="Rectángulo_327526" data-name="Rectángulo 327526" width="5.606" height="10.096" transform="matrix(1, 0.006, -0.006, 1, 169.266, 52.191)" fill="#98d4e2"/>
            <rect id="Rectángulo_327527" data-name="Rectángulo 327527" width="22.053" height="15.484" transform="translate(156.614 65.086) rotate(0.32)" fill="#98d4e2"/>
            <rect id="Rectángulo_327528" data-name="Rectángulo 327528" width="13.112" height="11.246" transform="matrix(1, 0.006, -0.006, 1, 178.613, 35.885)" fill="#98d4e2"/>
            <rect id="Rectángulo_327529" data-name="Rectángulo 327529" width="14.914" height="9.49" transform="matrix(1, 0.006, -0.006, 1, 139.109, 88.181)" fill="#98d4e2"/>
            <rect id="Rectángulo_327530" data-name="Rectángulo 327530" width="9.428" height="13.736" transform="translate(95.016 85.281) rotate(0.32)" fill="#98d4e2"/>
            <rect id="Rectángulo_327531" data-name="Rectángulo 327531" width="9.771" height="10.489" transform="translate(43.28 69.17) rotate(0.32)" fill="#98d4e2"/>
            <rect id="Rectángulo_327532" data-name="Rectángulo 327532" width="10.971" height="14.254" transform="translate(6.09 67.694) rotate(0.32)" fill="#98d4e2"/>
            <rect id="Rectángulo_327533" data-name="Rectángulo 327533" width="11.571" height="8.75" transform="translate(26.801 88.558) rotate(0.32)" fill="#98d4e2"/>
            <rect id="Rectángulo_327534" data-name="Rectángulo 327534" width="6.171" height="11.246" transform="translate(57.657 103.965) rotate(0.32)" fill="#98d4e2"/>
            <rect id="Rectángulo_327535" data-name="Rectángulo 327535" width="12.514" height="12.047" transform="translate(0.067 102.394) rotate(0.32)" fill="#98d4e2"/>
            <rect id="Rectángulo_327536" data-name="Rectángulo 327536" width="13.112" height="11.246" transform="matrix(1, 0.006, -0.006, 1, 63.407, 104.42)" fill="#98d4e2"/>
          </g>
        </g>
      </g>
    </g>
    <g id="Grupo_879048" data-name="Grupo 879048" transform="translate(930.327 226.4)">
      <path id="Trazado_621836" data-name="Trazado 621836" d="M1565.412,654.239c-10.259,3.773-30.673,3.625-24.625,14.045,10.548,18.175,35.217,35.646,33.07,52.106-1.477,11.324-21.417,20.57-31.713,14.213-13.49-8.33-21.888-54.876-32.368-50.389-8.451,3.619-16.823,25.629-20.84,16.283-5.875-13.672-19.333-121.647-11.291-120S1575.672,650.465,1565.412,654.239Z" transform="translate(-1475.15 -580.48)" fill="#f4f4f4"/>
      <path id="Trazado_621837" data-name="Trazado 621837" d="M1564.7,667.365c-8.8,3.235-27.089,7.039-21.9,15.973,9.043,15.582,38.878,39.533,33.761,52.812-1.925,4.994-18.581,11.434-23.833,9.809-12.984-4.018-26.392-56.788-35.376-52.941-7.246,3.1-14.423,21.972-17.866,13.96-5.037-11.721-18.708-107.5-11.813-106.086S1573.491,664.13,1564.7,667.365Z" transform="translate(-1483.389 -596.318)" fill="#3b3b4c"/>
    </g>
    <g id="Grupo_879049" data-name="Grupo 879049" transform="translate(950.468 248.354)">
      <path id="Trazado_621838" data-name="Trazado 621838" d="M1599.237,729.242c-1.013.307-2.774.468-3.312-1.245-4.7-14.929-13.779-33.193-30-42.222-1.055-.587-.645-1.765.08-2.74.617-.831,1.448-1.484,1.739-1.4,6.364,1.991,28.848,19.614,33.271,46.534A4.806,4.806,0,0,1,1599.237,729.242Z" transform="translate(-1565.287 -680.983)" fill="#0a202b"/>
      <path id="Trazado_621839" data-name="Trazado 621839" d="M1607.074,726.035c-4.758-17.3-17.427-36.614-33.813-46.3.617-.831.89-1.074,1.18-.985,6.364,1.991,27.539,20.182,33.843,46.148C1608.473,725.572,1607.771,725.824,1607.074,726.035Z" transform="translate(-1571.479 -678.732)" fill="#b7d8e5"/>
    </g>
    <g id="Grupo_879057" data-name="Grupo 879057" transform="translate(953.92 225.879)">
      <path id="Trazado_621840" data-name="Trazado 621840" d="M1645.413,606.272a32.623,32.623,0,0,1-32.261,37.066c-.355,0-.707,0-1.058-.015-.222-.007-.441-.016-.662-.027h0a32.63,32.63,0,0,1-5.225-.7,101.242,101.242,0,0,0-4.28-10c-.047-.1-.1-.2-.152-.307-.034-.072-.07-.144-.106-.215a73.353,73.353,0,0,0-11.175-16.573q-.985-1.079-2.028-2.107c-.051-.053-.1-.105-.16-.157a51.143,51.143,0,0,0-5.233-4.489c-.76-.567-1.536-1.111-2.335-1.633a32.36,32.36,0,0,1,.7-4.007q.121-.5.256-.993c.07-.255.143-.509.218-.763a32.715,32.715,0,0,1,13.675-18.087,32.1,32.1,0,0,1,3.615-2q1.213-.575,2.484-1.049a32.587,32.587,0,0,1,43.727,26.05Z" transform="translate(-1580.736 -578.149)" fill="#f4ad00"/>
      <path id="Trazado_621841" data-name="Trazado 621841" d="M1601.686,587.428c-.029,1.52-.1,3.125-.253,4.769-.117,1.307-.283,2.637-.513,3.97l-.32.177-.017.01-.3.169-.177.1c-.166.1-.327.2-.489.3-.087.055-.176.108-.262.165h0l-.18.12q-.285.183-.561.378c-.129.088-.257.179-.383.271l-.067.048c-.1.07-.194.143-.29.215-.022.016-.042.032-.064.05-.453.342-.891.7-1.315,1.071q-.208.182-.414.369c-.045.041-.091.082-.135.125-.084.078-.167.156-.25.236a.208.208,0,0,0-.02.018c-.083.08-.166.16-.249.242-.035.034-.072.071-.107.107a.8.8,0,0,0-.065.065c-.026.026-.055.052-.081.08l-.25.257q-.248.259-.488.525c-.1.107-.193.214-.286.322-.062.071-.125.142-.186.214l-.14.169c-.139.162-.274.328-.406.5-.039.048-.077.1-.114.143-.007.008-.012.014-.017.021l-.109.143c-.118.153-.235.308-.348.464-.057.078-.111.156-.166.234-.181.252-.359.51-.529.773-.031.044-.059.09-.09.136l-.193.3v0q-.287.453-.549.92c-.049.08-.094.163-.137.246s-.1.177-.145.268c-.022.038-.043.075-.062.114l-.161.31c0,.008-.007.015-.011.02s-.016.032-.022.046c-.046.089-.089.175-.131.262,0,0,0,0,0,0-.024.047-.047.1-.068.144q-.152.308-.29.62c-.031.07-.063.14-.1.211-.038.089-.076.176-.114.265-.022.053-.046.11-.067.165-.068.156-.13.314-.191.473a.223.223,0,0,0-.02.052c-.066.169-.131.338-.191.508-.012.031-.023.06-.033.092-.063.168-.12.338-.176.508a1.021,1.021,0,0,0-.033.1c-.046.138-.091.277-.132.416-.04.124-.078.248-.114.373-.031.107-.061.213-.092.322-.11.393-.209.791-.3,1.19-.033.148-.065.3-.093.444s-.066.318-.094.478c-.01.05-.02.1-.027.151-.016.09-.031.183-.047.273s-.028.175-.04.265h0c-.029.182-.056.365-.077.55q-.452.19-.922.362a22.34,22.34,0,0,1-2.647.789c-.548.128-1.113.24-1.7.333-.76-.567-1.536-1.111-2.335-1.633a32.362,32.362,0,0,1,.7-4.007q.121-.5.256-.993c.07-.255.143-.509.218-.763a32.715,32.715,0,0,1,13.675-18.087,32.085,32.085,0,0,1,3.615-2Q1600.415,587.9,1601.686,587.428Z" transform="translate(-1580.736 -585.355)" fill="#f4c83d" opacity="0.78"/>
      <path id="Trazado_621842" data-name="Trazado 621842" d="M1662.386,634.455a24.39,24.39,0,0,1-15.814,26.258c-.141.052-.285.1-.43.15a24.533,24.533,0,0,1-10.514,1.178c-.231-.024-.462-.05-.69-.084q-.781-.1-1.543-.261a24.166,24.166,0,0,1-5.9-2.015c-.034-.072-.07-.144-.106-.215a73.354,73.354,0,0,0-11.175-16.573q-.985-1.079-2.028-2.107-.077-.079-.16-.157a24.425,24.425,0,0,1-.081-4.911c.03-.355.068-.708.114-1.061.022-.185.048-.368.077-.55h0c.012-.089.026-.177.04-.265s.031-.183.047-.273c.008-.052.018-.1.027-.151.028-.16.06-.321.094-.478s.061-.3.093-.444c.086-.4.186-.8.3-1.19.029-.108.06-.215.092-.322.036-.125.074-.249.114-.373.041-.14.087-.278.132-.416a1.032,1.032,0,0,1,.033-.1c.055-.171.113-.34.176-.508.01-.033.021-.061.033-.092.06-.17.125-.339.191-.508a.217.217,0,0,1,.02-.052c.06-.159.123-.317.191-.473.022-.055.045-.112.068-.165.069-.161.138-.318.21-.475q.138-.311.29-.62c.063-.136.131-.273.2-.408.083-.164.168-.329.256-.49q.069-.136.145-.268t.137-.246q.261-.467.549-.92c.091-.149.187-.295.283-.44.17-.263.348-.521.529-.773.056-.078.109-.155.167-.234.113-.156.23-.311.348-.464.078-.1.16-.206.24-.307.131-.169.266-.335.406-.5.106-.129.217-.259.326-.383.094-.109.19-.215.286-.322q.24-.267.488-.525.165-.171.331-.337a.8.8,0,0,1,.065-.065c.117-.118.235-.234.356-.349a.22.22,0,0,1,.02-.018c.127-.123.255-.241.385-.36s.273-.248.414-.369c.423-.374.862-.729,1.315-1.071q.176-.135.354-.264l.067-.048c.128-.092.254-.182.383-.271q.276-.194.561-.378c.146-.1.295-.192.444-.285s.323-.2.489-.3.316-.184.475-.273l.017-.01c.322-.181.647-.352.979-.518s.676-.331,1.021-.485.7-.3,1.049-.437a24.579,24.579,0,0,1,11.894-1.482c.187.023.375.049.561.077.17.025.337.051.506.081.04.006.079.012.117.02.135.023.269.048.4.075s.277.055.413.083l.308.067a24.369,24.369,0,0,1,18.817,20.45Z" transform="translate(-1606.456 -605.536)" fill="#d39333" opacity="0.19"/>
      <path id="Trazado_621843" data-name="Trazado 621843" d="M1654.208,619.067a24.24,24.24,0,0,0-37.557,16.089c-.037.214-.069.427-.1.642q-.122.869-.175,1.755a24.245,24.245,0,0,0,.182,4.872q.03.227.066.452-.985-1.079-2.028-2.107a24.252,24.252,0,0,1-.14-4.98c.041-.546.1-1.091.181-1.629.033-.231.07-.46.11-.69a24.3,24.3,0,0,1,12.964-17.482q.5-.253,1.021-.485t1.049-.437a24.372,24.372,0,0,1,11.893-1.482c.187.023.375.049.561.077.17.025.337.051.506.081.04.006.079.012.117.02.135.023.269.048.4.075s.277.055.413.083l.308.067A24.281,24.281,0,0,1,1654.208,619.067Z" transform="translate(-1606.872 -605.52)" fill="#cc820a"/>
      <path id="Trazado_621844" data-name="Trazado 621844" d="M1711.386,656.534a24.252,24.252,0,0,1-28.217,27.2c-.254-.042-.506-.092-.756-.144q-.761-.16-1.505-.365a24.267,24.267,0,0,1-6.24-2.728c-.047-.1-.1-.2-.152-.307-.034-.072-.07-.144-.106-.215a24.016,24.016,0,0,0,5.956,2.125c.515.112,1.035.2,1.56.283.229.033.458.062.689.088a24.418,24.418,0,0,0,10.55-1.1c.145-.047.289-.1.43-.15a24.234,24.234,0,0,0,7.422-41.4c.239.163.473.329.7.5A24.148,24.148,0,0,1,1711.386,656.534Z" transform="translate(-1653.479 -626.041)" fill="#f4c83d"/>
      <g id="Grupo_879056" data-name="Grupo 879056" transform="translate(19.2 14.012)">
        <g id="Grupo_879052" data-name="Grupo 879052" transform="translate(1.428 1.097)">
          <g id="Grupo_879050" data-name="Grupo 879050" transform="translate(0 4.127)">
            <path id="Trazado_621845" data-name="Trazado 621845" d="M1697.894,682.092a8.437,8.437,0,0,1-.217,4.872,8.91,8.91,0,0,1-3.071,4.081,14.724,14.724,0,0,1-5.7,2.573,13.782,13.782,0,0,1-7.206.066,9.317,9.317,0,0,1-3.819-2.265,7.021,7.021,0,0,1-2.064-3.369,2.544,2.544,0,0,1,1.939-3.106,2.221,2.221,0,0,1,1.655.21,4.627,4.627,0,0,1,1.465,1.445,11.684,11.684,0,0,0,1.686,1.958,4.813,4.813,0,0,0,2.1,1.062,6.588,6.588,0,0,0,3.1-.125,6.863,6.863,0,0,0,3.812-2.151,3.626,3.626,0,0,0,.875-3.305,3.184,3.184,0,0,0-1.389-2.058,5.625,5.625,0,0,0-2.511-.8q-1.454-.136-3.828-.114a27.053,27.053,0,0,1-5.44-.445,8.411,8.411,0,0,1-3.841-1.8,6.877,6.877,0,0,1-2.162-3.77,7.145,7.145,0,0,1,.28-4.4,8.186,8.186,0,0,1,2.986-3.63,15.367,15.367,0,0,1,5.381-2.3,14.286,14.286,0,0,1,4.608-.424,9.668,9.668,0,0,1,3.526.953,7.286,7.286,0,0,1,2.345,1.79,5.273,5.273,0,0,1,1.116,2.134,2.754,2.754,0,0,1-.281,1.992,2.345,2.345,0,0,1-1.591,1.238,2.112,2.112,0,0,1-1.6-.134,6.726,6.726,0,0,1-1.477-1.331,7.492,7.492,0,0,0-2.421-2.035,5.514,5.514,0,0,0-3.648-.066,6.107,6.107,0,0,0-3.308,1.81,2.885,2.885,0,0,0-.791,2.638,2.4,2.4,0,0,0,.8,1.34,3.954,3.954,0,0,0,1.51.749,8.637,8.637,0,0,0,1.787.3c.585.034,1.548.061,2.882.079a43.742,43.742,0,0,1,4.575.2,13.475,13.475,0,0,1,3.652.843,6.845,6.845,0,0,1,2.675,1.911A8,8,0,0,1,1697.894,682.092Z" transform="translate(-1673.055 -664.238)" fill="#cc820a"/>
          </g>
          <g id="Grupo_879051" data-name="Grupo 879051" transform="translate(5.434)">
            <path id="Trazado_621846" data-name="Trazado 621846" d="M1709.849,682.369l-2.989.715a.972.972,0,0,1-1.171-.719L1697.4,647.68a.972.972,0,0,1,.719-1.171l2.99-.715a.972.972,0,0,1,1.17.719l8.286,34.685A.97.97,0,0,1,1709.849,682.369Z" transform="translate(-1697.375 -645.767)" fill="#cc820a"/>
          </g>
        </g>
        <g id="Grupo_879055" data-name="Grupo 879055">
          <g id="Grupo_879053" data-name="Grupo 879053" transform="translate(0 4.127)">
            <path id="Trazado_621847" data-name="Trazado 621847" d="M1691.5,677.181a8.436,8.436,0,0,1-.217,4.872,8.909,8.909,0,0,1-3.071,4.081,14.727,14.727,0,0,1-5.7,2.573,13.784,13.784,0,0,1-7.206.066,9.318,9.318,0,0,1-3.819-2.265,7.022,7.022,0,0,1-2.064-3.369,2.544,2.544,0,0,1,1.939-3.106,2.222,2.222,0,0,1,1.656.21,4.628,4.628,0,0,1,1.464,1.445,11.7,11.7,0,0,0,1.687,1.958,4.814,4.814,0,0,0,2.1,1.062,6.589,6.589,0,0,0,3.1-.125,6.864,6.864,0,0,0,3.813-2.151,3.626,3.626,0,0,0,.875-3.305,3.183,3.183,0,0,0-1.389-2.058,5.627,5.627,0,0,0-2.511-.8q-1.454-.136-3.828-.114a27.056,27.056,0,0,1-5.441-.445,8.41,8.41,0,0,1-3.84-1.8,6.876,6.876,0,0,1-2.162-3.77,7.146,7.146,0,0,1,.28-4.4,8.182,8.182,0,0,1,2.986-3.63,15.365,15.365,0,0,1,5.381-2.3,14.288,14.288,0,0,1,4.608-.424,9.669,9.669,0,0,1,3.526.953,7.285,7.285,0,0,1,2.345,1.79,5.274,5.274,0,0,1,1.116,2.134,2.755,2.755,0,0,1-.281,1.993,2.345,2.345,0,0,1-1.591,1.238,2.112,2.112,0,0,1-1.6-.134,6.717,6.717,0,0,1-1.477-1.331,7.491,7.491,0,0,0-2.421-2.035,5.514,5.514,0,0,0-3.648-.066,6.107,6.107,0,0,0-3.308,1.81,2.885,2.885,0,0,0-.791,2.638,2.4,2.4,0,0,0,.8,1.34,3.954,3.954,0,0,0,1.51.749,8.631,8.631,0,0,0,1.787.3c.585.034,1.548.061,2.882.079a43.717,43.717,0,0,1,4.575.2,13.474,13.474,0,0,1,3.652.843,5.441,5.441,0,0,1,2.256,1.858A8.68,8.68,0,0,1,1691.5,677.181Z" transform="translate(-1666.662 -659.327)" fill="#f4c83d"/>
          </g>
          <g id="Grupo_879054" data-name="Grupo 879054" transform="translate(5.434)">
            <path id="Trazado_621848" data-name="Trazado 621848" d="M1703.456,677.458l-2.989.715a.972.972,0,0,1-1.171-.719l-8.286-34.685a.972.972,0,0,1,.719-1.171l2.99-.715a.972.972,0,0,1,1.171.719l8.286,34.685A.97.97,0,0,1,1703.456,677.458Z" transform="translate(-1690.982 -640.856)" fill="#f4c83d"/>
          </g>
        </g>
      </g>
    </g>
    <g id="Grupo_879059" data-name="Grupo 879059" transform="translate(993.558 83.76)">
      <path id="Trazado_621840-2" data-name="Trazado 621840" d="M1645.413,606.272a32.623,32.623,0,0,1-32.261,37.066c-.355,0-.707,0-1.058-.015-.222-.007-.441-.016-.662-.027h0a32.63,32.63,0,0,1-5.225-.7,101.242,101.242,0,0,0-4.28-10c-.047-.1-.1-.2-.152-.307-.034-.072-.07-.144-.106-.215a73.353,73.353,0,0,0-11.175-16.573q-.985-1.079-2.028-2.107c-.051-.053-.1-.105-.16-.157a51.143,51.143,0,0,0-5.233-4.489c-.76-.567-1.536-1.111-2.335-1.633a32.36,32.36,0,0,1,.7-4.007q.121-.5.256-.993c.07-.255.143-.509.218-.763a32.715,32.715,0,0,1,13.675-18.087,32.1,32.1,0,0,1,3.615-2q1.213-.575,2.484-1.049a32.587,32.587,0,0,1,43.727,26.05Z" transform="translate(-1580.736 -578.149)" fill="#f4ad00"/>
      <path id="Trazado_621841-2" data-name="Trazado 621841" d="M1601.686,587.428c-.029,1.52-.1,3.125-.253,4.769-.117,1.307-.283,2.637-.513,3.97l-.32.177-.017.01-.3.169-.177.1c-.166.1-.327.2-.489.3-.087.055-.176.108-.262.165h0l-.18.12q-.285.183-.561.378c-.129.088-.257.179-.383.271l-.067.048c-.1.07-.194.143-.29.215-.022.016-.042.032-.064.05-.453.342-.891.7-1.315,1.071q-.208.182-.414.369c-.045.041-.091.082-.135.125-.084.078-.167.156-.25.236a.208.208,0,0,0-.02.018c-.083.08-.166.16-.249.242-.035.034-.072.071-.107.107a.8.8,0,0,0-.065.065c-.026.026-.055.052-.081.08l-.25.257q-.248.259-.488.525c-.1.107-.193.214-.286.322-.062.071-.125.142-.186.214l-.14.169c-.139.162-.274.328-.406.5-.039.048-.077.1-.114.143-.007.008-.012.014-.017.021l-.109.143c-.118.153-.235.308-.348.464-.057.078-.111.156-.166.234-.181.252-.359.51-.529.773-.031.044-.059.09-.09.136l-.193.3v0q-.287.453-.549.92c-.049.08-.094.163-.137.246s-.1.177-.145.268c-.022.038-.043.075-.062.114l-.161.31c0,.008-.007.015-.011.02s-.016.032-.022.046c-.046.089-.089.175-.131.262,0,0,0,0,0,0-.024.047-.047.1-.068.144q-.152.308-.29.62c-.031.07-.063.14-.1.211-.038.089-.076.176-.114.265-.022.053-.046.11-.067.165-.068.156-.13.314-.191.473a.223.223,0,0,0-.02.052c-.066.169-.131.338-.191.508-.012.031-.023.06-.033.092-.063.168-.12.338-.176.508a1.021,1.021,0,0,0-.033.1c-.046.138-.091.277-.132.416-.04.124-.078.248-.114.373-.031.107-.061.213-.092.322-.11.393-.209.791-.3,1.19-.033.148-.065.3-.093.444s-.066.318-.094.478c-.01.05-.02.1-.027.151-.016.09-.031.183-.047.273s-.028.175-.04.265h0c-.029.182-.056.365-.077.55q-.452.19-.922.362a22.34,22.34,0,0,1-2.647.789c-.548.128-1.113.24-1.7.333-.76-.567-1.536-1.111-2.335-1.633a32.362,32.362,0,0,1,.7-4.007q.121-.5.256-.993c.07-.255.143-.509.218-.763a32.715,32.715,0,0,1,13.675-18.087,32.085,32.085,0,0,1,3.615-2Q1600.415,587.9,1601.686,587.428Z" transform="translate(-1580.736 -585.355)" fill="#f4c83d" opacity="0.78"/>
      <path id="Trazado_621842-2" data-name="Trazado 621842" d="M1662.386,634.455a24.39,24.39,0,0,1-15.814,26.258c-.141.052-.285.1-.43.15a24.533,24.533,0,0,1-10.514,1.178c-.231-.024-.462-.05-.69-.084q-.781-.1-1.543-.261a24.166,24.166,0,0,1-5.9-2.015c-.034-.072-.07-.144-.106-.215a73.354,73.354,0,0,0-11.175-16.573q-.985-1.079-2.028-2.107-.077-.079-.16-.157a24.425,24.425,0,0,1-.081-4.911c.03-.355.068-.708.114-1.061.022-.185.048-.368.077-.55h0c.012-.089.026-.177.04-.265s.031-.183.047-.273c.008-.052.018-.1.027-.151.028-.16.06-.321.094-.478s.061-.3.093-.444c.086-.4.186-.8.3-1.19.029-.108.06-.215.092-.322.036-.125.074-.249.114-.373.041-.14.087-.278.132-.416a1.032,1.032,0,0,1,.033-.1c.055-.171.113-.34.176-.508.01-.033.021-.061.033-.092.06-.17.125-.339.191-.508a.217.217,0,0,1,.02-.052c.06-.159.123-.317.191-.473.022-.055.045-.112.068-.165.069-.161.138-.318.21-.475q.138-.311.29-.62c.063-.136.131-.273.2-.408.083-.164.168-.329.256-.49q.069-.136.145-.268t.137-.246q.261-.467.549-.92c.091-.149.187-.295.283-.44.17-.263.348-.521.529-.773.056-.078.109-.155.167-.234.113-.156.23-.311.348-.464.078-.1.16-.206.24-.307.131-.169.266-.335.406-.5.106-.129.217-.259.326-.383.094-.109.19-.215.286-.322q.24-.267.488-.525.165-.171.331-.337a.8.8,0,0,1,.065-.065c.117-.118.235-.234.356-.349a.22.22,0,0,1,.02-.018c.127-.123.255-.241.385-.36s.273-.248.414-.369c.423-.374.862-.729,1.315-1.071q.176-.135.354-.264l.067-.048c.128-.092.254-.182.383-.271q.276-.194.561-.378c.146-.1.295-.192.444-.285s.323-.2.489-.3.316-.184.475-.273l.017-.01c.322-.181.647-.352.979-.518s.676-.331,1.021-.485.7-.3,1.049-.437a24.579,24.579,0,0,1,11.894-1.482c.187.023.375.049.561.077.17.025.337.051.506.081.04.006.079.012.117.02.135.023.269.048.4.075s.277.055.413.083l.308.067a24.369,24.369,0,0,1,18.817,20.45Z" transform="translate(-1606.456 -605.536)" fill="#d39333" opacity="0.19"/>
      <path id="Trazado_621843-2" data-name="Trazado 621843" d="M1654.208,619.067a24.24,24.24,0,0,0-37.557,16.089c-.037.214-.069.427-.1.642q-.122.869-.175,1.755a24.245,24.245,0,0,0,.182,4.872q.03.227.066.452-.985-1.079-2.028-2.107a24.252,24.252,0,0,1-.14-4.98c.041-.546.1-1.091.181-1.629.033-.231.07-.46.11-.69a24.3,24.3,0,0,1,12.964-17.482q.5-.253,1.021-.485t1.049-.437a24.372,24.372,0,0,1,11.893-1.482c.187.023.375.049.561.077.17.025.337.051.506.081.04.006.079.012.117.02.135.023.269.048.4.075s.277.055.413.083l.308.067A24.281,24.281,0,0,1,1654.208,619.067Z" transform="translate(-1606.872 -605.52)" fill="#cc820a"/>
      <path id="Trazado_621844-2" data-name="Trazado 621844" d="M1711.386,656.534a24.252,24.252,0,0,1-28.217,27.2c-.254-.042-.506-.092-.756-.144q-.761-.16-1.505-.365a24.267,24.267,0,0,1-6.24-2.728c-.047-.1-.1-.2-.152-.307-.034-.072-.07-.144-.106-.215a24.016,24.016,0,0,0,5.956,2.125c.515.112,1.035.2,1.56.283.229.033.458.062.689.088a24.418,24.418,0,0,0,10.55-1.1c.145-.047.289-.1.43-.15a24.234,24.234,0,0,0,7.422-41.4c.239.163.473.329.7.5A24.148,24.148,0,0,1,1711.386,656.534Z" transform="translate(-1653.479 -626.041)" fill="#f4c83d"/>
      <g id="Grupo_879056-2" data-name="Grupo 879056" transform="translate(19.2 14.012)">
        <g id="Grupo_879052-2" data-name="Grupo 879052" transform="translate(1.428 1.097)">
          <g id="Grupo_879050-2" data-name="Grupo 879050" transform="translate(0 4.127)">
            <path id="Trazado_621845-2" data-name="Trazado 621845" d="M1697.894,682.092a8.437,8.437,0,0,1-.217,4.872,8.91,8.91,0,0,1-3.071,4.081,14.724,14.724,0,0,1-5.7,2.573,13.782,13.782,0,0,1-7.206.066,9.317,9.317,0,0,1-3.819-2.265,7.021,7.021,0,0,1-2.064-3.369,2.544,2.544,0,0,1,1.939-3.106,2.221,2.221,0,0,1,1.655.21,4.627,4.627,0,0,1,1.465,1.445,11.684,11.684,0,0,0,1.686,1.958,4.813,4.813,0,0,0,2.1,1.062,6.588,6.588,0,0,0,3.1-.125,6.863,6.863,0,0,0,3.812-2.151,3.626,3.626,0,0,0,.875-3.305,3.184,3.184,0,0,0-1.389-2.058,5.625,5.625,0,0,0-2.511-.8q-1.454-.136-3.828-.114a27.053,27.053,0,0,1-5.44-.445,8.411,8.411,0,0,1-3.841-1.8,6.877,6.877,0,0,1-2.162-3.77,7.145,7.145,0,0,1,.28-4.4,8.186,8.186,0,0,1,2.986-3.63,15.367,15.367,0,0,1,5.381-2.3,14.286,14.286,0,0,1,4.608-.424,9.668,9.668,0,0,1,3.526.953,7.286,7.286,0,0,1,2.345,1.79,5.273,5.273,0,0,1,1.116,2.134,2.754,2.754,0,0,1-.281,1.992,2.345,2.345,0,0,1-1.591,1.238,2.112,2.112,0,0,1-1.6-.134,6.726,6.726,0,0,1-1.477-1.331,7.492,7.492,0,0,0-2.421-2.035,5.514,5.514,0,0,0-3.648-.066,6.107,6.107,0,0,0-3.308,1.81,2.885,2.885,0,0,0-.791,2.638,2.4,2.4,0,0,0,.8,1.34,3.954,3.954,0,0,0,1.51.749,8.637,8.637,0,0,0,1.787.3c.585.034,1.548.061,2.882.079a43.742,43.742,0,0,1,4.575.2,13.475,13.475,0,0,1,3.652.843,6.845,6.845,0,0,1,2.675,1.911A8,8,0,0,1,1697.894,682.092Z" transform="translate(-1673.055 -664.238)" fill="#cc820a"/>
          </g>
          <g id="Grupo_879051-2" data-name="Grupo 879051" transform="translate(5.434)">
            <path id="Trazado_621846-2" data-name="Trazado 621846" d="M1709.849,682.369l-2.989.715a.972.972,0,0,1-1.171-.719L1697.4,647.68a.972.972,0,0,1,.719-1.171l2.99-.715a.972.972,0,0,1,1.17.719l8.286,34.685A.97.97,0,0,1,1709.849,682.369Z" transform="translate(-1697.375 -645.767)" fill="#cc820a"/>
          </g>
        </g>
        <g id="Grupo_879055-2" data-name="Grupo 879055">
          <g id="Grupo_879053-2" data-name="Grupo 879053" transform="translate(0 4.127)">
            <path id="Trazado_621847-2" data-name="Trazado 621847" d="M1691.5,677.181a8.436,8.436,0,0,1-.217,4.872,8.909,8.909,0,0,1-3.071,4.081,14.727,14.727,0,0,1-5.7,2.573,13.784,13.784,0,0,1-7.206.066,9.318,9.318,0,0,1-3.819-2.265,7.022,7.022,0,0,1-2.064-3.369,2.544,2.544,0,0,1,1.939-3.106,2.222,2.222,0,0,1,1.656.21,4.628,4.628,0,0,1,1.464,1.445,11.7,11.7,0,0,0,1.687,1.958,4.814,4.814,0,0,0,2.1,1.062,6.589,6.589,0,0,0,3.1-.125,6.864,6.864,0,0,0,3.813-2.151,3.626,3.626,0,0,0,.875-3.305,3.183,3.183,0,0,0-1.389-2.058,5.627,5.627,0,0,0-2.511-.8q-1.454-.136-3.828-.114a27.056,27.056,0,0,1-5.441-.445,8.41,8.41,0,0,1-3.84-1.8,6.876,6.876,0,0,1-2.162-3.77,7.146,7.146,0,0,1,.28-4.4,8.182,8.182,0,0,1,2.986-3.63,15.365,15.365,0,0,1,5.381-2.3,14.288,14.288,0,0,1,4.608-.424,9.669,9.669,0,0,1,3.526.953,7.285,7.285,0,0,1,2.345,1.79,5.274,5.274,0,0,1,1.116,2.134,2.755,2.755,0,0,1-.281,1.993,2.345,2.345,0,0,1-1.591,1.238,2.112,2.112,0,0,1-1.6-.134,6.717,6.717,0,0,1-1.477-1.331,7.491,7.491,0,0,0-2.421-2.035,5.514,5.514,0,0,0-3.648-.066,6.107,6.107,0,0,0-3.308,1.81,2.885,2.885,0,0,0-.791,2.638,2.4,2.4,0,0,0,.8,1.34,3.954,3.954,0,0,0,1.51.749,8.631,8.631,0,0,0,1.787.3c.585.034,1.548.061,2.882.079a43.717,43.717,0,0,1,4.575.2,13.474,13.474,0,0,1,3.652.843,5.441,5.441,0,0,1,2.256,1.858A8.68,8.68,0,0,1,1691.5,677.181Z" transform="translate(-1666.662 -659.327)" fill="#f4c83d"/>
          </g>
          <g id="Grupo_879054-2" data-name="Grupo 879054" transform="translate(5.434)">
            <path id="Trazado_621848-2" data-name="Trazado 621848" d="M1703.456,677.458l-2.989.715a.972.972,0,0,1-1.171-.719l-8.286-34.685a.972.972,0,0,1,.719-1.171l2.99-.715a.972.972,0,0,1,1.171.719l8.286,34.685A.97.97,0,0,1,1703.456,677.458Z" transform="translate(-1690.982 -640.856)" fill="#f4c83d"/>
          </g>
        </g>
      </g>
    </g>
    <g id="Grupo_879062" data-name="Grupo 879062" transform="translate(1003.568 8.85)">
      <path id="Trazado_621840-3" data-name="Trazado 621840" d="M1645.413,606.272a32.623,32.623,0,0,1-32.261,37.066c-.355,0-.707,0-1.058-.015-.222-.007-.441-.016-.662-.027h0a32.63,32.63,0,0,1-5.225-.7,101.242,101.242,0,0,0-4.28-10c-.047-.1-.1-.2-.152-.307-.034-.072-.07-.144-.106-.215a73.353,73.353,0,0,0-11.175-16.573q-.985-1.079-2.028-2.107c-.051-.053-.1-.105-.16-.157a51.143,51.143,0,0,0-5.233-4.489c-.76-.567-1.536-1.111-2.335-1.633a32.36,32.36,0,0,1,.7-4.007q.121-.5.256-.993c.07-.255.143-.509.218-.763a32.715,32.715,0,0,1,13.675-18.087,32.1,32.1,0,0,1,3.615-2q1.213-.575,2.484-1.049a32.587,32.587,0,0,1,43.727,26.05Z" transform="translate(-1580.736 -578.149)" fill="#f4ad00"/>
      <path id="Trazado_621841-3" data-name="Trazado 621841" d="M1601.686,587.428c-.029,1.52-.1,3.125-.253,4.769-.117,1.307-.283,2.637-.513,3.97l-.32.177-.017.01-.3.169-.177.1c-.166.1-.327.2-.489.3-.087.055-.176.108-.262.165h0l-.18.12q-.285.183-.561.378c-.129.088-.257.179-.383.271l-.067.048c-.1.07-.194.143-.29.215-.022.016-.042.032-.064.05-.453.342-.891.7-1.315,1.071q-.208.182-.414.369c-.045.041-.091.082-.135.125-.084.078-.167.156-.25.236a.208.208,0,0,0-.02.018c-.083.08-.166.16-.249.242-.035.034-.072.071-.107.107a.8.8,0,0,0-.065.065c-.026.026-.055.052-.081.08l-.25.257q-.248.259-.488.525c-.1.107-.193.214-.286.322-.062.071-.125.142-.186.214l-.14.169c-.139.162-.274.328-.406.5-.039.048-.077.1-.114.143-.007.008-.012.014-.017.021l-.109.143c-.118.153-.235.308-.348.464-.057.078-.111.156-.166.234-.181.252-.359.51-.529.773-.031.044-.059.09-.09.136l-.193.3v0q-.287.453-.549.92c-.049.08-.094.163-.137.246s-.1.177-.145.268c-.022.038-.043.075-.062.114l-.161.31c0,.008-.007.015-.011.02s-.016.032-.022.046c-.046.089-.089.175-.131.262,0,0,0,0,0,0-.024.047-.047.1-.068.144q-.152.308-.29.62c-.031.07-.063.14-.1.211-.038.089-.076.176-.114.265-.022.053-.046.11-.067.165-.068.156-.13.314-.191.473a.223.223,0,0,0-.02.052c-.066.169-.131.338-.191.508-.012.031-.023.06-.033.092-.063.168-.12.338-.176.508a1.021,1.021,0,0,0-.033.1c-.046.138-.091.277-.132.416-.04.124-.078.248-.114.373-.031.107-.061.213-.092.322-.11.393-.209.791-.3,1.19-.033.148-.065.3-.093.444s-.066.318-.094.478c-.01.05-.02.1-.027.151-.016.09-.031.183-.047.273s-.028.175-.04.265h0c-.029.182-.056.365-.077.55q-.452.19-.922.362a22.34,22.34,0,0,1-2.647.789c-.548.128-1.113.24-1.7.333-.76-.567-1.536-1.111-2.335-1.633a32.362,32.362,0,0,1,.7-4.007q.121-.5.256-.993c.07-.255.143-.509.218-.763a32.715,32.715,0,0,1,13.675-18.087,32.085,32.085,0,0,1,3.615-2Q1600.415,587.9,1601.686,587.428Z" transform="translate(-1580.736 -585.355)" fill="#f4c83d" opacity="0.78"/>
      <path id="Trazado_621842-3" data-name="Trazado 621842" d="M1662.386,634.455a24.39,24.39,0,0,1-15.814,26.258c-.141.052-.285.1-.43.15a24.533,24.533,0,0,1-10.514,1.178c-.231-.024-.462-.05-.69-.084q-.781-.1-1.543-.261a24.166,24.166,0,0,1-5.9-2.015c-.034-.072-.07-.144-.106-.215a73.354,73.354,0,0,0-11.175-16.573q-.985-1.079-2.028-2.107-.077-.079-.16-.157a24.425,24.425,0,0,1-.081-4.911c.03-.355.068-.708.114-1.061.022-.185.048-.368.077-.55h0c.012-.089.026-.177.04-.265s.031-.183.047-.273c.008-.052.018-.1.027-.151.028-.16.06-.321.094-.478s.061-.3.093-.444c.086-.4.186-.8.3-1.19.029-.108.06-.215.092-.322.036-.125.074-.249.114-.373.041-.14.087-.278.132-.416a1.032,1.032,0,0,1,.033-.1c.055-.171.113-.34.176-.508.01-.033.021-.061.033-.092.06-.17.125-.339.191-.508a.217.217,0,0,1,.02-.052c.06-.159.123-.317.191-.473.022-.055.045-.112.068-.165.069-.161.138-.318.21-.475q.138-.311.29-.62c.063-.136.131-.273.2-.408.083-.164.168-.329.256-.49q.069-.136.145-.268t.137-.246q.261-.467.549-.92c.091-.149.187-.295.283-.44.17-.263.348-.521.529-.773.056-.078.109-.155.167-.234.113-.156.23-.311.348-.464.078-.1.16-.206.24-.307.131-.169.266-.335.406-.5.106-.129.217-.259.326-.383.094-.109.19-.215.286-.322q.24-.267.488-.525.165-.171.331-.337a.8.8,0,0,1,.065-.065c.117-.118.235-.234.356-.349a.22.22,0,0,1,.02-.018c.127-.123.255-.241.385-.36s.273-.248.414-.369c.423-.374.862-.729,1.315-1.071q.176-.135.354-.264l.067-.048c.128-.092.254-.182.383-.271q.276-.194.561-.378c.146-.1.295-.192.444-.285s.323-.2.489-.3.316-.184.475-.273l.017-.01c.322-.181.647-.352.979-.518s.676-.331,1.021-.485.7-.3,1.049-.437a24.579,24.579,0,0,1,11.894-1.482c.187.023.375.049.561.077.17.025.337.051.506.081.04.006.079.012.117.02.135.023.269.048.4.075s.277.055.413.083l.308.067a24.369,24.369,0,0,1,18.817,20.45Z" transform="translate(-1606.456 -605.536)" fill="#d39333" opacity="0.19"/>
      <path id="Trazado_621843-3" data-name="Trazado 621843" d="M1654.208,619.067a24.24,24.24,0,0,0-37.557,16.089c-.037.214-.069.427-.1.642q-.122.869-.175,1.755a24.245,24.245,0,0,0,.182,4.872q.03.227.066.452-.985-1.079-2.028-2.107a24.252,24.252,0,0,1-.14-4.98c.041-.546.1-1.091.181-1.629.033-.231.07-.46.11-.69a24.3,24.3,0,0,1,12.964-17.482q.5-.253,1.021-.485t1.049-.437a24.372,24.372,0,0,1,11.893-1.482c.187.023.375.049.561.077.17.025.337.051.506.081.04.006.079.012.117.02.135.023.269.048.4.075s.277.055.413.083l.308.067A24.281,24.281,0,0,1,1654.208,619.067Z" transform="translate(-1606.872 -605.52)" fill="#cc820a"/>
      <path id="Trazado_621844-3" data-name="Trazado 621844" d="M1711.386,656.534a24.252,24.252,0,0,1-28.217,27.2c-.254-.042-.506-.092-.756-.144q-.761-.16-1.505-.365a24.267,24.267,0,0,1-6.24-2.728c-.047-.1-.1-.2-.152-.307-.034-.072-.07-.144-.106-.215a24.016,24.016,0,0,0,5.956,2.125c.515.112,1.035.2,1.56.283.229.033.458.062.689.088a24.418,24.418,0,0,0,10.55-1.1c.145-.047.289-.1.43-.15a24.234,24.234,0,0,0,7.422-41.4c.239.163.473.329.7.5A24.148,24.148,0,0,1,1711.386,656.534Z" transform="translate(-1653.479 -626.041)" fill="#f4c83d"/>
      <g id="Grupo_879056-3" data-name="Grupo 879056" transform="translate(19.2 14.012)">
        <g id="Grupo_879052-3" data-name="Grupo 879052" transform="translate(1.428 1.097)">
          <g id="Grupo_879050-3" data-name="Grupo 879050" transform="translate(0 4.127)">
            <path id="Trazado_621845-3" data-name="Trazado 621845" d="M1697.894,682.092a8.437,8.437,0,0,1-.217,4.872,8.91,8.91,0,0,1-3.071,4.081,14.724,14.724,0,0,1-5.7,2.573,13.782,13.782,0,0,1-7.206.066,9.317,9.317,0,0,1-3.819-2.265,7.021,7.021,0,0,1-2.064-3.369,2.544,2.544,0,0,1,1.939-3.106,2.221,2.221,0,0,1,1.655.21,4.627,4.627,0,0,1,1.465,1.445,11.684,11.684,0,0,0,1.686,1.958,4.813,4.813,0,0,0,2.1,1.062,6.588,6.588,0,0,0,3.1-.125,6.863,6.863,0,0,0,3.812-2.151,3.626,3.626,0,0,0,.875-3.305,3.184,3.184,0,0,0-1.389-2.058,5.625,5.625,0,0,0-2.511-.8q-1.454-.136-3.828-.114a27.053,27.053,0,0,1-5.44-.445,8.411,8.411,0,0,1-3.841-1.8,6.877,6.877,0,0,1-2.162-3.77,7.145,7.145,0,0,1,.28-4.4,8.186,8.186,0,0,1,2.986-3.63,15.367,15.367,0,0,1,5.381-2.3,14.286,14.286,0,0,1,4.608-.424,9.668,9.668,0,0,1,3.526.953,7.286,7.286,0,0,1,2.345,1.79,5.273,5.273,0,0,1,1.116,2.134,2.754,2.754,0,0,1-.281,1.992,2.345,2.345,0,0,1-1.591,1.238,2.112,2.112,0,0,1-1.6-.134,6.726,6.726,0,0,1-1.477-1.331,7.492,7.492,0,0,0-2.421-2.035,5.514,5.514,0,0,0-3.648-.066,6.107,6.107,0,0,0-3.308,1.81,2.885,2.885,0,0,0-.791,2.638,2.4,2.4,0,0,0,.8,1.34,3.954,3.954,0,0,0,1.51.749,8.637,8.637,0,0,0,1.787.3c.585.034,1.548.061,2.882.079a43.742,43.742,0,0,1,4.575.2,13.475,13.475,0,0,1,3.652.843,6.845,6.845,0,0,1,2.675,1.911A8,8,0,0,1,1697.894,682.092Z" transform="translate(-1673.055 -664.238)" fill="#cc820a"/>
          </g>
          <g id="Grupo_879051-3" data-name="Grupo 879051" transform="translate(5.434)">
            <path id="Trazado_621846-3" data-name="Trazado 621846" d="M1709.849,682.369l-2.989.715a.972.972,0,0,1-1.171-.719L1697.4,647.68a.972.972,0,0,1,.719-1.171l2.99-.715a.972.972,0,0,1,1.17.719l8.286,34.685A.97.97,0,0,1,1709.849,682.369Z" transform="translate(-1697.375 -645.767)" fill="#cc820a"/>
          </g>
        </g>
        <g id="Grupo_879055-3" data-name="Grupo 879055">
          <g id="Grupo_879053-3" data-name="Grupo 879053" transform="translate(0 4.127)">
            <path id="Trazado_621847-3" data-name="Trazado 621847" d="M1691.5,677.181a8.436,8.436,0,0,1-.217,4.872,8.909,8.909,0,0,1-3.071,4.081,14.727,14.727,0,0,1-5.7,2.573,13.784,13.784,0,0,1-7.206.066,9.318,9.318,0,0,1-3.819-2.265,7.022,7.022,0,0,1-2.064-3.369,2.544,2.544,0,0,1,1.939-3.106,2.222,2.222,0,0,1,1.656.21,4.628,4.628,0,0,1,1.464,1.445,11.7,11.7,0,0,0,1.687,1.958,4.814,4.814,0,0,0,2.1,1.062,6.589,6.589,0,0,0,3.1-.125,6.864,6.864,0,0,0,3.813-2.151,3.626,3.626,0,0,0,.875-3.305,3.183,3.183,0,0,0-1.389-2.058,5.627,5.627,0,0,0-2.511-.8q-1.454-.136-3.828-.114a27.056,27.056,0,0,1-5.441-.445,8.41,8.41,0,0,1-3.84-1.8,6.876,6.876,0,0,1-2.162-3.77,7.146,7.146,0,0,1,.28-4.4,8.182,8.182,0,0,1,2.986-3.63,15.365,15.365,0,0,1,5.381-2.3,14.288,14.288,0,0,1,4.608-.424,9.669,9.669,0,0,1,3.526.953,7.285,7.285,0,0,1,2.345,1.79,5.274,5.274,0,0,1,1.116,2.134,2.755,2.755,0,0,1-.281,1.993,2.345,2.345,0,0,1-1.591,1.238,2.112,2.112,0,0,1-1.6-.134,6.717,6.717,0,0,1-1.477-1.331,7.491,7.491,0,0,0-2.421-2.035,5.514,5.514,0,0,0-3.648-.066,6.107,6.107,0,0,0-3.308,1.81,2.885,2.885,0,0,0-.791,2.638,2.4,2.4,0,0,0,.8,1.34,3.954,3.954,0,0,0,1.51.749,8.631,8.631,0,0,0,1.787.3c.585.034,1.548.061,2.882.079a43.717,43.717,0,0,1,4.575.2,13.474,13.474,0,0,1,3.652.843,5.441,5.441,0,0,1,2.256,1.858A8.68,8.68,0,0,1,1691.5,677.181Z" transform="translate(-1666.662 -659.327)" fill="#f4c83d"/>
          </g>
          <g id="Grupo_879054-3" data-name="Grupo 879054" transform="translate(5.434)">
            <path id="Trazado_621848-3" data-name="Trazado 621848" d="M1703.456,677.458l-2.989.715a.972.972,0,0,1-1.171-.719l-8.286-34.685a.972.972,0,0,1,.719-1.171l2.99-.715a.972.972,0,0,1,1.171.719l8.286,34.685A.97.97,0,0,1,1703.456,677.458Z" transform="translate(-1690.982 -640.856)" fill="#f4c83d"/>
          </g>
        </g>
      </g>
    </g>
    <g id="Grupo_879061" data-name="Grupo 879061" transform="translate(973.557 93.385) rotate(-87)">
      <path id="Trazado_621840-4" data-name="Trazado 621840" d="M1624.525,597.189a22.086,22.086,0,0,1-21.842,25.1c-.24,0-.478,0-.716-.01-.151,0-.3-.011-.448-.019h0a22.083,22.083,0,0,1-3.537-.472,68.558,68.558,0,0,0-2.9-6.769c-.032-.069-.067-.138-.1-.208-.023-.049-.048-.1-.072-.146a49.662,49.662,0,0,0-7.566-11.221q-.667-.73-1.373-1.427c-.035-.036-.071-.071-.108-.106a34.632,34.632,0,0,0-3.543-3.039c-.515-.384-1.04-.752-1.581-1.105a21.906,21.906,0,0,1,.475-2.713q.082-.338.173-.672c.048-.172.1-.345.148-.516a22.15,22.15,0,0,1,9.259-12.245,21.748,21.748,0,0,1,2.448-1.354q.822-.389,1.682-.71a22.062,22.062,0,0,1,29.6,17.637Z" transform="translate(-1580.736 -578.149)" fill="#f4ad00"/>
      <path id="Trazado_621841-4" data-name="Trazado 621841" d="M1594.92,587.428c-.019,1.029-.069,2.116-.172,3.229-.079.885-.191,1.786-.347,2.688l-.217.12-.011.007-.2.115-.12.07c-.112.066-.221.132-.331.2-.059.037-.119.073-.177.112h0l-.122.081q-.193.124-.38.256c-.087.06-.174.121-.259.184l-.045.032-.2.145-.043.034c-.307.231-.6.472-.89.725q-.141.123-.28.25c-.03.028-.062.055-.092.084-.057.053-.113.105-.169.16l-.013.012c-.056.054-.113.108-.168.164l-.072.073a.525.525,0,0,0-.044.044c-.018.017-.037.035-.055.054l-.169.174q-.168.175-.33.356c-.065.072-.13.145-.194.218-.042.048-.085.1-.126.145l-.095.115c-.094.11-.186.222-.275.337l-.077.1-.011.014-.074.1c-.08.1-.159.209-.236.314-.039.053-.075.105-.113.158-.123.171-.243.345-.358.523-.021.03-.04.061-.061.092l-.131.2h0c-.13.2-.254.412-.372.623-.033.054-.064.11-.093.167s-.067.12-.1.181c-.015.025-.029.051-.042.077l-.109.21-.007.013c-.005.01-.011.022-.015.031-.031.06-.06.118-.089.178,0,0,0,0,0,0-.016.032-.032.065-.046.1q-.1.209-.2.419c-.021.048-.042.095-.065.143l-.077.179c-.015.036-.031.075-.046.112-.046.106-.088.213-.129.32a.143.143,0,0,0-.014.035c-.045.115-.089.229-.129.344-.008.021-.016.04-.022.062-.042.114-.082.229-.119.344a.662.662,0,0,0-.022.067c-.031.094-.062.187-.09.282s-.053.168-.077.252-.041.145-.062.218c-.074.266-.142.536-.2.806-.022.1-.044.2-.063.3s-.045.216-.064.324c-.007.034-.013.068-.019.1-.011.061-.021.124-.032.185s-.019.119-.027.179h0c-.02.123-.038.247-.052.373q-.306.129-.624.245a15.14,15.14,0,0,1-1.792.534c-.371.087-.753.162-1.149.225-.515-.384-1.04-.752-1.581-1.105a21.909,21.909,0,0,1,.475-2.713q.082-.338.173-.672c.048-.172.1-.345.148-.516a22.15,22.15,0,0,1,9.259-12.245,21.729,21.729,0,0,1,2.448-1.354Q1594.06,587.749,1594.92,587.428Z" transform="translate(-1580.736 -586.024)" fill="#f4c83d" opacity="0.78"/>
      <path id="Trazado_621842-4" data-name="Trazado 621842" d="M1646.713,627.661a16.513,16.513,0,0,1-10.707,17.778c-.1.036-.193.07-.291.1a16.608,16.608,0,0,1-7.119.8c-.156-.016-.313-.034-.467-.057q-.529-.07-1.045-.177a16.361,16.361,0,0,1-3.995-1.364c-.023-.049-.048-.1-.072-.146a49.662,49.662,0,0,0-7.566-11.221q-.667-.73-1.373-1.427c-.035-.036-.071-.071-.108-.106a16.547,16.547,0,0,1-.055-3.325c.02-.241.046-.48.077-.718.015-.125.033-.249.052-.373h0c.008-.06.018-.12.027-.179s.021-.124.032-.185c.005-.035.012-.069.019-.1.019-.108.04-.217.064-.324s.041-.2.063-.3c.058-.27.126-.539.2-.806.02-.073.041-.146.062-.218s.05-.168.077-.253.059-.188.09-.282c.007-.022.013-.044.022-.067.038-.116.077-.23.119-.344.007-.022.014-.041.022-.062.041-.115.084-.229.129-.344a.149.149,0,0,1,.014-.035c.041-.108.083-.214.129-.32.015-.037.031-.076.046-.112.047-.109.094-.215.142-.322q.094-.211.2-.42c.043-.092.089-.185.136-.276.056-.111.114-.223.173-.332q.047-.092.1-.181t.093-.167q.177-.316.372-.623c.062-.1.126-.2.191-.3.115-.178.236-.352.359-.523.038-.053.074-.105.113-.158.076-.106.156-.211.236-.314.053-.07.108-.14.163-.208.089-.115.18-.227.275-.337.072-.087.147-.175.221-.26s.129-.146.194-.218c.108-.12.218-.239.33-.355q.112-.116.224-.228a.564.564,0,0,1,.044-.044c.079-.08.159-.159.241-.236l.013-.012c.086-.083.173-.163.261-.244s.185-.168.28-.25c.287-.253.584-.494.89-.725q.119-.091.24-.179l.045-.033c.087-.063.172-.124.259-.183q.187-.131.38-.256c.1-.065.2-.13.3-.193s.219-.136.331-.2.214-.125.322-.185l.011-.007c.218-.123.438-.239.662-.351s.458-.224.691-.328.472-.2.71-.3a16.64,16.64,0,0,1,8.052-1c.127.016.254.033.38.052s.228.035.342.055c.027,0,.053.008.08.014.091.015.182.032.272.051s.188.037.28.056l.208.045a16.5,16.5,0,0,1,12.74,13.846Z" transform="translate(-1608.846 -608.081)" fill="#d39333" opacity="0.19"/>
      <path id="Trazado_621843-4" data-name="Trazado 621843" d="M1641.349,617.235a16.412,16.412,0,0,0-25.427,10.893c-.025.145-.047.289-.066.434q-.082.588-.118,1.188a16.4,16.4,0,0,0,.123,3.3q.02.154.045.306-.667-.73-1.373-1.426a16.418,16.418,0,0,1-.095-3.371c.028-.37.07-.739.122-1.1.022-.156.048-.311.074-.467a16.452,16.452,0,0,1,8.777-11.836c.227-.114.458-.224.691-.328s.47-.2.711-.3a16.5,16.5,0,0,1,8.052-1c.127.016.254.033.38.052s.228.035.343.055c.027,0,.053.008.079.014.092.015.182.032.273.051s.187.037.28.056l.208.045A16.44,16.44,0,0,1,1641.349,617.235Z" transform="translate(-1609.3 -608.064)" fill="#cc820a"/>
      <path id="Trazado_621844-4" data-name="Trazado 621844" d="M1699.444,651.136a16.419,16.419,0,0,1-19.1,18.414c-.172-.029-.343-.062-.512-.1q-.515-.108-1.019-.247a16.429,16.429,0,0,1-4.224-1.847c-.032-.069-.067-.138-.1-.208-.023-.049-.048-.1-.072-.146a16.258,16.258,0,0,0,4.032,1.439c.349.076.7.138,1.056.192.155.023.31.042.467.06a16.531,16.531,0,0,0,7.143-.744c.1-.032.2-.066.291-.1a16.408,16.408,0,0,0,5.025-28.027c.162.11.32.223.476.339A16.35,16.35,0,0,1,1699.444,651.136Z" transform="translate(-1660.239 -630.492)" fill="#f4c83d"/>
      <g id="Grupo_879056-4" data-name="Grupo 879056" transform="translate(12.999 9.487)">
        <g id="Grupo_879052-4" data-name="Grupo 879052" transform="translate(0.967 0.743)">
          <g id="Grupo_879050-4" data-name="Grupo 879050" transform="translate(0 2.794)">
            <path id="Trazado_621845-4" data-name="Trazado 621845" d="M1689.872,676.325a5.711,5.711,0,0,1-.147,3.3,6.031,6.031,0,0,1-2.079,2.763,9.968,9.968,0,0,1-3.858,1.742,9.331,9.331,0,0,1-4.878.045,6.308,6.308,0,0,1-2.586-1.534,4.754,4.754,0,0,1-1.4-2.281,1.722,1.722,0,0,1,1.313-2.1,1.5,1.5,0,0,1,1.121.142,3.132,3.132,0,0,1,.992.978,7.905,7.905,0,0,0,1.142,1.325,3.259,3.259,0,0,0,1.422.719,4.46,4.46,0,0,0,2.1-.085,4.647,4.647,0,0,0,2.581-1.456,2.455,2.455,0,0,0,.592-2.238,2.156,2.156,0,0,0-.941-1.394,3.809,3.809,0,0,0-1.7-.542q-.984-.092-2.592-.077a18.314,18.314,0,0,1-3.683-.3,5.694,5.694,0,0,1-2.6-1.222,4.656,4.656,0,0,1-1.464-2.552,4.836,4.836,0,0,1,.19-2.981,5.541,5.541,0,0,1,2.021-2.457,10.406,10.406,0,0,1,3.643-1.56,9.67,9.67,0,0,1,3.12-.287,6.546,6.546,0,0,1,2.387.645,4.933,4.933,0,0,1,1.588,1.212,3.57,3.57,0,0,1,.755,1.445,1.865,1.865,0,0,1-.19,1.349,1.588,1.588,0,0,1-1.077.838,1.43,1.43,0,0,1-1.081-.09,4.549,4.549,0,0,1-1-.9,5.072,5.072,0,0,0-1.639-1.378,3.733,3.733,0,0,0-2.47-.044,4.134,4.134,0,0,0-2.24,1.225,1.954,1.954,0,0,0-.536,1.786,1.628,1.628,0,0,0,.544.907,2.678,2.678,0,0,0,1.023.507,5.847,5.847,0,0,0,1.209.2c.4.023,1.048.041,1.951.053a29.6,29.6,0,0,1,3.1.134,9.121,9.121,0,0,1,2.472.571,4.633,4.633,0,0,1,1.811,1.294A5.415,5.415,0,0,1,1689.872,676.325Z" transform="translate(-1673.054 -664.238)" fill="#cc820a"/>
          </g>
          <g id="Grupo_879051-4" data-name="Grupo 879051" transform="translate(3.679)">
            <path id="Trazado_621846-4" data-name="Trazado 621846" d="M1705.82,670.548l-2.024.484a.658.658,0,0,1-.793-.487l-5.61-23.483a.658.658,0,0,1,.487-.793l2.024-.484a.658.658,0,0,1,.792.487l5.61,23.483A.657.657,0,0,1,1705.82,670.548Z" transform="translate(-1697.376 -645.767)" fill="#cc820a"/>
          </g>
        </g>
        <g id="Grupo_879055-4" data-name="Grupo 879055">
          <g id="Grupo_879053-4" data-name="Grupo 879053" transform="translate(0 2.794)">
            <path id="Trazado_621847-4" data-name="Trazado 621847" d="M1683.479,671.414a5.711,5.711,0,0,1-.147,3.3,6.031,6.031,0,0,1-2.079,2.763,9.97,9.97,0,0,1-3.858,1.742,9.333,9.333,0,0,1-4.879.045,6.308,6.308,0,0,1-2.586-1.534,4.754,4.754,0,0,1-1.4-2.281,1.722,1.722,0,0,1,1.313-2.1,1.5,1.5,0,0,1,1.121.142,3.132,3.132,0,0,1,.991.979,7.924,7.924,0,0,0,1.142,1.325,3.259,3.259,0,0,0,1.421.719,4.461,4.461,0,0,0,2.1-.085,4.648,4.648,0,0,0,2.581-1.456,2.455,2.455,0,0,0,.592-2.238,2.155,2.155,0,0,0-.94-1.394,3.81,3.81,0,0,0-1.7-.542q-.985-.092-2.592-.077a18.317,18.317,0,0,1-3.683-.3,5.694,5.694,0,0,1-2.6-1.222,4.655,4.655,0,0,1-1.464-2.552,4.838,4.838,0,0,1,.19-2.981,5.54,5.54,0,0,1,2.022-2.457,10.4,10.4,0,0,1,3.643-1.56,9.674,9.674,0,0,1,3.12-.287,6.546,6.546,0,0,1,2.387.645,4.931,4.931,0,0,1,1.588,1.212,3.571,3.571,0,0,1,.755,1.445,1.865,1.865,0,0,1-.191,1.349,1.588,1.588,0,0,1-1.077.838,1.43,1.43,0,0,1-1.081-.09,4.55,4.55,0,0,1-1-.9,5.071,5.071,0,0,0-1.639-1.378,3.734,3.734,0,0,0-2.47-.044,4.134,4.134,0,0,0-2.24,1.225,1.953,1.953,0,0,0-.536,1.786,1.627,1.627,0,0,0,.545.907,2.676,2.676,0,0,0,1.022.507,5.841,5.841,0,0,0,1.21.2c.4.023,1.048.041,1.951.053a29.606,29.606,0,0,1,3.1.134,9.123,9.123,0,0,1,2.472.571,3.684,3.684,0,0,1,1.527,1.258A5.875,5.875,0,0,1,1683.479,671.414Z" transform="translate(-1666.662 -659.327)" fill="#f4c83d"/>
          </g>
          <g id="Grupo_879054-4" data-name="Grupo 879054" transform="translate(3.679)">
            <path id="Trazado_621848-4" data-name="Trazado 621848" d="M1699.427,665.637l-2.024.484a.658.658,0,0,1-.792-.487L1691,642.151a.658.658,0,0,1,.487-.793l2.024-.484a.658.658,0,0,1,.792.487l5.61,23.483A.657.657,0,0,1,1699.427,665.637Z" transform="translate(-1690.983 -640.856)" fill="#f4c83d"/>
          </g>
        </g>
      </g>
    </g>
    <g id="Grupo_879060" data-name="Grupo 879060" transform="matrix(0.035, -0.999, 0.999, 0.035, 943.702, 193.004)">
      <path id="Trazado_621840-5" data-name="Trazado 621840" d="M1671.664,617.687a45.863,45.863,0,0,1-45.355,52.11c-.5,0-.993-.006-1.487-.021-.312-.009-.62-.023-.931-.039h0a45.878,45.878,0,0,1-7.345-.979,142.294,142.294,0,0,0-6.017-14.057c-.067-.143-.14-.287-.213-.431-.048-.1-.1-.2-.15-.3a103.122,103.122,0,0,0-15.711-23.3q-1.385-1.516-2.851-2.962-.108-.112-.225-.221a71.9,71.9,0,0,0-7.357-6.311c-1.069-.8-2.16-1.562-3.283-2.3a45.492,45.492,0,0,1,.986-5.634q.17-.7.36-1.4c.1-.358.2-.716.306-1.073a45.993,45.993,0,0,1,19.226-25.428,45.123,45.123,0,0,1,5.083-2.811q1.706-.809,3.493-1.475a45.812,45.812,0,0,1,61.474,36.623Z" transform="translate(-1580.736 -578.149)" fill="#f4ad00"/>
      <path id="Trazado_621841-5" data-name="Trazado 621841" d="M1610.189,587.428c-.04,2.136-.143,4.394-.356,6.7-.164,1.837-.4,3.708-.721,5.581l-.45.248-.024.015c-.14.078-.279.159-.419.238-.083.05-.166.1-.249.146-.233.137-.46.275-.687.419-.122.077-.248.152-.369.232h0l-.253.168q-.4.258-.789.531c-.181.124-.361.252-.538.381l-.094.067c-.135.1-.273.2-.407.3-.031.023-.06.045-.09.07-.637.48-1.253.98-1.849,1.505q-.292.255-.582.519c-.063.057-.128.115-.19.175-.117.109-.235.219-.352.331a.32.32,0,0,0-.028.025c-.117.112-.234.225-.35.34-.05.048-.1.1-.15.15a1.132,1.132,0,0,0-.091.091c-.037.036-.077.073-.114.112l-.351.362q-.348.364-.686.738c-.135.15-.271.3-.4.453-.087.1-.176.2-.262.3-.066.079-.13.158-.2.238-.2.228-.385.461-.57.7-.054.067-.108.135-.16.2-.009.012-.017.019-.024.03l-.154.2c-.166.215-.331.433-.49.653-.081.11-.156.219-.234.328-.255.355-.5.717-.744,1.087-.044.062-.083.126-.126.191l-.272.425v0q-.4.638-.772,1.294c-.068.113-.132.229-.193.346s-.14.249-.2.376c-.03.053-.061.106-.087.16l-.227.436c-.007.011-.01.021-.015.028s-.023.045-.031.065c-.065.125-.125.245-.185.369,0,0,0,0,0,0-.033.066-.066.134-.1.2q-.214.433-.408.871c-.044.1-.088.2-.135.3-.053.125-.107.247-.16.372-.031.074-.064.155-.095.232-.095.22-.183.441-.268.665a.31.31,0,0,0-.028.074c-.094.238-.184.475-.269.714-.017.044-.032.084-.046.129-.088.237-.169.475-.247.715a1.446,1.446,0,0,0-.047.139c-.064.194-.128.389-.186.585-.057.175-.11.348-.161.524-.044.15-.085.3-.129.453-.154.553-.294,1.112-.416,1.673-.046.209-.091.417-.131.624s-.093.448-.132.673c-.014.07-.028.14-.039.213-.022.127-.043.257-.066.384s-.04.247-.056.372h0c-.041.256-.078.514-.108.774q-.636.267-1.3.509a31.414,31.414,0,0,1-3.721,1.109c-.771.18-1.564.337-2.386.468-1.069-.8-2.16-1.562-3.283-2.3a45.5,45.5,0,0,1,.986-5.634q.17-.7.36-1.4c.1-.358.2-.716.306-1.072a45.993,45.993,0,0,1,19.226-25.428,45.114,45.114,0,0,1,5.083-2.811Q1608.4,588.095,1610.189,587.428Z" transform="translate(-1580.736 -584.513)" fill="#f4c83d" opacity="0.78"/>
      <path id="Trazado_621842-5" data-name="Trazado 621842" d="M1682.083,642.994a34.289,34.289,0,0,1-22.233,36.916c-.2.074-.4.146-.6.211a34.489,34.489,0,0,1-14.782,1.656c-.324-.034-.649-.071-.971-.118q-1.1-.146-2.17-.367a33.973,33.973,0,0,1-8.3-2.833c-.048-.1-.1-.2-.149-.3a103.124,103.124,0,0,0-15.711-23.3q-1.385-1.516-2.851-2.962c-.072-.075-.147-.148-.225-.221a34.327,34.327,0,0,1-.114-6.9c.042-.5.1-1,.16-1.492.03-.26.068-.518.108-.774h0c.016-.126.036-.249.056-.372s.044-.257.066-.384c.011-.073.025-.143.039-.213.039-.225.084-.451.132-.673s.085-.416.131-.624c.122-.561.262-1.12.416-1.673.041-.152.085-.3.129-.453.05-.176.1-.35.161-.524.058-.2.122-.391.186-.585a1.4,1.4,0,0,1,.047-.139c.078-.24.159-.478.247-.715.014-.046.029-.086.046-.129.084-.239.175-.476.269-.714a.31.31,0,0,1,.028-.074c.085-.224.173-.445.268-.665.031-.077.063-.158.095-.232.1-.226.194-.447.295-.668q.194-.438.408-.871c.089-.191.184-.384.283-.574.117-.231.236-.463.36-.689q.1-.191.2-.376.091-.176.193-.346.367-.656.772-1.294c.128-.209.262-.414.4-.619.24-.37.489-.732.744-1.087.078-.109.153-.218.234-.328.158-.22.324-.437.49-.653.11-.144.225-.29.338-.432.185-.238.374-.471.57-.7.149-.181.3-.363.459-.539.131-.153.267-.3.4-.453q.337-.375.686-.738.231-.241.465-.473a1.152,1.152,0,0,1,.091-.091c.165-.166.331-.33.5-.491a.347.347,0,0,1,.028-.025c.178-.172.359-.339.542-.507s.385-.348.582-.519c.6-.525,1.212-1.025,1.849-1.505q.247-.19.5-.372l.094-.068c.18-.13.357-.257.538-.381q.388-.273.789-.531c.206-.136.415-.27.625-.4.228-.144.454-.282.688-.419s.444-.259.668-.384l.024-.015c.452-.254.91-.5,1.376-.729s.95-.465,1.435-.682.979-.42,1.475-.615a34.555,34.555,0,0,1,16.721-2.084c.263.033.527.069.789.108.239.036.473.072.711.114.057.008.111.017.165.029.19.032.377.067.566.105s.389.077.581.117c.144.031.289.064.433.094a34.261,34.261,0,0,1,26.454,28.75Z" transform="translate(-1603.452 -602.338)" fill="#d39333" opacity="0.19"/>
      <path id="Trazado_621843-5" data-name="Trazado 621843" d="M1670.368,621.368a34.079,34.079,0,0,0-52.8,22.619c-.052.3-.1.6-.137.9q-.171,1.222-.246,2.467a34.079,34.079,0,0,0,.256,6.85q.042.319.093.636-1.385-1.516-2.851-2.962a34.091,34.091,0,0,1-.2-7c.058-.768.144-1.534.254-2.29.046-.324.1-.647.154-.97a34.163,34.163,0,0,1,18.226-24.577q.706-.356,1.435-.682t1.475-.615a34.262,34.262,0,0,1,16.72-2.084c.263.033.527.069.789.108.24.035.474.072.711.114.057.008.111.017.165.029.19.032.378.067.566.105s.389.077.581.117c.144.03.289.064.433.094A34.135,34.135,0,0,1,1670.368,621.368Z" transform="translate(-1603.819 -602.324)" fill="#cc820a"/>
      <path id="Trazado_621844-5" data-name="Trazado 621844" d="M1726.394,663.316a34.095,34.095,0,0,1-39.67,38.236c-.358-.06-.712-.129-1.063-.2q-1.07-.225-2.116-.514a34.112,34.112,0,0,1-8.772-3.835c-.067-.143-.14-.287-.213-.431-.048-.1-.1-.2-.149-.3a33.766,33.766,0,0,0,8.373,2.988c.724.157,1.455.287,2.193.4.321.047.644.087.969.124a34.329,34.329,0,0,0,14.832-1.546c.2-.066.406-.137.6-.211a34.07,34.07,0,0,0,10.434-58.2c.336.229.665.463.989.7A33.951,33.951,0,0,1,1726.394,663.316Z" transform="translate(-1644.983 -620.448)" fill="#f4c83d"/>
      <g id="Grupo_879056-5" data-name="Grupo 879056" transform="translate(26.993 19.699)">
        <g id="Grupo_879052-5" data-name="Grupo 879052" transform="translate(2.008 1.543)">
          <g id="Grupo_879050-5" data-name="Grupo 879050" transform="translate(0 5.802)">
            <path id="Trazado_621845-5" data-name="Trazado 621845" d="M1707.975,689.338a11.86,11.86,0,0,1-.3,6.849,12.525,12.525,0,0,1-4.317,5.738,20.7,20.7,0,0,1-8.012,3.618,19.376,19.376,0,0,1-10.13.093,13.1,13.1,0,0,1-5.369-3.185,9.872,9.872,0,0,1-2.9-4.737,3.576,3.576,0,0,1,2.726-4.366,3.123,3.123,0,0,1,2.327.295,6.508,6.508,0,0,1,2.059,2.032,16.44,16.44,0,0,0,2.371,2.752,6.766,6.766,0,0,0,2.952,1.492,9.26,9.26,0,0,0,4.353-.176,9.648,9.648,0,0,0,5.36-3.024,5.1,5.1,0,0,0,1.229-4.647,4.476,4.476,0,0,0-1.953-2.894,7.908,7.908,0,0,0-3.53-1.126q-2.045-.191-5.382-.16a38.034,38.034,0,0,1-7.649-.626,11.825,11.825,0,0,1-5.4-2.537,9.668,9.668,0,0,1-3.039-5.3,10.045,10.045,0,0,1,.394-6.191,11.51,11.51,0,0,1,4.2-5.1,21.6,21.6,0,0,1,7.565-3.24,20.085,20.085,0,0,1,6.479-.6,13.591,13.591,0,0,1,4.958,1.34,10.242,10.242,0,0,1,3.3,2.516,7.413,7.413,0,0,1,1.568,3,3.871,3.871,0,0,1-.4,2.8,3.3,3.3,0,0,1-2.237,1.74,2.969,2.969,0,0,1-2.244-.188,9.454,9.454,0,0,1-2.076-1.871,10.532,10.532,0,0,0-3.4-2.861q-1.8-.887-5.128-.092a8.585,8.585,0,0,0-4.651,2.544,4.056,4.056,0,0,0-1.113,3.709,3.379,3.379,0,0,0,1.13,1.884,5.558,5.558,0,0,0,2.124,1.053,12.144,12.144,0,0,0,2.512.421c.823.048,2.176.085,4.052.111a61.483,61.483,0,0,1,6.431.277,18.944,18.944,0,0,1,5.134,1.185,9.624,9.624,0,0,1,3.761,2.687A11.244,11.244,0,0,1,1707.975,689.338Z" transform="translate(-1673.055 -664.238)" fill="#cc820a"/>
          </g>
          <g id="Grupo_879051-5" data-name="Grupo 879051" transform="translate(7.64)">
            <path id="Trazado_621846-5" data-name="Trazado 621846" d="M1714.911,697.224l-4.2,1a1.366,1.366,0,0,1-1.646-1.011l-11.649-48.763a1.367,1.367,0,0,1,1.01-1.646l4.2-1a1.366,1.366,0,0,1,1.646,1.011l11.649,48.763A1.364,1.364,0,0,1,1714.911,697.224Z" transform="translate(-1697.376 -645.767)" fill="#cc820a"/>
          </g>
        </g>
        <g id="Grupo_879055-5" data-name="Grupo 879055">
          <g id="Grupo_879053-5" data-name="Grupo 879053" transform="translate(0 5.802)">
            <path id="Trazado_621847-5" data-name="Trazado 621847" d="M1701.582,684.427a11.858,11.858,0,0,1-.305,6.849,12.523,12.523,0,0,1-4.317,5.738,20.7,20.7,0,0,1-8.012,3.618,19.378,19.378,0,0,1-10.13.093,13.1,13.1,0,0,1-5.37-3.185,9.872,9.872,0,0,1-2.9-4.737,3.576,3.576,0,0,1,2.726-4.366,3.124,3.124,0,0,1,2.328.295,6.507,6.507,0,0,1,2.058,2.032,16.445,16.445,0,0,0,2.371,2.752,6.768,6.768,0,0,0,2.951,1.492,9.263,9.263,0,0,0,4.353-.176,9.65,9.65,0,0,0,5.36-3.024,5.1,5.1,0,0,0,1.229-4.647,4.474,4.474,0,0,0-1.953-2.894,7.911,7.911,0,0,0-3.531-1.126q-2.045-.191-5.382-.16a38.049,38.049,0,0,1-7.649-.626,11.823,11.823,0,0,1-5.4-2.537,9.667,9.667,0,0,1-3.039-5.3,10.045,10.045,0,0,1,.394-6.191,11.5,11.5,0,0,1,4.2-5.1,21.6,21.6,0,0,1,7.565-3.24,20.086,20.086,0,0,1,6.479-.6,13.592,13.592,0,0,1,4.957,1.34,10.242,10.242,0,0,1,3.3,2.516,7.414,7.414,0,0,1,1.569,3,3.874,3.874,0,0,1-.4,2.8,3.3,3.3,0,0,1-2.237,1.74,2.969,2.969,0,0,1-2.244-.188,9.439,9.439,0,0,1-2.076-1.871,10.53,10.53,0,0,0-3.4-2.861q-1.8-.887-5.128-.092a8.586,8.586,0,0,0-4.651,2.544,4.056,4.056,0,0,0-1.113,3.709,3.378,3.378,0,0,0,1.131,1.884,5.557,5.557,0,0,0,2.123,1.053,12.133,12.133,0,0,0,2.512.421c.823.048,2.176.085,4.052.111a61.5,61.5,0,0,1,6.432.277,18.947,18.947,0,0,1,5.134,1.185,7.649,7.649,0,0,1,3.172,2.613A12.2,12.2,0,0,1,1701.582,684.427Z" transform="translate(-1666.662 -659.327)" fill="#f4c83d"/>
          </g>
          <g id="Grupo_879054-5" data-name="Grupo 879054" transform="translate(7.64)">
            <path id="Trazado_621848-5" data-name="Trazado 621848" d="M1708.518,692.313l-4.2,1a1.366,1.366,0,0,1-1.646-1.011l-11.649-48.763a1.367,1.367,0,0,1,1.011-1.646l4.2-1a1.367,1.367,0,0,1,1.646,1.011l11.649,48.763A1.364,1.364,0,0,1,1708.518,692.313Z" transform="translate(-1690.982 -640.856)" fill="#f4c83d"/>
          </g>
        </g>
      </g>
    </g>
    <path id="Trazado_621849" data-name="Trazado 621849" d="M1854.084,670.108c-2.988,5.087-8.942,21.537.528,19.085s2.326-8.7,2.326-8.7l-1.772-7.288Z" transform="translate(-835.505 -423.681)" fill="#1f1f39" opacity="0.15"/>
    <path id="Trazado_621850" data-name="Trazado 621850" d="M1781.221,205.61v0c-2.418-.6-4.807-1.171-7.23-1.683-.143-.029-.29-.067-.433-.094-3.18-.671-6.418-1.3-9.627-.659-3.658.724-18.513,5.678-25.808,11.842-10.7,14.412-39.552,33.943-48.547,40.084-10.182,6.944-34.273,28.227-41.523,29.174-6.03,1.049-3.811-6.5-2.724-10.249,1.033-3.894,1.56-7.406,3.84-10.888,4.132-7.048,12.221-16.462,20.26-24.311,10.773-10.517,13.147-24.026-3.731-27.027-12.058-2.583-31.044,12.434-47.817,31.466q-.6.683-1.2,1.376-2.16.076-4.247.313a42.921,42.921,0,0,0-8.181,1.755c-8.013,2.556-16.135,9.419-20.261,21.318-.72,2.536-.9-1.067.957-7.911a87.6,87.6,0,0,1,12.661-26.611c17.985-25.786,29.056-54,40.574-55.5s26.576-10.675,56.789-18.528,26.939-4.825,76.926-10.7c53.485-1.759,180.774,21.658,244.357,28.329l1.25,101.445C1969.684,259.449,1840.748,221.59,1781.221,205.61Z" transform="translate(-628.945 -18.76)" fill="#efa88f"/>
    <path id="Trazado_621851" data-name="Trazado 621851" d="M2468.62,190.969a2.072,2.072,0,0,0,.133.165,1.235,1.235,0,0,0,.385.294c.028.013.056.025.085.036.114.043.32.113.616.212.029.011.061.021.092.029l.417.135s0,0,0,0c.153.049.32.1.5.16h0c.135.041.279.086.43.135,0,0,0,0,0,0,.1.032.2.062.311.1,0,0,0,0,0,0l1.057.328s0,0,0,0q.959.293,2.159.662a.011.011,0,0,0,.01,0c.155.048.317.1.48.149l.009,0c.165.05.331.1.5.153.088.029.18.056.271.082q2.11.642,4.8,1.457c.117.038.235.072.355.107.222.065.445.135.673.2,28.881,8.731,156.116,51.9,224.57,73.966l-3.539-112.784c-48.553-4.944-175.4-28.563-199.859-29.282-13.013-.385-20.838.033-21.584,1.471a29.055,29.055,0,0,0-1.238,2.908c-3.8,10.074-11.022,37.13-12.267,51.165a28.917,28.917,0,0,0-.048,6.067v0c.01.072.021.143.033.212s.018.127.032.186.02.117.033.175a.334.334,0,0,0,.01.048c.016.083.034.166.055.243A3.593,3.593,0,0,0,2468.62,190.969Z" transform="translate(-1315.681 -2.038)" fill="#fff"/>
    <path id="Trazado_621852" data-name="Trazado 621852" d="M2531.176,199.063v0c.1.048.3.128.59.237,0,0,0,0,0,0,.161.06.349.129.566.207.089.031.18.065.277.1l.3.1c.054.019.108.038.163.059l.337.117.182.064c.121.043.246.085.376.129l.2.072c.2.07.41.141.63.216l0,0,.451.155a0,0,0,0,1,0,0l.478.163c.164.054.333.113.5.172.221.075.449.154.686.232l.969.328.6.2.311.105.634.213c.215.072.435.145.658.221l.54.179c2.226.746,4.806,1.6,7.713,2.565.239.078.479.16.722.237l1.117.372c.249.082.5.165.752.248q1.15.378,2.361.778c.264.088.532.175.8.264a0,0,0,0,1,0,0l.815.266,1.477.486.847.279,2.977.978.9.294,0,0c.3.1.6.2.91.3.271.088.543.176.819.267.388.126.779.255,1.171.384a0,0,0,0,1,0,0l1.19.389,1.208.4a0,0,0,0,1,0,0c.61.2,1.222.4,1.844.6q1.991.651,4.066,1.33.837.271,1.689.55l1.717.559c.313.1.629.205.944.309q.672.218,1.351.44a0,0,0,0,1,0,0q5.439,1.773,11.34,3.692l1.478.481,3,.974q2.263.738,4.587,1.49,1.547.5,3.117,1.011l2.225.722,1.883.613c29.236,9.48,118.055,40.721,152.04,51.628l-.49-121.416c-64.461-6.9-203.625-31.221-205.263-29.2a4.676,4.676,0,0,0-.391.6,54.837,54.837,0,0,0-2.495,5.582h0a466.074,466.074,0,0,0-16.04,49.316c-.979,3.88-1.756,7.409-2.241,10.344-.172,1.028-.3,1.985-.4,2.858v0c-.013.132-.027.261-.038.387-.026.257-.047.5-.062.742-.026.36-.043.7-.05,1.021-.006.215-.008.423,0,.619s.01.387.021.568c0,.07.008.138.015.2s.014.156.021.233c.006.049.011.1.018.14s.011.1.021.145c.008.072.021.143.035.212a.9.9,0,0,0,.022.1c.008.048.019.093.031.138A1.681,1.681,0,0,0,2531.176,199.063Z" transform="translate(-1364.145)" fill="#0267a4"/>
    <path id="Trazado_621853" data-name="Trazado 621853" d="M2391.058,377.708l.229-.042c.115-.021.228-.04.342-.056q.109-.02.221-.033c.08-.013.161-.022.241-.033l.317-.036c.088-.009.174-.015.262-.021s.178-.014.267-.018c.2-.015.411-.024.617-.027.155,0,.309,0,.463,0,.2,0,.4,0,.6.012.169.007.337.016.508.028.1,0,.2.014.309.024.9.072,1.822.2,2.8.376.26.045.524.1.792.148s.542.106.819.164l.843.177h0c.144.032.288.063.431.093,0,0,0,0,0,0,.292.062.586.128.887.194l1.4.306c.054.012.113.023.174.038l.271.062c.11.024.229.052.357.082h0l.166.038c.054.013.109.025.164.039.111.024.227.053.347.081l.424.1c.2.048.415.1.638.154.123.029.252.061.383.095.066.013.133.031.2.048s.109.025.163.039c.123.029.247.06.375.092q.6.146,1.278.315v0c.01.072.021.143.033.212s.018.127.032.186.02.117.032.175a.333.333,0,0,0,.01.048c.016.083.034.166.055.243a3.6,3.6,0,0,0,.5,1.216c.044.059.087.115.133.165a1.233,1.233,0,0,0,.385.294.7.7,0,0,0,.086.038c.114.043.32.113.615.21.029.011.061.021.092.029.125.042.264.088.417.135,0,0,0,0,0,0,.154.051.322.1.5.16h0l.43.135s0,0,0,0c.1.034.2.065.312.1,0,0,0,0,0,0,.323.1.675.211,1.057.328,0,0,0,0,0,0q.957.3,2.159.662a.012.012,0,0,0,.01,0c.156.05.318.1.48.149a.016.016,0,0,0,.009,0c.165.052.33.1.5.153.088.029.18.056.271.082,1.407.43,3.011.915,4.8,1.457.117.038.235.072.355.107l.671.206h0c-.013.132-.027.261-.04.388-.025.256-.045.5-.062.742-.025.358-.041.7-.051,1.021-.006.215-.006.422,0,.619s.01.387.021.568c0,.07.008.138.015.2s.014.156.021.233c.006.049.011.1.018.14s.011.1.021.145c.009.072.021.143.035.212a.9.9,0,0,0,.022.1c.008.048.019.093.031.138a1.682,1.682,0,0,0,.763,1.21c.1.051.3.129.591.239,0,0,0,0,0,0l.566.207c.089.031.18.065.276.1l.3.1c.054.019.108.038.163.059l.336.117.182.064c.121.043.246.085.375.129l.2.072.63.216,0,0,.451.155a0,0,0,0,1,0,0l.478.163c.164.054.333.114.5.172.223.074.45.151.686.232l.969.328.6.2.311.105.633.213c.215.072.435.145.658.221.178.059.357.12.54.179,2.226.746,4.806,1.6,7.713,2.565.239.078.479.16.722.237l1.117.372c.249.082.5.165.752.248q1.15.378,2.361.778c.264.088.532.175.8.264a0,0,0,0,1,0,0l.814.266,1.477.486.847.279,2.978.978.9.294,0,0c.3.1.6.2.91.3.271.088.543.176.819.267.388.126.779.255,1.171.384a0,0,0,0,1,0,0l1.191.389,1.207.4a0,0,0,0,1,0,0c.61.2,1.222.4,1.844.6q1.99.651,4.066,1.33.837.271,1.69.55l1.717.559c.313.1.629.205.944.309q.673.218,1.351.44a0,0,0,0,1,0,0q5.439,1.773,11.34,3.692l1.478.481q1.488.482,3,.974l4.587,1.49,3.117,1.011,2.225.721,1.882.613c29.236,9.48,118.055,41.94,152.04,52.847l-16.766-55.953c-58.677-10.681-170.547-40.306-207.916-40.383-6.086-.014-11.632.194-16.553.645C2401.2,374.738,2395.331,375.921,2391.058,377.708Z" transform="translate(-1256.073 -193.296)" fill="#1f1f39" opacity="0.16"/>
    <path id="Trazado_621854" data-name="Trazado 621854" d="M1882.417,684.782c6.518-.746,7.509-3.325,8.911-11.358.655,7.671,1.658,10.6,8.24,11.632-5.813,2.041-7.857,2.783-9.1,11.6C1889.268,687.666,1888.022,686.843,1882.417,684.782Z" transform="translate(-861.087 -426.256)" fill="#fff"/>
    <path id="Trazado_621855" data-name="Trazado 621855" d="M1608.989,635.292c5.038-.842,5.705-2.887,6.473-9.19.817,5.938,1.715,8.174,6.875,8.714-4.439,1.82-6,2.479-6.611,9.385C1614.432,637.259,1613.43,636.669,1608.989,635.292Z" transform="translate(-648.756 -389.508)" fill="#fff"/>
    <rect id="Rectángulo_327537" data-name="Rectángulo 327537" width="27.597" height="31.668" transform="translate(1073.321 350.661)" fill="#98d4e2"/>
  </g>
</svg>
