<svg xmlns="http://www.w3.org/2000/svg" width="118" height="118" viewBox="0 0 118 118">
  <g id="Grupo_878008" data-name="Grupo 878008" transform="translate(-480.829 -16447.848)">
    <g id="Elipse_6899" data-name="Elipse 6899" transform="translate(480.829 16447.848)" fill="#fff" stroke="#ffb338" stroke-width="3">
      <circle cx="59" cy="59" r="59" stroke="none"/>
      <circle cx="59" cy="59" r="57.5" fill="none"/>
    </g>
    <g id="Grupo_870573" data-name="Grupo 870573" transform="translate(502.791 16464.93)">
      <path id="Trazado_609200" data-name="Trazado 609200" d="M53.787,84.907a19.29,19.29,0,0,1-15.03,3.612c-6.008-.864-11.815-3.641-17.7-5.675C16.616,81.309,12.013,80.2,7.5,80.658c1.916-16.9,6.994-34.623,10.231-40.121-1.188-5.672-3.086-13.383-3.464-16.945-.381-3.581-.119-12.592-.027-15.306a.813.813,0,0,1,.813-.786H17.93a.813.813,0,0,1,.813.813v3.122a11.6,11.6,0,0,0,11.64,11.6A11.712,11.712,0,0,0,41.942,11.264V8.314a.813.813,0,0,1,.813-.814h2.878a.813.813,0,0,1,.813.786c.091,2.715.354,11.725-.027,15.307C46.045,27.106,44.2,34.61,43,40.3c3.495,5.717,9.305,26.311,10.784,44.6Zm0,0" transform="translate(-6.273 -6.275)" fill="#ffb338"/>
      <path id="Trazado_609201" data-name="Trazado 609201" d="M203.187,40.3c1.192-5.693,3.04-13.2,3.415-16.711.381-3.581.119-12.592.027-15.306a.813.813,0,0,0-.813-.786h-2.878a.813.813,0,0,0-.813.813v2.95c0,.12-.006.24-.01.36.08,3.84.138,9.352-.108,11.969C201.678,27.1,200.047,34.61,199,40.3c3.082,5.717,8.207,26.311,9.511,44.6a14.889,14.889,0,0,1-8.359,3.755,18.958,18.958,0,0,0,13.822-3.755c-1.479-18.293-7.289-38.886-10.783-44.6Zm0,0" transform="translate(-166.456 -6.274)" fill="#eb6f2d"/>
      <path id="Trazado_609202" data-name="Trazado 609202" d="M17.681,208.1l.05.234c-3.237,5.5-8.315,23.225-10.231,40.121,4.513-.462,9.116.651,13.558,2.186,5.884,2.034,11.691,4.81,17.7,5.675a19.29,19.29,0,0,0,15.03-3.612C52.309,234.416,46.5,213.822,43,208.105Zm0,0" transform="translate(-6.273 -174.076)" fill="#b4e6ff"/>
      <path id="Trazado_609203" data-name="Trazado 609203" d="M203.187,208.1H199c3.082,5.717,8.207,26.311,9.511,44.6a14.881,14.881,0,0,1-8.359,3.755,18.942,18.942,0,0,0,13.822-3.755c-.995-12.3-5.951-36.7-10.783-44.6Zm0,0" transform="translate(-166.456 -174.076)" fill="#038a7b"/>
      <path id="Trazado_609204" data-name="Trazado 609204" d="M211.143,247.313c-4.432,0-6.965,3.056-9.613,8.865-2.562,5.619-6.69,12.783-10.958,12.783-2.441,0-3.771-2.058-4.52-3.73a.956.956,0,0,0-1.076-.546c-10.786,2.367-12.008,9.911-12.088,12.647a.967.967,0,0,0,.97,1H193.5a1.291,1.291,0,0,0,1.228-.88c2.422-7.326,10.152-14.841,13.306-14.841.806.85.806,4.5.806,6.4v8.337a.981.981,0,0,0,.981.981h2.031a.981.981,0,0,0,.981-.981v-8.337c0-4.259,3.375-6.907,3.375-11.4,0-6.275-2.418-10.3-5.066-10.3Zm0,0" transform="translate(-144.617 -206.873)" fill="#b1de19"/>
      <path id="Trazado_609206" data-name="Trazado 609206" d="M271.488,67.714l-3.652,8.6a1.055,1.055,0,0,0,.183,1.115l13.422,15.066a1.055,1.055,0,0,0,1.576,0l13.422-15.066a1.057,1.057,0,0,0,.183-1.115l-3.653-8.6A1.055,1.055,0,0,0,292,67.07H272.46a1.055,1.055,0,0,0-.972.643Zm0,0" transform="translate(-223.969 -56.104)" fill="#c8e7f7"/>
      <path id="Trazado_609207" data-name="Trazado 609207" d="M387.663,76.344H378.15a.114.114,0,0,0,0-.026l-1.24-8.6c-.056-.388-.187-.641-.331-.641h6.45a1.06,1.06,0,0,1,.973.641l3.652,8.6A.128.128,0,0,1,387.663,76.344Zm0,0" transform="translate(-315 -56.11)" fill="#b6e1fd"/>
      <path id="Trazado_609208" data-name="Trazado 609208" d="M279.288,67.078c-.143,0-.275.252-.33.641l-1.24,8.6a.116.116,0,0,0,0,.026H268.2a.123.123,0,0,1,.01-.026l3.652-8.6a1.059,1.059,0,0,1,.973-.641Zm0,0" transform="translate(-224.346 -56.11)" fill="#def6ff"/>
      <path id="Trazado_609209" data-name="Trazado 609209" d="M370.5,124.83,357.082,139.9a1.055,1.055,0,0,1-.788.353c.1,0,.195-.118.267-.353l4.559-15.067a2.705,2.705,0,0,0,.064-1.088H370.7A1.056,1.056,0,0,1,370.5,124.83Zm0,0" transform="translate(-298.032 -103.508)" fill="#b6e1fd"/>
      <path id="Trazado_609210" data-name="Trazado 609210" d="M335.961,124.83,331.4,139.9c-.072.235-.169.353-.266.353s-.2-.118-.269-.353l-4.559-15.067a2.753,2.753,0,0,1-.063-1.088h9.781A2.717,2.717,0,0,1,335.961,124.83Zm0,0" transform="translate(-272.874 -103.508)" fill="#add9ea"/>
      <path id="Trazado_609211" data-name="Trazado 609211" d="M66.525,39.215c-5.279,0-8.106,3.831-10.729,9.583-3.5,7.668-7.082,12.065-9.841,12.065-.508,0-2.055,0-3.4-3.005A2.192,2.192,0,0,0,40.1,56.614c-4.963,1.089-8.6,3.346-10.82,6.708a13.844,13.844,0,0,0-2.232,7.1,2.194,2.194,0,0,0,2.2,2.265H45.66c.232,1.833.425,3.634.576,5.376a18.4,18.4,0,0,1-13.577,2.97c-4.19-.6-8.415-2.219-12.5-3.781-1.624-.621-3.3-1.263-4.971-1.839-4.991-1.725-8.943-2.471-12.566-2.349C4.557,57.394,9.138,41,12.3,35.257h5.6C17.479,37.5,17,40.846,16.52,44.9a1.227,1.227,0,1,0,2.436.287c.507-4.3,1.014-7.775,1.449-9.927h7.768c.433,2.159.938,5.619,1.445,9.927a1.227,1.227,0,1,0,2.436-.287c-.478-4.056-.957-7.392-1.383-9.641h5.35c1.957,3.588,4.475,11.358,6.528,20.2a1.226,1.226,0,1,0,2.389-.554c-2.14-9.218-4.82-17.374-6.911-21.079.337-1.59.725-3.33,1.1-5.018C40.1,24.46,41.1,19.97,41.364,17.45c.39-3.661.125-12.772.034-15.477A2.032,2.032,0,0,0,39.359,0H36.481a2.042,2.042,0,0,0-2.04,2.04v2.95A10.479,10.479,0,0,1,24.1,15.536h-.036A10.37,10.37,0,0,1,13.7,5.163V2.041A2.043,2.043,0,0,0,11.655,0H8.778A2.032,2.032,0,0,0,6.739,1.972c-.052,1.559-.174,5.584-.174,9.287a1.226,1.226,0,0,0,2.453,0c0-3.384.1-7.046.159-8.806h2.065V5.163A12.823,12.823,0,0,0,24.113,17.989a12.936,12.936,0,0,0,12.781-13V2.454H38.96c.1,3.067.321,11.391-.034,14.736-.254,2.383-1.239,6.8-2.192,11.078-.338,1.517-.685,3.076-1,4.536H29.217c-.035,0-.071,0-.107,0h-9.7c-.039,0-.078,0-.118,0H12.4c-.3-1.39-.629-2.872-.95-4.316-.973-4.365-1.979-8.879-2.236-11.3-.031-.294-.06-.653-.087-1.1a1.226,1.226,0,0,0-2.448.149c.029.484.061.879.1,1.21.273,2.558,1.293,7.141,2.281,11.572.379,1.7.77,3.456,1.106,5.042-1.662,3.026-3.65,8.686-5.5,15.674A176.905,176.905,0,0,0,.007,74.248a1.227,1.227,0,0,0,1.344,1.359c3.673-.376,7.691.279,13.032,2.125,1.63.563,3.291,1.2,4.9,1.811,4.213,1.61,8.569,3.275,13.029,3.917a25.161,25.161,0,0,0,3.585.263A19.667,19.667,0,0,0,48.271,79.6a1.226,1.226,0,0,0,.465-1.064c-.153-1.887-.355-3.849-.6-5.848h.751a2.513,2.513,0,0,0,2.393-1.722,27.733,27.733,0,0,1,6.107-9.712,16.838,16.838,0,0,1,5.325-4.129A28.044,28.044,0,0,1,63,62.143V70.48A2.21,2.21,0,0,0,65.2,72.688h2.031a2.211,2.211,0,0,0,2.208-2.208V62.143a11.485,11.485,0,0,1,1.533-5.012,14.119,14.119,0,0,0,1.842-6.386c0-6.681-2.646-11.53-6.292-11.53Zm2.24,16.853a13.565,13.565,0,0,0-1.775,6.074v8.092H65.449V62.143c0-3.919-.182-6.235-1.143-7.248a1.226,1.226,0,0,0-.89-.382c-2.84,0-6.7,3.872-7.821,5.059A30.262,30.262,0,0,0,48.946,70.2a.067.067,0,0,1-.064.039H29.506c.153-2.852,1.591-9.045,10.9-11.177,1.32,2.825,3.186,4.257,5.549,4.257,3.928,0,7.989-4.542,12.073-13.5,2.743-6.016,4.966-8.147,8.5-8.147,1.61,0,3.84,3.154,3.84,9.077a12,12,0,0,1-1.6,5.323Zm0,0" transform="translate(0.001 -0.002)"/>
      <path id="Trazado_609212" data-name="Trazado 609212" d="M291.5,69.595c-.008-.021-.017-.042-.026-.063l-3.642-8.573a2.278,2.278,0,0,0-2.1-1.389H266.194a2.278,2.278,0,0,0-2.1,1.39l-.457,1.075a1.226,1.226,0,1,0,2.257.959l.413-.972h4.685l-.98,6.788h-6.588l.489-1.153a1.226,1.226,0,1,0-2.257-.959l-1.2,2.833c-.01.02-.018.042-.026.063a2.292,2.292,0,0,0,.411,2.373L274.26,87.034a2.283,2.283,0,0,0,1.69.764h.027a2.283,2.283,0,0,0,1.69-.764l13.422-15.066a2.291,2.291,0,0,0,.412-2.373Zm-21.538,1.912,3.215,10.626L263.5,71.264H269.9c.018.084.038.165.062.243Zm9.288,4.732a1.227,1.227,0,0,0-1.529.819l-1.758,5.81-3.511-11.6h7.023l-.289.956a1.227,1.227,0,0,0,2.348.71l.431-1.423c.024-.077.044-.159.062-.243h6.405l-9.683,10.869,1.321-4.364a1.228,1.228,0,0,0-.819-1.529Zm9.252-7.429h-6.589l-.979-6.788h4.684ZM273.47,62.023h4.987l.979,6.788h-6.946Zm0,0" transform="translate(-217.704 -49.83)"/>
    </g>
  </g>
</svg>
