<svg xmlns="http://www.w3.org/2000/svg" width="715" height="402" viewBox="0 0 715 402">
  <g id="Grupo_1034304" data-name="Grupo 1034304" transform="translate(-11240.332 -695.601)">
    <path id="concept-diversity-inclusion-equality-conceptual-photos" d="M19,0H696a19,19,0,0,1,19,19V383a19,19,0,0,1-19,19H19A19,19,0,0,1,0,383V19A19,19,0,0,1,19,0Z" transform="translate(11240.332 695.601)" fill="#fff"/>
    <g id="Grupo_878982" data-name="Grupo 878982" transform="translate(20001.332 8222.094)">
      <g id="Grupo_878933" data-name="Grupo 878933" transform="translate(-8565.063 -7500.211)">
        <g id="Grupo_878934" data-name="Grupo 878934" transform="translate(86.684 0)">
          <path id="Trazado_621634" data-name="Trazado 621634" d="M927.983,646.661q-2.473,0-4.965-.063l.054-2.1c4.4.112,8.809.072,13.075-.116l.093,2.1C933.533,646.6,930.755,646.661,927.983,646.661Zm-18.16-.835c-4.325-.393-8.738-.932-13.118-1.6l.319-2.074c4.336.666,8.706,1.2,12.988,1.589Zm39.6-.407-.247-2.084c4.362-.517,8.7-1.2,12.9-2.046l.411,2.057C958.239,644.2,953.842,644.9,949.424,645.42Zm-65.714-3.584q-2.193-.469-4.391-.983l.48-2.042q2.176.509,4.35.974Zm91.642-1.633-.585-2.015c4.207-1.222,8.364-2.638,12.354-4.207l.769,1.952C983.839,637.527,979.62,638.963,975.352,640.2Zm24.613-9.706-.955-1.868a126.8,126.8,0,0,0,11.285-6.518l1.143,1.759A128.656,128.656,0,0,1,999.965,630.5Zm22.187-14.436-1.326-1.626a118.149,118.149,0,0,0,9.626-8.78l1.5,1.469A120.009,120.009,0,0,1,1022.152,616.062Zm18.544-18.911-1.652-1.292a117.858,117.858,0,0,0,7.45-10.688l1.784,1.1A119.656,119.656,0,0,1,1040.7,597.151Zm13.912-22.529-1.9-.9a121.728,121.728,0,0,0,4.932-12.063l1.981.688A123.446,123.446,0,0,1,1054.608,574.621Zm8.715-25-2.043-.482c.985-4.178,1.782-8.5,2.369-12.832l2.08.282C1065.132,540.991,1064.322,545.376,1063.322,549.621Zm3.578-26.229-2.1-.091c.095-2.186.142-4.408.142-6.6,0-2.12-.044-4.293-.133-6.459l2.1-.087c.09,2.2.136,4.4.135,6.547C1067.044,518.924,1067,521.175,1066.9,523.392Zm-3.145-26.179c-.512-4.253-1.2-8.6-2.046-12.911l2.059-.4c.855,4.365,1.551,8.761,2.07,13.066Zm-5-25.649c-1.112-4.144-2.39-8.356-3.8-12.518l1.987-.674c1.426,4.2,2.717,8.46,3.841,12.648Zm-8.384-24.778c-1.628-3.987-3.412-8.013-5.3-11.968l1.892-.905c1.907,3.991,3.709,8.055,5.353,12.08Zm-11.279-23.619c-2.075-3.787-4.3-7.593-6.6-11.312l1.783-1.105c2.324,3.751,4.563,7.588,6.656,11.407ZM1025.3,400.9c-2.46-3.55-5.061-7.108-7.73-10.576l1.662-1.28c2.691,3.5,5.312,7.082,7.791,10.662Zm-15.971-20.761c-2.8-3.3-5.735-6.587-8.72-9.779l1.533-1.433c3.007,3.216,5.963,6.53,8.786,9.852ZM991.443,361c-3.1-3.023-6.329-6.028-9.591-8.929l1.395-1.568c3.284,2.923,6.535,5.949,9.661,9Zm-19.576-17.416q-1.234-1-2.481-1.992c-2.585-2.053-5.234-4.086-7.874-6.041l1.248-1.686c2.659,1.969,5.326,4.016,7.931,6.084q1.257,1,2.5,2.008Zm-21.061-15.592c-3.611-2.43-7.324-4.807-11.037-7.063l1.091-1.793c3.738,2.273,7.478,4.667,11.117,7.115Zm-22.388-13.608c-3.843-2.094-7.762-4.112-11.65-6l.915-1.887c3.918,1.9,7.867,3.933,11.738,6.042Zm-23.575-11.42c-4.022-1.712-8.118-3.334-12.177-4.824l.721-1.97c4.093,1.5,8.224,3.137,12.278,4.862Zm-24.587-9.012c-4.186-1.292-8.429-2.477-12.613-3.523l.509-2.036c4.22,1.055,8.5,2.25,12.722,3.552Zm-115.883-2.239-.655-1.992c4.132-1.361,8.422-2.562,12.749-3.574l.478,2.043C772.678,289.187,768.448,290.373,764.374,291.713Zm90.485-4.1c-4.3-.819-8.647-1.514-12.924-2.068l.268-2.082c4.32.559,8.71,1.262,13.048,2.089Zm-65.082-1.87-.309-2.076c4.295-.641,8.719-1.127,13.15-1.447l.15,2.092C798.391,284.627,794.021,285.109,789.777,285.742Zm39.133-1.472c-4.314-.285-8.656-.429-12.906-.429h-.169v-2.1h.187c4.277,0,8.666.146,13.028.433Z" transform="translate(-763.719 -281.741)" fill="#b5d6ea"/>
        </g>
        <g id="Grupo_878935" data-name="Grupo 878935" transform="translate(0 65.891)">
          <path id="Trazado_621635" data-name="Trazado 621635" d="M745.526,571.722c-3.132-3.078-6.227-6.262-9.2-9.467l1.539-1.428c2.95,3.182,6.024,6.344,9.133,9.4Zm-17.947-19.356c-2.843-3.372-5.622-6.838-8.262-10.3l1.668-1.272c2.619,3.434,5.377,6.872,8.2,10.219Zm-16.007-20.992c-2.491-3.625-4.912-7.351-7.2-11.073l1.789-1.1c2.264,3.692,4.665,7.387,7.135,10.984Zm-13.8-22.511c-2.107-3.885-4.117-7.85-5.974-11.783l1.9-.9c1.84,3.9,3.832,7.828,5.92,11.678ZM686.5,484.973c-1.651-4.1-3.185-8.272-4.562-12.4l1.99-.664c1.363,4.092,2.883,8.224,4.519,12.283ZM678.171,459.9c-1.127-4.3-2.108-8.638-2.914-12.9l2.061-.391c.8,4.212,1.767,8.5,2.883,12.757Zm-4.9-25.975c-.5-4.417-.832-8.857-.98-13.194l2.1-.072c.146,4.283.472,8.666.969,13.029Zm1.22-26.328-2.1-.107c.228-4.444.657-8.879,1.273-13.183l2.078.3C675.134,398.845,674.712,403.217,674.488,407.6Zm3.73-25.8-2.036-.5a128.9,128.9,0,0,1,3.808-12.7l1.976.708A127.034,127.034,0,0,0,678.218,381.794Zm8.791-24.506-1.887-.917c.841-1.732,1.729-3.458,2.643-5.131l1.841,1C688.71,353.889,687.836,355.585,687.009,357.288Z" transform="translate(-672.288 -351.24)" fill="#b5d6ea"/>
        </g>
      </g>
      <g id="Grupo_878934-2" data-name="Grupo 878934" transform="translate(-8461.026 -7424.429)">
        <g id="Grupo_878937" data-name="Grupo 878937" transform="translate(0 6.365)">
          <path id="Trazado_621636" data-name="Trazado 621636" d="M804.391,396.489H787.757a5.74,5.74,0,0,1-5.734-5.734V374.121a5.74,5.74,0,0,1,5.734-5.734h4.265v2.4h-4.265a3.337,3.337,0,0,0-3.333,3.332v16.634a3.337,3.337,0,0,0,3.333,3.333h16.634a3.337,3.337,0,0,0,3.333-3.333v-4.587h2.4v4.587A5.741,5.741,0,0,1,804.391,396.489Z" transform="translate(-782.023 -368.387)" fill="#b5d6ea"/>
        </g>
        <path id="Trazado_621637" data-name="Trazado 621637" d="M812.437,361.673H795.8a4.535,4.535,0,0,0-4.535,4.534V382.84a4.535,4.535,0,0,0,4.535,4.535h16.633a4.535,4.535,0,0,0,4.535-4.535V366.207A4.535,4.535,0,0,0,812.437,361.673Zm-.819,14.486h-5.87v5.957h-3.3v-5.957h-5.826v-3.271h5.826v-5.957h3.3v5.957h5.87Z" transform="translate(-782.503 -361.673)" fill="#b5d6ea"/>
      </g>
      <path id="Trazado_621634-2" data-name="Trazado 621634" d="M687.763,562.682H684.3a23.165,23.165,0,0,0-3.348-8.057l2.456-2.456a4.64,4.64,0,0,0-6.562-6.562l-2.456,2.466a22.7,22.7,0,0,0-8.057-3.348v-3.47a4.637,4.637,0,0,0-9.274,0v3.47a22.777,22.777,0,0,0-8.057,3.348l-2.456-2.466a4.64,4.64,0,0,0-6.562,6.562l2.466,2.456a22.777,22.777,0,0,0-3.348,8.057h-3.471a4.637,4.637,0,0,0,0,9.274h3.471a22.7,22.7,0,0,0,3.348,8.057l-2.466,2.456a4.64,4.64,0,0,0,6.562,6.562l2.456-2.456a23.186,23.186,0,0,0,8.057,3.349v3.459a4.637,4.637,0,1,0,9.274,0v-3.459a23.1,23.1,0,0,0,8.057-3.349l2.456,2.456a4.64,4.64,0,0,0,6.562-6.562l-2.456-2.456a23.082,23.082,0,0,0,3.348-8.057h3.46a4.637,4.637,0,1,0,0-9.274Zm-26.057,20.746a16.109,16.109,0,1,1,16.1-16.1A16.126,16.126,0,0,1,661.706,583.428Zm0-30.543a14.435,14.435,0,1,0,14.429,14.44A14.45,14.45,0,0,0,661.706,552.885Zm0,24.316a9.882,9.882,0,1,1,9.876-9.876A9.882,9.882,0,0,1,661.706,577.2Z" transform="translate(-9235.209 -7795.186)" fill="#fff"/>
      <g id="Grupo_878935-2" data-name="Grupo 878935" transform="translate(-8342.931 -7253.625)">
        <path id="Trazado_621639" data-name="Trazado 621639" d="M938.719,591.779l-10.557-29.132L957.295,573.2l-9.566,4.63,10.325,10.325-4.378,4.378L943.35,582.213Z" transform="translate(-907.706 -542.912)" fill="#265173"/>
        <g id="Grupo_878944" data-name="Grupo 878944" transform="translate(0 0)">
          <g id="Grupo_878939" data-name="Grupo 878939" transform="translate(8.427 27.078)">
            <rect id="Rectángulo_327475" data-name="Rectángulo 327475" width="14.203" height="1.906" transform="matrix(0.557, -0.831, 0.831, 0.557, 0, 11.797)" fill="#5aa5d1"/>
          </g>
          <g id="Grupo_878940" data-name="Grupo 878940" transform="translate(0 21.02)">
            <rect id="Rectángulo_327476" data-name="Rectángulo 327476" width="14.203" height="1.905" transform="translate(0 1.524) rotate(-6.159)" fill="#5aa5d1"/>
          </g>
          <g id="Grupo_878941" data-name="Grupo 878941" transform="translate(5.776 5.589)">
            <rect id="Rectángulo_327477" data-name="Rectángulo 327477" width="1.905" height="14.204" transform="matrix(0.693, -0.721, 0.721, 0.693, 0, 1.374)" fill="#5aa5d1"/>
          </g>
          <g id="Grupo_878942" data-name="Grupo 878942" transform="translate(21.79)">
            <rect id="Rectángulo_327478" data-name="Rectángulo 327478" width="14.203" height="1.906" transform="translate(0 14.171) rotate(-86.161)" fill="#5aa5d1"/>
          </g>
          <g id="Grupo_878943" data-name="Grupo 878943" transform="translate(27.515 8.521)">
            <rect id="Rectángulo_327479" data-name="Rectángulo 327479" width="14.203" height="1.906" transform="translate(0 8.38) rotate(-36.157)" fill="#5aa5d1"/>
          </g>
        </g>
      </g>
      <g id="Grupo_878936" data-name="Grupo 878936" transform="translate(-8697.516 -7150.261)">
        <rect id="Rectángulo_327480" data-name="Rectángulo 327480" width="123.607" height="1.896" transform="translate(0 0)" fill="#b5d6ea"/>
      </g>
      <g id="Grupo_878937-2" data-name="Grupo 878937" transform="translate(-8225.682 -7150.261)">
        <rect id="Rectángulo_327481" data-name="Rectángulo 327481" width="123.607" height="1.896" transform="translate(0 0)" fill="#b5d6ea"/>
      </g>
      <path id="Trazado_621635-2" data-name="Trazado 621635" d="M726.7,282.582a34.849,34.849,0,0,0-18.835.33h0a34.755,34.755,0,0,0-16.973,11.268,35.242,35.242,0,0,0-7.9,19.9A34.745,34.745,0,0,0,684.38,326.4c.32,1.07.7,2.142,1.121,3.187a35.084,35.084,0,0,0,19.5,19.3,34.531,34.531,0,0,0,21.771,1.272c.367-.081.732-.171,1.093-.279h.007a35.11,35.11,0,0,0,23.669-42.811c-.059-.223-.123-.448-.19-.673A34.72,34.72,0,0,0,726.7,282.582Zm-.681,2.6a32.579,32.579,0,0,1,9.14,3.969l-5.776,1.725a30.345,30.345,0,0,0-8.361-6.417c-.139-.07-.281-.124-.421-.191A31.959,31.959,0,0,1,726.014,285.179Zm-16.079-.009a15.541,15.541,0,0,1,9.873,1.685,26.624,26.624,0,0,1,6.641,4.893l-13.357,3.99Zm-2.572.775,3.155,10.563-13.346,3.988a27.668,27.668,0,0,1,2.328-6.756A15.942,15.942,0,0,1,707.363,285.945Zm-14.4,9.942A32.15,32.15,0,0,1,697.966,291c-.3.49-.587.99-.857,1.517a31.144,31.144,0,0,0-2.869,8.857l-5.725,1.71A32.3,32.3,0,0,1,692.96,295.886Zm13.027,50.5a32.15,32.15,0,0,1-5.836-3.042l5.91-1.766a32.8,32.8,0,0,0,5.76,5.053,25.25,25.25,0,0,0,3.305,1.9A32.12,32.12,0,0,1,705.986,346.387Zm19.8,1.217c-3.957.747-8.232-.334-12.457-3.2a29.145,29.145,0,0,1-4.386-3.69l13.574-4.055Zm2.576-.762-3.271-10.948,13.565-4.053C737.194,339.07,733.59,344.655,728.36,346.842Zm9.561-5.228a30.134,30.134,0,0,0,3.68-10.654l5.788-1.729A32.656,32.656,0,0,1,737.921,341.614Zm10.653-15.541-6.619,1.978a45.439,45.439,0,0,0-.077-8.221l-2.651.793a42.075,42.075,0,0,1-.112,8.277l-14.8,4.42-2.261-7.568-1.024.305-.242-.432.026.5-1.334.4,2.261,7.568-14.8,4.423a42.537,42.537,0,0,1-4.622-6.863l-2.629.786a46.185,46.185,0,0,0,4.468,6.909l-6.718,2.006a32.265,32.265,0,0,1-9.453-12.773c-.223-.55-.427-1.109-.62-1.671l3.174-.948-1.434-2.375-2.511.75a31.695,31.695,0,0,1,.668-18.073l6.59-1.969a44.683,44.683,0,0,0-.142,6.745c.078,1.43.241,2.87.451,4.312l2.6-.777c-.17-1.232-.306-2.46-.372-3.68a40.991,40.991,0,0,1,.262-7.436l14.63-4.371,2.061,6.9,2.573-.769-2.061-6.9,14.618-4.367a43.513,43.513,0,0,1,6.012,9.352l2.621-.783a46.177,46.177,0,0,0-5.8-9.415l6.618-1.977a31.845,31.845,0,0,1,7.685,8.852l.3-.09.022.668a32.541,32.541,0,0,1,2.405,5.332l-2.206.659.094,2.776,2.883-.862A31.929,31.929,0,0,1,748.574,326.073ZM706.914,314.9l.4,11.891-3.027.9-3.762-6.211c-.172-.273-.56-.976-1.158-2.109l.156,2.432.224,7.245-3.027.9-6.145-10.175,2.7-.806,4.328,7.88-.081-.794-.109-1.269-.2-7,3.068-.917,3.624,5.972c.2.333.539.939.994,1.823l-.112-1.425-.531-7.557Zm18.637-9.2.574,15.473-3.562,1.064-4.429-7.727c-.529-.907-1.029-1.868-1.513-2.89.1.945.169,1.654.207,2.159s.245,3.819.618,9.987l-3.563,1.064L705.9,311.571l3.047-.91,4.841,8.658,1.141,2.092c-.095-.992-.18-1.953-.25-2.863s-.281-4.054-.6-9.419l3.367-1.006,4.095,7.1c.317.534.938,1.75,1.877,3.656l-.093-1.251-.166-2.508-.648-8.509Zm17.285-1.53.4,11.891-3.027.9-3.762-6.211c-.172-.274-.561-.977-1.158-2.11l.154,2.433.235,7.241-3.027.9-6.146-10.175,2.688-.8,4.328,7.88-.081-.794-.1-1.27-.2-6.993,3.068-.917,3.624,5.972c.2.333.538.938.993,1.822l-.111-1.424-.521-7.56Z" transform="translate(-9237.903 -7781.937)" fill="#b5d6ea"/>
      <g id="Grupo_878938" data-name="Grupo 878938" transform="translate(-8536.635 -7181.832)">
        <g id="Grupo_878948" data-name="Grupo 878948" transform="translate(0 0)">
          <path id="Trazado_621641" data-name="Trazado 621641" d="M714.952,642.87a12.666,12.666,0,1,1,5.967-1.509A12.7,12.7,0,0,1,714.952,642.87Zm-.035-23.452a10.791,10.791,0,1,0,9.528,5.688A10.721,10.721,0,0,0,714.917,619.418Z" transform="translate(-702.274 -617.556)" fill="#b5d6ea"/>
        </g>
        <g id="Grupo_878949" data-name="Grupo 878949" transform="translate(5.104 4.447)">
          <path id="Trazado_621642" data-name="Trazado 621642" d="M718.263,637.191l-10.606-5.268.83-1.668,8.1,4.026.809-12.033,1.859.126Z" transform="translate(-707.657 -622.247)" fill="#b5d6ea"/>
        </g>
      </g>
      <g id="Grupo_878939-2" data-name="Grupo 878939" transform="translate(-8715.332 -7417.391)">
        <g id="Grupo_878957" data-name="Grupo 878957" transform="translate(66.5 0.028)">
          <g id="Grupo_878955" data-name="Grupo 878955" transform="translate(23.537 20.574)">
            <g id="Grupo_878951" data-name="Grupo 878951" transform="translate(10.177 1.981)">
              <path id="Trazado_621643" data-name="Trazado 621643" d="M621.164,394.061a.28.28,0,0,1-.247-.149c-.14-.263-.29-.417-.421-.433a.779.779,0,0,0-.515.318.28.28,0,0,1-.415-.375,1.01,1.01,0,0,1,1.846.228.28.28,0,0,1-.116.378A.275.275,0,0,1,621.164,394.061Z" transform="translate(-619.493 -392.917)" fill="#265173"/>
            </g>
            <g id="Grupo_878952" data-name="Grupo 878952">
              <path id="Trazado_621644" data-name="Trazado 621644" d="M616.315,393.206a.326.326,0,0,1-.08-.009l-7.207-1.676a.349.349,0,0,1-.261-.42.344.344,0,0,1,.42-.262l7.207,1.676a.35.35,0,0,1-.08.691Z" transform="translate(-608.758 -390.828)" fill="#265173"/>
            </g>
            <g id="Grupo_878953" data-name="Grupo 878953" transform="translate(6.815 0.237)">
              <path id="Trazado_621645" data-name="Trazado 621645" d="M617.721,397.7a1.23,1.23,0,0,1-.156-.009c-1.113-.137-1.8-1.7-1.576-3.549a4.786,4.786,0,0,1,.8-2.194,1.77,1.77,0,0,1,1.591-.864,1.748,1.748,0,0,1,1.331,1.225,4.789,4.789,0,0,1,.244,2.323C619.738,396.4,618.775,397.7,617.721,397.7Zm.507-5.926a1.2,1.2,0,0,0-.87.586,4.064,4.064,0,0,0-.673,1.868c-.191,1.538.357,2.694.966,2.769.635.087,1.422-.912,1.612-2.45a4.064,4.064,0,0,0-.2-1.977c-.187-.466-.467-.755-.767-.792A.58.58,0,0,0,618.228,391.776Z" transform="translate(-615.946 -391.078)" fill="#265173"/>
            </g>
            <g id="Grupo_878954" data-name="Grupo 878954" transform="translate(11.254 1.03)">
              <path id="Trazado_621646" data-name="Trazado 621646" d="M621.7,397.85c-.029,0-.059,0-.088,0-.284-.036-.666-.255-.868-1.1a5.916,5.916,0,0,1-.063-2.022h0c.182-1.471.8-2.918,1.663-2.8s1.114,1.651.933,3.122C623.1,396.464,622.511,397.85,621.7,397.85Zm-.4-3.052a5.294,5.294,0,0,0,.052,1.8c.105.444.261.619.34.629.216.053.781-.713.974-2.263s-.189-2.407-.393-2.432c-.2-.046-.781.714-.973,2.263Z" transform="translate(-620.629 -391.914)" fill="#265173"/>
            </g>
          </g>
          <path id="Trazado_621647" data-name="Trazado 621647" d="M608.7,404.168c-.859,9.306-3.8,12.848-3.8,12.848-2.931.521-7.326-6.857-8.392-6.816,0,0,3.222-2.654,5.286-13.295C602.945,390.972,609.391,396.677,608.7,404.168Z" transform="translate(-584.585 -370.441)" fill="#f79885"/>
          <path id="Trazado_621648" data-name="Trazado 621648" d="M602.184,395.924s-1.779-10.178,1.306-14.654,14.35-2.458,15.884,1.125c1.442,3.369,2.6,14.691-3.577,24.452a2.235,2.235,0,0,1-2.858.6,21.954,21.954,0,0,1-5.094-3.412A26.788,26.788,0,0,1,602.184,395.924Z" transform="translate(-584.853 -369.624)" fill="#f79885"/>
          <path id="Trazado_621649" data-name="Trazado 621649" d="M621.987,381.116c1.965,5.96-3.57,10.661-7.424,11.66-.646-1.191-1.768-2.856-2.714-2.1-1.982,1.592.755,4.119,1.933,5.07-7.018,5.151-11.008,3.548-12.231,2.875-3.9-6.484-3.335-20.4,6.69-21.4C609.318,377.117,620.336,376.111,621.987,381.116Z" transform="translate(-584.73 -369.539)" fill="#265173"/>
          <g id="Grupo_878956" data-name="Grupo 878956" transform="translate(29.908 21.858)">
            <path id="Trazado_621650" data-name="Trazado 621650" d="M622.751,394.214a.348.348,0,0,1-.062-.006l-6.964-1.414a.31.31,0,1,1,.124-.608l6.964,1.414a.31.31,0,0,1-.063.613Z" transform="translate(-615.478 -392.182)" fill="#265173"/>
          </g>
          <path id="Trazado_621651" data-name="Trazado 621651" d="M601.15,379.872c-2.624,2.941-3.373,6.556-1.673,8.073s5.206.362,7.83-2.58,3.373-6.555,1.673-8.072S603.775,376.931,601.15,379.872Z" transform="translate(-584.692 -369.516)" fill="#eb5654"/>
          <path id="Trazado_621652" data-name="Trazado 621652" d="M596.719,376.207c-22.417-.13-10.422,9.353-1.155,7.093-9.441,8.071,1.107,6.077,3.736,3.184,0,0,2.675.928,5.822-2.277,1.858-1.894,4-5.162,2.667-7-5.1-7.023-20.727-10.693-18.053-5.918C591.21,373.919,593.02,374.629,596.719,376.207Z" transform="translate(-583.932 -369.127)" fill="#265173"/>
        </g>
        <g id="Grupo_878958" data-name="Grupo 878958" transform="translate(113.618 0)">
          <path id="Rectángulo_327482" data-name="Rectángulo 327482" d="M1.845,0h.229A1.845,1.845,0,0,1,3.919,1.845V40.269a0,0,0,0,1,0,0H0a0,0,0,0,1,0,0V1.845A1.845,1.845,0,0,1,1.845,0Z" transform="translate(10.101 112.499) rotate(-167.78)" fill="#265173"/>
          <rect id="Rectángulo_327483" data-name="Rectángulo 327483" width="5.244" height="7.407" transform="matrix(-0.977, -0.211, 0.211, -0.977, 17.694, 80.56)" fill="#265173"/>
          <path id="Trazado_621653" data-name="Trazado 621653" d="M635.115,401.5a64.281,64.281,0,0,0-1.479,12.73c-.2,14.635,5.129,26.285,13.892,28.181a11.46,11.46,0,0,0,3.186.243,13.517,13.517,0,0,0,4.451-1.031c8.821-3.532,17.2-15.71,20.58-31.33,3.384-15.637.789-30.19-5.782-37.052a13.43,13.43,0,0,0-3.642-2.782,11.3,11.3,0,0,0-2.987-1.093c-8.763-1.9-18.431,6.509-24.3,19.932A64.069,64.069,0,0,0,635.115,401.5Zm2.286.495c3.562-16.46,12.691-28.938,21.562-30.416a9.985,9.985,0,0,1,2.907-.089,1.7,1.7,0,0,1,.278.045c.232.034.464.068.692.118a8.825,8.825,0,0,1,2.109.727,7,7,0,0,1,.858.457,10,10,0,0,1,1.359.948c6.9,5.483,9.73,20.133,6.293,36.014-3.429,15.849-12.04,27.993-20.586,30.18a12.112,12.112,0,0,1-1.659.295,7.048,7.048,0,0,1-.971.062,8.781,8.781,0,0,1-2.22-.21c-.244-.053-.484-.12-.724-.189-.077-.016-.149-.048-.226-.064a10.335,10.335,0,0,1-2.583-1.261C637,433.606,633.836,418.466,637.4,401.993Z" transform="translate(-633.63 -369.097)" fill="#316891"/>
          <path id="Trazado_621654" data-name="Trazado 621654" d="M639.717,402.574c-3.136,14.493-.777,28.069,5.257,35.054.252.31.514.575.773.853a16.325,16.325,0,0,0,1.795,1.585c.241.068.481.136.724.189a8.779,8.779,0,0,0,2.22.21,7.045,7.045,0,0,0,.971-.062,12.109,12.109,0,0,0,1.659-.295c8.546-2.187,17.156-14.331,20.586-30.18,3.437-15.88.609-30.531-6.293-36.014a10.008,10.008,0,0,0-1.359-.948,7,7,0,0,0-.858-.457,8.828,8.828,0,0,0-2.109-.727c-.229-.049-.46-.083-.692-.118a15.067,15.067,0,0,0-2.335.691c-.366.144-.732.288-1.09.466C650.6,376.691,642.853,388.081,639.717,402.574Z" transform="translate(-633.874 -369.231)" fill="#7fb8db"/>
          <path id="Trazado_621655" data-name="Trazado 621655" d="M637.527,402.12c-3.565,16.474-.4,31.614,7.089,36.616A10.335,10.335,0,0,0,647.2,440c.077.016.149.048.226.064a16.323,16.323,0,0,1-1.795-1.585c-.259-.279-.521-.543-.773-.853-6.035-6.985-8.393-20.561-5.257-35.054s10.882-25.884,19.249-29.753c.358-.177.724-.321,1.09-.466a15.061,15.061,0,0,1,2.335-.691,1.7,1.7,0,0,0-.278-.045,9.985,9.985,0,0,0-2.907.089C650.218,373.182,641.089,385.66,637.527,402.12Z" transform="translate(-633.757 -369.225)" fill="#265173"/>
          <path id="Trazado_621656" data-name="Trazado 621656" d="M651.459,442.663a11.288,11.288,0,0,1-3.17-.24l4.647,1.006c11.2,2.424,23.86-11.987,28.217-32.119s-1.208-38.5-12.409-40.926l-4.648-1.006a11.3,11.3,0,0,1,2.987,1.093,13.43,13.43,0,0,1,3.642,2.782c6.571,6.862,9.166,21.415,5.782,37.052-3.381,15.621-11.759,27.8-20.58,31.33a13.517,13.517,0,0,1-4.451,1.031Z" transform="translate(-634.391 -369.112)" fill="#265173"/>
          <path id="Trazado_621657" data-name="Trazado 621657" d="M653.171,385.793c-.972,2.929-.147,5.837,1.841,6.5s4.39-1.179,5.361-4.108.147-5.838-1.841-6.5S654.142,382.864,653.171,385.793Z" transform="translate(-634.624 -369.744)" fill="#b5d6ea"/>
        </g>
        <g id="Grupo_878959" data-name="Grupo 878959" transform="translate(0 42.03)">
          <path id="Trazado_621658" data-name="Trazado 621658" d="M585.864,413.933c-13.328-7.791-73.3,77.107-64.886,87.817C520.978,501.75,597.474,420.72,585.864,413.933Z" transform="translate(-514.122 -413.429)" fill="#f79885"/>
          <path id="Trazado_621659" data-name="Trazado 621659" d="M524.2,499.014s-.511,12.044-1.043,12.251-1.219-3.622-1.219-3.622-3.653,7.07-4.756,6.234c-.645-.488,1.553-4.19,1.553-4.19s-3.013,3.128-3.714,2.291a7.7,7.7,0,0,1-.988-5.951C514.75,503.872,524.2,499.014,524.2,499.014Z" transform="translate(-513.791 -417.872)" fill="#f79885"/>
        </g>
        <path id="Trazado_621660" data-name="Trazado 621660" d="M564.517,640.64h-3.234l-.963,10.171H571.7S566.827,648.227,564.517,640.64Z" transform="translate(-516.207 -383.195)" fill="#22365b"/>
        <path id="Trazado_621661" data-name="Trazado 621661" d="M612.508,640.64h-3.391l-.381,10.171h15.051S615.237,647.3,612.508,640.64Z" transform="translate(-518.72 -383.195)" fill="#22365b"/>
        <path id="Trazado_621662" data-name="Trazado 621662" d="M613.3,494.985l-31.826-.144c2.611,61.036,15.613,122.181,25.659,140.689h5.751C617.15,585.907,616.847,518.143,613.3,494.985Z" transform="translate(-517.305 -375.626)" fill="#12263f"/>
        <path id="Trazado_621663" data-name="Trazado 621663" d="M550.577,494.249c-5.865,79.554.818,130.031,9.507,141.25H565.3c6.207-49.63,18.714-117.2,21.191-140.589Z" transform="translate(-515.586 -375.595)" fill="#12263f"/>
        <path id="Trazado_621664" data-name="Trazado 621664" d="M614.413,496.038c-3.124-50.391-1.378-77.706-8.987-83.176-12.529-6.395-20.8-.236-20.8-.236s-25.748,20.263-34.7,77.247C561.3,492.923,590.623,502.647,614.413,496.038Z" transform="translate(-515.667 -371.219)" fill="#b4e6ff"/>
        <path id="Trazado_621665" data-name="Trazado 621665" d="M609.243,460.687s5.579-38.745-3.328-42.437c-16.043-6.649-15.8,46.412-14,52.847,3.131,11.2,43.6,3.614,51.181-12.839Z" transform="translate(-517.804 -371.619)" fill="#f79885"/>
        <path id="Trazado_621666" data-name="Trazado 621666" d="M642.744,461.022s1.636-3.223,2.257-4.267,6.027.207,6.238,1.1-.413,4.775-1.042,5.51-3.146,1.053-3.146,1.053C642.693,465.8,641.416,463.507,642.744,461.022Z" transform="translate(-520.46 -373.628)" fill="#f79885"/>
      </g>
      <path id="Trazado_621636-2" data-name="Trazado 621636" d="M974.77,293.558l-5.812,12.162-3.515-.673-.536-8.208c-.029-.365-.053-1.274-.061-2.726l-1.115,2.525-3.562,7.4-3.515-.673-.86-13.439,3.132.6.231,10.182.335-.841.553-1.332,3.46-7.133,3.563.683.521,7.9c.027.44.05,1.225.045,2.351l.632-1.489,3.417-7.874Zm23.542.493L990.8,309.9l-4.136-.793-.412-10.081c-.058-1.188-.058-2.416-.011-3.7-.391,1-.695,1.751-.92,2.278s-1.75,3.966-4.6,10.361l-4.137-.792-1.1-17.5,3.539.678.34,11.232.053,2.7c.424-1.047.84-2.058,1.246-3.009s1.837-4.222,4.315-9.783l3.91.749.4,9.274c.04.7.028,2.249-.024,4.656l.56-1.306,1.143-2.607,3.8-8.891Zm18.173,7.5-5.812,12.162-3.516-.673-.535-8.208c-.029-.365-.054-1.274-.061-2.726l-1.116,2.525-3.549,7.4-3.516-.673-.86-13.439,3.121.6.231,10.182.335-.841.564-1.329,3.449-7.136,3.563.683.521,7.9c.027.439.05,1.225.045,2.351l.632-1.489,3.428-7.871Z" transform="translate(-9252.071 -7782.365)" fill="#fff"/>
      <g id="Grupo_878940-2" data-name="Grupo 878940" transform="translate(-8386.287 -7452.706)">
        <rect id="Rectángulo_327484" data-name="Rectángulo 327484" width="190.358" height="149.949" transform="translate(2.712 16.004)" fill="#e1f0fa"/>
        <g id="Grupo_878961" data-name="Grupo 878961" transform="translate(0.055 0.055)">
          <path id="Trazado_621668" data-name="Trazado 621668" d="M1056.63,500.352H861.025l-.112-168.446h195.605ZM863.57,497.8h190.51l-.107-163.351H863.463Z" transform="translate(-860.913 -331.906)" fill="#7fb8db"/>
        </g>
        <g id="Grupo_878962" data-name="Grupo 878962" transform="translate(0 0)">
          <rect id="Rectángulo_327485" data-name="Rectángulo 327485" width="193.057" height="16.005" transform="translate(1.337 1.328)" fill="#7fb8db"/>
          <path id="Trazado_621669" data-name="Trazado 621669" d="M1056.585,350.51H860.869l-.014-18.662H1056.57Zm-193.06-2.657h190.4l-.009-13.347h-190.4Z" transform="translate(-860.855 -331.848)" fill="#7fb8db"/>
        </g>
        <g id="Grupo_878963" data-name="Grupo 878963" transform="translate(156.797 5.788)">
          <path id="Trazado_621670" data-name="Trazado 621670" d="M1058.5,341.5a3.543,3.543,0,1,1-3.545-3.543A3.538,3.538,0,0,1,1058.5,341.5Z" transform="translate(-1027.545 -337.953)" fill="#eb5654"/>
          <path id="Trazado_621671" data-name="Trazado 621671" d="M1045.911,341.5a3.542,3.542,0,1,1-3.546-3.543A3.539,3.539,0,0,1,1045.911,341.5Z" transform="translate(-1026.892 -337.953)" fill="#008eb0"/>
          <path id="Trazado_621672" data-name="Trazado 621672" d="M1033.324,341.5a3.543,3.543,0,1,1-3.546-3.543A3.54,3.54,0,0,1,1033.324,341.5Z" transform="translate(-1026.238 -337.953)" fill="#f3e190"/>
        </g>
      </g>
      <g id="Grupo_878941-2" data-name="Grupo 878941" transform="translate(-8360.267 -7414.905)">
        <rect id="Rectángulo_327486" data-name="Rectángulo 327486" width="38.44" height="33.589" transform="translate(0 0)" fill="#b5d6ea"/>
        <rect id="Rectángulo_327487" data-name="Rectángulo 327487" width="34.571" height="31.939" transform="translate(1.935 1.65)" fill="#fff"/>
        <path id="Trazado_621673" data-name="Trazado 621673" d="M918.751,376.767l-26.229.021L888.3,405.447l38.44-.03,3.887-26.388.334-2.271.392-2.662-10.369.008Z" transform="translate(-888.3 -371.842)" fill="#b5d6ea"/>
      </g>
      <g id="Grupo_878942-2" data-name="Grupo 878942" transform="translate(-8296.275 -7414.905)">
        <rect id="Rectángulo_327488" data-name="Rectángulo 327488" width="38.44" height="33.589" transform="translate(0 0)" fill="#b5d6ea"/>
        <rect id="Rectángulo_327489" data-name="Rectángulo 327489" width="34.571" height="31.939" transform="translate(1.935 1.65)" fill="#fff"/>
        <path id="Trazado_621674" data-name="Trazado 621674" d="M986.247,376.767l-26.229.021L955.8,405.447l38.44-.03,3.887-26.388.334-2.271.392-2.662-10.369.008Z" transform="translate(-955.796 -371.842)" fill="#b5d6ea"/>
      </g>
      <g id="Grupo_878943-2" data-name="Grupo 878943" transform="translate(-8483.361 -7242.673)">
        <g id="Grupo_878967" data-name="Grupo 878967" transform="translate(0.055 0.055)">
          <path id="Trazado_621675" data-name="Trazado 621675" d="M876.578,645.168H758.635l-.112-91.728H876.466Zm-115.4-2.547H874.028l-.107-86.632H761.073Z" transform="translate(-758.523 -553.44)" fill="#7fb8db"/>
        </g>
        <g id="Grupo_878968" data-name="Grupo 878968" transform="translate(0 0)">
          <rect id="Rectángulo_327490" data-name="Rectángulo 327490" width="115.394" height="16.004" transform="translate(1.337 1.329)" fill="#7fb8db"/>
          <path id="Trazado_621676" data-name="Trazado 621676" d="M876.533,572.045H758.48l-.015-18.663H876.518Zm-115.4-2.658H873.872l-.009-13.346H761.126Z" transform="translate(-758.465 -553.382)" fill="#7fb8db"/>
        </g>
        <g id="Grupo_878969" data-name="Grupo 878969" transform="translate(79.134 5.789)">
          <path id="Trazado_621677" data-name="Trazado 621677" d="M874.193,563.03a3.543,3.543,0,1,1-3.545-3.542A3.539,3.539,0,0,1,874.193,563.03Z" transform="translate(-843.24 -559.488)" fill="#eb5654"/>
          <path id="Trazado_621678" data-name="Trazado 621678" d="M861.606,563.03a3.543,3.543,0,1,1-3.546-3.542A3.539,3.539,0,0,1,861.606,563.03Z" transform="translate(-842.587 -559.488)" fill="#008eb0"/>
          <path id="Trazado_621679" data-name="Trazado 621679" d="M849.018,563.03a3.543,3.543,0,1,1-3.545-3.542A3.538,3.538,0,0,1,849.018,563.03Z" transform="translate(-841.933 -559.488)" fill="#f3e190"/>
        </g>
      </g>
      <g id="Grupo_878944-2" data-name="Grupo 878944" transform="translate(-8568.722 -7361.638)">
        <g id="Grupo_878971" data-name="Grupo 878971" transform="translate(0 0)">
          <rect id="Rectángulo_327491" data-name="Rectángulo 327491" width="337.398" height="88.489" rx="44.245" transform="translate(0.917 0.916)" fill="#fff"/>
          <path id="Trazado_621680" data-name="Trazado 621680" d="M962.5,518.226H713.592a45.161,45.161,0,1,1,0-90.323H962.5a45.161,45.161,0,0,1,0,90.323ZM713.592,429.737a43.327,43.327,0,1,0,0,86.655H962.5a43.327,43.327,0,0,0,0-86.655Z" transform="translate(-668.43 -427.903)" fill="#265173"/>
        </g>
        <path id="Trazado_621681" data-name="Trazado 621681" d="M714.958,503.863a29.967,29.967,0,1,1,0-59.934h16.323a29.967,29.967,0,0,1,0,59.934Z" transform="translate(-669.29 -428.735)" fill="#2b95f9"/>
        <g id="Grupo_878974" data-name="Grupo 878974" transform="translate(35.745 27.053)">
          <g id="Grupo_878972" data-name="Grupo 878972" transform="translate(21.141 21.139)">
            <path id="Trazado_621682" data-name="Trazado 621682" d="M743.268,496.017a2.433,2.433,0,0,1-1.728-.716l-12.391-12.391a2.445,2.445,0,1,1,3.458-3.458L745,491.843a2.445,2.445,0,0,1-1.729,4.173Z" transform="translate(-728.431 -478.734)" fill="#fff"/>
          </g>
          <g id="Grupo_878973" data-name="Grupo 878973">
            <path id="Trazado_621683" data-name="Trazado 621683" d="M720.958,486.089a14.83,14.83,0,1,1,10.49-25.316h0a14.826,14.826,0,0,1-10.49,25.315Zm0-24.764a9.938,9.938,0,1,0,7.031,2.907A9.911,9.911,0,0,0,720.959,461.325Z" transform="translate(-706.132 -456.437)" fill="#fff"/>
          </g>
        </g>
        <g id="Grupo_878975" data-name="Grupo 878975" transform="translate(108.15 28.458)">
          <path id="Trazado_621684" data-name="Trazado 621684" d="M808.69,482.308a7.719,7.719,0,0,1-3.387,6.708q-3.389,2.376-9.541,2.377-11.44,0-13.261-7.953l4.109-.822a6.312,6.312,0,0,0,3.021,4.143,12.685,12.685,0,0,0,6.287,1.321,11.894,11.894,0,0,0,6.342-1.41,4.6,4.6,0,0,0,2.232-4.143,4.111,4.111,0,0,0-.7-2.488,5.238,5.238,0,0,0-1.965-1.577,14.7,14.7,0,0,0-3.021-1.044q-1.755-.422-3.888-.911a33.683,33.683,0,0,1-5.631-1.643,10.816,10.816,0,0,1-3.032-1.833,6.876,6.876,0,0,1-1.7-2.365,7.74,7.74,0,0,1-.589-3.111,7.14,7.14,0,0,1,3.077-6.2q3.076-2.176,8.807-2.177,5.332,0,8.153,1.633a8.907,8.907,0,0,1,3.953,5.564l-4.175.733a5.72,5.72,0,0,0-2.621-3.609,10.715,10.715,0,0,0-5.354-1.123,10.837,10.837,0,0,0-5.73,1.244,4.1,4.1,0,0,0-1.977,3.71,3.665,3.665,0,0,0,.766,2.388,5.951,5.951,0,0,0,2.21,1.6,34.8,34.8,0,0,0,5.754,1.61q1.442.334,2.875.678a25.165,25.165,0,0,1,2.744.822,16.586,16.586,0,0,1,2.455,1.122,7.831,7.831,0,0,1,1.987,1.578,6.809,6.809,0,0,1,1.322,2.2A8.416,8.416,0,0,1,808.69,482.308Z" transform="translate(-782.502 -457.985)" fill="#265173"/>
          <path id="Trazado_621685" data-name="Trazado 621685" d="M818.563,480.174a10.331,10.331,0,0,0,1.71,6.374,5.9,5.9,0,0,0,5,2.244,7.4,7.4,0,0,0,4.165-1.045,5.188,5.188,0,0,0,2.121-2.642l3.51,1q-2.155,5.687-9.8,5.687-5.331,0-8.118-3.177t-2.787-9.44q0-5.953,2.787-9.129t7.963-3.176q10.6,0,10.6,12.772v.534Zm13.016-3.066q-.334-3.8-1.932-5.542a5.928,5.928,0,0,0-4.6-1.744,5.809,5.809,0,0,0-4.61,1.944,8.359,8.359,0,0,0-1.832,5.341Z" transform="translate(-784.156 -458.384)" fill="#265173"/>
          <path id="Trazado_621686" data-name="Trazado 621686" d="M848.313,491.791a7.181,7.181,0,0,1-5.442-1.91,7.29,7.29,0,0,1-1.821-5.242,6.967,6.967,0,0,1,2.455-5.731q2.455-2,7.919-2.132l5.4-.089v-1.31q0-2.932-1.245-4.2a5.278,5.278,0,0,0-3.909-1.267,6.618,6.618,0,0,0-3.91.911,4.048,4.048,0,0,0-1.466,2.91l-4.175-.377q1.021-6.486,9.64-6.486,4.532,0,6.819,2.076a7.7,7.7,0,0,1,2.289,6.009V485.3a6,6,0,0,0,.466,2.676,1.811,1.811,0,0,0,1.777.9,6.354,6.354,0,0,0,1.311-.155v2.488a13.443,13.443,0,0,1-3.088.356A4.06,4.06,0,0,1,858.1,490.4a6,6,0,0,1-1.143-3.654h-.134a9.7,9.7,0,0,1-3.566,3.9A9.941,9.941,0,0,1,848.313,491.791Zm.911-3a7.6,7.6,0,0,0,3.909-1,7.266,7.266,0,0,0,2.7-2.743,7.187,7.187,0,0,0,.989-3.588v-1.977l-4.375.089a13.719,13.719,0,0,0-4.277.577,4.528,4.528,0,0,0-2.233,1.644,4.974,4.974,0,0,0-.776,2.91,4.11,4.11,0,0,0,1.054,3.021A4.048,4.048,0,0,0,849.224,488.792Z" transform="translate(-785.542 -458.384)" fill="#265173"/>
          <path id="Trazado_621687" data-name="Trazado 621687" d="M869.017,491.347V472.91q0-2.531-.134-5.6h3.776q.178,4.087.177,4.909h.089a9.651,9.651,0,0,1,2.2-4.221,5.031,5.031,0,0,1,3.51-1.132,6.2,6.2,0,0,1,1.621.222v3.665a8.237,8.237,0,0,0-2.132-.223,4.2,4.2,0,0,0-3.8,2.144,11.848,11.848,0,0,0-1.31,6.142v12.528Z" transform="translate(-786.987 -458.384)" fill="#265173"/>
          <path id="Trazado_621688" data-name="Trazado 621688" d="M887.888,479.219q0,4.8,1.511,7.108a5.073,5.073,0,0,0,4.554,2.31,5.507,5.507,0,0,0,3.566-1.154,5.287,5.287,0,0,0,1.765-3.554l4.043.266a8.352,8.352,0,0,1-2.955,5.531,9.542,9.542,0,0,1-6.308,2.066q-5.043,0-7.7-3.188t-2.655-9.295q0-6.064,2.666-9.251t7.641-3.187a9.6,9.6,0,0,1,6.119,1.91,8.362,8.362,0,0,1,3.055,5.264l-4.109.311a5.3,5.3,0,0,0-1.577-3.176,6.075,6.075,0,0,0-8.2.933Q887.888,474.221,887.888,479.219Z" transform="translate(-787.757 -458.384)" fill="#265173"/>
          <path id="Trazado_621689" data-name="Trazado 621689" d="M912.88,470.957a8.9,8.9,0,0,1,3.1-3.454,8.707,8.707,0,0,1,4.587-1.1q3.909,0,5.764,1.944t1.854,6.519v16.015h-4.022V475.644a11.337,11.337,0,0,0-.466-3.765,3.3,3.3,0,0,0-1.533-1.811,6.26,6.26,0,0,0-2.953-.577,5.7,5.7,0,0,0-4.521,1.955,7.748,7.748,0,0,0-1.7,5.265v14.171h-4V457.919h4v8.574q0,1.355-.078,2.8t-.1,1.666Z" transform="translate(-789.069 -457.919)" fill="#265173"/>
          <path id="Trazado_621690" data-name="Trazado 621690" d="M936.732,492.421v-4.865h4.332v4.865Z" transform="translate(-790.509 -459.458)" fill="#265173"/>
          <path id="Trazado_621691" data-name="Trazado 621691" d="M950.063,492.421v-4.865h4.332v4.865Z" transform="translate(-791.201 -459.458)" fill="#265173"/>
          <path id="Trazado_621692" data-name="Trazado 621692" d="M963.394,492.421v-4.865h4.332v4.865Z" transform="translate(-791.894 -459.458)" fill="#265173"/>
        </g>
      </g>
      <g id="Grupo_878945" data-name="Grupo 878945" transform="translate(-8224.851 -7417.168)">
        <path id="Trazado_621693" data-name="Trazado 621693" d="M1063.241,405.976c-1.036.4-7.653-17.7-6.556-17.855,1.56-.222,2.514,2.861,3.364,2.6.463-.142-.544-2.219-.055-2.448,2.205-1.034,5.973-.7,6.544.71C1067.975,392.52,1064.684,405.413,1063.241,405.976Z" transform="translate(-1032.452 -370.284)" fill="#f0786a"/>
        <path id="Trazado_621694" data-name="Trazado 621694" d="M1056.561,400.664l7.826,2.119-8.623,25.919s16.245-21.475,20.8-16.06c11.971,14.247-20.09,48.675-36.211,45.073C1020.582,453.3,1035.714,417.852,1056.561,400.664Z" transform="translate(-1031.132 -370.959)" fill="#1b7edb"/>
        <path id="Trazado_621695" data-name="Trazado 621695" d="M1073.871,639.966h3.6l.4,11.272h-15.955l.739-2.222S1070.979,647.349,1073.871,639.966Z" transform="translate(-1032.73 -383.383)" fill="#51192b"/>
        <path id="Trazado_621696" data-name="Trazado 621696" d="M1056.583,482.222s8.874,118.84,14.807,151.459h9.525s4.676-10.138,8.781-36.325c2.682-17.11,1.333-65.143-1.751-113.228Z" transform="translate(-1032.454 -375.193)" fill="#12263f"/>
        <path id="Trazado_621697" data-name="Trazado 621697" d="M1129.336,639.966h3.429l1.021,11.272H1121.72l.739-2.222S1126.888,648.374,1129.336,639.966Z" transform="translate(-1035.835 -383.383)" fill="#51192b"/>
        <path id="Trazado_621698" data-name="Trazado 621698" d="M1139.012,600.439c.282,22.117-4.841,33.354-4.841,33.354h-9.53c-3.43-21.878-45.9-149.379-45.9-149.379l36.2-.178C1126.957,526.136,1138.839,586.161,1139.012,600.439Z" transform="translate(-1033.604 -375.298)" fill="#12263f"/>
        <path id="Trazado_621699" data-name="Trazado 621699" d="M1072.547,407.581s18.151-1.04,32.752,3.632a15.7,15.7,0,0,1,10.675,18.126c-2.845,13.746-6.136,38.22.844,57.7,0,0-27.328,15.534-60.274,2.949C1056.545,489.989,1050.742,418.539,1072.547,407.581Z" transform="translate(-1032.415 -371.313)" fill="#2b95f9"/>
        <path id="Trazado_621700" data-name="Trazado 621700" d="M1104.2,418.3a87.812,87.812,0,0,0-20.947,10.754c-2.066,1.508-3.082-12.354-5.032-18.465-8.439.6-15.307,16.181-15.4,32.047,0,0,5.055,18.081,14.635,17.99,12.424-.119,32.091-15.766,36.49-28.715Z" transform="translate(-1032.777 -371.474)" fill="#1b7edb"/>
        <g id="Grupo_878978" data-name="Grupo 878978" transform="translate(38.979 0)">
          <path id="Trazado_621701" data-name="Trazado 621701" d="M1085.716,400.747c-.153,7.381,3.054,15.821,3.054,15.821,6.195-.211,11.266-8.008,11.266-8.008a29.977,29.977,0,0,1-3.853-14.511C1096.154,383.757,1085.885,392.585,1085.716,400.747Z" transform="translate(-1072.945 -370.374)" fill="#f79885"/>
          <g id="Grupo_878977" data-name="Grupo 878977">
            <path id="Trazado_621702" data-name="Trazado 621702" d="M1095.686,393.4c-1.138-1.476,4.29-16.222-5.666-18.443s-13.014,1.547-13.542,7.416c-.731,8.125,1.721,18.9,4.445,20.073,1.307.564,3.943-.565,5.171-1.051C1089.909,399.883,1094.307,395.955,1095.686,393.4Z" transform="translate(-1072.458 -369.59)" fill="#f79885"/>
            <path id="Trazado_621703" data-name="Trazado 621703" d="M1073.543,379.62c1.275,1.176,4.776,4.506,13.747,2.932a8.773,8.773,0,0,1,.84,4.329s2-2.847,3.11-1.507c1.1,1.318.037,3.451-2.23,4.029,0,0,1.043,4.173,6.474,3.816.044-5.416,7.108-18.562-2.028-19.145,2.033-3.722-2.223-6.576-5.362-.463-5.337-8.875-6.243-1.4-6.093-.156-6.983-6.329-7.676-.569-5.194,3.288C1070.905,374.172,1071.822,378.032,1073.543,379.62Z" transform="translate(-1072.246 -369.332)" fill="#22365b"/>
          </g>
        </g>
        <g id="Grupo_878981" data-name="Grupo 878981" transform="translate(14.362 15.115)">
          <path id="Trazado_621704" data-name="Trazado 621704" d="M1073.712,387.879l5.48-.786c.5-.045,1.053,1.085,1.251,2.524.012.09.024.178.032.265.011.13.018.2.022.259,0,.033,0,.064.006.1,0,.051.006.1.008.154s0,.071,0,.107,0,.09,0,.134,0,.069,0,.1,0,.085,0,.126,0,.065-.007.1,0,.081-.008.119-.007.063-.01.094-.008.076-.012.111-.009.059-.013.088-.01.069-.017.1-.011.054-.018.081-.013.064-.021.093-.014.049-.021.074-.016.056-.026.082c-.034.09-.044.115-.053.137a41.841,41.841,0,0,1-5.842,1.144c-.5.046-1.053-1.086-1.251-2.524C1073.013,389.139,1073.238,387.947,1073.712,387.879Z" transform="translate(-1047.675 -385.369)" fill="#22365b"/>
          <g id="Grupo_878979" data-name="Grupo 878979" transform="translate(0 0.805)">
            <path id="Trazado_621705" data-name="Trazado 621705" d="M1047.6,387.931l12.575-1.8c1.148-.1,2.417,2.491,2.871,5.793q.042.309.074.61c0,.05.007.1.012.148.014.149.028.3.038.446.006.075.008.148.011.222.007.118.014.236.018.352,0,.083,0,.164,0,.246,0,.1,0,.207,0,.307,0,.083,0,.16-.006.241,0,.1,0,.194-.007.287,0,.078-.01.152-.015.228-.006.091-.01.184-.018.273-.006.074-.015.143-.023.214s-.017.173-.029.255-.022.135-.032.2-.024.159-.038.234-.028.123-.041.185-.03.146-.048.213-.032.112-.049.168-.036.13-.057.191-.038.1-.058.151-.042.113-.065.164-.044.087-.065.13-.048.1-.074.139-.049.071-.074.106-.053.08-.082.114a1.084,1.084,0,0,1-.081.082.962.962,0,0,1-.09.085.728.728,0,0,1-.088.056.72.72,0,0,1-.1.057.9.9,0,0,1-.095.028.743.743,0,0,1-.086.026l-12.575,1.8c-1.147.1-2.417-2.491-2.871-5.793C1045.994,390.822,1046.51,388.087,1047.6,387.931Z" transform="translate(-1046.281 -386.124)" fill="#265173"/>
            <path id="Trazado_621706" data-name="Trazado 621706" d="M1047.787,389.236l1.033-.148c-.878.126-1.3,2.333-.933,4.971.367,2.666,1.392,4.76,2.289,4.68l-1,.144c-.926.085-1.95-2.01-2.317-4.676C1046.492,391.57,1046.909,389.362,1047.787,389.236Z" transform="translate(-1046.304 -386.278)" fill="#265173"/>
            <path id="Trazado_621707" data-name="Trazado 621707" d="M1047.769,394.111l.03.215c.063.383.139.729.217,1.034.018.073.035.146.06.225.073.265.137.475.216.69.032.079.056.151.078.21.108.273.185.427.256.581.01.02.027.045.037.07a4.629,4.629,0,0,0,.234.434c.125.2.213.334.29.439a3.945,3.945,0,0,0,.331.393,1.419,1.419,0,0,0,.311.251c.612-.617.859-2.535.56-4.76-.314-2.284-1.117-4.148-1.9-4.578a1.228,1.228,0,0,0-.229.321,5.009,5.009,0,0,0-.408,1.137.486.486,0,0,1-.021.093q-.054.274-.1.612c-.04.349-.058.606-.064.9a6.179,6.179,0,0,0,.008.672c0,.027,0,.055,0,.082.009.163.021.34.041.523C1047.731,393.8,1047.746,393.957,1047.769,394.111Z" transform="translate(-1046.353 -386.289)" fill="#7fb8db"/>
            <path id="Trazado_621708" data-name="Trazado 621708" d="M1047.634,388.026c1.111-.1,2.381,2.494,2.835,5.8s-.079,6.06-1.191,6.161-2.381-2.494-2.835-5.8S1046.522,388.126,1047.634,388.026Zm-.8,6.126c.367,2.666,1.391,4.761,2.289,4.68s1.328-2.309.961-4.974-1.391-4.761-2.289-4.68-1.328,2.308-.961,4.974Z" transform="translate(-1046.281 -386.222)" fill="#316891"/>
            <path id="Trazado_621709" data-name="Trazado 621709" d="M1048.228,391.874c.065.457.269.806.456.779s.284-.418.218-.876-.27-.806-.456-.778S1048.162,391.417,1048.228,391.874Z" transform="translate(-1046.381 -386.377)" fill="#b5d6ea"/>
          </g>
          <path id="Trazado_621710" data-name="Trazado 621710" d="M1065.074,387l9.549-1.369c.871-.08,1.834,1.89,2.18,4.4.021.156.04.311.056.463,0,.038.006.075.01.112.01.114.021.228.028.338,0,.058.006.113.009.17.006.089.011.179.014.266,0,.064,0,.124,0,.187,0,.078,0,.156,0,.233,0,.062,0,.121,0,.182s0,.148-.006.219-.007.115-.01.173-.008.139-.014.207-.011.109-.017.163-.013.132-.022.193-.016.1-.025.154-.018.12-.029.177-.021.094-.031.14-.023.111-.036.162-.026.085-.038.127-.027.1-.043.145-.029.076-.044.115-.032.085-.049.124-.033.066-.05.1-.036.073-.056.105-.037.055-.056.082-.041.06-.062.086-.041.042-.062.062a.89.89,0,0,1-.068.065c-.022.017-.045.028-.067.043a.831.831,0,0,1-.074.043.714.714,0,0,1-.072.022c-3.27.479-6.411.929-9.615,1.389-.871.08-1.836-1.891-2.18-4.4C1063.856,389.2,1064.249,387.119,1065.074,387Z" transform="translate(-1047.205 -385.293)" fill="#22365b"/>
          <g id="Grupo_878980" data-name="Grupo 878980" transform="translate(5.615)">
            <path id="Trazado_621711" data-name="Trazado 621711" d="M1053.52,387.082l12.575-1.8c1.147-.105,2.417,2.491,2.871,5.792q.042.309.073.611c.006.049.009.1.013.147.014.15.028.3.038.446.006.076.008.148.011.223.007.118.014.236.018.351,0,.084,0,.164,0,.247,0,.1,0,.207,0,.306,0,.082,0,.16-.006.241,0,.1,0,.194-.008.288,0,.078-.009.151-.014.227-.006.092-.01.185-.018.273s-.015.143-.023.215-.018.173-.028.254-.022.135-.032.2-.024.158-.038.233-.027.124-.041.186-.03.145-.048.213-.032.112-.049.168-.036.13-.057.19-.039.1-.058.151-.042.113-.066.165-.044.086-.065.129-.048.1-.074.139-.049.072-.074.107-.053.079-.082.113a1.115,1.115,0,0,1-.081.082,1.094,1.094,0,0,1-.09.085.812.812,0,0,1-.088.056.711.711,0,0,1-.1.056.6.6,0,0,1-.095.028.731.731,0,0,1-.086.027l-12.575,1.8c-1.148.105-2.417-2.49-2.871-5.792C1051.916,389.972,1052.432,387.238,1053.52,387.082Z" transform="translate(-1052.203 -385.275)" fill="#265173"/>
            <path id="Trazado_621712" data-name="Trazado 621712" d="M1053.708,388.387l1.034-.149c-.878.126-1.3,2.334-.933,4.971.367,2.666,1.392,4.761,2.289,4.68.029,0-1,.145-1,.145-.926.084-1.95-2.011-2.317-4.676C1052.414,390.72,1052.831,388.513,1053.708,388.387Z" transform="translate(-1052.226 -385.429)" fill="#265173"/>
            <path id="Trazado_621713" data-name="Trazado 621713" d="M1053.691,393.261l.03.216c.062.382.139.729.217,1.033.018.073.035.146.06.226.073.265.138.475.216.69.032.078.056.15.078.209.108.273.185.427.255.582a.585.585,0,0,1,.038.07,4.525,4.525,0,0,0,.234.433c.125.2.212.334.29.44a4.053,4.053,0,0,0,.331.393,1.441,1.441,0,0,0,.311.25c.612-.617.859-2.535.56-4.76-.314-2.284-1.117-4.148-1.9-4.578a1.227,1.227,0,0,0-.229.321,5.012,5.012,0,0,0-.407,1.138.477.477,0,0,1-.021.092q-.054.276-.1.612c-.04.35-.058.607-.064.9a6.207,6.207,0,0,0,.008.672c0,.028,0,.055,0,.082.01.164.021.341.041.523C1053.653,392.951,1053.668,393.107,1053.691,393.261Z" transform="translate(-1052.275 -385.44)" fill="#7fb8db"/>
            <path id="Trazado_621714" data-name="Trazado 621714" d="M1053.556,387.176c1.111-.1,2.381,2.494,2.835,5.8s-.08,6.061-1.191,6.162-2.381-2.494-2.835-5.8S1052.444,387.276,1053.556,387.176Zm-.8,6.127c.367,2.665,1.391,4.76,2.289,4.68s1.327-2.309.961-4.975-1.392-4.76-2.289-4.68-1.328,2.309-.961,4.975Z" transform="translate(-1052.203 -385.373)" fill="#316891"/>
            <path id="Trazado_621715" data-name="Trazado 621715" d="M1054.15,391.025c.065.457.269.806.456.779s.284-.419.217-.876-.269-.806-.455-.779S1054.084,390.568,1054.15,391.025Z" transform="translate(-1052.303 -385.528)" fill="#b5d6ea"/>
          </g>
        </g>
        <path id="Trazado_621716" data-name="Trazado 621716" d="M1074.235,399.474c-1.036.4-8.482-14.065-7.385-14.22,1.561-.222,2.514,2.862,3.364,2.6.464-.143-.543-2.219-.054-2.449,2.2-1.034,5.972-.7,6.544.71C1078.14,389.654,1075.677,398.911,1074.235,399.474Z" transform="translate(-1032.981 -370.135)" fill="#f79885"/>
        <path id="Trazado_621717" data-name="Trazado 621717" d="M1068.269,398.63l7.962-1.894,4.378,37.816s16.825-15.4,27.3-18.45c3.492-1.015,4.74,1.581,5.963,4.34,1.25,2.822,2.743,3.643,1.751,6.76-4.991,15.675-33.947,32.73-42.59,27.555C1058.553,446.089,1058.726,418.185,1068.269,398.63Z" transform="translate(-1032.712 -370.755)" fill="#b6e1fd"/>
      </g>
    </g>
  </g>
</svg>
