<svg xmlns="http://www.w3.org/2000/svg" width="819.257" height="399.701" viewBox="0 0 819.257 399.701">
  <g id="Grupo_1034302" data-name="Grupo 1034302" transform="translate(-10786 -3358)">
    <path id="Trazado_624748" data-name="Trazado 624748" d="M1.577,0H333.542a1.577,1.577,0,0,1,1.577,1.577v401.7a1.577,1.577,0,0,1-1.577,1.577H1.577A1.577,1.577,0,0,1,0,403.276V1.577A1.577,1.577,0,0,1,1.577,0Z" transform="translate(11190.853 3422.582) rotate(90)" fill="#e6e6e6"/>
    <path id="Trazado_624749" data-name="Trazado 624749" d="M0,0H403.071V306.949H0Z" transform="translate(10786.891 3440.788)" fill="#fff"/>
    <g id="Grupo_879116" data-name="Grupo 879116" transform="translate(10840.555 3427.08)">
      <rect id="Rectángulo_327659" data-name="Rectángulo 327659" width="305.448" height="9.798" rx="0.596" transform="translate(0.213 0.214)" fill="#fff"/>
      <path id="Trazado_621891" data-name="Trazado 621891" d="M278.253,896.343H-25.488a1.068,1.068,0,0,1-1.067-1.067v-8.092a1.068,1.068,0,0,1,1.067-1.067H278.253a1.069,1.069,0,0,1,1.067,1.067v8.092A1.069,1.069,0,0,1,278.253,896.343Zm-303.741-9.8a.64.64,0,0,0-.641.639v8.092a.64.64,0,0,0,.641.639H278.253a.64.64,0,0,0,.641-.639v-8.092a.64.64,0,0,0-.641-.639Z" transform="translate(26.555 -886.117)" fill="#ccc"/>
    </g>
    <g id="Grupo_879123" data-name="Grupo 879123" transform="translate(10795.063 3429.969)">
      <g id="Grupo_879117" data-name="Grupo 879117" transform="translate(1.337 1.364)">
        <path id="Trazado_621892" data-name="Trazado 621892" d="M-52.644,889.558h0Z" transform="translate(57.423 -888.889)" fill="#fff"/>
        <rect id="Rectángulo_327660" data-name="Rectángulo 327660" width="4.779" height="1.337" fill="#b3b3b3"/>
      </g>
      <g id="Grupo_879122" data-name="Grupo 879122">
        <g id="Grupo_879119" data-name="Grupo 879119" transform="translate(1.927 1.255)">
          <g id="Grupo_879118" data-name="Grupo 879118">
            <rect id="Rectángulo_327661" data-name="Rectángulo 327661" width="3.52" height="0.219" transform="translate(0.669 0.668)" fill="#0a92cf"/>
            <rect id="Rectángulo_327662" data-name="Rectángulo 327662" width="4.857" height="1.556" fill="#b3b3b3"/>
          </g>
        </g>
        <g id="Grupo_879121" data-name="Grupo 879121">
          <g id="Grupo_879120" data-name="Grupo 879120">
            <path id="Trazado_621893" data-name="Trazado 621893" d="M-55.908,888.946l-1.515.875,1.515.875Z" transform="translate(58.76 -887.788)" fill="#0a92cf"/>
            <path id="Trazado_621894" data-name="Trazado 621894" d="M-54.837,892.2l-3.52-2.033,3.52-2.033Z" transform="translate(58.357 -888.137)" fill="#b3b3b3"/>
          </g>
        </g>
      </g>
    </g>
    <g id="Grupo_879130" data-name="Grupo 879130" transform="translate(10806.496 3429.969)">
      <g id="Grupo_879124" data-name="Grupo 879124" transform="translate(0.668 1.364)">
        <path id="Trazado_621895" data-name="Trazado 621895" d="M-49.9,889.558h0Z" transform="translate(49.898 -888.889)" fill="#fff"/>
        <rect id="Rectángulo_327663" data-name="Rectángulo 327663" width="4.779" height="1.337" fill="#b3b3b3"/>
      </g>
      <g id="Grupo_879129" data-name="Grupo 879129">
        <g id="Grupo_879126" data-name="Grupo 879126" transform="translate(0 1.255)">
          <g id="Grupo_879125" data-name="Grupo 879125">
            <rect id="Rectángulo_327664" data-name="Rectángulo 327664" width="3.52" height="0.219" transform="translate(0.668 0.668)" fill="#0a92cf"/>
            <rect id="Rectángulo_327665" data-name="Rectángulo 327665" width="4.857" height="1.556" fill="#b3b3b3"/>
          </g>
        </g>
        <g id="Grupo_879128" data-name="Grupo 879128" transform="translate(3.264)">
          <g id="Grupo_879127" data-name="Grupo 879127">
            <path id="Trazado_621896" data-name="Trazado 621896" d="M-47.616,888.946l1.515.875-1.515.875Z" transform="translate(48.285 -887.788)" fill="#0a92cf"/>
            <path id="Trazado_621897" data-name="Trazado 621897" d="M-48.084,892.2v-4.065l3.52,2.033Z" transform="translate(48.084 -888.137)" fill="#b3b3b3"/>
          </g>
        </g>
      </g>
    </g>
    <path id="Trazado_624750" data-name="Trazado 624750" d="M0,0H403.071V97.9H0Z" transform="translate(10786.891 3440.788)" fill="#666"/>
    <path id="Trazado_621956" data-name="Trazado 621956" d="M0,0H371.181V115.855H0Z" transform="translate(10802.836 3480.756)" fill="#eb6f2d"/>
    <path id="Trazado_624751" data-name="Trazado 624751" d="M0,0H110.487V43.542H0Z" transform="translate(10802.836 3613.224)" fill="#666"/>
    <path id="Trazado_624752" data-name="Trazado 624752" d="M0,0H36.708V14.521H0Z" transform="translate(10802.836 3718.762)" fill="#999"/>
    <g id="Grupo_879131" data-name="Grupo 879131" transform="translate(10802.836 3666.874)">
      <path id="Trazado_621898" data-name="Trazado 621898" d="M-52.924,1055.014h0Z" transform="translate(52.924 -1053.217)" fill="#fff"/>
      <rect id="Rectángulo_327670" data-name="Rectángulo 327670" width="110.487" height="3.595" transform="translate(0)" fill="#e6e6e6"/>
    </g>
    <g id="Grupo_879132" data-name="Grupo 879132" transform="translate(10802.836 3674.323)">
      <path id="Trazado_621899" data-name="Trazado 621899" d="M-52.924,1060.222h0Z" transform="translate(52.924 -1058.424)" fill="#fff"/>
      <rect id="Rectángulo_327671" data-name="Rectángulo 327671" width="110.487" height="3.595" transform="translate(0)" fill="#e6e6e6"/>
    </g>
    <g id="Grupo_879133" data-name="Grupo 879133" transform="translate(10802.836 3681.772)">
      <path id="Trazado_621900" data-name="Trazado 621900" d="M-52.924,1065.429h0Z" transform="translate(52.924 -1063.632)" fill="#fff"/>
      <rect id="Rectángulo_327672" data-name="Rectángulo 327672" width="110.487" height="3.595" transform="translate(0)" fill="#e6e6e6"/>
    </g>
    <g id="Grupo_879134" data-name="Grupo 879134" transform="translate(10802.836 3689.221)">
      <path id="Trazado_621901" data-name="Trazado 621901" d="M-52.924,1070.637h0Z" transform="translate(52.924 -1068.839)" fill="#fff"/>
      <rect id="Rectángulo_327673" data-name="Rectángulo 327673" width="110.487" height="3.595" transform="translate(0)" fill="#e6e6e6"/>
    </g>
    <g id="Grupo_879135" data-name="Grupo 879135" transform="translate(10802.836 3696.67)">
      <path id="Trazado_621902" data-name="Trazado 621902" d="M-52.924,1075.845h0Z" transform="translate(52.924 -1074.047)" fill="#fff"/>
      <rect id="Rectángulo_327674" data-name="Rectángulo 327674" width="110.487" height="3.595" transform="translate(0)" fill="#e6e6e6"/>
    </g>
    <g id="Grupo_879136" data-name="Grupo 879136" transform="translate(10802.836 3704.119)">
      <path id="Trazado_621903" data-name="Trazado 621903" d="M-52.924,1081.052h0Z" transform="translate(52.924 -1079.255)" fill="#fff"/>
      <rect id="Rectángulo_327675" data-name="Rectángulo 327675" width="110.487" height="3.595" transform="translate(0)" fill="#e6e6e6"/>
    </g>
    <path id="Trazado_624753" data-name="Trazado 624753" d="M0,0H110.487V43.542H0Z" transform="translate(10933.183 3613.224)" fill="#666"/>
    <path id="Trazado_624754" data-name="Trazado 624754" d="M0,0H36.708V14.521H0Z" transform="translate(10933.183 3718.762)" fill="#999"/>
    <g id="Grupo_879137" data-name="Grupo 879137" transform="translate(10933.183 3666.874)">
      <path id="Trazado_621904" data-name="Trazado 621904" d="M38.2,1055.014h0Z" transform="translate(-38.201 -1053.217)" fill="#fff"/>
      <rect id="Rectángulo_327678" data-name="Rectángulo 327678" width="110.487" height="3.595" transform="translate(0)" fill="#e6e6e6"/>
    </g>
    <g id="Grupo_879138" data-name="Grupo 879138" transform="translate(10933.183 3674.323)">
      <path id="Trazado_621905" data-name="Trazado 621905" d="M38.2,1060.222h0Z" transform="translate(-38.201 -1058.424)" fill="#fff"/>
      <rect id="Rectángulo_327679" data-name="Rectángulo 327679" width="110.487" height="3.595" transform="translate(0)" fill="#e6e6e6"/>
    </g>
    <g id="Grupo_879139" data-name="Grupo 879139" transform="translate(10933.183 3681.772)">
      <path id="Trazado_621906" data-name="Trazado 621906" d="M38.2,1065.429h0Z" transform="translate(-38.201 -1063.632)" fill="#fff"/>
      <rect id="Rectángulo_327680" data-name="Rectángulo 327680" width="110.487" height="3.595" transform="translate(0)" fill="#e6e6e6"/>
    </g>
    <g id="Grupo_879140" data-name="Grupo 879140" transform="translate(10933.183 3689.221)">
      <path id="Trazado_621907" data-name="Trazado 621907" d="M38.2,1070.637h0Z" transform="translate(-38.201 -1068.839)" fill="#fff"/>
      <rect id="Rectángulo_327681" data-name="Rectángulo 327681" width="110.487" height="3.595" transform="translate(0)" fill="#e6e6e6"/>
    </g>
    <g id="Grupo_879141" data-name="Grupo 879141" transform="translate(10933.183 3696.67)">
      <path id="Trazado_621908" data-name="Trazado 621908" d="M38.2,1075.845h0Z" transform="translate(-38.201 -1074.047)" fill="#fff"/>
      <rect id="Rectángulo_327682" data-name="Rectángulo 327682" width="110.487" height="3.595" transform="translate(0)" fill="#e6e6e6"/>
    </g>
    <g id="Grupo_879142" data-name="Grupo 879142" transform="translate(10933.183 3704.119)">
      <path id="Trazado_621909" data-name="Trazado 621909" d="M38.2,1081.052h0Z" transform="translate(-38.201 -1079.255)" fill="#fff"/>
      <rect id="Rectángulo_327683" data-name="Rectángulo 327683" width="110.487" height="3.595" transform="translate(0)" fill="#e6e6e6"/>
    </g>
    <path id="Trazado_624755" data-name="Trazado 624755" d="M0,0H110.487V120.058H0Z" transform="translate(11063.529 3613.224)" fill="#666"/>
    <g id="Grupo_879211" data-name="Grupo 879211" transform="translate(10789.759 3381.742)">
      <g id="Grupo_879143" data-name="Grupo 879143" transform="translate(283.6 244.292)">
        <path id="Trazado_621910" data-name="Trazado 621910" d="M129.327,1055.014h0Z" transform="translate(-129.327 -1053.217)" fill="#fff"/>
        <rect id="Rectángulo_327686" data-name="Rectángulo 327686" width="90.829" height="3.595" transform="translate(0.001)" fill="#e6e6e6"/>
      </g>
      <g id="Grupo_879144" data-name="Grupo 879144" transform="translate(283.6 251.741)">
        <path id="Trazado_621911" data-name="Trazado 621911" d="M129.327,1060.222h0Z" transform="translate(-129.327 -1058.424)" fill="#fff"/>
        <rect id="Rectángulo_327687" data-name="Rectángulo 327687" width="90.829" height="3.595" transform="translate(0.001 0)" fill="#e6e6e6"/>
      </g>
      <g id="Grupo_879145" data-name="Grupo 879145" transform="translate(283.6 259.189)">
        <path id="Trazado_621912" data-name="Trazado 621912" d="M129.327,1065.429h0Z" transform="translate(-129.327 -1063.632)" fill="#fff"/>
        <rect id="Rectángulo_327688" data-name="Rectángulo 327688" width="90.829" height="3.595" transform="translate(0.001 0)" fill="#e6e6e6"/>
      </g>
      <g id="Grupo_879146" data-name="Grupo 879146" transform="translate(283.6 266.639)">
        <path id="Trazado_621913" data-name="Trazado 621913" d="M129.327,1070.637h0Z" transform="translate(-129.327 -1068.839)" fill="#fff"/>
        <rect id="Rectángulo_327689" data-name="Rectángulo 327689" width="90.829" height="3.595" transform="translate(0.001 0)" fill="#e6e6e6"/>
      </g>
      <g id="Grupo_879147" data-name="Grupo 879147" transform="translate(283.6 274.088)">
        <path id="Trazado_621914" data-name="Trazado 621914" d="M129.327,1075.845h0Z" transform="translate(-129.327 -1074.047)" fill="#fff"/>
        <rect id="Rectángulo_327690" data-name="Rectángulo 327690" width="90.829" height="3.595" transform="translate(0.001 0)" fill="#e6e6e6"/>
      </g>
      <g id="Grupo_879148" data-name="Grupo 879148" transform="translate(283.6 281.537)">
        <path id="Trazado_621915" data-name="Trazado 621915" d="M129.327,1081.052h0Z" transform="translate(-129.327 -1079.255)" fill="#fff"/>
        <rect id="Rectángulo_327691" data-name="Rectángulo 327691" width="90.829" height="3.595" transform="translate(0.001 0)" fill="#e6e6e6"/>
      </g>
    </g>
    <g id="Grupo_879212" data-name="Grupo 879212" transform="translate(10789.759 3426.064)">
      <g id="Grupo_879143-2" data-name="Grupo 879143" transform="translate(283.6 244.292)">
        <path id="Trazado_621910-2" data-name="Trazado 621910" d="M129.327,1055.014h0Z" transform="translate(-129.327 -1053.217)" fill="#fff"/>
        <rect id="Rectángulo_327686-2" data-name="Rectángulo 327686" width="90.829" height="3.595" transform="translate(0.001)" fill="#e6e6e6"/>
      </g>
      <g id="Grupo_879144-2" data-name="Grupo 879144" transform="translate(283.6 251.741)">
        <path id="Trazado_621911-2" data-name="Trazado 621911" d="M129.327,1060.222h0Z" transform="translate(-129.327 -1058.424)" fill="#fff"/>
        <rect id="Rectángulo_327687-2" data-name="Rectángulo 327687" width="90.829" height="3.595" transform="translate(0.001 0)" fill="#e6e6e6"/>
      </g>
      <g id="Grupo_879145-2" data-name="Grupo 879145" transform="translate(283.6 259.189)">
        <path id="Trazado_621912-2" data-name="Trazado 621912" d="M129.327,1065.429h0Z" transform="translate(-129.327 -1063.632)" fill="#fff"/>
        <rect id="Rectángulo_327688-2" data-name="Rectángulo 327688" width="90.829" height="3.595" transform="translate(0.001 0)" fill="#e6e6e6"/>
      </g>
      <g id="Grupo_879146-2" data-name="Grupo 879146" transform="translate(283.6 266.639)">
        <path id="Trazado_621913-2" data-name="Trazado 621913" d="M129.327,1070.637h0Z" transform="translate(-129.327 -1068.839)" fill="#fff"/>
        <rect id="Rectángulo_327689-2" data-name="Rectángulo 327689" width="90.829" height="3.595" transform="translate(0.001 0)" fill="#e6e6e6"/>
      </g>
      <g id="Grupo_879147-2" data-name="Grupo 879147" transform="translate(283.6 274.088)">
        <path id="Trazado_621914-2" data-name="Trazado 621914" d="M129.327,1075.845h0Z" transform="translate(-129.327 -1074.047)" fill="#fff"/>
        <rect id="Rectángulo_327690-2" data-name="Rectángulo 327690" width="90.829" height="3.595" transform="translate(0.001 0)" fill="#e6e6e6"/>
      </g>
      <g id="Grupo_879148-2" data-name="Grupo 879148" transform="translate(283.6 281.537)">
        <path id="Trazado_621915-2" data-name="Trazado 621915" d="M129.327,1081.052h0Z" transform="translate(-129.327 -1079.255)" fill="#fff"/>
        <rect id="Rectángulo_327691-2" data-name="Rectángulo 327691" width="90.829" height="3.595" transform="translate(0.001 0)" fill="#e6e6e6"/>
      </g>
    </g>
    <g id="Grupo_879149" data-name="Grupo 879149" transform="translate(10816.424 3528.827)">
      <path id="Trazado_621916" data-name="Trazado 621916" d="M-33.567,976.963l-9.857-9.857,9.857-9.857,1.89,1.89-7.967,7.967,7.967,7.967Z" transform="translate(43.425 -957.249)" fill="#fff"/>
    </g>
    <g id="Grupo_879150" data-name="Grupo 879150" transform="translate(11148.682 3528.827)">
      <path id="Trazado_621917" data-name="Trazado 621917" d="M190.747,976.963l-1.89-1.89,7.967-7.967-7.967-7.967,1.89-1.89,9.857,9.857Z" transform="translate(-188.857 -957.249)" fill="#fff"/>
    </g>
    <path id="Trazado_621918" data-name="Trazado 621918" d="M75.085,994.365a2.673,2.673,0,1,1-2.673-2.673A2.673,2.673,0,0,1,75.085,994.365Z" transform="translate(10908.555 2586.403)" fill="#b3b3b3"/>
    <path id="Trazado_621919" data-name="Trazado 621919" d="M80.3,994.365a2.674,2.674,0,1,1-2.673-2.673A2.674,2.674,0,0,1,80.3,994.365Z" transform="translate(10910.799 2586.403)" fill="#e6e6e6"/>
    <path id="Trazado_621920" data-name="Trazado 621920" d="M85.516,994.365a2.673,2.673,0,1,1-2.673-2.673A2.674,2.674,0,0,1,85.516,994.365Z" transform="translate(10913.044 2586.403)" fill="#e6e6e6"/>
    <path id="Trazado_624756" data-name="Trazado 624756" d="M2.228,0A2.228,2.228,0,1,1,0,2.228,2.228,2.228,0,0,1,2.228,0Z" transform="translate(11179.27 3429.965)" fill="red"/>
    <path id="Trazado_621921" data-name="Trazado 621921" d="M209.468,890.363a2.228,2.228,0,1,1-2.229-2.229A2.228,2.228,0,0,1,209.468,890.363Z" transform="translate(10966.777 2541.831)" fill="#b3b3b3"/>
    <path id="Trazado_624757" data-name="Trazado 624757" d="M2.228,0A2.228,2.228,0,1,1,0,2.228,2.228,2.228,0,0,1,2.228,0Z" transform="translate(11164.308 3429.965)" fill="#b3b3b3"/>
    <path id="Trazado_621922" data-name="Trazado 621922" d="M-35.27,890.876l.443-2.974-.953.376a3.877,3.877,0,0,0-2.919-1.336,3.939,3.939,0,0,0-3.934,3.934,3.938,3.938,0,0,0,3.934,3.932,3.94,3.94,0,0,0,2.772-1.16l-.757-.734,0,.089a2.9,2.9,0,0,1-2.011.8,2.93,2.93,0,0,1-2.928-2.927,2.931,2.931,0,0,1,2.928-2.928,2.876,2.876,0,0,1,1.9.731l-.828.328Z" transform="translate(10860.189 2541.318)" fill="#b3b3b3"/>
    <path id="Trazado_621923" data-name="Trazado 621923" d="M-31.156,887.863l2.842,2.842h-1.277v3.127H-32.72v-3.127H-34l2.841-2.842Zm0-.857a.853.853,0,0,0-.605.25L-34.6,890.1a.859.859,0,0,0-.186.934.859.859,0,0,0,.792.529h.421v2.27a.856.856,0,0,0,.857.857h3.128a.856.856,0,0,0,.857-.857v-2.27h.421a.859.859,0,0,0,.792-.529.859.859,0,0,0-.186-.934l-2.842-2.842a.854.854,0,0,0-.606-.25Z" transform="translate(10863.537 2541.345)" fill="#b3b3b3"/>
    <path id="Trazado_624758" data-name="Trazado 624758" d="M1.577,0H333.541a1.577,1.577,0,0,1,1.577,1.577v401.7a1.577,1.577,0,0,1-1.577,1.577H1.577A1.577,1.577,0,0,1,0,403.275V1.577A1.577,1.577,0,0,1,1.577,0Z" transform="translate(11605.257 3422.582) rotate(90)" fill="#e6e6e6"/>
    <path id="Trazado_624759" data-name="Trazado 624759" d="M0,0H403.07V306.949H0Z" transform="translate(11201.296 3440.788)" fill="#fff"/>
    <g id="Grupo_879152" data-name="Grupo 879152" transform="translate(11254.959 3427.081)">
      <rect id="Rectángulo_327694" data-name="Rectángulo 327694" width="305.448" height="9.798" rx="0.596" transform="translate(0.213 0.213)" fill="#fff"/>
      <path id="Trazado_621924" data-name="Trazado 621924" d="M567.964,896.343H264.222a1.067,1.067,0,0,1-1.066-1.067v-8.092a1.066,1.066,0,0,1,1.066-1.066H567.964a1.067,1.067,0,0,1,1.066,1.066v8.092A1.067,1.067,0,0,1,567.964,896.343Zm-303.743-9.8a.64.64,0,0,0-.639.639v8.092a.64.64,0,0,0,.639.641H567.964a.641.641,0,0,0,.64-.641v-8.092a.641.641,0,0,0-.64-.639Z" transform="translate(-263.156 -886.118)" fill="#ccc"/>
    </g>
    <g id="Grupo_879159" data-name="Grupo 879159" transform="translate(11209.468 3429.969)">
      <g id="Grupo_879153" data-name="Grupo 879153" transform="translate(1.337 1.364)">
        <path id="Trazado_621925" data-name="Trazado 621925" d="M237.066,889.558h0Z" transform="translate(-232.287 -888.889)" fill="#fff"/>
        <rect id="Rectángulo_327695" data-name="Rectángulo 327695" width="4.779" height="1.337" fill="#b3b3b3"/>
      </g>
      <g id="Grupo_879158" data-name="Grupo 879158">
        <g id="Grupo_879155" data-name="Grupo 879155" transform="translate(1.927 1.254)">
          <g id="Grupo_879154" data-name="Grupo 879154">
            <rect id="Rectángulo_327696" data-name="Rectángulo 327696" width="3.52" height="0.219" transform="translate(0.669 0.668)" fill="#0a92cf"/>
            <rect id="Rectángulo_327697" data-name="Rectángulo 327697" width="4.857" height="1.556" fill="#b3b3b3"/>
          </g>
        </g>
        <g id="Grupo_879157" data-name="Grupo 879157">
          <g id="Grupo_879156" data-name="Grupo 879156">
            <path id="Trazado_621926" data-name="Trazado 621926" d="M233.8,888.946l-1.515.875,1.515.875Z" transform="translate(-230.951 -887.789)" fill="#0a92cf"/>
            <path id="Trazado_621927" data-name="Trazado 621927" d="M234.873,892.2l-3.52-2.032,3.52-2.032Z" transform="translate(-231.353 -888.137)" fill="#b3b3b3"/>
          </g>
        </g>
      </g>
    </g>
    <g id="Grupo_879166" data-name="Grupo 879166" transform="translate(11220.9 3429.969)">
      <g id="Grupo_879160" data-name="Grupo 879160" transform="translate(0.668 1.364)">
        <path id="Trazado_621928" data-name="Trazado 621928" d="M239.813,889.558h0Z" transform="translate(-239.812 -888.889)" fill="#fff"/>
        <rect id="Rectángulo_327698" data-name="Rectángulo 327698" width="4.779" height="1.337" fill="#b3b3b3"/>
      </g>
      <g id="Grupo_879165" data-name="Grupo 879165">
        <g id="Grupo_879162" data-name="Grupo 879162" transform="translate(0 1.254)">
          <g id="Grupo_879161" data-name="Grupo 879161">
            <rect id="Rectángulo_327699" data-name="Rectángulo 327699" width="3.52" height="0.219" transform="translate(0.668 0.668)" fill="#0a92cf"/>
            <rect id="Rectángulo_327700" data-name="Rectángulo 327700" width="4.856" height="1.556" fill="#b3b3b3"/>
          </g>
        </g>
        <g id="Grupo_879164" data-name="Grupo 879164" transform="translate(3.264)">
          <g id="Grupo_879163" data-name="Grupo 879163">
            <path id="Trazado_621929" data-name="Trazado 621929" d="M242.094,888.946l1.515.875-1.515.875Z" transform="translate(-241.426 -887.789)" fill="#0a92cf"/>
            <path id="Trazado_621930" data-name="Trazado 621930" d="M241.627,892.2v-4.064l3.521,2.032Z" transform="translate(-241.627 -888.137)" fill="#b3b3b3"/>
          </g>
        </g>
      </g>
    </g>
    <path id="Trazado_624760" data-name="Trazado 624760" d="M2.228,0A2.228,2.228,0,1,1,0,2.228,2.228,2.228,0,0,1,2.228,0Z" transform="translate(11593.674 3429.965)" fill="red"/>
    <path id="Trazado_624761" data-name="Trazado 624761" d="M2.228,0A2.228,2.228,0,1,1,0,2.228,2.228,2.228,0,0,1,2.228,0Z" transform="translate(11586.192 3429.965)" fill="#b3b3b3"/>
    <path id="Trazado_621931" data-name="Trazado 621931" d="M493.948,890.363a2.228,2.228,0,1,1-2.227-2.229A2.227,2.227,0,0,1,493.948,890.363Z" transform="translate(11089.22 2541.831)" fill="#b3b3b3"/>
    <g id="Grupo_879169" data-name="Grupo 879169" transform="translate(11231.963 3428.26)">
      <g id="Grupo_879167" data-name="Grupo 879167">
        <path id="Trazado_621932" data-name="Trazado 621932" d="M251.011,894.808a3.933,3.933,0,1,1,3.147-6.291l.11.147-.262,4.766-.126.135A3.95,3.95,0,0,1,251.011,894.808Zm0-6.86a2.927,2.927,0,1,0,0,5.855,2.9,2.9,0,0,0,2.013-.8l.22-4.021A2.9,2.9,0,0,0,251.011,887.948Zm2.5,5.272h0Z" transform="translate(-247.079 -886.942)" fill="#b3b3b3"/>
      </g>
      <g id="Grupo_879168" data-name="Grupo 879168" transform="translate(5.008 0.96)">
        <path id="Trazado_621933" data-name="Trazado 621933" d="M250.58,888.717l2.354,1.87.442-2.973Z" transform="translate(-250.58 -887.613)" fill="#b3b3b3"/>
      </g>
    </g>
    <path id="Trazado_621934" data-name="Trazado 621934" d="M258.555,887.863l2.842,2.842h-1.279v3.127h-3.127v-3.127h-1.279l2.842-2.842Zm0-.857a.858.858,0,0,0-.607.252l-2.841,2.841a.857.857,0,0,0,.605,1.463h.422v2.27a.857.857,0,0,0,.857.857h3.127a.856.856,0,0,0,.857-.857v-2.27h.422A.857.857,0,0,0,262,890.1l-2.841-2.841a.858.858,0,0,0-.607-.252Z" transform="translate(10988.23 2541.345)" fill="#b3b3b3"/>
    <path id="Trazado_624762" data-name="Trazado 624762" d="M0,0H240.834V67.717H0Z" transform="translate(11217.24 3453.156)" fill="#666"/>
    <path id="Trazado_624763" data-name="Trazado 624763" d="M0,0H112.936V199.458H0Z" transform="translate(11473.257 3475.011)" fill="#999"/>
    <path id="Trazado_624764" data-name="Trazado 624764" d="M0,0H120.417V11.546H0Z" transform="translate(11217.24 3529.529)" fill="#999"/>
    <path id="Trazado_624765" data-name="Trazado 624765" d="M0,0H13.524V11.546H0Z" transform="translate(11444.55 3529.529)" fill="#999"/>
    <path id="Trazado_624766" data-name="Trazado 624766" d="M0,0H13.524V11.546H0Z" transform="translate(11428.9 3529.529)" fill="#999"/>
    <g id="Grupo_879170" data-name="Grupo 879170" transform="translate(11262.97 3715.149)">
      <rect id="Rectángulo_327706" data-name="Rectángulo 327706" width="33.814" height="11.546" transform="translate(0.223 0.223)" fill="#fff"/>
      <path id="Trazado_621935" data-name="Trazado 621935" d="M303.016,1099.5h-34.26v-11.993h34.26Zm-33.813-.446h33.367v-11.1H269.2Z" transform="translate(-268.756 -1087.507)" fill="#ccc"/>
    </g>
    <g id="Grupo_879171" data-name="Grupo 879171" transform="translate(11301.543 3715.149)">
      <rect id="Rectángulo_327707" data-name="Rectángulo 327707" width="33.814" height="11.546" transform="translate(0.223 0.223)" fill="#fff"/>
      <path id="Trazado_621936" data-name="Trazado 621936" d="M329.983,1099.5h-34.26v-11.993h34.26Zm-33.813-.446h33.368v-11.1H296.169Z" transform="translate(-295.723 -1087.507)" fill="#ccc"/>
    </g>
    <g id="Grupo_879172" data-name="Grupo 879172" transform="translate(11262.97 3596.983)">
      <rect id="Rectángulo_327708" data-name="Rectángulo 327708" width="33.814" height="11.546" transform="translate(0.223 0.223)" fill="#fff"/>
      <path id="Trazado_621937" data-name="Trazado 621937" d="M303.016,1016.888h-34.26V1004.9h34.26Zm-33.813-.445h33.367v-11.1H269.2Z" transform="translate(-268.756 -1004.897)" fill="#ccc"/>
    </g>
    <g id="Grupo_879173" data-name="Grupo 879173" transform="translate(11301.543 3596.983)">
      <rect id="Rectángulo_327709" data-name="Rectángulo 327709" width="33.814" height="11.546" transform="translate(0.223 0.223)" fill="#fff"/>
      <path id="Trazado_621938" data-name="Trazado 621938" d="M329.983,1016.888h-34.26V1004.9h34.26Zm-33.813-.445h33.368v-11.1H296.169Z" transform="translate(-295.723 -1004.897)" fill="#ccc"/>
    </g>
    <g id="Grupo_879174" data-name="Grupo 879174" transform="translate(11513.36 3452.933)">
      <rect id="Rectángulo_327710" data-name="Rectángulo 327710" width="72.609" height="10.928" rx="1.558" transform="translate(0.223 0.223)" fill="#fff"/>
      <path id="Trazado_621939" data-name="Trazado 621939" d="M514.408,915.564H446.255a2.452,2.452,0,0,1-2.45-2.45v-6.473a2.452,2.452,0,0,1,2.45-2.45h68.153a2.453,2.453,0,0,1,2.452,2.45v6.473A2.453,2.453,0,0,1,514.408,915.564Zm-68.153-10.927a2.007,2.007,0,0,0-2.005,2v6.473a2.007,2.007,0,0,0,2.005,2h68.153a2.007,2.007,0,0,0,2.005-2v-6.473a2.007,2.007,0,0,0-2.005-2Z" transform="translate(-443.805 -904.191)" fill="#ccc"/>
    </g>
    <path id="Trazado_624767" data-name="Trazado 624767" d="M0,0H34.585V10.928H0Z" transform="translate(11473.784 3453.156)" fill="#c6c6c6"/>
    <g id="Grupo_879175" data-name="Grupo 879175" transform="translate(11218.539 3549.732)">
      <rect id="Rectángulo_327712" data-name="Rectángulo 327712" width="34.037" height="34.037" fill="#c6c6c6"/>
    </g>
    <g id="Grupo_879176" data-name="Grupo 879176" transform="translate(11473.5 3681.883)">
      <rect id="Rectángulo_327714" data-name="Rectángulo 327714" width="33.264" height="35.645" fill="#c6c6c6"/>
      <rect id="Rectángulo_327715" data-name="Rectángulo 327715" width="33.264" height="35.645" transform="translate(39.836)" fill="#c6c6c6"/>
      <rect id="Rectángulo_327716" data-name="Rectángulo 327716" width="33.264" height="35.645" transform="translate(79.672)" fill="#c6c6c6"/>
    </g>
    <g id="Grupo_879177" data-name="Grupo 879177" transform="translate(11263.192 3549.838)">
      <rect id="Rectángulo_327717" data-name="Rectángulo 327717" width="194.881" height="4.584" fill="#e6e6e6"/>
    </g>
    <g id="Grupo_879178" data-name="Grupo 879178" transform="translate(11263.192 3557.287)">
      <rect id="Rectángulo_327718" data-name="Rectángulo 327718" width="194.881" height="4.584" fill="#e6e6e6"/>
    </g>
    <g id="Grupo_879179" data-name="Grupo 879179" transform="translate(11263.192 3564.736)">
      <rect id="Rectángulo_327719" data-name="Rectángulo 327719" width="194.881" height="4.584" fill="#e6e6e6"/>
    </g>
    <g id="Grupo_879180" data-name="Grupo 879180" transform="translate(11263.192 3572.185)">
      <rect id="Rectángulo_327720" data-name="Rectángulo 327720" width="194.881" height="4.584" fill="#e6e6e6"/>
    </g>
    <g id="Grupo_879181" data-name="Grupo 879181" transform="translate(11263.192 3579.635)">
      <rect id="Rectángulo_327721" data-name="Rectángulo 327721" width="194.882" height="4.584" fill="#e6e6e6"/>
    </g>
    <g id="Grupo_879182" data-name="Grupo 879182" transform="translate(11263.192 3587.083)">
      <rect id="Rectángulo_327722" data-name="Rectángulo 327722" width="72.388" height="4.584" fill="#e6e6e6"/>
    </g>
    <g id="Grupo_879183" data-name="Grupo 879183" transform="translate(11218.538 3587.083)">
      <rect id="Rectángulo_327723" data-name="Rectángulo 327723" width="34.037" height="4.584" fill="#e6e6e6"/>
    </g>
    <g id="Grupo_879184" data-name="Grupo 879184" transform="translate(11218.538 3594.914)">
      <rect id="Rectángulo_327724" data-name="Rectángulo 327724" width="18.433" height="4.584" fill="#e6e6e6"/>
    </g>
    <g id="Grupo_879185" data-name="Grupo 879185" transform="translate(11218.538 3720.711)">
      <rect id="Rectángulo_327725" data-name="Rectángulo 327725" width="34.037" height="4.584" fill="#e6e6e6"/>
    </g>
    <g id="Grupo_879186" data-name="Grupo 879186" transform="translate(11218.538 3728.542)">
      <rect id="Rectángulo_327726" data-name="Rectángulo 327726" width="18.433" height="4.584" fill="#e6e6e6"/>
    </g>
    <g id="Grupo_879189" data-name="Grupo 879189" transform="translate(11218.539 3682.687)">
      <rect id="Rectángulo_327729" data-name="Rectángulo 327729" width="34.037" height="34.037" fill="#c6c6c6"/>
    </g>
    <g id="Grupo_879190" data-name="Grupo 879190" transform="translate(11263.192 3682.794)">
      <rect id="Rectángulo_327730" data-name="Rectángulo 327730" width="194.881" height="4.584" fill="#e6e6e6"/>
    </g>
    <g id="Grupo_879191" data-name="Grupo 879191" transform="translate(11263.192 3690.242)">
      <rect id="Rectángulo_327731" data-name="Rectángulo 327731" width="194.881" height="4.584" fill="#e6e6e6"/>
    </g>
    <g id="Grupo_879192" data-name="Grupo 879192" transform="translate(11263.192 3697.692)">
      <rect id="Rectángulo_327732" data-name="Rectángulo 327732" width="194.881" height="4.584" fill="#e6e6e6"/>
    </g>
    <g id="Grupo_879193" data-name="Grupo 879193" transform="translate(11263.192 3705.14)">
      <rect id="Rectángulo_327733" data-name="Rectángulo 327733" width="194.881" height="4.584" fill="#e6e6e6"/>
    </g>
    <path id="Trazado_621941" data-name="Trazado 621941" d="M265.694,1003.141v-4.051a4.053,4.053,0,0,0-2.837-3.871l-6.57-2.115v-1.888a9.2,9.2,0,1,0-5.9,0V993.1l-6.57,2.115a3.948,3.948,0,0,0-2.206,1.667,3.756,3.756,0,0,0-.675,2.2v4.051h24.755Z" transform="translate(10982.241 2578.507)" fill="#999"/>
    <path id="Trazado_621942" data-name="Trazado 621942" d="M265.694,1096.09v-4.051a4.052,4.052,0,0,0-2.837-3.871l-6.57-2.116v-1.888a9.2,9.2,0,1,0-5.9,0v1.888l-6.57,2.116a3.947,3.947,0,0,0-2.206,1.666,3.757,3.757,0,0,0-.675,2.2v4.051h24.755Z" transform="translate(10982.241 2618.513)" fill="#999"/>
    <g id="Grupo_879207" data-name="Grupo 879207" transform="translate(11274.259 3648.034)">
      <rect id="Rectángulo_327730-2" data-name="Rectángulo 327730" width="121.074" height="4.584" fill="#e6e6e6"/>
    </g>
    <path id="Trazado_621940" data-name="Trazado 621940" d="M504.42,1020.408H268.912v83.378H496.778v-70.8Z" transform="translate(10949.627 2563.811)" fill="#666"/>
    <g id="Grupo_879206" data-name="Grupo 879206" transform="translate(11235.301 3607.883)">
      <rect id="Rectángulo_327730-3" data-name="Rectángulo 327730" width="183.387" height="6.943" fill="#e6e6e6"/>
    </g>
    <g id="Grupo_879208" data-name="Grupo 879208" transform="translate(11235.301 3627.937)">
      <rect id="Rectángulo_327730-4" data-name="Rectángulo 327730" width="183.387" height="6.943" fill="#e6e6e6"/>
    </g>
    <g id="Grupo_879209" data-name="Grupo 879209" transform="translate(11235.301 3648.153)">
      <rect id="Rectángulo_327730-5" data-name="Rectángulo 327730" width="183.387" height="6.943" transform="translate(0 0)" fill="#e6e6e6"/>
    </g>
    <g id="Trazado_624768" data-name="Trazado 624768" transform="translate(11422 3587)" fill="#fff">
      <path d="M 10 19.5 C 4.761680126190186 19.5 0.5 15.23832035064697 0.5 10 C 0.5 4.761680126190186 4.761680126190186 0.5 10 0.5 C 15.23832035064697 0.5 19.5 4.761680126190186 19.5 10 C 19.5 15.23832035064697 15.23832035064697 19.5 10 19.5 Z" stroke="none"/>
      <path d="M 10 1 C 5.037380218505859 1 1 5.037380218505859 1 10 C 1 14.96261978149414 5.037380218505859 19 10 19 C 14.96261978149414 19 19 14.96261978149414 19 10 C 19 5.037380218505859 14.96261978149414 1 10 1 M 10 0 C 15.52285003662109 0 20 4.477149963378906 20 10 C 20 15.52285003662109 15.52285003662109 20 10 20 C 4.477149963378906 20 0 15.52285003662109 0 10 C 0 4.477149963378906 4.477149963378906 0 10 0 Z" stroke="none" fill="#707070"/>
    </g>
    <path id="Trazado_624769" data-name="Trazado 624769" d="M0-7.453l2.133-3.922h2.7L1.52-5.734,4.918,0H2.191L0-3.984-2.184,0H-4.91l3.4-5.734-3.312-5.641h2.7Z" transform="translate(11432 3603)" fill="#636363"/>
    <path id="Trazado_621944" data-name="Trazado 621944" d="M9640.333,3353.733V3244H9680.4" transform="translate(1176 141)" fill="none" stroke="#12263f" stroke-width="2"/>
    <path id="Trazado_624770" data-name="Trazado 624770" d="M13,0H265a13,13,0,0,1,13,13V141a13,13,0,0,1-13,13H13A13,13,0,0,1,0,141V13A13,13,0,0,1,13,0Z" transform="translate(10836 3358)" fill="#b6e1fd"/>
    <path id="Trazado_624771" data-name="Trazado 624771" d="M1.155,13V3.047H4.409a3.777,3.777,0,0,1,2.437.67A2.414,2.414,0,0,1,7.663,5.7a2.022,2.022,0,0,1-.4,1.234,2.57,2.57,0,0,1-1.08.831,2.308,2.308,0,0,1,1.275.858,2.462,2.462,0,0,1,.468,1.507,2.662,2.662,0,0,1-.868,2.105A3.59,3.59,0,0,1,4.607,13ZM2.468,8.345v3.582H4.635a2.087,2.087,0,0,0,1.446-.475,1.669,1.669,0,0,0,.53-1.309q0-1.8-1.955-1.8Zm0-1.053H4.45A2.078,2.078,0,0,0,5.828,6.86a1.447,1.447,0,0,0,.516-1.171,1.423,1.423,0,0,0-.479-1.2A2.35,2.35,0,0,0,4.409,4.12H2.468ZM14.239,13a2.657,2.657,0,0,1-.178-.779,2.822,2.822,0,0,1-2.105.916,2.611,2.611,0,0,1-1.794-.619,2,2,0,0,1-.7-1.569,2.091,2.091,0,0,1,.878-1.794,4.142,4.142,0,0,1,2.471-.639h1.23V7.935a1.42,1.42,0,0,0-.4-1.056,1.593,1.593,0,0,0-1.169-.393,1.844,1.844,0,0,0-1.135.342,1.007,1.007,0,0,0-.458.827H9.611A1.745,1.745,0,0,1,10,6.584a2.683,2.683,0,0,1,1.066-.817,3.588,3.588,0,0,1,1.48-.3,2.924,2.924,0,0,1,2,.639,2.306,2.306,0,0,1,.752,1.76v3.4a4.162,4.162,0,0,0,.26,1.62V13Zm-2.1-.964a2.223,2.223,0,0,0,1.128-.308,1.861,1.861,0,0,0,.772-.8V9.411H13.05q-2.324,0-2.324,1.36a1.151,1.151,0,0,0,.4.93A1.524,1.524,0,0,0,12.141,12.036ZM18.484,5.6l.041.93A2.7,2.7,0,0,1,20.74,5.467q2.345,0,2.365,2.646V13H21.841V8.105a1.7,1.7,0,0,0-.366-1.183,1.466,1.466,0,0,0-1.118-.383,1.825,1.825,0,0,0-1.08.328,2.228,2.228,0,0,0-.725.861V13H17.288V5.6Zm7.725,0,.041.93a2.7,2.7,0,0,1,2.215-1.066q2.345,0,2.365,2.646V13H29.565V8.105A1.7,1.7,0,0,0,29.2,6.923a1.466,1.466,0,0,0-1.118-.383A1.825,1.825,0,0,0,27,6.868a2.228,2.228,0,0,0-.725.861V13H25.013V5.6Zm9.6,7.533a3.232,3.232,0,0,1-2.447-.988,3.666,3.666,0,0,1-.943-2.642V9.274a4.438,4.438,0,0,1,.42-1.965,3.28,3.28,0,0,1,1.176-1.354,2.956,2.956,0,0,1,1.637-.489,2.77,2.77,0,0,1,2.242.95,4.114,4.114,0,0,1,.8,2.721v.526H33.681a2.629,2.629,0,0,0,.639,1.767,2.009,2.009,0,0,0,1.555.673,2.2,2.2,0,0,0,1.135-.273,2.851,2.851,0,0,0,.813-.725l.772.6A3.106,3.106,0,0,1,35.807,13.137Zm-.157-6.631a1.687,1.687,0,0,0-1.285.557,2.708,2.708,0,0,0-.643,1.562h3.705v-.1a2.409,2.409,0,0,0-.52-1.494A1.588,1.588,0,0,0,35.649,6.506Zm8.08.232a3.79,3.79,0,0,0-.622-.048,1.667,1.667,0,0,0-1.688,1.06V13H40.154V5.6h1.23l.021.854a1.969,1.969,0,0,1,1.764-.991,1.292,1.292,0,0,1,.561.1ZM49.622,6.5A2.689,2.689,0,0,1,51.81,5.467q2.345,0,2.365,2.646V13H52.91V8.105a1.7,1.7,0,0,0-.366-1.183,1.466,1.466,0,0,0-1.118-.383,1.825,1.825,0,0,0-1.08.328,2.228,2.228,0,0,0-.725.861V13H48.357V2.5h1.265Zm6.111,2.734a4.369,4.369,0,0,1,.427-1.955,3.187,3.187,0,0,1,1.189-1.34,3.238,3.238,0,0,1,1.74-.472,3.119,3.119,0,0,1,2.444,1.046,4.024,4.024,0,0,1,.933,2.782v.089a4.407,4.407,0,0,1-.414,1.938,3.14,3.14,0,0,1-1.183,1.336,3.275,3.275,0,0,1-1.767.479,3.111,3.111,0,0,1-2.437-1.046,4,4,0,0,1-.933-2.769ZM57,9.384a3.164,3.164,0,0,0,.571,1.976,1.934,1.934,0,0,0,3.059-.01A3.46,3.46,0,0,0,61.2,9.233a3.159,3.159,0,0,0-.578-1.972,1.836,1.836,0,0,0-1.535-.755,1.816,1.816,0,0,0-1.511.745A3.435,3.435,0,0,0,57,9.384ZM67.628,6.738a3.79,3.79,0,0,0-.622-.048,1.667,1.667,0,0,0-1.688,1.06V13H64.053V5.6h1.23l.021.854a1.969,1.969,0,0,1,1.764-.991,1.292,1.292,0,0,1,.561.1ZM70.164,13H68.9V5.6h1.265ZM68.8,3.642a.755.755,0,0,1,.188-.52.706.706,0,0,1,.557-.212.717.717,0,0,1,.561.212.747.747,0,0,1,.191.52.722.722,0,0,1-.191.513.73.73,0,0,1-.561.205.718.718,0,0,1-.557-.205A.73.73,0,0,1,68.8,3.642Zm4.58,8.326H77.7V13H71.832v-.93l4.081-5.421h-4.02V5.6H77.5v.9Zm5.3-2.734a4.369,4.369,0,0,1,.427-1.955A3.187,3.187,0,0,1,80.3,5.938a3.238,3.238,0,0,1,1.74-.472,3.119,3.119,0,0,1,2.444,1.046,4.024,4.024,0,0,1,.933,2.782v.089A4.407,4.407,0,0,1,85,11.322a3.14,3.14,0,0,1-1.183,1.336,3.275,3.275,0,0,1-1.767.479,3.111,3.111,0,0,1-2.437-1.046,4,4,0,0,1-.933-2.769Zm1.271.15a3.164,3.164,0,0,0,.571,1.976,1.934,1.934,0,0,0,3.059-.01,3.46,3.46,0,0,0,.567-2.116,3.159,3.159,0,0,0-.578-1.972,1.836,1.836,0,0,0-1.535-.755,1.816,1.816,0,0,0-1.511.745A3.435,3.435,0,0,0,79.953,9.384ZM88.2,5.6l.041.93a2.7,2.7,0,0,1,2.215-1.066q2.345,0,2.365,2.646V13H91.554V8.105a1.7,1.7,0,0,0-.366-1.183A1.466,1.466,0,0,0,90.07,6.54a1.825,1.825,0,0,0-1.08.328,2.228,2.228,0,0,0-.725.861V13H87V5.6Zm8.244-1.791V5.6h1.381v.978H96.441v4.593a1.027,1.027,0,0,0,.185.667.777.777,0,0,0,.629.222,3.062,3.062,0,0,0,.6-.082V13a3.688,3.688,0,0,1-.971.136,1.575,1.575,0,0,1-1.278-.513,2.2,2.2,0,0,1-.431-1.456V6.581H93.83V5.6h1.347V3.813ZM103.865,13a2.657,2.657,0,0,1-.178-.779,2.822,2.822,0,0,1-2.105.916,2.611,2.611,0,0,1-1.794-.619,2,2,0,0,1-.7-1.569,2.091,2.091,0,0,1,.878-1.794,4.141,4.141,0,0,1,2.471-.639h1.23V7.935a1.42,1.42,0,0,0-.4-1.056,1.593,1.593,0,0,0-1.169-.393,1.844,1.844,0,0,0-1.135.342,1.007,1.007,0,0,0-.458.827H99.237a1.745,1.745,0,0,1,.393-1.07,2.683,2.683,0,0,1,1.066-.817,3.588,3.588,0,0,1,1.48-.3,2.924,2.924,0,0,1,2,.639,2.306,2.306,0,0,1,.752,1.76v3.4a4.162,4.162,0,0,0,.26,1.62V13Zm-2.1-.964a2.223,2.223,0,0,0,1.128-.308,1.861,1.861,0,0,0,.772-.8V9.411h-.991q-2.324,0-2.324,1.36a1.151,1.151,0,0,0,.4.93A1.524,1.524,0,0,0,101.767,12.036Zm6.521.964h-1.265V2.5h1.265Zm8.559.137a3.232,3.232,0,0,1-2.447-.988,3.666,3.666,0,0,1-.943-2.642V9.274a4.438,4.438,0,0,1,.42-1.965,3.28,3.28,0,0,1,1.176-1.354,2.956,2.956,0,0,1,1.637-.489,2.77,2.77,0,0,1,2.242.95,4.114,4.114,0,0,1,.8,2.721v.526h-5.011a2.629,2.629,0,0,0,.639,1.767,2.009,2.009,0,0,0,1.555.673,2.2,2.2,0,0,0,1.135-.273,2.851,2.851,0,0,0,.813-.725l.772.6A3.106,3.106,0,0,1,116.847,13.137Zm-.157-6.631a1.687,1.687,0,0,0-1.285.557,2.708,2.708,0,0,0-.643,1.562h3.705v-.1a2.409,2.409,0,0,0-.52-1.494A1.588,1.588,0,0,0,116.689,6.506Zm5.7-.9.041.93a2.7,2.7,0,0,1,2.215-1.066q2.345,0,2.365,2.646V13h-1.265V8.105a1.7,1.7,0,0,0-.366-1.183,1.466,1.466,0,0,0-1.118-.383,1.825,1.825,0,0,0-1.08.328,2.228,2.228,0,0,0-.725.861V13h-1.265V5.6ZM133.007,13V6.581h-1.169V5.6h1.169V4.845a2.519,2.519,0,0,1,.636-1.839,2.4,2.4,0,0,1,1.8-.649,3.339,3.339,0,0,1,.868.115l-.068,1.019a3.632,3.632,0,0,0-.684-.062,1.234,1.234,0,0,0-.95.36,1.46,1.46,0,0,0-.335,1.032V5.6h1.579v.978h-1.579V13Zm3.9-3.767a4.369,4.369,0,0,1,.427-1.955,3.187,3.187,0,0,1,1.189-1.34,3.238,3.238,0,0,1,1.74-.472,3.119,3.119,0,0,1,2.444,1.046,4.024,4.024,0,0,1,.933,2.782v.089a4.407,4.407,0,0,1-.414,1.938,3.14,3.14,0,0,1-1.183,1.336,3.275,3.275,0,0,1-1.767.479,3.111,3.111,0,0,1-2.437-1.046,4,4,0,0,1-.933-2.769Zm1.271.15a3.164,3.164,0,0,0,.571,1.976,1.934,1.934,0,0,0,3.059-.01,3.46,3.46,0,0,0,.567-2.116,3.159,3.159,0,0,0-.578-1.972,1.836,1.836,0,0,0-1.535-.755,1.816,1.816,0,0,0-1.511.745A3.435,3.435,0,0,0,138.182,9.384ZM148.8,6.738a3.79,3.79,0,0,0-.622-.048,1.667,1.667,0,0,0-1.688,1.06V13h-1.265V5.6h1.23l.021.854a1.969,1.969,0,0,1,1.764-.991,1.292,1.292,0,0,1,.561.1ZM151.156,5.6l.034.82a2.732,2.732,0,0,1,2.194-.957A2.115,2.115,0,0,1,155.5,6.656a2.8,2.8,0,0,1,.96-.861,2.837,2.837,0,0,1,1.4-.328q2.434,0,2.475,2.577V13h-1.265V8.119a1.7,1.7,0,0,0-.362-1.186,1.6,1.6,0,0,0-1.217-.393,1.677,1.677,0,0,0-1.169.42,1.706,1.706,0,0,0-.54,1.131V13h-1.271V8.153a1.411,1.411,0,0,0-1.579-1.613,1.692,1.692,0,0,0-1.7,1.06V13H149.96V5.6ZM166.8,13a2.657,2.657,0,0,1-.178-.779,2.822,2.822,0,0,1-2.105.916,2.611,2.611,0,0,1-1.794-.619,2,2,0,0,1-.7-1.569,2.091,2.091,0,0,1,.878-1.794,4.142,4.142,0,0,1,2.471-.639h1.23V7.935a1.42,1.42,0,0,0-.4-1.056,1.593,1.593,0,0,0-1.169-.393,1.844,1.844,0,0,0-1.135.342,1.007,1.007,0,0,0-.458.827h-1.271a1.745,1.745,0,0,1,.393-1.07,2.683,2.683,0,0,1,1.066-.817,3.588,3.588,0,0,1,1.48-.3,2.924,2.924,0,0,1,2,.639,2.306,2.306,0,0,1,.752,1.76v3.4a4.162,4.162,0,0,0,.26,1.62V13Zm-2.1-.964a2.223,2.223,0,0,0,1.128-.308,1.861,1.861,0,0,0,.772-.8V9.411h-.991q-2.324,0-2.324,1.36a1.151,1.151,0,0,0,.4.93A1.524,1.524,0,0,0,164.705,12.036ZM4.532,24.738a3.79,3.79,0,0,0-.622-.048,1.667,1.667,0,0,0-1.688,1.06V31H.957V23.6h1.23l.021.854a1.969,1.969,0,0,1,1.764-.991,1.292,1.292,0,0,1,.561.1Zm4.1,6.4a3.232,3.232,0,0,1-2.447-.988,3.666,3.666,0,0,1-.943-2.642v-.232a4.438,4.438,0,0,1,.42-1.965,3.28,3.28,0,0,1,1.176-1.354,2.956,2.956,0,0,1,1.637-.489,2.77,2.77,0,0,1,2.242.95,4.114,4.114,0,0,1,.8,2.721v.526H6.508a2.629,2.629,0,0,0,.639,1.767A2.009,2.009,0,0,0,8.7,30.1a2.2,2.2,0,0,0,1.135-.273,2.851,2.851,0,0,0,.813-.725l.772.6A3.106,3.106,0,0,1,8.634,31.137Zm-.157-6.631a1.687,1.687,0,0,0-1.285.557,2.708,2.708,0,0,0-.643,1.562h3.705v-.1a2.409,2.409,0,0,0-.52-1.494A1.588,1.588,0,0,0,8.477,24.506Zm7.472,5.6a1.822,1.822,0,0,0,1.183-.41,1.443,1.443,0,0,0,.561-1.025h1.2a2.293,2.293,0,0,1-.437,1.21,2.881,2.881,0,0,1-1.077.916,3.107,3.107,0,0,1-1.425.342,3.047,3.047,0,0,1-2.4-1.008,4.016,4.016,0,0,1-.892-2.758v-.212a4.453,4.453,0,0,1,.4-1.921,3.02,3.02,0,0,1,1.138-1.306,3.233,3.233,0,0,1,1.753-.465,2.966,2.966,0,0,1,2.068.745,2.663,2.663,0,0,1,.878,1.935h-1.2a1.743,1.743,0,0,0-.543-1.179,1.691,1.691,0,0,0-1.207-.461,1.77,1.77,0,0,0-1.494.694,3.259,3.259,0,0,0-.53,2.006v.239a3.194,3.194,0,0,0,.526,1.969A1.779,1.779,0,0,0,15.948,30.1Zm6.077-8.292V23.6h1.381v.978H22.025v4.593a1.027,1.027,0,0,0,.185.667.777.777,0,0,0,.629.222,3.062,3.062,0,0,0,.6-.082V31a3.688,3.688,0,0,1-.971.136,1.575,1.575,0,0,1-1.278-.513,2.2,2.2,0,0,1-.431-1.456V24.581H19.414V23.6h1.347V21.813ZM29.449,31a2.657,2.657,0,0,1-.178-.779,2.822,2.822,0,0,1-2.105.916,2.611,2.611,0,0,1-1.794-.619,2,2,0,0,1-.7-1.569,2.091,2.091,0,0,1,.878-1.794,4.141,4.141,0,0,1,2.471-.639h1.23v-.581a1.42,1.42,0,0,0-.4-1.056,1.593,1.593,0,0,0-1.169-.393,1.844,1.844,0,0,0-1.135.342,1.007,1.007,0,0,0-.458.827H24.821a1.745,1.745,0,0,1,.393-1.07,2.683,2.683,0,0,1,1.066-.817,3.588,3.588,0,0,1,1.48-.3,2.924,2.924,0,0,1,2,.639,2.306,2.306,0,0,1,.752,1.76v3.4a4.162,4.162,0,0,0,.26,1.62V31Zm-2.1-.964a2.223,2.223,0,0,0,1.128-.308,1.861,1.861,0,0,0,.772-.8V27.411H28.26q-2.324,0-2.324,1.36a1.151,1.151,0,0,0,.4.93A1.524,1.524,0,0,0,27.351,30.036ZM33.694,23.6l.041.93a2.7,2.7,0,0,1,2.215-1.066q2.345,0,2.365,2.646V31H37.051V26.105a1.7,1.7,0,0,0-.366-1.183,1.466,1.466,0,0,0-1.118-.383,1.825,1.825,0,0,0-1.08.328,2.228,2.228,0,0,0-.725.861V31H32.5V23.6Zm6.228,3.637a4.347,4.347,0,0,1,.8-2.751,2.757,2.757,0,0,1,4.231-.065l.062-.82H46.17v7.219a3.009,3.009,0,0,1-.851,2.263,3.141,3.141,0,0,1-2.287.827,3.8,3.8,0,0,1-1.565-.342,2.7,2.7,0,0,1-1.169-.937l.656-.759a2.473,2.473,0,0,0,1.989,1,1.938,1.938,0,0,0,1.439-.52A1.986,1.986,0,0,0,44.9,30.9v-.636a2.6,2.6,0,0,1-2.071.875,2.526,2.526,0,0,1-2.1-1.046A4.571,4.571,0,0,1,39.922,27.24Zm1.271.144a3.316,3.316,0,0,0,.513,1.965,1.666,1.666,0,0,0,1.436.714A1.852,1.852,0,0,0,44.9,28.977V25.6a1.874,1.874,0,0,0-1.743-1.06,1.681,1.681,0,0,0-1.442.718A3.612,3.612,0,0,0,41.193,27.384Zm11.45,2.885a2.686,2.686,0,0,1-2.167.868,2.3,2.3,0,0,1-1.8-.687,2.974,2.974,0,0,1-.625-2.034V23.6h1.265v4.778q0,1.682,1.367,1.682a1.893,1.893,0,0,0,1.928-1.08V23.6h1.265V31h-1.2ZM57.169,31H55.9V20.5h1.265Zm6.59,0a2.657,2.657,0,0,1-.178-.779,2.822,2.822,0,0,1-2.105.916,2.611,2.611,0,0,1-1.794-.619,2,2,0,0,1-.7-1.569,2.091,2.091,0,0,1,.878-1.794,4.142,4.142,0,0,1,2.471-.639h1.23v-.581a1.42,1.42,0,0,0-.4-1.056A1.593,1.593,0,0,0,62,24.485a1.844,1.844,0,0,0-1.135.342,1.007,1.007,0,0,0-.458.827H59.131a1.745,1.745,0,0,1,.393-1.07,2.683,2.683,0,0,1,1.066-.817,3.588,3.588,0,0,1,1.48-.3,2.924,2.924,0,0,1,2,.639,2.306,2.306,0,0,1,.752,1.76v3.4a4.162,4.162,0,0,0,.26,1.62V31Zm-2.1-.964a2.223,2.223,0,0,0,1.128-.308,1.861,1.861,0,0,0,.772-.8V27.411h-.991q-2.324,0-2.324,1.36a1.151,1.151,0,0,0,.4.93A1.524,1.524,0,0,0,61.66,30.036Zm8.723-5.3a3.79,3.79,0,0,0-.622-.048,1.667,1.667,0,0,0-1.688,1.06V31H66.808V23.6h1.23l.021.854a1.969,1.969,0,0,1,1.764-.991,1.292,1.292,0,0,1,.561.1Zm4.32,2.5a4.341,4.341,0,0,1,.8-2.758,2.823,2.823,0,0,1,4.218-.133l.055-.745h1.162v10.24H79.673V30.316a2.654,2.654,0,0,1-2.037.82A2.551,2.551,0,0,1,75.5,30.094a4.438,4.438,0,0,1-.8-2.765Zm1.265.144a3.291,3.291,0,0,0,.537,2,1.707,1.707,0,0,0,1.446.725,1.894,1.894,0,0,0,1.723-1V25.483a1.9,1.9,0,0,0-1.709-.978,1.72,1.72,0,0,0-1.456.728A3.583,3.583,0,0,0,75.968,27.384Zm11.566,2.885a2.686,2.686,0,0,1-2.167.868,2.3,2.3,0,0,1-1.8-.687,2.974,2.974,0,0,1-.625-2.034V23.6h1.265v4.778q0,1.682,1.367,1.682a1.893,1.893,0,0,0,1.928-1.08V23.6h1.265V31h-1.2Zm6.221.868a3.232,3.232,0,0,1-2.447-.988,3.666,3.666,0,0,1-.943-2.642v-.232a4.438,4.438,0,0,1,.42-1.965,3.28,3.28,0,0,1,1.176-1.354,2.956,2.956,0,0,1,1.637-.489,2.77,2.77,0,0,1,2.242.95,4.114,4.114,0,0,1,.8,2.721v.526H91.629a2.629,2.629,0,0,0,.639,1.767,2.009,2.009,0,0,0,1.555.673,2.2,2.2,0,0,0,1.135-.273,2.851,2.851,0,0,0,.813-.725l.772.6A3.106,3.106,0,0,1,93.755,31.137ZM93.6,24.506a1.687,1.687,0,0,0-1.285.557,2.708,2.708,0,0,0-.643,1.562h3.705v-.1a2.409,2.409,0,0,0-.52-1.494A1.588,1.588,0,0,0,93.6,24.506Zm12.277,4.532a.931.931,0,0,0-.386-.8,3.718,3.718,0,0,0-1.347-.489,6.367,6.367,0,0,1-1.524-.492,2.169,2.169,0,0,1-.834-.684,1.635,1.635,0,0,1-.27-.943,1.919,1.919,0,0,1,.769-1.538,3,3,0,0,1,1.965-.629,3.091,3.091,0,0,1,2.041.649,2.063,2.063,0,0,1,.783,1.661H105.8a1.142,1.142,0,0,0-.441-.9,1.652,1.652,0,0,0-1.111-.376,1.729,1.729,0,0,0-1.08.3.947.947,0,0,0-.39.786.767.767,0,0,0,.362.69,4.458,4.458,0,0,0,1.309.444,6.821,6.821,0,0,1,1.535.506,2.239,2.239,0,0,1,.872.708,1.74,1.74,0,0,1,.284,1.008,1.893,1.893,0,0,1-.793,1.589,3.326,3.326,0,0,1-2.058.6,3.725,3.725,0,0,1-1.572-.314,2.557,2.557,0,0,1-1.07-.878,2.117,2.117,0,0,1-.386-1.22h1.265a1.309,1.309,0,0,0,.509,1.008,1.976,1.976,0,0,0,1.254.373,2.039,2.039,0,0,0,1.152-.291A.893.893,0,0,0,105.875,29.038Zm5.981,2.1a3.232,3.232,0,0,1-2.447-.988,3.666,3.666,0,0,1-.943-2.642v-.232a4.438,4.438,0,0,1,.42-1.965,3.28,3.28,0,0,1,1.176-1.354,2.956,2.956,0,0,1,1.637-.489,2.77,2.77,0,0,1,2.242.95,4.114,4.114,0,0,1,.8,2.721v.526H109.73a2.629,2.629,0,0,0,.639,1.767,2.009,2.009,0,0,0,1.555.673,2.2,2.2,0,0,0,1.135-.273,2.851,2.851,0,0,0,.813-.725l.772.6A3.106,3.106,0,0,1,111.856,31.137Zm-.157-6.631a1.687,1.687,0,0,0-1.285.557,2.708,2.708,0,0,0-.643,1.562h3.705v-.1a2.409,2.409,0,0,0-.52-1.494A1.588,1.588,0,0,0,111.7,24.506Zm10.938,5.6a1.822,1.822,0,0,0,1.183-.41,1.443,1.443,0,0,0,.561-1.025h1.2a2.293,2.293,0,0,1-.437,1.21,2.882,2.882,0,0,1-1.077.916,3.107,3.107,0,0,1-1.425.342,3.047,3.047,0,0,1-2.4-1.008,4.016,4.016,0,0,1-.892-2.758v-.212a4.453,4.453,0,0,1,.4-1.921,3.02,3.02,0,0,1,1.138-1.306,3.233,3.233,0,0,1,1.753-.465,2.966,2.966,0,0,1,2.068.745,2.663,2.663,0,0,1,.878,1.935h-1.2a1.743,1.743,0,0,0-.543-1.179,1.691,1.691,0,0,0-1.207-.461,1.77,1.77,0,0,0-1.494.694,3.259,3.259,0,0,0-.53,2.006v.239a3.194,3.194,0,0,0,.526,1.969A1.779,1.779,0,0,0,122.637,30.1Zm4.026-2.871a4.369,4.369,0,0,1,.427-1.955,3.187,3.187,0,0,1,1.189-1.34,3.238,3.238,0,0,1,1.74-.472,3.119,3.119,0,0,1,2.444,1.046,4.024,4.024,0,0,1,.933,2.782v.089a4.407,4.407,0,0,1-.414,1.938,3.14,3.14,0,0,1-1.183,1.336,3.275,3.275,0,0,1-1.767.479,3.111,3.111,0,0,1-2.437-1.046,4,4,0,0,1-.933-2.769Zm1.271.15a3.164,3.164,0,0,0,.571,1.976,1.934,1.934,0,0,0,3.059-.01,3.46,3.46,0,0,0,.567-2.116,3.159,3.159,0,0,0-.578-1.972,1.836,1.836,0,0,0-1.535-.755,1.816,1.816,0,0,0-1.511.745A3.434,3.434,0,0,0,127.935,27.384ZM136.356,31h-1.265V20.5h1.265Zm1.688-3.767a4.369,4.369,0,0,1,.427-1.955,3.187,3.187,0,0,1,1.189-1.34,3.238,3.238,0,0,1,1.74-.472,3.119,3.119,0,0,1,2.444,1.046,4.024,4.024,0,0,1,.933,2.782v.089a4.407,4.407,0,0,1-.414,1.938,3.14,3.14,0,0,1-1.183,1.336,3.275,3.275,0,0,1-1.767.479,3.111,3.111,0,0,1-2.437-1.046,4,4,0,0,1-.933-2.769Zm1.271.15a3.164,3.164,0,0,0,.571,1.976,1.934,1.934,0,0,0,3.059-.01,3.46,3.46,0,0,0,.567-2.116,3.159,3.159,0,0,0-.578-1.972,1.836,1.836,0,0,0-1.535-.755,1.816,1.816,0,0,0-1.511.745A3.434,3.434,0,0,0,139.316,27.384ZM149.331,30.1a1.822,1.822,0,0,0,1.183-.41,1.443,1.443,0,0,0,.561-1.025h1.2a2.293,2.293,0,0,1-.437,1.21,2.881,2.881,0,0,1-1.077.916,3.107,3.107,0,0,1-1.425.342,3.047,3.047,0,0,1-2.4-1.008,4.016,4.016,0,0,1-.892-2.758v-.212a4.453,4.453,0,0,1,.4-1.921,3.02,3.02,0,0,1,1.138-1.306,3.233,3.233,0,0,1,1.753-.465,2.966,2.966,0,0,1,2.068.745,2.663,2.663,0,0,1,.878,1.935h-1.2a1.743,1.743,0,0,0-.543-1.179,1.691,1.691,0,0,0-1.207-.461,1.77,1.77,0,0,0-1.494.694,3.259,3.259,0,0,0-.53,2.006v.239a3.194,3.194,0,0,0,.526,1.969A1.779,1.779,0,0,0,149.331,30.1Zm8.928.9a2.657,2.657,0,0,1-.178-.779,2.822,2.822,0,0,1-2.105.916,2.611,2.611,0,0,1-1.794-.619,2,2,0,0,1-.7-1.569,2.091,2.091,0,0,1,.878-1.794,4.142,4.142,0,0,1,2.471-.639h1.23v-.581a1.42,1.42,0,0,0-.4-1.056,1.593,1.593,0,0,0-1.169-.393,1.844,1.844,0,0,0-1.135.342,1.007,1.007,0,0,0-.458.827h-1.271a1.745,1.745,0,0,1,.393-1.07,2.683,2.683,0,0,1,1.066-.817,3.588,3.588,0,0,1,1.48-.3,2.924,2.924,0,0,1,2,.639,2.306,2.306,0,0,1,.752,1.76v3.4a4.162,4.162,0,0,0,.26,1.62V31Zm-2.1-.964a2.223,2.223,0,0,0,1.128-.308,1.861,1.861,0,0,0,.772-.8V27.411h-.991q-2.324,0-2.324,1.36a1.151,1.151,0,0,0,.4.93A1.524,1.524,0,0,0,156.16,30.036Zm11.683,1.1a3.232,3.232,0,0,1-2.447-.988,3.666,3.666,0,0,1-.943-2.642v-.232a4.438,4.438,0,0,1,.42-1.965,3.279,3.279,0,0,1,1.176-1.354,2.956,2.956,0,0,1,1.637-.489,2.77,2.77,0,0,1,2.242.95,4.114,4.114,0,0,1,.8,2.721v.526h-5.011a2.629,2.629,0,0,0,.639,1.767,2.009,2.009,0,0,0,1.555.673,2.2,2.2,0,0,0,1.135-.273,2.851,2.851,0,0,0,.813-.725l.772.6A3.106,3.106,0,0,1,167.843,31.137Zm-.157-6.631a1.687,1.687,0,0,0-1.285.557,2.708,2.708,0,0,0-.643,1.562h3.705v-.1a2.409,2.409,0,0,0-.52-1.494A1.588,1.588,0,0,0,167.686,24.506Zm5.7-.9.041.93a2.7,2.7,0,0,1,2.215-1.066q2.345,0,2.365,2.646V31h-1.265V26.105a1.7,1.7,0,0,0-.366-1.183,1.466,1.466,0,0,0-1.118-.383,1.825,1.825,0,0,0-1.08.328,2.228,2.228,0,0,0-.725.861V31H172.19V23.6ZM184.755,31H183.49V20.5h1.265Zm6.59,0a2.657,2.657,0,0,1-.178-.779,2.822,2.822,0,0,1-2.105.916,2.611,2.611,0,0,1-1.794-.619,2,2,0,0,1-.7-1.569,2.091,2.091,0,0,1,.878-1.794,4.142,4.142,0,0,1,2.471-.639h1.23v-.581a1.42,1.42,0,0,0-.4-1.056,1.593,1.593,0,0,0-1.169-.393,1.844,1.844,0,0,0-1.135.342,1.007,1.007,0,0,0-.458.827h-1.271a1.745,1.745,0,0,1,.393-1.07,2.683,2.683,0,0,1,1.066-.817,3.588,3.588,0,0,1,1.48-.3,2.924,2.924,0,0,1,2,.639,2.306,2.306,0,0,1,.752,1.76v3.4a4.162,4.162,0,0,0,.26,1.62V31Zm-2.1-.964a2.223,2.223,0,0,0,1.128-.308,1.861,1.861,0,0,0,.772-.8V27.411h-.991q-2.324,0-2.324,1.36a1.151,1.151,0,0,0,.4.93A1.524,1.524,0,0,0,189.246,30.036ZM7.205,45.384A4.429,4.429,0,0,1,6.433,48.1a2.476,2.476,0,0,1-2.092,1.032,2.713,2.713,0,0,1-2.119-.854v3.562H.957V41.6H2.112l.062.82a2.605,2.605,0,0,1,2.146-.957,2.522,2.522,0,0,1,2.109,1,4.477,4.477,0,0,1,.776,2.8ZM5.94,45.24a3.268,3.268,0,0,0-.533-1.976,1.718,1.718,0,0,0-1.463-.725,1.859,1.859,0,0,0-1.723,1.019v3.534A1.863,1.863,0,0,0,3.958,48.1,1.71,1.71,0,0,0,5.4,47.383,3.567,3.567,0,0,0,5.94,45.24ZM13.378,49a2.657,2.657,0,0,1-.178-.779,2.822,2.822,0,0,1-2.105.916A2.611,2.611,0,0,1,9.3,48.518a2,2,0,0,1-.7-1.569,2.091,2.091,0,0,1,.878-1.794,4.142,4.142,0,0,1,2.471-.639h1.23v-.581a1.42,1.42,0,0,0-.4-1.056,1.593,1.593,0,0,0-1.169-.393,1.844,1.844,0,0,0-1.135.342,1.007,1.007,0,0,0-.458.827H8.75a1.745,1.745,0,0,1,.393-1.07,2.683,2.683,0,0,1,1.066-.817,3.588,3.588,0,0,1,1.48-.3,2.924,2.924,0,0,1,2,.639,2.306,2.306,0,0,1,.752,1.76v3.4a4.162,4.162,0,0,0,.26,1.62V49Zm-2.1-.964a2.223,2.223,0,0,0,1.128-.308,1.861,1.861,0,0,0,.772-.8V45.411h-.991q-2.324,0-2.324,1.36a1.151,1.151,0,0,0,.4.93A1.524,1.524,0,0,0,11.279,48.036ZM20,42.738a3.79,3.79,0,0,0-.622-.048,1.667,1.667,0,0,0-1.688,1.06V49H16.427V41.6h1.23l.021.854a1.969,1.969,0,0,1,1.764-.991,1.292,1.292,0,0,1,.561.1Zm3.22-2.926V41.6H24.6v.978H23.222v4.593a1.027,1.027,0,0,0,.185.667.777.777,0,0,0,.629.222,3.062,3.062,0,0,0,.6-.082V49a3.688,3.688,0,0,1-.971.136,1.575,1.575,0,0,1-1.278-.513,2.2,2.2,0,0,1-.431-1.456V42.581H20.61V41.6h1.347V39.813Zm5.927,9.324a3.232,3.232,0,0,1-2.447-.988,3.666,3.666,0,0,1-.943-2.642v-.232a4.438,4.438,0,0,1,.42-1.965,3.28,3.28,0,0,1,1.176-1.354,2.956,2.956,0,0,1,1.637-.489,2.77,2.77,0,0,1,2.242.95,4.114,4.114,0,0,1,.8,2.721v.526H27.022a2.629,2.629,0,0,0,.639,1.767,2.009,2.009,0,0,0,1.555.673,2.2,2.2,0,0,0,1.135-.273,2.851,2.851,0,0,0,.813-.725l.772.6A3.106,3.106,0,0,1,29.148,49.137Zm-.157-6.631a1.687,1.687,0,0,0-1.285.557,2.708,2.708,0,0,0-.643,1.562h3.705v-.1a2.409,2.409,0,0,0-.52-1.494A1.588,1.588,0,0,0,28.991,42.506Zm12.277,4.532a.931.931,0,0,0-.386-.8,3.718,3.718,0,0,0-1.347-.489,6.367,6.367,0,0,1-1.524-.492,2.169,2.169,0,0,1-.834-.684,1.635,1.635,0,0,1-.27-.943,1.919,1.919,0,0,1,.769-1.538,3,3,0,0,1,1.965-.629,3.091,3.091,0,0,1,2.041.649,2.063,2.063,0,0,1,.783,1.661H41.193a1.142,1.142,0,0,0-.441-.9,1.652,1.652,0,0,0-1.111-.376,1.729,1.729,0,0,0-1.08.3.947.947,0,0,0-.39.786.767.767,0,0,0,.362.69,4.458,4.458,0,0,0,1.309.444,6.821,6.821,0,0,1,1.535.506,2.239,2.239,0,0,1,.872.708,1.74,1.74,0,0,1,.284,1.008,1.893,1.893,0,0,1-.793,1.589,3.326,3.326,0,0,1-2.058.6,3.725,3.725,0,0,1-1.572-.314,2.557,2.557,0,0,1-1.07-.878,2.117,2.117,0,0,1-.386-1.22h1.265a1.309,1.309,0,0,0,.509,1.008,1.976,1.976,0,0,0,1.254.373,2.039,2.039,0,0,0,1.152-.291A.893.893,0,0,0,41.269,47.038Zm7.479,1.23a2.686,2.686,0,0,1-2.167.868,2.3,2.3,0,0,1-1.8-.687,2.974,2.974,0,0,1-.625-2.034V41.6h1.265v4.778q0,1.682,1.367,1.682a1.893,1.893,0,0,0,1.928-1.08V41.6h1.265V49h-1.2Zm9.4-2.885a4.429,4.429,0,0,1-.772,2.721,2.476,2.476,0,0,1-2.092,1.032,2.713,2.713,0,0,1-2.119-.854v3.562H51.9V41.6h1.155l.062.82a2.605,2.605,0,0,1,2.146-.957,2.522,2.522,0,0,1,2.109,1,4.477,4.477,0,0,1,.776,2.8Zm-1.265-.144a3.268,3.268,0,0,0-.533-1.976,1.718,1.718,0,0,0-1.463-.725,1.859,1.859,0,0,0-1.723,1.019v3.534A1.863,1.863,0,0,0,54.9,48.1a1.71,1.71,0,0,0,1.446-.721A3.567,3.567,0,0,0,56.882,45.24Zm5.94,3.9a3.232,3.232,0,0,1-2.447-.988,3.666,3.666,0,0,1-.943-2.642v-.232a4.438,4.438,0,0,1,.42-1.965,3.28,3.28,0,0,1,1.176-1.354,2.956,2.956,0,0,1,1.637-.489,2.77,2.77,0,0,1,2.242.95,4.114,4.114,0,0,1,.8,2.721v.526H60.7a2.629,2.629,0,0,0,.639,1.767,2.009,2.009,0,0,0,1.555.673,2.2,2.2,0,0,0,1.135-.273,2.851,2.851,0,0,0,.813-.725l.772.6A3.106,3.106,0,0,1,62.822,49.137Zm-.157-6.631a1.687,1.687,0,0,0-1.285.557,2.708,2.708,0,0,0-.643,1.562h3.705v-.1a2.409,2.409,0,0,0-.52-1.494A1.588,1.588,0,0,0,62.665,42.506Zm8.08.232a3.79,3.79,0,0,0-.622-.048,1.667,1.667,0,0,0-1.688,1.06V49H67.17V41.6H68.4l.021.854a1.969,1.969,0,0,1,1.764-.991,1.292,1.292,0,0,1,.561.1ZM73.281,49H72.017V41.6h1.265Zm-1.367-9.358a.755.755,0,0,1,.188-.52.706.706,0,0,1,.557-.212.717.717,0,0,1,.561.212.747.747,0,0,1,.191.52.722.722,0,0,1-.191.513.73.73,0,0,1-.561.205.718.718,0,0,1-.557-.205A.73.73,0,0,1,71.914,39.642Zm3.056,5.592a4.369,4.369,0,0,1,.427-1.955,3.187,3.187,0,0,1,1.189-1.34,3.238,3.238,0,0,1,1.74-.472,3.119,3.119,0,0,1,2.444,1.046,4.024,4.024,0,0,1,.933,2.782v.089a4.407,4.407,0,0,1-.414,1.938,3.14,3.14,0,0,1-1.183,1.336,3.275,3.275,0,0,1-1.767.479A3.111,3.111,0,0,1,75.9,48.091a4,4,0,0,1-.933-2.769Zm1.271.15a3.164,3.164,0,0,0,.571,1.976,1.934,1.934,0,0,0,3.059-.01,3.46,3.46,0,0,0,.567-2.116,3.159,3.159,0,0,0-.578-1.972,1.836,1.836,0,0,0-1.535-.755,1.816,1.816,0,0,0-1.511.745A3.435,3.435,0,0,0,76.241,45.384Zm10.623-2.646a3.79,3.79,0,0,0-.622-.048,1.667,1.667,0,0,0-1.688,1.06V49H83.289V41.6h1.23l.021.854a1.969,1.969,0,0,1,1.764-.991,1.292,1.292,0,0,1,.561.1Zm4.32,2.5a4.333,4.333,0,0,1,.807-2.738,2.745,2.745,0,0,1,4.17-.147V38.5h1.265V49H96.264l-.062-.793a2.575,2.575,0,0,1-2.112.93,2.526,2.526,0,0,1-2.1-1.053,4.382,4.382,0,0,1-.81-2.748Zm1.265.144a3.281,3.281,0,0,0,.52,1.969,1.68,1.68,0,0,0,1.436.711,1.845,1.845,0,0,0,1.757-1.08v-3.4a1.859,1.859,0,0,0-1.743-1.046,1.687,1.687,0,0,0-1.449.718A3.612,3.612,0,0,0,92.449,45.384Zm10.008,3.753a3.232,3.232,0,0,1-2.447-.988,3.666,3.666,0,0,1-.943-2.642v-.232a4.438,4.438,0,0,1,.42-1.965,3.28,3.28,0,0,1,1.176-1.354,2.956,2.956,0,0,1,1.637-.489,2.77,2.77,0,0,1,2.242.95,4.114,4.114,0,0,1,.8,2.721v.526h-5.011a2.629,2.629,0,0,0,.639,1.767,2.009,2.009,0,0,0,1.555.673,2.2,2.2,0,0,0,1.135-.273,2.851,2.851,0,0,0,.813-.725l.772.6A3.106,3.106,0,0,1,102.457,49.137Zm-.157-6.631a1.687,1.687,0,0,0-1.285.557,2.708,2.708,0,0,0-.643,1.562h3.705v-.1a2.409,2.409,0,0,0-.52-1.494A1.588,1.588,0,0,0,102.3,42.506ZM111.645,49H110.38V38.5h1.265Zm6.59,0a2.657,2.657,0,0,1-.178-.779,2.822,2.822,0,0,1-2.105.916,2.611,2.611,0,0,1-1.794-.619,2,2,0,0,1-.7-1.569,2.091,2.091,0,0,1,.878-1.794,4.142,4.142,0,0,1,2.471-.639h1.23v-.581a1.42,1.42,0,0,0-.4-1.056,1.593,1.593,0,0,0-1.169-.393,1.844,1.844,0,0,0-1.135.342,1.007,1.007,0,0,0-.458.827h-1.271a1.745,1.745,0,0,1,.393-1.07,2.683,2.683,0,0,1,1.066-.817,3.588,3.588,0,0,1,1.48-.3,2.924,2.924,0,0,1,2,.639,2.306,2.306,0,0,1,.752,1.76v3.4a4.162,4.162,0,0,0,.26,1.62V49Zm-2.1-.964a2.223,2.223,0,0,0,1.128-.308,1.861,1.861,0,0,0,.772-.8V45.411h-.991q-2.324,0-2.324,1.36a1.151,1.151,0,0,0,.4.93A1.524,1.524,0,0,0,116.136,48.036ZM131,45.384a4.429,4.429,0,0,1-.772,2.721,2.476,2.476,0,0,1-2.092,1.032,2.713,2.713,0,0,1-2.119-.854v3.562h-1.265V41.6H125.9l.062.82a2.605,2.605,0,0,1,2.146-.957,2.522,2.522,0,0,1,2.109,1,4.477,4.477,0,0,1,.776,2.8Zm-1.265-.144a3.268,3.268,0,0,0-.533-1.976,1.718,1.718,0,0,0-1.463-.725,1.859,1.859,0,0,0-1.723,1.019v3.534A1.863,1.863,0,0,0,127.75,48.1a1.71,1.71,0,0,0,1.446-.721A3.567,3.567,0,0,0,129.732,45.24ZM137.17,49a2.657,2.657,0,0,1-.178-.779,2.822,2.822,0,0,1-2.105.916,2.611,2.611,0,0,1-1.794-.619,2,2,0,0,1-.7-1.569,2.091,2.091,0,0,1,.878-1.794,4.142,4.142,0,0,1,2.471-.639h1.23v-.581a1.42,1.42,0,0,0-.4-1.056,1.593,1.593,0,0,0-1.169-.393,1.844,1.844,0,0,0-1.135.342,1.007,1.007,0,0,0-.458.827h-1.271a1.745,1.745,0,0,1,.393-1.07A2.683,2.683,0,0,1,134,41.768a3.588,3.588,0,0,1,1.48-.3,2.924,2.924,0,0,1,2,.639,2.306,2.306,0,0,1,.752,1.76v3.4a4.162,4.162,0,0,0,.26,1.62V49Zm-2.1-.964a2.223,2.223,0,0,0,1.128-.308,1.861,1.861,0,0,0,.772-.8V45.411h-.991q-2.324,0-2.324,1.36a1.151,1.151,0,0,0,.4.93A1.524,1.524,0,0,0,135.071,48.036ZM136.24,38.5h1.531l-1.832,2.01-1.019,0Zm3.678,6.74a4.347,4.347,0,0,1,.8-2.751,2.757,2.757,0,0,1,4.231-.065l.062-.82h1.155v7.219a3.009,3.009,0,0,1-.851,2.263,3.141,3.141,0,0,1-2.287.827,3.8,3.8,0,0,1-1.565-.342,2.7,2.7,0,0,1-1.169-.937l.656-.759a2.473,2.473,0,0,0,1.989,1,1.938,1.938,0,0,0,1.439-.52,1.986,1.986,0,0,0,.516-1.463v-.636a2.6,2.6,0,0,1-2.071.875,2.526,2.526,0,0,1-2.1-1.046A4.571,4.571,0,0,1,139.918,45.24Zm1.271.144a3.316,3.316,0,0,0,.513,1.965,1.666,1.666,0,0,0,1.436.714,1.852,1.852,0,0,0,1.757-1.087V43.6a1.874,1.874,0,0,0-1.743-1.06,1.681,1.681,0,0,0-1.442.718A3.612,3.612,0,0,0,141.189,45.384ZM149.447,49h-1.265V41.6h1.265Zm-1.367-9.358a.755.755,0,0,1,.188-.52.706.706,0,0,1,.557-.212.717.717,0,0,1,.561.212.747.747,0,0,1,.191.52.722.722,0,0,1-.191.513.73.73,0,0,1-.561.205.718.718,0,0,1-.557-.205A.73.73,0,0,1,148.08,39.642Zm4.587,1.962.041.93a2.7,2.7,0,0,1,2.215-1.066q2.345,0,2.365,2.646V49h-1.265V44.105a1.7,1.7,0,0,0-.366-1.183,1.466,1.466,0,0,0-1.118-.383,1.825,1.825,0,0,0-1.08.328,2.228,2.228,0,0,0-.725.861V49h-1.265V41.6ZM163.762,49a2.657,2.657,0,0,1-.178-.779,2.822,2.822,0,0,1-2.105.916,2.611,2.611,0,0,1-1.794-.619,2,2,0,0,1-.7-1.569,2.091,2.091,0,0,1,.878-1.794,4.142,4.142,0,0,1,2.471-.639h1.23v-.581a1.42,1.42,0,0,0-.4-1.056A1.593,1.593,0,0,0,162,42.485a1.844,1.844,0,0,0-1.135.342,1.007,1.007,0,0,0-.458.827h-1.271a1.745,1.745,0,0,1,.393-1.07,2.683,2.683,0,0,1,1.066-.817,3.588,3.588,0,0,1,1.48-.3,2.924,2.924,0,0,1,2,.639,2.306,2.306,0,0,1,.752,1.76v3.4a4.162,4.162,0,0,0,.26,1.62V49Zm-2.1-.964a2.223,2.223,0,0,0,1.128-.308,1.861,1.861,0,0,0,.772-.8V45.411h-.991q-2.324,0-2.324,1.36a1.151,1.151,0,0,0,.4.93A1.524,1.524,0,0,0,161.663,48.036Zm5.175.3a.792.792,0,0,1,.195-.547.742.742,0,0,1,.584-.219.765.765,0,0,1,.591.219.776.776,0,0,1,.2.547.734.734,0,0,1-.2.526.778.778,0,0,1-.591.212.7.7,0,0,1-.779-.738ZM179.785,44.4h-4.313v3.527h5.011V49h-6.323V39.047h6.255V40.12h-4.942v3.206h4.313Zm6.439,2.639a.931.931,0,0,0-.386-.8,3.718,3.718,0,0,0-1.347-.489,6.367,6.367,0,0,1-1.524-.492,2.169,2.169,0,0,1-.834-.684,1.635,1.635,0,0,1-.27-.943,1.919,1.919,0,0,1,.769-1.538,3,3,0,0,1,1.965-.629,3.091,3.091,0,0,1,2.041.649,2.063,2.063,0,0,1,.783,1.661h-1.271a1.142,1.142,0,0,0-.441-.9,1.652,1.652,0,0,0-1.111-.376,1.729,1.729,0,0,0-1.08.3.947.947,0,0,0-.39.786.767.767,0,0,0,.362.69,4.458,4.458,0,0,0,1.309.444,6.821,6.821,0,0,1,1.535.506,2.239,2.239,0,0,1,.872.708,1.74,1.74,0,0,1,.284,1.008,1.893,1.893,0,0,1-.793,1.589,3.326,3.326,0,0,1-2.058.6,3.725,3.725,0,0,1-1.572-.314,2.557,2.557,0,0,1-1.07-.878,2.117,2.117,0,0,1-.386-1.22h1.265a1.309,1.309,0,0,0,.509,1.008,1.976,1.976,0,0,0,1.254.373,2.039,2.039,0,0,0,1.152-.291A.893.893,0,0,0,186.225,47.038Zm10.944,1.23a2.686,2.686,0,0,1-2.167.868,2.3,2.3,0,0,1-1.8-.687,2.974,2.974,0,0,1-.625-2.034V41.6h1.265v4.778q0,1.682,1.367,1.682a1.893,1.893,0,0,0,1.928-1.08V41.6H198.4V49h-1.2Zm4.348-6.665.041.93a2.7,2.7,0,0,1,2.215-1.066q2.345,0,2.365,2.646V49h-1.265V44.105a1.7,1.7,0,0,0-.366-1.183,1.466,1.466,0,0,0-1.118-.383,1.825,1.825,0,0,0-1.08.328,2.228,2.228,0,0,0-.725.861V49H200.32V41.6Zm6.193,3.63a4.369,4.369,0,0,1,.427-1.955,3.187,3.187,0,0,1,1.189-1.34,3.238,3.238,0,0,1,1.74-.472,3.119,3.119,0,0,1,2.444,1.046,4.024,4.024,0,0,1,.933,2.782v.089a4.407,4.407,0,0,1-.414,1.938,3.14,3.14,0,0,1-1.183,1.336,3.275,3.275,0,0,1-1.767.479,3.111,3.111,0,0,1-2.437-1.046,4,4,0,0,1-.933-2.769Zm1.271.15a3.164,3.164,0,0,0,.571,1.976,1.934,1.934,0,0,0,3.059-.01,3.46,3.46,0,0,0,.567-2.116,3.159,3.159,0,0,0-.578-1.972,1.836,1.836,0,0,0-1.535-.755,1.816,1.816,0,0,0-1.511.745A3.435,3.435,0,0,0,208.981,45.384ZM.649,63.24A4.333,4.333,0,0,1,1.456,60.5a2.551,2.551,0,0,1,2.112-1.036,2.565,2.565,0,0,1,2.058.889V56.5H6.891V67H5.729l-.062-.793a2.575,2.575,0,0,1-2.112.93,2.526,2.526,0,0,1-2.1-1.053,4.382,4.382,0,0,1-.81-2.748Zm1.265.144a3.281,3.281,0,0,0,.52,1.969,1.68,1.68,0,0,0,1.436.711,1.845,1.845,0,0,0,1.757-1.08v-3.4A1.859,1.859,0,0,0,3.883,60.54a1.687,1.687,0,0,0-1.449.718A3.612,3.612,0,0,0,1.914,63.384Zm10.008,3.753a3.232,3.232,0,0,1-2.447-.988,3.666,3.666,0,0,1-.943-2.642v-.232a4.438,4.438,0,0,1,.42-1.965,3.28,3.28,0,0,1,1.176-1.354,2.956,2.956,0,0,1,1.637-.489,2.77,2.77,0,0,1,2.242.95,4.114,4.114,0,0,1,.8,2.721v.526H9.8a2.629,2.629,0,0,0,.639,1.767,2.009,2.009,0,0,0,1.555.673,2.2,2.2,0,0,0,1.135-.273,2.851,2.851,0,0,0,.813-.725l.772.6A3.106,3.106,0,0,1,11.922,67.137Zm-.157-6.631a1.687,1.687,0,0,0-1.285.557,2.708,2.708,0,0,0-.643,1.562h3.705v-.1a2.409,2.409,0,0,0-.52-1.494A1.588,1.588,0,0,0,11.765,60.506ZM21.109,67H19.845V56.5h1.265ZM22.8,63.233a4.369,4.369,0,0,1,.427-1.955,3.187,3.187,0,0,1,1.189-1.34,3.238,3.238,0,0,1,1.74-.472A3.119,3.119,0,0,1,28.6,60.513a4.024,4.024,0,0,1,.933,2.782v.089a4.407,4.407,0,0,1-.414,1.938,3.14,3.14,0,0,1-1.183,1.336,3.275,3.275,0,0,1-1.767.479,3.111,3.111,0,0,1-2.437-1.046,4,4,0,0,1-.933-2.769Zm1.271.15a3.164,3.164,0,0,0,.571,1.976,1.934,1.934,0,0,0,3.059-.01,3.46,3.46,0,0,0,.567-2.116,3.159,3.159,0,0,0-.578-1.972,1.836,1.836,0,0,0-1.535-.755,1.816,1.816,0,0,0-1.511.745A3.435,3.435,0,0,0,24.069,63.384Zm11.354,1.654a.931.931,0,0,0-.386-.8,3.718,3.718,0,0,0-1.347-.489,6.367,6.367,0,0,1-1.524-.492,2.169,2.169,0,0,1-.834-.684,1.635,1.635,0,0,1-.27-.943,1.919,1.919,0,0,1,.769-1.538,3,3,0,0,1,1.965-.629,3.091,3.091,0,0,1,2.041.649,2.063,2.063,0,0,1,.783,1.661H35.349a1.142,1.142,0,0,0-.441-.9,1.652,1.652,0,0,0-1.111-.376,1.729,1.729,0,0,0-1.08.3.947.947,0,0,0-.39.786.767.767,0,0,0,.362.69A4.458,4.458,0,0,0,34,62.728a6.821,6.821,0,0,1,1.535.506,2.239,2.239,0,0,1,.872.708,1.74,1.74,0,0,1,.284,1.008,1.893,1.893,0,0,1-.793,1.589,3.326,3.326,0,0,1-2.058.6,3.725,3.725,0,0,1-1.572-.314,2.557,2.557,0,0,1-1.07-.878,2.117,2.117,0,0,1-.386-1.22h1.265a1.309,1.309,0,0,0,.509,1.008,1.976,1.976,0,0,0,1.254.373,2.039,2.039,0,0,0,1.152-.291A.893.893,0,0,0,35.424,65.038ZM42.991,59.6l.034.82a2.732,2.732,0,0,1,2.194-.957,2.115,2.115,0,0,1,2.112,1.189,2.8,2.8,0,0,1,.96-.861,2.837,2.837,0,0,1,1.4-.328q2.434,0,2.475,2.577V67H50.9V62.119a1.7,1.7,0,0,0-.362-1.186,1.6,1.6,0,0,0-1.217-.393,1.677,1.677,0,0,0-1.169.42,1.706,1.706,0,0,0-.54,1.131V67H46.341V62.153a1.411,1.411,0,0,0-1.579-1.613,1.692,1.692,0,0,0-1.7,1.06V67H41.795V59.6ZM58.639,67a2.657,2.657,0,0,1-.178-.779,2.822,2.822,0,0,1-2.105.916,2.611,2.611,0,0,1-1.794-.619,2,2,0,0,1-.7-1.569,2.091,2.091,0,0,1,.878-1.794,4.142,4.142,0,0,1,2.471-.639h1.23v-.581a1.42,1.42,0,0,0-.4-1.056,1.593,1.593,0,0,0-1.169-.393,1.844,1.844,0,0,0-1.135.342,1.007,1.007,0,0,0-.458.827H54.011a1.745,1.745,0,0,1,.393-1.07,2.683,2.683,0,0,1,1.066-.817,3.588,3.588,0,0,1,1.48-.3,2.924,2.924,0,0,1,2,.639,2.306,2.306,0,0,1,.752,1.76v3.4a4.162,4.162,0,0,0,.26,1.62V67Zm-2.1-.964a2.223,2.223,0,0,0,1.128-.308,1.861,1.861,0,0,0,.772-.8V63.411h-.991q-2.324,0-2.324,1.36a1.151,1.151,0,0,0,.4.93A1.524,1.524,0,0,0,56.54,66.036ZM57.709,56.5H59.24l-1.832,2.01-1.019,0Zm8.285,8.538a.931.931,0,0,0-.386-.8,3.718,3.718,0,0,0-1.347-.489,6.367,6.367,0,0,1-1.524-.492,2.169,2.169,0,0,1-.834-.684,1.635,1.635,0,0,1-.27-.943A1.919,1.919,0,0,1,62.4,60.1a3,3,0,0,1,1.965-.629,3.091,3.091,0,0,1,2.041.649,2.063,2.063,0,0,1,.783,1.661H65.919a1.142,1.142,0,0,0-.441-.9,1.652,1.652,0,0,0-1.111-.376,1.729,1.729,0,0,0-1.08.3.947.947,0,0,0-.39.786.767.767,0,0,0,.362.69,4.458,4.458,0,0,0,1.309.444,6.821,6.821,0,0,1,1.535.506,2.239,2.239,0,0,1,.872.708,1.74,1.74,0,0,1,.284,1.008,1.893,1.893,0,0,1-.793,1.589,3.326,3.326,0,0,1-2.058.6,3.725,3.725,0,0,1-1.572-.314,2.557,2.557,0,0,1-1.07-.878,2.117,2.117,0,0,1-.386-1.22h1.265a1.309,1.309,0,0,0,.509,1.008,1.976,1.976,0,0,0,1.254.373,2.039,2.039,0,0,0,1.152-.291A.893.893,0,0,0,65.994,65.038Zm9.447,2.1a3.232,3.232,0,0,1-2.447-.988,3.666,3.666,0,0,1-.943-2.642v-.232a4.438,4.438,0,0,1,.42-1.965,3.28,3.28,0,0,1,1.176-1.354,2.956,2.956,0,0,1,1.637-.489,2.77,2.77,0,0,1,2.242.95,4.114,4.114,0,0,1,.8,2.721v.526H73.315a2.629,2.629,0,0,0,.639,1.767,2.009,2.009,0,0,0,1.555.673,2.2,2.2,0,0,0,1.135-.273,2.851,2.851,0,0,0,.813-.725l.772.6A3.106,3.106,0,0,1,75.441,67.137Zm-.157-6.631A1.687,1.687,0,0,0,74,61.063a2.708,2.708,0,0,0-.643,1.562h3.705v-.1a2.409,2.409,0,0,0-.52-1.494A1.588,1.588,0,0,0,75.284,60.506ZM80.411,67V60.581H79.242V59.6h1.169v-.759a2.519,2.519,0,0,1,.636-1.839,2.4,2.4,0,0,1,1.8-.649,3.339,3.339,0,0,1,.868.115l-.068,1.019a3.632,3.632,0,0,0-.684-.062,1.234,1.234,0,0,0-.95.36,1.46,1.46,0,0,0-.335,1.032V59.6h1.579v.978H81.676V67Zm7.144.137a3.232,3.232,0,0,1-2.447-.988,3.666,3.666,0,0,1-.943-2.642v-.232a4.438,4.438,0,0,1,.42-1.965,3.28,3.28,0,0,1,1.176-1.354,2.956,2.956,0,0,1,1.637-.489,2.77,2.77,0,0,1,2.242.95,4.114,4.114,0,0,1,.8,2.721v.526H85.429a2.629,2.629,0,0,0,.639,1.767,2.009,2.009,0,0,0,1.555.673,2.2,2.2,0,0,0,1.135-.273,2.851,2.851,0,0,0,.813-.725l.772.6A3.106,3.106,0,0,1,87.555,67.137ZM87.4,60.506a1.687,1.687,0,0,0-1.285.557,2.708,2.708,0,0,0-.643,1.562h3.705v-.1a2.409,2.409,0,0,0-.52-1.494A1.588,1.588,0,0,0,87.4,60.506Zm7.472,5.6a1.822,1.822,0,0,0,1.183-.41,1.443,1.443,0,0,0,.561-1.025h1.2a2.293,2.293,0,0,1-.437,1.21,2.882,2.882,0,0,1-1.077.916,3.107,3.107,0,0,1-1.425.342,3.047,3.047,0,0,1-2.4-1.008,4.016,4.016,0,0,1-.892-2.758v-.212a4.453,4.453,0,0,1,.4-1.921,3.02,3.02,0,0,1,1.138-1.306,3.233,3.233,0,0,1,1.753-.465,2.966,2.966,0,0,1,2.068.745,2.663,2.663,0,0,1,.878,1.935h-1.2a1.743,1.743,0,0,0-.543-1.179,1.691,1.691,0,0,0-1.207-.461,1.77,1.77,0,0,0-1.494.694,3.259,3.259,0,0,0-.53,2.006v.239a3.194,3.194,0,0,0,.526,1.969A1.779,1.779,0,0,0,94.869,66.1Zm6.077-8.292V59.6h1.381v.978h-1.381v4.593a1.027,1.027,0,0,0,.185.667.777.777,0,0,0,.629.222,3.062,3.062,0,0,0,.6-.082V67a3.688,3.688,0,0,1-.971.136,1.575,1.575,0,0,1-1.278-.513,2.2,2.2,0,0,1-.431-1.456V60.581H98.335V59.6h1.347V57.813ZM105.178,67h-1.265V59.6h1.265Zm-1.367-9.358a.755.755,0,0,1,.188-.52.706.706,0,0,1,.557-.212.717.717,0,0,1,.561.212.747.747,0,0,1,.191.52.722.722,0,0,1-.191.513.73.73,0,0,1-.561.205.718.718,0,0,1-.557-.205A.73.73,0,0,1,103.811,57.642Zm5.831,7.643,1.832-5.681h1.292L110.113,67h-.964l-2.68-7.4h1.292Zm3.9-2.051a4.369,4.369,0,0,1,.427-1.955,3.187,3.187,0,0,1,1.189-1.34,3.238,3.238,0,0,1,1.74-.472,3.119,3.119,0,0,1,2.444,1.046,4.024,4.024,0,0,1,.933,2.782v.089a4.407,4.407,0,0,1-.414,1.938,3.14,3.14,0,0,1-1.183,1.336,3.275,3.275,0,0,1-1.767.479,3.111,3.111,0,0,1-2.437-1.046,4,4,0,0,1-.933-2.769Zm1.271.15a3.164,3.164,0,0,0,.571,1.976,1.934,1.934,0,0,0,3.059-.01,3.46,3.46,0,0,0,.567-2.116,3.159,3.159,0,0,0-.578-1.972,1.836,1.836,0,0,0-1.535-.755,1.816,1.816,0,0,0-1.511.745A3.435,3.435,0,0,0,114.816,63.384Zm11.354,1.654a.931.931,0,0,0-.386-.8,3.718,3.718,0,0,0-1.347-.489,6.367,6.367,0,0,1-1.524-.492,2.169,2.169,0,0,1-.834-.684,1.635,1.635,0,0,1-.27-.943,1.919,1.919,0,0,1,.769-1.538,3,3,0,0,1,1.965-.629,3.091,3.091,0,0,1,2.041.649,2.063,2.063,0,0,1,.783,1.661H126.1a1.142,1.142,0,0,0-.441-.9,1.652,1.652,0,0,0-1.111-.376,1.729,1.729,0,0,0-1.08.3.947.947,0,0,0-.39.786.767.767,0,0,0,.362.69,4.458,4.458,0,0,0,1.309.444,6.821,6.821,0,0,1,1.535.506,2.239,2.239,0,0,1,.872.708,1.74,1.74,0,0,1,.284,1.008,1.893,1.893,0,0,1-.793,1.589,3.326,3.326,0,0,1-2.058.6,3.725,3.725,0,0,1-1.572-.314,2.557,2.557,0,0,1-1.07-.878,2.117,2.117,0,0,1-.386-1.22h1.265a1.309,1.309,0,0,0,.509,1.008,1.976,1.976,0,0,0,1.254.373,2.039,2.039,0,0,0,1.152-.291A.893.893,0,0,0,126.171,65.038Zm2.939,1.3a.792.792,0,0,1,.195-.547.742.742,0,0,1,.584-.219.765.765,0,0,1,.591.219.776.776,0,0,1,.2.547.734.734,0,0,1-.2.526.778.778,0,0,1-.591.212.7.7,0,0,1-.779-.738Zm13.925-8.217h-3.2V67H138.53V58.12h-3.192V57.047h7.7ZM145.688,67h-1.265V59.6h1.265Zm-1.367-9.358a.755.755,0,0,1,.188-.52.706.706,0,0,1,.557-.212.717.717,0,0,1,.561.212.747.747,0,0,1,.191.52.722.722,0,0,1-.191.513.73.73,0,0,1-.561.205.718.718,0,0,1-.557-.205A.73.73,0,0,1,144.32,57.642Zm6.46,9.5a3.232,3.232,0,0,1-2.447-.988,3.666,3.666,0,0,1-.943-2.642v-.232a4.438,4.438,0,0,1,.42-1.965,3.279,3.279,0,0,1,1.176-1.354,2.956,2.956,0,0,1,1.637-.489,2.77,2.77,0,0,1,2.242.95,4.114,4.114,0,0,1,.8,2.721v.526h-5.011a2.629,2.629,0,0,0,.639,1.767,2.009,2.009,0,0,0,1.555.673,2.2,2.2,0,0,0,1.135-.273,2.851,2.851,0,0,0,.813-.725l.772.6A3.106,3.106,0,0,1,150.78,67.137Zm-.157-6.631a1.687,1.687,0,0,0-1.285.557,2.708,2.708,0,0,0-.643,1.562H152.4v-.1a2.409,2.409,0,0,0-.52-1.494A1.588,1.588,0,0,0,150.623,60.506Zm5.7-.9.041.93a2.7,2.7,0,0,1,2.215-1.066q2.345,0,2.365,2.646V67h-1.265V62.105a1.7,1.7,0,0,0-.366-1.183,1.466,1.466,0,0,0-1.118-.383,1.825,1.825,0,0,0-1.08.328,2.228,2.228,0,0,0-.725.861V67h-1.265V59.6Zm9.6,7.533a3.232,3.232,0,0,1-2.447-.988,3.666,3.666,0,0,1-.943-2.642v-.232a4.438,4.438,0,0,1,.42-1.965,3.279,3.279,0,0,1,1.176-1.354,2.956,2.956,0,0,1,1.637-.489,2.77,2.77,0,0,1,2.242.95,4.114,4.114,0,0,1,.8,2.721v.526H163.8a2.629,2.629,0,0,0,.639,1.767,2.009,2.009,0,0,0,1.555.673,2.2,2.2,0,0,0,1.135-.273,2.851,2.851,0,0,0,.813-.725l.772.6A3.106,3.106,0,0,1,165.922,67.137Zm-.157-6.631a1.687,1.687,0,0,0-1.285.557,2.708,2.708,0,0,0-.643,1.562h3.705v-.1a2.409,2.409,0,0,0-.52-1.494A1.588,1.588,0,0,0,165.765,60.506ZM178.3,66.269a2.686,2.686,0,0,1-2.167.868,2.3,2.3,0,0,1-1.8-.687,2.974,2.974,0,0,1-.625-2.034V59.6h1.265v4.778q0,1.682,1.367,1.682a1.893,1.893,0,0,0,1.928-1.08V59.6h1.265V67h-1.2Zm4.348-6.665.041.93a2.7,2.7,0,0,1,2.215-1.066q2.345,0,2.365,2.646V67h-1.265V62.105a1.7,1.7,0,0,0-.366-1.183,1.466,1.466,0,0,0-1.118-.383,1.825,1.825,0,0,0-1.08.328,2.228,2.228,0,0,0-.725.861V67h-1.265V59.6ZM193.744,67a2.657,2.657,0,0,1-.178-.779,2.822,2.822,0,0,1-2.105.916,2.611,2.611,0,0,1-1.794-.619,2,2,0,0,1-.7-1.569,2.091,2.091,0,0,1,.878-1.794,4.142,4.142,0,0,1,2.471-.639h1.23v-.581a1.42,1.42,0,0,0-.4-1.056,1.593,1.593,0,0,0-1.169-.393,1.844,1.844,0,0,0-1.135.342,1.007,1.007,0,0,0-.458.827h-1.271a1.745,1.745,0,0,1,.393-1.07,2.683,2.683,0,0,1,1.066-.817,3.588,3.588,0,0,1,1.48-.3,2.924,2.924,0,0,1,2,.639,2.306,2.306,0,0,1,.752,1.76v3.4a4.162,4.162,0,0,0,.26,1.62V67Zm-2.1-.964a2.223,2.223,0,0,0,1.128-.308,1.861,1.861,0,0,0,.772-.8V63.411h-.991q-2.324,0-2.324,1.36a1.151,1.151,0,0,0,.4.93A1.524,1.524,0,0,0,191.646,66.036ZM2.146,77.6l.034.82a2.732,2.732,0,0,1,2.194-.957,2.115,2.115,0,0,1,2.112,1.189,2.8,2.8,0,0,1,.96-.861,2.837,2.837,0,0,1,1.4-.328q2.434,0,2.475,2.577V85H10.056V80.119a1.7,1.7,0,0,0-.362-1.186,1.6,1.6,0,0,0-1.217-.393,1.677,1.677,0,0,0-1.169.42,1.706,1.706,0,0,0-.54,1.131V85H5.5V80.153A1.411,1.411,0,0,0,3.917,78.54a1.692,1.692,0,0,0-1.7,1.06V85H.95V77.6ZM16.3,85.137a3.232,3.232,0,0,1-2.447-.988,3.666,3.666,0,0,1-.943-2.642v-.232a4.438,4.438,0,0,1,.42-1.965A3.279,3.279,0,0,1,14.5,77.956a2.956,2.956,0,0,1,1.637-.489,2.77,2.77,0,0,1,2.242.95,4.114,4.114,0,0,1,.8,2.721v.526H14.171a2.629,2.629,0,0,0,.639,1.767,2.009,2.009,0,0,0,1.555.673,2.2,2.2,0,0,0,1.135-.273,2.851,2.851,0,0,0,.813-.725l.772.6A3.106,3.106,0,0,1,16.3,85.137Zm-.157-6.631a1.687,1.687,0,0,0-1.285.557,2.708,2.708,0,0,0-.643,1.562h3.705v-.1a2.409,2.409,0,0,0-.52-1.494A1.588,1.588,0,0,0,16.14,78.506Zm4.2,2.734a4.333,4.333,0,0,1,.807-2.738,2.745,2.745,0,0,1,4.17-.147V74.5h1.265V85H25.416l-.062-.793a2.575,2.575,0,0,1-2.112.93,2.526,2.526,0,0,1-2.1-1.053,4.382,4.382,0,0,1-.81-2.748Zm1.265.144a3.281,3.281,0,0,0,.52,1.969,1.68,1.68,0,0,0,1.436.711,1.845,1.845,0,0,0,1.757-1.08v-3.4A1.859,1.859,0,0,0,23.57,78.54a1.687,1.687,0,0,0-1.449.718A3.612,3.612,0,0,0,21.6,81.384ZM29.914,85H28.649V77.6h1.265Zm-1.367-9.358a.755.755,0,0,1,.188-.52.706.706,0,0,1,.557-.212.717.717,0,0,1,.561.212.747.747,0,0,1,.191.52.722.722,0,0,1-.191.513.73.73,0,0,1-.561.205.718.718,0,0,1-.557-.205A.73.73,0,0,1,28.547,75.642Zm3.083,5.6a4.333,4.333,0,0,1,.807-2.738,2.745,2.745,0,0,1,4.17-.147V74.5h1.265V85H36.709l-.062-.793a2.575,2.575,0,0,1-2.112.93,2.526,2.526,0,0,1-2.1-1.053,4.382,4.382,0,0,1-.81-2.748Zm1.265.144a3.281,3.281,0,0,0,.52,1.969,1.68,1.68,0,0,0,1.436.711,1.845,1.845,0,0,0,1.757-1.08v-3.4a1.859,1.859,0,0,0-1.743-1.046,1.687,1.687,0,0,0-1.449.718A3.612,3.612,0,0,0,32.895,81.384ZM44.4,85a2.657,2.657,0,0,1-.178-.779,2.822,2.822,0,0,1-2.105.916,2.611,2.611,0,0,1-1.794-.619,2,2,0,0,1-.7-1.569,2.091,2.091,0,0,1,.878-1.794,4.141,4.141,0,0,1,2.471-.639H44.2v-.581a1.42,1.42,0,0,0-.4-1.056,1.593,1.593,0,0,0-1.169-.393,1.844,1.844,0,0,0-1.135.342,1.007,1.007,0,0,0-.458.827H39.771a1.745,1.745,0,0,1,.393-1.07,2.683,2.683,0,0,1,1.066-.817,3.588,3.588,0,0,1,1.48-.3,2.924,2.924,0,0,1,2,.639,2.306,2.306,0,0,1,.752,1.76v3.4a4.162,4.162,0,0,0,.26,1.62V85Zm-2.1-.964a2.223,2.223,0,0,0,1.128-.308,1.861,1.861,0,0,0,.772-.8V81.411H43.21q-2.324,0-2.324,1.36a1.151,1.151,0,0,0,.4.93A1.524,1.524,0,0,0,42.3,84.036Zm8.306-2.8a4.333,4.333,0,0,1,.807-2.738,2.745,2.745,0,0,1,4.17-.147V74.5h1.265V85H55.686l-.062-.793a2.575,2.575,0,0,1-2.112.93,2.526,2.526,0,0,1-2.1-1.053,4.382,4.382,0,0,1-.81-2.748Zm1.265.144a3.281,3.281,0,0,0,.52,1.969,1.68,1.68,0,0,0,1.436.711,1.845,1.845,0,0,0,1.757-1.08v-3.4A1.859,1.859,0,0,0,53.84,78.54a1.687,1.687,0,0,0-1.449.718A3.612,3.612,0,0,0,51.871,81.384Zm10.008,3.753a3.232,3.232,0,0,1-2.447-.988,3.666,3.666,0,0,1-.943-2.642v-.232a4.438,4.438,0,0,1,.42-1.965,3.279,3.279,0,0,1,1.176-1.354,2.956,2.956,0,0,1,1.637-.489,2.77,2.77,0,0,1,2.242.95,4.114,4.114,0,0,1,.8,2.721v.526H59.753a2.629,2.629,0,0,0,.639,1.767,2.009,2.009,0,0,0,1.555.673,2.2,2.2,0,0,0,1.135-.273,2.851,2.851,0,0,0,.813-.725l.772.6A3.106,3.106,0,0,1,61.879,85.137Zm-.157-6.631a1.687,1.687,0,0,0-1.285.557,2.708,2.708,0,0,0-.643,1.562H63.5v-.1a2.409,2.409,0,0,0-.52-1.494A1.588,1.588,0,0,0,61.722,78.506Zm12.688,2.119a3.094,3.094,0,0,1-.947.759,2.569,2.569,0,0,1-1.207.287,2.652,2.652,0,0,1-1.5-.424,2.755,2.755,0,0,1-.988-1.193,4.067,4.067,0,0,1-.349-1.7,4.143,4.143,0,0,1,.379-1.8,2.787,2.787,0,0,1,1.077-1.224A3.07,3.07,0,0,1,72.5,74.91a2.78,2.78,0,0,1,2.328,1.1,4.815,4.815,0,0,1,.851,3.011v.369a6.434,6.434,0,0,1-1.148,4.242,4.412,4.412,0,0,1-3.466,1.371H70.82V83.934h.267a3.012,3.012,0,0,0,3.322-3.309Zm-1.948,0a1.953,1.953,0,0,0,1.172-.39,2.3,2.3,0,0,0,.783-.964v-.506a3.48,3.48,0,0,0-.54-2.023,1.651,1.651,0,0,0-2.707-.14,2.637,2.637,0,0,0-.506,1.685,2.744,2.744,0,0,0,.489,1.678A1.548,1.548,0,0,0,72.461,80.625Zm6.8-1.217h.95a2.088,2.088,0,0,0,1.408-.472,1.576,1.576,0,0,0,.513-1.237,1.544,1.544,0,0,0-1.743-1.75,1.813,1.813,0,0,0-1.309.468,1.639,1.639,0,0,0-.489,1.241H77.328a2.539,2.539,0,0,1,.865-1.965,3.15,3.15,0,0,1,2.2-.783,3.113,3.113,0,0,1,2.208.745,2.692,2.692,0,0,1,.8,2.071,2.185,2.185,0,0,1-.42,1.258,2.538,2.538,0,0,1-1.145.909,2.446,2.446,0,0,1,1.268.861,2.392,2.392,0,0,1,.448,1.47,2.715,2.715,0,0,1-.875,2.126,3.277,3.277,0,0,1-2.276.786,3.363,3.363,0,0,1-2.28-.759,2.517,2.517,0,0,1-.878-2h1.271a1.627,1.627,0,0,0,.513,1.258A1.95,1.95,0,0,0,80.4,84.1a1.914,1.914,0,0,0,1.4-.479,1.844,1.844,0,0,0,.485-1.374,1.673,1.673,0,0,0-.533-1.333,2.323,2.323,0,0,0-1.538-.479h-.95Zm12.264,1.347a5.784,5.784,0,0,1-.759,3.3,3.153,3.153,0,0,1-4.73.024,5.49,5.49,0,0,1-.793-3.155V79.237A5.655,5.655,0,0,1,86,75.977a3.21,3.21,0,0,1,4.744-.038,5.458,5.458,0,0,1,.779,3.175Zm-1.265-1.729a4.634,4.634,0,0,0-.451-2.341,1.553,1.553,0,0,0-1.429-.735,1.532,1.532,0,0,0-1.415.731,4.525,4.525,0,0,0-.458,2.249v2.023a4.708,4.708,0,0,0,.468,2.382A1.55,1.55,0,0,0,88.4,84.1a1.529,1.529,0,0,0,1.391-.725,4.538,4.538,0,0,0,.475-2.283Zm5.5,1.278L97.4,77.6h1.477l-2.42,3.657L98.95,85H97.487l-1.709-2.769L94.069,85H92.6l2.5-3.739L92.675,77.6h1.463Zm8.483,4.7H102.97V76.571l-2.55.937V76.359L104.043,75h.2Zm9.741-7.355a2.311,2.311,0,0,1-.393,1.326,2.674,2.674,0,0,1-1.063.909,2.853,2.853,0,0,1,1.234.978,2.46,2.46,0,0,1,.455,1.456,2.6,2.6,0,0,1-.872,2.058,3.821,3.821,0,0,1-4.594,0,2.613,2.613,0,0,1-.865-2.054,2.533,2.533,0,0,1,.441-1.456,2.744,2.744,0,0,1,1.22-.984,2.609,2.609,0,0,1-1.046-.909,2.344,2.344,0,0,1-.383-1.319,2.573,2.573,0,0,1,.807-2,3.425,3.425,0,0,1,4.249,0A2.567,2.567,0,0,1,113.982,77.645Zm-1.032,4.642a1.834,1.834,0,0,0-.53-1.36,1.879,1.879,0,0,0-1.384-.526,1.78,1.78,0,0,0-1.887,1.887,1.767,1.767,0,0,0,.5,1.333,2.245,2.245,0,0,0,2.792,0A1.763,1.763,0,0,0,112.95,82.286Zm-1.9-6.337a1.632,1.632,0,0,0-1.207.461,1.909,1.909,0,0,0-.007,2.481,1.806,1.806,0,0,0,2.427,0,1.871,1.871,0,0,0-.017-2.464A1.609,1.609,0,0,0,111.05,75.949Zm11,4.806a5.784,5.784,0,0,1-.759,3.3,3.153,3.153,0,0,1-4.73.024,5.49,5.49,0,0,1-.793-3.155V79.237a5.655,5.655,0,0,1,.759-3.261,3.21,3.21,0,0,1,4.744-.038,5.458,5.458,0,0,1,.779,3.175Zm-1.265-1.729a4.634,4.634,0,0,0-.451-2.341,1.553,1.553,0,0,0-1.429-.735,1.532,1.532,0,0,0-1.415.731,4.525,4.525,0,0,0-.458,2.249v2.023a4.708,4.708,0,0,0,.468,2.382,1.55,1.55,0,0,0,1.418.769,1.529,1.529,0,0,0,1.391-.725,4.538,4.538,0,0,0,.475-2.283Zm3.042,5.312a.792.792,0,0,1,.195-.547.742.742,0,0,1,.584-.219.765.765,0,0,1,.591.219.776.776,0,0,1,.2.547.734.734,0,0,1-.2.526.778.778,0,0,1-.591.212.7.7,0,0,1-.779-.738Z" transform="translate(10861 3407)" fill="#12263f"/>
    <path id="Trazado_624772" data-name="Trazado 624772" d="M-56.473,0V-11.375h3.984a5.232,5.232,0,0,1,3.141.793,2.712,2.712,0,0,1,1.07,2.324,2.57,2.57,0,0,1-.43,1.473,2.482,2.482,0,0,1-1.2.934,2.4,2.4,0,0,1,1.379.883,2.61,2.61,0,0,1,.5,1.625A3,3,0,0,1-49.066-.859,4.713,4.713,0,0,1-52.051,0Zm2.344-4.953v3.07h2.008a1.938,1.938,0,0,0,1.293-.395,1.353,1.353,0,0,0,.465-1.09A1.428,1.428,0,0,0-51.98-4.953Zm0-1.656h1.734q1.773-.031,1.773-1.414a1.307,1.307,0,0,0-.449-1.113,2.363,2.363,0,0,0-1.418-.34h-1.641ZM-41.512,0a2.507,2.507,0,0,1-.227-.758,2.732,2.732,0,0,1-2.133.914A3,3,0,0,1-45.93-.562a2.312,2.312,0,0,1-.816-1.812,2.389,2.389,0,0,1,1-2.062,4.915,4.915,0,0,1,2.879-.727h1.039v-.484a1.393,1.393,0,0,0-.3-.937,1.183,1.183,0,0,0-.949-.352,1.345,1.345,0,0,0-.895.273.929.929,0,0,0-.324.75h-2.258a2.268,2.268,0,0,1,.453-1.359,3,3,0,0,1,1.281-.98,4.669,4.669,0,0,1,1.859-.355,3.689,3.689,0,0,1,2.48.785,2.747,2.747,0,0,1,.918,2.207v3.664a4.041,4.041,0,0,0,.336,1.82V0Zm-1.867-1.57a1.945,1.945,0,0,0,.922-.223,1.462,1.462,0,0,0,.625-.6V-3.844h-.844q-1.7,0-1.8,1.172l-.008.133a.9.9,0,0,0,.3.7A1.153,1.153,0,0,0-43.379-1.57Zm7.625-6.883.07.977a2.951,2.951,0,0,1,2.43-1.133,2.453,2.453,0,0,1,2,.789,3.682,3.682,0,0,1,.672,2.359V0H-32.84V-5.406a1.465,1.465,0,0,0-.312-1.043,1.4,1.4,0,0,0-1.039-.324,1.553,1.553,0,0,0-1.43.813V0h-2.258V-8.453Zm8.961,0,.07.977a2.951,2.951,0,0,1,2.43-1.133,2.453,2.453,0,0,1,2,.789,3.682,3.682,0,0,1,.672,2.359V0h-2.258V-5.406a1.465,1.465,0,0,0-.312-1.043,1.4,1.4,0,0,0-1.039-.324,1.553,1.553,0,0,0-1.43.813V0h-2.258V-8.453ZM-16.02.156A4.15,4.15,0,0,1-19.047-.984a4.054,4.054,0,0,1-1.168-3.039v-.219a5.106,5.106,0,0,1,.492-2.277,3.612,3.612,0,0,1,1.395-1.547,3.914,3.914,0,0,1,2.059-.543,3.508,3.508,0,0,1,2.73,1.094,4.444,4.444,0,0,1,1,3.1v.922h-5.383a2.1,2.1,0,0,0,.66,1.328,2,2,0,0,0,1.395.5,2.437,2.437,0,0,0,2.039-.945l1.109,1.242A3.389,3.389,0,0,1-14.1-.246,4.511,4.511,0,0,1-16.02.156Zm-.258-6.945a1.411,1.411,0,0,0-1.09.455,2.357,2.357,0,0,0-.535,1.3h3.141v-.181a1.681,1.681,0,0,0-.406-1.165A1.456,1.456,0,0,0-16.277-6.789Zm9.766.453A6.134,6.134,0,0,0-7.324-6.4,1.654,1.654,0,0,0-9-5.531V0h-2.258V-8.453h2.133l.063,1.008A2.092,2.092,0,0,1-7.184-8.609a2.366,2.366,0,0,1,.7.1Zm9.648,4a.727.727,0,0,0-.41-.652A4.659,4.659,0,0,0,1.41-3.414q-3.016-.633-3.016-2.562A2.323,2.323,0,0,1-.672-7.855,3.766,3.766,0,0,1,1.77-8.609a4.053,4.053,0,0,1,2.574.758,2.388,2.388,0,0,1,.965,1.969H3.051a1.092,1.092,0,0,0-.312-.8A1.322,1.322,0,0,0,1.762-7a1.351,1.351,0,0,0-.883.258.814.814,0,0,0-.312.656.7.7,0,0,0,.355.605,3.657,3.657,0,0,0,1.2.4A9.8,9.8,0,0,1,3.543-4.7,2.336,2.336,0,0,1,5.332-2.43,2.2,2.2,0,0,1,4.34-.559,4.28,4.28,0,0,1,1.777.156,4.47,4.47,0,0,1-.109-.223,3.166,3.166,0,0,1-1.4-1.262a2.414,2.414,0,0,1-.469-1.426H.27a1.179,1.179,0,0,0,.445.922,1.766,1.766,0,0,0,1.109.32,1.635,1.635,0,0,0,.98-.246A.766.766,0,0,0,3.137-2.336ZM11.848-.859A2.831,2.831,0,0,1,9.535.156,2.67,2.67,0,0,1,7.461-.625a3.335,3.335,0,0,1-.73-2.289V-8.453H8.988v5.467q0,1.322,1.2,1.322a1.63,1.63,0,0,0,1.578-.8V-8.453h2.266V0H11.91Zm11.5-3.289a5.07,5.07,0,0,1-.887,3.129A2.843,2.843,0,0,1,20.066.156,2.633,2.633,0,0,1,18-.734V3.25H15.738v-11.7h2.094l.078.828a2.654,2.654,0,0,1,2.141-.984,2.862,2.862,0,0,1,2.43,1.156,5.207,5.207,0,0,1,.867,3.188ZM21.09-4.312a3.327,3.327,0,0,0-.418-1.82,1.361,1.361,0,0,0-1.215-.641A1.478,1.478,0,0,0,18-5.961V-2.5a1.5,1.5,0,0,0,1.477.836Q21.09-1.664,21.09-4.312ZM28.637.156A4.15,4.15,0,0,1,25.609-.984a4.054,4.054,0,0,1-1.168-3.039v-.219a5.106,5.106,0,0,1,.492-2.277,3.612,3.612,0,0,1,1.395-1.547,3.914,3.914,0,0,1,2.059-.543,3.508,3.508,0,0,1,2.73,1.094,4.444,4.444,0,0,1,1,3.1v.922H26.73a2.1,2.1,0,0,0,.66,1.328,2,2,0,0,0,1.395.5,2.437,2.437,0,0,0,2.039-.945l1.109,1.242A3.389,3.389,0,0,1,30.559-.246,4.511,4.511,0,0,1,28.637.156Zm-.258-6.945a1.411,1.411,0,0,0-1.09.455,2.357,2.357,0,0,0-.535,1.3h3.141v-.181a1.681,1.681,0,0,0-.406-1.165A1.456,1.456,0,0,0,28.379-6.789Zm9.766.453a6.134,6.134,0,0,0-.812-.062,1.654,1.654,0,0,0-1.68.867V0H33.395V-8.453h2.133l.063,1.008a2.092,2.092,0,0,1,1.883-1.164,2.366,2.366,0,0,1,.7.1ZM41.613,0H39.348V-8.453h2.266Zm-2.4-10.641a1.112,1.112,0,0,1,.34-.836,1.277,1.277,0,0,1,.926-.328,1.28,1.28,0,0,1,.922.328,1.105,1.105,0,0,1,.344.836A1.108,1.108,0,0,1,41.4-9.8a1.283,1.283,0,0,1-.918.328,1.283,1.283,0,0,1-.918-.328A1.108,1.108,0,0,1,39.215-10.641ZM43.121-4.3a5.013,5.013,0,0,1,.484-2.242A3.546,3.546,0,0,1,45-8.07a4.069,4.069,0,0,1,2.113-.539,3.849,3.849,0,0,1,2.793,1.047,4.2,4.2,0,0,1,1.207,2.844l.016.578A4.418,4.418,0,0,1,50.043-1.02,3.775,3.775,0,0,1,47.129.156a3.793,3.793,0,0,1-2.918-1.172A4.5,4.5,0,0,1,43.121-4.2Zm2.258.16A3.16,3.16,0,0,0,45.832-2.3a1.5,1.5,0,0,0,1.3.638,1.5,1.5,0,0,0,1.281-.63,3.457,3.457,0,0,0,.461-2.015A3.128,3.128,0,0,0,48.41-6.14a1.5,1.5,0,0,0-1.3-.649,1.474,1.474,0,0,0-1.281.646A3.516,3.516,0,0,0,45.379-4.144ZM57.27-6.336a6.134,6.134,0,0,0-.812-.062,1.654,1.654,0,0,0-1.68.867V0H52.52V-8.453h2.133l.063,1.008A2.092,2.092,0,0,1,56.6-8.609a2.366,2.366,0,0,1,.7.1Z" transform="translate(10949 3391)" fill="#12263f"/>
    <path id="Trazado_624773" data-name="Trazado 624773" d="M13,0A13,13,0,1,1,0,13,13,13,0,0,1,13,0Z" transform="translate(10855 3372)" fill="#12263f"/>
    <path id="Trazado_624774" data-name="Trazado 624774" d="M1.668,0H-.59V-8.7l-2.7.836V-9.7l4.711-1.687h.242Z" transform="translate(10868 3391)" fill="#fff"/>
  </g>
</svg>
