<svg xmlns="http://www.w3.org/2000/svg" xmlns:xlink="http://www.w3.org/1999/xlink" width="183.809" height="169.787" viewBox="0 0 183.809 169.787">
  <defs>
    <filter id="Elipse_6866" x="14.021" y="0" width="169.788" height="169.787" filterUnits="userSpaceOnUse">
      <feOffset dy="3" input="SourceAlpha"/>
      <feGaussianBlur stdDeviation="3" result="blur"/>
      <feFlood flood-opacity="0.161"/>
      <feComposite operator="in" in2="blur"/>
      <feComposite in="SourceGraphic"/>
    </filter>
    <clipPath id="clip-path">
      <rect id="Rect치ngulo_292085" data-name="Rect치ngulo 292085" width="13.494" height="13.493" fill="#7ab8f6"/>
    </clipPath>
    <clipPath id="clip-path-2">
      <path id="Trazado_517229" data-name="Trazado 517229" d="M56.02,50.008l-4.065,4.065L49.532,51.65,53.6,47.583,49.31,43.3,51.8,40.8l4.287,4.287,4.067-4.065,2.423,2.423-4.067,4.065L62.8,51.8l-2.494,2.494Z" transform="translate(-49.31 -40.802)" fill="#7ab8f6"/>
    </clipPath>
    <filter id="Trazado_583444" x="131.785" y="12.391" width="52.025" height="52.025" filterUnits="userSpaceOnUse">
      <feOffset dy="3" input="SourceAlpha"/>
      <feGaussianBlur stdDeviation="3" result="blur-2"/>
      <feFlood flood-opacity="0.161"/>
      <feComposite operator="in" in2="blur-2"/>
      <feComposite in="SourceGraphic"/>
    </filter>
    <filter id="Trazado_583445" x="0" y="81.895" width="39.358" height="39.359" filterUnits="userSpaceOnUse">
      <feOffset dy="3" input="SourceAlpha"/>
      <feGaussianBlur stdDeviation="3" result="blur-3"/>
      <feFlood flood-opacity="0.161"/>
      <feComposite operator="in" in2="blur-3"/>
      <feComposite in="SourceGraphic"/>
    </filter>
  </defs>
  <g id="Grupo_878014" data-name="Grupo 878014" transform="translate(-1126.03 -17551.559)">
    <g id="Grupo_845761" data-name="Grupo 845761" transform="translate(1135.03 17557.559)">
      <g id="Grupo_845760" data-name="Grupo 845760">
        <g transform="matrix(1, 0, 0, 1, -9, -6)" filter="url(#Elipse_6866)">
          <circle id="Elipse_6866-2" data-name="Elipse 6866" cx="75.894" cy="75.894" r="75.894" transform="translate(23.02 6)" fill="#c2e0ff"/>
        </g>
        <g id="Grupo_845758" data-name="Grupo 845758" transform="translate(17.494 9.522)">
          <g id="Grupo_751839" data-name="Grupo 751839">
            <g id="Grupo_751838" data-name="Grupo 751838" clip-path="url(#clip-path)">
              <g id="Grupo_751837" data-name="Grupo 751837" transform="translate(0.001)">
                <g id="Grupo_751836" data-name="Grupo 751836" clip-path="url(#clip-path-2)">
                  <rect id="Rect치ngulo_292084" data-name="Rect치ngulo 292084" width="13.493" height="13.493" transform="translate(0)" fill="#7ab8f6"/>
                </g>
              </g>
            </g>
          </g>
        </g>
        <g transform="matrix(1, 0, 0, 1, -9, -6)" filter="url(#Trazado_583444)">
          <path id="Trazado_583444-2" data-name="Trazado 583444" d="M253.074,101.243a17.012,17.012,0,1,1-17.012-17.012,17.012,17.012,0,0,1,17.012,17.012" transform="translate(-78.26 -65.84)" fill="#7ab8f6"/>
        </g>
        <g transform="matrix(1, 0, 0, 1, -9, -6)" filter="url(#Trazado_583445)">
          <path id="Trazado_583445-2" data-name="Trazado 583445" d="M240.407,94.91a10.679,10.679,0,1,1-10.679-10.679A10.679,10.679,0,0,1,240.407,94.91" transform="translate(-210.05 3.66)" fill="#7ab8f6"/>
        </g>
      </g>
    </g>
    <g id="_23-Checkout" data-name="23-Checkout" transform="translate(1183.294 17596.563)">
      <circle id="Elipse_6915" data-name="Elipse 6915" cx="7.988" cy="7.988" r="7.988" transform="translate(21.97 64.572)" fill="#565d69"/>
      <circle id="Elipse_6916" data-name="Elipse 6916" cx="7.988" cy="7.988" r="7.988" transform="translate(52.59 64.572)" fill="#565d69"/>
      <path id="Trazado_609679" data-name="Trazado 609679" d="M75.551,17.348h0a2.348,2.348,0,0,1-.083.618L68.633,43.027A5.325,5.325,0,0,1,63.5,46.951H25.787L17.08,15H73.2a2.348,2.348,0,0,1,2.348,2.348Z" transform="translate(4.996 4.307)" fill="#ffb338"/>
      <path id="Trazado_609680" data-name="Trazado 609680" d="M69.566,64.24H22.97a9.319,9.319,0,0,1-9.319-9.319h0A9.319,9.319,0,0,1,22.97,45.6h.508L13.314,8.325H5.663A2.663,2.663,0,0,1,3,5.663H3A2.663,2.663,0,0,1,5.663,3h7.651a5.325,5.325,0,0,1,5.138,3.924l12,44H22.97a3.994,3.994,0,0,0-3.994,3.994h0a3.994,3.994,0,0,0,3.994,3.994h46.6a2.663,2.663,0,0,1,2.663,2.663h0A2.663,2.663,0,0,1,69.566,64.24Z" transform="translate(0.331 0.331)" fill="#e6f1ff"/>
      <circle id="Elipse_6917" data-name="Elipse 6917" cx="2.663" cy="2.663" r="2.663" transform="translate(27.295 69.897)" fill="#e6f1ff"/>
      <circle id="Elipse_6918" data-name="Elipse 6918" cx="2.663" cy="2.663" r="2.663" transform="translate(57.915 69.897)" fill="#e6f1ff"/>
      <circle id="Elipse_6919" data-name="Elipse 6919" cx="15.976" cy="15.976" r="15.976" transform="translate(35.283 3.331)" fill="#2b95f9"/>
      <path id="Trazado_609681" data-name="Trazado 609681" d="M29.958,68.566a3.994,3.994,0,1,0,3.994,3.994,3.994,3.994,0,0,0-3.994-3.994Zm0,5.325a1.331,1.331,0,1,1,1.331-1.331A1.331,1.331,0,0,1,29.958,73.891Zm30.62-5.325a3.994,3.994,0,1,0,3.994,3.994,3.994,3.994,0,0,0-3.994-3.994Zm0,5.325a1.331,1.331,0,1,1,1.331-1.331A1.331,1.331,0,0,1,60.578,73.891ZM51.258,36.614A17.307,17.307,0,1,0,33.951,19.307,17.307,17.307,0,0,0,51.258,36.614Zm0-31.951A14.644,14.644,0,1,1,36.614,19.307,14.644,14.644,0,0,1,51.258,4.663ZM78.2,17.976h-5.64a1.331,1.331,0,1,0,0,2.663H78.2a1.018,1.018,0,0,1,1.017,1.017.993.993,0,0,1-.036.268L72.345,46.985a4,4,0,0,1-3.852,2.942H31.8L23.812,20.638h6.146a1.331,1.331,0,1,0,0-2.663H23.086L20.068,6.907A6.672,6.672,0,0,0,13.645,2H5.994a3.994,3.994,0,0,0,0,7.988h6.634l9.457,34.683A10.651,10.651,0,0,0,23.3,65.9h.147a9.319,9.319,0,1,0,13.018,0h17.6a9.319,9.319,0,1,0,13.018,0H69.9a3.994,3.994,0,1,0,0-7.988H23.3a2.663,2.663,0,0,1,0-5.325H68.493a6.67,6.67,0,0,0,6.421-4.905l6.833-25.056A3.679,3.679,0,0,0,78.2,17.976ZM36.614,72.559A6.657,6.657,0,1,1,29.958,65.9a6.657,6.657,0,0,1,6.657,6.657Zm30.62,0A6.657,6.657,0,1,1,60.578,65.9a6.657,6.657,0,0,1,6.657,6.657ZM23.3,49.927a5.325,5.325,0,0,0,0,10.65H69.9a1.331,1.331,0,0,1,0,2.663H23.3a7.988,7.988,0,0,1,0-15.976h.508a1.33,1.33,0,0,0,1.285-1.681L14.93,8.307a1.332,1.332,0,0,0-1.284-.982H5.994a1.331,1.331,0,0,1,0-2.663h7.651A4,4,0,0,1,17.5,7.606L29.037,49.927ZM41,20.248a1.331,1.331,0,1,1,1.883-1.883L48.6,24.081,59.636,13.04a1.331,1.331,0,1,1,1.882,1.883L49.537,26.9a1.331,1.331,0,0,1-1.883,0Z" fill="#12263f"/>
    </g>
  </g>
</svg>
