<svg xmlns="http://www.w3.org/2000/svg" xmlns:xlink="http://www.w3.org/1999/xlink" width="183.809" height="169.787" viewBox="0 0 183.809 169.787">
  <defs>
    <filter id="Elipse_6866" x="14.021" y="0" width="169.788" height="169.787" filterUnits="userSpaceOnUse">
      <feOffset dy="3" input="SourceAlpha"/>
      <feGaussianBlur stdDeviation="3" result="blur"/>
      <feFlood flood-opacity="0.161"/>
      <feComposite operator="in" in2="blur"/>
      <feComposite in="SourceGraphic"/>
    </filter>
    <clipPath id="clip-path">
      <rect id="Rect치ngulo_292085" data-name="Rect치ngulo 292085" width="13.494" height="13.493" fill="#7ab8f6"/>
    </clipPath>
    <clipPath id="clip-path-2">
      <path id="Trazado_517229" data-name="Trazado 517229" d="M56.02,50.008l-4.065,4.065L49.532,51.65,53.6,47.583,49.31,43.3,51.8,40.8l4.287,4.287,4.067-4.065,2.423,2.423-4.067,4.065L62.8,51.8l-2.494,2.494Z" transform="translate(-49.31 -40.802)" fill="#7ab8f6"/>
    </clipPath>
    <filter id="Trazado_583444" x="131.785" y="12.391" width="52.025" height="52.025" filterUnits="userSpaceOnUse">
      <feOffset dy="3" input="SourceAlpha"/>
      <feGaussianBlur stdDeviation="3" result="blur-2"/>
      <feFlood flood-opacity="0.161"/>
      <feComposite operator="in" in2="blur-2"/>
      <feComposite in="SourceGraphic"/>
    </filter>
    <filter id="Trazado_583445" x="0" y="81.895" width="39.358" height="39.359" filterUnits="userSpaceOnUse">
      <feOffset dy="3" input="SourceAlpha"/>
      <feGaussianBlur stdDeviation="3" result="blur-3"/>
      <feFlood flood-opacity="0.161"/>
      <feComposite operator="in" in2="blur-3"/>
      <feComposite in="SourceGraphic"/>
    </filter>
  </defs>
  <g id="Grupo_878019" data-name="Grupo 878019" transform="translate(-700.563 -17551.559)">
    <g id="Grupo_878015" data-name="Grupo 878015" transform="translate(709.563 17557.559)">
      <g id="Grupo_845760" data-name="Grupo 845760">
        <g transform="matrix(1, 0, 0, 1, -9, -6)" filter="url(#Elipse_6866)">
          <circle id="Elipse_6866-2" data-name="Elipse 6866" cx="75.894" cy="75.894" r="75.894" transform="translate(23.02 6)" fill="#c2e0ff"/>
        </g>
        <g id="Grupo_845758" data-name="Grupo 845758" transform="translate(17.494 9.522)">
          <g id="Grupo_751839" data-name="Grupo 751839">
            <g id="Grupo_751838" data-name="Grupo 751838" clip-path="url(#clip-path)">
              <g id="Grupo_751837" data-name="Grupo 751837" transform="translate(0.001)">
                <g id="Grupo_751836" data-name="Grupo 751836" clip-path="url(#clip-path-2)">
                  <rect id="Rect치ngulo_292084" data-name="Rect치ngulo 292084" width="13.493" height="13.493" transform="translate(0)" fill="#7ab8f6"/>
                </g>
              </g>
            </g>
          </g>
        </g>
        <g transform="matrix(1, 0, 0, 1, -9, -6)" filter="url(#Trazado_583444)">
          <path id="Trazado_583444-2" data-name="Trazado 583444" d="M253.074,101.243a17.012,17.012,0,1,1-17.012-17.012,17.012,17.012,0,0,1,17.012,17.012" transform="translate(-78.26 -65.84)" fill="#7ab8f6"/>
        </g>
        <g transform="matrix(1, 0, 0, 1, -9, -6)" filter="url(#Trazado_583445)">
          <path id="Trazado_583445-2" data-name="Trazado 583445" d="M240.407,94.91a10.679,10.679,0,1,1-10.679-10.679A10.679,10.679,0,0,1,240.407,94.91" transform="translate(-210.05 3.66)" fill="#7ab8f6"/>
        </g>
      </g>
    </g>
    <g id="Layer_x0020_1" transform="translate(717.107 17595.563)">
      <path id="Trazado_609674" data-name="Trazado 609674" d="M88.606,33.392c-4.433,0-5.024-6.4-.788-7.338a3.732,3.732,0,0,1,4.088,5.565A3.955,3.955,0,0,1,88.606,33.392ZM82.893,75.354a1.451,1.451,0,0,1-1.231-.739l-6.255-9.9c-20.094,1.034-29.452,5.467-29.452,8.176,0,1.034,2.167,3.349,10.146,5.368,14.874,3.792,38.76,3.792,53.585,0,8.028-2.019,10.146-4.334,10.146-5.368,0-2.709-9.358-7.141-29.4-8.176l-6.255,9.9A1.47,1.47,0,0,1,82.893,75.354ZM56.79,26.1A26.1,26.1,0,0,1,109,26.1c0,8.373-8.865,23.3-16.745,35.756,8.077.542,30.535,2.857,30.535,11.032,0,3.4-4.137,6.156-12.362,8.225-15.317,3.891-39.7,3.891-55.013,0C47.186,79.047,43,76.289,43,72.891c0-8.176,22.458-10.49,30.585-11.032C65.7,49.4,56.79,34.475,56.79,26.1Zm49.251,0a23.148,23.148,0,0,0-46.3,0c0,10.047,15.218,32.21,23.148,44.917C90.822,58.313,106.041,36.15,106.041,26.1ZM82.893,45.8a19.454,19.454,0,1,1,19.4-19.553A19.464,19.464,0,0,1,82.893,45.8Zm0-35.953a16.5,16.5,0,1,0,16.45,16.4A16.458,16.458,0,0,0,82.893,9.85Zm-4.925,26.6a1.506,1.506,0,0,1-1.281-2.216l9.85-17.385a1.488,1.488,0,0,1,2.61,1.428L79.3,35.707A1.505,1.505,0,0,1,77.968,36.446Zm-.936-9.7a3.71,3.71,0,0,1-3.1-5.615c2.413-4.334,8.865-.69,6.5,3.743A4.02,4.02,0,0,1,77.032,26.743Zm.246-3c.837-.246.936-.985.246-1.478C76.293,21.572,75.85,24.084,77.278,23.739Zm11.377,6.7a.789.789,0,1,0,.049-1.576C87.72,28.861,87.572,30.486,88.655,30.437Z" fill="#12263f" fill-rule="evenodd"/>
      <g id="Grupo_870628" data-name="Grupo 870628" transform="translate(59.745 2.955)">
        <path id="Trazado_609675" data-name="Trazado 609675" d="M425.553,83.3a19.38,19.38,0,1,1-19.4-19.356A19.506,19.506,0,0,1,425.553,83.3Zm-19.4,44.769c7.929-12.707,23.148-34.869,23.148-44.917a23.148,23.148,0,1,0-46.3,0C383,93.195,398.219,115.358,406.148,128.064Z" transform="translate(-383 -60)" fill="#2b95f9" fill-rule="evenodd"/>
        <path id="Trazado_609676" data-name="Trazado 609676" d="M955.467,587.576a.79.79,0,1,0,.049-1.576C954.531,586,954.384,587.625,955.467,587.576Z" transform="translate(-926.557 -560.094)" fill="#2b95f9" fill-rule="evenodd"/>
        <path id="Trazado_609677" data-name="Trazado 609677" d="M721.806,451.153c.837-.246.936-.985.246-1.477C720.821,448.986,720.378,451.5,721.806,451.153Z" transform="translate(-704.273 -430.369)" fill="#2b95f9" fill-rule="evenodd"/>
      </g>
      <path id="Trazado_609678" data-name="Trazado 609678" d="M176.876,1322.176c0-2.709-9.358-7.141-29.4-8.176l-6.255,9.9a1.47,1.47,0,0,1-1.281.739,1.451,1.451,0,0,1-1.231-.739l-6.255-9.9c-20.094,1.034-29.452,5.467-29.452,8.176,0,1.034,2.167,3.349,10.146,5.368,14.874,3.792,38.76,3.792,53.585,0C174.758,1325.525,176.876,1323.21,176.876,1322.176Z" transform="translate(-57.045 -1249.285)" fill="#617a0b" fill-rule="evenodd"/>
    </g>
  </g>
</svg>
