<svg xmlns="http://www.w3.org/2000/svg" width="819.257" height="429.25" viewBox="0 0 819.257 429.25">
  <g id="Grupo_1034301" data-name="Grupo 1034301" transform="translate(-390.667 -14934)">
    <path id="Trazado_624708" data-name="Trazado 624708" d="M1.577,0H333.542a1.577,1.577,0,0,1,1.577,1.577v401.7a1.577,1.577,0,0,1-1.577,1.577H1.577A1.577,1.577,0,0,1,0,403.276V1.577A1.577,1.577,0,0,1,1.577,0Z" transform="translate(795.52 14977.582) rotate(90)" fill="#e6e6e6"/>
    <path id="Trazado_624709" data-name="Trazado 624709" d="M0,0H403.071V306.949H0Z" transform="translate(391.558 14995.788)" fill="#fff"/>
    <path id="Trazado_624710" data-name="Trazado 624710" d="M.6,0H304.852a.6.6,0,0,1,.6.6V9.2a.6.6,0,0,1-.6.6H.6A.6.6,0,0,1,0,9.2V.6A.6.6,0,0,1,.6,0Z" transform="translate(445.435 14982.294)" fill="#fff"/>
    <path id="Trazado_621891" data-name="Trazado 621891" d="M278.253,896.343H-25.488a1.068,1.068,0,0,1-1.067-1.067v-8.092a1.068,1.068,0,0,1,1.067-1.067H278.253a1.069,1.069,0,0,1,1.067,1.067v8.092A1.069,1.069,0,0,1,278.253,896.343Zm-303.741-9.8a.64.64,0,0,0-.641.639v8.092a.64.64,0,0,0,.641.639H278.253a.64.64,0,0,0,.641-.639v-8.092a.64.64,0,0,0-.641-.639Z" transform="translate(471.776 14095.963)" fill="#ccc"/>
    <path id="Trazado_621892" data-name="Trazado 621892" d="M-52.644,889.558h0Z" transform="translate(458.49 14097.443)" fill="#fff"/>
    <path id="Trazado_624711" data-name="Trazado 624711" d="M0,0H4.779V1.337H0Z" transform="translate(401.067 14986.333)" fill="#b3b3b3"/>
    <g id="Grupo_879119" data-name="Grupo 879119" transform="translate(401.657 14986.224)">
      <g id="Grupo_879118" data-name="Grupo 879118">
        <rect id="Rectángulo_327661" data-name="Rectángulo 327661" width="3.52" height="0.219" transform="translate(0.669 0.668)" fill="#0a92cf"/>
        <rect id="Rectángulo_327662" data-name="Rectángulo 327662" width="4.857" height="1.556" fill="#b3b3b3"/>
      </g>
    </g>
    <g id="Grupo_879121" data-name="Grupo 879121" transform="translate(399.73 14984.969)">
      <g id="Grupo_879120" data-name="Grupo 879120">
        <path id="Trazado_621893" data-name="Trazado 621893" d="M-55.908,888.946l-1.515.875,1.515.875Z" transform="translate(58.76 -887.788)" fill="#0a92cf"/>
        <path id="Trazado_621894" data-name="Trazado 621894" d="M-54.837,892.2l-3.52-2.033,3.52-2.033Z" transform="translate(58.357 -888.137)" fill="#b3b3b3"/>
      </g>
    </g>
    <path id="Trazado_621895" data-name="Trazado 621895" d="M-49.9,889.558h0Z" transform="translate(461.729 14097.443)" fill="#fff"/>
    <path id="Trazado_624712" data-name="Trazado 624712" d="M0,0H4.779V1.337H0Z" transform="translate(411.831 14986.333)" fill="#b3b3b3"/>
    <g id="Grupo_879126" data-name="Grupo 879126" transform="translate(411.163 14986.224)">
      <g id="Grupo_879125" data-name="Grupo 879125">
        <rect id="Rectángulo_327664" data-name="Rectángulo 327664" width="3.52" height="0.219" transform="translate(0.668 0.668)" fill="#0a92cf"/>
        <rect id="Rectángulo_327665" data-name="Rectángulo 327665" width="4.857" height="1.556" fill="#b3b3b3"/>
      </g>
    </g>
    <g id="Grupo_879128" data-name="Grupo 879128" transform="translate(414.427 14984.969)">
      <g id="Grupo_879127" data-name="Grupo 879127">
        <path id="Trazado_621896" data-name="Trazado 621896" d="M-47.616,888.946l1.515.875-1.515.875Z" transform="translate(48.285 -887.788)" fill="#0a92cf"/>
        <path id="Trazado_621897" data-name="Trazado 621897" d="M-48.084,892.2v-4.065l3.52,2.033Z" transform="translate(48.084 -888.137)" fill="#b3b3b3"/>
      </g>
    </g>
    <path id="Trazado_624713" data-name="Trazado 624713" d="M0,0H403.071V97.9H0Z" transform="translate(391.558 14995.788)" fill="#666"/>
    <path id="Trazado_621956" data-name="Trazado 621956" d="M0,0H371.181V115.855H0Z" transform="translate(407.503 15035.757)" fill="#afafaf"/>
    <path id="Trazado_624714" data-name="Trazado 624714" d="M0,0H110.487V43.542H0Z" transform="translate(407.503 15168.225)" fill="#666"/>
    <path id="Trazado_624715" data-name="Trazado 624715" d="M0,0H36.708V14.521H0Z" transform="translate(407.503 15273.762)" fill="#999"/>
    <path id="Trazado_621898" data-name="Trazado 621898" d="M-52.924,1055.014h0Z" transform="translate(460.427 14168.657)" fill="#fff"/>
    <path id="Trazado_624716" data-name="Trazado 624716" d="M0,0H110.487V3.6H0Z" transform="translate(407.503 15221.874)" fill="#e6e6e6"/>
    <path id="Trazado_621899" data-name="Trazado 621899" d="M-52.924,1060.222h0Z" transform="translate(460.427 14170.899)" fill="#fff"/>
    <path id="Trazado_624717" data-name="Trazado 624717" d="M0,0H110.487V3.6H0Z" transform="translate(407.503 15229.323)" fill="#e6e6e6"/>
    <path id="Trazado_621900" data-name="Trazado 621900" d="M-52.924,1065.429h0Z" transform="translate(460.427 14173.14)" fill="#fff"/>
    <path id="Trazado_624718" data-name="Trazado 624718" d="M0,0H110.487V3.6H0Z" transform="translate(407.503 15236.771)" fill="#e6e6e6"/>
    <path id="Trazado_621901" data-name="Trazado 621901" d="M-52.924,1070.637h0Z" transform="translate(460.427 14175.381)" fill="#fff"/>
    <path id="Trazado_624719" data-name="Trazado 624719" d="M0,0H110.487V3.6H0Z" transform="translate(407.503 15244.221)" fill="#e6e6e6"/>
    <path id="Trazado_621902" data-name="Trazado 621902" d="M-52.924,1075.845h0Z" transform="translate(460.427 14177.623)" fill="#fff"/>
    <path id="Trazado_624720" data-name="Trazado 624720" d="M0,0H110.487V3.6H0Z" transform="translate(407.503 15251.67)" fill="#e6e6e6"/>
    <path id="Trazado_621903" data-name="Trazado 621903" d="M-52.924,1081.052h0Z" transform="translate(460.427 14179.864)" fill="#fff"/>
    <path id="Trazado_624721" data-name="Trazado 624721" d="M0,0H110.487V3.6H0Z" transform="translate(407.503 15259.119)" fill="#e6e6e6"/>
    <path id="Trazado_624722" data-name="Trazado 624722" d="M0,0H110.487V43.542H0Z" transform="translate(537.85 15168.225)" fill="#666"/>
    <path id="Trazado_624723" data-name="Trazado 624723" d="M0,0H36.708V14.521H0Z" transform="translate(537.85 15273.762)" fill="#999"/>
    <path id="Trazado_621904" data-name="Trazado 621904" d="M38.2,1055.014h0Z" transform="translate(499.648 14168.657)" fill="#fff"/>
    <path id="Trazado_624724" data-name="Trazado 624724" d="M0,0H110.487V3.6H0Z" transform="translate(537.85 15221.874)" fill="#e6e6e6"/>
    <path id="Trazado_621905" data-name="Trazado 621905" d="M38.2,1060.222h0Z" transform="translate(499.648 14170.899)" fill="#fff"/>
    <path id="Trazado_624725" data-name="Trazado 624725" d="M0,0H110.487V3.6H0Z" transform="translate(537.85 15229.323)" fill="#e6e6e6"/>
    <path id="Trazado_621906" data-name="Trazado 621906" d="M38.2,1065.429h0Z" transform="translate(499.648 14173.14)" fill="#fff"/>
    <path id="Trazado_624726" data-name="Trazado 624726" d="M0,0H110.487V3.6H0Z" transform="translate(537.85 15236.771)" fill="#e6e6e6"/>
    <path id="Trazado_621907" data-name="Trazado 621907" d="M38.2,1070.637h0Z" transform="translate(499.648 14175.381)" fill="#fff"/>
    <path id="Trazado_624727" data-name="Trazado 624727" d="M0,0H110.487V3.6H0Z" transform="translate(537.85 15244.221)" fill="#e6e6e6"/>
    <path id="Trazado_621908" data-name="Trazado 621908" d="M38.2,1075.845h0Z" transform="translate(499.648 14177.623)" fill="#fff"/>
    <path id="Trazado_624728" data-name="Trazado 624728" d="M0,0H110.487V3.6H0Z" transform="translate(537.85 15251.67)" fill="#e6e6e6"/>
    <path id="Trazado_621909" data-name="Trazado 621909" d="M38.2,1081.052h0Z" transform="translate(499.648 14179.864)" fill="#fff"/>
    <path id="Trazado_624729" data-name="Trazado 624729" d="M0,0H110.487V3.6H0Z" transform="translate(537.85 15259.119)" fill="#e6e6e6"/>
    <path id="Trazado_624730" data-name="Trazado 624730" d="M0,0H110.487V120.058H0Z" transform="translate(668.196 15168.225)" fill="#666"/>
    <path id="Trazado_621910" data-name="Trazado 621910" d="M129.327,1055.014h0Z" transform="translate(548.698 14127.817)" fill="#fff"/>
    <path id="Trazado_624731" data-name="Trazado 624731" d="M0,0H90.829V3.6H0Z" transform="translate(678.026 15181.034)" fill="#e6e6e6"/>
    <path id="Trazado_621911" data-name="Trazado 621911" d="M129.327,1060.222h0Z" transform="translate(548.698 14130.06)" fill="#fff"/>
    <path id="Trazado_624732" data-name="Trazado 624732" d="M0,0H90.829V3.6H0Z" transform="translate(678.026 15188.483)" fill="#e6e6e6"/>
    <path id="Trazado_621912" data-name="Trazado 621912" d="M129.327,1065.429h0Z" transform="translate(548.698 14132.3)" fill="#fff"/>
    <path id="Trazado_624733" data-name="Trazado 624733" d="M0,0H90.829V3.6H0Z" transform="translate(678.026 15195.932)" fill="#e6e6e6"/>
    <path id="Trazado_621913" data-name="Trazado 621913" d="M129.327,1070.637h0Z" transform="translate(548.698 14134.541)" fill="#fff"/>
    <path id="Trazado_624734" data-name="Trazado 624734" d="M0,0H90.829V3.6H0Z" transform="translate(678.026 15203.381)" fill="#e6e6e6"/>
    <path id="Trazado_621914" data-name="Trazado 621914" d="M129.327,1075.845h0Z" transform="translate(548.698 14136.783)" fill="#fff"/>
    <path id="Trazado_624735" data-name="Trazado 624735" d="M0,0H90.829V3.6H0Z" transform="translate(678.026 15210.83)" fill="#e6e6e6"/>
    <path id="Trazado_621915" data-name="Trazado 621915" d="M129.327,1081.052h0Z" transform="translate(548.698 14139.024)" fill="#fff"/>
    <path id="Trazado_624736" data-name="Trazado 624736" d="M0,0H90.829V3.6H0Z" transform="translate(678.026 15218.279)" fill="#e6e6e6"/>
    <path id="Trazado_621910-2" data-name="Trazado 621910" d="M129.327,1055.014h0Z" transform="translate(548.698 14172.14)" fill="#fff"/>
    <path id="Trazado_624737" data-name="Trazado 624737" d="M0,0H90.829V3.6H0Z" transform="translate(678.026 15225.356)" fill="#e6e6e6"/>
    <path id="Trazado_621911-2" data-name="Trazado 621911" d="M129.327,1060.222h0Z" transform="translate(548.698 14174.382)" fill="#fff"/>
    <path id="Trazado_624738" data-name="Trazado 624738" d="M0,0H90.829V3.6H0Z" transform="translate(678.026 15232.806)" fill="#e6e6e6"/>
    <path id="Trazado_621912-2" data-name="Trazado 621912" d="M129.327,1065.429h0Z" transform="translate(548.698 14176.622)" fill="#fff"/>
    <path id="Trazado_624739" data-name="Trazado 624739" d="M0,0H90.829V3.6H0Z" transform="translate(678.026 15240.254)" fill="#e6e6e6"/>
    <path id="Trazado_621913-2" data-name="Trazado 621913" d="M129.327,1070.637h0Z" transform="translate(548.698 14178.863)" fill="#fff"/>
    <path id="Trazado_624740" data-name="Trazado 624740" d="M0,0H90.829V3.6H0Z" transform="translate(678.026 15247.703)" fill="#e6e6e6"/>
    <path id="Trazado_621914-2" data-name="Trazado 621914" d="M129.327,1075.845h0Z" transform="translate(548.698 14181.105)" fill="#fff"/>
    <path id="Trazado_624741" data-name="Trazado 624741" d="M0,0H90.829V3.6H0Z" transform="translate(678.026 15255.152)" fill="#e6e6e6"/>
    <path id="Trazado_621915-2" data-name="Trazado 621915" d="M129.327,1081.052h0Z" transform="translate(548.698 14183.347)" fill="#fff"/>
    <path id="Trazado_624742" data-name="Trazado 624742" d="M0,0H90.829V3.6H0Z" transform="translate(678.026 15262.602)" fill="#e6e6e6"/>
    <path id="Trazado_621916" data-name="Trazado 621916" d="M-33.567,976.963l-9.857-9.857,9.857-9.857,1.89,1.89-7.967,7.967,7.967,7.967Z" transform="translate(464.516 14126.578)" fill="#fff"/>
    <path id="Trazado_621917" data-name="Trazado 621917" d="M190.747,976.963l-1.89-1.89,7.967-7.967-7.967-7.967,1.89-1.89,9.857,9.857Z" transform="translate(564.491 14126.578)" fill="#fff"/>
    <path id="Trazado_621918" data-name="Trazado 621918" d="M75.085,994.365a2.673,2.673,0,1,1-2.673-2.673A2.673,2.673,0,0,1,75.085,994.365Z" transform="translate(513.222 14141.403)" fill="#b3b3b3"/>
    <path id="Trazado_621919" data-name="Trazado 621919" d="M80.3,994.365a2.674,2.674,0,1,1-2.673-2.673A2.674,2.674,0,0,1,80.3,994.365Z" transform="translate(515.466 14141.403)" fill="#e6e6e6"/>
    <path id="Trazado_621920" data-name="Trazado 621920" d="M85.516,994.365a2.673,2.673,0,1,1-2.673-2.673A2.674,2.674,0,0,1,85.516,994.365Z" transform="translate(517.711 14141.403)" fill="#e6e6e6"/>
    <path id="Trazado_624743" data-name="Trazado 624743" d="M2.228,0A2.228,2.228,0,1,1,0,2.228,2.228,2.228,0,0,1,2.228,0Z" transform="translate(783.937 14984.965)" fill="red"/>
    <path id="Trazado_621921" data-name="Trazado 621921" d="M209.468,890.363a2.228,2.228,0,1,1-2.229-2.229A2.228,2.228,0,0,1,209.468,890.363Z" transform="translate(571.444 14096.831)" fill="#b3b3b3"/>
    <path id="Trazado_624744" data-name="Trazado 624744" d="M2.228,0A2.228,2.228,0,1,1,0,2.228,2.228,2.228,0,0,1,2.228,0Z" transform="translate(768.975 14984.965)" fill="#b3b3b3"/>
    <path id="Trazado_621922" data-name="Trazado 621922" d="M-35.27,890.876l.443-2.974-.953.376a3.877,3.877,0,0,0-2.919-1.336,3.939,3.939,0,0,0-3.934,3.934,3.938,3.938,0,0,0,3.934,3.932,3.94,3.94,0,0,0,2.772-1.16l-.757-.734,0,.089a2.9,2.9,0,0,1-2.011.8,2.93,2.93,0,0,1-2.928-2.927,2.931,2.931,0,0,1,2.928-2.928,2.876,2.876,0,0,1,1.9.731l-.828.328Z" transform="translate(464.856 14096.317)" fill="#b3b3b3"/>
    <path id="Trazado_621923" data-name="Trazado 621923" d="M-31.156,887.863l2.842,2.842h-1.277v3.127H-32.72v-3.127H-34l2.841-2.842Zm0-.857a.853.853,0,0,0-.605.25L-34.6,890.1a.859.859,0,0,0-.186.934.859.859,0,0,0,.792.529h.421v2.27a.856.856,0,0,0,.857.857h3.128a.856.856,0,0,0,.857-.857v-2.27h.421a.859.859,0,0,0,.792-.529.859.859,0,0,0-.186-.934l-2.842-2.842a.854.854,0,0,0-.606-.25Z" transform="translate(468.204 14096.346)" fill="#b3b3b3"/>
    <path id="Trazado_624745" data-name="Trazado 624745" d="M1.577,0H333.541a1.577,1.577,0,0,1,1.577,1.577v401.7a1.577,1.577,0,0,1-1.577,1.577H1.577A1.577,1.577,0,0,1,0,403.275V1.577A1.577,1.577,0,0,1,1.577,0Z" transform="translate(1209.924 14977.582) rotate(90)" fill="#e6e6e6"/>
    <path id="Trazado_624746" data-name="Trazado 624746" d="M0,0H403.07V306.949H0Z" transform="translate(805.963 14995.788)" fill="#fff"/>
    <path id="Trazado_624747" data-name="Trazado 624747" d="M.6,0H304.852a.6.6,0,0,1,.6.6V9.2a.6.6,0,0,1-.6.6H.6A.6.6,0,0,1,0,9.2V.6A.6.6,0,0,1,.6,0Z" transform="translate(859.839 14982.294)" fill="#fff"/>
    <path id="Trazado_621924" data-name="Trazado 621924" d="M567.964,896.343H264.222a1.067,1.067,0,0,1-1.066-1.067v-8.092a1.066,1.066,0,0,1,1.066-1.066H567.964a1.067,1.067,0,0,1,1.066,1.066v8.092A1.067,1.067,0,0,1,567.964,896.343Zm-303.743-9.8a.64.64,0,0,0-.639.639v8.092a.64.64,0,0,0,.639.641H567.964a.641.641,0,0,0,.64-.641v-8.092a.641.641,0,0,0-.64-.639Z" transform="translate(596.47 14095.963)" fill="#ccc"/>
    <path id="Trazado_621925" data-name="Trazado 621925" d="M237.066,889.558h0Z" transform="translate(583.185 14097.443)" fill="#fff"/>
    <path id="Trazado_624748" data-name="Trazado 624748" d="M0,0H4.779V1.337H0Z" transform="translate(815.472 14986.333)" fill="#b3b3b3"/>
    <g id="Grupo_879155" data-name="Grupo 879155" transform="translate(816.062 14986.223)">
      <g id="Grupo_879154" data-name="Grupo 879154">
        <rect id="Rectángulo_327696" data-name="Rectángulo 327696" width="3.52" height="0.219" transform="translate(0.669 0.668)" fill="#0a92cf"/>
        <rect id="Rectángulo_327697" data-name="Rectángulo 327697" width="4.857" height="1.556" fill="#b3b3b3"/>
      </g>
    </g>
    <g id="Grupo_879157" data-name="Grupo 879157" transform="translate(814.135 14984.969)">
      <g id="Grupo_879156" data-name="Grupo 879156">
        <path id="Trazado_621926" data-name="Trazado 621926" d="M233.8,888.946l-1.515.875,1.515.875Z" transform="translate(-230.951 -887.789)" fill="#0a92cf"/>
        <path id="Trazado_621927" data-name="Trazado 621927" d="M234.873,892.2l-3.52-2.032,3.52-2.032Z" transform="translate(-231.353 -888.137)" fill="#b3b3b3"/>
      </g>
    </g>
    <path id="Trazado_621928" data-name="Trazado 621928" d="M239.813,889.558h0Z" transform="translate(586.423 14097.443)" fill="#fff"/>
    <path id="Trazado_624749" data-name="Trazado 624749" d="M0,0H4.779V1.337H0Z" transform="translate(826.235 14986.333)" fill="#b3b3b3"/>
    <g id="Grupo_879162" data-name="Grupo 879162" transform="translate(825.567 14986.223)">
      <g id="Grupo_879161" data-name="Grupo 879161">
        <rect id="Rectángulo_327699" data-name="Rectángulo 327699" width="3.52" height="0.219" transform="translate(0.668 0.668)" fill="#0a92cf"/>
        <rect id="Rectángulo_327700" data-name="Rectángulo 327700" width="4.856" height="1.556" fill="#b3b3b3"/>
      </g>
    </g>
    <g id="Grupo_879164" data-name="Grupo 879164" transform="translate(828.831 14984.969)">
      <g id="Grupo_879163" data-name="Grupo 879163">
        <path id="Trazado_621929" data-name="Trazado 621929" d="M242.094,888.946l1.515.875-1.515.875Z" transform="translate(-241.426 -887.789)" fill="#0a92cf"/>
        <path id="Trazado_621930" data-name="Trazado 621930" d="M241.627,892.2v-4.064l3.521,2.032Z" transform="translate(-241.627 -888.137)" fill="#b3b3b3"/>
      </g>
    </g>
    <path id="Trazado_624750" data-name="Trazado 624750" d="M2.228,0A2.228,2.228,0,1,1,0,2.228,2.228,2.228,0,0,1,2.228,0Z" transform="translate(1198.341 14984.965)" fill="red"/>
    <path id="Trazado_624751" data-name="Trazado 624751" d="M2.228,0A2.228,2.228,0,1,1,0,2.228,2.228,2.228,0,0,1,2.228,0Z" transform="translate(1190.859 14984.965)" fill="#b3b3b3"/>
    <path id="Trazado_621931" data-name="Trazado 621931" d="M493.948,890.363a2.228,2.228,0,1,1-2.227-2.229A2.227,2.227,0,0,1,493.948,890.363Z" transform="translate(693.887 14096.83)" fill="#b3b3b3"/>
    <path id="Trazado_621932" data-name="Trazado 621932" d="M251.011,894.808a3.933,3.933,0,1,1,3.147-6.291l.11.147-.262,4.766-.126.135A3.95,3.95,0,0,1,251.011,894.808Zm0-6.86a2.927,2.927,0,1,0,0,5.855,2.9,2.9,0,0,0,2.013-.8l.22-4.021A2.9,2.9,0,0,0,251.011,887.948Zm2.5,5.272h0Z" transform="translate(589.551 14096.317)" fill="#b3b3b3"/>
    <path id="Trazado_621933" data-name="Trazado 621933" d="M250.58,888.717l2.354,1.87.442-2.973Z" transform="translate(591.059 14096.606)" fill="#b3b3b3"/>
    <path id="Trazado_621934" data-name="Trazado 621934" d="M258.555,887.863l2.842,2.842h-1.279v3.127h-3.127v-3.127h-1.279l2.842-2.842Zm0-.857a.858.858,0,0,0-.607.252l-2.841,2.841a.857.857,0,0,0,.605,1.463h.422v2.27a.857.857,0,0,0,.857.857h3.127a.856.856,0,0,0,.857-.857v-2.27h.422A.857.857,0,0,0,262,890.1l-2.841-2.841a.858.858,0,0,0-.607-.252Z" transform="translate(592.897 14096.345)" fill="#b3b3b3"/>
    <path id="Trazado_624752" data-name="Trazado 624752" d="M0,0H240.834V67.717H0Z" transform="translate(821.907 15008.155)" fill="#666"/>
    <path id="Trazado_624753" data-name="Trazado 624753" d="M0,0H112.936V199.458H0Z" transform="translate(1077.924 15030.011)" fill="#999"/>
    <path id="Trazado_624754" data-name="Trazado 624754" d="M0,0H120.417V11.546H0Z" transform="translate(821.907 15084.529)" fill="#999"/>
    <path id="Trazado_624755" data-name="Trazado 624755" d="M0,0H13.524V11.546H0Z" transform="translate(1049.217 15084.529)" fill="#999"/>
    <path id="Trazado_624756" data-name="Trazado 624756" d="M0,0H13.524V11.546H0Z" transform="translate(1033.567 15084.529)" fill="#999"/>
    <path id="Trazado_624757" data-name="Trazado 624757" d="M0,0H33.814V11.546H0Z" transform="translate(867.859 15270.373)" fill="#fff"/>
    <path id="Trazado_621935" data-name="Trazado 621935" d="M303.016,1099.5h-34.26v-11.993h34.26Zm-33.813-.446h33.367v-11.1H269.2Z" transform="translate(598.881 14182.643)" fill="#ccc"/>
    <path id="Trazado_624758" data-name="Trazado 624758" d="M0,0H33.814V11.546H0Z" transform="translate(906.433 15270.373)" fill="#fff"/>
    <path id="Trazado_621936" data-name="Trazado 621936" d="M329.983,1099.5h-34.26v-11.993h34.26Zm-33.813-.446h33.368v-11.1H296.169Z" transform="translate(610.487 14182.643)" fill="#ccc"/>
    <path id="Trazado_624759" data-name="Trazado 624759" d="M0,0H33.814V11.546H0Z" transform="translate(867.859 15152.206)" fill="#fff"/>
    <path id="Trazado_621937" data-name="Trazado 621937" d="M303.016,1016.888h-34.26V1004.9h34.26Zm-33.813-.445h33.367v-11.1H269.2Z" transform="translate(598.881 14147.086)" fill="#ccc"/>
    <path id="Trazado_624760" data-name="Trazado 624760" d="M0,0H33.814V11.546H0Z" transform="translate(906.433 15152.206)" fill="#fff"/>
    <path id="Trazado_621938" data-name="Trazado 621938" d="M329.983,1016.888h-34.26V1004.9h34.26Zm-33.813-.445h33.368v-11.1H296.169Z" transform="translate(610.487 14147.086)" fill="#ccc"/>
    <path id="Trazado_624761" data-name="Trazado 624761" d="M1.558,0H71.052a1.558,1.558,0,0,1,1.558,1.558V9.37a1.558,1.558,0,0,1-1.558,1.558H1.558A1.558,1.558,0,0,1,0,9.37V1.558A1.558,1.558,0,0,1,1.558,0Z" transform="translate(1118.25 15008.155)" fill="#fff"/>
    <path id="Trazado_621939" data-name="Trazado 621939" d="M514.408,915.564H446.255a2.452,2.452,0,0,1-2.45-2.45v-6.473a2.452,2.452,0,0,1,2.45-2.45h68.153a2.453,2.453,0,0,1,2.452,2.45v6.473A2.453,2.453,0,0,1,514.408,915.564Zm-68.153-10.927a2.007,2.007,0,0,0-2.005,2v6.473a2.007,2.007,0,0,0,2.005,2h68.153a2.007,2.007,0,0,0,2.005-2v-6.473a2.007,2.007,0,0,0-2.005-2Z" transform="translate(674.223 14103.741)" fill="#ccc"/>
    <path id="Trazado_624762" data-name="Trazado 624762" d="M0,0H34.585V10.928H0Z" transform="translate(1078.451 15008.155)" fill="#c6c6c6"/>
    <path id="Trazado_624763" data-name="Trazado 624763" d="M0,0H34.037V34.037H0Z" transform="translate(823.206 15104.731)" fill="#c6c6c6"/>
    <path id="Trazado_624764" data-name="Trazado 624764" d="M0,0H33.264V35.645H0Z" transform="translate(1078.167 15236.883)" fill="#c6c6c6"/>
    <path id="Trazado_624765" data-name="Trazado 624765" d="M0,0H33.264V35.645H0Z" transform="translate(1118.003 15236.883)" fill="#c6c6c6"/>
    <path id="Trazado_624766" data-name="Trazado 624766" d="M0,0H33.264V35.645H0Z" transform="translate(1157.839 15236.883)" fill="#c6c6c6"/>
    <path id="Trazado_624767" data-name="Trazado 624767" d="M0,0H194.881V4.584H0Z" transform="translate(867.859 15104.838)" fill="#e6e6e6"/>
    <path id="Trazado_624768" data-name="Trazado 624768" d="M0,0H194.881V4.584H0Z" transform="translate(867.859 15112.287)" fill="#e6e6e6"/>
    <path id="Trazado_624769" data-name="Trazado 624769" d="M0,0H194.881V4.584H0Z" transform="translate(867.859 15119.736)" fill="#e6e6e6"/>
    <path id="Trazado_624770" data-name="Trazado 624770" d="M0,0H194.881V4.584H0Z" transform="translate(867.859 15127.185)" fill="#e6e6e6"/>
    <path id="Trazado_624771" data-name="Trazado 624771" d="M0,0H194.882V4.584H0Z" transform="translate(867.859 15134.634)" fill="#e6e6e6"/>
    <path id="Trazado_624772" data-name="Trazado 624772" d="M0,0H72.388V4.584H0Z" transform="translate(867.859 15142.083)" fill="#e6e6e6"/>
    <path id="Trazado_624773" data-name="Trazado 624773" d="M0,0H34.037V4.584H0Z" transform="translate(823.206 15142.083)" fill="#e6e6e6"/>
    <path id="Trazado_624774" data-name="Trazado 624774" d="M0,0H18.433V4.584H0Z" transform="translate(823.206 15149.914)" fill="#e6e6e6"/>
    <path id="Trazado_624775" data-name="Trazado 624775" d="M0,0H34.037V4.584H0Z" transform="translate(823.206 15275.711)" fill="#e6e6e6"/>
    <path id="Trazado_624776" data-name="Trazado 624776" d="M0,0H18.433V4.584H0Z" transform="translate(823.206 15283.542)" fill="#e6e6e6"/>
    <path id="Trazado_624777" data-name="Trazado 624777" d="M0,0H34.037V34.037H0Z" transform="translate(823.206 15237.687)" fill="#c6c6c6"/>
    <path id="Trazado_624778" data-name="Trazado 624778" d="M0,0H194.881V4.584H0Z" transform="translate(867.859 15237.793)" fill="#e6e6e6"/>
    <path id="Trazado_624779" data-name="Trazado 624779" d="M0,0H194.881V4.584H0Z" transform="translate(867.859 15245.242)" fill="#e6e6e6"/>
    <path id="Trazado_624780" data-name="Trazado 624780" d="M0,0H194.881V4.584H0Z" transform="translate(867.859 15252.691)" fill="#e6e6e6"/>
    <path id="Trazado_624781" data-name="Trazado 624781" d="M0,0H194.881V4.584H0Z" transform="translate(867.859 15260.141)" fill="#e6e6e6"/>
    <path id="Trazado_621941" data-name="Trazado 621941" d="M265.694,1003.141v-4.051a4.053,4.053,0,0,0-2.837-3.871l-6.57-2.115v-1.888a9.2,9.2,0,1,0-5.9,0V993.1l-6.57,2.115a3.948,3.948,0,0,0-2.206,1.667,3.756,3.756,0,0,0-.675,2.2v4.051h24.755Z" transform="translate(586.908 14133.506)" fill="#999"/>
    <path id="Trazado_621942" data-name="Trazado 621942" d="M265.694,1096.09v-4.051a4.052,4.052,0,0,0-2.837-3.871l-6.57-2.116v-1.888a9.2,9.2,0,1,0-5.9,0v1.888l-6.57,2.116a3.947,3.947,0,0,0-2.206,1.666,3.757,3.757,0,0,0-.675,2.2v4.051h24.755Z" transform="translate(586.908 14173.513)" fill="#999"/>
    <path id="Trazado_624782" data-name="Trazado 624782" d="M0,0H121.074V4.584H0Z" transform="translate(878.926 15203.034)" fill="#e6e6e6"/>
    <path id="Trazado_621940" data-name="Trazado 621940" d="M504.42,1020.408H268.912v83.378H496.778v-70.8Z" transform="translate(554.294 14118.811)" fill="#666"/>
    <path id="Trazado_624783" data-name="Trazado 624783" d="M0,0H183.387V6.943H0Z" transform="translate(839.968 15162.882)" fill="#e6e6e6"/>
    <path id="Trazado_624784" data-name="Trazado 624784" d="M0,0H183.387V6.943H0Z" transform="translate(839.968 15182.937)" fill="#e6e6e6"/>
    <path id="Trazado_624785" data-name="Trazado 624785" d="M0,0H183.387V6.943H0Z" transform="translate(839.968 15203.152)" fill="#e6e6e6"/>
    <g id="Trazado_624786" data-name="Trazado 624786" transform="translate(1026.667 15142)" fill="#fff">
      <path d="M 10 19.5 C 4.761680126190186 19.5 0.5 15.23832035064697 0.5 10 C 0.5 4.761680126190186 4.761680126190186 0.5 10 0.5 C 15.23832035064697 0.5 19.5 4.761680126190186 19.5 10 C 19.5 15.23832035064697 15.23832035064697 19.5 10 19.5 Z" stroke="none"/>
      <path d="M 10 1 C 5.037380218505859 1 1 5.037380218505859 1 10 C 1 14.96261978149414 5.037380218505859 19 10 19 C 14.96261978149414 19 19 14.96261978149414 19 10 C 19 5.037380218505859 14.96261978149414 1 10 1 M 10 0 C 15.52285003662109 0 20 4.477149963378906 20 10 C 20 15.52285003662109 15.52285003662109 20 10 20 C 4.477149963378906 20 0 15.52285003662109 0 10 C 0 4.477149963378906 4.477149963378906 0 10 0 Z" stroke="none" fill="#707070"/>
    </g>
    <path id="Trazado_624787" data-name="Trazado 624787" d="M0-7.453l2.133-3.922h2.7L1.52-5.734,4.918,0H2.191L0-3.984-2.184,0H-4.91l3.4-5.734-3.312-5.641h2.7Z" transform="translate(1036.667 15158)" fill="#636363"/>
    <path id="Trazado_624788" data-name="Trazado 624788" d="M-22.883-3.789A4.025,4.025,0,0,1-24.238-.9,4.76,4.76,0,0,1-27.461.156,4.28,4.28,0,0,1-30.9-1.316a6.038,6.038,0,0,1-1.254-4.043v-.7a6.819,6.819,0,0,1,.578-2.891,4.332,4.332,0,0,1,1.652-1.918,4.629,4.629,0,0,1,2.5-.668,4.637,4.637,0,0,1,3.172,1.055,4.326,4.326,0,0,1,1.391,2.961h-2.344a2.376,2.376,0,0,0-.613-1.6,2.271,2.271,0,0,0-1.605-.5,1.991,1.991,0,0,0-1.754.84,4.707,4.707,0,0,0-.6,2.605V-5.3a5.038,5.038,0,0,0,.559,2.7,1.954,1.954,0,0,0,1.762.852,2.314,2.314,0,0,0,1.621-.5,2.241,2.241,0,0,0,.613-1.535Zm1.039-.516a5.013,5.013,0,0,1,.484-2.242A3.546,3.546,0,0,1-19.965-8.07a4.069,4.069,0,0,1,2.113-.539,3.849,3.849,0,0,1,2.793,1.047,4.2,4.2,0,0,1,1.207,2.844l.016.578A4.418,4.418,0,0,1-14.922-1.02,3.775,3.775,0,0,1-17.836.156a3.793,3.793,0,0,1-2.918-1.172A4.5,4.5,0,0,1-21.844-4.2Zm2.258.16A3.16,3.16,0,0,0-19.133-2.3a1.5,1.5,0,0,0,1.3.638,1.5,1.5,0,0,0,1.281-.63,3.457,3.457,0,0,0,.461-2.015,3.128,3.128,0,0,0-.461-1.831,1.5,1.5,0,0,0-1.3-.649,1.474,1.474,0,0,0-1.281.646A3.516,3.516,0,0,0-19.586-4.144ZM-7.7-6.336A6.134,6.134,0,0,0-8.508-6.4a1.654,1.654,0,0,0-1.68.867V0h-2.258V-8.453h2.133l.063,1.008A2.092,2.092,0,0,1-8.367-8.609a2.366,2.366,0,0,1,.7.1Zm4.18-4.2v2.078H-2.07V-6.8H-3.516v4.219a1.007,1.007,0,0,0,.18.672.9.9,0,0,0,.688.2,3.6,3.6,0,0,0,.664-.055V-.047a4.648,4.648,0,0,1-1.367.2,2.156,2.156,0,0,1-2.422-2.4V-6.8H-7.008V-8.453h1.234v-2.078ZM1.57,0H-.7V-8.453H1.57Zm-2.4-10.641a1.112,1.112,0,0,1,.34-.836A1.277,1.277,0,0,1,.438-11.8a1.28,1.28,0,0,1,.922.328,1.105,1.105,0,0,1,.344.836,1.108,1.108,0,0,1-.348.844,1.283,1.283,0,0,1-.918.328A1.283,1.283,0,0,1-.48-9.8,1.108,1.108,0,0,1-.828-10.641ZM5.508-8.453l.07.977a2.951,2.951,0,0,1,2.43-1.133,2.453,2.453,0,0,1,2,.789,3.682,3.682,0,0,1,.672,2.359V0H8.422V-5.406a1.465,1.465,0,0,0-.312-1.043A1.4,1.4,0,0,0,7.07-6.773a1.553,1.553,0,0,0-1.43.813V0H3.383V-8.453ZM14.773,0H12.508V-8.453h2.266Zm-2.4-10.641a1.112,1.112,0,0,1,.34-.836,1.277,1.277,0,0,1,.926-.328,1.28,1.28,0,0,1,.922.328,1.105,1.105,0,0,1,.344.836,1.108,1.108,0,0,1-.348.844,1.283,1.283,0,0,1-.918.328,1.283,1.283,0,0,1-.918-.328A1.108,1.108,0,0,1,12.375-10.641ZM19.016,0H16.75V-12h2.266Zm4.242,0H20.992V-12h2.266Zm6.758,0a2.507,2.507,0,0,1-.227-.758,2.732,2.732,0,0,1-2.133.914A3,3,0,0,1,25.6-.562a2.312,2.312,0,0,1-.816-1.812,2.389,2.389,0,0,1,1-2.062,4.915,4.915,0,0,1,2.879-.727H29.7v-.484a1.393,1.393,0,0,0-.3-.937,1.183,1.183,0,0,0-.949-.352,1.345,1.345,0,0,0-.895.273.929.929,0,0,0-.324.75H24.969a2.268,2.268,0,0,1,.453-1.359,3,3,0,0,1,1.281-.98,4.669,4.669,0,0,1,1.859-.355,3.689,3.689,0,0,1,2.48.785,2.747,2.747,0,0,1,.918,2.207v3.664A4.041,4.041,0,0,0,32.3-.133V0ZM28.148-1.57a1.945,1.945,0,0,0,.922-.223,1.462,1.462,0,0,0,.625-.6V-3.844h-.844q-1.7,0-1.8,1.172l-.008.133a.9.9,0,0,0,.3.7A1.153,1.153,0,0,0,28.148-1.57Z" transform="translate(836.402 14946)" fill="#12263f"/>
    <path id="Trazado_624789" data-name="Trazado 624789" d="M-38.117-4.164h-1.867V0h-2.344V-11.375H-38.1a4.778,4.778,0,0,1,3.109.9A3.1,3.1,0,0,1-33.9-7.937,3.5,3.5,0,0,1-34.4-6,3.437,3.437,0,0,1-35.93-4.758l2.461,4.648V0h-2.516Zm-1.867-1.9h1.891a1.936,1.936,0,0,0,1.367-.449,1.606,1.606,0,0,0,.484-1.238A1.719,1.719,0,0,0-36.7-9.016a1.9,1.9,0,0,0-1.4-.461h-1.883ZM-27.367,0a2.507,2.507,0,0,1-.227-.758,2.732,2.732,0,0,1-2.133.914,3,3,0,0,1-2.059-.719A2.312,2.312,0,0,1-32.6-2.375a2.389,2.389,0,0,1,1-2.062,4.915,4.915,0,0,1,2.879-.727h1.039v-.484a1.393,1.393,0,0,0-.3-.937,1.183,1.183,0,0,0-.949-.352,1.345,1.345,0,0,0-.895.273.929.929,0,0,0-.324.75h-2.258a2.268,2.268,0,0,1,.453-1.359,3,3,0,0,1,1.281-.98,4.669,4.669,0,0,1,1.859-.355,3.689,3.689,0,0,1,2.48.785,2.747,2.747,0,0,1,.918,2.207v3.664a4.041,4.041,0,0,0,.336,1.82V0Zm-1.867-1.57a1.945,1.945,0,0,0,.922-.223,1.462,1.462,0,0,0,.625-.6V-3.844h-.844q-1.7,0-1.8,1.172l-.008.133a.9.9,0,0,0,.3.7A1.153,1.153,0,0,0-29.234-1.57Zm10.125-.766a.727.727,0,0,0-.41-.652,4.659,4.659,0,0,0-1.316-.426q-3.016-.633-3.016-2.562a2.323,2.323,0,0,1,.934-1.879,3.766,3.766,0,0,1,2.441-.754,4.053,4.053,0,0,1,2.574.758,2.388,2.388,0,0,1,.965,1.969H-19.2a1.092,1.092,0,0,0-.312-.8A1.322,1.322,0,0,0-20.484-7a1.351,1.351,0,0,0-.883.258.814.814,0,0,0-.312.656.7.7,0,0,0,.355.605,3.657,3.657,0,0,0,1.2.4A9.8,9.8,0,0,1-18.7-4.7,2.336,2.336,0,0,1-16.914-2.43a2.2,2.2,0,0,1-.992,1.871,4.28,4.28,0,0,1-2.562.715,4.47,4.47,0,0,1-1.887-.379,3.166,3.166,0,0,1-1.293-1.039,2.414,2.414,0,0,1-.469-1.426h2.141a1.179,1.179,0,0,0,.445.922,1.766,1.766,0,0,0,1.109.32,1.635,1.635,0,0,0,.98-.246A.766.766,0,0,0-19.109-2.336Zm7.164.672a1.481,1.481,0,0,0,1.016-.344,1.2,1.2,0,0,0,.406-.914h2.117a2.9,2.9,0,0,1-.469,1.574A3.093,3.093,0,0,1-10.137-.238a3.949,3.949,0,0,1-1.77.395A3.67,3.67,0,0,1-14.766-1,4.56,4.56,0,0,1-15.812-4.18v-.148a4.508,4.508,0,0,1,1.039-3.117,3.627,3.627,0,0,1,2.852-1.164,3.555,3.555,0,0,1,2.543.9,3.2,3.2,0,0,1,.973,2.4h-2.117a1.551,1.551,0,0,0-.406-1.072,1.354,1.354,0,0,0-1.031-.412,1.36,1.36,0,0,0-1.191.575,3.333,3.333,0,0,0-.4,1.866v.235a3.375,3.375,0,0,0,.4,1.878A1.377,1.377,0,0,0-11.945-1.664ZM-2.219,0a2.507,2.507,0,0,1-.227-.758A2.732,2.732,0,0,1-4.578.156,3,3,0,0,1-6.637-.562a2.312,2.312,0,0,1-.816-1.812,2.389,2.389,0,0,1,1-2.062,4.915,4.915,0,0,1,2.879-.727h1.039v-.484a1.393,1.393,0,0,0-.3-.937,1.183,1.183,0,0,0-.949-.352,1.345,1.345,0,0,0-.895.273.929.929,0,0,0-.324.75H-7.266a2.268,2.268,0,0,1,.453-1.359,3,3,0,0,1,1.281-.98,4.669,4.669,0,0,1,1.859-.355,3.689,3.689,0,0,1,2.48.785A2.747,2.747,0,0,1-.273-5.617v3.664A4.041,4.041,0,0,0,.063-.133V0ZM-4.086-1.57a1.945,1.945,0,0,0,.922-.223,1.462,1.462,0,0,0,.625-.6V-3.844h-.844q-1.7,0-1.8,1.172l-.008.133a.9.9,0,0,0,.3.7A1.153,1.153,0,0,0-4.086-1.57Zm9.063-.094a1.481,1.481,0,0,0,1.016-.344A1.2,1.2,0,0,0,6.4-2.922H8.516a2.9,2.9,0,0,1-.469,1.574A3.093,3.093,0,0,1,6.785-.238a3.949,3.949,0,0,1-1.77.395A3.67,3.67,0,0,1,2.156-1,4.56,4.56,0,0,1,1.109-4.18v-.148A4.508,4.508,0,0,1,2.148-7.445,3.627,3.627,0,0,1,5-8.609a3.555,3.555,0,0,1,2.543.9,3.2,3.2,0,0,1,.973,2.4H6.4a1.551,1.551,0,0,0-.406-1.072,1.354,1.354,0,0,0-1.031-.412,1.36,1.36,0,0,0-1.191.575,3.333,3.333,0,0,0-.4,1.866v.235a3.375,3.375,0,0,0,.4,1.878A1.377,1.377,0,0,0,4.977-1.664ZM12.188,0H9.922V-8.453h2.266Zm-2.4-10.641a1.112,1.112,0,0,1,.34-.836,1.277,1.277,0,0,1,.926-.328,1.28,1.28,0,0,1,.922.328,1.105,1.105,0,0,1,.344.836,1.108,1.108,0,0,1-.348.844,1.283,1.283,0,0,1-.918.328,1.283,1.283,0,0,1-.918-.328A1.108,1.108,0,0,1,9.789-10.641ZM17.938.156A4.15,4.15,0,0,1,14.91-.984a4.054,4.054,0,0,1-1.168-3.039v-.219a5.106,5.106,0,0,1,.492-2.277,3.612,3.612,0,0,1,1.395-1.547,3.914,3.914,0,0,1,2.059-.543,3.508,3.508,0,0,1,2.73,1.094,4.444,4.444,0,0,1,1,3.1v.922H16.031a2.1,2.1,0,0,0,.66,1.328,2,2,0,0,0,1.395.5,2.437,2.437,0,0,0,2.039-.945l1.109,1.242A3.389,3.389,0,0,1,19.859-.246,4.511,4.511,0,0,1,17.938.156ZM17.68-6.789a1.411,1.411,0,0,0-1.09.455,2.357,2.357,0,0,0-.535,1.3H19.2v-.181a1.681,1.681,0,0,0-.406-1.165A1.456,1.456,0,0,0,17.68-6.789ZM25.078,0H22.813V-12h2.266Zm1.508-4.3a5.013,5.013,0,0,1,.484-2.242A3.546,3.546,0,0,1,28.465-8.07a4.069,4.069,0,0,1,2.113-.539,3.849,3.849,0,0,1,2.793,1.047,4.2,4.2,0,0,1,1.207,2.844l.016.578A4.418,4.418,0,0,1,33.508-1.02,3.775,3.775,0,0,1,30.594.156a3.793,3.793,0,0,1-2.918-1.172A4.5,4.5,0,0,1,26.586-4.2Zm2.258.16A3.16,3.16,0,0,0,29.3-2.3a1.5,1.5,0,0,0,1.3.638,1.5,1.5,0,0,0,1.281-.63,3.457,3.457,0,0,0,.461-2.015,3.128,3.128,0,0,0-.461-1.831,1.5,1.5,0,0,0-1.3-.649,1.474,1.474,0,0,0-1.281.646A3.516,3.516,0,0,0,28.844-4.144ZM40.563-2.336a.727.727,0,0,0-.41-.652,4.659,4.659,0,0,0-1.316-.426Q35.82-4.047,35.82-5.977a2.323,2.323,0,0,1,.934-1.879A3.766,3.766,0,0,1,39.2-8.609a4.053,4.053,0,0,1,2.574.758,2.388,2.388,0,0,1,.965,1.969H40.477a1.092,1.092,0,0,0-.312-.8A1.322,1.322,0,0,0,39.188-7a1.351,1.351,0,0,0-.883.258.814.814,0,0,0-.312.656.7.7,0,0,0,.355.605,3.657,3.657,0,0,0,1.2.4,9.8,9.8,0,0,1,1.422.379A2.336,2.336,0,0,1,42.758-2.43a2.2,2.2,0,0,1-.992,1.871A4.28,4.28,0,0,1,39.2.156a4.47,4.47,0,0,1-1.887-.379,3.166,3.166,0,0,1-1.293-1.039,2.414,2.414,0,0,1-.469-1.426H37.7a1.179,1.179,0,0,0,.445.922,1.766,1.766,0,0,0,1.109.32,1.635,1.635,0,0,0,.98-.246A.766.766,0,0,0,40.563-2.336Z" transform="translate(1111.667 14946)" fill="#12263f"/>
    <path id="Trazado_624790" data-name="Trazado 624790" d="M-31.746-4.008V0H-34.09V-11.375h4.438a5.134,5.134,0,0,1,2.254.469,3.454,3.454,0,0,1,1.5,1.332,3.714,3.714,0,0,1,.523,1.965,3.266,3.266,0,0,1-1.145,2.637,4.767,4.767,0,0,1-3.168.965Zm0-1.9h2.094a2.059,2.059,0,0,0,1.418-.437,1.591,1.591,0,0,0,.488-1.25,1.876,1.876,0,0,0-.492-1.352A1.839,1.839,0,0,0-29.6-9.477h-2.148Zm7.375,1.6a5.013,5.013,0,0,1,.484-2.242A3.546,3.546,0,0,1-22.492-8.07a4.069,4.069,0,0,1,2.113-.539,3.849,3.849,0,0,1,2.793,1.047,4.2,4.2,0,0,1,1.207,2.844l.016.578A4.418,4.418,0,0,1-17.449-1.02,3.775,3.775,0,0,1-20.363.156a3.793,3.793,0,0,1-2.918-1.172A4.5,4.5,0,0,1-24.371-4.2Zm2.258.16A3.16,3.16,0,0,0-21.66-2.3a1.5,1.5,0,0,0,1.3.638,1.5,1.5,0,0,0,1.281-.63,3.457,3.457,0,0,0,.461-2.015,3.128,3.128,0,0,0-.461-1.831,1.5,1.5,0,0,0-1.3-.649,1.474,1.474,0,0,0-1.281.646A3.516,3.516,0,0,0-22.113-4.144Zm14.75,0A5.07,5.07,0,0,1-8.25-1.02,2.843,2.843,0,0,1-10.645.156a2.633,2.633,0,0,1-2.07-.891V3.25h-2.258v-11.7h2.094l.078.828a2.654,2.654,0,0,1,2.141-.984A2.862,2.862,0,0,1-8.23-7.453a5.207,5.207,0,0,1,.867,3.188Zm-2.258-.164a3.327,3.327,0,0,0-.418-1.82,1.361,1.361,0,0,0-1.215-.641,1.478,1.478,0,0,0-1.461.813V-2.5a1.5,1.5,0,0,0,1.477.836Q-9.621-1.664-9.621-4.312ZM2.41-3.961h-4.4v-1.82h4.4Zm14.555-7.414v7.492A3.836,3.836,0,0,1,15.8-.93,4.5,4.5,0,0,1,12.605.156,4.553,4.553,0,0,1,9.441-.9a3.77,3.77,0,0,1-1.2-2.9v-7.578H10.59v7.508a2.167,2.167,0,0,0,.535,1.629,2.054,2.054,0,0,0,1.48.512q1.977,0,2.008-2.078v-7.57Zm9.383,7.227a5.07,5.07,0,0,1-.887,3.129A2.843,2.843,0,0,1,23.066.156,2.633,2.633,0,0,1,21-.734V3.25H18.738v-11.7h2.094l.078.828a2.654,2.654,0,0,1,2.141-.984,2.862,2.862,0,0,1,2.43,1.156,5.207,5.207,0,0,1,.867,3.188ZM24.09-4.312a3.327,3.327,0,0,0-.418-1.82,1.361,1.361,0,0,0-1.215-.641A1.478,1.478,0,0,0,21-5.961V-2.5a1.5,1.5,0,0,0,1.477.836Q24.09-1.664,24.09-4.312Zm8.234,1.977a.727.727,0,0,0-.41-.652A4.659,4.659,0,0,0,30.6-3.414q-3.016-.633-3.016-2.562a2.323,2.323,0,0,1,.934-1.879,3.766,3.766,0,0,1,2.441-.754,4.053,4.053,0,0,1,2.574.758A2.388,2.388,0,0,1,34.5-5.883H32.238a1.092,1.092,0,0,0-.312-.8A1.322,1.322,0,0,0,30.949-7a1.351,1.351,0,0,0-.883.258.814.814,0,0,0-.312.656.7.7,0,0,0,.355.605,3.657,3.657,0,0,0,1.2.4A9.8,9.8,0,0,1,32.73-4.7,2.336,2.336,0,0,1,34.52-2.43a2.2,2.2,0,0,1-.992,1.871,4.28,4.28,0,0,1-2.562.715,4.47,4.47,0,0,1-1.887-.379,3.166,3.166,0,0,1-1.293-1.039,2.414,2.414,0,0,1-.469-1.426h2.141a1.179,1.179,0,0,0,.445.922,1.766,1.766,0,0,0,1.109.32,1.635,1.635,0,0,0,.98-.246A.766.766,0,0,0,32.324-2.336Z" transform="translate(1070 15360)" fill="#12263f"/>
    <path id="Trazado_624791" data-name="Trazado 624791" d="M-41.559-4.164h-1.867V0H-45.77V-11.375h4.227a4.778,4.778,0,0,1,3.109.9A3.1,3.1,0,0,1-37.34-7.937,3.5,3.5,0,0,1-37.844-6a3.437,3.437,0,0,1-1.527,1.238L-36.91-.109V0h-2.516Zm-1.867-1.9h1.891a1.936,1.936,0,0,0,1.367-.449,1.606,1.606,0,0,0,.484-1.238,1.719,1.719,0,0,0-.457-1.266,1.9,1.9,0,0,0-1.4-.461h-1.883ZM-36.059-4.3a5.013,5.013,0,0,1,.484-2.242A3.546,3.546,0,0,1-34.18-8.07a4.069,4.069,0,0,1,2.113-.539,3.849,3.849,0,0,1,2.793,1.047,4.2,4.2,0,0,1,1.207,2.844l.016.578A4.418,4.418,0,0,1-29.137-1.02,3.775,3.775,0,0,1-32.051.156a3.793,3.793,0,0,1-2.918-1.172A4.5,4.5,0,0,1-36.059-4.2Zm2.258.16A3.16,3.16,0,0,0-33.348-2.3a1.5,1.5,0,0,0,1.3.638,1.5,1.5,0,0,0,1.281-.63,3.457,3.457,0,0,0,.461-2.015A3.128,3.128,0,0,0-30.77-6.14a1.5,1.5,0,0,0-1.3-.649,1.474,1.474,0,0,0-1.281.646A3.516,3.516,0,0,0-33.8-4.144Zm14.758,0A5.119,5.119,0,0,1-19.91-.98,2.872,2.872,0,0,1-22.332.156,2.639,2.639,0,0,1-24.527-.9l-.1.9H-26.66V-12H-24.4v4.3a2.571,2.571,0,0,1,2.055-.914,2.9,2.9,0,0,1,2.426,1.137,5.126,5.126,0,0,1,.879,3.2ZM-21.3-4.312a3.363,3.363,0,0,0-.406-1.871,1.374,1.374,0,0,0-1.211-.59,1.489,1.489,0,0,0-1.484.883v3.336a1.509,1.509,0,0,0,1.5.891,1.394,1.394,0,0,0,1.438-1.078A5.562,5.562,0,0,0-21.3-4.312ZM-12.754,0a2.507,2.507,0,0,1-.227-.758,2.732,2.732,0,0,1-2.133.914,3,3,0,0,1-2.059-.719,2.312,2.312,0,0,1-.816-1.812,2.389,2.389,0,0,1,1-2.062,4.915,4.915,0,0,1,2.879-.727h1.039v-.484a1.393,1.393,0,0,0-.3-.937,1.183,1.183,0,0,0-.949-.352,1.345,1.345,0,0,0-.895.273.929.929,0,0,0-.324.75H-17.8a2.268,2.268,0,0,1,.453-1.359,3,3,0,0,1,1.281-.98,4.669,4.669,0,0,1,1.859-.355,3.689,3.689,0,0,1,2.48.785,2.747,2.747,0,0,1,.918,2.207v3.664a4.041,4.041,0,0,0,.336,1.82V0Zm-1.867-1.57a1.945,1.945,0,0,0,.922-.223,1.462,1.462,0,0,0,.625-.6V-3.844h-.844q-1.7,0-1.8,1.172l-.008.133a.9.9,0,0,0,.3.7A1.153,1.153,0,0,0-14.621-1.57ZM-1.465-4.148A5.07,5.07,0,0,1-2.352-1.02,2.843,2.843,0,0,1-4.746.156a2.633,2.633,0,0,1-2.07-.891V3.25H-9.074v-11.7H-6.98l.078.828a2.654,2.654,0,0,1,2.141-.984,2.862,2.862,0,0,1,2.43,1.156,5.207,5.207,0,0,1,.867,3.188Zm-2.258-.164a3.327,3.327,0,0,0-.418-1.82,1.361,1.361,0,0,0-1.215-.641,1.478,1.478,0,0,0-1.461.813V-2.5a1.5,1.5,0,0,0,1.477.836Q-3.723-1.664-3.723-4.312ZM4.832,0a2.507,2.507,0,0,1-.227-.758A2.732,2.732,0,0,1,2.473.156,3,3,0,0,1,.414-.562,2.312,2.312,0,0,1-.4-2.375a2.389,2.389,0,0,1,1-2.062,4.915,4.915,0,0,1,2.879-.727H4.512v-.484a1.393,1.393,0,0,0-.3-.937,1.183,1.183,0,0,0-.949-.352,1.345,1.345,0,0,0-.895.273.929.929,0,0,0-.324.75H-.215A2.268,2.268,0,0,1,.238-7.273a3,3,0,0,1,1.281-.98,4.669,4.669,0,0,1,1.859-.355,3.689,3.689,0,0,1,2.48.785,2.747,2.747,0,0,1,.918,2.207v3.664a4.041,4.041,0,0,0,.336,1.82V0ZM2.965-1.57a1.945,1.945,0,0,0,.922-.223,1.462,1.462,0,0,0,.625-.6V-3.844H3.668q-1.7,0-1.8,1.172l-.008.133a.9.9,0,0,0,.3.7A1.153,1.153,0,0,0,2.965-1.57ZM3.824-12H6.285L4.121-9.578H2.285ZM8.184-4.289a4.954,4.954,0,0,1,.926-3.133,3,3,0,0,1,2.5-1.187,2.631,2.631,0,0,1,2.164.953l.094-.8H15.91V-.281a3.613,3.613,0,0,1-.5,1.93A3.236,3.236,0,0,1,13.988,2.9a4.985,4.985,0,0,1-2.141.43,4.635,4.635,0,0,1-1.812-.371A3.217,3.217,0,0,1,8.7,2L9.7.625a2.645,2.645,0,0,0,2.047.945,1.936,1.936,0,0,0,1.4-.48,1.8,1.8,0,0,0,.5-1.363V-.727A2.612,2.612,0,0,1,11.59.156,2.992,2.992,0,0,1,9.125-1.035,4.953,4.953,0,0,1,8.184-4.2Zm2.258.168a3.085,3.085,0,0,0,.461,1.8,1.466,1.466,0,0,0,1.266.653,1.568,1.568,0,0,0,1.477-.775V-6a1.564,1.564,0,0,0-1.461-.775,1.476,1.476,0,0,0-1.277.665A3.477,3.477,0,0,0,10.441-4.121ZM20.027,0H17.762V-8.453h2.266Zm-2.4-10.641a1.112,1.112,0,0,1,.34-.836,1.277,1.277,0,0,1,.926-.328,1.28,1.28,0,0,1,.922.328,1.105,1.105,0,0,1,.344.836,1.108,1.108,0,0,1-.348.844,1.283,1.283,0,0,1-.918.328,1.283,1.283,0,0,1-.918-.328A1.108,1.108,0,0,1,17.629-10.641Zm6.336,2.188.07.977a2.951,2.951,0,0,1,2.43-1.133,2.453,2.453,0,0,1,2,.789,3.682,3.682,0,0,1,.672,2.359V0H26.879V-5.406a1.465,1.465,0,0,0-.312-1.043,1.4,1.4,0,0,0-1.039-.324,1.553,1.553,0,0,0-1.43.813V0H21.84V-8.453ZM35.746,0a2.507,2.507,0,0,1-.227-.758,2.732,2.732,0,0,1-2.133.914,3,3,0,0,1-2.059-.719,2.312,2.312,0,0,1-.816-1.812,2.389,2.389,0,0,1,1-2.062,4.915,4.915,0,0,1,2.879-.727h1.039v-.484a1.393,1.393,0,0,0-.3-.937,1.183,1.183,0,0,0-.949-.352,1.345,1.345,0,0,0-.895.273.929.929,0,0,0-.324.75H30.7a2.268,2.268,0,0,1,.453-1.359,3,3,0,0,1,1.281-.98,4.669,4.669,0,0,1,1.859-.355,3.689,3.689,0,0,1,2.48.785,2.747,2.747,0,0,1,.918,2.207v3.664a4.041,4.041,0,0,0,.336,1.82V0ZM33.879-1.57a1.945,1.945,0,0,0,.922-.223,1.462,1.462,0,0,0,.625-.6V-3.844h-.844q-1.7,0-1.8,1.172l-.008.133a.9.9,0,0,0,.3.7A1.153,1.153,0,0,0,33.879-1.57ZM44-2.336a.727.727,0,0,0-.41-.652,4.659,4.659,0,0,0-1.316-.426q-3.016-.633-3.016-2.562A2.323,2.323,0,0,1,40.2-7.855a3.766,3.766,0,0,1,2.441-.754,4.053,4.053,0,0,1,2.574.758,2.388,2.388,0,0,1,.965,1.969H43.918a1.092,1.092,0,0,0-.312-.8A1.322,1.322,0,0,0,42.629-7a1.351,1.351,0,0,0-.883.258.814.814,0,0,0-.312.656.7.7,0,0,0,.355.605,3.657,3.657,0,0,0,1.2.4A9.8,9.8,0,0,1,44.41-4.7,2.336,2.336,0,0,1,46.2-2.43a2.2,2.2,0,0,1-.992,1.871,4.28,4.28,0,0,1-2.562.715,4.47,4.47,0,0,1-1.887-.379,3.166,3.166,0,0,1-1.293-1.039A2.414,2.414,0,0,1,39-2.687h2.141a1.179,1.179,0,0,0,.445.922,1.766,1.766,0,0,0,1.109.32,1.635,1.635,0,0,0,.98-.246A.766.766,0,0,0,44-2.336Z" transform="translate(890 15359.5)" fill="#12263f"/>
    <path id="Trazado_624792" data-name="Trazado 624792" d="M-28.641,0V-11.375h3.984a5.232,5.232,0,0,1,3.141.793,2.712,2.712,0,0,1,1.07,2.324,2.57,2.57,0,0,1-.43,1.473,2.482,2.482,0,0,1-1.2.934,2.4,2.4,0,0,1,1.379.883,2.61,2.61,0,0,1,.5,1.625A3,3,0,0,1-21.234-.859,4.713,4.713,0,0,1-24.219,0ZM-26.3-4.953v3.07h2.008A1.938,1.938,0,0,0-23-2.277a1.353,1.353,0,0,0,.465-1.09,1.428,1.428,0,0,0-1.617-1.586Zm0-1.656h1.734q1.773-.031,1.773-1.414a1.307,1.307,0,0,0-.449-1.113,2.363,2.363,0,0,0-1.418-.34H-26.3Zm7.367,2.3a5.013,5.013,0,0,1,.484-2.242A3.546,3.546,0,0,1-17.051-8.07a4.069,4.069,0,0,1,2.113-.539,3.849,3.849,0,0,1,2.793,1.047,4.2,4.2,0,0,1,1.207,2.844l.016.578A4.418,4.418,0,0,1-12.008-1.02,3.775,3.775,0,0,1-14.922.156,3.793,3.793,0,0,1-17.84-1.016,4.5,4.5,0,0,1-18.93-4.2Zm2.258.16A3.16,3.16,0,0,0-16.219-2.3a1.5,1.5,0,0,0,1.3.638,1.5,1.5,0,0,0,1.281-.63,3.457,3.457,0,0,0,.461-2.015,3.128,3.128,0,0,0-.461-1.831,1.5,1.5,0,0,0-1.3-.649,1.474,1.474,0,0,0-1.281.646A3.516,3.516,0,0,0-16.672-4.144Zm9.844-6.387v2.078h1.445V-6.8H-6.828v4.219a1.007,1.007,0,0,0,.18.672.9.9,0,0,0,.688.2A3.6,3.6,0,0,0-5.3-1.758V-.047a4.648,4.648,0,0,1-1.367.2,2.156,2.156,0,0,1-2.422-2.4V-6.8H-10.32V-8.453h1.234v-2.078ZM-4.711-4.3a5.013,5.013,0,0,1,.484-2.242A3.546,3.546,0,0,1-2.832-8.07,4.069,4.069,0,0,1-.719-8.609,3.849,3.849,0,0,1,2.074-7.562,4.2,4.2,0,0,1,3.281-4.719l.016.578A4.418,4.418,0,0,1,2.211-1.02,3.775,3.775,0,0,1-.7.156,3.793,3.793,0,0,1-3.621-1.016,4.5,4.5,0,0,1-4.711-4.2Zm2.258.16A3.16,3.16,0,0,0-2-2.3a1.5,1.5,0,0,0,1.3.638,1.5,1.5,0,0,0,1.281-.63,3.457,3.457,0,0,0,.461-2.015A3.128,3.128,0,0,0,.578-6.14a1.5,1.5,0,0,0-1.3-.649A1.474,1.474,0,0,0-2-6.144,3.516,3.516,0,0,0-2.453-4.144ZM6.766-8.453l.07.977a2.951,2.951,0,0,1,2.43-1.133,2.453,2.453,0,0,1,2,.789,3.682,3.682,0,0,1,.672,2.359V0H9.68V-5.406a1.465,1.465,0,0,0-.312-1.043,1.4,1.4,0,0,0-1.039-.324,1.553,1.553,0,0,0-1.43.813V0H4.641V-8.453ZM17.539.156A4.15,4.15,0,0,1,14.512-.984a4.054,4.054,0,0,1-1.168-3.039v-.219a5.106,5.106,0,0,1,.492-2.277A3.612,3.612,0,0,1,15.23-8.066a3.914,3.914,0,0,1,2.059-.543,3.508,3.508,0,0,1,2.73,1.094,4.444,4.444,0,0,1,1,3.1v.922H15.633a2.1,2.1,0,0,0,.66,1.328,2,2,0,0,0,1.395.5,2.437,2.437,0,0,0,2.039-.945l1.109,1.242A3.389,3.389,0,0,1,19.461-.246,4.511,4.511,0,0,1,17.539.156Zm-.258-6.945a1.411,1.411,0,0,0-1.09.455,2.357,2.357,0,0,0-.535,1.3H18.8v-.181a1.681,1.681,0,0,0-.406-1.165A1.456,1.456,0,0,0,17.281-6.789Zm9.594,4.453a.727.727,0,0,0-.41-.652,4.659,4.659,0,0,0-1.316-.426q-3.016-.633-3.016-2.562a2.323,2.323,0,0,1,.934-1.879,3.766,3.766,0,0,1,2.441-.754,4.053,4.053,0,0,1,2.574.758,2.388,2.388,0,0,1,.965,1.969H26.789a1.092,1.092,0,0,0-.312-.8A1.322,1.322,0,0,0,25.5-7a1.351,1.351,0,0,0-.883.258.814.814,0,0,0-.312.656.7.7,0,0,0,.355.605,3.657,3.657,0,0,0,1.2.4,9.8,9.8,0,0,1,1.422.379A2.336,2.336,0,0,1,29.07-2.43a2.2,2.2,0,0,1-.992,1.871,4.28,4.28,0,0,1-2.562.715,4.47,4.47,0,0,1-1.887-.379,3.166,3.166,0,0,1-1.293-1.039,2.414,2.414,0,0,1-.469-1.426h2.141a1.179,1.179,0,0,0,.445.922,1.766,1.766,0,0,0,1.109.32,1.635,1.635,0,0,0,.98-.246A.766.766,0,0,0,26.875-2.336Z" transform="translate(654.667 15360)" fill="#12263f"/>
    <path id="Trazado_621946" data-name="Trazado 621946" d="M9661.932,3353.733V3244h-21.6" transform="translate(-8766.932 11696)" fill="none" stroke="#12263f" stroke-width="2"/>
    <path id="Trazado_621949" data-name="Trazado 621949" d="M9659.938,3353.733V3244h-19.609" transform="translate(-8475.935 11696)" fill="none" stroke="#12263f" stroke-width="2"/>
    <path id="Trazado_621947" data-name="Trazado 621947" d="M9640.333,3244v133.734H9680.4" transform="translate(-8675 11976.267)" fill="none" stroke="#12263f" stroke-width="2"/>
    <path id="Trazado_621948" data-name="Trazado 621948" d="M9640.333,3244v66H9680.4" transform="translate(-8865 12044)" fill="none" stroke="#12263f" stroke-width="2"/>
    <path id="Trazado_621945" data-name="Trazado 621945" d="M9640.333,3244v66H9680.4" transform="translate(-9084.333 12044)" fill="none" stroke="#12263f" stroke-width="2"/>
    <path id="Trazado_624793" data-name="Trazado 624793" d="M-56.473,0V-11.375h3.984a5.232,5.232,0,0,1,3.141.793,2.712,2.712,0,0,1,1.07,2.324,2.57,2.57,0,0,1-.43,1.473,2.482,2.482,0,0,1-1.2.934,2.4,2.4,0,0,1,1.379.883,2.61,2.61,0,0,1,.5,1.625A3,3,0,0,1-49.066-.859,4.713,4.713,0,0,1-52.051,0Zm2.344-4.953v3.07h2.008a1.938,1.938,0,0,0,1.293-.395,1.353,1.353,0,0,0,.465-1.09A1.428,1.428,0,0,0-51.98-4.953Zm0-1.656h1.734q1.773-.031,1.773-1.414a1.307,1.307,0,0,0-.449-1.113,2.363,2.363,0,0,0-1.418-.34h-1.641ZM-41.512,0a2.507,2.507,0,0,1-.227-.758,2.732,2.732,0,0,1-2.133.914A3,3,0,0,1-45.93-.562a2.312,2.312,0,0,1-.816-1.812,2.389,2.389,0,0,1,1-2.062,4.915,4.915,0,0,1,2.879-.727h1.039v-.484a1.393,1.393,0,0,0-.3-.937,1.183,1.183,0,0,0-.949-.352,1.345,1.345,0,0,0-.895.273.929.929,0,0,0-.324.75h-2.258a2.268,2.268,0,0,1,.453-1.359,3,3,0,0,1,1.281-.98,4.669,4.669,0,0,1,1.859-.355,3.689,3.689,0,0,1,2.48.785,2.747,2.747,0,0,1,.918,2.207v3.664a4.041,4.041,0,0,0,.336,1.82V0Zm-1.867-1.57a1.945,1.945,0,0,0,.922-.223,1.462,1.462,0,0,0,.625-.6V-3.844h-.844q-1.7,0-1.8,1.172l-.008.133a.9.9,0,0,0,.3.7A1.153,1.153,0,0,0-43.379-1.57Zm7.625-6.883.07.977a2.951,2.951,0,0,1,2.43-1.133,2.453,2.453,0,0,1,2,.789,3.682,3.682,0,0,1,.672,2.359V0H-32.84V-5.406a1.465,1.465,0,0,0-.312-1.043,1.4,1.4,0,0,0-1.039-.324,1.553,1.553,0,0,0-1.43.813V0h-2.258V-8.453Zm8.961,0,.07.977a2.951,2.951,0,0,1,2.43-1.133,2.453,2.453,0,0,1,2,.789,3.682,3.682,0,0,1,.672,2.359V0h-2.258V-5.406a1.465,1.465,0,0,0-.312-1.043,1.4,1.4,0,0,0-1.039-.324,1.553,1.553,0,0,0-1.43.813V0h-2.258V-8.453ZM-16.02.156A4.15,4.15,0,0,1-19.047-.984a4.054,4.054,0,0,1-1.168-3.039v-.219a5.106,5.106,0,0,1,.492-2.277,3.612,3.612,0,0,1,1.395-1.547,3.914,3.914,0,0,1,2.059-.543,3.508,3.508,0,0,1,2.73,1.094,4.444,4.444,0,0,1,1,3.1v.922h-5.383a2.1,2.1,0,0,0,.66,1.328,2,2,0,0,0,1.395.5,2.437,2.437,0,0,0,2.039-.945l1.109,1.242A3.389,3.389,0,0,1-14.1-.246,4.511,4.511,0,0,1-16.02.156Zm-.258-6.945a1.411,1.411,0,0,0-1.09.455,2.357,2.357,0,0,0-.535,1.3h3.141v-.181a1.681,1.681,0,0,0-.406-1.165A1.456,1.456,0,0,0-16.277-6.789Zm9.766.453A6.134,6.134,0,0,0-7.324-6.4,1.654,1.654,0,0,0-9-5.531V0h-2.258V-8.453h2.133l.063,1.008A2.092,2.092,0,0,1-7.184-8.609a2.366,2.366,0,0,1,.7.1Zm9.648,4a.727.727,0,0,0-.41-.652A4.659,4.659,0,0,0,1.41-3.414q-3.016-.633-3.016-2.562A2.323,2.323,0,0,1-.672-7.855,3.766,3.766,0,0,1,1.77-8.609a4.053,4.053,0,0,1,2.574.758,2.388,2.388,0,0,1,.965,1.969H3.051a1.092,1.092,0,0,0-.312-.8A1.322,1.322,0,0,0,1.762-7a1.351,1.351,0,0,0-.883.258.814.814,0,0,0-.312.656.7.7,0,0,0,.355.605,3.657,3.657,0,0,0,1.2.4A9.8,9.8,0,0,1,3.543-4.7,2.336,2.336,0,0,1,5.332-2.43,2.2,2.2,0,0,1,4.34-.559,4.28,4.28,0,0,1,1.777.156,4.47,4.47,0,0,1-.109-.223,3.166,3.166,0,0,1-1.4-1.262a2.414,2.414,0,0,1-.469-1.426H.27a1.179,1.179,0,0,0,.445.922,1.766,1.766,0,0,0,1.109.32,1.635,1.635,0,0,0,.98-.246A.766.766,0,0,0,3.137-2.336ZM11.848-.859A2.831,2.831,0,0,1,9.535.156,2.67,2.67,0,0,1,7.461-.625a3.335,3.335,0,0,1-.73-2.289V-8.453H8.988v5.467q0,1.322,1.2,1.322a1.63,1.63,0,0,0,1.578-.8V-8.453h2.266V0H11.91Zm11.5-3.289a5.07,5.07,0,0,1-.887,3.129A2.843,2.843,0,0,1,20.066.156,2.633,2.633,0,0,1,18-.734V3.25H15.738v-11.7h2.094l.078.828a2.654,2.654,0,0,1,2.141-.984,2.862,2.862,0,0,1,2.43,1.156,5.207,5.207,0,0,1,.867,3.188ZM21.09-4.312a3.327,3.327,0,0,0-.418-1.82,1.361,1.361,0,0,0-1.215-.641A1.478,1.478,0,0,0,18-5.961V-2.5a1.5,1.5,0,0,0,1.477.836Q21.09-1.664,21.09-4.312ZM28.637.156A4.15,4.15,0,0,1,25.609-.984a4.054,4.054,0,0,1-1.168-3.039v-.219a5.106,5.106,0,0,1,.492-2.277,3.612,3.612,0,0,1,1.395-1.547,3.914,3.914,0,0,1,2.059-.543,3.508,3.508,0,0,1,2.73,1.094,4.444,4.444,0,0,1,1,3.1v.922H26.73a2.1,2.1,0,0,0,.66,1.328,2,2,0,0,0,1.395.5,2.437,2.437,0,0,0,2.039-.945l1.109,1.242A3.389,3.389,0,0,1,30.559-.246,4.511,4.511,0,0,1,28.637.156Zm-.258-6.945a1.411,1.411,0,0,0-1.09.455,2.357,2.357,0,0,0-.535,1.3h3.141v-.181a1.681,1.681,0,0,0-.406-1.165A1.456,1.456,0,0,0,28.379-6.789Zm9.766.453a6.134,6.134,0,0,0-.812-.062,1.654,1.654,0,0,0-1.68.867V0H33.395V-8.453h2.133l.063,1.008a2.092,2.092,0,0,1,1.883-1.164,2.366,2.366,0,0,1,.7.1ZM41.613,0H39.348V-8.453h2.266Zm-2.4-10.641a1.112,1.112,0,0,1,.34-.836,1.277,1.277,0,0,1,.926-.328,1.28,1.28,0,0,1,.922.328,1.105,1.105,0,0,1,.344.836A1.108,1.108,0,0,1,41.4-9.8a1.283,1.283,0,0,1-.918.328,1.283,1.283,0,0,1-.918-.328A1.108,1.108,0,0,1,39.215-10.641ZM43.121-4.3a5.013,5.013,0,0,1,.484-2.242A3.546,3.546,0,0,1,45-8.07a4.069,4.069,0,0,1,2.113-.539,3.849,3.849,0,0,1,2.793,1.047,4.2,4.2,0,0,1,1.207,2.844l.016.578A4.418,4.418,0,0,1,50.043-1.02,3.775,3.775,0,0,1,47.129.156a3.793,3.793,0,0,1-2.918-1.172A4.5,4.5,0,0,1,43.121-4.2Zm2.258.16A3.16,3.16,0,0,0,45.832-2.3a1.5,1.5,0,0,0,1.3.638,1.5,1.5,0,0,0,1.281-.63,3.457,3.457,0,0,0,.461-2.015A3.128,3.128,0,0,0,48.41-6.14a1.5,1.5,0,0,0-1.3-.649,1.474,1.474,0,0,0-1.281.646A3.516,3.516,0,0,0,45.379-4.144ZM57.27-6.336a6.134,6.134,0,0,0-.812-.062,1.654,1.654,0,0,0-1.68.867V0H52.52V-8.453h2.133l.063,1.008A2.092,2.092,0,0,1,56.6-8.609a2.366,2.366,0,0,1,.7.1Z" transform="translate(553.667 14946)" fill="#12263f"/>
    <path id="Trazado_621944" data-name="Trazado 621944" d="M9640.333,3353.733V3244H9680.4" transform="translate(-9219.333 11696)" fill="none" stroke="#12263f" stroke-width="2"/>
  </g>
</svg>
