<svg xmlns="http://www.w3.org/2000/svg" width="118" height="118" viewBox="0 0 118 118">
  <g id="Grupo_878010" data-name="Grupo 878010" transform="translate(-1634.234 -4896.914)">
    <g id="Elipse_6902" data-name="Elipse 6902" transform="translate(1634.234 4896.914)" fill="#fff" stroke="#ffb338" stroke-width="3">
      <circle cx="59" cy="59" r="59" stroke="none"/>
      <circle cx="59" cy="59" r="57.5" fill="none"/>
    </g>
    <g id="_04-Schedule" data-name="04-Schedule" transform="translate(1659.234 4919.739)">
      <rect id="Rectángulo_321101" data-name="Rectángulo 321101" width="55" height="52" rx="4" transform="translate(3 9)" fill="#eee"/>
      <path id="Trazado_609233" data-name="Trazado 609233" d="M57.68,12.557V55.845A4.555,4.555,0,0,1,53.124,60.4H7.557A4.555,4.555,0,0,1,3,55.845V52.428a4.555,4.555,0,0,0,4.557,4.557H47.428a4.555,4.555,0,0,0,4.557-4.557V12.557A4.555,4.555,0,0,0,47.428,8h5.7a4.555,4.555,0,0,1,4.557,4.557Z" transform="translate(0.139 0.835)" fill="#e0e0e0"/>
      <path id="Trazado_609234" data-name="Trazado 609234" d="M57.68,12.557v4.557H3V12.557A4.555,4.555,0,0,1,7.557,8H53.124a4.555,4.555,0,0,1,4.557,4.557Z" transform="translate(0.139 0.835)" fill="#b6e1fd"/>
      <path id="Trazado_609235" data-name="Trazado 609235" d="M52.253,12.557v4.557h-5.7V12.557A4.555,4.555,0,0,0,42,8h5.7a4.555,4.555,0,0,1,4.557,4.557Z" transform="translate(5.567 0.835)" fill="#2b95f9"/>
      <rect id="Rectángulo_321102" data-name="Rectángulo 321102" width="5" height="10" rx="2" transform="translate(12 3)" fill="#eee"/>
      <path id="Trazado_609236" data-name="Trazado 609236" d="M15.557,5.278v5.7a2.278,2.278,0,1,1-4.557,0A2.285,2.285,0,0,0,13.278,8.7V5.278a2.227,2.227,0,0,0-.672-1.606,2.063,2.063,0,0,0-.467-.365A2.272,2.272,0,0,1,13.278,3a2.3,2.3,0,0,1,2.278,2.278Z" transform="translate(1.253 0.139)" fill="#e0e0e0"/>
      <rect id="Rectángulo_321103" data-name="Rectángulo 321103" width="5" height="10" rx="2" transform="translate(28 3)" fill="#eee"/>
      <rect id="Rectángulo_321104" data-name="Rectángulo 321104" width="5" height="10" rx="2" transform="translate(44 3)" fill="#eee"/>
      <path id="Trazado_609237" data-name="Trazado 609237" d="M19,22h6.835v6.835H19Z" transform="translate(2.366 2.784)" fill="#ffb74d"/>
      <path id="Trazado_609238" data-name="Trazado 609238" d="M29,22h6.835v6.835H29Z" transform="translate(3.758 2.784)" fill="#ffb74d"/>
      <path id="Trazado_609239" data-name="Trazado 609239" d="M29,32h6.835v6.835H29Z" transform="translate(3.758 4.175)" fill="#ffb74d"/>
      <path id="Trazado_609240" data-name="Trazado 609240" d="M39,22h6.835v6.835H39Z" transform="translate(5.15 2.784)" fill="#ffb74d"/>
      <path id="Trazado_609241" data-name="Trazado 609241" d="M9,32h6.835v6.835H9Z" transform="translate(0.974 4.175)" fill="#ffb74d"/>
      <path id="Trazado_609242" data-name="Trazado 609242" d="M15.835,32v6.835H9V36.557h2.278a2.285,2.285,0,0,0,2.278-2.278V32Z" transform="translate(0.974 4.175)" fill="#ffa726"/>
      <path id="Trazado_609243" data-name="Trazado 609243" d="M19,32h6.835v6.835H19Z" transform="translate(2.366 4.175)" fill="#ffb74d"/>
      <path id="Trazado_609244" data-name="Trazado 609244" d="M35.835,32v6.835H29V36.557h2.278a2.285,2.285,0,0,0,2.278-2.278V32Z" transform="translate(3.758 4.175)" fill="#ffa726"/>
      <path id="Trazado_609245" data-name="Trazado 609245" d="M9,42h6.835v6.835H9Z" transform="translate(0.974 5.567)" fill="#ffb74d"/>
      <path id="Trazado_609246" data-name="Trazado 609246" d="M19,42h6.835v6.835H19Z" transform="translate(2.366 5.567)" fill="#ffb74d"/>
      <circle id="Elipse_6903" data-name="Elipse 6903" cx="18" cy="18" r="18" transform="translate(33 33)" fill="#2b95f9"/>
      <circle id="Elipse_6904" data-name="Elipse 6904" cx="14" cy="14" r="14" transform="translate(37 37)" fill="#eee"/>
      <path id="Trazado_609247" data-name="Trazado 609247" d="M59.853,46.6A13.678,13.678,0,0,1,36.5,56.258a13.5,13.5,0,0,0,3.987.592A13.678,13.678,0,0,0,50.17,33.52,13.676,13.676,0,0,1,59.853,46.6Z" transform="translate(4.802 4.387)" fill="#e0e0e0"/>
      <g id="Grupo_870583" data-name="Grupo 870583" transform="translate(9.974 24.784)">
        <path id="Trazado_609248" data-name="Trazado 609248" d="M25.835,32v6.835H19V36.557h2.278a2.285,2.285,0,0,0,2.278-2.278V32Z" transform="translate(-7.608 -20.608)" fill="#ffa726"/>
        <path id="Trazado_609249" data-name="Trazado 609249" d="M25.835,22v6.835H19V26.557h2.278a2.285,2.285,0,0,0,2.278-2.278V22Z" transform="translate(-7.608 -22)" fill="#ffa726"/>
        <path id="Trazado_609250" data-name="Trazado 609250" d="M35.835,22v6.835H29V26.557h2.278a2.285,2.285,0,0,0,2.278-2.278V22Z" transform="translate(-6.216 -22)" fill="#ffa726"/>
        <path id="Trazado_609251" data-name="Trazado 609251" d="M45.835,22v6.835H39V26.557h2.278a2.285,2.285,0,0,0,2.278-2.278V22Z" transform="translate(-4.825 -22)" fill="#ffa726"/>
        <path id="Trazado_609252" data-name="Trazado 609252" d="M15.835,42v6.835H9V46.557h2.278a2.285,2.285,0,0,0,2.278-2.278V42Z" transform="translate(-9 -19.216)" fill="#ffa726"/>
        <path id="Trazado_609253" data-name="Trazado 609253" d="M25.835,42v6.835H19V46.557h2.278a2.285,2.285,0,0,0,2.278-2.278V42Z" transform="translate(-7.608 -19.216)" fill="#ffa726"/>
      </g>
      <path id="Trazado_609254" data-name="Trazado 609254" d="M29.557,5.278v5.7a2.278,2.278,0,1,1-4.557,0A2.285,2.285,0,0,0,27.278,8.7V5.278a2.227,2.227,0,0,0-.672-1.606,2.063,2.063,0,0,0-.467-.365A2.272,2.272,0,0,1,27.278,3a2.3,2.3,0,0,1,2.278,2.278Z" transform="translate(3.201 0.139)" fill="#e0e0e0"/>
      <path id="Trazado_609255" data-name="Trazado 609255" d="M43.557,5.278v5.7a2.278,2.278,0,1,1-4.557,0A2.285,2.285,0,0,0,41.278,8.7V5.278a2.227,2.227,0,0,0-.672-1.606,2.063,2.063,0,0,0-.467-.365A2.272,2.272,0,0,1,41.278,3a2.3,2.3,0,0,1,2.278,2.278Z" transform="translate(5.15 0.139)" fill="#e0e0e0"/>
      <path id="Trazado_609256" data-name="Trazado 609256" d="M29.34,24.784A1.139,1.139,0,0,0,28.2,23.644H21.366a1.139,1.139,0,0,0-1.139,1.139v6.835a1.139,1.139,0,0,0,1.139,1.139H28.2a1.139,1.139,0,0,0,1.139-1.139Zm-2.278,5.7H22.505V25.923h4.557Zm5.7-6.835a1.139,1.139,0,0,0-1.139,1.139v6.835a1.139,1.139,0,0,0,1.139,1.139h6.835a1.139,1.139,0,0,0,1.139-1.139V24.784a1.139,1.139,0,0,0-1.139-1.139Zm5.7,6.835H33.9V25.923h4.557Zm-20.505,5.7a1.139,1.139,0,0,0-1.139-1.139H9.974a1.139,1.139,0,0,0-1.139,1.139V43.01A1.139,1.139,0,0,0,9.974,44.15h6.835a1.139,1.139,0,0,0,1.139-1.139Zm-2.278,5.7H11.113V37.314H15.67Zm13.67-5.7A1.139,1.139,0,0,0,28.2,35.036H21.366a1.139,1.139,0,0,0-1.139,1.139V43.01a1.139,1.139,0,0,0,1.139,1.139H28.2A1.139,1.139,0,0,0,29.34,43.01Zm-2.278,5.7H22.505V37.314h4.557ZM16.809,46.428H9.974a1.139,1.139,0,0,0-1.139,1.139V54.4a1.139,1.139,0,0,0,1.139,1.139h6.835A1.139,1.139,0,0,0,17.948,54.4V47.567a1.139,1.139,0,0,0-1.139-1.139ZM15.67,53.263H11.113V48.706H15.67ZM28.2,46.428H21.366a1.139,1.139,0,0,0-1.139,1.139V54.4a1.139,1.139,0,0,0,1.139,1.139H28.2A1.139,1.139,0,0,0,29.34,54.4V47.567A1.139,1.139,0,0,0,28.2,46.428Zm-1.139,6.835H22.505V48.706h4.557ZM50.985,31.619A19.366,19.366,0,1,0,70.351,50.985,19.366,19.366,0,0,0,50.985,31.619Zm0,36.454A17.088,17.088,0,1,1,68.072,50.985,17.088,17.088,0,0,1,50.985,68.072ZM30.479,60.1H7.7A3.421,3.421,0,0,1,4.278,56.68V19.088h52.4V29.34a1.139,1.139,0,0,0,2.278,0V13.392a5.7,5.7,0,0,0-5.7-5.7H49.845V5.418a3.418,3.418,0,1,0-6.835,0V7.7H33.9V5.418a3.418,3.418,0,1,0-6.835,0V7.7H17.948V5.418a3.418,3.418,0,1,0-6.835,0V7.7H7.7a5.7,5.7,0,0,0-5.7,5.7V56.68a5.7,5.7,0,0,0,5.7,5.7H30.479a1.139,1.139,0,1,0,0-2.278ZM45.289,5.418a1.139,1.139,0,0,1,2.278,0v5.7a1.139,1.139,0,0,1-2.278,0Zm-15.948,0a1.139,1.139,0,1,1,2.278,0v5.7a1.139,1.139,0,1,1-2.278,0Zm-15.948,0a1.139,1.139,0,0,1,2.278,0v5.7a1.139,1.139,0,1,1-2.278,0ZM7.7,9.974h3.418v1.139a3.418,3.418,0,1,0,6.835,0V9.974h9.113v1.139a3.418,3.418,0,1,0,6.835,0V9.974H43.01v1.139a3.418,3.418,0,1,0,6.835,0V9.974h3.418a3.421,3.421,0,0,1,3.418,3.418v3.418H4.278V13.392A3.421,3.421,0,0,1,7.7,9.974ZM49.845,28.2V25.923H45.289v3.325a1.139,1.139,0,0,1-2.278,0V24.784a1.139,1.139,0,0,1,1.139-1.139h6.835a1.139,1.139,0,0,1,1.139,1.139V28.2a1.139,1.139,0,1,1-2.278,0Zm1.139,7.974A14.809,14.809,0,1,0,65.794,50.985,14.809,14.809,0,0,0,50.985,36.175Zm1.139,27.282V61.237a1.139,1.139,0,0,0-2.278,0v2.221A12.544,12.544,0,0,1,38.511,52.124h2.221a1.139,1.139,0,0,0,0-2.278H38.511A12.544,12.544,0,0,1,49.845,38.511v2.221a1.139,1.139,0,0,0,2.278,0V38.511A12.544,12.544,0,0,1,63.458,49.845H61.237a1.139,1.139,0,0,0,0,2.278h2.221A12.544,12.544,0,0,1,52.124,63.458ZM55.208,53.6A1.139,1.139,0,1,1,53.6,55.208L50.179,51.79a1.139,1.139,0,0,1-.334-.805v-5.7a1.139,1.139,0,0,1,2.278,0v5.224Z"/>
    </g>
  </g>
</svg>
