<svg xmlns="http://www.w3.org/2000/svg" width="819.257" height="521.418" viewBox="0 0 819.257 521.418">
  <g id="Grupo_1034305" data-name="Grupo 1034305" transform="translate(-13612 -3422.582)">
    <path id="Trazado_624805" data-name="Trazado 624805" d="M1.577,0H333.542a1.577,1.577,0,0,1,1.577,1.577v401.7a1.577,1.577,0,0,1-1.577,1.577H1.577A1.577,1.577,0,0,1,0,403.276V1.577A1.577,1.577,0,0,1,1.577,0Z" transform="translate(14016.853 3422.582) rotate(90)" fill="#e6e6e6"/>
    <path id="Trazado_624806" data-name="Trazado 624806" d="M0,0H403.071V306.949H0Z" transform="translate(13612.891 3440.788)" fill="#fff"/>
    <g id="Grupo_879116" data-name="Grupo 879116" transform="translate(13666.555 3427.08)">
      <rect id="Rectángulo_327659" data-name="Rectángulo 327659" width="305.448" height="9.798" rx="0.596" transform="translate(0.213 0.214)" fill="#fff"/>
      <path id="Trazado_621891" data-name="Trazado 621891" d="M278.253,896.343H-25.488a1.068,1.068,0,0,1-1.067-1.067v-8.092a1.068,1.068,0,0,1,1.067-1.067H278.253a1.069,1.069,0,0,1,1.067,1.067v8.092A1.069,1.069,0,0,1,278.253,896.343Zm-303.741-9.8a.64.64,0,0,0-.641.639v8.092a.64.64,0,0,0,.641.639H278.253a.64.64,0,0,0,.641-.639v-8.092a.64.64,0,0,0-.641-.639Z" transform="translate(26.555 -886.117)" fill="#ccc"/>
    </g>
    <g id="Grupo_879123" data-name="Grupo 879123" transform="translate(13621.063 3429.969)">
      <g id="Grupo_879117" data-name="Grupo 879117" transform="translate(1.337 1.364)">
        <path id="Trazado_621892" data-name="Trazado 621892" d="M-52.644,889.558h0Z" transform="translate(57.423 -888.889)" fill="#fff"/>
        <rect id="Rectángulo_327660" data-name="Rectángulo 327660" width="4.779" height="1.337" fill="#b3b3b3"/>
      </g>
      <g id="Grupo_879122" data-name="Grupo 879122">
        <g id="Grupo_879119" data-name="Grupo 879119" transform="translate(1.927 1.255)">
          <g id="Grupo_879118" data-name="Grupo 879118">
            <rect id="Rectángulo_327661" data-name="Rectángulo 327661" width="3.52" height="0.219" transform="translate(0.669 0.668)" fill="#0a92cf"/>
            <rect id="Rectángulo_327662" data-name="Rectángulo 327662" width="4.857" height="1.556" fill="#b3b3b3"/>
          </g>
        </g>
        <g id="Grupo_879121" data-name="Grupo 879121">
          <g id="Grupo_879120" data-name="Grupo 879120">
            <path id="Trazado_621893" data-name="Trazado 621893" d="M-55.908,888.946l-1.515.875,1.515.875Z" transform="translate(58.76 -887.788)" fill="#0a92cf"/>
            <path id="Trazado_621894" data-name="Trazado 621894" d="M-54.837,892.2l-3.52-2.033,3.52-2.033Z" transform="translate(58.357 -888.137)" fill="#b3b3b3"/>
          </g>
        </g>
      </g>
    </g>
    <g id="Grupo_879130" data-name="Grupo 879130" transform="translate(13632.496 3429.969)">
      <g id="Grupo_879124" data-name="Grupo 879124" transform="translate(0.668 1.364)">
        <path id="Trazado_621895" data-name="Trazado 621895" d="M-49.9,889.558h0Z" transform="translate(49.898 -888.889)" fill="#fff"/>
        <rect id="Rectángulo_327663" data-name="Rectángulo 327663" width="4.779" height="1.337" fill="#b3b3b3"/>
      </g>
      <g id="Grupo_879129" data-name="Grupo 879129">
        <g id="Grupo_879126" data-name="Grupo 879126" transform="translate(0 1.255)">
          <g id="Grupo_879125" data-name="Grupo 879125">
            <rect id="Rectángulo_327664" data-name="Rectángulo 327664" width="3.52" height="0.219" transform="translate(0.668 0.668)" fill="#0a92cf"/>
            <rect id="Rectángulo_327665" data-name="Rectángulo 327665" width="4.857" height="1.556" fill="#b3b3b3"/>
          </g>
        </g>
        <g id="Grupo_879128" data-name="Grupo 879128" transform="translate(3.264)">
          <g id="Grupo_879127" data-name="Grupo 879127">
            <path id="Trazado_621896" data-name="Trazado 621896" d="M-47.616,888.946l1.515.875-1.515.875Z" transform="translate(48.285 -887.788)" fill="#0a92cf"/>
            <path id="Trazado_621897" data-name="Trazado 621897" d="M-48.084,892.2v-4.065l3.52,2.033Z" transform="translate(48.084 -888.137)" fill="#b3b3b3"/>
          </g>
        </g>
      </g>
    </g>
    <path id="Trazado_624807" data-name="Trazado 624807" d="M0,0H403.071V97.9H0Z" transform="translate(13612.891 3440.788)" fill="#666"/>
    <path id="Trazado_621956" data-name="Trazado 621956" d="M0,0H371.181V115.855H0Z" transform="translate(13628.836 3480.756)" fill="#afafaf"/>
    <path id="Trazado_624808" data-name="Trazado 624808" d="M0,0H110.487V43.542H0Z" transform="translate(13628.836 3613.224)" fill="#666"/>
    <path id="Trazado_624809" data-name="Trazado 624809" d="M0,0H36.708V14.521H0Z" transform="translate(13628.836 3718.762)" fill="#e44e00"/>
    <g id="Grupo_879131" data-name="Grupo 879131" transform="translate(13628.836 3666.874)">
      <path id="Trazado_621898" data-name="Trazado 621898" d="M-52.924,1055.014h0Z" transform="translate(52.924 -1053.217)" fill="#fff"/>
      <rect id="Rectángulo_327670" data-name="Rectángulo 327670" width="110.487" height="3.595" transform="translate(0)" fill="#e6e6e6"/>
    </g>
    <g id="Grupo_879132" data-name="Grupo 879132" transform="translate(13628.836 3674.323)">
      <path id="Trazado_621899" data-name="Trazado 621899" d="M-52.924,1060.222h0Z" transform="translate(52.924 -1058.424)" fill="#fff"/>
      <rect id="Rectángulo_327671" data-name="Rectángulo 327671" width="110.487" height="3.595" transform="translate(0)" fill="#e6e6e6"/>
    </g>
    <g id="Grupo_879133" data-name="Grupo 879133" transform="translate(13628.836 3681.772)">
      <path id="Trazado_621900" data-name="Trazado 621900" d="M-52.924,1065.429h0Z" transform="translate(52.924 -1063.632)" fill="#fff"/>
      <rect id="Rectángulo_327672" data-name="Rectángulo 327672" width="110.487" height="3.595" transform="translate(0)" fill="#e6e6e6"/>
    </g>
    <g id="Grupo_879134" data-name="Grupo 879134" transform="translate(13628.836 3689.221)">
      <path id="Trazado_621901" data-name="Trazado 621901" d="M-52.924,1070.637h0Z" transform="translate(52.924 -1068.839)" fill="#fff"/>
      <rect id="Rectángulo_327673" data-name="Rectángulo 327673" width="110.487" height="3.595" transform="translate(0)" fill="#e6e6e6"/>
    </g>
    <g id="Grupo_879135" data-name="Grupo 879135" transform="translate(13628.836 3696.67)">
      <path id="Trazado_621902" data-name="Trazado 621902" d="M-52.924,1075.845h0Z" transform="translate(52.924 -1074.047)" fill="#fff"/>
      <rect id="Rectángulo_327674" data-name="Rectángulo 327674" width="110.487" height="3.595" transform="translate(0)" fill="#e6e6e6"/>
    </g>
    <g id="Grupo_879136" data-name="Grupo 879136" transform="translate(13628.836 3704.119)">
      <path id="Trazado_621903" data-name="Trazado 621903" d="M-52.924,1081.052h0Z" transform="translate(52.924 -1079.255)" fill="#fff"/>
      <rect id="Rectángulo_327675" data-name="Rectángulo 327675" width="110.487" height="3.595" transform="translate(0)" fill="#e6e6e6"/>
    </g>
    <path id="Trazado_624810" data-name="Trazado 624810" d="M0,0H110.487V43.542H0Z" transform="translate(13759.183 3613.224)" fill="#666"/>
    <path id="Trazado_624811" data-name="Trazado 624811" d="M0,0H36.708V14.521H0Z" transform="translate(13759.183 3718.762)" fill="#e44e00"/>
    <g id="Grupo_879137" data-name="Grupo 879137" transform="translate(13759.183 3666.874)">
      <path id="Trazado_621904" data-name="Trazado 621904" d="M38.2,1055.014h0Z" transform="translate(-38.201 -1053.217)" fill="#fff"/>
      <rect id="Rectángulo_327678" data-name="Rectángulo 327678" width="110.487" height="3.595" transform="translate(0)" fill="#e6e6e6"/>
    </g>
    <g id="Grupo_879138" data-name="Grupo 879138" transform="translate(13759.183 3674.323)">
      <path id="Trazado_621905" data-name="Trazado 621905" d="M38.2,1060.222h0Z" transform="translate(-38.201 -1058.424)" fill="#fff"/>
      <rect id="Rectángulo_327679" data-name="Rectángulo 327679" width="110.487" height="3.595" transform="translate(0)" fill="#e6e6e6"/>
    </g>
    <g id="Grupo_879139" data-name="Grupo 879139" transform="translate(13759.183 3681.772)">
      <path id="Trazado_621906" data-name="Trazado 621906" d="M38.2,1065.429h0Z" transform="translate(-38.201 -1063.632)" fill="#fff"/>
      <rect id="Rectángulo_327680" data-name="Rectángulo 327680" width="110.487" height="3.595" transform="translate(0)" fill="#e6e6e6"/>
    </g>
    <g id="Grupo_879140" data-name="Grupo 879140" transform="translate(13759.183 3689.221)">
      <path id="Trazado_621907" data-name="Trazado 621907" d="M38.2,1070.637h0Z" transform="translate(-38.201 -1068.839)" fill="#fff"/>
      <rect id="Rectángulo_327681" data-name="Rectángulo 327681" width="110.487" height="3.595" transform="translate(0)" fill="#e6e6e6"/>
    </g>
    <g id="Grupo_879141" data-name="Grupo 879141" transform="translate(13759.183 3696.67)">
      <path id="Trazado_621908" data-name="Trazado 621908" d="M38.2,1075.845h0Z" transform="translate(-38.201 -1074.047)" fill="#fff"/>
      <rect id="Rectángulo_327682" data-name="Rectángulo 327682" width="110.487" height="3.595" transform="translate(0)" fill="#e6e6e6"/>
    </g>
    <g id="Grupo_879142" data-name="Grupo 879142" transform="translate(13759.183 3704.119)">
      <path id="Trazado_621909" data-name="Trazado 621909" d="M38.2,1081.052h0Z" transform="translate(-38.201 -1079.255)" fill="#fff"/>
      <rect id="Rectángulo_327683" data-name="Rectángulo 327683" width="110.487" height="3.595" transform="translate(0)" fill="#e6e6e6"/>
    </g>
    <path id="Trazado_624812" data-name="Trazado 624812" d="M0,0H110.487V120.058H0Z" transform="translate(13889.529 3613.224)" fill="#666"/>
    <g id="Grupo_879211" data-name="Grupo 879211" transform="translate(13615.759 3381.742)">
      <g id="Grupo_879143" data-name="Grupo 879143" transform="translate(283.6 244.292)">
        <path id="Trazado_621910" data-name="Trazado 621910" d="M129.327,1055.014h0Z" transform="translate(-129.327 -1053.217)" fill="#fff"/>
        <rect id="Rectángulo_327686" data-name="Rectángulo 327686" width="90.829" height="3.595" transform="translate(0.001)" fill="#e6e6e6"/>
      </g>
      <g id="Grupo_879144" data-name="Grupo 879144" transform="translate(283.6 251.741)">
        <path id="Trazado_621911" data-name="Trazado 621911" d="M129.327,1060.222h0Z" transform="translate(-129.327 -1058.424)" fill="#fff"/>
        <rect id="Rectángulo_327687" data-name="Rectángulo 327687" width="90.829" height="3.595" transform="translate(0.001 0)" fill="#e6e6e6"/>
      </g>
      <g id="Grupo_879145" data-name="Grupo 879145" transform="translate(283.6 259.189)">
        <path id="Trazado_621912" data-name="Trazado 621912" d="M129.327,1065.429h0Z" transform="translate(-129.327 -1063.632)" fill="#fff"/>
        <rect id="Rectángulo_327688" data-name="Rectángulo 327688" width="90.829" height="3.595" transform="translate(0.001 0)" fill="#e6e6e6"/>
      </g>
      <g id="Grupo_879146" data-name="Grupo 879146" transform="translate(283.6 266.639)">
        <path id="Trazado_621913" data-name="Trazado 621913" d="M129.327,1070.637h0Z" transform="translate(-129.327 -1068.839)" fill="#fff"/>
        <rect id="Rectángulo_327689" data-name="Rectángulo 327689" width="90.829" height="3.595" transform="translate(0.001 0)" fill="#e6e6e6"/>
      </g>
      <g id="Grupo_879147" data-name="Grupo 879147" transform="translate(283.6 274.088)">
        <path id="Trazado_621914" data-name="Trazado 621914" d="M129.327,1075.845h0Z" transform="translate(-129.327 -1074.047)" fill="#fff"/>
        <rect id="Rectángulo_327690" data-name="Rectángulo 327690" width="90.829" height="3.595" transform="translate(0.001 0)" fill="#e6e6e6"/>
      </g>
      <g id="Grupo_879148" data-name="Grupo 879148" transform="translate(283.6 281.537)">
        <path id="Trazado_621915" data-name="Trazado 621915" d="M129.327,1081.052h0Z" transform="translate(-129.327 -1079.255)" fill="#fff"/>
        <rect id="Rectángulo_327691" data-name="Rectángulo 327691" width="90.829" height="3.595" transform="translate(0.001 0)" fill="#e6e6e6"/>
      </g>
    </g>
    <g id="Grupo_879212" data-name="Grupo 879212" transform="translate(13615.759 3426.064)">
      <g id="Grupo_879143-2" data-name="Grupo 879143" transform="translate(283.6 244.292)">
        <path id="Trazado_621910-2" data-name="Trazado 621910" d="M129.327,1055.014h0Z" transform="translate(-129.327 -1053.217)" fill="#fff"/>
        <rect id="Rectángulo_327686-2" data-name="Rectángulo 327686" width="90.829" height="3.595" transform="translate(0.001)" fill="#e6e6e6"/>
      </g>
      <g id="Grupo_879144-2" data-name="Grupo 879144" transform="translate(283.6 251.741)">
        <path id="Trazado_621911-2" data-name="Trazado 621911" d="M129.327,1060.222h0Z" transform="translate(-129.327 -1058.424)" fill="#fff"/>
        <rect id="Rectángulo_327687-2" data-name="Rectángulo 327687" width="90.829" height="3.595" transform="translate(0.001 0)" fill="#e6e6e6"/>
      </g>
      <g id="Grupo_879145-2" data-name="Grupo 879145" transform="translate(283.6 259.189)">
        <path id="Trazado_621912-2" data-name="Trazado 621912" d="M129.327,1065.429h0Z" transform="translate(-129.327 -1063.632)" fill="#fff"/>
        <rect id="Rectángulo_327688-2" data-name="Rectángulo 327688" width="90.829" height="3.595" transform="translate(0.001 0)" fill="#e6e6e6"/>
      </g>
      <g id="Grupo_879146-2" data-name="Grupo 879146" transform="translate(283.6 266.639)">
        <path id="Trazado_621913-2" data-name="Trazado 621913" d="M129.327,1070.637h0Z" transform="translate(-129.327 -1068.839)" fill="#fff"/>
        <rect id="Rectángulo_327689-2" data-name="Rectángulo 327689" width="90.829" height="3.595" transform="translate(0.001 0)" fill="#e6e6e6"/>
      </g>
      <g id="Grupo_879147-2" data-name="Grupo 879147" transform="translate(283.6 274.088)">
        <path id="Trazado_621914-2" data-name="Trazado 621914" d="M129.327,1075.845h0Z" transform="translate(-129.327 -1074.047)" fill="#fff"/>
        <rect id="Rectángulo_327690-2" data-name="Rectángulo 327690" width="90.829" height="3.595" transform="translate(0.001 0)" fill="#e6e6e6"/>
      </g>
      <g id="Grupo_879148-2" data-name="Grupo 879148" transform="translate(283.6 281.537)">
        <path id="Trazado_621915-2" data-name="Trazado 621915" d="M129.327,1081.052h0Z" transform="translate(-129.327 -1079.255)" fill="#fff"/>
        <rect id="Rectángulo_327691-2" data-name="Rectángulo 327691" width="90.829" height="3.595" transform="translate(0.001 0)" fill="#e6e6e6"/>
      </g>
    </g>
    <g id="Grupo_879149" data-name="Grupo 879149" transform="translate(13642.424 3528.827)">
      <path id="Trazado_621916" data-name="Trazado 621916" d="M-33.567,976.963l-9.857-9.857,9.857-9.857,1.89,1.89-7.967,7.967,7.967,7.967Z" transform="translate(43.425 -957.249)" fill="#fff"/>
    </g>
    <g id="Grupo_879150" data-name="Grupo 879150" transform="translate(13974.682 3528.827)">
      <path id="Trazado_621917" data-name="Trazado 621917" d="M190.747,976.963l-1.89-1.89,7.967-7.967-7.967-7.967,1.89-1.89,9.857,9.857Z" transform="translate(-188.857 -957.249)" fill="#fff"/>
    </g>
    <path id="Trazado_621918" data-name="Trazado 621918" d="M75.085,994.365a2.673,2.673,0,1,1-2.673-2.673A2.673,2.673,0,0,1,75.085,994.365Z" transform="translate(13734.555 2586.403)" fill="#b3b3b3"/>
    <path id="Trazado_621919" data-name="Trazado 621919" d="M80.3,994.365a2.674,2.674,0,1,1-2.673-2.673A2.674,2.674,0,0,1,80.3,994.365Z" transform="translate(13736.799 2586.403)" fill="#e6e6e6"/>
    <path id="Trazado_621920" data-name="Trazado 621920" d="M85.516,994.365a2.673,2.673,0,1,1-2.673-2.673A2.674,2.674,0,0,1,85.516,994.365Z" transform="translate(13739.044 2586.403)" fill="#e6e6e6"/>
    <path id="Trazado_624813" data-name="Trazado 624813" d="M2.228,0A2.228,2.228,0,1,1,0,2.228,2.228,2.228,0,0,1,2.228,0Z" transform="translate(14005.27 3429.965)" fill="red"/>
    <path id="Trazado_621921" data-name="Trazado 621921" d="M209.468,890.363a2.228,2.228,0,1,1-2.229-2.229A2.228,2.228,0,0,1,209.468,890.363Z" transform="translate(13792.777 2541.831)" fill="#b3b3b3"/>
    <path id="Trazado_624814" data-name="Trazado 624814" d="M2.228,0A2.228,2.228,0,1,1,0,2.228,2.228,2.228,0,0,1,2.228,0Z" transform="translate(13990.308 3429.965)" fill="#b3b3b3"/>
    <path id="Trazado_621922" data-name="Trazado 621922" d="M-35.27,890.876l.443-2.974-.953.376a3.877,3.877,0,0,0-2.919-1.336,3.939,3.939,0,0,0-3.934,3.934,3.938,3.938,0,0,0,3.934,3.932,3.94,3.94,0,0,0,2.772-1.16l-.757-.734,0,.089a2.9,2.9,0,0,1-2.011.8,2.93,2.93,0,0,1-2.928-2.927,2.931,2.931,0,0,1,2.928-2.928,2.876,2.876,0,0,1,1.9.731l-.828.328Z" transform="translate(13686.189 2541.318)" fill="#b3b3b3"/>
    <path id="Trazado_621923" data-name="Trazado 621923" d="M-31.156,887.863l2.842,2.842h-1.277v3.127H-32.72v-3.127H-34l2.841-2.842Zm0-.857a.853.853,0,0,0-.605.25L-34.6,890.1a.859.859,0,0,0-.186.934.859.859,0,0,0,.792.529h.421v2.27a.856.856,0,0,0,.857.857h3.128a.856.856,0,0,0,.857-.857v-2.27h.421a.859.859,0,0,0,.792-.529.859.859,0,0,0-.186-.934l-2.842-2.842a.854.854,0,0,0-.606-.25Z" transform="translate(13689.537 2541.345)" fill="#b3b3b3"/>
    <path id="Trazado_624815" data-name="Trazado 624815" d="M1.577,0H333.541a1.577,1.577,0,0,1,1.577,1.577v401.7a1.577,1.577,0,0,1-1.577,1.577H1.577A1.577,1.577,0,0,1,0,403.275V1.577A1.577,1.577,0,0,1,1.577,0Z" transform="translate(14431.257 3422.582) rotate(90)" fill="#e6e6e6"/>
    <path id="Trazado_624816" data-name="Trazado 624816" d="M0,0H403.07V306.949H0Z" transform="translate(14027.296 3440.788)" fill="#fff"/>
    <g id="Grupo_879152" data-name="Grupo 879152" transform="translate(14080.959 3427.081)">
      <rect id="Rectángulo_327694" data-name="Rectángulo 327694" width="305.448" height="9.798" rx="0.596" transform="translate(0.213 0.213)" fill="#fff"/>
      <path id="Trazado_621924" data-name="Trazado 621924" d="M567.964,896.343H264.222a1.067,1.067,0,0,1-1.066-1.067v-8.092a1.066,1.066,0,0,1,1.066-1.066H567.964a1.067,1.067,0,0,1,1.066,1.066v8.092A1.067,1.067,0,0,1,567.964,896.343Zm-303.743-9.8a.64.64,0,0,0-.639.639v8.092a.64.64,0,0,0,.639.641H567.964a.641.641,0,0,0,.64-.641v-8.092a.641.641,0,0,0-.64-.639Z" transform="translate(-263.156 -886.118)" fill="#ccc"/>
    </g>
    <g id="Grupo_879159" data-name="Grupo 879159" transform="translate(14035.468 3429.969)">
      <g id="Grupo_879153" data-name="Grupo 879153" transform="translate(1.337 1.364)">
        <path id="Trazado_621925" data-name="Trazado 621925" d="M237.066,889.558h0Z" transform="translate(-232.287 -888.889)" fill="#fff"/>
        <rect id="Rectángulo_327695" data-name="Rectángulo 327695" width="4.779" height="1.337" fill="#b3b3b3"/>
      </g>
      <g id="Grupo_879158" data-name="Grupo 879158">
        <g id="Grupo_879155" data-name="Grupo 879155" transform="translate(1.927 1.254)">
          <g id="Grupo_879154" data-name="Grupo 879154">
            <rect id="Rectángulo_327696" data-name="Rectángulo 327696" width="3.52" height="0.219" transform="translate(0.669 0.668)" fill="#0a92cf"/>
            <rect id="Rectángulo_327697" data-name="Rectángulo 327697" width="4.857" height="1.556" fill="#b3b3b3"/>
          </g>
        </g>
        <g id="Grupo_879157" data-name="Grupo 879157">
          <g id="Grupo_879156" data-name="Grupo 879156">
            <path id="Trazado_621926" data-name="Trazado 621926" d="M233.8,888.946l-1.515.875,1.515.875Z" transform="translate(-230.951 -887.789)" fill="#0a92cf"/>
            <path id="Trazado_621927" data-name="Trazado 621927" d="M234.873,892.2l-3.52-2.032,3.52-2.032Z" transform="translate(-231.353 -888.137)" fill="#b3b3b3"/>
          </g>
        </g>
      </g>
    </g>
    <g id="Grupo_879166" data-name="Grupo 879166" transform="translate(14046.9 3429.969)">
      <g id="Grupo_879160" data-name="Grupo 879160" transform="translate(0.668 1.364)">
        <path id="Trazado_621928" data-name="Trazado 621928" d="M239.813,889.558h0Z" transform="translate(-239.812 -888.889)" fill="#fff"/>
        <rect id="Rectángulo_327698" data-name="Rectángulo 327698" width="4.779" height="1.337" fill="#b3b3b3"/>
      </g>
      <g id="Grupo_879165" data-name="Grupo 879165">
        <g id="Grupo_879162" data-name="Grupo 879162" transform="translate(0 1.254)">
          <g id="Grupo_879161" data-name="Grupo 879161">
            <rect id="Rectángulo_327699" data-name="Rectángulo 327699" width="3.52" height="0.219" transform="translate(0.668 0.668)" fill="#0a92cf"/>
            <rect id="Rectángulo_327700" data-name="Rectángulo 327700" width="4.856" height="1.556" fill="#b3b3b3"/>
          </g>
        </g>
        <g id="Grupo_879164" data-name="Grupo 879164" transform="translate(3.264)">
          <g id="Grupo_879163" data-name="Grupo 879163">
            <path id="Trazado_621929" data-name="Trazado 621929" d="M242.094,888.946l1.515.875-1.515.875Z" transform="translate(-241.426 -887.789)" fill="#0a92cf"/>
            <path id="Trazado_621930" data-name="Trazado 621930" d="M241.627,892.2v-4.064l3.521,2.032Z" transform="translate(-241.627 -888.137)" fill="#b3b3b3"/>
          </g>
        </g>
      </g>
    </g>
    <path id="Trazado_624817" data-name="Trazado 624817" d="M2.228,0A2.228,2.228,0,1,1,0,2.228,2.228,2.228,0,0,1,2.228,0Z" transform="translate(14419.674 3429.965)" fill="red"/>
    <path id="Trazado_624818" data-name="Trazado 624818" d="M2.228,0A2.228,2.228,0,1,1,0,2.228,2.228,2.228,0,0,1,2.228,0Z" transform="translate(14412.192 3429.965)" fill="#b3b3b3"/>
    <path id="Trazado_621931" data-name="Trazado 621931" d="M493.948,890.363a2.228,2.228,0,1,1-2.227-2.229A2.227,2.227,0,0,1,493.948,890.363Z" transform="translate(13915.22 2541.831)" fill="#b3b3b3"/>
    <g id="Grupo_879169" data-name="Grupo 879169" transform="translate(14057.963 3428.26)">
      <g id="Grupo_879167" data-name="Grupo 879167">
        <path id="Trazado_621932" data-name="Trazado 621932" d="M251.011,894.808a3.933,3.933,0,1,1,3.147-6.291l.11.147-.262,4.766-.126.135A3.95,3.95,0,0,1,251.011,894.808Zm0-6.86a2.927,2.927,0,1,0,0,5.855,2.9,2.9,0,0,0,2.013-.8l.22-4.021A2.9,2.9,0,0,0,251.011,887.948Zm2.5,5.272h0Z" transform="translate(-247.079 -886.942)" fill="#b3b3b3"/>
      </g>
      <g id="Grupo_879168" data-name="Grupo 879168" transform="translate(5.008 0.96)">
        <path id="Trazado_621933" data-name="Trazado 621933" d="M250.58,888.717l2.354,1.87.442-2.973Z" transform="translate(-250.58 -887.613)" fill="#b3b3b3"/>
      </g>
    </g>
    <path id="Trazado_621934" data-name="Trazado 621934" d="M258.555,887.863l2.842,2.842h-1.279v3.127h-3.127v-3.127h-1.279l2.842-2.842Zm0-.857a.858.858,0,0,0-.607.252l-2.841,2.841a.857.857,0,0,0,.605,1.463h.422v2.27a.857.857,0,0,0,.857.857h3.127a.856.856,0,0,0,.857-.857v-2.27h.422A.857.857,0,0,0,262,890.1l-2.841-2.841a.858.858,0,0,0-.607-.252Z" transform="translate(13814.23 2541.345)" fill="#b3b3b3"/>
    <path id="Trazado_624819" data-name="Trazado 624819" d="M0,0H240.834V67.717H0Z" transform="translate(14043.24 3453.156)" fill="#666"/>
    <path id="Trazado_624820" data-name="Trazado 624820" d="M0,0H112.936V199.458H0Z" transform="translate(14299.257 3475.011)" fill="#999"/>
    <path id="Trazado_624821" data-name="Trazado 624821" d="M0,0H120.417V11.546H0Z" transform="translate(14043.24 3529.529)" fill="#999"/>
    <path id="Trazado_624822" data-name="Trazado 624822" d="M0,0H13.524V11.546H0Z" transform="translate(14270.55 3529.529)" fill="#999"/>
    <path id="Trazado_624823" data-name="Trazado 624823" d="M0,0H13.524V11.546H0Z" transform="translate(14254.9 3529.529)" fill="#999"/>
    <g id="Grupo_879170" data-name="Grupo 879170" transform="translate(14088.97 3715.149)">
      <rect id="Rectángulo_327706" data-name="Rectángulo 327706" width="33.814" height="11.546" transform="translate(0.223 0.223)" fill="#fff"/>
      <path id="Trazado_621935" data-name="Trazado 621935" d="M303.016,1099.5h-34.26v-11.993h34.26Zm-33.813-.446h33.367v-11.1H269.2Z" transform="translate(-268.756 -1087.507)" fill="#ccc"/>
    </g>
    <g id="Grupo_879171" data-name="Grupo 879171" transform="translate(14127.543 3715.149)">
      <rect id="Rectángulo_327707" data-name="Rectángulo 327707" width="33.814" height="11.546" transform="translate(0.223 0.223)" fill="#fff"/>
      <path id="Trazado_621936" data-name="Trazado 621936" d="M329.983,1099.5h-34.26v-11.993h34.26Zm-33.813-.446h33.368v-11.1H296.169Z" transform="translate(-295.723 -1087.507)" fill="#ccc"/>
    </g>
    <g id="Grupo_879172" data-name="Grupo 879172" transform="translate(14088.97 3596.983)">
      <rect id="Rectángulo_327708" data-name="Rectángulo 327708" width="33.814" height="11.546" transform="translate(0.223 0.223)" fill="#fff"/>
      <path id="Trazado_621937" data-name="Trazado 621937" d="M303.016,1016.888h-34.26V1004.9h34.26Zm-33.813-.445h33.367v-11.1H269.2Z" transform="translate(-268.756 -1004.897)" fill="#ccc"/>
    </g>
    <g id="Grupo_879173" data-name="Grupo 879173" transform="translate(14127.543 3596.983)">
      <rect id="Rectángulo_327709" data-name="Rectángulo 327709" width="33.814" height="11.546" transform="translate(0.223 0.223)" fill="#fff"/>
      <path id="Trazado_621938" data-name="Trazado 621938" d="M329.983,1016.888h-34.26V1004.9h34.26Zm-33.813-.445h33.368v-11.1H296.169Z" transform="translate(-295.723 -1004.897)" fill="#ccc"/>
    </g>
    <g id="Grupo_879174" data-name="Grupo 879174" transform="translate(14339.36 3452.933)">
      <rect id="Rectángulo_327710" data-name="Rectángulo 327710" width="72.609" height="10.928" rx="1.558" transform="translate(0.223 0.223)" fill="#fff"/>
      <path id="Trazado_621939" data-name="Trazado 621939" d="M514.408,915.564H446.255a2.452,2.452,0,0,1-2.45-2.45v-6.473a2.452,2.452,0,0,1,2.45-2.45h68.153a2.453,2.453,0,0,1,2.452,2.45v6.473A2.453,2.453,0,0,1,514.408,915.564Zm-68.153-10.927a2.007,2.007,0,0,0-2.005,2v6.473a2.007,2.007,0,0,0,2.005,2h68.153a2.007,2.007,0,0,0,2.005-2v-6.473a2.007,2.007,0,0,0-2.005-2Z" transform="translate(-443.805 -904.191)" fill="#ccc"/>
    </g>
    <path id="Trazado_624824" data-name="Trazado 624824" d="M0,0H34.585V10.928H0Z" transform="translate(14299.784 3453.156)" fill="#c6c6c6"/>
    <g id="Grupo_879175" data-name="Grupo 879175" transform="translate(14044.539 3549.732)">
      <rect id="Rectángulo_327712" data-name="Rectángulo 327712" width="34.037" height="34.037" fill="#c6c6c6"/>
    </g>
    <g id="Grupo_879176" data-name="Grupo 879176" transform="translate(14299.5 3681.883)">
      <rect id="Rectángulo_327714" data-name="Rectángulo 327714" width="33.264" height="35.645" fill="#c6c6c6"/>
      <rect id="Rectángulo_327715" data-name="Rectángulo 327715" width="33.264" height="35.645" transform="translate(39.836)" fill="#c6c6c6"/>
      <rect id="Rectángulo_327716" data-name="Rectángulo 327716" width="33.264" height="35.645" transform="translate(79.672)" fill="#c6c6c6"/>
    </g>
    <g id="Grupo_879177" data-name="Grupo 879177" transform="translate(14089.192 3549.838)">
      <rect id="Rectángulo_327717" data-name="Rectángulo 327717" width="194.881" height="4.584" fill="#e6e6e6"/>
    </g>
    <g id="Grupo_879178" data-name="Grupo 879178" transform="translate(14089.192 3557.287)">
      <rect id="Rectángulo_327718" data-name="Rectángulo 327718" width="194.881" height="4.584" fill="#e6e6e6"/>
    </g>
    <g id="Grupo_879179" data-name="Grupo 879179" transform="translate(14089.192 3564.736)">
      <rect id="Rectángulo_327719" data-name="Rectángulo 327719" width="194.881" height="4.584" fill="#e6e6e6"/>
    </g>
    <g id="Grupo_879180" data-name="Grupo 879180" transform="translate(14089.192 3572.185)">
      <rect id="Rectángulo_327720" data-name="Rectángulo 327720" width="194.881" height="4.584" fill="#e6e6e6"/>
    </g>
    <g id="Grupo_879181" data-name="Grupo 879181" transform="translate(14089.192 3579.635)">
      <rect id="Rectángulo_327721" data-name="Rectángulo 327721" width="194.882" height="4.584" fill="#e6e6e6"/>
    </g>
    <g id="Grupo_879182" data-name="Grupo 879182" transform="translate(14089.192 3587.083)">
      <rect id="Rectángulo_327722" data-name="Rectángulo 327722" width="72.388" height="4.584" fill="#e6e6e6"/>
    </g>
    <g id="Grupo_879183" data-name="Grupo 879183" transform="translate(14044.538 3587.083)">
      <rect id="Rectángulo_327723" data-name="Rectángulo 327723" width="34.037" height="4.584" fill="#e6e6e6"/>
    </g>
    <g id="Grupo_879184" data-name="Grupo 879184" transform="translate(14044.538 3594.914)">
      <rect id="Rectángulo_327724" data-name="Rectángulo 327724" width="18.433" height="4.584" fill="#e6e6e6"/>
    </g>
    <g id="Grupo_879185" data-name="Grupo 879185" transform="translate(14044.538 3720.711)">
      <rect id="Rectángulo_327725" data-name="Rectángulo 327725" width="34.037" height="4.584" fill="#e6e6e6"/>
    </g>
    <g id="Grupo_879186" data-name="Grupo 879186" transform="translate(14044.538 3728.542)">
      <rect id="Rectángulo_327726" data-name="Rectángulo 327726" width="18.433" height="4.584" fill="#e6e6e6"/>
    </g>
    <g id="Grupo_879189" data-name="Grupo 879189" transform="translate(14044.539 3682.687)">
      <rect id="Rectángulo_327729" data-name="Rectángulo 327729" width="34.037" height="34.037" fill="#c6c6c6"/>
    </g>
    <g id="Grupo_879190" data-name="Grupo 879190" transform="translate(14089.192 3682.794)">
      <rect id="Rectángulo_327730" data-name="Rectángulo 327730" width="194.881" height="4.584" fill="#e6e6e6"/>
    </g>
    <g id="Grupo_879191" data-name="Grupo 879191" transform="translate(14089.192 3690.242)">
      <rect id="Rectángulo_327731" data-name="Rectángulo 327731" width="194.881" height="4.584" fill="#e6e6e6"/>
    </g>
    <g id="Grupo_879192" data-name="Grupo 879192" transform="translate(14089.192 3697.692)">
      <rect id="Rectángulo_327732" data-name="Rectángulo 327732" width="194.881" height="4.584" fill="#e6e6e6"/>
    </g>
    <g id="Grupo_879193" data-name="Grupo 879193" transform="translate(14089.192 3705.14)">
      <rect id="Rectángulo_327733" data-name="Rectángulo 327733" width="194.881" height="4.584" fill="#e6e6e6"/>
    </g>
    <path id="Trazado_621941" data-name="Trazado 621941" d="M265.694,1003.141v-4.051a4.053,4.053,0,0,0-2.837-3.871l-6.57-2.115v-1.888a9.2,9.2,0,1,0-5.9,0V993.1l-6.57,2.115a3.948,3.948,0,0,0-2.206,1.667,3.756,3.756,0,0,0-.675,2.2v4.051h24.755Z" transform="translate(13808.241 2578.507)" fill="#999"/>
    <path id="Trazado_621942" data-name="Trazado 621942" d="M265.694,1096.09v-4.051a4.052,4.052,0,0,0-2.837-3.871l-6.57-2.116v-1.888a9.2,9.2,0,1,0-5.9,0v1.888l-6.57,2.116a3.947,3.947,0,0,0-2.206,1.666,3.757,3.757,0,0,0-.675,2.2v4.051h24.755Z" transform="translate(13808.241 2618.513)" fill="#999"/>
    <g id="Grupo_879207" data-name="Grupo 879207" transform="translate(14100.259 3648.034)">
      <rect id="Rectángulo_327730-2" data-name="Rectángulo 327730" width="121.074" height="4.584" fill="#e6e6e6"/>
    </g>
    <path id="Trazado_621940" data-name="Trazado 621940" d="M504.42,1020.408H268.912v83.378H496.778v-70.8Z" transform="translate(13775.627 2563.811)" fill="#666"/>
    <g id="Grupo_879206" data-name="Grupo 879206" transform="translate(14061.301 3607.883)">
      <rect id="Rectángulo_327730-3" data-name="Rectángulo 327730" width="183.387" height="6.943" fill="#e6e6e6"/>
    </g>
    <g id="Grupo_879208" data-name="Grupo 879208" transform="translate(14061.301 3627.937)">
      <rect id="Rectángulo_327730-4" data-name="Rectángulo 327730" width="183.387" height="6.943" fill="#e6e6e6"/>
    </g>
    <g id="Grupo_879209" data-name="Grupo 879209" transform="translate(14061.301 3648.153)">
      <rect id="Rectángulo_327730-5" data-name="Rectángulo 327730" width="183.387" height="6.943" transform="translate(0 0)" fill="#e6e6e6"/>
    </g>
    <g id="Trazado_624825" data-name="Trazado 624825" transform="translate(14248 3587)" fill="#fff">
      <path d="M 10 19.5 C 4.761680126190186 19.5 0.5 15.23832035064697 0.5 10 C 0.5 4.761680126190186 4.761680126190186 0.5 10 0.5 C 15.23832035064697 0.5 19.5 4.761680126190186 19.5 10 C 19.5 15.23832035064697 15.23832035064697 19.5 10 19.5 Z" stroke="none"/>
      <path d="M 10 1 C 5.037380218505859 1 1 5.037380218505859 1 10 C 1 14.96261978149414 5.037380218505859 19 10 19 C 14.96261978149414 19 19 14.96261978149414 19 10 C 19 5.037380218505859 14.96261978149414 1 10 1 M 10 0 C 15.52285003662109 0 20 4.477149963378906 20 10 C 20 15.52285003662109 15.52285003662109 20 10 20 C 4.477149963378906 20 0 15.52285003662109 0 10 C 0 4.477149963378906 4.477149963378906 0 10 0 Z" stroke="none" fill="#707070"/>
    </g>
    <path id="Trazado_624826" data-name="Trazado 624826" d="M0-7.453l2.133-3.922h2.7L1.52-5.734,4.918,0H2.191L0-3.984-2.184,0H-4.91l3.4-5.734-3.312-5.641h2.7Z" transform="translate(14258 3603)" fill="#636363"/>
    <path id="Trazado_624827" data-name="Trazado 624827" d="M13,0H233a13,13,0,0,1,13,13V164a13,13,0,0,1-13,13H13A13,13,0,0,1,0,164V13A13,13,0,0,1,13,0Z" transform="translate(13669 3767)" fill="#b6e1fd"/>
    <path id="Trazado_624831" data-name="Trazado 624831" d="M4.088,10.563A6.172,6.172,0,0,1,1.63,9.371,2.279,2.279,0,0,1,.861,7.624,2.408,2.408,0,0,1,1.8,5.679,3.736,3.736,0,0,1,4.245,4.91a4.078,4.078,0,0,1,1.829.4A3.007,3.007,0,0,1,7.318,6.4a2.8,2.8,0,0,1,.441,1.524H6.439A1.82,1.82,0,0,0,5.865,6.5a2.335,2.335,0,0,0-1.62-.518,2.391,2.391,0,0,0-1.514.428A1.428,1.428,0,0,0,2.188,7.6,1.285,1.285,0,0,0,2.7,8.63,5.062,5.062,0,0,0,4.46,9.4a8.152,8.152,0,0,1,1.941.77,2.946,2.946,0,0,1,1.039.981,2.5,2.5,0,0,1,.338,1.319,2.326,2.326,0,0,1-.943,1.938,4.022,4.022,0,0,1-2.522.728A4.678,4.678,0,0,1,2.4,14.744a3.221,3.221,0,0,1-1.371-1.077,2.627,2.627,0,0,1-.482-1.552H1.866a1.714,1.714,0,0,0,.667,1.425,2.806,2.806,0,0,0,1.781.523,2.58,2.58,0,0,0,1.593-.424,1.377,1.377,0,0,0,.554-1.155,1.351,1.351,0,0,0-.513-1.131A5.911,5.911,0,0,0,4.088,10.563Zm4.84.67a4.369,4.369,0,0,1,.427-1.955,3.187,3.187,0,0,1,1.189-1.34,3.238,3.238,0,0,1,1.74-.472,3.119,3.119,0,0,1,2.444,1.046,4.024,4.024,0,0,1,.933,2.782v.089a4.407,4.407,0,0,1-.414,1.938,3.14,3.14,0,0,1-1.183,1.336,3.275,3.275,0,0,1-1.767.479,3.111,3.111,0,0,1-2.437-1.046,4,4,0,0,1-.933-2.769Zm1.271.15a3.164,3.164,0,0,0,.571,1.976,1.934,1.934,0,0,0,3.059-.01,3.46,3.46,0,0,0,.567-2.116,3.159,3.159,0,0,0-.578-1.972,1.836,1.836,0,0,0-1.535-.755,1.816,1.816,0,0,0-1.511.745A3.435,3.435,0,0,0,10.2,11.384ZM18.443,7.6l.041.93A2.7,2.7,0,0,1,20.7,7.467q2.345,0,2.365,2.646V15H21.8V10.105a1.7,1.7,0,0,0-.366-1.183,1.466,1.466,0,0,0-1.118-.383,1.825,1.825,0,0,0-1.08.328,2.228,2.228,0,0,0-.725.861V15H17.247V7.6Zm15.928,3.732a5.763,5.763,0,0,1-.622,2.044,3.484,3.484,0,0,1-1.176,1.347,2.676,2.676,0,0,1-1.531.417,2.284,2.284,0,0,1-1.989-1L28.8,15H27.658L29.483,4.5h1.237l-.745,3.924a2.719,2.719,0,0,1,2.16-.957,2.063,2.063,0,0,1,1.661.786,3.46,3.46,0,0,1,.629,2.092,6.442,6.442,0,0,1-.041.848ZM33.2,10.622A2.633,2.633,0,0,0,32.86,9.1a1.282,1.282,0,0,0-1.087-.556A2.252,2.252,0,0,0,29.818,9.7l-.554,3.216A1.574,1.574,0,0,0,30.8,14.07a1.8,1.8,0,0,0,1.268-.43,2.81,2.81,0,0,0,.824-1.28A5.756,5.756,0,0,0,33.2,10.622ZM39.874,15a1.657,1.657,0,0,1-.048-.39l.021-.39a3.032,3.032,0,0,1-2.16.916,2.21,2.21,0,0,1-1.589-.619A1.872,1.872,0,0,1,35.54,13a2.277,2.277,0,0,1,1.029-1.835,4.38,4.38,0,0,1,2.526-.66l1.292.007.082-.588a1.352,1.352,0,0,0-.256-1.049,1.237,1.237,0,0,0-.974-.4,1.908,1.908,0,0,0-1.125.311,1.324,1.324,0,0,0-.6.858l-1.244.007A1.983,1.983,0,0,1,36.777,8.5a2.943,2.943,0,0,1,1.142-.779,3.688,3.688,0,0,1,1.442-.263,2.452,2.452,0,0,1,1.8.7,2.173,2.173,0,0,1,.54,1.788l-.6,3.664-.034.526a2.58,2.58,0,0,0,.082.745L41.132,15Zm-1.941-.957a2.158,2.158,0,0,0,1.125-.284,2.847,2.847,0,0,0,.913-.824l.267-1.524L39.3,11.4a3.547,3.547,0,0,0-1.791.369,1.36,1.36,0,0,0-.7,1.046,1.059,1.059,0,0,0,.243.865A1.156,1.156,0,0,0,37.933,14.043ZM45.261,7.6l-.178.937a2.916,2.916,0,0,1,2.27-1.066,1.835,1.835,0,0,1,1.545.725,2.815,2.815,0,0,1,.369,1.962L48.46,15H47.223l.813-4.862a2.592,2.592,0,0,0,.007-.621,1.022,1.022,0,0,0-1.128-.976A2.329,2.329,0,0,0,44.96,9.728L44.044,15H42.807l1.285-7.4Zm7.561,0-.178.937a2.916,2.916,0,0,1,2.27-1.066,1.835,1.835,0,0,1,1.545.725,2.815,2.815,0,0,1,.369,1.962L56.021,15H54.783l.813-4.862a2.592,2.592,0,0,0,.007-.621,1.022,1.022,0,0,0-1.128-.976,2.329,2.329,0,0,0-1.955,1.188L51.6,15H50.367l1.285-7.4Zm8.306,7.54a2.667,2.667,0,0,1-2.16-1.019,3.505,3.505,0,0,1-.656-2.536l.034-.294A4.921,4.921,0,0,1,59,9.278a3.8,3.8,0,0,1,1.309-1.371,3.054,3.054,0,0,1,1.668-.441,2.352,2.352,0,0,1,1.791.759,3.121,3.121,0,0,1,.711,1.982,5.793,5.793,0,0,1-.027.889l-.075.567H59.541a2.5,2.5,0,0,0,.332,1.709,1.57,1.57,0,0,0,1.357.731,2.631,2.631,0,0,0,2.023-.984l.711.6a3.253,3.253,0,0,1-1.2,1.049A3.4,3.4,0,0,1,61.127,15.137ZM61.913,8.5a1.807,1.807,0,0,0-1.336.52,3.693,3.693,0,0,0-.906,1.606l3.6.007.027-.109a2.024,2.024,0,0,0-.277-1.432A1.3,1.3,0,0,0,61.913,8.5Zm7.875.232-.581-.062a2.117,2.117,0,0,0-1.873,1.073L66.425,15H65.188l1.285-7.4,1.2-.007-.185.861a2.211,2.211,0,0,1,1.853-1,2.27,2.27,0,0,1,.588.1ZM74.43,13q.1-.766-.841-1.08L72.3,11.541q-1.627-.561-1.572-1.859a2.048,2.048,0,0,1,.892-1.6,3.177,3.177,0,0,1,1.986-.612,2.649,2.649,0,0,1,1.822.653A2.068,2.068,0,0,1,76.1,9.784l-1.23-.007a1.154,1.154,0,0,0-.349-.9,1.379,1.379,0,0,0-.964-.362,1.8,1.8,0,0,0-1.107.314,1.151,1.151,0,0,0-.5.807q-.089.643.786.937l.622.171a4.005,4.005,0,0,1,1.8.854A1.632,1.632,0,0,1,75.66,12.9a2.074,2.074,0,0,1-.451,1.2,2.58,2.58,0,0,1-1.094.783,3.658,3.658,0,0,1-1.456.25,2.885,2.885,0,0,1-1.941-.687,2.124,2.124,0,0,1-.738-1.733l1.237.007a1.311,1.311,0,0,0,.4,1A1.515,1.515,0,0,0,72.7,14.1a2.132,2.132,0,0,0,1.169-.284A1.091,1.091,0,0,0,74.43,13ZM82.318,7.6l.034.82a2.732,2.732,0,0,1,2.194-.957,2.115,2.115,0,0,1,2.112,1.189,2.8,2.8,0,0,1,.96-.861,2.837,2.837,0,0,1,1.4-.328q2.434,0,2.475,2.577V15H90.228V10.119a1.7,1.7,0,0,0-.362-1.186,1.6,1.6,0,0,0-1.217-.393,1.677,1.677,0,0,0-1.169.42,1.706,1.706,0,0,0-.54,1.131V15H85.668V10.153A1.411,1.411,0,0,0,84.089,8.54a1.692,1.692,0,0,0-1.7,1.06V15H81.122V7.6ZM97.966,15a2.657,2.657,0,0,1-.178-.779,2.822,2.822,0,0,1-2.105.916,2.611,2.611,0,0,1-1.794-.619,2,2,0,0,1-.7-1.569,2.091,2.091,0,0,1,.878-1.794,4.141,4.141,0,0,1,2.471-.639h1.23V9.935a1.42,1.42,0,0,0-.4-1.056A1.593,1.593,0,0,0,96.2,8.485a1.844,1.844,0,0,0-1.135.342,1.007,1.007,0,0,0-.458.827H93.338a1.745,1.745,0,0,1,.393-1.07A2.683,2.683,0,0,1,94.8,7.768a3.588,3.588,0,0,1,1.48-.3,2.924,2.924,0,0,1,2,.639,2.306,2.306,0,0,1,.752,1.76v3.4a4.162,4.162,0,0,0,.26,1.62V15Zm-2.1-.964A2.223,2.223,0,0,0,97,13.729a1.861,1.861,0,0,0,.772-.8V11.411h-.991q-2.324,0-2.324,1.36a1.151,1.151,0,0,0,.4.93A1.524,1.524,0,0,0,95.867,14.036ZM97.036,4.5h1.531L96.735,6.51l-1.019,0Zm8.285,8.538a.931.931,0,0,0-.386-.8,3.718,3.718,0,0,0-1.347-.489,6.367,6.367,0,0,1-1.524-.492,2.169,2.169,0,0,1-.834-.684,1.635,1.635,0,0,1-.27-.943,1.919,1.919,0,0,1,.769-1.538,3,3,0,0,1,1.965-.629,3.091,3.091,0,0,1,2.041.649,2.063,2.063,0,0,1,.783,1.661h-1.271a1.142,1.142,0,0,0-.441-.9,1.652,1.652,0,0,0-1.111-.376,1.729,1.729,0,0,0-1.08.3.947.947,0,0,0-.39.786.767.767,0,0,0,.362.69,4.458,4.458,0,0,0,1.309.444,6.821,6.821,0,0,1,1.535.506,2.239,2.239,0,0,1,.872.708,1.74,1.74,0,0,1,.284,1.008,1.893,1.893,0,0,1-.793,1.589,3.326,3.326,0,0,1-2.058.6,3.725,3.725,0,0,1-1.572-.314,2.557,2.557,0,0,1-1.07-.878,2.117,2.117,0,0,1-.386-1.22h1.265a1.309,1.309,0,0,0,.509,1.008,1.976,1.976,0,0,0,1.254.373,2.039,2.039,0,0,0,1.152-.291A.893.893,0,0,0,105.321,13.038Zm12.626-1.654a4.429,4.429,0,0,1-.772,2.721,2.476,2.476,0,0,1-2.092,1.032,2.713,2.713,0,0,1-2.119-.854v3.562H111.7V7.6h1.155l.062.82a2.605,2.605,0,0,1,2.146-.957,2.522,2.522,0,0,1,2.109,1,4.477,4.477,0,0,1,.776,2.8Zm-1.265-.144a3.268,3.268,0,0,0-.533-1.976,1.718,1.718,0,0,0-1.463-.725,1.859,1.859,0,0,0-1.723,1.019v3.534A1.863,1.863,0,0,0,114.7,14.1a1.71,1.71,0,0,0,1.446-.721A3.567,3.567,0,0,0,116.683,11.24Zm5.94,3.9a3.232,3.232,0,0,1-2.447-.988,3.666,3.666,0,0,1-.943-2.642v-.232a4.438,4.438,0,0,1,.42-1.965,3.28,3.28,0,0,1,1.176-1.354,2.956,2.956,0,0,1,1.637-.489,2.77,2.77,0,0,1,2.242.95,4.114,4.114,0,0,1,.8,2.721v.526H120.5a2.629,2.629,0,0,0,.639,1.767,2.009,2.009,0,0,0,1.555.673,2.2,2.2,0,0,0,1.135-.273,2.851,2.851,0,0,0,.813-.725l.772.6A3.106,3.106,0,0,1,122.623,15.137Zm-.157-6.631a1.687,1.687,0,0,0-1.285.557,2.708,2.708,0,0,0-.643,1.562h3.705v-.1a2.409,2.409,0,0,0-.52-1.494A1.588,1.588,0,0,0,122.466,8.506Zm4.2,2.734a4.341,4.341,0,0,1,.8-2.758,2.823,2.823,0,0,1,4.218-.133l.055-.745H132.9v10.24h-1.265V14.316a2.654,2.654,0,0,1-2.037.82,2.551,2.551,0,0,1-2.136-1.042,4.438,4.438,0,0,1-.8-2.765Zm1.265.144a3.291,3.291,0,0,0,.537,2,1.707,1.707,0,0,0,1.446.725,1.894,1.894,0,0,0,1.723-1V9.483a1.9,1.9,0,0,0-1.709-.978,1.72,1.72,0,0,0-1.456.728A3.582,3.582,0,0,0,127.928,11.384Zm11.566,2.885a2.686,2.686,0,0,1-2.167.868,2.3,2.3,0,0,1-1.8-.687,2.974,2.974,0,0,1-.625-2.034V7.6h1.265v4.778q0,1.682,1.367,1.682a1.893,1.893,0,0,0,1.928-1.08V7.6h1.265V15h-1.2Zm6.221.868a3.232,3.232,0,0,1-2.447-.988,3.666,3.666,0,0,1-.943-2.642v-.232a4.438,4.438,0,0,1,.42-1.965,3.279,3.279,0,0,1,1.176-1.354,2.956,2.956,0,0,1,1.637-.489,2.77,2.77,0,0,1,2.242.95,4.114,4.114,0,0,1,.8,2.721v.526h-5.011a2.629,2.629,0,0,0,.639,1.767,2.009,2.009,0,0,0,1.555.673,2.2,2.2,0,0,0,1.135-.273,2.851,2.851,0,0,0,.813-.725l.772.6A3.106,3.106,0,0,1,145.715,15.137Zm-.157-6.631a1.687,1.687,0,0,0-1.285.557,2.708,2.708,0,0,0-.643,1.562h3.705v-.1a2.409,2.409,0,0,0-.52-1.494A1.588,1.588,0,0,0,145.558,8.506Zm5.7-.9.041.93a2.7,2.7,0,0,1,2.215-1.066q2.345,0,2.365,2.646V15h-1.265V10.105a1.7,1.7,0,0,0-.366-1.183,1.466,1.466,0,0,0-1.118-.383,1.825,1.825,0,0,0-1.08.328,2.228,2.228,0,0,0-.725.861V15h-1.265V7.6Zm4.184-2.885a1.7,1.7,0,0,1-.42,1.2,1.365,1.365,0,0,1-1.049.458,1.54,1.54,0,0,1-.485-.068,2.618,2.618,0,0,1-.537-.28,2.324,2.324,0,0,0-.479-.256,1.171,1.171,0,0,0-.338-.044.627.627,0,0,0-.479.215.781.781,0,0,0-.2.55l-.848-.048a1.784,1.784,0,0,1,.414-1.21,1.326,1.326,0,0,1,1.049-.479,1.275,1.275,0,0,1,.431.068,3.138,3.138,0,0,1,.52.267,3.057,3.057,0,0,0,.5.26,1.154,1.154,0,0,0,.386.062.612.612,0,0,0,.489-.232.815.815,0,0,0,.195-.54Zm2.01,6.515a4.369,4.369,0,0,1,.427-1.955,3.187,3.187,0,0,1,1.189-1.34,3.238,3.238,0,0,1,1.74-.472,3.119,3.119,0,0,1,2.444,1.046,4.024,4.024,0,0,1,.933,2.782v.089a4.407,4.407,0,0,1-.414,1.938,3.14,3.14,0,0,1-1.183,1.336,3.275,3.275,0,0,1-1.767.479,3.111,3.111,0,0,1-2.437-1.046,4,4,0,0,1-.933-2.769Zm1.271.15a3.164,3.164,0,0,0,.571,1.976,1.934,1.934,0,0,0,3.059-.01,3.46,3.46,0,0,0,.567-2.116,3.159,3.159,0,0,0-.578-1.972,1.836,1.836,0,0,0-1.535-.755,1.816,1.816,0,0,0-1.511.745A3.435,3.435,0,0,0,158.724,11.384Zm11.354,1.654a.931.931,0,0,0-.386-.8,3.718,3.718,0,0,0-1.347-.489,6.367,6.367,0,0,1-1.524-.492,2.169,2.169,0,0,1-.834-.684,1.635,1.635,0,0,1-.27-.943,1.919,1.919,0,0,1,.769-1.538,3,3,0,0,1,1.965-.629,3.091,3.091,0,0,1,2.041.649,2.063,2.063,0,0,1,.783,1.661H170a1.142,1.142,0,0,0-.441-.9,1.652,1.652,0,0,0-1.111-.376,1.729,1.729,0,0,0-1.08.3.947.947,0,0,0-.39.786.767.767,0,0,0,.362.69,4.458,4.458,0,0,0,1.309.444,6.821,6.821,0,0,1,1.535.506,2.239,2.239,0,0,1,.872.708,1.74,1.74,0,0,1,.284,1.008,1.893,1.893,0,0,1-.793,1.589,3.326,3.326,0,0,1-2.058.6,3.725,3.725,0,0,1-1.572-.314,2.557,2.557,0,0,1-1.07-.878,2.117,2.117,0,0,1-.386-1.22h1.265a1.309,1.309,0,0,0,.509,1.008,1.976,1.976,0,0,0,1.254.373,2.039,2.039,0,0,0,1.152-.291A.893.893,0,0,0,170.078,13.038Zm2.871,3.944-.718-.492a3.3,3.3,0,0,0,.67-1.846V13.5h1.237v.991a3.114,3.114,0,0,1-.338,1.381A3.233,3.233,0,0,1,172.949,16.982ZM.656,29.24a4.347,4.347,0,0,1,.8-2.751,2.558,2.558,0,0,1,2.119-1.022,2.544,2.544,0,0,1,2.112.957l.062-.82H6.9v7.219a3.009,3.009,0,0,1-.851,2.263,3.141,3.141,0,0,1-2.287.827A3.8,3.8,0,0,1,2.2,35.57a2.7,2.7,0,0,1-1.169-.937l.656-.759a2.473,2.473,0,0,0,1.989,1,1.938,1.938,0,0,0,1.439-.52A1.986,1.986,0,0,0,5.633,32.9v-.636a2.6,2.6,0,0,1-2.071.875,2.527,2.527,0,0,1-2.1-1.046A4.571,4.571,0,0,1,.656,29.24Zm1.271.144a3.316,3.316,0,0,0,.513,1.965,1.666,1.666,0,0,0,1.436.714,1.852,1.852,0,0,0,1.757-1.087V27.6A1.874,1.874,0,0,0,3.89,26.54a1.681,1.681,0,0,0-1.442.718A3.612,3.612,0,0,0,1.928,29.384Zm9.953,3.753a3.232,3.232,0,0,1-2.447-.988,3.666,3.666,0,0,1-.943-2.642v-.232a4.438,4.438,0,0,1,.42-1.965,3.28,3.28,0,0,1,1.176-1.354,2.956,2.956,0,0,1,1.637-.489,2.77,2.77,0,0,1,2.242.95,4.114,4.114,0,0,1,.8,2.721v.526H9.755a2.629,2.629,0,0,0,.639,1.767,2.009,2.009,0,0,0,1.555.673,2.2,2.2,0,0,0,1.135-.273,2.851,2.851,0,0,0,.813-.725l.772.6A3.106,3.106,0,0,1,11.881,33.137Zm-.157-6.631a1.687,1.687,0,0,0-1.285.557A2.708,2.708,0,0,0,9.8,28.625H13.5v-.1a2.409,2.409,0,0,0-.52-1.494A1.588,1.588,0,0,0,11.724,26.506Zm5.7-.9.041.93a2.7,2.7,0,0,1,2.215-1.066q2.345,0,2.365,2.646V33H20.781V28.105a1.7,1.7,0,0,0-.366-1.183A1.466,1.466,0,0,0,19.3,26.54a1.825,1.825,0,0,0-1.08.328,2.228,2.228,0,0,0-.725.861V33H16.229V25.6Zm9.6,7.533a3.232,3.232,0,0,1-2.447-.988,3.666,3.666,0,0,1-.943-2.642v-.232a4.438,4.438,0,0,1,.42-1.965,3.28,3.28,0,0,1,1.176-1.354,2.956,2.956,0,0,1,1.637-.489,2.77,2.77,0,0,1,2.242.95,4.114,4.114,0,0,1,.8,2.721v.526H24.9a2.629,2.629,0,0,0,.639,1.767,2.009,2.009,0,0,0,1.555.673,2.2,2.2,0,0,0,1.135-.273,2.851,2.851,0,0,0,.813-.725l.772.6A3.106,3.106,0,0,1,27.022,33.137Zm-.157-6.631a1.687,1.687,0,0,0-1.285.557,2.708,2.708,0,0,0-.643,1.562h3.705v-.1a2.409,2.409,0,0,0-.52-1.494A1.588,1.588,0,0,0,26.865,26.506Zm8.08.232a3.79,3.79,0,0,0-.622-.048,1.667,1.667,0,0,0-1.688,1.06V33H31.37V25.6H32.6l.021.854a1.969,1.969,0,0,1,1.764-.991,1.292,1.292,0,0,1,.561.1ZM40.4,33a2.657,2.657,0,0,1-.178-.779,2.822,2.822,0,0,1-2.105.916,2.611,2.611,0,0,1-1.794-.619,2,2,0,0,1-.7-1.569,2.091,2.091,0,0,1,.878-1.794,4.142,4.142,0,0,1,2.471-.639H40.2v-.581a1.42,1.42,0,0,0-.4-1.056,1.593,1.593,0,0,0-1.169-.393,1.844,1.844,0,0,0-1.135.342,1.007,1.007,0,0,0-.458.827H35.772a1.745,1.745,0,0,1,.393-1.07,2.683,2.683,0,0,1,1.066-.817,3.588,3.588,0,0,1,1.48-.3,2.924,2.924,0,0,1,2,.639,2.306,2.306,0,0,1,.752,1.76v3.4a4.162,4.162,0,0,0,.26,1.62V33Zm-2.1-.964a2.223,2.223,0,0,0,1.128-.308,1.861,1.861,0,0,0,.772-.8V29.411h-.991q-2.324,0-2.324,1.36a1.151,1.151,0,0,0,.4.93A1.524,1.524,0,0,0,38.3,32.036ZM44.823,33H43.559V22.5h1.265Zm3.213-7.4.034.82a2.732,2.732,0,0,1,2.194-.957,2.115,2.115,0,0,1,2.112,1.189,2.8,2.8,0,0,1,.96-.861,2.837,2.837,0,0,1,1.4-.328q2.434,0,2.475,2.577V33H55.945V28.119a1.7,1.7,0,0,0-.362-1.186,1.6,1.6,0,0,0-1.217-.393,1.677,1.677,0,0,0-1.169.42,1.706,1.706,0,0,0-.54,1.131V33H51.386V28.153a1.411,1.411,0,0,0-1.579-1.613,1.692,1.692,0,0,0-1.7,1.06V33H46.84V25.6Zm14.15,7.533a3.232,3.232,0,0,1-2.447-.988,3.666,3.666,0,0,1-.943-2.642v-.232a4.438,4.438,0,0,1,.42-1.965,3.279,3.279,0,0,1,1.176-1.354,2.956,2.956,0,0,1,1.637-.489,2.77,2.77,0,0,1,2.242.95,4.114,4.114,0,0,1,.8,2.721v.526H60.061a2.629,2.629,0,0,0,.639,1.767,2.009,2.009,0,0,0,1.555.673,2.2,2.2,0,0,0,1.135-.273,2.851,2.851,0,0,0,.813-.725l.772.6A3.106,3.106,0,0,1,62.187,33.137Zm-.157-6.631a1.687,1.687,0,0,0-1.285.557,2.708,2.708,0,0,0-.643,1.562h3.705v-.1a2.409,2.409,0,0,0-.52-1.494A1.588,1.588,0,0,0,62.029,26.506Zm5.7-.9.041.93a2.7,2.7,0,0,1,2.215-1.066q2.345,0,2.365,2.646V33H71.087V28.105a1.7,1.7,0,0,0-.366-1.183A1.466,1.466,0,0,0,69.6,26.54a1.825,1.825,0,0,0-1.08.328,2.228,2.228,0,0,0-.725.861V33H66.534V25.6Zm8.244-1.791V25.6h1.381v.978H75.975v4.593a1.027,1.027,0,0,0,.185.667.777.777,0,0,0,.629.222,3.062,3.062,0,0,0,.6-.082V33a3.688,3.688,0,0,1-.971.136,1.575,1.575,0,0,1-1.278-.513,2.2,2.2,0,0,1-.431-1.456V26.581H73.363V25.6H74.71V23.813ZM81.9,33.137a3.232,3.232,0,0,1-2.447-.988,3.666,3.666,0,0,1-.943-2.642v-.232a4.438,4.438,0,0,1,.42-1.965,3.28,3.28,0,0,1,1.176-1.354,2.956,2.956,0,0,1,1.637-.489,2.77,2.77,0,0,1,2.242.95,4.114,4.114,0,0,1,.8,2.721v.526H79.775a2.629,2.629,0,0,0,.639,1.767,2.009,2.009,0,0,0,1.555.673,2.2,2.2,0,0,0,1.135-.273,2.851,2.851,0,0,0,.813-.725l.772.6A3.106,3.106,0,0,1,81.9,33.137Zm-.157-6.631a1.687,1.687,0,0,0-1.285.557,2.708,2.708,0,0,0-.643,1.562h3.705v-.1A2.409,2.409,0,0,0,83,27.036,1.588,1.588,0,0,0,81.744,26.506Zm10.938,5.6a1.822,1.822,0,0,0,1.183-.41,1.443,1.443,0,0,0,.561-1.025h1.2a2.293,2.293,0,0,1-.437,1.21,2.881,2.881,0,0,1-1.077.916,3.107,3.107,0,0,1-1.425.342,3.047,3.047,0,0,1-2.4-1.008,4.016,4.016,0,0,1-.892-2.758v-.212a4.453,4.453,0,0,1,.4-1.921,3.02,3.02,0,0,1,1.138-1.306,3.233,3.233,0,0,1,1.753-.465,2.966,2.966,0,0,1,2.068.745,2.663,2.663,0,0,1,.878,1.935h-1.2a1.743,1.743,0,0,0-.543-1.179,1.691,1.691,0,0,0-1.207-.461,1.77,1.77,0,0,0-1.494.694,3.259,3.259,0,0,0-.53,2.006v.239a3.194,3.194,0,0,0,.526,1.969A1.779,1.779,0,0,0,92.682,32.1Zm8.928.164a2.686,2.686,0,0,1-2.167.868,2.3,2.3,0,0,1-1.8-.687,2.974,2.974,0,0,1-.625-2.034V25.6H98.28v4.778q0,1.682,1.367,1.682a1.893,1.893,0,0,0,1.928-1.08V25.6h1.265V33h-1.2Zm7.718.731a2.657,2.657,0,0,1-.178-.779,2.822,2.822,0,0,1-2.105.916,2.611,2.611,0,0,1-1.794-.619,2,2,0,0,1-.7-1.569,2.091,2.091,0,0,1,.878-1.794,4.141,4.141,0,0,1,2.471-.639h1.23v-.581a1.42,1.42,0,0,0-.4-1.056,1.593,1.593,0,0,0-1.169-.393,1.844,1.844,0,0,0-1.135.342,1.007,1.007,0,0,0-.458.827H104.7a1.745,1.745,0,0,1,.393-1.07,2.683,2.683,0,0,1,1.066-.817,3.588,3.588,0,0,1,1.48-.3,2.924,2.924,0,0,1,2,.639,2.306,2.306,0,0,1,.752,1.76v3.4a4.162,4.162,0,0,0,.26,1.62V33Zm-2.1-.964a2.223,2.223,0,0,0,1.128-.308,1.861,1.861,0,0,0,.772-.8V29.411h-.991q-2.324,0-2.324,1.36a1.151,1.151,0,0,0,.4.93A1.524,1.524,0,0,0,107.229,32.036Zm4.84-2.8a4.333,4.333,0,0,1,.807-2.738,2.745,2.745,0,0,1,4.17-.147V22.5h1.265V33h-1.162l-.062-.793a2.575,2.575,0,0,1-2.112.93,2.526,2.526,0,0,1-2.1-1.053,4.382,4.382,0,0,1-.81-2.748Zm1.265.144a3.281,3.281,0,0,0,.52,1.969,1.68,1.68,0,0,0,1.436.711,1.845,1.845,0,0,0,1.757-1.08v-3.4A1.859,1.859,0,0,0,115.3,26.54a1.687,1.687,0,0,0-1.449.718A3.612,3.612,0,0,0,113.333,29.384Zm10.514-2.646a3.79,3.79,0,0,0-.622-.048,1.667,1.667,0,0,0-1.688,1.06V33h-1.265V25.6h1.23l.021.854a1.969,1.969,0,0,1,1.764-.991,1.292,1.292,0,0,1,.561.1ZM129.3,33a2.657,2.657,0,0,1-.178-.779,2.822,2.822,0,0,1-2.105.916,2.611,2.611,0,0,1-1.794-.619,2,2,0,0,1-.7-1.569,2.091,2.091,0,0,1,.878-1.794,4.141,4.141,0,0,1,2.471-.639h1.23v-.581a1.42,1.42,0,0,0-.4-1.056,1.593,1.593,0,0,0-1.169-.393,1.844,1.844,0,0,0-1.135.342,1.007,1.007,0,0,0-.458.827h-1.271a1.745,1.745,0,0,1,.393-1.07,2.683,2.683,0,0,1,1.066-.817,3.588,3.588,0,0,1,1.48-.3,2.924,2.924,0,0,1,2,.639,2.306,2.306,0,0,1,.752,1.76v3.4a4.162,4.162,0,0,0,.26,1.62V33Zm-2.1-.964a2.223,2.223,0,0,0,1.128-.308,1.861,1.861,0,0,0,.772-.8V29.411h-.991q-2.324,0-2.324,1.36a1.151,1.151,0,0,0,.4.93A1.524,1.524,0,0,0,127.2,32.036Zm4.84-2.8a4.333,4.333,0,0,1,.807-2.738,2.745,2.745,0,0,1,4.17-.147V22.5h1.265V33h-1.162l-.062-.793a2.575,2.575,0,0,1-2.112.93,2.526,2.526,0,0,1-2.1-1.053,4.382,4.382,0,0,1-.81-2.748Zm1.265.144a3.281,3.281,0,0,0,.52,1.969,1.68,1.68,0,0,0,1.436.711,1.845,1.845,0,0,0,1.757-1.08v-3.4a1.859,1.859,0,0,0-1.743-1.046,1.687,1.687,0,0,0-1.449.718A3.612,3.612,0,0,0,133.308,29.384Zm6.6-.15a4.369,4.369,0,0,1,.427-1.955,3.187,3.187,0,0,1,1.189-1.34,3.238,3.238,0,0,1,1.74-.472,3.119,3.119,0,0,1,2.444,1.046,4.024,4.024,0,0,1,.933,2.782v.089a4.407,4.407,0,0,1-.414,1.938,3.14,3.14,0,0,1-1.183,1.336,3.275,3.275,0,0,1-1.767.479,3.111,3.111,0,0,1-2.437-1.046,4,4,0,0,1-.933-2.769Zm1.271.15a3.164,3.164,0,0,0,.571,1.976,1.934,1.934,0,0,0,3.059-.01,3.46,3.46,0,0,0,.567-2.116,3.159,3.159,0,0,0-.578-1.972,1.836,1.836,0,0,0-1.535-.755,1.816,1.816,0,0,0-1.511.745A3.434,3.434,0,0,0,141.183,29.384Zm11.354,1.654a.931.931,0,0,0-.386-.8,3.718,3.718,0,0,0-1.347-.489,6.367,6.367,0,0,1-1.524-.492,2.169,2.169,0,0,1-.834-.684,1.635,1.635,0,0,1-.27-.943,1.919,1.919,0,0,1,.769-1.538,3,3,0,0,1,1.965-.629,3.091,3.091,0,0,1,2.041.649,2.063,2.063,0,0,1,.783,1.661h-1.271a1.142,1.142,0,0,0-.441-.9,1.652,1.652,0,0,0-1.111-.376,1.729,1.729,0,0,0-1.08.3.947.947,0,0,0-.39.786.767.767,0,0,0,.362.69,4.458,4.458,0,0,0,1.309.444,6.821,6.821,0,0,1,1.535.506,2.239,2.239,0,0,1,.872.708,1.74,1.74,0,0,1,.284,1.008,1.893,1.893,0,0,1-.793,1.589,3.326,3.326,0,0,1-2.058.6,3.725,3.725,0,0,1-1.572-.314,2.557,2.557,0,0,1-1.07-.878,2.117,2.117,0,0,1-.386-1.22h1.265a1.309,1.309,0,0,0,.509,1.008,1.976,1.976,0,0,0,1.254.373,2.039,2.039,0,0,0,1.152-.291A.893.893,0,0,0,152.537,31.038Zm8.8.109,1.723-5.544h1.354l-2.974,8.538q-.69,1.846-2.194,1.846L159,35.967l-.472-.089V34.853l.342.027a1.683,1.683,0,0,0,1-.26,1.88,1.88,0,0,0,.591-.95l.28-.752L158.108,25.6h1.381ZM4.532,44.738a3.79,3.79,0,0,0-.622-.048,1.667,1.667,0,0,0-1.688,1.06V51H.957V43.6h1.23l.021.854a1.969,1.969,0,0,1,1.764-.991,1.292,1.292,0,0,1,.561.1Zm4.1,6.4a3.232,3.232,0,0,1-2.447-.988,3.666,3.666,0,0,1-.943-2.642v-.232a4.438,4.438,0,0,1,.42-1.965,3.28,3.28,0,0,1,1.176-1.354,2.956,2.956,0,0,1,1.637-.489,2.77,2.77,0,0,1,2.242.95,4.114,4.114,0,0,1,.8,2.721v.526H6.508a2.629,2.629,0,0,0,.639,1.767A2.009,2.009,0,0,0,8.7,50.1a2.2,2.2,0,0,0,1.135-.273,2.851,2.851,0,0,0,.813-.725l.772.6A3.106,3.106,0,0,1,8.634,51.137Zm-.157-6.631a1.687,1.687,0,0,0-1.285.557,2.708,2.708,0,0,0-.643,1.562h3.705v-.1a2.409,2.409,0,0,0-.52-1.494A1.588,1.588,0,0,0,8.477,44.506Zm7.472,5.6a1.822,1.822,0,0,0,1.183-.41,1.443,1.443,0,0,0,.561-1.025h1.2a2.293,2.293,0,0,1-.437,1.21,2.881,2.881,0,0,1-1.077.916,3.107,3.107,0,0,1-1.425.342,3.047,3.047,0,0,1-2.4-1.008,4.016,4.016,0,0,1-.892-2.758v-.212a4.453,4.453,0,0,1,.4-1.921,3.02,3.02,0,0,1,1.138-1.306,3.233,3.233,0,0,1,1.753-.465,2.966,2.966,0,0,1,2.068.745,2.663,2.663,0,0,1,.878,1.935h-1.2a1.743,1.743,0,0,0-.543-1.179,1.691,1.691,0,0,0-1.207-.461,1.77,1.77,0,0,0-1.494.694,3.259,3.259,0,0,0-.53,2.006v.239a3.194,3.194,0,0,0,.526,1.969A1.779,1.779,0,0,0,15.948,50.1Zm6.077-8.292V43.6h1.381v.978H22.025v4.593a1.027,1.027,0,0,0,.185.667.777.777,0,0,0,.629.222,3.062,3.062,0,0,0,.6-.082V51a3.688,3.688,0,0,1-.971.136,1.575,1.575,0,0,1-1.278-.513,2.2,2.2,0,0,1-.431-1.456V44.581H19.414V43.6h1.347V41.813ZM29.449,51a2.657,2.657,0,0,1-.178-.779,2.822,2.822,0,0,1-2.105.916,2.611,2.611,0,0,1-1.794-.619,2,2,0,0,1-.7-1.569,2.091,2.091,0,0,1,.878-1.794,4.142,4.142,0,0,1,2.471-.639h1.23v-.581a1.42,1.42,0,0,0-.4-1.056,1.593,1.593,0,0,0-1.169-.393,1.844,1.844,0,0,0-1.135.342,1.007,1.007,0,0,0-.458.827H24.821a1.745,1.745,0,0,1,.393-1.07,2.683,2.683,0,0,1,1.066-.817,3.588,3.588,0,0,1,1.48-.3,2.924,2.924,0,0,1,2,.639,2.306,2.306,0,0,1,.752,1.76v3.4a4.162,4.162,0,0,0,.26,1.62V51Zm-2.1-.964a2.223,2.223,0,0,0,1.128-.308,1.861,1.861,0,0,0,.772-.8V47.411H28.26q-2.324,0-2.324,1.36a1.151,1.151,0,0,0,.4.93A1.524,1.524,0,0,0,27.351,50.036ZM33.694,43.6l.041.93a2.7,2.7,0,0,1,2.215-1.066q2.345,0,2.365,2.646V51H37.051V46.105a1.7,1.7,0,0,0-.366-1.183,1.466,1.466,0,0,0-1.118-.383,1.825,1.825,0,0,0-1.08.328,2.228,2.228,0,0,0-.725.861V51H32.5V43.6Zm6.228,3.637a4.347,4.347,0,0,1,.8-2.751,2.757,2.757,0,0,1,4.231-.065l.062-.82H46.17v7.219a3.009,3.009,0,0,1-.851,2.263,3.141,3.141,0,0,1-2.287.827,3.8,3.8,0,0,1-1.565-.342,2.7,2.7,0,0,1-1.169-.937l.656-.759a2.473,2.473,0,0,0,1.989,1,1.938,1.938,0,0,0,1.439-.52A1.986,1.986,0,0,0,44.9,50.9v-.636a2.6,2.6,0,0,1-2.071.875,2.526,2.526,0,0,1-2.1-1.046A4.571,4.571,0,0,1,39.922,47.24Zm1.271.144a3.316,3.316,0,0,0,.513,1.965,1.666,1.666,0,0,0,1.436.714A1.852,1.852,0,0,0,44.9,48.977V45.6a1.874,1.874,0,0,0-1.743-1.06,1.681,1.681,0,0,0-1.442.718A3.612,3.612,0,0,0,41.193,47.384Zm11.45,2.885a2.686,2.686,0,0,1-2.167.868,2.3,2.3,0,0,1-1.8-.687,2.974,2.974,0,0,1-.625-2.034V43.6h1.265v4.778q0,1.682,1.367,1.682a1.893,1.893,0,0,0,1.928-1.08V43.6h1.265V51h-1.2ZM57.169,51H55.9V40.5h1.265Zm6.59,0a2.657,2.657,0,0,1-.178-.779,2.822,2.822,0,0,1-2.105.916,2.611,2.611,0,0,1-1.794-.619,2,2,0,0,1-.7-1.569,2.091,2.091,0,0,1,.878-1.794,4.142,4.142,0,0,1,2.471-.639h1.23v-.581a1.42,1.42,0,0,0-.4-1.056A1.593,1.593,0,0,0,62,44.485a1.844,1.844,0,0,0-1.135.342,1.007,1.007,0,0,0-.458.827H59.131a1.745,1.745,0,0,1,.393-1.07,2.683,2.683,0,0,1,1.066-.817,3.588,3.588,0,0,1,1.48-.3,2.924,2.924,0,0,1,2,.639,2.306,2.306,0,0,1,.752,1.76v3.4a4.162,4.162,0,0,0,.26,1.62V51Zm-2.1-.964a2.223,2.223,0,0,0,1.128-.308,1.861,1.861,0,0,0,.772-.8V47.411h-.991q-2.324,0-2.324,1.36a1.151,1.151,0,0,0,.4.93A1.524,1.524,0,0,0,61.66,50.036Zm8.723-5.3a3.79,3.79,0,0,0-.622-.048,1.667,1.667,0,0,0-1.688,1.06V51H66.808V43.6h1.23l.021.854a1.969,1.969,0,0,1,1.764-.991,1.292,1.292,0,0,1,.561.1Zm4.1,6.4a3.232,3.232,0,0,1-2.447-.988,3.666,3.666,0,0,1-.943-2.642v-.232a4.438,4.438,0,0,1,.42-1.965,3.28,3.28,0,0,1,1.176-1.354,2.956,2.956,0,0,1,1.637-.489,2.77,2.77,0,0,1,2.242.95,4.114,4.114,0,0,1,.8,2.721v.526H72.358A2.629,2.629,0,0,0,73,49.431a2.009,2.009,0,0,0,1.555.673,2.2,2.2,0,0,0,1.135-.273,2.851,2.851,0,0,0,.813-.725l.772.6A3.106,3.106,0,0,1,74.484,51.137Zm-.157-6.631a1.687,1.687,0,0,0-1.285.557,2.708,2.708,0,0,0-.643,1.562H76.1v-.1a2.409,2.409,0,0,0-.52-1.494A1.588,1.588,0,0,0,74.327,44.506Zm8.812,4.532a.931.931,0,0,0-.386-.8,3.718,3.718,0,0,0-1.347-.489,6.367,6.367,0,0,1-1.524-.492,2.169,2.169,0,0,1-.834-.684,1.635,1.635,0,0,1-.27-.943,1.919,1.919,0,0,1,.769-1.538,3,3,0,0,1,1.965-.629,3.091,3.091,0,0,1,2.041.649,2.063,2.063,0,0,1,.783,1.661H83.063a1.142,1.142,0,0,0-.441-.9,1.652,1.652,0,0,0-1.111-.376,1.729,1.729,0,0,0-1.08.3.947.947,0,0,0-.39.786.767.767,0,0,0,.362.69,4.458,4.458,0,0,0,1.309.444,6.821,6.821,0,0,1,1.535.506,2.239,2.239,0,0,1,.872.708,1.74,1.74,0,0,1,.284,1.008,1.893,1.893,0,0,1-.793,1.589,3.326,3.326,0,0,1-2.058.6,3.725,3.725,0,0,1-1.572-.314,2.557,2.557,0,0,1-1.07-.878,2.117,2.117,0,0,1-.386-1.22h1.265a1.309,1.309,0,0,0,.509,1.008,1.976,1.976,0,0,0,1.254.373,2.039,2.039,0,0,0,1.152-.291A.893.893,0,0,0,83.139,49.038Zm2.939,1.3a.792.792,0,0,1,.195-.547.742.742,0,0,1,.584-.219.765.765,0,0,1,.591.219.776.776,0,0,1,.2.547.734.734,0,0,1-.2.526.778.778,0,0,1-.591.212.7.7,0,0,1-.779-.738Zm10.254-3.773a6.172,6.172,0,0,1-2.458-1.193,2.279,2.279,0,0,1-.769-1.747,2.408,2.408,0,0,1,.94-1.945,3.736,3.736,0,0,1,2.444-.769,4.078,4.078,0,0,1,1.829.4A3.007,3.007,0,0,1,99.562,42.4,2.8,2.8,0,0,1,100,43.925H98.684a1.82,1.82,0,0,0-.574-1.423,2.335,2.335,0,0,0-1.62-.518,2.391,2.391,0,0,0-1.514.428,1.428,1.428,0,0,0-.543,1.188,1.285,1.285,0,0,0,.516,1.031,5.062,5.062,0,0,0,1.757.77,8.152,8.152,0,0,1,1.941.77,2.946,2.946,0,0,1,1.039.981,2.5,2.5,0,0,1,.338,1.319,2.326,2.326,0,0,1-.943,1.938,4.022,4.022,0,0,1-2.522.728,4.678,4.678,0,0,1-1.914-.393,3.221,3.221,0,0,1-1.371-1.077,2.627,2.627,0,0,1-.482-1.552H94.11a1.714,1.714,0,0,0,.667,1.425,2.806,2.806,0,0,0,1.781.523,2.58,2.58,0,0,0,1.593-.424,1.377,1.377,0,0,0,.554-1.155,1.351,1.351,0,0,0-.513-1.131A5.911,5.911,0,0,0,96.332,46.563Zm9.741,3.705a2.686,2.686,0,0,1-2.167.868,2.3,2.3,0,0,1-1.8-.687,2.974,2.974,0,0,1-.625-2.034V43.6h1.265v4.778q0,1.682,1.367,1.682a1.893,1.893,0,0,0,1.928-1.08V43.6H107.3V51h-1.2Zm8.333-8.456V43.6h1.381v.978h-1.381v4.593a1.027,1.027,0,0,0,.185.667.777.777,0,0,0,.629.222,3.062,3.062,0,0,0,.6-.082V51a3.688,3.688,0,0,1-.971.136,1.575,1.575,0,0,1-1.278-.513,2.2,2.2,0,0,1-.431-1.456V44.581h-1.347V43.6h1.347V41.813ZM121.83,51a2.657,2.657,0,0,1-.178-.779,2.822,2.822,0,0,1-2.105.916,2.611,2.611,0,0,1-1.794-.619,2,2,0,0,1-.7-1.569,2.091,2.091,0,0,1,.878-1.794,4.142,4.142,0,0,1,2.471-.639h1.23v-.581a1.42,1.42,0,0,0-.4-1.056,1.593,1.593,0,0,0-1.169-.393,1.844,1.844,0,0,0-1.135.342,1.007,1.007,0,0,0-.458.827H117.2a1.745,1.745,0,0,1,.393-1.07,2.683,2.683,0,0,1,1.066-.817,3.588,3.588,0,0,1,1.48-.3,2.924,2.924,0,0,1,2,.639,2.306,2.306,0,0,1,.752,1.76v3.4a4.162,4.162,0,0,0,.26,1.62V51Zm-2.1-.964a2.223,2.223,0,0,0,1.128-.308,1.861,1.861,0,0,0,.772-.8V47.411h-.991q-2.324,0-2.324,1.36a1.151,1.151,0,0,0,.4.93A1.524,1.524,0,0,0,119.731,50.036Zm6.337-6.433.034.82a2.732,2.732,0,0,1,2.194-.957,2.115,2.115,0,0,1,2.112,1.189,2.8,2.8,0,0,1,.96-.861,2.837,2.837,0,0,1,1.4-.328q2.434,0,2.475,2.577V51h-1.265V46.119a1.7,1.7,0,0,0-.362-1.186,1.6,1.6,0,0,0-1.217-.393,1.677,1.677,0,0,0-1.169.42,1.706,1.706,0,0,0-.54,1.131V51h-1.271V46.153a1.411,1.411,0,0,0-1.579-1.613,1.692,1.692,0,0,0-1.7,1.06V51h-1.265V43.6ZM141.716,51a2.657,2.657,0,0,1-.178-.779,2.822,2.822,0,0,1-2.105.916,2.611,2.611,0,0,1-1.794-.619,2,2,0,0,1-.7-1.569,2.091,2.091,0,0,1,.878-1.794,4.142,4.142,0,0,1,2.471-.639h1.23v-.581a1.42,1.42,0,0,0-.4-1.056,1.593,1.593,0,0,0-1.169-.393,1.844,1.844,0,0,0-1.135.342,1.007,1.007,0,0,0-.458.827h-1.271a1.745,1.745,0,0,1,.393-1.07,2.683,2.683,0,0,1,1.066-.817,3.588,3.588,0,0,1,1.48-.3,2.924,2.924,0,0,1,2,.639,2.306,2.306,0,0,1,.752,1.76v3.4a4.162,4.162,0,0,0,.26,1.62V51Zm-2.1-.964a2.223,2.223,0,0,0,1.128-.308,1.861,1.861,0,0,0,.772-.8V47.411h-.991q-2.324,0-2.324,1.36a1.151,1.151,0,0,0,.4.93A1.524,1.524,0,0,0,139.617,50.036Zm6.344-6.433.041.93a2.7,2.7,0,0,1,2.215-1.066q2.345,0,2.365,2.646V51h-1.265V46.105a1.7,1.7,0,0,0-.366-1.183,1.466,1.466,0,0,0-1.118-.383,1.825,1.825,0,0,0-1.08.328,2.228,2.228,0,0,0-.725.861V51h-1.265V43.6Zm4.184-2.885a1.7,1.7,0,0,1-.42,1.2,1.365,1.365,0,0,1-1.049.458,1.54,1.54,0,0,1-.485-.068,2.618,2.618,0,0,1-.537-.28,2.324,2.324,0,0,0-.479-.256,1.171,1.171,0,0,0-.338-.044.627.627,0,0,0-.479.215.781.781,0,0,0-.2.55l-.848-.048a1.784,1.784,0,0,1,.414-1.21,1.326,1.326,0,0,1,1.049-.479,1.275,1.275,0,0,1,.431.068,3.139,3.139,0,0,1,.52.267,3.057,3.057,0,0,0,.5.26,1.154,1.154,0,0,0,.386.062.612.612,0,0,0,.489-.232.815.815,0,0,0,.195-.54Zm2.01,6.515a4.369,4.369,0,0,1,.427-1.955,3.187,3.187,0,0,1,1.189-1.34,3.238,3.238,0,0,1,1.74-.472,3.119,3.119,0,0,1,2.444,1.046,4.024,4.024,0,0,1,.933,2.782v.089a4.407,4.407,0,0,1-.414,1.938,3.14,3.14,0,0,1-1.183,1.336,3.275,3.275,0,0,1-1.767.479,3.111,3.111,0,0,1-2.437-1.046,4,4,0,0,1-.933-2.769Zm1.271.15A3.164,3.164,0,0,0,154,49.359a1.934,1.934,0,0,0,3.059-.01,3.46,3.46,0,0,0,.567-2.116,3.159,3.159,0,0,0-.578-1.972,1.836,1.836,0,0,0-1.535-.755,1.816,1.816,0,0,0-1.511.745A3.435,3.435,0,0,0,153.426,47.384ZM165.313,51h-1.265V40.5h1.265Zm5.093.137a3.232,3.232,0,0,1-2.447-.988,3.666,3.666,0,0,1-.943-2.642v-.232a4.438,4.438,0,0,1,.42-1.965,3.279,3.279,0,0,1,1.176-1.354,2.956,2.956,0,0,1,1.637-.489,2.77,2.77,0,0,1,2.242.95,4.114,4.114,0,0,1,.8,2.721v.526H168.28a2.629,2.629,0,0,0,.639,1.767,2.009,2.009,0,0,0,1.555.673,2.2,2.2,0,0,0,1.135-.273,2.851,2.851,0,0,0,.813-.725l.772.6A3.106,3.106,0,0,1,170.406,51.137Zm-.157-6.631a1.687,1.687,0,0,0-1.285.557,2.708,2.708,0,0,0-.643,1.562h3.705v-.1a2.409,2.409,0,0,0-.52-1.494A1.588,1.588,0,0,0,170.249,44.506Zm8.812,4.532a.931.931,0,0,0-.386-.8,3.718,3.718,0,0,0-1.347-.489,6.367,6.367,0,0,1-1.524-.492,2.169,2.169,0,0,1-.834-.684,1.635,1.635,0,0,1-.27-.943,1.919,1.919,0,0,1,.769-1.538,3,3,0,0,1,1.965-.629,3.091,3.091,0,0,1,2.041.649,2.063,2.063,0,0,1,.783,1.661h-1.271a1.142,1.142,0,0,0-.441-.9,1.652,1.652,0,0,0-1.111-.376,1.729,1.729,0,0,0-1.08.3.947.947,0,0,0-.39.786.767.767,0,0,0,.362.69,4.458,4.458,0,0,0,1.309.444,6.821,6.821,0,0,1,1.535.506,2.239,2.239,0,0,1,.872.708,1.74,1.74,0,0,1,.284,1.008,1.893,1.893,0,0,1-.793,1.589,3.326,3.326,0,0,1-2.058.6,3.725,3.725,0,0,1-1.572-.314,2.557,2.557,0,0,1-1.07-.878,2.117,2.117,0,0,1-.386-1.22h1.265a1.309,1.309,0,0,0,.509,1.008,1.976,1.976,0,0,0,1.254.373,2.039,2.039,0,0,0,1.152-.291A.893.893,0,0,0,179.061,49.038ZM.649,65.24A4.333,4.333,0,0,1,1.456,62.5a2.551,2.551,0,0,1,2.112-1.036,2.565,2.565,0,0,1,2.058.889V58.5H6.891V69H5.729l-.062-.793a2.575,2.575,0,0,1-2.112.93,2.526,2.526,0,0,1-2.1-1.053,4.382,4.382,0,0,1-.81-2.748Zm1.265.144a3.281,3.281,0,0,0,.52,1.969,1.68,1.68,0,0,0,1.436.711,1.845,1.845,0,0,0,1.757-1.08v-3.4A1.859,1.859,0,0,0,3.883,62.54a1.687,1.687,0,0,0-1.449.718A3.612,3.612,0,0,0,1.914,65.384ZM13.419,69a2.657,2.657,0,0,1-.178-.779,2.822,2.822,0,0,1-2.105.916,2.611,2.611,0,0,1-1.794-.619,2,2,0,0,1-.7-1.569,2.091,2.091,0,0,1,.878-1.794,4.141,4.141,0,0,1,2.471-.639h1.23v-.581a1.42,1.42,0,0,0-.4-1.056,1.593,1.593,0,0,0-1.169-.393,1.844,1.844,0,0,0-1.135.342,1.007,1.007,0,0,0-.458.827H8.791a1.745,1.745,0,0,1,.393-1.07,2.683,2.683,0,0,1,1.066-.817,3.588,3.588,0,0,1,1.48-.3,2.924,2.924,0,0,1,2,.639,2.306,2.306,0,0,1,.752,1.76v3.4a4.162,4.162,0,0,0,.26,1.62V69Zm-2.1-.964a2.223,2.223,0,0,0,1.128-.308,1.861,1.861,0,0,0,.772-.8V65.411h-.991q-2.324,0-2.324,1.36a1.151,1.151,0,0,0,.4.93A1.524,1.524,0,0,0,11.32,68.036Zm13.18.232a2.686,2.686,0,0,1-2.167.868,2.3,2.3,0,0,1-1.8-.687,2.974,2.974,0,0,1-.625-2.034V61.6h1.265v4.778q0,1.682,1.367,1.682a1.893,1.893,0,0,0,1.928-1.08V61.6H25.73V69h-1.2ZM28.848,61.6l.041.93A2.7,2.7,0,0,1,31.1,61.467q2.345,0,2.365,2.646V69H32.2V64.105a1.7,1.7,0,0,0-.366-1.183,1.466,1.466,0,0,0-1.118-.383,1.825,1.825,0,0,0-1.08.328,2.228,2.228,0,0,0-.725.861V69H27.651V61.6ZM39.942,69a2.657,2.657,0,0,1-.178-.779,2.822,2.822,0,0,1-2.105.916,2.611,2.611,0,0,1-1.794-.619,2,2,0,0,1-.7-1.569,2.091,2.091,0,0,1,.878-1.794,4.141,4.141,0,0,1,2.471-.639h1.23v-.581a1.42,1.42,0,0,0-.4-1.056,1.593,1.593,0,0,0-1.169-.393,1.844,1.844,0,0,0-1.135.342,1.007,1.007,0,0,0-.458.827H35.314a1.745,1.745,0,0,1,.393-1.07,2.683,2.683,0,0,1,1.066-.817,3.588,3.588,0,0,1,1.48-.3,2.924,2.924,0,0,1,2,.639,2.306,2.306,0,0,1,.752,1.76v3.4a4.162,4.162,0,0,0,.26,1.62V69Zm-2.1-.964a2.223,2.223,0,0,0,1.128-.308,1.861,1.861,0,0,0,.772-.8V65.411h-.991q-2.324,0-2.324,1.36a1.151,1.151,0,0,0,.4.93A1.524,1.524,0,0,0,37.844,68.036Zm8.313-2.8a4.347,4.347,0,0,1,.8-2.751,2.757,2.757,0,0,1,4.231-.065l.062-.82H52.4v7.219a3.009,3.009,0,0,1-.851,2.263,3.141,3.141,0,0,1-2.287.827A3.8,3.8,0,0,1,47.7,71.57a2.7,2.7,0,0,1-1.169-.937l.656-.759a2.473,2.473,0,0,0,1.989,1,1.938,1.938,0,0,0,1.439-.52,1.986,1.986,0,0,0,.516-1.463v-.636a2.6,2.6,0,0,1-2.071.875,2.526,2.526,0,0,1-2.1-1.046A4.571,4.571,0,0,1,46.156,65.24Zm1.271.144a3.316,3.316,0,0,0,.513,1.965,1.666,1.666,0,0,0,1.436.714,1.852,1.852,0,0,0,1.757-1.087V63.6a1.874,1.874,0,0,0-1.743-1.06,1.681,1.681,0,0,0-1.442.718A3.612,3.612,0,0,0,47.428,65.384Zm10.459-2.646a3.79,3.79,0,0,0-.622-.048,1.667,1.667,0,0,0-1.688,1.06V69H54.312V61.6h1.23l.021.854a1.969,1.969,0,0,1,1.764-.991,1.292,1.292,0,0,1,.561.1ZM63.342,69a2.657,2.657,0,0,1-.178-.779,2.822,2.822,0,0,1-2.105.916,2.611,2.611,0,0,1-1.794-.619,2,2,0,0,1-.7-1.569,2.091,2.091,0,0,1,.878-1.794,4.141,4.141,0,0,1,2.471-.639h1.23v-.581a1.42,1.42,0,0,0-.4-1.056,1.593,1.593,0,0,0-1.169-.393,1.844,1.844,0,0,0-1.135.342,1.007,1.007,0,0,0-.458.827H58.714a1.745,1.745,0,0,1,.393-1.07,2.683,2.683,0,0,1,1.066-.817,3.588,3.588,0,0,1,1.48-.3,2.924,2.924,0,0,1,2,.639,2.306,2.306,0,0,1,.752,1.76v3.4a4.162,4.162,0,0,0,.26,1.62V69Zm-2.1-.964a2.223,2.223,0,0,0,1.128-.308,1.861,1.861,0,0,0,.772-.8V65.411h-.991q-2.324,0-2.324,1.36a1.151,1.151,0,0,0,.4.93A1.524,1.524,0,0,0,61.243,68.036ZM67.587,61.6l.041.93a2.7,2.7,0,0,1,2.215-1.066q2.345,0,2.365,2.646V69H70.943V64.105a1.7,1.7,0,0,0-.366-1.183,1.466,1.466,0,0,0-1.118-.383,1.825,1.825,0,0,0-1.08.328,2.228,2.228,0,0,0-.725.861V69H66.391V61.6Zm12.435,5.681L81.854,61.6h1.292L80.493,69h-.964l-2.68-7.4h1.292Zm7.321,1.853a3.232,3.232,0,0,1-2.447-.988,3.666,3.666,0,0,1-.943-2.642v-.232a4.438,4.438,0,0,1,.42-1.965,3.28,3.28,0,0,1,1.176-1.354,2.956,2.956,0,0,1,1.637-.489,2.77,2.77,0,0,1,2.242.95,4.114,4.114,0,0,1,.8,2.721v.526H85.217a2.629,2.629,0,0,0,.639,1.767,2.009,2.009,0,0,0,1.555.673,2.2,2.2,0,0,0,1.135-.273,2.851,2.851,0,0,0,.813-.725l.772.6A3.106,3.106,0,0,1,87.343,69.137Zm-.157-6.631a1.687,1.687,0,0,0-1.285.557,2.708,2.708,0,0,0-.643,1.562h3.705v-.1a2.409,2.409,0,0,0-.52-1.494A1.588,1.588,0,0,0,87.186,62.506Zm8.08.232a3.79,3.79,0,0,0-.622-.048,1.667,1.667,0,0,0-1.688,1.06V69H91.69V61.6h1.23l.021.854a1.969,1.969,0,0,1,1.764-.991,1.292,1.292,0,0,1,.561.1Zm5.469,4.3a.931.931,0,0,0-.386-.8A3.718,3.718,0,0,0,99,65.753a6.367,6.367,0,0,1-1.524-.492,2.169,2.169,0,0,1-.834-.684,1.635,1.635,0,0,1-.27-.943,1.919,1.919,0,0,1,.769-1.538,3,3,0,0,1,1.965-.629,3.091,3.091,0,0,1,2.041.649,2.063,2.063,0,0,1,.783,1.661h-1.271a1.142,1.142,0,0,0-.441-.9,1.652,1.652,0,0,0-1.111-.376,1.729,1.729,0,0,0-1.08.3.947.947,0,0,0-.39.786.767.767,0,0,0,.362.69,4.458,4.458,0,0,0,1.309.444,6.821,6.821,0,0,1,1.535.506,2.239,2.239,0,0,1,.872.708A1.74,1.74,0,0,1,102,66.949a1.893,1.893,0,0,1-.793,1.589,3.326,3.326,0,0,1-2.058.6,3.725,3.725,0,0,1-1.572-.314,2.557,2.557,0,0,1-1.07-.878,2.117,2.117,0,0,1-.386-1.22h1.265a1.309,1.309,0,0,0,.509,1.008,1.976,1.976,0,0,0,1.254.373,2.039,2.039,0,0,0,1.152-.291A.893.893,0,0,0,100.734,67.038ZM108.213,69a2.657,2.657,0,0,1-.178-.779,2.822,2.822,0,0,1-2.105.916,2.611,2.611,0,0,1-1.794-.619,2,2,0,0,1-.7-1.569,2.091,2.091,0,0,1,.878-1.794,4.141,4.141,0,0,1,2.471-.639h1.23v-.581a1.42,1.42,0,0,0-.4-1.056,1.593,1.593,0,0,0-1.169-.393,1.844,1.844,0,0,0-1.135.342,1.007,1.007,0,0,0-.458.827h-1.271a1.745,1.745,0,0,1,.393-1.07,2.683,2.683,0,0,1,1.066-.817,3.588,3.588,0,0,1,1.48-.3,2.924,2.924,0,0,1,2,.639,2.306,2.306,0,0,1,.752,1.76v3.4a4.162,4.162,0,0,0,.26,1.62V69Zm-2.1-.964a2.223,2.223,0,0,0,1.128-.308,1.861,1.861,0,0,0,.772-.8V65.411h-.991q-2.324,0-2.324,1.36a1.151,1.151,0,0,0,.4.93A1.524,1.524,0,0,0,106.114,68.036Zm6.863-8.224V61.6h1.381v.978h-1.381v4.593a1.027,1.027,0,0,0,.185.667.777.777,0,0,0,.629.222,3.062,3.062,0,0,0,.6-.082V69a3.688,3.688,0,0,1-.971.136,1.575,1.575,0,0,1-1.278-.513,2.2,2.2,0,0,1-.431-1.456V62.581h-1.347V61.6h1.347V59.813ZM117.209,69h-1.265V61.6h1.265Zm-1.367-9.358a.755.755,0,0,1,.188-.52.706.706,0,0,1,.557-.212.717.717,0,0,1,.561.212.747.747,0,0,1,.191.52.722.722,0,0,1-.191.513.73.73,0,0,1-.561.205.718.718,0,0,1-.557-.205A.73.73,0,0,1,115.842,59.642ZM120.606,69h-1.265V58.5h1.265Zm3.4,0h-1.265V61.6H124Zm-1.367-9.358a.755.755,0,0,1,.188-.52.706.706,0,0,1,.557-.212.717.717,0,0,1,.561.212.747.747,0,0,1,.191.52.722.722,0,0,1-.191.513.73.73,0,0,1-.561.205.718.718,0,0,1-.557-.205A.73.73,0,0,1,122.637,59.642Zm3.083,5.6a4.333,4.333,0,0,1,.807-2.738,2.745,2.745,0,0,1,4.17-.147V58.5h1.265V69H130.8l-.062-.793a2.575,2.575,0,0,1-2.112.93,2.526,2.526,0,0,1-2.1-1.053,4.382,4.382,0,0,1-.81-2.748Zm1.265.144a3.281,3.281,0,0,0,.52,1.969,1.68,1.68,0,0,0,1.436.711,1.845,1.845,0,0,0,1.757-1.08v-3.4a1.859,1.859,0,0,0-1.743-1.046,1.687,1.687,0,0,0-1.449.718A3.612,3.612,0,0,0,126.984,65.384ZM138.489,69a2.657,2.657,0,0,1-.178-.779,2.822,2.822,0,0,1-2.105.916,2.611,2.611,0,0,1-1.794-.619,2,2,0,0,1-.7-1.569,2.091,2.091,0,0,1,.878-1.794,4.142,4.142,0,0,1,2.471-.639h1.23v-.581a1.42,1.42,0,0,0-.4-1.056,1.593,1.593,0,0,0-1.169-.393,1.844,1.844,0,0,0-1.135.342,1.007,1.007,0,0,0-.458.827h-1.271a1.745,1.745,0,0,1,.393-1.07,2.683,2.683,0,0,1,1.066-.817,3.588,3.588,0,0,1,1.48-.3,2.924,2.924,0,0,1,2,.639,2.306,2.306,0,0,1,.752,1.76v3.4a4.162,4.162,0,0,0,.26,1.62V69Zm-2.1-.964a2.223,2.223,0,0,0,1.128-.308,1.861,1.861,0,0,0,.772-.8V65.411H137.3q-2.324,0-2.324,1.36a1.151,1.151,0,0,0,.4.93A1.524,1.524,0,0,0,136.391,68.036Zm4.84-2.8a4.333,4.333,0,0,1,.807-2.738,2.745,2.745,0,0,1,4.17-.147V58.5h1.265V69H146.31l-.062-.793a2.575,2.575,0,0,1-2.112.93,2.526,2.526,0,0,1-2.1-1.053,4.382,4.382,0,0,1-.81-2.748Zm1.265.144a3.281,3.281,0,0,0,.52,1.969,1.68,1.68,0,0,0,1.436.711,1.845,1.845,0,0,0,1.757-1.08v-3.4a1.859,1.859,0,0,0-1.743-1.046,1.687,1.687,0,0,0-1.449.718A3.612,3.612,0,0,0,142.5,65.384Zm16.652,0a4.429,4.429,0,0,1-.772,2.721,2.476,2.476,0,0,1-2.092,1.032,2.713,2.713,0,0,1-2.119-.854v3.562H152.9V61.6h1.155l.062.82a2.605,2.605,0,0,1,2.146-.957,2.522,2.522,0,0,1,2.109,1,4.477,4.477,0,0,1,.776,2.8Zm-1.265-.144a3.268,3.268,0,0,0-.533-1.976,1.718,1.718,0,0,0-1.463-.725,1.859,1.859,0,0,0-1.723,1.019v3.534A1.863,1.863,0,0,0,155.9,68.1a1.71,1.71,0,0,0,1.446-.721A3.567,3.567,0,0,0,157.883,65.24ZM165.32,69a2.657,2.657,0,0,1-.178-.779,2.822,2.822,0,0,1-2.105.916,2.611,2.611,0,0,1-1.794-.619,2,2,0,0,1-.7-1.569,2.091,2.091,0,0,1,.878-1.794,4.142,4.142,0,0,1,2.471-.639h1.23v-.581a1.42,1.42,0,0,0-.4-1.056,1.593,1.593,0,0,0-1.169-.393,1.844,1.844,0,0,0-1.135.342,1.007,1.007,0,0,0-.458.827h-1.271a1.745,1.745,0,0,1,.393-1.07,2.683,2.683,0,0,1,1.066-.817,3.588,3.588,0,0,1,1.48-.3,2.924,2.924,0,0,1,2,.639,2.306,2.306,0,0,1,.752,1.76v3.4a4.162,4.162,0,0,0,.26,1.62V69Zm-2.1-.964a2.223,2.223,0,0,0,1.128-.308,1.861,1.861,0,0,0,.772-.8V65.411h-.991q-2.324,0-2.324,1.36a1.151,1.151,0,0,0,.4.93A1.524,1.524,0,0,0,163.222,68.036Zm8.723-5.3a3.79,3.79,0,0,0-.622-.048,1.667,1.667,0,0,0-1.688,1.06V69h-1.265V61.6h1.23l.021.854a1.969,1.969,0,0,1,1.764-.991,1.292,1.292,0,0,1,.561.1ZM177.4,69a2.657,2.657,0,0,1-.178-.779,2.822,2.822,0,0,1-2.105.916,2.611,2.611,0,0,1-1.794-.619,2,2,0,0,1-.7-1.569,2.091,2.091,0,0,1,.878-1.794,4.142,4.142,0,0,1,2.471-.639h1.23v-.581a1.42,1.42,0,0,0-.4-1.056,1.593,1.593,0,0,0-1.169-.393,1.844,1.844,0,0,0-1.135.342,1.007,1.007,0,0,0-.458.827h-1.271a1.745,1.745,0,0,1,.393-1.07,2.683,2.683,0,0,1,1.066-.817,3.588,3.588,0,0,1,1.48-.3,2.924,2.924,0,0,1,2,.639,2.306,2.306,0,0,1,.752,1.76v3.4a4.162,4.162,0,0,0,.26,1.62V69Zm-2.1-.964a2.223,2.223,0,0,0,1.128-.308,1.861,1.861,0,0,0,.772-.8V65.411h-.991q-2.324,0-2.324,1.36a1.151,1.151,0,0,0,.4.93A1.524,1.524,0,0,0,175.3,68.036ZM2.331,87H1.066V79.6H2.331ZM.964,77.642a.755.755,0,0,1,.188-.52.706.706,0,0,1,.557-.212.717.717,0,0,1,.561.212.747.747,0,0,1,.191.52.722.722,0,0,1-.191.513.73.73,0,0,1-.561.205.718.718,0,0,1-.557-.205A.73.73,0,0,1,.964,77.642ZM5.551,79.6l.041.93a2.7,2.7,0,0,1,2.215-1.066q2.345,0,2.365,2.646V87H8.907V82.105a1.7,1.7,0,0,0-.366-1.183,1.466,1.466,0,0,0-1.118-.383,1.825,1.825,0,0,0-1.08.328,2.228,2.228,0,0,0-.725.861V87H4.354V79.6Zm8.244-1.791V79.6h1.381v.978H13.795v4.593a1.027,1.027,0,0,0,.185.667.777.777,0,0,0,.629.222,3.062,3.062,0,0,0,.6-.082V87a3.688,3.688,0,0,1-.971.136,1.575,1.575,0,0,1-1.278-.513,2.2,2.2,0,0,1-.431-1.456V80.581H11.184V79.6H12.53V77.813Zm5.927,9.324a3.232,3.232,0,0,1-2.447-.988,3.666,3.666,0,0,1-.943-2.642v-.232a4.438,4.438,0,0,1,.42-1.965,3.279,3.279,0,0,1,1.176-1.354,2.956,2.956,0,0,1,1.637-.489,2.77,2.77,0,0,1,2.242.95,4.114,4.114,0,0,1,.8,2.721v.526H17.6a2.629,2.629,0,0,0,.639,1.767,2.009,2.009,0,0,0,1.555.673,2.2,2.2,0,0,0,1.135-.273,2.851,2.851,0,0,0,.813-.725l.772.6A3.106,3.106,0,0,1,19.722,87.137Zm-.157-6.631a1.687,1.687,0,0,0-1.285.557,2.708,2.708,0,0,0-.643,1.562h3.705v-.1a2.409,2.409,0,0,0-.52-1.494A1.588,1.588,0,0,0,19.564,80.506Zm4.2,2.734a4.347,4.347,0,0,1,.8-2.751,2.757,2.757,0,0,1,4.231-.065l.062-.82h1.155v7.219a3.009,3.009,0,0,1-.851,2.263,3.141,3.141,0,0,1-2.287.827,3.8,3.8,0,0,1-1.565-.342,2.7,2.7,0,0,1-1.169-.937l.656-.759a2.473,2.473,0,0,0,1.989,1,1.938,1.938,0,0,0,1.439-.52,1.986,1.986,0,0,0,.516-1.463v-.636a2.6,2.6,0,0,1-2.071.875,2.527,2.527,0,0,1-2.1-1.046A4.571,4.571,0,0,1,23.769,83.24Zm1.271.144a3.316,3.316,0,0,0,.513,1.965,1.666,1.666,0,0,0,1.436.714,1.852,1.852,0,0,0,1.757-1.087V81.6A1.874,1.874,0,0,0,27,80.54a1.681,1.681,0,0,0-1.442.718A3.612,3.612,0,0,0,25.04,83.384ZM35.5,80.738a3.79,3.79,0,0,0-.622-.048,1.667,1.667,0,0,0-1.688,1.06V87H31.924V79.6h1.23l.021.854a1.969,1.969,0,0,1,1.764-.991,1.292,1.292,0,0,1,.561.1ZM40.954,87a2.657,2.657,0,0,1-.178-.779,2.822,2.822,0,0,1-2.105.916,2.611,2.611,0,0,1-1.794-.619,2,2,0,0,1-.7-1.569,2.091,2.091,0,0,1,.878-1.794,4.141,4.141,0,0,1,2.471-.639h1.23v-.581a1.42,1.42,0,0,0-.4-1.056,1.593,1.593,0,0,0-1.169-.393,1.844,1.844,0,0,0-1.135.342,1.007,1.007,0,0,0-.458.827H36.326a1.745,1.745,0,0,1,.393-1.07,2.683,2.683,0,0,1,1.066-.817,3.588,3.588,0,0,1,1.48-.3,2.924,2.924,0,0,1,2,.639,2.306,2.306,0,0,1,.752,1.76v3.4a4.162,4.162,0,0,0,.26,1.62V87Zm-2.1-.964a2.223,2.223,0,0,0,1.128-.308,1.861,1.861,0,0,0,.772-.8V83.411h-.991q-2.324,0-2.324,1.36a1.151,1.151,0,0,0,.4.93A1.524,1.524,0,0,0,38.855,86.036Zm8.723-5.3a3.79,3.79,0,0,0-.622-.048,1.667,1.667,0,0,0-1.688,1.06V87H44V79.6h1.23l.021.854a1.969,1.969,0,0,1,1.764-.991,1.292,1.292,0,0,1,.561.1ZM50.114,87H48.85V76.5h1.265ZM51.8,83.233a4.369,4.369,0,0,1,.427-1.955,3.187,3.187,0,0,1,1.189-1.34,3.238,3.238,0,0,1,1.74-.472A3.119,3.119,0,0,1,57.6,80.513a4.024,4.024,0,0,1,.933,2.782v.089a4.407,4.407,0,0,1-.414,1.938,3.14,3.14,0,0,1-1.183,1.336,3.275,3.275,0,0,1-1.767.479,3.111,3.111,0,0,1-2.437-1.046,4,4,0,0,1-.933-2.769Zm1.271.15a3.164,3.164,0,0,0,.571,1.976,1.934,1.934,0,0,0,3.059-.01,3.46,3.46,0,0,0,.567-2.116,3.159,3.159,0,0,0-.578-1.972,1.836,1.836,0,0,0-1.535-.755,1.816,1.816,0,0,0-1.511.745A3.434,3.434,0,0,0,53.074,83.384Zm11.354,1.654a.931.931,0,0,0-.386-.8,3.718,3.718,0,0,0-1.347-.489,6.367,6.367,0,0,1-1.524-.492,2.169,2.169,0,0,1-.834-.684,1.635,1.635,0,0,1-.27-.943,1.919,1.919,0,0,1,.769-1.538,3,3,0,0,1,1.965-.629,3.091,3.091,0,0,1,2.041.649,2.063,2.063,0,0,1,.783,1.661H64.354a1.142,1.142,0,0,0-.441-.9,1.652,1.652,0,0,0-1.111-.376,1.729,1.729,0,0,0-1.08.3.947.947,0,0,0-.39.786.767.767,0,0,0,.362.69A4.458,4.458,0,0,0,63,82.728a6.821,6.821,0,0,1,1.535.506,2.239,2.239,0,0,1,.872.708,1.74,1.74,0,0,1,.284,1.008,1.893,1.893,0,0,1-.793,1.589,3.326,3.326,0,0,1-2.058.6,3.725,3.725,0,0,1-1.572-.314,2.557,2.557,0,0,1-1.07-.878,2.117,2.117,0,0,1-.386-1.22h1.265a1.309,1.309,0,0,0,.509,1.008,1.976,1.976,0,0,0,1.254.373,2.039,2.039,0,0,0,1.152-.291A.893.893,0,0,0,64.429,85.038Zm9.447,2.1a3.232,3.232,0,0,1-2.447-.988,3.666,3.666,0,0,1-.943-2.642v-.232a4.438,4.438,0,0,1,.42-1.965,3.28,3.28,0,0,1,1.176-1.354,2.956,2.956,0,0,1,1.637-.489,2.77,2.77,0,0,1,2.242.95,4.114,4.114,0,0,1,.8,2.721v.526H71.75a2.629,2.629,0,0,0,.639,1.767,2.009,2.009,0,0,0,1.555.673,2.2,2.2,0,0,0,1.135-.273,2.851,2.851,0,0,0,.813-.725l.772.6A3.106,3.106,0,0,1,73.876,87.137Zm-.157-6.631a1.687,1.687,0,0,0-1.285.557,2.708,2.708,0,0,0-.643,1.562H75.5v-.1a2.409,2.409,0,0,0-.52-1.494A1.588,1.588,0,0,0,73.719,80.506Zm5.7-.9.041.93a2.7,2.7,0,0,1,2.215-1.066q2.345,0,2.365,2.646V87H82.776V82.105a1.7,1.7,0,0,0-.366-1.183,1.466,1.466,0,0,0-1.118-.383,1.825,1.825,0,0,0-1.08.328,2.228,2.228,0,0,0-.725.861V87H78.224V79.6Zm13.063,7.533a3.232,3.232,0,0,1-2.447-.988,3.666,3.666,0,0,1-.943-2.642v-.232a4.438,4.438,0,0,1,.42-1.965,3.28,3.28,0,0,1,1.176-1.354,2.956,2.956,0,0,1,1.637-.489,2.77,2.77,0,0,1,2.242.95,4.114,4.114,0,0,1,.8,2.721v.526H90.357A2.629,2.629,0,0,0,91,85.431a2.009,2.009,0,0,0,1.555.673,2.2,2.2,0,0,0,1.135-.273,2.851,2.851,0,0,0,.813-.725l.772.6A3.106,3.106,0,0,1,92.483,87.137Zm-.157-6.631a1.687,1.687,0,0,0-1.285.557,2.708,2.708,0,0,0-.643,1.562H94.1v-.1a2.409,2.409,0,0,0-.52-1.494A1.588,1.588,0,0,0,92.326,80.506ZM98.205,87H96.94V76.5h1.265Zm5.182-3.76a4.333,4.333,0,0,1,.807-2.738,2.745,2.745,0,0,1,4.17-.147V76.5h1.265V87h-1.162l-.062-.793a2.575,2.575,0,0,1-2.112.93,2.526,2.526,0,0,1-2.1-1.053,4.382,4.382,0,0,1-.81-2.748Zm1.265.144a3.281,3.281,0,0,0,.52,1.969,1.68,1.68,0,0,0,1.436.711,1.845,1.845,0,0,0,1.757-1.08v-3.4a1.859,1.859,0,0,0-1.743-1.046,1.687,1.687,0,0,0-1.449.718A3.612,3.612,0,0,0,104.651,83.384ZM112.964,87H111.7V79.6h1.265ZM111.6,77.642a.755.755,0,0,1,.188-.52.706.706,0,0,1,.557-.212.717.717,0,0,1,.561.212.747.747,0,0,1,.191.52.722.722,0,0,1-.191.513.73.73,0,0,1-.561.205.718.718,0,0,1-.557-.205A.73.73,0,0,1,111.6,77.642Zm7.7,7.4a.931.931,0,0,0-.386-.8,3.718,3.718,0,0,0-1.347-.489,6.367,6.367,0,0,1-1.524-.492,2.169,2.169,0,0,1-.834-.684,1.635,1.635,0,0,1-.27-.943A1.919,1.919,0,0,1,115.7,80.1a3,3,0,0,1,1.965-.629,3.091,3.091,0,0,1,2.041.649,2.063,2.063,0,0,1,.783,1.661h-1.271a1.142,1.142,0,0,0-.441-.9,1.652,1.652,0,0,0-1.111-.376,1.729,1.729,0,0,0-1.08.3.947.947,0,0,0-.39.786.767.767,0,0,0,.362.69,4.458,4.458,0,0,0,1.309.444,6.821,6.821,0,0,1,1.535.506,2.239,2.239,0,0,1,.872.708,1.74,1.74,0,0,1,.284,1.008,1.893,1.893,0,0,1-.793,1.589,3.326,3.326,0,0,1-2.058.6,3.725,3.725,0,0,1-1.572-.314,2.557,2.557,0,0,1-1.07-.878,2.117,2.117,0,0,1-.386-1.22h1.265a1.309,1.309,0,0,0,.509,1.008,1.976,1.976,0,0,0,1.254.373,2.039,2.039,0,0,0,1.152-.291A.893.893,0,0,0,119.294,85.038Zm5.981,2.1a3.232,3.232,0,0,1-2.447-.988,3.666,3.666,0,0,1-.943-2.642v-.232a4.438,4.438,0,0,1,.42-1.965,3.28,3.28,0,0,1,1.176-1.354,2.956,2.956,0,0,1,1.637-.489,2.77,2.77,0,0,1,2.242.95,4.114,4.114,0,0,1,.8,2.721v.526h-5.011a2.629,2.629,0,0,0,.639,1.767,2.009,2.009,0,0,0,1.555.673,2.2,2.2,0,0,0,1.135-.273,2.851,2.851,0,0,0,.813-.725l.772.6A3.106,3.106,0,0,1,125.275,87.137Zm-.157-6.631a1.687,1.687,0,0,0-1.285.557,2.708,2.708,0,0,0-.643,1.562H126.9v-.1a2.409,2.409,0,0,0-.52-1.494A1.588,1.588,0,0,0,125.118,80.506Zm5.7-.9.041.93a2.7,2.7,0,0,1,2.215-1.066q2.345,0,2.365,2.646V87h-1.265V82.105a1.7,1.7,0,0,0-.366-1.183,1.466,1.466,0,0,0-1.118-.383,1.825,1.825,0,0,0-1.08.328,2.228,2.228,0,0,0-.725.861V87h-1.265V79.6ZM135,76.719a1.7,1.7,0,0,1-.42,1.2,1.365,1.365,0,0,1-1.049.458,1.54,1.54,0,0,1-.485-.068,2.618,2.618,0,0,1-.537-.28,2.324,2.324,0,0,0-.479-.256,1.171,1.171,0,0,0-.338-.044.627.627,0,0,0-.479.215.781.781,0,0,0-.2.55l-.848-.048a1.784,1.784,0,0,1,.414-1.21,1.326,1.326,0,0,1,1.049-.479,1.275,1.275,0,0,1,.431.068,3.138,3.138,0,0,1,.52.267,3.057,3.057,0,0,0,.5.26,1.154,1.154,0,0,0,.386.062.612.612,0,0,0,.489-.232.815.815,0,0,0,.195-.54Zm2.01,6.515a4.369,4.369,0,0,1,.427-1.955,3.187,3.187,0,0,1,1.189-1.34,3.238,3.238,0,0,1,1.74-.472,3.119,3.119,0,0,1,2.444,1.046,4.024,4.024,0,0,1,.933,2.782v.089a4.407,4.407,0,0,1-.414,1.938,3.14,3.14,0,0,1-1.183,1.336,3.275,3.275,0,0,1-1.767.479,3.111,3.111,0,0,1-2.437-1.046,4,4,0,0,1-.933-2.769Zm1.271.15a3.164,3.164,0,0,0,.571,1.976,1.934,1.934,0,0,0,3.059-.01,3.46,3.46,0,0,0,.567-2.116,3.159,3.159,0,0,0-.578-1.972,1.836,1.836,0,0,0-1.535-.755,1.816,1.816,0,0,0-1.511.745A3.434,3.434,0,0,0,138.284,83.384Zm10.206-.144A4.333,4.333,0,0,1,149.3,80.5a2.745,2.745,0,0,1,4.17-.147V76.5h1.265V87h-1.162l-.062-.793a2.575,2.575,0,0,1-2.112.93,2.526,2.526,0,0,1-2.1-1.053,4.382,4.382,0,0,1-.81-2.748Zm1.265.144a3.281,3.281,0,0,0,.52,1.969,1.68,1.68,0,0,0,1.436.711,1.845,1.845,0,0,0,1.757-1.08v-3.4a1.859,1.859,0,0,0-1.743-1.046,1.687,1.687,0,0,0-1.449.718A3.612,3.612,0,0,0,149.755,83.384Zm10.008,3.753a3.232,3.232,0,0,1-2.447-.988,3.666,3.666,0,0,1-.943-2.642v-.232a4.438,4.438,0,0,1,.42-1.965,3.279,3.279,0,0,1,1.176-1.354,2.956,2.956,0,0,1,1.637-.489,2.77,2.77,0,0,1,2.242.95,4.114,4.114,0,0,1,.8,2.721v.526h-5.011a2.629,2.629,0,0,0,.639,1.767,2.009,2.009,0,0,0,1.555.673,2.2,2.2,0,0,0,1.135-.273,2.851,2.851,0,0,0,.813-.725l.772.6A3.106,3.106,0,0,1,159.763,87.137Zm-.157-6.631a1.687,1.687,0,0,0-1.285.557,2.708,2.708,0,0,0-.643,1.562h3.705v-.1a2.409,2.409,0,0,0-.52-1.494A1.588,1.588,0,0,0,159.605,80.506ZM168.95,87h-1.265V76.5h1.265Zm6.59,0a2.657,2.657,0,0,1-.178-.779,2.822,2.822,0,0,1-2.105.916,2.611,2.611,0,0,1-1.794-.619,2,2,0,0,1-.7-1.569,2.091,2.091,0,0,1,.878-1.794,4.142,4.142,0,0,1,2.471-.639h1.23v-.581a1.42,1.42,0,0,0-.4-1.056,1.593,1.593,0,0,0-1.169-.393,1.844,1.844,0,0,0-1.135.342,1.007,1.007,0,0,0-.458.827h-1.271a1.745,1.745,0,0,1,.393-1.07,2.683,2.683,0,0,1,1.066-.817,3.588,3.588,0,0,1,1.48-.3,2.924,2.924,0,0,1,2,.639,2.306,2.306,0,0,1,.752,1.76v3.4a4.162,4.162,0,0,0,.26,1.62V87Zm-2.1-.964a2.223,2.223,0,0,0,1.128-.308,1.861,1.861,0,0,0,.772-.8V83.411h-.991q-2.324,0-2.324,1.36a1.151,1.151,0,0,0,.4.93A1.524,1.524,0,0,0,173.441,86.036ZM7.205,101.384a4.429,4.429,0,0,1-.772,2.721,2.476,2.476,0,0,1-2.092,1.032,2.713,2.713,0,0,1-2.119-.854v3.562H.957V97.6H2.112l.062.82a2.605,2.605,0,0,1,2.146-.957,2.522,2.522,0,0,1,2.109,1,4.477,4.477,0,0,1,.776,2.8ZM5.94,101.24a3.268,3.268,0,0,0-.533-1.976,1.718,1.718,0,0,0-1.463-.725,1.859,1.859,0,0,0-1.723,1.019v3.534A1.863,1.863,0,0,0,3.958,104.1a1.71,1.71,0,0,0,1.446-.721A3.567,3.567,0,0,0,5.94,101.24ZM13.378,105a2.657,2.657,0,0,1-.178-.779,2.822,2.822,0,0,1-2.105.916,2.611,2.611,0,0,1-1.794-.619,2,2,0,0,1-.7-1.569,2.091,2.091,0,0,1,.878-1.794,4.141,4.141,0,0,1,2.471-.639h1.23v-.581a1.42,1.42,0,0,0-.4-1.056,1.593,1.593,0,0,0-1.169-.393,1.844,1.844,0,0,0-1.135.342,1.007,1.007,0,0,0-.458.827H8.75a1.745,1.745,0,0,1,.393-1.07,2.683,2.683,0,0,1,1.066-.817,3.588,3.588,0,0,1,1.48-.3,2.924,2.924,0,0,1,2,.639,2.306,2.306,0,0,1,.752,1.76v3.4a4.162,4.162,0,0,0,.26,1.62V105Zm-2.1-.964a2.223,2.223,0,0,0,1.128-.308,1.861,1.861,0,0,0,.772-.8v-1.518h-.991q-2.324,0-2.324,1.36a1.151,1.151,0,0,0,.4.93A1.524,1.524,0,0,0,11.279,104.036ZM12.448,94.5h1.531l-1.832,2.01-1.019,0Zm3.678,6.74a4.347,4.347,0,0,1,.8-2.751,2.558,2.558,0,0,1,2.119-1.022,2.544,2.544,0,0,1,2.112.957l.062-.82h1.155v7.219a3.009,3.009,0,0,1-.851,2.263,3.141,3.141,0,0,1-2.287.827,3.8,3.8,0,0,1-1.565-.342,2.7,2.7,0,0,1-1.169-.937l.656-.759a2.473,2.473,0,0,0,1.989,1,1.938,1.938,0,0,0,1.439-.52A1.986,1.986,0,0,0,21.1,104.9v-.636a2.6,2.6,0,0,1-2.071.875,2.527,2.527,0,0,1-2.1-1.046A4.571,4.571,0,0,1,16.126,101.24Zm1.271.144a3.316,3.316,0,0,0,.513,1.965,1.666,1.666,0,0,0,1.436.714,1.852,1.852,0,0,0,1.757-1.087V99.6a1.874,1.874,0,0,0-1.743-1.06,1.681,1.681,0,0,0-1.442.718A3.612,3.612,0,0,0,17.4,101.384ZM25.655,105H24.391V97.6h1.265Zm-1.367-9.358a.755.755,0,0,1,.188-.52.706.706,0,0,1,.557-.212.717.717,0,0,1,.561.212.747.747,0,0,1,.191.52.722.722,0,0,1-.191.513.73.73,0,0,1-.561.205.718.718,0,0,1-.557-.205A.73.73,0,0,1,24.288,95.642ZM28.875,97.6l.041.93a2.7,2.7,0,0,1,2.215-1.066q2.345,0,2.365,2.646V105H32.231v-4.895a1.7,1.7,0,0,0-.366-1.183,1.466,1.466,0,0,0-1.118-.383,1.825,1.825,0,0,0-1.08.328,2.228,2.228,0,0,0-.725.861V105H27.679V97.6ZM39.97,105a2.657,2.657,0,0,1-.178-.779,2.822,2.822,0,0,1-2.105.916,2.611,2.611,0,0,1-1.794-.619,2,2,0,0,1-.7-1.569,2.091,2.091,0,0,1,.878-1.794,4.141,4.141,0,0,1,2.471-.639h1.23v-.581a1.42,1.42,0,0,0-.4-1.056,1.593,1.593,0,0,0-1.169-.393,1.844,1.844,0,0,0-1.135.342,1.007,1.007,0,0,0-.458.827H35.342a1.745,1.745,0,0,1,.393-1.07,2.683,2.683,0,0,1,1.066-.817,3.588,3.588,0,0,1,1.48-.3,2.924,2.924,0,0,1,2,.639,2.306,2.306,0,0,1,.752,1.76v3.4a4.162,4.162,0,0,0,.26,1.62V105Zm-2.1-.964A2.223,2.223,0,0,0,39,103.729a1.861,1.861,0,0,0,.772-.8v-1.518H38.78q-2.324,0-2.324,1.36a1.151,1.151,0,0,0,.4.93A1.524,1.524,0,0,0,37.871,104.036Zm8.306-2.8a4.333,4.333,0,0,1,.807-2.738,2.745,2.745,0,0,1,4.17-.147V94.5h1.265V105H51.256l-.062-.793a2.575,2.575,0,0,1-2.112.93,2.526,2.526,0,0,1-2.1-1.053,4.382,4.382,0,0,1-.81-2.748Zm1.265.144a3.281,3.281,0,0,0,.52,1.969,1.68,1.68,0,0,0,1.436.711,1.845,1.845,0,0,0,1.757-1.08v-3.4A1.859,1.859,0,0,0,49.41,98.54a1.687,1.687,0,0,0-1.449.718A3.612,3.612,0,0,0,47.441,101.384Zm10.008,3.753A3.232,3.232,0,0,1,55,104.149a3.666,3.666,0,0,1-.943-2.642v-.232a4.438,4.438,0,0,1,.42-1.965,3.279,3.279,0,0,1,1.176-1.354,2.956,2.956,0,0,1,1.637-.489,2.77,2.77,0,0,1,2.242.95,4.114,4.114,0,0,1,.8,2.721v.526H55.323a2.629,2.629,0,0,0,.639,1.767,2.009,2.009,0,0,0,1.555.673,2.2,2.2,0,0,0,1.135-.273,2.851,2.851,0,0,0,.813-.725l.772.6A3.106,3.106,0,0,1,57.449,105.137Zm-.157-6.631a1.687,1.687,0,0,0-1.285.557,2.708,2.708,0,0,0-.643,1.562h3.705v-.1a2.409,2.409,0,0,0-.52-1.494A1.588,1.588,0,0,0,57.292,98.506ZM63.171,105H61.906V94.5h1.265Zm9.8-1.962a.931.931,0,0,0-.386-.8,3.718,3.718,0,0,0-1.347-.489,6.367,6.367,0,0,1-1.524-.492,2.169,2.169,0,0,1-.834-.684,1.635,1.635,0,0,1-.27-.943,1.919,1.919,0,0,1,.769-1.538,3,3,0,0,1,1.965-.629,3.091,3.091,0,0,1,2.041.649,2.063,2.063,0,0,1,.783,1.661H72.892a1.142,1.142,0,0,0-.441-.9,1.652,1.652,0,0,0-1.111-.376,1.729,1.729,0,0,0-1.08.3.947.947,0,0,0-.39.786.767.767,0,0,0,.362.69,4.458,4.458,0,0,0,1.309.444,6.821,6.821,0,0,1,1.535.506,2.239,2.239,0,0,1,.872.708,1.74,1.74,0,0,1,.284,1.008,1.893,1.893,0,0,1-.793,1.589,3.326,3.326,0,0,1-2.058.6,3.725,3.725,0,0,1-1.572-.314,2.557,2.557,0,0,1-1.07-.878,2.117,2.117,0,0,1-.386-1.22h1.265a1.309,1.309,0,0,0,.509,1.008,1.976,1.976,0,0,0,1.254.373,2.039,2.039,0,0,0,1.152-.291A.893.893,0,0,0,72.967,103.038Zm2.577-1.8a4.369,4.369,0,0,1,.427-1.955,3.187,3.187,0,0,1,1.189-1.34,3.238,3.238,0,0,1,1.74-.472,3.119,3.119,0,0,1,2.444,1.046,4.024,4.024,0,0,1,.933,2.782v.089a4.407,4.407,0,0,1-.414,1.938,3.14,3.14,0,0,1-1.183,1.336,3.275,3.275,0,0,1-1.767.479,3.111,3.111,0,0,1-2.437-1.046,4,4,0,0,1-.933-2.769Zm1.271.15a3.164,3.164,0,0,0,.571,1.976,1.934,1.934,0,0,0,3.059-.01,3.46,3.46,0,0,0,.567-2.116,3.159,3.159,0,0,0-.578-1.972,1.836,1.836,0,0,0-1.535-.755,1.816,1.816,0,0,0-1.511.745A3.434,3.434,0,0,0,76.815,101.384Zm13.3,0a4.429,4.429,0,0,1-.772,2.721,2.476,2.476,0,0,1-2.092,1.032,2.713,2.713,0,0,1-2.119-.854v3.562H83.863V97.6h1.155l.062.82a2.605,2.605,0,0,1,2.146-.957,2.522,2.522,0,0,1,2.109,1,4.477,4.477,0,0,1,.776,2.8Zm-1.265-.144a3.268,3.268,0,0,0-.533-1.976,1.718,1.718,0,0,0-1.463-.725,1.859,1.859,0,0,0-1.723,1.019v3.534a1.863,1.863,0,0,0,1.736,1.012,1.71,1.71,0,0,0,1.446-.721A3.567,3.567,0,0,0,88.847,101.24Zm2.536-.007a4.369,4.369,0,0,1,.427-1.955A3.187,3.187,0,0,1,93,97.938a3.238,3.238,0,0,1,1.74-.472,3.119,3.119,0,0,1,2.444,1.046,4.024,4.024,0,0,1,.933,2.782v.089a4.407,4.407,0,0,1-.414,1.938,3.14,3.14,0,0,1-1.183,1.336,3.275,3.275,0,0,1-1.767.479,3.111,3.111,0,0,1-2.437-1.046,4,4,0,0,1-.933-2.769Zm1.271.15a3.164,3.164,0,0,0,.571,1.976,1.934,1.934,0,0,0,3.059-.01,3.46,3.46,0,0,0,.567-2.116,3.159,3.159,0,0,0-.578-1.972,1.836,1.836,0,0,0-1.535-.755,1.816,1.816,0,0,0-1.511.745A3.434,3.434,0,0,0,92.654,101.384Zm10.623-2.646a3.79,3.79,0,0,0-.622-.048,1.667,1.667,0,0,0-1.688,1.06V105H99.7V97.6h1.23l.021.854a1.969,1.969,0,0,1,1.764-.991,1.292,1.292,0,0,1,.561.1Zm3.22-2.926V97.6h1.381v.978H106.5v4.593a1.027,1.027,0,0,0,.185.667.777.777,0,0,0,.629.222,3.062,3.062,0,0,0,.6-.082V105a3.688,3.688,0,0,1-.971.136,1.575,1.575,0,0,1-1.278-.513,2.2,2.2,0,0,1-.431-1.456V98.581h-1.347V97.6h1.347V95.813Zm5.927,9.324a3.232,3.232,0,0,1-2.447-.988,3.666,3.666,0,0,1-.943-2.642v-.232a4.438,4.438,0,0,1,.42-1.965,3.28,3.28,0,0,1,1.176-1.354,2.956,2.956,0,0,1,1.637-.489,2.77,2.77,0,0,1,2.242.95,4.114,4.114,0,0,1,.8,2.721v.526H110.3a2.629,2.629,0,0,0,.639,1.767,2.009,2.009,0,0,0,1.555.673,2.2,2.2,0,0,0,1.135-.273,2.851,2.851,0,0,0,.813-.725l.772.6A3.106,3.106,0,0,1,112.424,105.137Zm-.157-6.631a1.687,1.687,0,0,0-1.285.557,2.708,2.708,0,0,0-.643,1.562h3.705v-.1a2.409,2.409,0,0,0-.52-1.494A1.588,1.588,0,0,0,112.267,98.506Zm4.532,5.831a.792.792,0,0,1,.195-.547.742.742,0,0,1,.584-.219.765.765,0,0,1,.591.219.776.776,0,0,1,.2.547.734.734,0,0,1-.2.526.778.778,0,0,1-.591.212.7.7,0,0,1-.779-.738Z" transform="translate(13694 3816)" fill="#12263f"/>
    <path id="Trazado_624828" data-name="Trazado 624828" d="M-28.641,0V-11.375h3.984a5.232,5.232,0,0,1,3.141.793,2.712,2.712,0,0,1,1.07,2.324,2.57,2.57,0,0,1-.43,1.473,2.482,2.482,0,0,1-1.2.934,2.4,2.4,0,0,1,1.379.883,2.61,2.61,0,0,1,.5,1.625A3,3,0,0,1-21.234-.859,4.713,4.713,0,0,1-24.219,0ZM-26.3-4.953v3.07h2.008A1.938,1.938,0,0,0-23-2.277a1.353,1.353,0,0,0,.465-1.09,1.428,1.428,0,0,0-1.617-1.586Zm0-1.656h1.734q1.773-.031,1.773-1.414a1.307,1.307,0,0,0-.449-1.113,2.363,2.363,0,0,0-1.418-.34H-26.3Zm7.367,2.3a5.013,5.013,0,0,1,.484-2.242A3.546,3.546,0,0,1-17.051-8.07a4.069,4.069,0,0,1,2.113-.539,3.849,3.849,0,0,1,2.793,1.047,4.2,4.2,0,0,1,1.207,2.844l.016.578A4.418,4.418,0,0,1-12.008-1.02,3.775,3.775,0,0,1-14.922.156,3.793,3.793,0,0,1-17.84-1.016,4.5,4.5,0,0,1-18.93-4.2Zm2.258.16A3.16,3.16,0,0,0-16.219-2.3a1.5,1.5,0,0,0,1.3.638,1.5,1.5,0,0,0,1.281-.63,3.457,3.457,0,0,0,.461-2.015,3.128,3.128,0,0,0-.461-1.831,1.5,1.5,0,0,0-1.3-.649,1.474,1.474,0,0,0-1.281.646A3.516,3.516,0,0,0-16.672-4.144Zm9.844-6.387v2.078h1.445V-6.8H-6.828v4.219a1.007,1.007,0,0,0,.18.672.9.9,0,0,0,.688.2A3.6,3.6,0,0,0-5.3-1.758V-.047a4.648,4.648,0,0,1-1.367.2,2.156,2.156,0,0,1-2.422-2.4V-6.8H-10.32V-8.453h1.234v-2.078ZM-4.711-4.3a5.013,5.013,0,0,1,.484-2.242A3.546,3.546,0,0,1-2.832-8.07,4.069,4.069,0,0,1-.719-8.609,3.849,3.849,0,0,1,2.074-7.562,4.2,4.2,0,0,1,3.281-4.719l.016.578A4.418,4.418,0,0,1,2.211-1.02,3.775,3.775,0,0,1-.7.156,3.793,3.793,0,0,1-3.621-1.016,4.5,4.5,0,0,1-4.711-4.2Zm2.258.16A3.16,3.16,0,0,0-2-2.3a1.5,1.5,0,0,0,1.3.638,1.5,1.5,0,0,0,1.281-.63,3.457,3.457,0,0,0,.461-2.015A3.128,3.128,0,0,0,.578-6.14a1.5,1.5,0,0,0-1.3-.649A1.474,1.474,0,0,0-2-6.144,3.516,3.516,0,0,0-2.453-4.144ZM6.766-8.453l.07.977a2.951,2.951,0,0,1,2.43-1.133,2.453,2.453,0,0,1,2,.789,3.682,3.682,0,0,1,.672,2.359V0H9.68V-5.406a1.465,1.465,0,0,0-.312-1.043,1.4,1.4,0,0,0-1.039-.324,1.553,1.553,0,0,0-1.43.813V0H4.641V-8.453ZM17.539.156A4.15,4.15,0,0,1,14.512-.984a4.054,4.054,0,0,1-1.168-3.039v-.219a5.106,5.106,0,0,1,.492-2.277A3.612,3.612,0,0,1,15.23-8.066a3.914,3.914,0,0,1,2.059-.543,3.508,3.508,0,0,1,2.73,1.094,4.444,4.444,0,0,1,1,3.1v.922H15.633a2.1,2.1,0,0,0,.66,1.328,2,2,0,0,0,1.395.5,2.437,2.437,0,0,0,2.039-.945l1.109,1.242A3.389,3.389,0,0,1,19.461-.246,4.511,4.511,0,0,1,17.539.156Zm-.258-6.945a1.411,1.411,0,0,0-1.09.455,2.357,2.357,0,0,0-.535,1.3H18.8v-.181a1.681,1.681,0,0,0-.406-1.165A1.456,1.456,0,0,0,17.281-6.789Zm9.594,4.453a.727.727,0,0,0-.41-.652,4.659,4.659,0,0,0-1.316-.426q-3.016-.633-3.016-2.562a2.323,2.323,0,0,1,.934-1.879,3.766,3.766,0,0,1,2.441-.754,4.053,4.053,0,0,1,2.574.758,2.388,2.388,0,0,1,.965,1.969H26.789a1.092,1.092,0,0,0-.312-.8A1.322,1.322,0,0,0,25.5-7a1.351,1.351,0,0,0-.883.258.814.814,0,0,0-.312.656.7.7,0,0,0,.355.605,3.657,3.657,0,0,0,1.2.4,9.8,9.8,0,0,1,1.422.379A2.336,2.336,0,0,1,29.07-2.43a2.2,2.2,0,0,1-.992,1.871,4.28,4.28,0,0,1-2.562.715,4.47,4.47,0,0,1-1.887-.379,3.166,3.166,0,0,1-1.293-1.039,2.414,2.414,0,0,1-.469-1.426h2.141a1.179,1.179,0,0,0,.445.922,1.766,1.766,0,0,0,1.109.32,1.635,1.635,0,0,0,.98-.246A.766.766,0,0,0,26.875-2.336Z" transform="translate(13876 3805)" fill="#12263f"/>
    <path id="Trazado_624829" data-name="Trazado 624829" d="M13,0A13,13,0,1,1,0,13,13,13,0,0,1,13,0Z" transform="translate(13816 3786)" fill="#12263f"/>
    <path id="Trazado_624830" data-name="Trazado 624830" d="M2.863-4.281H4.152v1.82H2.863V0H.605V-2.461H-4.059l-.1-1.422L.582-11.375H2.863Zm-4.773,0H.605V-8.3l-.148.258Z" transform="translate(13829 3805)" fill="#fff"/>
    <path id="Trazado_621967" data-name="Trazado 621967" d="M9640.333,3244v66H9680.4" transform="translate(4137 489)" fill="none" stroke="#12263f" stroke-width="2"/>
  </g>
</svg>
