<svg xmlns="http://www.w3.org/2000/svg" width="118" height="118" viewBox="0 0 118 118">
  <g id="Grupo_878011" data-name="Grupo 878011" transform="translate(-2156.234 -4896.914)">
    <g id="Elipse_6905" data-name="Elipse 6905" transform="translate(2156.234 4896.914)" fill="#fff" stroke="#ffb338" stroke-width="3">
      <circle cx="59" cy="59" r="59" stroke="none"/>
      <circle cx="59" cy="59" r="57.5" fill="none"/>
    </g>
    <g id="Grupo_870584" data-name="Grupo 870584" transform="translate(2177.026 4922.872)">
      <path id="Trazado_609257" data-name="Trazado 609257" d="M125.32,266.134l17.208-5.916a4.022,4.022,0,1,1,2.973,7.475l-26.317,11.587a16.547,16.547,0,0,1-15.368-.874l-7.366-4.42A15.17,15.17,0,0,0,90,272.324V252.6h11.151a8.441,8.441,0,0,1,4.144,1.086l7.442,4.186a2.814,2.814,0,0,0,1.382.362h9.121a4.225,4.225,0,0,1,2.08,7.9Zm0,0" transform="translate(-77.324 -216.589)" fill="#ffcebf"/>
      <path id="Trazado_609258" data-name="Trazado 609258" d="M194.215,10.5c5.411,0,9.141,4.542,9.141,9.923,0,7.119-6.713,11.886-18.114,21.768-10.842-9.4-18.452-14.325-18.452-21.768,0-5.38,3.73-9.923,9.142-9.923,6.947,0,9.141,7.922,9.141,7.922s2.194-7.922,9.142-7.922Zm0,0" transform="translate(-143.298 -8.591)" fill="#b1de19"/>
      <path id="Trazado_609259" data-name="Trazado 609259" d="M21.268,235.415v19.727a2.816,2.816,0,0,1-2.817,2.808H10V232.6h8.451a2.816,2.816,0,0,1,2.817,2.817Zm0,0" transform="translate(-8.592 -199.407)" fill="#faecd8"/>
      <path id="Trazado_609260" data-name="Trazado 609260" d="M41.408,262.6a1.408,1.408,0,1,0,1.408,1.408A1.409,1.409,0,0,0,41.408,262.6Zm0,0" transform="translate(-34.366 -225.182)" fill="#12263f"/>
      <path id="Trazado_609261" data-name="Trazado 609261" d="M64.736,233.115,51.458,237.68a5.62,5.62,0,0,0-5.542-6.632H36.795a1.409,1.409,0,0,1-.692-.181l-7.441-4.185a9.868,9.868,0,0,0-4.835-1.268H13.842A4.231,4.231,0,0,0,9.859,222.6H1.408A1.408,1.408,0,0,0,0,224.006v25.352a1.408,1.408,0,0,0,1.408,1.408H9.859a4.234,4.234,0,0,0,3.943-2.711,12.858,12.858,0,0,1,4.6,1.365l7.366,4.42a17.955,17.955,0,0,0,16.668.951l26.288-11.575a5.43,5.43,0,0,0-3.988-10.1ZM11.268,246.547a1.41,1.41,0,0,1-1.408,1.4H2.817V225.414H9.859a1.41,1.41,0,0,1,1.408,1.408Zm56.386-5.936-.045.018L41.276,252.224a15.138,15.138,0,0,1-14.06-.8l-7.366-4.42a15.531,15.531,0,0,0-5.765-1.753V228.231h9.742a7.046,7.046,0,0,1,3.454.905l7.441,4.185a4.232,4.232,0,0,0,2.073.544h9.121a2.817,2.817,0,0,1,0,5.634H31.6a1.408,1.408,0,1,0,0,2.816H45.916a5.623,5.623,0,0,0,2.64-.66l17.126-5.887a2.614,2.614,0,1,1,1.972,4.842Zm0,0" transform="translate(0 -190.815)"/>
      <path id="Trazado_609262" data-name="Trazado 609262" d="M178.442,34.664a1.41,1.41,0,0,0,1.845,0c11.492-9.959,18.6-15,18.6-22.832C198.887,5.636,194.5.5,188.338.5c-4.047,0-7.146,2.333-9.142,5.834C177.2,2.841,174.108.5,170.055.5a10.4,10.4,0,0,0-10.049,7.788,1.408,1.408,0,1,0,2.7.792,7.642,7.642,0,0,1,7.346-5.764c4.018,0,6.837,3.568,7.783,6.89a1.408,1.408,0,0,0,2.715,0c.019-.069,1.976-6.89,7.785-6.89,4.408,0,7.732,3.66,7.732,8.514,0,6.266-6.125,10.783-16.707,19.907-6.448-5.537-11.569-9.435-14.48-13.247a1.409,1.409,0,1,0-2.239,1.709c3.281,4.3,8.821,8.415,15.8,14.463Zm0,0" transform="translate(-137.421)"/>
      <path id="Trazado_609263" data-name="Trazado 609263" d="M160.408,88.6a1.408,1.408,0,1,0,1.408,1.408A1.409,1.409,0,0,0,160.408,88.6Zm0,0" transform="translate(-136.605 -75.689)" fill="#12263f"/>
    </g>
  </g>
</svg>
