<svg xmlns="http://www.w3.org/2000/svg" xmlns:xlink="http://www.w3.org/1999/xlink" width="585.65" height="594.891" viewBox="0 0 585.65 594.891">
  <defs>
    <clipPath id="clip-path">
      <circle id="Elipse_7031" data-name="Elipse 7031" cx="218.179" cy="218.179" r="218.179" transform="matrix(0.994, -0.105, 0.105, 0.994, 0, 45.77)" fill="none"/>
    </clipPath>
    <clipPath id="clip-path-2">
      <path id="Trazado_622000" data-name="Trazado 622000" d="M535.75,169.786c0,4.144-2.749,7.5-6.143,7.5H402.581c-3.393,0-6.144-3.361-6.144-7.5V20.358c0-4.145,2.751-7.5,6.144-7.5H529.607c3.394,0,6.143,3.36,6.143,7.5Z" transform="translate(-396.437 -12.853)" fill="none"/>
    </clipPath>
    <clipPath id="clip-path-3">
      <path id="Trazado_622012" data-name="Trazado 622012" d="M769.006,427.094c0,4.145-2.751,7.5-6.144,7.5H635.835c-3.392,0-6.143-3.359-6.143-7.5V277.667c0-4.145,2.751-7.5,6.143-7.5H762.863c3.393,0,6.144,3.359,6.144,7.5Z" transform="translate(-629.692 -270.163)" fill="none"/>
    </clipPath>
    <clipPath id="clip-path-4">
      <path id="Trazado_622026" data-name="Trazado 622026" d="M295.287,427.094c0,4.145-2.752,7.5-6.145,7.5H162.116c-3.393,0-6.144-3.359-6.144-7.5V277.667c0-4.145,2.751-7.5,6.144-7.5H289.142c3.393,0,6.145,3.359,6.145,7.5Z" transform="translate(-155.972 -270.163)" fill="none"/>
    </clipPath>
  </defs>
  <g id="Grupo_1034301" data-name="Grupo 1034301" transform="translate(-190.898 -16742.145)">
    <g id="Grupo_879292" data-name="Grupo 879292" transform="translate(43.693 16742.291)">
      <g id="Grupo_879281" data-name="Grupo 879281" transform="translate(201.996 3.178)">
        <circle id="Elipse_7030" data-name="Elipse 7030" cx="218.179" cy="218.179" r="218.179" transform="matrix(0.994, -0.105, 0.105, 0.994, 0, 45.77)" fill="#3d672f"/>
        <path id="Trazado_621986" data-name="Trazado 621986" d="M471.917,30.034V466.378c120.334-.2,217.809-97.8,217.809-218.173S592.251,30.235,471.917,30.034Z" transform="translate(-231.687 -8.345)" fill="#b6e1fd" opacity="0.4" style="mix-blend-mode: multiply;isolation: isolate"/>
        <g id="Grupo_879280" data-name="Grupo 879280" transform="translate(0 0)">
          <g id="Grupo_879279" data-name="Grupo 879279" transform="translate(0 0)" clip-path="url(#clip-path)">
            <path id="Trazado_621987" data-name="Trazado 621987" d="M479.085,35.64c-.868,12.029-11.9,27.235-17.776,36.043-9.51,14.253-25.863,22.758-36.609,35.933-4.754,5.828-10.259,17.09-18.01,12.287-6.1-3.776-4.564-14.8-5.44-20.8-2.2-15.049-8.922-30-24.841-33.037-7.135-1.361-16.809-2.827-18.882,6.565-2.02,9.156,7.2,11.205,12.5,16.027,15.682,14.276-1.866,26.98,3.6,43.584,3.319,10.091,23.988,29.941,4.959,38-8.076,3.421-14.036-5.546-21.974-3.114-4.538,1.391-11.036,10.886-13.5,15.173-3.331,5.8-6.435,13.826-5.414,20.8.9,6.126,9.24,12.725,5.719,19.9-6.884,14.028-24.955-17.542-38.808-14.232-19.236,4.6,8.7,24.881,15.865,30.491,12.548,9.83,27.752,4.407,41.767,10.355,38.332,16.281,62.489,50.706,34.768,89.3-8.16,11.363-15.6,21.22-19.118,35.059-3.572,14.036-2.707,30.321-8.714,43.366-3.881,8.43-18.083-10.982-18.981-13.322-3.274-8.54-.909-17.875-1-26.831-.257-25.918-5.755-53.255-16.911-76.711-4.1-8.615-6.985-12.711-6.878-22.692.077-7.151,3.061-15.187-1.133-21.507-2.934-4.42-12.9-9.243-17.018-12.526-11.071-8.822-24.294-14.477-34.307-24.472-5.5-5.51-7.586-17.807-10.336-24.915-4.186-10.826-13.542-23.024-13.786-34.758-.62-30,15.078-43.777,29.709-66.609,8.793-13.721,20.674-28.242,35.739-35.77l26.113-13.05s93.527-32.628,96.788-31.543,31.534,7.612,31.534,7.612C476.956,23.352,479.562,29.014,479.085,35.64Z" transform="translate(-211.286 -6.752)" fill="#8bd0e5" opacity="0.5"/>
            <path id="Trazado_621988" data-name="Trazado 621988" d="M623.513,107.135c-13.588.324-24.088-12.907-39.036-8.995-17.314,4.531-28.752,15.8-30.254,33.322-.744,8.695,4.617,14.241,4.749,21.724.089,5.076-6.134,18.716-13.069,16.9-4.678-1.227-4.53-13.488-10.539-15.033-10.21-2.625-9.239,9.3-6.434,14.988,2.343,4.751,10.167,8.795,8.294,15.313-1.964,6.827-11.6,4.51-16.325,9.223-15.283,15.246,12.121,16.072,21.243,12.76,15.551-5.644,27.531-6.836,44.215-2.341,5.936,1.6,20.5,5.2,22.123,12.525,1.648,7.434-9.794,14.59-16.674,13.97C585.059,230.879,581.8,221.1,576,217.264c-12.748-8.441-32.567-1.159-43.566,7.587-20.067,15.954-41.856,58.713-4.652,64.711,15.385,2.479,34.835,5.053,39.738,22.556,3.753,13.4.767,30.818.551,44.662l7.171,42.4,6.574,10.752s8.958,2.993,10.749,0,34.05-37.018,34.05-37.018l14.924-13.748,7.168-16.118s-20.9-7.772-18.516-8.36S648.7,307.807,648.7,307.807l2.984-19.709-13.136-4.178L618.84,242.708l6.57-3,18.514,35.247,17.32-5.967,13.737-42.409s10.761-93.76,9.559-96.744-11.346-38.826-15.529-41.815c-6.3-4.46-30.865,14.162-36.6,16.9A21.566,21.566,0,0,1,623.513,107.135Z" transform="translate(-234.946 -13.585)" fill="#8bd0e5" opacity="0.5"/>
          </g>
        </g>
      </g>
      <path id="Trazado_621989" data-name="Trazado 621989" d="M367.472,522.42H297.517a4.544,4.544,0,0,1-4.543-4.543V472.891a4.543,4.543,0,0,1,4.544-4.543h48.188c13.326,0,26.309-26.275,26.309-26.275v75.8A4.543,4.543,0,0,1,367.472,522.42Z" transform="translate(-13.329 -42.843)" fill="#9e2963"/>
      <path id="Trazado_621990" data-name="Trazado 621990" d="M542.914,177.385c0,4.618-3.064,8.362-6.846,8.362H394.516c-3.78,0-6.847-3.744-6.847-8.362V10.866c0-4.618,3.066-8.362,6.847-8.362H536.068c3.782,0,6.846,3.744,6.846,8.362Z" transform="translate(-21.988 -2.65)" fill="#e6e7e8" opacity="0.8"/>
      <g id="Grupo_879284" data-name="Grupo 879284" transform="translate(373.648 9.257)">
        <g id="Grupo_879283" data-name="Grupo 879283" clip-path="url(#clip-path-2)">
          <g id="Grupo_879282" data-name="Grupo 879282" transform="translate(16.473 10.465)">
            <path id="Trazado_621991" data-name="Trazado 621991" d="M523.662,198.955V173.887c0-26.323-21.339-37.953-47.663-37.953H462.228c-26.321,0-47.66,11.63-47.66,37.953v25.068Z" transform="translate(-414.568 -34.572)" fill="#8dc63f"/>
            <path id="Trazado_621992" data-name="Trazado 621992" d="M485.845,139.194c0,6.9-5.6,9.614-12.5,9.614h0c-6.9,0-12.5-2.711-12.5-9.614V112.85a12.5,12.5,0,0,1,12.5-12.5h0a12.5,12.5,0,0,1,12.5,12.5Z" transform="translate(-418.8 -31.318)" fill="#efdb95"/>
            <path id="Trazado_621993" data-name="Trazado 621993" d="M506.944,70.713V60.176a35.959,35.959,0,0,0-71.918,0V70.713Z" transform="translate(-416.439 -24.371)" fill="#594a42"/>
            <path id="Trazado_621994" data-name="Trazado 621994" d="M504.177,91.329a32.883,32.883,0,0,1-32.884,32.883h0a32.882,32.882,0,0,1-32.882-32.883V61.908a32.882,32.882,0,0,1,32.882-32.881h0a32.883,32.883,0,0,1,32.884,32.881Z" transform="translate(-416.748 -24.797)" fill="#efbf6b"/>
            <path id="Trazado_621995" data-name="Trazado 621995" d="M443.253,84.005a5.383,5.383,0,0,1-5.383,5.385h0a5.384,5.384,0,0,1-5.383-5.385V72.084A5.384,5.384,0,0,1,437.87,66.7h0a5.383,5.383,0,0,1,5.383,5.384Z" transform="translate(-416.206 -28.242)" fill="#efbf6b"/>
            <path id="Trazado_621996" data-name="Trazado 621996" d="M515.637,84.005a5.385,5.385,0,0,1-5.383,5.385h0a5.384,5.384,0,0,1-5.384-5.385V72.084a5.383,5.383,0,0,1,5.384-5.384h0a5.384,5.384,0,0,1,5.383,5.384Z" transform="translate(-422.825 -28.242)" fill="#efbf6b"/>
            <path id="Trazado_621997" data-name="Trazado 621997" d="M471.218,28.16c-18.577,0-33.639,14.784-33.639,34.545l.757.471s4.751-.094,7.411-14.269c2.421-12.894,14.871-9.759,17.428-4.415a9.446,9.446,0,0,0,16.086,0c2.556-5.344,15.007-8.48,17.428,4.415,2.66,14.174,7.412,14.269,7.412,14.269l.757-1.378A33.64,33.64,0,0,0,471.218,28.16Z" transform="translate(-416.672 -24.717)" fill="#594a42"/>
            <path id="Trazado_621998" data-name="Trazado 621998" d="M503.724,65.116h-7.257a1.363,1.363,0,0,0-.237.024,3.518,3.518,0,0,0-.354-.035H479.3a3.527,3.527,0,0,0-3.526,3.525v.016h-9.164v-.016A3.526,3.526,0,0,0,463.09,65.1H446.518a3.516,3.516,0,0,0-.354.035,1.353,1.353,0,0,0-.236-.024H438.67a1.327,1.327,0,1,0,0,2.654h4.44a3.526,3.526,0,0,0-.118.859V81.44a3.526,3.526,0,0,0,3.525,3.526H463.09a3.526,3.526,0,0,0,3.525-3.526V72.507h9.164V81.44a3.527,3.527,0,0,0,3.526,3.526h16.571A3.525,3.525,0,0,0,499.4,81.44V68.629a3.483,3.483,0,0,0-.117-.859h4.44a1.327,1.327,0,1,0,0-2.654Zm-39.99,14.761a2.666,2.666,0,0,1-2.666,2.666H448.54a2.666,2.666,0,0,1-2.666-2.666V70.192a2.666,2.666,0,0,1,2.666-2.665h12.528a2.666,2.666,0,0,1,2.666,2.665Zm32.786,0a2.666,2.666,0,0,1-2.666,2.666H481.326a2.667,2.667,0,0,1-2.666-2.666V70.192a2.667,2.667,0,0,1,2.666-2.665h12.528a2.665,2.665,0,0,1,2.666,2.665Z" transform="translate(-416.651 -28.096)" fill="#a97c50"/>
          </g>
          <path id="Trazado_621999" data-name="Trazado 621999" d="M487.1,125.924v-4.6A32.889,32.889,0,0,0,507.487,90.9V85.52a5.385,5.385,0,0,0,5.383-5.385V68.214a5.376,5.376,0,0,0-2.307-4.415V60.176a35.883,35.883,0,0,0-35.96-35.8V188.754h54.548V163.686C529.151,139.264,510.779,127.5,487.1,125.924Z" transform="translate(-403.584 -13.906)" fill="#939598" opacity="0.3" style="mix-blend-mode: multiply;isolation: isolate"/>
        </g>
      </g>
      <path id="Trazado_622001" data-name="Trazado 622001" d="M458.184,221.85,321.728,353.445H594.639L458.184,221.85,321.728,353.445H594.639Z" transform="translate(-15.958 -22.706)" fill="none" stroke="#fff" stroke-linecap="round" stroke-linejoin="round" stroke-width="3" stroke-dasharray="9"/>
      <path id="Trazado_622002" data-name="Trazado 622002" d="M503.428,207.718a35.49,35.49,0,1,1-35.489-35.489A35.489,35.489,0,0,1,503.428,207.718Z" transform="translate(-26.082 -18.169)" fill="#12263f"/>
      <path id="Trazado_622003" data-name="Trazado 622003" d="M776.171,434.693c0,4.619-3.065,8.362-6.847,8.362H627.77c-3.78,0-6.846-3.743-6.846-8.362V268.175c0-4.617,3.066-8.362,6.846-8.362H769.324c3.781,0,6.847,3.745,6.847,8.362Z" transform="translate(-43.316 -26.178)" fill="#e6e7e8" opacity="0.8"/>
      <g id="Grupo_879287" data-name="Grupo 879287" transform="translate(585.574 243.039)">
        <g id="Grupo_879286" data-name="Grupo 879286" clip-path="url(#clip-path-3)">
          <g id="Grupo_879285" data-name="Grupo 879285" transform="translate(16.473 10.464)">
            <path id="Trazado_622004" data-name="Trazado 622004" d="M756.917,456.263V431.2c0-26.322-21.339-37.955-47.663-37.955H695.484c-26.321,0-47.661,11.633-47.661,37.955v25.066Z" transform="translate(-647.823 -291.881)" fill="#2b95f9"/>
            <path id="Trazado_622005" data-name="Trazado 622005" d="M719.1,396.5c0,6.9-5.6,9.615-12.5,9.615h0c-6.9,0-12.5-2.713-12.5-9.615V370.158a12.5,12.5,0,0,1,12.5-12.5h0a12.5,12.5,0,0,1,12.5,12.5Z" transform="translate(-652.055 -288.628)" fill="#efae4d"/>
            <path id="Trazado_622006" data-name="Trazado 622006" d="M740.2,328.023V317.485a35.959,35.959,0,0,0-71.917,0v10.538Z" transform="translate(-649.694 -281.68)" fill="#594a42"/>
            <path id="Trazado_622007" data-name="Trazado 622007" d="M737.432,348.638a32.884,32.884,0,0,1-32.883,32.884h0a32.882,32.882,0,0,1-32.882-32.884v-29.42a32.881,32.881,0,0,1,32.882-32.882h0a32.883,32.883,0,0,1,32.883,32.882Z" transform="translate(-650.003 -282.106)" fill="#efbf6b"/>
            <path id="Trazado_622008" data-name="Trazado 622008" d="M676.509,341.313a5.385,5.385,0,0,1-5.383,5.386h0a5.384,5.384,0,0,1-5.384-5.386V329.394a5.384,5.384,0,0,1,5.384-5.385h0a5.385,5.385,0,0,1,5.383,5.385Z" transform="translate(-649.461 -285.55)" fill="#efbf6b"/>
            <path id="Trazado_622009" data-name="Trazado 622009" d="M748.892,341.313a5.385,5.385,0,0,1-5.383,5.386h0a5.385,5.385,0,0,1-5.385-5.386V329.394a5.385,5.385,0,0,1,5.385-5.385h0a5.385,5.385,0,0,1,5.383,5.385Z" transform="translate(-656.08 -285.55)" fill="#efbf6b"/>
            <path id="Trazado_622010" data-name="Trazado 622010" d="M723.971,290.587l0-.005c-.081-.056-.164-.109-.244-.165-.19-.13-.383-.26-.576-.387-.174-.116-.351-.23-.525-.341s-.36-.226-.541-.337c-.2-.121-.4-.239-.6-.356l-.488-.281c-.232-.128-.465-.253-.7-.377-.139-.074-.278-.147-.419-.219-.269-.137-.54-.271-.815-.4-.108-.052-.216-.105-.326-.156-.315-.147-.635-.287-.955-.424-.07-.029-.141-.064-.212-.091-.371-.156-.746-.306-1.123-.448l-.069-.025A34.034,34.034,0,0,0,670.4,318.44l1.156,1.948C682.7,315.213,690.5,304.01,690.5,304.01l-2.586,9.255c12.341-4.179,16.52-13.932,16.52-13.932l-1.991,7.964a39.308,39.308,0,0,0,15.826-9.132c2.987,6.37,7.663,14.919,19.047,22.223l1.152-1.948A33.966,33.966,0,0,0,723.971,290.587Z" transform="translate(-649.887 -281.929)" fill="#594a42"/>
            <path id="Trazado_622011" data-name="Trazado 622011" d="M720.357,383.233v-4.6a32.891,32.891,0,0,0,20.384-30.417v-5.383h0a5.385,5.385,0,0,0,5.383-5.386V325.524a5.373,5.373,0,0,0-2.308-4.416v-3.623a35.881,35.881,0,0,0-35.958-35.8V446.062h54.547V421C762.406,396.573,744.033,384.8,720.357,383.233Z" transform="translate(-653.312 -281.68)" fill="#939598" opacity="0.3" style="mix-blend-mode: multiply;isolation: isolate"/>
          </g>
        </g>
      </g>
      <path id="Trazado_622013" data-name="Trazado 622013" d="M302.451,434.693c0,4.619-3.065,8.362-6.847,8.362H154.051c-3.781,0-6.846-3.743-6.846-8.362V268.175c0-4.617,3.065-8.362,6.846-8.362H295.6c3.782,0,6.847,3.745,6.847,8.362Z" transform="translate(0 -26.178)" fill="#e6e7e8" opacity="0.8"/>
      <g id="Grupo_879289" data-name="Grupo 879289" transform="translate(155.17 243.039)">
        <g id="Grupo_879288" data-name="Grupo 879288" clip-path="url(#clip-path-4)">
          <path id="Trazado_622014" data-name="Trazado 622014" d="M187.912,342.984v28.771c0,15.748-13.628,22.108-13.628,39.371s54.21,20.9,54.21,20.9V326.932Z" transform="translate(-157.646 -275.354)" fill="#b83829"/>
          <path id="Trazado_622015" data-name="Trazado 622015" d="M269.116,340.4v28.771c0,15.748,15.24,23.653,15.24,45.958,0,17.263-55.822,14.31-55.822,14.31V324.349Z" transform="translate(-162.607 -275.118)" fill="#b83829"/>
          <path id="Trazado_622016" data-name="Trazado 622016" d="M280.2,456.263V431.2c0-26.322-21.339-37.955-47.663-37.955H218.765c-26.323,0-47.662,11.633-47.662,37.955v25.066Z" transform="translate(-157.356 -281.417)" fill="#efdb95"/>
          <path id="Trazado_622017" data-name="Trazado 622017" d="M242.381,396.5c0,6.9-5.6,9.615-12.5,9.615h0c-6.9,0-12.5-2.713-12.5-9.615V370.158a12.5,12.5,0,0,1,12.5-12.5h0a12.5,12.5,0,0,1,12.5,12.5Z" transform="translate(-161.587 -278.164)" fill="#efdb95"/>
          <path id="Trazado_622018" data-name="Trazado 622018" d="M265.17,329.112v-11.09a37.838,37.838,0,0,0-75.676,0v11.09Z" transform="translate(-159.037 -271.094)" fill="#b83829"/>
          <path id="Trazado_622019" data-name="Trazado 622019" d="M260.712,348.638a32.883,32.883,0,0,1-32.883,32.884h0a32.883,32.883,0,0,1-32.883-32.884v-29.42a32.882,32.882,0,0,1,32.883-32.882h0a32.882,32.882,0,0,1,32.883,32.882Z" transform="translate(-159.536 -271.642)" fill="#efcf81"/>
          <path id="Trazado_622020" data-name="Trazado 622020" d="M227.83,283.665a32.882,32.882,0,0,0-32.883,32.882v1.579h2.46c1.6-2.641,7.373-12.165,7.764-12.947.454-.909,5.906-7.723,8.177-8.177s8.3-2.726,13.12-2.271,8,.909,12.547,1.59,11.357,3.407,12.038,4.316,1.817,4.77,2.726,6.133a75.18,75.18,0,0,1,3.407,7.5c.325.759,1.062,2.293,1.646,3.861h1.88v-1.579A32.882,32.882,0,0,0,227.83,283.665Z" transform="translate(-159.536 -271.398)" fill="#fbb040"/>
          <path id="Trazado_622021" data-name="Trazado 622021" d="M199.79,341.313a5.385,5.385,0,0,1-5.385,5.386h0a5.384,5.384,0,0,1-5.383-5.386V329.394a5.385,5.385,0,0,1,5.383-5.385h0a5.385,5.385,0,0,1,5.385,5.385Z" transform="translate(-158.994 -275.087)" fill="#efcf81"/>
          <path id="Trazado_622022" data-name="Trazado 622022" d="M272.172,341.313a5.384,5.384,0,0,1-5.383,5.386h0a5.384,5.384,0,0,1-5.384-5.386V329.394a5.385,5.385,0,0,1,5.384-5.385h0a5.385,5.385,0,0,1,5.383,5.385Z" transform="translate(-165.613 -275.087)" fill="#efcf81"/>
          <path id="Trazado_622023" data-name="Trazado 622023" d="M209.716,293.817l0,0c.074-.052.152-.1.226-.151.177-.12.353-.239.532-.355.161-.106.324-.211.486-.312s.332-.207.5-.309c.185-.112.372-.22.559-.326.15-.087.3-.174.452-.257.213-.118.429-.233.646-.345.129-.068.256-.135.387-.2.249-.126.5-.248.754-.367.1-.047.2-.1.3-.143.292-.134.587-.263.884-.389.065-.026.13-.058.194-.084.343-.143.69-.281,1.039-.41l.065-.024a31.622,31.622,0,0,1,11.054-1.984c17.393,0,33.224,13.315,33.224,30.529l-.044,5.078c-10.313-4.738-20.287-17.653-20.287-17.653l2.393,8.475c-11.418-3.828-15.287-12.759-15.287-12.759l1.842,7.293a36.454,36.454,0,0,1-14.643-8.363,59.38,59.38,0,0,1-20.418,22.63l0-4.7C194.572,308.134,201.606,299.455,209.716,293.817Z" transform="translate(-159.501 -271.808)" fill="#b83829"/>
          <path id="Trazado_622024" data-name="Trazado 622024" d="M251.411,395.4v19.69c0,13.38-10.847,7.4-24.228,7.4s-24.229,5.985-24.229-7.4V395.337a46.66,46.66,0,0,0-16.514,7.221v53.9h81.383V402.681A46.368,46.368,0,0,0,251.411,395.4Z" transform="translate(-158.758 -281.609)" fill="#2b95f9"/>
          <path id="Trazado_622025" data-name="Trazado 622025" d="M284.573,411.184c0-.026,0-.051,0-.078,0-22.305-15.24-30.21-15.24-45.958V338.022a5.406,5.406,0,0,0,.051-.7V325.4a5.375,5.375,0,0,0-.427-2.1v-5.275a37.757,37.757,0,0,0-37.839-37.675c-.057,0-.114,0-.172,0V445.94h54.719V420.874A41.637,41.637,0,0,0,284.573,411.184Z" transform="translate(-162.828 -271.094)" fill="#939598" opacity="0.3" style="mix-blend-mode: multiply;isolation: isolate"/>
        </g>
      </g>
      <circle id="Elipse_7032" data-name="Elipse 7032" cx="35.49" cy="35.49" r="35.49" transform="translate(266.486 290.248) rotate(-0.772)" fill="#eb6f2d"/>
      <path id="Trazado_622027" data-name="Trazado 622027" d="M652.84,357.083a35.489,35.489,0,1,1-35.487-35.489A35.487,35.487,0,0,1,652.84,357.083Z" transform="translate(-39.744 -31.827)" fill="#8dc63f"/>
      <path id="Trazado_622028" data-name="Trazado 622028" d="M625.625,365.836a7.026,7.026,0,0,0-4.121,1.335l-9.137-6.721a7.05,7.05,0,0,0,.044-4.339l8.992-6.368a7.036,7.036,0,1,0-2.525-3.55l-8.993,6.367a7.069,7.069,0,1,0-.1,11.4l9.137,6.721a7.068,7.068,0,1,0,6.705-4.841Z" transform="translate(-41.274 -33.236)" fill="#fff"/>
      <path id="Trazado_622029" data-name="Trazado 622029" d="M336.277,347.257c-10.932-12.314-20.5,4.675-20.5,4.675s-9.564-16.989-20.5-4.675,20.5,34.856,20.5,34.856S347.209,359.569,336.277,347.257Z" transform="translate(-13.329 -33.764)" fill="#fff"/>
      <rect id="Rectángulo_327772" data-name="Rectángulo 327772" width="13.565" height="30.451" transform="translate(420.427 175.964)" fill="#4788ab"/>
      <path id="Trazado_622030" data-name="Trazado 622030" d="M458.366,201.823a3.31,3.31,0,0,1-3.31,3.311h0a3.31,3.31,0,0,1-3.311-3.311h0a3.311,3.311,0,0,1,3.311-3.31h0a3.31,3.31,0,0,1,3.31,3.31Z" transform="translate(-27.847 -20.573)" fill="#fff"/>
      <path id="Trazado_622031" data-name="Trazado 622031" d="M489.4,195.059H479.014c-3.095,0-2.138-3.373-2.138-3.373l1.94-4.708a4.275,4.275,0,0,0-2.783-5.363L474,180.979c-2.246-.705-5.345.214-6.054,2.469l-5.094,11.47v30.445h21.558c3.264,0,4.709-2.7,5.911-6.829l4.027-13.432C496.685,198.423,492.667,195.059,489.4,195.059Z" transform="translate(-28.862 -18.948)" fill="#d1d3d4"/>
      <path id="Trazado_622032" data-name="Trazado 622032" d="M316.475,92.313H246.52a4.543,4.543,0,0,0-4.543,4.543v44.987a4.543,4.543,0,0,0,4.543,4.543h48.189c13.326,0,26.309,26.275,26.309,26.275v-75.8A4.543,4.543,0,0,0,316.475,92.313Z" transform="translate(-8.666 -10.862)" fill="#eb6f2d"/>
      <path id="Trazado_622033" data-name="Trazado 622033" d="M640.367,155.545h65.27a4.239,4.239,0,0,1,4.238,4.238v41.974A4.238,4.238,0,0,1,705.638,206H660.675c-12.433,0-24.546,24.516-24.546,24.516V159.783A4.239,4.239,0,0,1,640.367,155.545Z" transform="translate(-44.707 -16.644)" fill="#fb8b22"/>
      <g id="Grupo_879290" data-name="Grupo 879290" transform="translate(247.422 104.168)">
        <path id="Trazado_622034" data-name="Trazado 622034" d="M269.413,123.267a5.952,5.952,0,1,1-5.953-5.951A5.954,5.954,0,0,1,269.413,123.267Z" transform="translate(-257.508 -117.316)" fill="#fff"/>
        <path id="Trazado_622035" data-name="Trazado 622035" d="M290.828,123.267a5.952,5.952,0,1,1-5.952-5.951A5.954,5.954,0,0,1,290.828,123.267Z" transform="translate(-259.466 -117.316)" fill="#fff"/>
        <path id="Trazado_622036" data-name="Trazado 622036" d="M312.244,123.267a5.952,5.952,0,1,1-5.953-5.951A5.953,5.953,0,0,1,312.244,123.267Z" transform="translate(-261.424 -117.316)" fill="#fff"/>
      </g>
      <path id="Trazado_622037" data-name="Trazado 622037" d="M345.922,515.592l-11.153-5.113-11.085,5.263,1.415-12.189-8.429-8.915,12.03-2.421,5.874-10.772,6.019,10.692,12.061,2.259-8.309,9.028Z" transform="translate(-15.496 -46.443)" fill="#fff"/>
      <g id="Grupo_879291" data-name="Grupo 879291" transform="translate(383.733 293.577)">
        <path id="Trazado_622038" data-name="Trazado 622038" d="M501.641,566.331c0,4.495-3.9,8.137-8.714,8.137h-51.8c-4.813,0-8.714-3.642-8.714-8.137V474.265c0-4.495,3.9-8.136,8.714-8.136h51.8c4.812,0,8.714,3.642,8.714,8.136Z" transform="translate(-409.812 -338.619)" fill="#efbf6b"/>
        <path id="Trazado_622039" data-name="Trazado 622039" d="M513.5,478.735c0,13.031-11.945,23.593-26.676,23.593H442.1c-14.732,0-26.676-10.562-26.676-23.593v-88.7c0-13.031,11.944-9.752,26.676-9.752h44.718c14.731,0,26.676-3.279,26.676,9.752Z" transform="translate(-408.259 -330.736)" fill="#efbf6b"/>
        <path id="Trazado_622040" data-name="Trazado 622040" d="M509.241,564.933H423.452V532.015l85.789,6.673Z" transform="translate(-408.992 -344.644)" fill="#fff"/>
        <path id="Trazado_622041" data-name="Trazado 622041" d="M511.011,549.21a7.155,7.155,0,1,1-7.154-7.154A7.155,7.155,0,0,1,511.011,549.21Z" transform="translate(-415.69 -345.562)" fill="#808285"/>
        <rect id="Rectángulo_327773" data-name="Rectángulo 327773" width="102.746" height="85.457" transform="translate(5.304 215.711)" fill="#eb6f2d"/>
        <path id="Trazado_622042" data-name="Trazado 622042" d="M494.5,348.548V465.627c14.523-.206,26.224-10.251,26.224-22.622V357.9C520.729,345.533,509.028,348.484,494.5,348.548Z" transform="translate(-415.489 -327.836)" fill="#efbf6b"/>
        <path id="Trazado_622043" data-name="Trazado 622043" d="M414.706,409.7s-1.356-17.294-6.444-27.807,18.228-17.068,18.228,3a117.731,117.731,0,0,1-6.359,37.018Z" transform="translate(-407.537 -330.002)" fill="#efbf6b"/>
        <path id="Rectángulo_327774" data-name="Rectángulo 327774" d="M8.557,0H76.991a8.56,8.56,0,0,1,8.56,8.56V137.266a8.56,8.56,0,0,1-8.56,8.56H8.561A8.561,8.561,0,0,1,0,137.265V8.557A8.557,8.557,0,0,1,8.557,0Z" transform="translate(15.169)" fill="#3b417b"/>
        <rect id="Rectángulo_327775" data-name="Rectángulo 327775" width="71.059" height="119.787" transform="translate(22.416 13.022)" fill="#2b95f9"/>
        <path id="Trazado_622044" data-name="Trazado 622044" d="M512.231,398.836a7.131,7.131,0,0,1-9.965-1.536l-2.106-2.876a7.127,7.127,0,0,1,1.536-9.964l19.165-14.045a7.131,7.131,0,0,1,9.965,1.535l2.105,2.875a7.127,7.127,0,0,1-1.536,9.965Z" transform="translate(-415.88 -329.742)" fill="#efbf6b"/>
        <path id="Trazado_622045" data-name="Trazado 622045" d="M516.336,425.249a7.128,7.128,0,0,1-9.963-1.537l-2.107-2.873a7.131,7.131,0,0,1,1.535-9.965l19.167-14.045a7.129,7.129,0,0,1,9.964,1.537l2.106,2.873A7.13,7.13,0,0,1,535.5,411.2Z" transform="translate(-416.256 -332.157)" fill="#efbf6b"/>
        <path id="Trazado_622046" data-name="Trazado 622046" d="M515.031,455.02a7.13,7.13,0,0,1-9.965-1.536l-2.107-2.874a7.129,7.129,0,0,1,1.535-9.964L523.661,426.6a7.131,7.131,0,0,1,9.966,1.535l2.106,2.874a7.127,7.127,0,0,1-1.537,9.964Z" transform="translate(-416.136 -334.879)" fill="#efbf6b"/>
        <path id="Trazado_622047" data-name="Trazado 622047" d="M507.824,383.939l-3.877,2.842a5.785,5.785,0,0,0-1.249,8.087l1.712,2.336a5.786,5.786,0,0,0,8.089,1.247l3.886-2.847Z" transform="translate(-416.136 -331.104)" fill="#fcf9fc"/>
        <path id="Trazado_622048" data-name="Trazado 622048" d="M512.231,368.941a7.133,7.133,0,0,1-9.965-1.537l-2.106-2.874a7.129,7.129,0,0,1,1.536-9.966l19.165-14.045a7.131,7.131,0,0,1,9.965,1.537l2.105,2.875A7.126,7.126,0,0,1,531.4,354.9Z" transform="translate(-415.88 -327.008)" fill="#efbf6b"/>
        <path id="Trazado_622049" data-name="Trazado 622049" d="M507.824,354.042l-3.877,2.844a5.785,5.785,0,0,0-1.249,8.087l1.712,2.333a5.786,5.786,0,0,0,8.089,1.248l3.886-2.847Z" transform="translate(-416.136 -328.37)" fill="#fcf9fc"/>
        <path id="Trazado_622050" data-name="Trazado 622050" d="M511.488,410.528l-3.879,2.844a5.789,5.789,0,0,0-1.247,8.09l1.709,2.336a5.792,5.792,0,0,0,8.092,1.245l3.885-2.846Z" transform="translate(-416.471 -333.536)" fill="#fcf9fc"/>
        <path id="Trazado_622051" data-name="Trazado 622051" d="M509.949,440.342l-3.877,2.841a5.789,5.789,0,0,0-1.248,8.091l1.709,2.332a5.789,5.789,0,0,0,8.091,1.247l3.886-2.847Z" transform="translate(-416.331 -336.262)" fill="#fcf9fc"/>
        <path id="Trazado_622052" data-name="Trazado 622052" d="M482.975,333.172a2.744,2.744,0,0,1-2.744,2.744H458.847a2.745,2.745,0,0,1-2.745-2.744h0a2.746,2.746,0,0,1,2.745-2.744h21.384a2.745,2.745,0,0,1,2.744,2.744Z" transform="translate(-411.978 -326.211)" fill="#414042" opacity="0.3" style="mix-blend-mode: multiply;isolation: isolate"/>
        <path id="Trazado_622053" data-name="Trazado 622053" d="M511.011,583a7.155,7.155,0,1,1-7.154-7.154A7.154,7.154,0,0,1,511.011,583Z" transform="translate(-415.69 -348.652)" fill="#f9ed32"/>
        <path id="Trazado_622054" data-name="Trazado 622054" d="M488.882,399.778c.006-.173.014-.344.014-.518a14.964,14.964,0,0,0-27.565-8.073,9.29,9.29,0,0,0-11.648,8.538,10.2,10.2,0,0,0,4.81,19.2h29.479a10.205,10.205,0,0,0,4.91-19.151Zm-19.649-4.363,8.78,10.011h-5.29v9.052H465.74v-9.052h-5.289Z" transform="translate(-410.898 -331.137)" fill="#fff"/>
        <path id="Trazado_622055" data-name="Trazado 622055" d="M530.915,419.044a7.131,7.131,0,0,0-9.966-1.535l-2.285,1.674V415.1l14.006-10.264a7.13,7.13,0,0,0,1.536-9.966L532.1,392a7.129,7.129,0,0,0-9.964-1.537L518.664,393v-4.635l10.277-7.531a7.127,7.127,0,0,0,1.535-9.965L528.371,368a7.124,7.124,0,0,0-9.707-1.7v-5.087l10.277-7.531a7.126,7.126,0,0,0,1.535-9.964l-2.105-2.875a7.131,7.131,0,0,0-9.965-1.537l-4.261,3.122v-8.857a7.777,7.777,0,0,0-7.777-7.776H471.919V626.955h49.556V541.5h-7.8V519.831l-8.42-.655V494.251c8.011-4.071,13.41-11.708,13.41-20.465V441.278l12.82-9.4a7.127,7.127,0,0,0,1.537-9.964Z" transform="translate(-413.424 -325.787)" fill="#939598" opacity="0.3" style="mix-blend-mode: multiply;isolation: isolate"/>
      </g>
      <path id="Trazado_622056" data-name="Trazado 622056" d="M692.058,179.487c0-.156.011-.313.011-.472a13.636,13.636,0,0,0-25.119-7.358,8.464,8.464,0,0,0-10.617,7.781,9.3,9.3,0,0,0,4.384,17.5h26.865a9.3,9.3,0,0,0,4.476-17.453ZM674.15,192.882l-8-9.123h4.82v-8.25h6.364v8.25h4.82Z" transform="translate(-46.104 -17.543)" fill="#fff"/>
    </g>
  </g>
</svg>
