<svg xmlns="http://www.w3.org/2000/svg" width="540.959" height="566.516" viewBox="0 0 540.959 566.516">
  <g id="Grupo_879366" data-name="Grupo 879366" transform="translate(-40.705 -17.527)">
    <g id="Background_Simple" data-name="Background Simple" transform="translate(43.955 17.527)">
      <g id="Grupo_879306" data-name="Grupo 879306">
        <path id="Trazado_622057" data-name="Trazado 622057" d="M537.185,155.07a189.553,189.553,0,0,0-13.772-19.343c-28.685-35.262-62.845-66.655-103.434-87.7C356.812,15.272,276.822,7.6,208.838,31.364c-80.68,28.2-116.319,97.491-129.655,178.168q-2.794,16.9-4.3,33.99c-3.344,37.175-1.7,74.782-6.278,111.83C63.918,393.3,42.849,427.115,43.417,466.026c.32,21.961,6.088,43.977,17.46,62.866C92.558,581.505,156.8,590,212.743,580.843,374.512,554.359,392.8,491.4,461.035,477.518,522.573,465,564.7,401.779,576.781,343.639,590.139,279.344,571.416,209.961,537.185,155.07Z" transform="translate(-43.406 -17.527)" fill="#b6e1fd" opacity="0.25"/>
      </g>
    </g>
    <g id="Graphics" transform="translate(41.205 59.165)">
      <g id="Grupo_879313" data-name="Grupo 879313" opacity="0.3">
        <g id="Grupo_879307" data-name="Grupo 879307" transform="translate(14.735 45.153)">
          <path id="Trazado_622059" data-name="Trazado 622059" d="M84,87v39.977H292.629V453.038h17.49" transform="translate(-45.272 -87)" fill="none" stroke="#000" stroke-linejoin="round" stroke-width="1" stroke-dasharray="5"/>
          <path id="Trazado_622060" data-name="Trazado 622060" d="M53,426.594V285.426h57.467V434.09H262.878V158h256.1" transform="translate(-53 -69.301)" fill="none" stroke="#000" stroke-linejoin="round" stroke-width="1" stroke-dasharray="5"/>
        </g>
        <g id="Grupo_879308" data-name="Grupo 879308" transform="translate(38.471)">
          <path id="Trazado_622061" data-name="Trazado 622061" d="M101.983,65.848a14.991,14.991,0,0,0-29.983,0c0,8.28,14.991,24.986,14.991,24.986S101.983,74.129,101.983,65.848Z" transform="translate(-72 -50.857)" fill="none" stroke="#000" stroke-linejoin="round" stroke-width="1"/>
          <path id="Trazado_622062" data-name="Trazado 622062" d="M91.707,64.139a6.425,6.425,0,1,0-6.425,6.425A6.426,6.426,0,0,0,91.707,64.139Z" transform="translate(-70.291 -49.148)" fill="none" stroke="#000" stroke-linejoin="round" stroke-width="1"/>
        </g>
        <g id="Grupo_879309" data-name="Grupo 879309" transform="translate(475.385 99.617)">
          <path id="Trazado_622063" data-name="Trazado 622063" d="M446.206,142.834a12.237,12.237,0,1,0-24.473,0c0,6.757,12.237,20.393,12.237,20.393S446.206,149.591,446.206,142.834Z" transform="translate(-421.733 -130.597)" fill="none" stroke="#000" stroke-linejoin="round" stroke-width="1"/>
          <circle id="Elipse_7039" data-name="Elipse 7039" cx="5.244" cy="5.244" r="5.244" transform="translate(6.993 6.992)" fill="none" stroke="#000" stroke-linejoin="round" stroke-width="1"/>
        </g>
        <g id="Grupo_879310" data-name="Grupo 879310" transform="translate(433.499 163.834)">
          <path id="Trazado_622064" data-name="Trazado 622064" d="M437.045,206.42a24.42,24.42,0,0,0-48.84,0c0,13.487,24.421,40.7,24.421,40.7S437.045,219.907,437.045,206.42Z" transform="translate(-388.205 -182)" fill="none" stroke="#000" stroke-linejoin="round" stroke-width="1"/>
          <circle id="Elipse_7040" data-name="Elipse 7040" cx="10.466" cy="10.466" r="10.466" transform="translate(13.955 13.954)" fill="none" stroke="#000" stroke-linejoin="round" stroke-width="1"/>
        </g>
        <g id="Grupo_879311" data-name="Grupo 879311" transform="translate(41.064 191.318)">
          <path id="Trazado_622065" data-name="Trazado 622065" d="M112.1,223.01a19.01,19.01,0,0,0-38.02,0c0,10.5,19.01,31.684,19.01,31.684S112.1,233.509,112.1,223.01Z" transform="translate(-74.075 -204)" fill="none" stroke="#000" stroke-linejoin="round" stroke-width="1"/>
          <path id="Trazado_622066" data-name="Trazado 622066" d="M99.066,220.843a8.148,8.148,0,1,0-8.148,8.148A8.148,8.148,0,0,0,99.066,220.843Z" transform="translate(-71.908 -201.833)" fill="none" stroke="#000" stroke-linejoin="round" stroke-width="1"/>
        </g>
        <g id="Grupo_879312" data-name="Grupo 879312" transform="translate(0 412.943)">
          <path id="Trazado_622067" data-name="Trazado 622067" d="M65.678,393.64a12.237,12.237,0,0,0-24.473,0c0,6.757,12.237,20.393,12.237,20.393S65.678,400.4,65.678,393.64Z" transform="translate(-41.205 -381.403)" fill="none" stroke="#000" stroke-linejoin="round" stroke-width="1"/>
          <circle id="Elipse_7041" data-name="Elipse 7041" cx="5.244" cy="5.244" r="5.244" transform="translate(6.993 6.992)" fill="none" stroke="#000" stroke-linejoin="round" stroke-width="1"/>
        </g>
      </g>
    </g>
    <g id="Device" transform="translate(147.978 41.473)">
      <g id="Grupo_879330" data-name="Grupo 879330">
        <g id="Grupo_879317" data-name="Grupo 879317" transform="translate(11.977 8.714)">
          <path id="Trazado_622068" data-name="Trazado 622068" d="M393.336,81.789V461.944a38.129,38.129,0,0,1-38.128,38.128H174.388a38.129,38.129,0,0,1-38.128-38.128V81.789a38.126,38.126,0,0,1,38.128-38.115h75.606l.075.275c2.236,8.045,7.383,13.28,13.092,13.28h3.273c5.709,0,10.856-5.234,13.092-13.28l.087-.275h75.594A38.126,38.126,0,0,1,393.336,81.789Z" transform="translate(-136.26 -43.669)" fill="#d6d6d6"/>
          <g id="Grupo_879316" data-name="Grupo 879316">
            <path id="Trazado_622069" data-name="Trazado 622069" d="M293.9,322.109V201.821h55.22a2.5,2.5,0,0,0,2.272-1.459l41.938-91.7V96.652L347.515,196.824H293.9V43.67h-5v61.583c-49.87-4.921-79.083,18.593-94.863,39.431a134.2,134.2,0,0,0-21.747,44.268l-36.028-22.874V172l64.524,40.968h-.041v73.088L136.264,274.29v5.081L288.9,307.21v13.7L136.264,442.836v6.4l69.03-55.142,52.613,71.181a2.493,2.493,0,0,0,2.628.936l82.938-21.24v55.106h5V396.621a2.5,2.5,0,0,0-1.372-2.229l-18.628-9.425,31.835-34.729,33.023,12.7v-5.353l-32.817-12.623a2.5,2.5,0,0,0-2.74.643l-33.934,37.017-63.793-32.273,32.913-26.291A2.494,2.494,0,0,0,293.9,322.109Zm49.575,76.047v41.652l-82.548,21.14L209.2,390.969l46.553-37.187ZM288.9,302.13l-83.158-15.167V216.111l83.158,52.8Zm0-39.14L176.728,191.769a130.221,130.221,0,0,1,21.3-44.068c21.816-28.812,52.39-41.392,90.879-37.433Z" transform="translate(-136.259 -43.67)" fill="#fff"/>
            <g id="Grupo_879315" data-name="Grupo 879315" transform="translate(0 44.137)">
              <path id="Trazado_622070" data-name="Trazado 622070" d="M356.725,245.613h-7.483l-18.889,47.235H292.575l19.938-46.186H283.13V201.539H327.2l29.52-57.3Z" transform="translate(-99.649 -62.739)" fill="#c4c4c4"/>
              <rect id="Rectángulo_327776" data-name="Rectángulo 327776" width="37.478" height="31.232" transform="translate(9.669)" fill="#c4c4c4"/>
              <rect id="Rectángulo_327777" data-name="Rectángulo 327777" width="26.984" height="22.487" transform="translate(53.394)" fill="#c4c4c4"/>
              <path id="Trazado_622071" data-name="Trazado 622071" d="M177.684,171.76l92.749,59.9v-125.6S204.092,99.622,177.684,171.76Z" transform="translate(-125.934 -72.291)" fill="#c4c4c4"/>
              <rect id="Rectángulo_327778" data-name="Rectángulo 327778" width="17.49" height="14.575" transform="translate(88.374)" fill="#c4c4c4"/>
              <path id="Trazado_622072" data-name="Trazado 622072" d="M253.73,314,220,337.736l18.739,34.98,67.461-3.748,3.748-32.481-26.235-11.243-11.243,17.49-11.243-6.246,9.994-18.739Z" transform="translate(-115.386 -20.42)" fill="#c4c4c4"/>
              <g id="Grupo_879314" data-name="Grupo 879314" transform="translate(0 221.689)">
                <path id="Trazado_622073" data-name="Trazado 622073" d="M166.517,257.878v67.486L136.26,340.755v-84.3Z" transform="translate(-136.26 -256.454)" fill="#c4c4c4"/>
                <path id="Trazado_622074" data-name="Trazado 622074" d="M209.177,299.4V259.881L167.2,257.913v62.826Z" transform="translate(-128.548 -256.091)" fill="#c4c4c4"/>
                <path id="Trazado_622075" data-name="Trazado 622075" d="M205.841,259.724v36.023l25.187-12.8V260.905Z" transform="translate(-118.915 -255.639)" fill="#c4c4c4"/>
              </g>
            </g>
          </g>
        </g>
        <g id="Grupo_879329" data-name="Grupo 879329">
          <path id="Trazado_622076" data-name="Trazado 622076" d="M412.074,184.979V136.668H407.7V74.819a38.124,38.124,0,0,0-38.124-38.124H164.8a38.124,38.124,0,0,0-38.124,38.124v416.1A38.124,38.124,0,0,0,164.8,529.042H369.579A38.124,38.124,0,0,0,407.7,490.918V226.154h4.371V197.606H407.7V184.979Zm-16.348,278.7A38.129,38.129,0,0,1,357.6,501.812H176.778a38.129,38.129,0,0,1-38.128-38.128V83.529a38.126,38.126,0,0,1,38.128-38.115h75.606l.075.275c2.236,8.045,7.383,13.28,13.092,13.28h3.273c5.709,0,10.856-5.234,13.092-13.28l.087-.275H357.6a38.126,38.126,0,0,1,38.128,38.115Z" transform="translate(-126.673 -36.695)" fill="#707070" stroke="#263238" stroke-linejoin="round" stroke-width="1"/>
          <path id="Trazado_622077" data-name="Trazado 622077" d="M364.284,40.9H168.33a38.124,38.124,0,0,0-38.124,38.124v405.6a38.124,38.124,0,0,0,38.124,38.124H364.284a38.124,38.124,0,0,0,38.124-38.124V79.023A38.124,38.124,0,0,0,364.284,40.9Zm30.561,421.737a38.129,38.129,0,0,1-38.128,38.128H175.9a38.129,38.129,0,0,1-38.128-38.128V82.481A38.126,38.126,0,0,1,175.9,44.366H251.5l.075.275c2.236,8.045,7.383,13.28,13.092,13.28h3.273c5.709,0,10.856-5.234,13.092-13.28l.087-.275h75.594a38.126,38.126,0,0,1,38.128,38.115Z" transform="translate(-125.792 -35.647)" fill="#263238" stroke="#263238" stroke-linejoin="round" stroke-width="1"/>
          <circle id="Elipse_7042" data-name="Elipse 7042" cx="3.579" cy="3.579" r="3.579" transform="translate(136.151 6.962)" fill="#fff"/>
          <g id="Grupo_879328" data-name="Grupo 879328" transform="translate(29.422 19.748)">
            <g id="Grupo_879318" data-name="Grupo 879318" transform="translate(0 1.471)">
              <path id="Trazado_622078" data-name="Trazado 622078" d="M155.628,56.718c0,3.622-4.066,4.925-4.084,7.688v.189h3.948v1.218h-5.268V64.784c0-3.878,4.068-4.634,4.068-8.014,0-1.236-.413-1.888-1.408-1.888-.978,0-1.407.7-1.407,1.768v1.063h-1.253v-.977c0-1.836.841-3.056,2.693-3.056C154.788,53.68,155.628,54.882,155.628,56.718Z" transform="translate(-150.224 -53.68)" fill="#263238"/>
              <path id="Trazado_622079" data-name="Trazado 622079" d="M160.891,56.7v.309a2.388,2.388,0,0,1-1.458,2.472,2.386,2.386,0,0,1,1.458,2.487V62.9c0,1.836-.858,3.038-2.711,3.038-1.836,0-2.693-1.2-2.693-3.038v-.823h1.252v.909c0,1.081.446,1.733,1.408,1.733s1.407-.635,1.407-1.853v-.927c0-1.184-.5-1.75-1.51-1.785h-.721v-1.2h.79a1.441,1.441,0,0,0,1.442-1.647v-.55c0-1.236-.43-1.87-1.407-1.87s-1.408.67-1.408,1.75v.618h-1.252V56.7c0-1.836.857-3.021,2.693-3.021C160.033,53.68,160.891,54.864,160.891,56.7Z" transform="translate(-148.912 -53.68)" fill="#263238"/>
              <path id="Trazado_622080" data-name="Trazado 622080" d="M162.146,56.826v1.665h-1.287V56.826Zm0,6.539v1.664h-1.287V63.365Z" transform="translate(-147.573 -52.896)" fill="#263238"/>
              <path id="Trazado_622081" data-name="Trazado 622081" d="M164.337,58.668a1.93,1.93,0,0,1,1.785-1c1.544,0,2.23,1.133,2.23,2.848v2.351c0,1.836-.875,3.038-2.711,3.038s-2.695-1.2-2.695-3.038v-.806H164.2v.892c0,1.081.446,1.733,1.407,1.733s1.408-.652,1.408-1.733V60.623c0-1.081-.446-1.733-1.408-1.733a1.3,1.3,0,0,0-1.355,1.287v.275H163l.326-6.675h4.736v1.2h-3.535Z" transform="translate(-147.052 -53.656)" fill="#263238"/>
              <path id="Trazado_622082" data-name="Trazado 622082" d="M173.711,56.683v.224H172.46V56.6c0-1.082-.447-1.716-1.424-1.716-1.013,0-1.459.652-1.459,1.94v2.693a1.932,1.932,0,0,1,1.939-1.287c1.544,0,2.231,1.116,2.231,2.848V62.9c0,1.836-.911,3.038-2.746,3.038-1.854,0-2.763-1.2-2.763-3.038V56.769c0-1.905.858-3.089,2.763-3.089C172.853,53.68,173.711,54.848,173.711,56.683Zm-4.135,4.5v1.8c0,1.081.446,1.733,1.424,1.733.961,0,1.424-.652,1.424-1.733v-1.8c0-1.082-.463-1.734-1.424-1.734C170.022,59.447,169.576,60.1,169.576,61.181Z" transform="translate(-145.734 -53.68)" fill="#263238"/>
            </g>
            <g id="Grupo_879327" data-name="Grupo 879327" transform="translate(155.726)">
              <rect id="Rectángulo_327779" data-name="Rectángulo 327779" width="3.392" height="8.479" transform="translate(0 5.002)" fill="#263238"/>
              <rect id="Rectángulo_327780" data-name="Rectángulo 327780" width="3.392" height="10.178" transform="translate(4.522 3.304)" fill="#263238"/>
              <rect id="Rectángulo_327781" data-name="Rectángulo 327781" width="3.392" height="11.384" transform="translate(9.045 2.098)" fill="#263238"/>
              <rect id="Rectángulo_327782" data-name="Rectángulo 327782" width="3.392" height="13.482" transform="translate(13.567)" fill="#263238"/>
              <g id="Grupo_879322" data-name="Grupo 879322" transform="translate(38.581 0.812)">
                <g id="Grupo_879319" data-name="Grupo 879319">
                  <path id="Trazado_622083" data-name="Trazado 622083" d="M326.111,65.59H305.76V53.153h20.351Zm-19.22-1.131h18.09V54.284h-18.09Z" transform="translate(-305.76 -53.153)" fill="#263238"/>
                </g>
                <g id="Grupo_879320" data-name="Grupo 879320" transform="translate(2.826 2.362)">
                  <rect id="Rectángulo_327783" data-name="Rectángulo 327783" width="10.741" height="7.715" fill="#263238"/>
                </g>
                <g id="Grupo_879321" data-name="Grupo 879321" transform="translate(19.644 4.754)">
                  <rect id="Rectángulo_327784" data-name="Rectángulo 327784" width="2.559" height="2.93" fill="#263238"/>
                </g>
              </g>
              <g id="Grupo_879323" data-name="Grupo 879323" transform="translate(22.48 7.77)">
                <path id="Trazado_622084" data-name="Trazado 622084" d="M301.511,61.5a.757.757,0,0,1-.388-.107c-4.141-2.461-6.879-.176-6.993-.08a.76.76,0,0,1-1-1.143c.147-.129,3.648-3.128,8.771-.084a.76.76,0,0,1-.389,1.414Z" transform="translate(-292.871 -58.722)" fill="#263238"/>
              </g>
              <g id="Grupo_879324" data-name="Grupo 879324" transform="translate(20.947 4.756)">
                <path id="Trazado_622085" data-name="Trazado 622085" d="M303.348,59.543a.76.76,0,0,1-.389-.107c-5.988-3.56-10.013-.115-10.054-.082a.759.759,0,1,1-1-1.141c.049-.045,4.9-4.2,11.836-.084a.761.761,0,0,1-.39,1.414Z" transform="translate(-291.644 -56.31)" fill="#263238"/>
              </g>
              <g id="Grupo_879325" data-name="Grupo 879325" transform="translate(19.557 1.362)">
                <path id="Trazado_622086" data-name="Trazado 622086" d="M305.018,57.262a.765.765,0,0,1-.39-.107c-7.583-4.51-12.626-.264-12.836-.08a.76.76,0,0,1-1-1.143c.059-.054,6.05-5.178,14.617-.084a.76.76,0,0,1-.388,1.414Z" transform="translate(-290.531 -53.593)" fill="#263238"/>
              </g>
              <g id="Grupo_879326" data-name="Grupo 879326" transform="translate(25.018 9.911)">
                <circle id="Elipse_7043" data-name="Elipse 7043" cx="1.907" cy="1.907" r="1.907" fill="#263238"/>
              </g>
            </g>
          </g>
        </g>
      </g>
    </g>
    <g id="Plants" transform="translate(465.528 363.919)">
      <g id="Grupo_879331" data-name="Grupo 879331">
        <path id="Trazado_622087" data-name="Trazado 622087" d="M443.134,324.705c.061.037,1.25-4.566,1.292-4.866.482-3.462-.621-10.434-4.146-12.137a4.633,4.633,0,0,0-6.3,2.791c-.944,2.6.254,5.783,1.673,7.974C437.313,321.041,443.13,324.7,443.134,324.705Z" transform="translate(-367.704 -291.694)" fill="#263238"/>
        <path id="Trazado_622088" data-name="Trazado 622088" d="M386.794,322.324c2.808,1.227,9.679,1.073,9.684,1.072.071,0-1.477-4.5-1.607-4.77-1.508-3.153-6.275-8.36-10.154-7.837A4.633,4.633,0,0,0,381,316.595C381.644,319.282,384.4,321.278,386.794,322.324Z" transform="translate(-380.86 -290.824)" fill="#263238"/>
        <path id="Trazado_622089" data-name="Trazado 622089" d="M476.682,302.914c-3.891-.42-8.516,4.915-9.939,8.108-.122.276-1.548,4.812-1.477,4.812h.084c-.737.836-1.517,1.742-2.35,2.747-1.522,1.87-3.226,4-4.922,6.438a82.265,82.265,0,0,0-5.1,8.132,60.479,60.479,0,0,0-4.36,9.816c-.014.04-.023.084-.035.124.02-1.146-.031-4.354-.062-4.6-.45-3.467-3.356-9.9-7.2-10.613a4.633,4.633,0,0,0-5.343,4.357c-.225,2.753,1.771,5.511,3.719,7.25,2.2,1.961,8.29,3.862,8.776,4.01a82.086,82.086,0,0,0-2.575,10.635c-.374,2.094-.685,4.215-.971,6.345-.014-.992-.035-1.879-.051-2-.448-3.467-3.354-9.9-7.2-10.611a4.632,4.632,0,0,0-5.343,4.356c-.226,2.753,1.771,5.511,3.719,7.25,1.975,1.765,7.14,3.489,8.511,3.926-.1.82-.21,1.635-.307,2.454-.47,3.928-.921,7.85-1.482,11.684-.2,1.35-.441,2.675-.68,4-.014-.881-.032-1.623-.047-1.735-.45-3.467-3.354-9.9-7.2-10.613a4.632,4.632,0,0,0-5.342,4.357c-.226,2.753,1.771,5.511,3.718,7.25,1.885,1.684,6.637,3.318,8.266,3.847-.286,1.349-.568,2.7-.907,4-.25.879-.431,1.743-.731,2.612q-.42,1.3-.831,2.572c-.588,1.617-1.184,3.288-1.8,4.851-.419,1.089-.837,2.12-1.257,3.159.212-1.342.571-3.979.577-4.2a17.992,17.992,0,0,0-2.412-8.75,5.4,5.4,0,0,0-.065-1.024,4.632,4.632,0,0,0-5.664-3.93c-3.783,1.007-6.181,7.647-6.36,11.137-.011.206.124,2.454.232,3.869-.191-.822-.366-1.623-.572-2.467-.4-1.674-.842-3.332-1.314-5.117q-.388-1.282-.783-2.588c-.242-.869-.61-1.758-.913-2.646-.748-2.045-1.607-4.081-2.516-6.114,1.464-.351,6.646-1.673,8.726-3.269s4.269-4.189,4.249-6.952a4.632,4.632,0,0,0-5-4.742c-3.891.422-7.268,6.621-7.975,10.045-.044.214-.275,2.726-.374,4.11-.557-1.218-1.106-2.436-1.709-3.649-1.739-3.5-3.608-6.995-5.458-10.486-.567-1.069-1.119-2.141-1.677-3.212.522-.12,6.715-1.557,9.046-3.344,2.071-1.589,4.268-4.19,4.247-6.952a4.632,4.632,0,0,0-5-4.743c-3.893.423-7.27,6.622-7.975,10.045-.054.259-.38,3.875-.419,4.8-1.226-2.359-2.425-4.722-3.513-7.1a81.576,81.576,0,0,1-3.82-9.868c.244-.055,6.714-1.525,9.1-3.357,2.073-1.589,4.269-4.189,4.249-6.952a4.632,4.632,0,0,0-5-4.742c-3.892.422-7.268,6.621-7.974,10.044-.047.226-.3,2.982-.387,4.3l-.222.024a59.735,59.735,0,0,1-1.991-10.454c-.217-1.944-.319-3.814-.375-5.635,1.233-.151,6.861-.9,9.192-2.311,2.232-1.352,4.7-3.7,4.986-6.444a4.632,4.632,0,0,0-4.452-5.263c-3.914-.008-7.952,5.784-9.03,9.108-.059.181-.451,2.085-.717,3.476-.013-.822-.041-1.67-.037-2.46,0-2.96.192-5.67.377-8.069.116-1.363.249-2.593.385-3.744,1.133-.778,5.66-3.974,7.052-6.259,1.359-2.229,2.471-5.446,1.457-8.017a4.635,4.635,0,0,0-6.378-2.62c-3.477,1.8-4.391,8.8-3.817,12.245.05.3,1.363,4.868,1.423,4.828l.069-.046c-.154,1.1-.3,2.289-.444,3.587-.239,2.4-.485,5.115-.555,8.085a82.3,82.3,0,0,0,.229,9.6,60.382,60.382,0,0,0,1.778,10.593c.011.041.029.082.04.122-.616-.967-2.429-3.614-2.591-3.8-2.286-2.643-8.259-6.406-11.863-4.876a4.633,4.633,0,0,0-2.053,6.581c1.332,2.421,4.517,3.619,7.1,4,2.915.425,9.046-1.353,9.533-1.5A82.035,82.035,0,0,0,402.3,355c.843,1.953,1.754,3.894,2.691,5.828-.56-.82-1.066-1.548-1.147-1.643-2.287-2.643-8.26-6.406-11.863-4.876a4.631,4.631,0,0,0-2.053,6.581c1.33,2.421,4.517,3.619,7.1,4,2.621.382,7.879-1.029,9.266-1.422.367.738.726,1.48,1.1,2.216,1.776,3.535,3.563,7.057,5.211,10.564.581,1.236,1.107,2.472,1.639,3.71-.5-.727-.922-1.335-1-1.422-2.287-2.643-8.26-6.408-11.863-4.877a4.632,4.632,0,0,0-2.053,6.581c1.332,2.421,4.517,3.619,7.1,4,2.5.365,7.367-.893,9.017-1.352.5,1.283,1.016,2.567,1.448,3.834.276.871.6,1.69.83,2.581l.727,2.6c.4,1.673.826,3.4,1.176,5.038.254,1.139.472,2.23.7,3.328-.565-1.237-1.72-3.634-1.839-3.824-1.86-2.958-7.193-7.583-10.987-6.616a4.632,4.632,0,0,0-3.026,6.194c.949,2.595,3.917,4.261,6.414,5.025,2.748.841,8.835.072,9.594-.029.365,1.819.7,3.59.993,5.268,1.026,5.813,1.658,10.693,2.052,14.109.07.607.13,1.148.184,1.659H411.931l3.594,70.139h21.489l3.594-70.139H429.632c.082-.169.159-.325.244-.5,1.507-3.137,3.6-7.646,5.85-13.162.717-1.743,1.449-3.618,2.181-5.551.736.154,6.761,1.378,9.569.745,2.546-.576,5.63-2.016,6.77-4.534a4.632,4.632,0,0,0-2.556-6.4c-3.71-1.247-9.375,2.967-11.45,5.78-.122.166-1.249,2.114-1.941,3.356.3-.792.591-1.557.885-2.375.592-1.614,1.137-3.242,1.728-4.992q.382-1.282.775-2.591c.277-.86.461-1.8.7-2.711.5-2.119.913-4.29,1.276-6.487,1.414.515,6.465,2.271,9.081,2.088s5.872-1.139,7.38-3.456a4.631,4.631,0,0,0-1.557-6.715c-3.479-1.794-9.716,1.513-12.194,3.979-.155.154-1.733,2.123-2.58,3.221.209-1.322.422-2.641.588-3.985.482-3.882.848-7.825,1.232-11.757.117-1.206.249-2.4.375-3.6.5.189,6.459,2.406,9.39,2.2,2.6-.182,5.87-1.139,7.378-3.455a4.631,4.631,0,0,0-1.557-6.715c-3.479-1.794-9.716,1.513-12.193,3.979-.187.186-2.455,3.022-3,3.772.279-2.643.582-5.277.986-7.859a81.743,81.743,0,0,1,2.256-10.338c.234.089,6.441,2.431,9.443,2.221,2.6-.184,5.87-1.141,7.378-3.456a4.632,4.632,0,0,0-1.557-6.716c-3.479-1.794-9.716,1.513-12.193,3.979-.162.162-1.891,2.32-2.691,3.367l-.2-.1a59.668,59.668,0,0,1,4.105-9.817c.891-1.742,1.839-3.357,2.8-4.907,1.112.555,6.219,3.035,8.941,3.143,2.608.1,5.96-.487,7.714-2.623a4.632,4.632,0,0,0-.811-6.846c-3.261-2.166-9.823.437-12.557,2.616-.147.117-1.525,1.49-2.515,2.5.442-.693.887-1.417,1.324-2.074,1.638-2.465,3.289-4.622,4.767-6.521.85-1.073,1.638-2.026,2.386-2.911,1.374-.024,6.913-.192,9.335-1.329,2.364-1.109,5.066-3.179,5.638-5.883A4.633,4.633,0,0,0,476.682,302.914ZM433.59,407.478c-2.352,5.413-4.517,9.833-6.072,12.9-.315.618-.6,1.166-.857,1.669H426.4c-.076-.6-.162-1.253-.262-1.988-.475-3.448-1.222-8.36-2.384-14.207-.362-1.848-.787-3.815-1.242-5.832a50.157,50.157,0,0,0,5.352-2.517c2,2.17,7.138,4.71,7.8,5.032C434.968,404.254,434.272,405.918,433.59,407.478Z" transform="translate(-380.745 -294.801)" fill="#263238"/>
        <path id="Trazado_622090" data-name="Trazado 622090" d="M386.794,322.324c2.808,1.227,9.679,1.073,9.684,1.072.071,0-1.477-4.5-1.607-4.77-1.508-3.153-6.275-8.36-10.154-7.837A4.633,4.633,0,0,0,381,316.595C381.644,319.282,384.4,321.278,386.794,322.324Z" transform="translate(-380.86 -290.824)" fill="#263238" opacity="0.3"/>
        <path id="Trazado_622091" data-name="Trazado 622091" d="M443.134,324.705c.061.037,1.25-4.566,1.292-4.866.482-3.462-.621-10.434-4.146-12.137a4.633,4.633,0,0,0-6.3,2.791c-.944,2.6.254,5.783,1.673,7.974C437.313,321.041,443.13,324.7,443.134,324.705Z" transform="translate(-367.704 -291.694)" fill="#263238" opacity="0.3"/>
        <path id="Trazado_622092" data-name="Trazado 622092" d="M476.682,302.914c-3.891-.42-8.516,4.915-9.939,8.108-.122.276-1.548,4.812-1.477,4.812h.084c-.737.836-1.517,1.742-2.35,2.747-1.522,1.87-3.226,4-4.922,6.438a82.265,82.265,0,0,0-5.1,8.132,60.479,60.479,0,0,0-4.36,9.816c-.014.04-.023.084-.035.124.02-1.146-.031-4.354-.062-4.6-.45-3.467-3.356-9.9-7.2-10.613a4.633,4.633,0,0,0-5.343,4.357c-.225,2.753,1.771,5.511,3.719,7.25,2.2,1.961,8.29,3.862,8.776,4.01a82.086,82.086,0,0,0-2.575,10.635c-.374,2.094-.685,4.215-.971,6.345-.014-.992-.035-1.879-.051-2-.448-3.467-3.354-9.9-7.2-10.611a4.632,4.632,0,0,0-5.343,4.356c-.226,2.753,1.771,5.511,3.719,7.25,1.975,1.765,7.14,3.489,8.511,3.926-.1.82-.21,1.635-.307,2.454-.47,3.928-.921,7.85-1.482,11.684-.2,1.35-.441,2.675-.68,4-.014-.881-.032-1.623-.047-1.735-.45-3.467-3.354-9.9-7.2-10.613a4.632,4.632,0,0,0-5.342,4.357c-.226,2.753,1.771,5.511,3.718,7.25,1.885,1.684,6.637,3.318,8.266,3.847-.286,1.349-.568,2.7-.907,4-.25.879-.431,1.743-.731,2.612q-.42,1.3-.831,2.572c-.588,1.617-1.184,3.288-1.8,4.851-.419,1.089-.837,2.12-1.257,3.159.212-1.342.571-3.979.577-4.2a17.992,17.992,0,0,0-2.412-8.75,5.4,5.4,0,0,0-.065-1.024,4.632,4.632,0,0,0-5.664-3.93c-3.783,1.007-6.181,7.647-6.36,11.137-.011.206.124,2.454.232,3.869-.191-.822-.366-1.623-.572-2.467-.4-1.674-.842-3.332-1.314-5.117q-.388-1.282-.783-2.588c-.242-.869-.61-1.758-.913-2.646-.748-2.045-1.607-4.081-2.516-6.114,1.464-.351,6.646-1.673,8.726-3.269s4.269-4.189,4.249-6.952a4.632,4.632,0,0,0-5-4.742c-3.891.422-7.268,6.621-7.975,10.045-.044.214-.275,2.726-.374,4.11-.557-1.218-1.106-2.436-1.709-3.649-1.739-3.5-3.608-6.995-5.458-10.486-.567-1.069-1.119-2.141-1.677-3.212.522-.12,6.715-1.557,9.046-3.344,2.071-1.589,4.268-4.19,4.247-6.952a4.632,4.632,0,0,0-5-4.743c-3.893.423-7.27,6.622-7.975,10.045-.054.259-.38,3.875-.419,4.8-1.226-2.359-2.425-4.722-3.513-7.1a81.576,81.576,0,0,1-3.82-9.868c.244-.055,6.714-1.525,9.1-3.357,2.073-1.589,4.269-4.189,4.249-6.952a4.632,4.632,0,0,0-5-4.742c-3.892.422-7.268,6.621-7.974,10.044-.047.226-.3,2.982-.387,4.3l-.222.024a59.735,59.735,0,0,1-1.991-10.454c-.217-1.944-.319-3.814-.375-5.635,1.233-.151,6.861-.9,9.192-2.311,2.232-1.352,4.7-3.7,4.986-6.444a4.632,4.632,0,0,0-4.452-5.263c-3.914-.008-7.952,5.784-9.03,9.108-.059.181-.451,2.085-.717,3.476-.013-.822-.041-1.67-.037-2.46,0-2.96.192-5.67.377-8.069.116-1.363.249-2.593.385-3.744,1.133-.778,5.66-3.974,7.052-6.259,1.359-2.229,2.471-5.446,1.457-8.017a4.635,4.635,0,0,0-6.378-2.62c-3.477,1.8-4.391,8.8-3.817,12.245.05.3,1.363,4.868,1.423,4.828l.069-.046c-.154,1.1-.3,2.289-.444,3.587-.239,2.4-.485,5.115-.555,8.085a82.3,82.3,0,0,0,.229,9.6,60.382,60.382,0,0,0,1.778,10.593c.011.041.029.082.04.122-.616-.967-2.429-3.614-2.591-3.8-2.286-2.643-8.259-6.406-11.863-4.876a4.633,4.633,0,0,0-2.053,6.581c1.332,2.421,4.517,3.619,7.1,4,2.915.425,9.046-1.353,9.533-1.5A82.035,82.035,0,0,0,402.3,355c.843,1.953,1.754,3.894,2.691,5.828-.56-.82-1.066-1.548-1.147-1.643-2.287-2.643-8.26-6.406-11.863-4.876a4.631,4.631,0,0,0-2.053,6.581c1.33,2.421,4.517,3.619,7.1,4,2.621.382,7.879-1.029,9.266-1.422.367.738.726,1.48,1.1,2.216,1.776,3.535,3.563,7.057,5.211,10.564.581,1.236,1.107,2.472,1.639,3.71-.5-.727-.922-1.335-1-1.422-2.287-2.643-8.26-6.408-11.863-4.877a4.632,4.632,0,0,0-2.053,6.581c1.332,2.421,4.517,3.619,7.1,4,2.5.365,7.367-.893,9.017-1.352.5,1.283,1.016,2.567,1.448,3.834.276.871.6,1.69.83,2.581l.727,2.6c.4,1.673.826,3.4,1.176,5.038.254,1.139.472,2.23.7,3.328-.565-1.237-1.72-3.634-1.839-3.824-1.86-2.958-7.193-7.583-10.987-6.616a4.632,4.632,0,0,0-3.026,6.194c.949,2.595,3.917,4.261,6.414,5.025,2.748.841,8.835.072,9.594-.029.365,1.819.7,3.59.993,5.268,1.026,5.813,1.658,10.693,2.052,14.109.07.607.13,1.148.184,1.659H411.931l3.594,70.139h21.489l3.594-70.139H429.632c.082-.169.159-.325.244-.5,1.507-3.137,3.6-7.646,5.85-13.162.717-1.743,1.449-3.618,2.181-5.551.736.154,6.761,1.378,9.569.745,2.546-.576,5.63-2.016,6.77-4.534a4.632,4.632,0,0,0-2.556-6.4c-3.71-1.247-9.375,2.967-11.45,5.78-.122.166-1.249,2.114-1.941,3.356.3-.792.591-1.557.885-2.375.592-1.614,1.137-3.242,1.728-4.992q.382-1.282.775-2.591c.277-.86.461-1.8.7-2.711.5-2.119.913-4.29,1.276-6.487,1.414.515,6.465,2.271,9.081,2.088s5.872-1.139,7.38-3.456a4.631,4.631,0,0,0-1.557-6.715c-3.479-1.794-9.716,1.513-12.194,3.979-.155.154-1.733,2.123-2.58,3.221.209-1.322.422-2.641.588-3.985.482-3.882.848-7.825,1.232-11.757.117-1.206.249-2.4.375-3.6.5.189,6.459,2.406,9.39,2.2,2.6-.182,5.87-1.139,7.378-3.455a4.631,4.631,0,0,0-1.557-6.715c-3.479-1.794-9.716,1.513-12.193,3.979-.187.186-2.455,3.022-3,3.772.279-2.643.582-5.277.986-7.859a81.743,81.743,0,0,1,2.256-10.338c.234.089,6.441,2.431,9.443,2.221,2.6-.184,5.87-1.141,7.378-3.456a4.632,4.632,0,0,0-1.557-6.716c-3.479-1.794-9.716,1.513-12.193,3.979-.162.162-1.891,2.32-2.691,3.367l-.2-.1a59.668,59.668,0,0,1,4.105-9.817c.891-1.742,1.839-3.357,2.8-4.907,1.112.555,6.219,3.035,8.941,3.143,2.608.1,5.96-.487,7.714-2.623a4.632,4.632,0,0,0-.811-6.846c-3.261-2.166-9.823.437-12.557,2.616-.147.117-1.525,1.49-2.515,2.5.442-.693.887-1.417,1.324-2.074,1.638-2.465,3.289-4.622,4.767-6.521.85-1.073,1.638-2.026,2.386-2.911,1.374-.024,6.913-.192,9.335-1.329,2.364-1.109,5.066-3.179,5.638-5.883A4.633,4.633,0,0,0,476.682,302.914ZM433.59,407.478c-2.352,5.413-4.517,9.833-6.072,12.9-.315.618-.6,1.166-.857,1.669H426.4c-.076-.6-.162-1.253-.262-1.988-.475-3.448-1.222-8.36-2.384-14.207-.362-1.848-.787-3.815-1.242-5.832a50.157,50.157,0,0,0,5.352-2.517c2,2.17,7.138,4.71,7.8,5.032C434.968,404.254,434.272,405.918,433.59,407.478Z" transform="translate(-380.745 -294.801)" fill="#263238" opacity="0.3"/>
      </g>
    </g>
    <g id="Floor" transform="translate(51.091 561.304)">
      <g id="Grupo_879332" data-name="Grupo 879332">
        <line id="Línea_2581" data-name="Línea 2581" x2="105.864" transform="translate(422.108)" fill="none" stroke="#263238" stroke-linejoin="round" stroke-width="1"/>
        <line id="Línea_2582" data-name="Línea 2582" x2="362.29" transform="translate(48.574)" fill="none" stroke="#263238" stroke-linejoin="round" stroke-width="1"/>
        <line id="Línea_2583" data-name="Línea 2583" x2="37.331" fill="none" stroke="#263238" stroke-linejoin="round" stroke-width="1"/>
      </g>
    </g>
    <g id="Character" transform="translate(346.865 227.996)">
      <g id="Grupo_879347" data-name="Grupo 879347">
        <g id="Grupo_879334" data-name="Grupo 879334" transform="translate(11.606 313.057)">
          <g id="Grupo_879333" data-name="Grupo 879333">
            <path id="Trazado_622093" data-name="Trazado 622093" d="M339.067,452.718a15.172,15.172,0,0,1-.421,2.725c-1.028,3.762-6.856,2.395-10.279,3.762s-7.883,3.083-10.966,4.111-12.674,1.716-17.474.688c-3.166-.678-4.7-2.4-4.758-4.194a3.822,3.822,0,0,1,1-2.662c2.055-2.395,9.929-5.478,14.389-8.9s10.279-11.656,10.279-11.656c6.506,1.718,17.472.35,17.472.35s.678,3.762.678,4.79A98.789,98.789,0,0,1,339.067,452.718Z" transform="translate(-295.165 -436.591)" fill="#fff" stroke="#263238" stroke-linecap="round" stroke-linejoin="round" stroke-width="1"/>
            <path id="Trazado_622094" data-name="Trazado 622094" d="M339.066,449.5a15.172,15.172,0,0,1-.421,2.725c-1.028,3.762-6.856,2.395-10.279,3.762s-7.883,3.083-10.966,4.111-12.674,1.716-17.474.688c-3.166-.678-4.7-2.4-4.758-4.194,1.748,1.285,6.013,3.515,14.112,2.806,11.184-.966,15.079-4.861,19.7-6.8A72.179,72.179,0,0,1,339.066,449.5Z" transform="translate(-295.165 -433.373)" fill="#fff" stroke="#263238" stroke-linecap="round" stroke-linejoin="round" stroke-width="1"/>
          </g>
          <path id="Trazado_622095" data-name="Trazado 622095" d="M332.108,438.576c-.152-.937-.292-1.706-.292-1.706a79.1,79.1,0,0,1-10.374.5l-.247.186s.685-.342,1.028,2.4a25.235,25.235,0,0,1,0,5.482s7.8-1.854,8.907-4.455C331.453,440.223,331.79,439.385,332.108,438.576Z" transform="translate(-288.677 -436.522)" fill="#fff" stroke="#263238" stroke-linecap="round" stroke-linejoin="round" stroke-width="1"/>
        </g>
        <g id="Grupo_879336" data-name="Grupo 879336" transform="translate(55.145 321.014)">
          <g id="Grupo_879335" data-name="Grupo 879335">
            <path id="Trazado_622096" data-name="Trazado 622096" d="M368.677,465.377c-3.156,1.994-18.594,10.628-21.256,11.121s-12.447-.165-15.274-2.487c-2.189-1.809-2.775-4.215-1.367-6.219a5.918,5.918,0,0,1,1.707-1.583c3.319-2.159,9.127-8.305,11.789-11.789s6.8-9.631,6.8-9.631l.329-1.829,16.939.5s.33,3.648.493,4.316a51.153,51.153,0,0,1,1.337,7.133c.195,1.418.421,2.745.555,3.946C371.061,461.748,370.9,463.968,368.677,465.377Z" transform="translate(-330.017 -442.96)" fill="#fff" stroke="#263238" stroke-linecap="round" stroke-linejoin="round" stroke-width="1"/>
            <path id="Trazado_622097" data-name="Trazado 622097" d="M368.677,462.2c-3.156,1.994-18.594,10.628-21.256,11.121s-12.447-.165-15.274-2.487c-2.189-1.809-2.775-4.215-1.367-6.219.216,1.162,1.819,7.051,12.128,6.619,11.441-.482,20.434-10.7,25.543-14.112.812-.545,1.572-1.017,2.281-1.439C371.061,458.575,370.9,460.8,368.677,462.2Z" transform="translate(-330.017 -439.787)" fill="#fff" stroke="#263238" stroke-linecap="round" stroke-linejoin="round" stroke-width="1"/>
          </g>
          <path id="Trazado_622098" data-name="Trazado 622098" d="M364.3,443.459l-16.935-.5-.332,1.826s-.3.449-.79,1.161c.414-.022,5.5-.276,6.934,1,1.494,1.328,1.66,5.646,5.147,4.482a20.083,20.083,0,0,0,6.439-3.834C364.59,446.62,364.3,443.459,364.3,443.459Z" transform="translate(-325.971 -442.96)" fill="#fff" stroke="#263238" stroke-linecap="round" stroke-linejoin="round" stroke-width="1"/>
        </g>
        <g id="Grupo_879337" data-name="Grupo 879337" transform="translate(24.252 149.978)">
          <path id="Trazado_622099" data-name="Trazado 622099" d="M305.63,311.877s-1.37,35.974,1.37,57.9,3.426,37.687,3.769,38.714,6.852,44.54,7.195,47.281,1.37,5.824,1.37,6.852,1.027,1.37,6.166,2.741a18.329,18.329,0,0,0,10.279-.686s2.4-23.64,2.4-29.806-3.083-34.261-3.083-35.29,2.056-47.966,2.056-47.966l1.713,1.37s2.4,40.086,3.426,47.624,1.37,14.389,2.741,18.158,4.455,27.751,5.825,31.177,2.4,16.445,2.4,16.445l1.028,4.111s1.37,3.769,9.936,3.769S374.5,472.22,374.5,472.22s.342-18.159.342-26.725-4.454-33.918-5.14-39.742-1.713-29.465-.342-34.261,3.769-32.891,3.769-44.883-.686-16.788-.686-16.788-32.547,2.056-43.511.344-21.243-4.113-21.243-4.113Z" transform="translate(-305.288 -306.052)" fill="#263238" stroke="#263238" stroke-linecap="round" stroke-linejoin="round" stroke-width="1"/>
        </g>
        <g id="Grupo_879339" data-name="Grupo 879339" transform="translate(34.53 137.988)">
          <g id="Grupo_879338" data-name="Grupo 879338">
            <path id="Trazado_622100" data-name="Trazado 622100" d="M313.515,312.9s14.733,4.454,38.373,2.4l.342-6.168-37.687-12.676Z" transform="translate(-313.515 -296.454)" fill="gray" stroke="#263238" stroke-linecap="round" stroke-linejoin="round" stroke-width="1"/>
          </g>
          <rect id="Rectángulo_327785" data-name="Rectángulo 327785" width="9.731" height="3.841" transform="translate(10.248 14.965) rotate(2.14)" fill="#fff" stroke="#263238" stroke-linecap="round" stroke-linejoin="round" stroke-width="1"/>
        </g>
        <path id="Trazado_622101" data-name="Trazado 622101" d="M355.689,228.819s-11.992-1.37-17.816.342-13.019,3.769-15.075,9.251-12.163,86.851-12.163,86.851,11.135,3.6,21.072,3.6,20.556-.686,20.556-.686,1.028-43.853,3.427-51.734S355.689,228.819,355.689,228.819Z" transform="translate(-279.703 -175.456)" fill="#2b95f9" stroke="#263238" stroke-linecap="round" stroke-linejoin="round" stroke-width="1"/>
        <path id="Trazado_622102" data-name="Trazado 622102" d="M324.923,236.761s.415,8.515,2.907,10.591,2.7,2.7,2.7,2.7l1.454,16.2s5.4-9.761,6.021-11.006,1.247-6.854,1.247-6.854a61.368,61.368,0,0,0,5.191-4.361c1.87-1.869,3.323-14.329,3.323-15.782s-.415-9.346-.415-9.346-4.361,9.761-9.137,14.122-9.346,4.776-10.384,4.569S324.923,236.761,324.923,236.761Z" transform="translate(-276.141 -177.799)" fill="#fff" stroke="#263238" stroke-linecap="round" stroke-linejoin="round" stroke-width="1"/>
        <g id="Grupo_879340" data-name="Grupo 879340" transform="translate(0 54.368)">
          <path id="Trazado_622103" data-name="Trazado 622103" d="M334.449,231.621s-.416,30.113-.416,42.364-3.738,27.62-7.683,38-12.46,38.313-15.16,44.75a103.578,103.578,0,0,0-4.361,13.084s-3.946-3.114-4.154-13.291,2.285-22.012,2.7-29.281.623-22.531.623-22.531,0,3.529-5.4,6.229-8.722,3.946-12.253-2.7-3.114-10.59.209-16.613,6.438-21.6,9.137-28.658,2.491-17.029,5.4-19.105,16.82-7.684,22.428-11.006,7.89-3.323,7.89-3.323S334.241,229.13,334.449,231.621Z" transform="translate(-285.875 -229.519)" fill="#fff" stroke="#263238" stroke-linecap="round" stroke-linejoin="round" stroke-width="1"/>
          <path id="Trazado_622104" data-name="Trazado 622104" d="M293.48,277.137s-4.149,8.6-2.965,11.558,5.04,6.224,9.485,3.557,5.928-2.963,4.446-8.595S297.333,273.878,293.48,277.137Z" transform="translate(-284.771 -217.936)" fill="none" stroke="#263238" stroke-linecap="round" stroke-linejoin="round" stroke-width="1"/>
          <path id="Trazado_622105" data-name="Trazado 622105" d="M303.874,254.638c-.13-2.891-.229-4.818-.229-4.818" transform="translate(-281.445 -224.459)" fill="#fff" stroke="#263238" stroke-linecap="round" stroke-linejoin="round" stroke-width="1"/>
          <path id="Trazado_622106" data-name="Trazado 622106" d="M301.983,298.11s2.907-15.783,2.907-24.713c0-4.888-.249-11.957-.475-17.352" transform="translate(-281.86 -222.907)" fill="#fff" stroke="#263238" stroke-linecap="round" stroke-linejoin="round" stroke-width="1"/>
          <path id="Trazado_622107" data-name="Trazado 622107" d="M325.543,229.545s-1.805.005-6.131,2.33c-.964,5.463-2.812,18.2-1.552,29.859,1.067,9.871,4.616,20.162,7.021,26.267a87.3,87.3,0,0,0,1.286-14.016c0-12.252.416-42.364.416-42.364C326.374,229.13,325.543,229.545,325.543,229.545Z" transform="translate(-278.008 -229.519)" fill="#fff" stroke="#263238" stroke-linecap="round" stroke-linejoin="round" stroke-width="1"/>
        </g>
        <g id="Grupo_879342" data-name="Grupo 879342" transform="translate(35.125 15.101)">
          <path id="Trazado_622108" data-name="Trazado 622108" d="M314,210.537s1.72,10.965,3.44,15.7,5.805,9.891,7.526,13.116,5.376,6.666,9.461,6.666,9.676-5.592,10.751-7.527,4.085-5.374,4.3-7.524.215-5.591.215-5.591a7.383,7.383,0,0,0,4.946-6.022c.859-4.945-.645-7.741-.645-7.741a41.527,41.527,0,0,0-3.655-6.881c-3.011-4.945-12.9-7.741-22.362-6.235S313.784,204.086,314,210.537Z" transform="translate(-313.991 -198.088)" fill="#fff" stroke="#263238" stroke-linecap="round" stroke-linejoin="round" stroke-width="1"/>
          <g id="Grupo_879341" data-name="Grupo 879341" transform="translate(0.268 16.964)">
            <path id="Trazado_622109" data-name="Trazado 622109" d="M314.207,215.095a30.987,30.987,0,0,1,12.424.156s1.076,3.87-1.291,6.451-6.665,1.72-7.955,1.289S314.137,220.3,314.207,215.095Z" transform="translate(-314.206 -210.951)" fill="#fff" stroke="#263238" stroke-linecap="round" stroke-linejoin="round" stroke-width="1"/>
            <path id="Trazado_622110" data-name="Trazado 622110" d="M327.591,214.975a30.985,30.985,0,0,1,12.424-.021s1.131,3.854-1.2,6.467-6.64,1.816-7.937,1.405S327.595,220.179,327.591,214.975Z" transform="translate(-310.869 -211.003)" fill="#fff" stroke="#263238" stroke-linecap="round" stroke-linejoin="round" stroke-width="1"/>
            <path id="Trazado_622111" data-name="Trazado 622111" d="M324.152,215.224a5.966,5.966,0,0,1,4.3-.327" transform="translate(-311.726 -210.924)" fill="none" stroke="#263238" stroke-linecap="round" stroke-linejoin="round" stroke-width="1"/>
            <line id="Línea_2584" data-name="Línea 2584" y1="3.951" x2="5.856" transform="translate(29.147)" fill="none" stroke="#263238" stroke-linecap="round" stroke-linejoin="round" stroke-width="1"/>
            <path id="Trazado_622112" data-name="Trazado 622112" d="M324.416,216.625s2.314-.9,3.727,0" transform="translate(-311.66 -210.531)" fill="none" stroke="#263238" stroke-linecap="round" stroke-linejoin="round" stroke-width="1"/>
          </g>
          <path id="Trazado_622113" data-name="Trazado 622113" d="M328.53,213.882s4.111-1.8,7.837-.771" transform="translate(-310.367 -194.422)" fill="none" stroke="#263238" stroke-linecap="round" stroke-linejoin="round" stroke-width="1"/>
          <path id="Trazado_622114" data-name="Trazado 622114" d="M324.463,214.43s-3.468-2.056-6.937-.9" transform="translate(-313.11 -194.326)" fill="none" stroke="#263238" stroke-linecap="round" stroke-linejoin="round" stroke-width="1"/>
          <path id="Trazado_622115" data-name="Trazado 622115" d="M324.449,218.293s-.256,9.38-.127,9.764a4.426,4.426,0,0,0,2.7,1.286,21.853,21.853,0,0,0,3.341-.643" transform="translate(-311.425 -193.051)" fill="none" stroke="#263238" stroke-linecap="round" stroke-linejoin="round" stroke-width="1"/>
          <path id="Trazado_622116" data-name="Trazado 622116" d="M325.239,228.989s2.57,2.184,7.323.257" transform="translate(-311.188 -190.385)" fill="none" stroke="#263238" stroke-linecap="round" stroke-linejoin="round" stroke-width="1"/>
        </g>
        <path id="Trazado_622117" data-name="Trazado 622117" d="M312.089,203.229s-7.1,2.15-5.805,6.666,9.461,6.02,17.631,3.87a108.832,108.832,0,0,0,16.986-6.451,3.229,3.229,0,0,0,.431,4.516c2.365,2.15,2.15-4.516,2.15-4.516s-.215,7.741,2.795,8.816,3.226,1.72,3.226,1.72-1.076,4.3.215,4.73,1.505-4.515,1.505-4.515.43-2.58,2.58-3.011l2.151-.43s-.431-14.405-1.72-19.781-14.407-11.612-25.8-7.526S311.659,196.994,312.089,203.229Z" transform="translate(-280.827 -186)" fill="#263238" stroke="#263238" stroke-linecap="round" stroke-linejoin="round" stroke-width="1"/>
        <g id="Grupo_879343" data-name="Grupo 879343" transform="translate(3.925 102.78)">
          <path id="Trazado_622118" data-name="Trazado 622118" d="M291.178,283.144l4.983-7.89,4.154,6.645s-5.192,2.907-5.814,2.907A16.348,16.348,0,0,1,291.178,283.144Z" transform="translate(-288.478 -266.531)" fill="#fff" stroke="#263238" stroke-linecap="round" stroke-linejoin="round" stroke-width="1"/>
          <path id="Trazado_622119" data-name="Trazado 622119" d="M299.323,285.765a24.819,24.819,0,0,0,3.738,1.246c1.247.207,5.192-1.246,6.439-3.322s-.831-2.285-.831-2.285l-2.492,2.285-4.154-.209Z" transform="translate(-286.448 -264.998)" fill="#fff" stroke="#263238" stroke-linecap="round" stroke-linejoin="round" stroke-width="1"/>
          <path id="Trazado_622120" data-name="Trazado 622120" d="M289.017,268.272l12.045,18.275,10.176.208-10.8-18.482Z" transform="translate(-289.017 -268.272)" fill="#263238" stroke="#263238" stroke-linecap="round" stroke-linejoin="round" stroke-width="1"/>
          <path id="Trazado_622121" data-name="Trazado 622121" d="M300.939,277.753s-9.761,3.323-9.761,4.776,1.454,2.492,3.114,2.492,8.1-4.154,8.722-5.4S303.015,277.546,300.939,277.753Z" transform="translate(-288.478 -265.916)" fill="#fff" stroke="#263238" stroke-linecap="round" stroke-linejoin="round" stroke-width="1"/>
          <path id="Trazado_622122" data-name="Trazado 622122" d="M294.5,284.379a3.637,3.637,0,0,0,2.284,2.492c1.869.623,7.476-3.323,8.515-4.776s-2.078-1.038-4.361-.207S294.5,284.379,294.5,284.379Z" transform="translate(-287.649 -265.066)" fill="#fff" stroke="#263238" stroke-linecap="round" stroke-linejoin="round" stroke-width="1"/>
          <path id="Trazado_622123" data-name="Trazado 622123" d="M291.537,272.1a2.518,2.518,0,0,0-.415,3.53c1.453,2.076,4.983,2.492,4.983,2.492Z" transform="translate(-288.63 -267.319)" fill="#fff" stroke="#263238" stroke-linecap="round" stroke-linejoin="round" stroke-width="1"/>
        </g>
        <g id="Grupo_879344" data-name="Grupo 879344" transform="translate(61.264 50.448)">
          <path id="Trazado_622124" data-name="Trazado 622124" d="M345.275,226.382s-8.1,54.2-9.968,58.977,3.53,41.428,3.53,46.413,4.776,5.814,6.645,6.852,17.029,8.308,19.314,12.046,8.1,11.63,8.1,11.63-3.479-35.25-3.946-54.3c-.187-7.681.416-19.105.416-19.105s8.722-45.271,7.892-48.594-14.745-8.722-20.767-10.8A96.7,96.7,0,0,0,345.275,226.382Z" transform="translate(-334.914 -226.382)" fill="#fff" stroke="#263238" stroke-linecap="round" stroke-linejoin="round" stroke-width="1"/>
          <path id="Trazado_622125" data-name="Trazado 622125" d="M355.45,233.442c.2-1.415.4-2.926.558-4.106a96.709,96.709,0,0,0-10.734-2.953s-8.1,54.2-9.968,58.977a12.52,12.52,0,0,0-.379,4.228c1.1-1.554,5.755-8.2,9.932-15.648C349.636,265.423,355.035,236.35,355.45,233.442Z" transform="translate(-334.913 -226.382)" fill="#fff" stroke="#263238" stroke-linecap="round" stroke-linejoin="round" stroke-width="1"/>
        </g>
        <path id="Trazado_622126" data-name="Trazado 622126" d="M338.886,313.735a61.572,61.572,0,0,0,12.044,2.492c7.27.831,24.461,7.683,30.59,15.2,4.225,5.185,5.192,7.268,5.192,7.268s-8.576,1.2-10.238,1.408-5.4.416-5.4.416-6.646-9.553-9.968-12.253S340.133,316.849,338.886,313.735Z" transform="translate(-272.661 -154.159)" fill="#fff" stroke="#263238" stroke-linecap="round" stroke-linejoin="round" stroke-width="1"/>
        <path id="Trazado_622127" data-name="Trazado 622127" d="M314.338,431.469v5.923a2.462,2.462,0,0,0,1.514,2.284,34.247,34.247,0,0,0,8.079,1.984,16.1,16.1,0,0,0,10.018-1.573,2.466,2.466,0,0,0,1.288-2.175v-5.373a2.09,2.09,0,0,0-2.425-2.069c-3.754.616-11.112,1.434-16.6-.379A1.438,1.438,0,0,0,314.338,431.469Z" transform="translate(-278.78 -125.172)" fill="gray" stroke="#263238" stroke-linecap="round" stroke-linejoin="round" stroke-width="1"/>
        <path id="Trazado_622128" data-name="Trazado 622128" d="M342.953,436.545v6.684a2.777,2.777,0,0,0,1.709,2.577,38.624,38.624,0,0,0,9.117,2.239,18.178,18.178,0,0,0,11.306-1.774,2.784,2.784,0,0,0,1.453-2.455v-6.064a2.357,2.357,0,0,0-2.736-2.335c-4.238.695-12.542,1.619-18.733-.427A1.623,1.623,0,0,0,342.953,436.545Z" transform="translate(-271.647 -123.953)" fill="gray" stroke="#263238" stroke-linecap="round" stroke-linejoin="round" stroke-width="1"/>
        <g id="Grupo_879346" data-name="Grupo 879346" transform="translate(78.599 61.454)">
          <g id="Grupo_879345" data-name="Grupo 879345">
            <path id="Trazado_622129" data-name="Trazado 622129" d="M355.548,318.291l-6.757,6.217,10,9.731,3.784-6.217Z" transform="translate(-348.79 -214.477)" fill="#fff" stroke="#263238" stroke-linecap="round" stroke-linejoin="round" stroke-width="1"/>
            <path id="Trazado_622130" data-name="Trazado 622130" d="M363.9,264.058s-1.454,12.253-.831,16.613,10.373,28.617,10.373,28.617l-20.757,30.049s2.492,10.59,9.553,13.913c0,0,20.412-19.878,24.3-24.09,8.316-9.014,11.506-16.853,11.506-20.176S377.6,245.16,377.188,243.706s-2.491-7.061-7.683-8.514" transform="translate(-347.82 -235.192)" fill="#fff" stroke="#263238" stroke-linecap="round" stroke-linejoin="round" stroke-width="1"/>
          </g>
          <path id="Trazado_622131" data-name="Trazado 622131" d="M370.9,294.863s5.928-3.557,12.152-1.186" transform="translate(-343.28 -220.816)" fill="none" stroke="#263238" stroke-linecap="round" stroke-linejoin="round" stroke-width="1"/>
          <path id="Trazado_622132" data-name="Trazado 622132" d="M376.591,291.413A10.305,10.305,0,0,1,384,292.894" transform="translate(-341.86 -221.218)" fill="none" stroke="#263238" stroke-linecap="round" stroke-linejoin="round" stroke-width="1"/>
        </g>
      </g>
    </g>
    <g id="Location_3" data-name="Location 3" transform="translate(352.359 95.578)">
      <g id="Grupo_879355" data-name="Grupo 879355">
        <path id="Trazado_622133" data-name="Trazado 622133" d="M327.98,82.408a37.659,37.659,0,0,1,29.263,13.951h70.031a19.694,19.694,0,0,1,0,39.388h-64.99A37.859,37.859,0,0,1,349.8,150.885l-20.974,16.237a.444.444,0,0,1-.269.091.43.43,0,0,1-.256-.084l-23.023-16.737h0a37.035,37.035,0,0,1-15.01-30.277A37.751,37.751,0,0,1,327.98,82.408Z" transform="translate(-290.272 -79.405)" fill="#263238"/>
        <g id="Grupo_879354" data-name="Grupo 879354" transform="translate(1.389)">
          <g id="Grupo_879348" data-name="Grupo 879348" transform="translate(45.743 13.951)">
            <path id="Rectángulo_327786" data-name="Rectángulo 327786" d="M15.414,0h94.663a0,0,0,0,1,0,0V38.514a0,0,0,0,1,0,0H15.414A15.414,15.414,0,0,1,0,23.1V15.414A15.414,15.414,0,0,1,15.414,0Z" transform="translate(110.078 38.514) rotate(-180)" fill="#fff" stroke="#263238" stroke-linecap="round" stroke-linejoin="round" stroke-width="1"/>
            <line id="Línea_2585" data-name="Línea 2585" x1="48.702" transform="translate(44.171 13.602)" fill="#92e3a9" stroke="#263238" stroke-linejoin="round" stroke-width="1"/>
            <line id="Línea_2586" data-name="Línea 2586" x1="48.702" transform="translate(44.171 19.744)" fill="#92e3a9" stroke="#263238" stroke-linejoin="round" stroke-width="1"/>
            <line id="Línea_2587" data-name="Línea 2587" x1="48.702" transform="translate(44.171 25.887)" fill="#92e3a9" stroke="#263238" stroke-linejoin="round" stroke-width="1"/>
          </g>
          <path id="Trazado_622134" data-name="Trazado 622134" d="M306.214,147.2l23.023,16.737L350.211,147.7l.026-.017a37.278,37.278,0,1,0-58.853-30.406A36.545,36.545,0,0,0,306.214,147.2Z" transform="translate(-291.384 -80.004)" fill="#fff" stroke="#263238" stroke-linecap="round" stroke-linejoin="round" stroke-width="1"/>
          <g id="Grupo_879353" data-name="Grupo 879353" transform="translate(4.215 2.207)">
            <path id="Trazado_622135" data-name="Trazado 622135" d="M360.345,116.556a32.794,32.794,0,1,1-32.794-32.794A32.716,32.716,0,0,1,360.345,116.556Z" transform="translate(-294.758 -81.275)" fill="#ffb338" stroke="#263238" stroke-linejoin="round" stroke-width="1"/>
            <path id="Trazado_622136" data-name="Trazado 622136" d="M349.758,129.285l-23.589-6.133-24.992,5.082q.483.557.988,1.091a32.8,32.8,0,0,0,47.592-.04Z" transform="translate(-293.158 -71.456)" fill="#fff" stroke="#263238" stroke-linecap="round" stroke-linejoin="round" stroke-width="1"/>
            <g id="Grupo_879349" data-name="Grupo 879349" transform="translate(17.546 48.702)">
              <path id="Trazado_622137" data-name="Trazado 622137" d="M320.05,121.85a19.114,19.114,0,0,0-5.334,4.241c-2.326,2.736-6.294,9.987-5.883,9.713s11.355-6.977,11.355-6.977Z" transform="translate(-308.803 -120.482)" fill="#2b95f9" stroke="#263238" stroke-linecap="round" stroke-linejoin="round" stroke-width="1"/>
              <path id="Trazado_622138" data-name="Trazado 622138" d="M326.863,120.755l-8.619,9.439,2.462,8.619,10.123-12.859Z" transform="translate(-306.45 -120.755)" fill="#2b95f9" stroke="#263238" stroke-linecap="round" stroke-linejoin="round" stroke-width="1"/>
            </g>
            <g id="Grupo_879352" data-name="Grupo 879352" transform="translate(15.755)">
              <g id="Grupo_879350" data-name="Grupo 879350">
                <path id="Trazado_622139" data-name="Trazado 622139" d="M313.705,97.5s-5.609,1.094-6.294-3.83,6.977-11.9,17.921-11.9,19.564,9.166,19.153,18.058a31.067,31.067,0,0,1-5.609,16.006c-.547.821-5.061,3.283-6.976,3.557s-3.283-2.462-2.326-6.019-2.051-4.515-.821-7.8,2.873-3.283,3.421-4.377-5.472-3.421-10.945-3.147S313.705,97.5,313.705,97.5Z" transform="translate(-307.369 -81.771)" fill="#263238" stroke="#263238" stroke-linecap="round" stroke-linejoin="round" stroke-width="1"/>
              </g>
              <path id="Trazado_622140" data-name="Trazado 622140" d="M317.563,118.753s-.035.194-.094.531c-.292,1.679-1.183,6.952-1.412,10.14-.274,3.83,2.462,3.693,3.557,2.6s6.841-6.84,7.8-9.3,3.147-9.849,3.147-9.849Z" transform="translate(-305.208 -74.019)" fill="#fff" stroke="#263238" stroke-linecap="round" stroke-linejoin="round" stroke-width="1"/>
              <g id="Grupo_879351" data-name="Grupo 879351" transform="translate(3.085 13.04)">
                <path id="Trazado_622141" data-name="Trazado 622141" d="M313.09,94.9s-1.915,10.671-2.6,16.279-1.368,8.892.958,12.449,8.891,1.232,12.174-.136,9.987-5.745,9.987-5.745,4.651.274,6.566-2.053a3.518,3.518,0,0,0-1.231-5.334A6.061,6.061,0,0,0,334.567,112c-.821.957-.685,2.051-1.642,2.051s-2.326.274-2.053-.683,2.326-4.1,1.779-6.156-4.651-3.421-1.232-5.336,6.977-1.778,5.336-4.651-10.123-5.883-15.459-4.788A39.234,39.234,0,0,0,313.09,94.9Z" transform="translate(-309.838 -92.209)" fill="#fff" stroke="#263238" stroke-linecap="round" stroke-linejoin="round" stroke-width="1"/>
                <path id="Trazado_622142" data-name="Trazado 622142" d="M314.262,96.895s3.2-.68,3.009,2.6c-.075,1.3-5.745,7.25-4.925,8.619a7.19,7.19,0,0,0,2.189,2.189" transform="translate(-309.233 -91.055)" fill="none" stroke="#263238" stroke-linecap="round" stroke-linejoin="round" stroke-width="1"/>
                <path id="Trazado_622143" data-name="Trazado 622143" d="M319.339,99.793a3.777,3.777,0,0,1,5.747,1.231" transform="translate(-307.47 -90.533)" fill="none" stroke="#263238" stroke-linecap="round" stroke-linejoin="round" stroke-width="1"/>
                <path id="Trazado_622144" data-name="Trazado 622144" d="M312.988,110.79s.821,2.053,4.1,1.779,4.241-.958,4.241-.958" transform="translate(-309.053 -87.577)" fill="none" stroke="#263238" stroke-linecap="round" stroke-linejoin="round" stroke-width="1"/>
                <path id="Trazado_622145" data-name="Trazado 622145" d="M321.212,103.583c-.192.9-.736,1.55-1.213,1.449s-.71-.916-.517-1.818.736-1.552,1.213-1.45S321.4,102.68,321.212,103.583Z" transform="translate(-307.451 -89.829)" fill="#263238"/>
                <path id="Trazado_622146" data-name="Trazado 622146" d="M314.826,101.144c-.174.873-.688,1.507-1.152,1.415s-.7-.874-.523-1.748.688-1.507,1.151-1.415S315,100.271,314.826,101.144Z" transform="translate(-309.027 -90.419)" fill="#263238"/>
              </g>
            </g>
          </g>
        </g>
      </g>
    </g>
    <g id="Location_2" data-name="Location 2" transform="translate(106.842 160.568)">
      <g id="Grupo_879359" data-name="Grupo 879359">
        <path id="Trazado_622147" data-name="Trazado 622147" d="M213.982,134.593a37.656,37.656,0,0,0-29.263,13.952H114.689a19.694,19.694,0,0,0,0,39.387h64.99a37.863,37.863,0,0,0,12.479,15.139l20.974,16.236a.437.437,0,0,0,.525.007l23.023-16.735h0A37.031,37.031,0,0,0,251.689,172.3,37.75,37.75,0,0,0,213.982,134.593Z" transform="translate(-93.433 -131.386)" fill="#263238"/>
        <g id="Grupo_879358" data-name="Grupo 879358">
          <g id="Grupo_879356" data-name="Grupo 879356" transform="translate(0 14.264)">
            <path id="Trazado_622148" data-name="Trazado 622148" d="M113,181.958h90.821V143.444H113A19.256,19.256,0,0,0,93.745,162.7h0A19.256,19.256,0,0,0,113,181.958Z" transform="translate(-93.745 -143.444)" fill="#fff" stroke="#263238" stroke-linecap="round" stroke-linejoin="round" stroke-width="1"/>
            <line id="Línea_2588" data-name="Línea 2588" x2="48.702" transform="translate(17.204 13.602)" fill="#92e3a9" stroke="#263238" stroke-linejoin="round" stroke-width="1"/>
            <line id="Línea_2589" data-name="Línea 2589" x2="48.702" transform="translate(17.204 19.744)" fill="#92e3a9" stroke="#263238" stroke-linejoin="round" stroke-width="1"/>
            <line id="Línea_2590" data-name="Línea 2590" x2="48.702" transform="translate(17.204 25.887)" fill="#92e3a9" stroke="#263238" stroke-linejoin="round" stroke-width="1"/>
          </g>
          <path id="Trazado_622149" data-name="Trazado 622149" d="M218.518,199.471,195.5,216.207l-20.974-16.237-.026-.017a37.278,37.278,0,1,1,58.853-30.406A36.547,36.547,0,0,1,218.518,199.471Z" transform="translate(-77.529 -131.964)" fill="#fff" stroke="#263238" stroke-linecap="round" stroke-linejoin="round" stroke-width="1"/>
          <circle id="Elipse_7044" data-name="Elipse 7044" cx="32.794" cy="32.794" r="32.794" transform="translate(80.962 10.421) rotate(-9.142)" fill="#ffb338" stroke="#263238" stroke-linejoin="round" stroke-width="1"/>
          <g id="Grupo_879357" data-name="Grupo 879357" transform="translate(90.662 5.671)">
            <path id="Trazado_622150" data-name="Trazado 622150" d="M222.692,184.726c2.361-13.345-10.765-18.828-12.077-25.623,0,0,3.288-.656,4.39-6.366s-1.32-13.388-12.951-15.8S176.807,144.4,174.612,153.4s4.171,13.17.883,16.458a6.562,6.562,0,0,1-1.915,1.189c-1.644,1.006-3.979,2.422-5.536,3.288-2.623,1.452-4.084,15.741,9.619,17.49s16.9-2.624,24.486-3.5c4.775-.551,12.671-.061,17.866.376" transform="translate(-166.317 -136.566)" fill="#263238" stroke="#263238" stroke-linecap="round" stroke-linejoin="round" stroke-width="1"/>
          </g>
          <path id="Trazado_622151" data-name="Trazado 622151" d="M216.784,173.973c-4.61,0-10.317,3.292-12.292,3.292s-2.195-8.34-2.195-8.34l-10.315-2.195s1.1,8.122.658,11.413-7.9,3.732-10.974,4.17-4.83,2.415-5.707,7.023c-.018.092-.042.2-.064.3a32.581,32.581,0,0,0,12.806,3.973c4.454-.788,8.932-1.677,12.515-2.595,2.387-.612,4.719-1.146,6.919-1.608a32.946,32.946,0,0,0,12.34-12.5C219.884,175.1,218.794,173.973,216.784,173.973Z" transform="translate(-73.267 -123.375)" fill="#fff" stroke="#263238" stroke-linecap="round" stroke-linejoin="round" stroke-width="1"/>
          <path id="Trazado_622152" data-name="Trazado 622152" d="M176.5,187.38a32.778,32.778,0,0,0,41.826-9.99c-5.477.7-5.969,3.583-9.157,3.583-3.512,0-7.682-.438-12.51,1.756s-5.487,3.072-12.292,3.072A20.1,20.1,0,0,0,176.5,187.38Z" transform="translate(-73.116 -120.718)" fill="#2b95f9" stroke="#263238" stroke-linecap="round" stroke-linejoin="round" stroke-width="1"/>
          <path id="Trazado_622153" data-name="Trazado 622153" d="M199.523,144.945s7.682,5.925,8.12,14.047-2.194,14.047-4.828,16.9-6.145,1.755-9.657-.658a24.9,24.9,0,0,1-5.927-6.146,4.837,4.837,0,0,1-2.853-1.317,5.1,5.1,0,0,1-1.755-2.853s6.584-.219,8.12-4.609.22-8.34,2.415-11.413S199.523,144.945,199.523,144.945Z" transform="translate(-71.59 -128.805)" fill="#fff" stroke="#263238" stroke-linecap="round" stroke-linejoin="round" stroke-width="1"/>
          <path id="Trazado_622154" data-name="Trazado 622154" d="M195.621,154s-3.732-1.756-5.268,1.537" transform="translate(-69.663 -126.665)" fill="none" stroke="#263238" stroke-linecap="round" stroke-linejoin="round" stroke-width="1"/>
          <path id="Trazado_622155" data-name="Trazado 622155" d="M198.084,153.189s2.633-1.975,3.512.22" transform="translate(-67.736 -126.954)" fill="none" stroke="#263238" stroke-linecap="round" stroke-linejoin="round" stroke-width="1"/>
          <path id="Trazado_622156" data-name="Trazado 622156" d="M197.818,166.51a3.784,3.784,0,0,1-3.073-.658" transform="translate(-68.568 -123.594)" fill="none" stroke="#263238" stroke-linecap="round" stroke-linejoin="round" stroke-width="1"/>
          <path id="Trazado_622157" data-name="Trazado 622157" d="M198.784,154.432a27.828,27.828,0,0,0-.658,6.585c.22,2.633-.658,3.292-1.975,2.852" transform="translate(-68.218 -126.441)" fill="none" stroke="#263238" stroke-linecap="round" stroke-linejoin="round" stroke-width="1"/>
          <ellipse id="Elipse_7045" data-name="Elipse 7045" cx="0.792" cy="1.697" rx="0.792" ry="1.697" transform="translate(122.819 30.009)" fill="#263238"/>
          <ellipse id="Elipse_7046" data-name="Elipse 7046" cx="0.792" cy="1.697" rx="0.792" ry="1.697" transform="translate(131.983 29.104)" fill="#263238"/>
        </g>
      </g>
    </g>
    <g id="Location_1" data-name="Location 1" transform="translate(106.085 377.191)">
      <g id="Grupo_879365" data-name="Grupo 879365">
        <path id="Trazado_622158" data-name="Trazado 622158" d="M213.1,307.427a37.66,37.66,0,0,0-29.263,13.952H113.8a19.694,19.694,0,0,0,0,39.388h64.99A37.859,37.859,0,0,0,191.27,375.9l20.974,16.237a.444.444,0,0,0,.269.091.43.43,0,0,0,.256-.084l23.023-16.737h0A37.034,37.034,0,0,0,250.8,345.135,37.751,37.751,0,0,0,213.1,307.427Z" transform="translate(-92.897 -304.926)" fill="#263238"/>
        <g id="Grupo_879364" data-name="Grupo 879364">
          <g id="Grupo_879360" data-name="Grupo 879360" transform="translate(0 13.951)">
            <path id="Trazado_622159" data-name="Trazado 622159" d="M112.4,355.106h90.821V316.592H112.4A19.257,19.257,0,0,0,93.139,335.85h0A19.256,19.256,0,0,0,112.4,355.106Z" transform="translate(-93.139 -316.592)" fill="#fff" stroke="#263238" stroke-linecap="round" stroke-linejoin="round" stroke-width="1"/>
            <line id="Línea_2591" data-name="Línea 2591" x2="48.702" transform="translate(17.204 13.602)" fill="#92e3a9" stroke="#263238" stroke-linejoin="round" stroke-width="1"/>
            <line id="Línea_2592" data-name="Línea 2592" x2="48.702" transform="translate(17.204 19.745)" fill="#92e3a9" stroke="#263238" stroke-linejoin="round" stroke-width="1"/>
            <line id="Línea_2593" data-name="Línea 2593" x2="48.702" transform="translate(17.204 25.887)" fill="#92e3a9" stroke="#263238" stroke-linejoin="round" stroke-width="1"/>
          </g>
          <path id="Trazado_622160" data-name="Trazado 622160" d="M217.912,372.62l-23.023,16.735L173.916,373.12l-.026-.018A37.278,37.278,0,1,1,232.744,342.7,36.549,36.549,0,0,1,217.912,372.62Z" transform="translate(-76.923 -305.425)" fill="#fff" stroke="#263238" stroke-linecap="round" stroke-linejoin="round" stroke-width="1"/>
          <g id="Grupo_879363" data-name="Grupo 879363" transform="translate(85.828 0.641)">
            <path id="Trazado_622161" data-name="Trazado 622161" d="M161.841,341.606a32.794,32.794,0,1,0,32.794-32.793A32.715,32.715,0,0,0,161.841,341.606Z" transform="translate(-161.841 -305.221)" fill="#ffb338" stroke="#263238" stroke-linejoin="round" stroke-width="1"/>
            <g id="Grupo_879362" data-name="Grupo 879362" transform="translate(7.538)">
              <path id="Trazado_622162" data-name="Trazado 622162" d="M167.875,352.4a32.815,32.815,0,0,0,49.042,1.662l-15.793-3.524-21.854-1.084Z" transform="translate(-167.875 -295.09)" fill="#2b95f9" stroke="#263238" stroke-linecap="round" stroke-linejoin="round" stroke-width="1"/>
              <path id="Trazado_622163" data-name="Trazado 622163" d="M181.471,345.839c1.428-5.236-.237-13.329-.237-13.329,3.57-3.569,14.28,13.8,14.28,13.8s-.239,3.094,3.332,8.569c.216.33.433.637.652.926-2.207,3.548-6.892,10.25-10.41,9.547-3.332-.667-8.991-7.508-12.091-11.557C180.253,351.744,180.384,349.827,181.471,345.839Z" transform="translate(-165.601 -299.435)" fill="#fff" stroke="#263238" stroke-linecap="round" stroke-linejoin="round" stroke-width="1"/>
              <path id="Trazado_622164" data-name="Trazado 622164" d="M178.019,329.968s-1.665-.237-1.9,2.857,1.191,4.76,2.38,4.76h1.9a46.175,46.175,0,0,0,1.191,5.474c.952,3.569.952,5.474,8.569,8.568s9.52,2.618,11.662-.713,2.142-15.471,2.38-20.707,1.191-11.187,1.191-11.187a18.07,18.07,0,0,0-5.474-3.808c-3.57-1.667-14.519.239-17.851,1.9s-2.142,10.235-2.142,10.235Z" transform="translate(-165.827 -303.787)" fill="#fff" stroke="#263238" stroke-linecap="round" stroke-linejoin="round" stroke-width="1"/>
              <path id="Trazado_622165" data-name="Trazado 622165" d="M197.092,339.8a10.878,10.878,0,0,1-6.691-.389" transform="translate(-162.26 -297.594)" fill="none" stroke="#263238" stroke-linecap="round" stroke-linejoin="round" stroke-width="1"/>
              <path id="Trazado_622166" data-name="Trazado 622166" d="M195.733,329.657c0,.788.32,1.428.715,1.428s.713-.64.713-1.428-.319-1.428-.713-1.428S195.733,328.869,195.733,329.657Z" transform="translate(-160.931 -300.381)" fill="#263238"/>
              <path id="Trazado_622167" data-name="Trazado 622167" d="M190.208,330.419c0,.788.32,1.428.715,1.428s.713-.64.713-1.428-.319-1.428-.713-1.428S190.208,329.631,190.208,330.419Z" transform="translate(-162.308 -300.191)" fill="#263238"/>
              <path id="Trazado_622168" data-name="Trazado 622168" d="M197.97,325.852a2.358,2.358,0,0,0-2.618-.237" transform="translate(-161.026 -301.099)" fill="none" stroke="#263238" stroke-linecap="round" stroke-linejoin="round" stroke-width="1"/>
              <path id="Trazado_622169" data-name="Trazado 622169" d="M192.158,326.174s-2.856-1.189-5,2.142" transform="translate(-163.068 -300.945)" fill="none" stroke="#263238" stroke-linecap="round" stroke-linejoin="round" stroke-width="1"/>
              <path id="Trazado_622170" data-name="Trazado 622170" d="M194.979,328.376l.895,9.574-4.522.476" transform="translate(-162.023 -300.345)" fill="none" stroke="#263238" stroke-linecap="round" stroke-linejoin="round" stroke-width="1"/>
              <g id="Grupo_879361" data-name="Grupo 879361" transform="translate(7.424)">
                <path id="Trazado_622171" data-name="Trazado 622171" d="M173.826,315.459c.237-3.808,6.188-2.38,10-3.808s10.471-5.713,16.184-5.713,6.664,4.761,6.664,4.761l-.237-3.809s3.808,2.143,3.569,6.189-3.093,8.806-5,8.569-18.09-.953-19.041,1.428,2.618,6.9,2.618,6.9c-.239,2.38-3.808,1.9-4.046,2.856s0,4.046.239,6.9a7.622,7.622,0,0,1-.979,3.819,5.376,5.376,0,0,0,.979,3.321,5.791,5.791,0,0,0,4.521,1.9s5.474-5,9.521-4.284,5,2.618,5,2.618l.112.04c-.107.846-.232,1.642-.376,2.38-.677-1.042-2.65-3.61-5.687-3.61-3.808,0-7.854,4.522-7.854,4.522s4.046,2.618,6.188,2.618,1.667-2.618,3.094-2.38.952,1.665,1.667,1.665a3.707,3.707,0,0,0,2.252-1.344,7.694,7.694,0,0,1-.825,2.059c-2.143,3.332-4.046,3.808-11.662.713s-7.617-5-8.569-8.568c-.1-.36-.18-.691-.262-1.017a28.267,28.267,0,0,1,1.132-4.957c.061-2.885-.306-5.679-1.108-6.641-1.189-1.428-3.332-.476-3.332-.476S173.587,319.267,173.826,315.459Z" transform="translate(-173.817 -305.938)" fill="#263238" stroke="#263238" stroke-linecap="round" stroke-linejoin="round" stroke-width="1"/>
              </g>
            </g>
          </g>
        </g>
      </g>
    </g>
  </g>
</svg>
